<?xml version="1.0" standalone="no"?>
<!DOCTYPE svg PUBLIC "-//W3C//DTD SVG 20010904//EN"
 "http://www.w3.org/TR/2001/REC-SVG-20010904/DTD/svg10.dtd">
<svg version="1.0" xmlns="http://www.w3.org/2000/svg"
 width="1600.000000pt" height="739.000000pt" viewBox="0 0 1600.000000 739.000000"
 preserveAspectRatio="xMidYMid meet">
<metadata>
Created by potrace 1.16, written by Peter Selinger 2001-2019
</metadata>
<g transform="translate(0.000000,739.000000) scale(0.100000,-0.100000)"
fill="#000000" stroke="none">
<path d="M6241 7282 c-7 -59 -12 -127 -12 -152 0 -40 -12 -261 -34 -628 l-8
-123 -30 -15 -30 -16 8 168 7 168 -28 -18 c-16 -10 -38 -26 -49 -36 -11 -10
-58 -44 -105 -75 -47 -32 -119 -81 -160 -110 -41 -28 -138 -95 -216 -148
l-141 -96 -84 25 c-46 14 -93 30 -103 35 -10 6 -42 19 -70 29 -28 10 -122 43
-210 74 -87 31 -162 56 -167 56 -5 0 -9 -15 -9 -32 0 -18 -5 -40 -10 -48 -7
-11 -8 -6 -4 18 5 25 3 32 -10 32 -10 0 -16 -8 -16 -21 0 -16 -4 -19 -21 -14
-14 5 -19 3 -15 -3 3 -6 2 -14 -4 -17 -8 -5 -7 -11 1 -21 14 -17 4 -48 -12
-38 -7 4 -9 3 -5 -4 3 -6 2 -14 -4 -17 -8 -5 -8 -11 0 -20 8 -10 7 -14 -2 -18
-9 -4 -8 -6 3 -6 10 -1 24 15 34 37 29 59 71 84 61 35 -3 -16 -7 -49 -8 -75
-1 -30 -6 -48 -13 -48 -21 0 -75 22 -75 30 0 4 -8 6 -17 4 -10 -3 -38 2 -62
11 -24 8 -49 15 -55 15 -7 0 -16 -34 -23 -87 -15 -114 -60 -227 -109 -270 -24
-22 -32 -34 -23 -37 8 -2 83 -25 168 -50 85 -26 156 -48 159 -50 2 -2 -29 -26
-68 -53 -39 -26 -104 -71 -144 -100 -104 -73 -583 -395 -1121 -754 -253 -169
-543 -365 -645 -434 -102 -70 -248 -170 -325 -222 -77 -52 -196 -133 -265
-180 -69 -47 -249 -169 -400 -271 -151 -102 -286 -193 -299 -204 -15 -11 -40
-18 -67 -18 -46 0 -325 31 -495 55 -56 8 -106 12 -110 10 -3 -3 -10 -26 -14
-52 -4 -27 -11 -56 -16 -66 -11 -19 -4 -24 46 -30 32 -4 33 -7 14 -80 -11 -43
-30 -55 -62 -39 -19 9 -180 26 -327 34 l-44 3 -11 -55 c-10 -55 -10 -55 -50
-58 -47 -4 -55 -13 -55 -69 0 -31 4 -43 18 -47 9 -2 107 -12 217 -21 289 -24
285 -23 285 -45 0 -12 -8 -20 -22 -22 -18 -2 -24 -11 -26 -36 l-3 -33 93 47
93 47 72 -12 c40 -7 77 -10 82 -6 5 3 15 30 22 61 10 45 18 58 41 70 16 8 33
25 38 37 7 19 9 19 9 4 1 -18 3 -18 37 2 27 16 52 21 108 21 80 0 90 6 100 55
6 29 27 41 309 183 325 163 683 347 812 416 44 24 329 168 633 322 542 273
552 279 553 309 l2 30 4 -28 4 -28 257 132 c319 164 328 169 335 208 5 24 15
34 46 47 43 17 42 13 72 217 l12 78 52 34 c29 18 56 38 59 44 17 27 28 9 21
-31 -20 -121 -23 -203 -10 -232 6 -13 5 -17 -3 -12 -10 6 -65 -20 -107 -51
l-20 -15 20 7 c59 21 59 22 51 -26 -4 -27 -14 -49 -26 -58 -25 -17 -26 -33 -2
-29 20 4 21 -21 2 -131 -13 -80 -3 -70 -125 -117 -36 -13 -59 -28 -57 -35 2
-7 1 -28 -3 -45 -5 -27 -12 -35 -43 -45 -36 -11 -65 -29 -47 -29 16 0 209 -32
225 -37 16 -5 -36 -31 -220 -109 -58 -25 -118 -52 -134 -60 -16 -8 -37 -14
-47 -14 -9 0 -19 -3 -21 -8 -4 -10 -260 -127 -529 -242 -74 -32 -157 -68 -184
-80 -27 -12 -126 -56 -220 -97 -233 -103 -224 -98 -372 -170 -72 -34 -134 -63
-138 -63 -3 0 -30 -11 -58 -24 -118 -54 -215 -96 -224 -96 -15 0 -140 -55
-157 -69 -11 -9 -13 -18 -7 -25 5 -6 11 -30 13 -54 l3 -42 145 63 c80 35 161
70 180 79 79 35 185 80 370 158 297 126 676 289 758 326 40 18 74 34 77 34 2
1 39 16 82 35 77 33 78 35 85 76 11 62 18 72 11 15 -5 -47 -5 -48 18 -41 36
11 49 34 49 89 0 46 3 53 31 69 17 9 37 17 45 17 17 0 28 -42 20 -80 -3 -17
-3 -30 -1 -30 3 0 97 41 211 90 113 50 207 90 209 90 4 0 56 23 194 86 67 31
87 35 190 41 70 3 145 14 190 27 68 20 76 24 83 52 7 29 12 32 60 36 39 3 69
15 116 44 58 37 62 41 62 77 0 38 1 38 78 74 42 19 102 44 132 55 81 30 90 45
90 159 l0 97 -27 5 c-57 10 -169 40 -198 52 -16 7 -43 15 -60 18 -38 6 -184
47 -204 57 -9 5 -47 17 -84 27 -38 11 -68 23 -68 28 0 4 84 51 188 104 297
153 423 222 423 232 0 5 8 9 18 9 9 0 98 21 197 46 99 25 191 48 204 51 l24 6
-7 -169 c-12 -307 -16 -354 -35 -354 -9 0 -70 14 -135 30 -66 17 -129 30 -141
30 -25 0 -19 99 -46 -795 -6 -198 -16 -479 -22 -625 l-12 -265 -29 -3 -29 -4
7 182 c7 173 6 182 -11 175 -25 -10 -337 -113 -517 -171 l-149 -47 -96 12
c-53 7 -132 18 -176 26 -44 7 -105 16 -136 19 l-56 6 -5 -53 c-3 -28 -6 -97
-7 -152 -1 -55 -5 -103 -10 -108 -9 -9 -115 -37 -141 -37 -16 0 -20 7 -20 35
0 19 -4 35 -8 35 -5 0 -40 -11 -78 -24 -38 -14 -170 -57 -294 -96 -124 -40
-335 -107 -470 -150 -135 -43 -317 -101 -405 -129 -298 -93 -379 -119 -840
-266 -463 -148 -547 -174 -840 -265 -88 -27 -209 -65 -270 -85 -88 -28 -126
-35 -191 -35 l-80 0 8 67 c14 125 14 127 -4 131 -15 3 -18 -4 -18 -45 0 -26
-3 -72 -6 -101 l-7 -52 -112 0 -112 0 -11 -39 c-7 -21 -12 -52 -12 -70 0 -17
-4 -31 -9 -31 -24 0 -41 -34 -41 -80 0 -58 -7 -80 -27 -80 -11 0 -13 9 -9 37
3 21 7 54 8 73 l3 35 -157 3 -157 3 -7 -28 c-18 -82 -21 -88 -40 -91 -10 -2
-28 -7 -39 -12 -11 -5 -32 -11 -47 -14 -27 -6 -28 -9 -28 -72 l0 -66 43 7 c23
4 53 9 67 10 14 1 32 5 40 9 21 8 157 41 315 76 50 11 126 29 170 40 44 10
199 46 345 80 146 33 357 82 470 109 113 27 322 77 465 111 143 33 431 101
640 151 209 49 403 95 430 101 28 6 54 13 60 16 5 3 18 7 30 8 11 2 135 30
275 62 312 73 499 117 565 131 28 6 91 21 140 35 176 47 214 46 216 -7 l1 -32
7 30 c5 26 11 31 51 36 58 9 100 26 121 48 17 18 319 97 460 121 53 9 73 18
95 41 l29 30 7 181 c4 99 10 184 15 189 4 4 21 11 37 15 l28 7 -6 -144 c-4
-79 -13 -277 -21 -439 -8 -162 -22 -439 -30 -615 -21 -445 -45 -861 -53 -920
-7 -47 -9 -50 -37 -50 -30 0 -30 1 -33 58 l-3 57 -65 0 c-36 0 -63 4 -60 8 2
4 5 55 6 112 3 147 -1 140 81 140 66 0 69 1 69 24 0 41 -18 76 -39 76 -10 0
-34 -6 -52 -14 -49 -19 -620 -65 -654 -52 -8 3 -15 20 -18 38 l-4 33 -1 -33
c-2 -24 -8 -35 -26 -42 -26 -9 -138 -19 -596 -50 -162 -11 -362 -24 -445 -30
-82 -6 -256 -17 -385 -25 -129 -8 -332 -22 -450 -30 -395 -27 -674 -46 -825
-55 -82 -5 -220 -14 -305 -19 -85 -6 -288 -17 -450 -26 -162 -8 -357 -20 -432
-26 l-137 -12 -10 -49 c-6 -27 -11 -57 -11 -68 0 -10 -5 -22 -11 -26 -11 -6
-10 8 8 114 l5 32 -66 0 -66 0 0 -148 0 -149 34 1 c19 1 38 5 42 9 7 7 54 10
54 3 0 -2 -9 -32 -20 -66 -11 -34 -20 -65 -20 -69 0 -3 17 -6 38 -7 67 -2 467
-4 487 -3 11 1 38 1 60 0 22 -1 216 3 430 8 449 12 981 24 1205 26 85 1 286 7
445 14 303 12 627 7 633 -10 3 -6 10 -5 18 2 11 9 45 10 122 6 224 -14 474
-22 657 -22 l190 0 -3 70 c-1 39 5 125 15 191 l17 122 194 7 c106 4 196 4 199
1 4 -3 -14 -7 -38 -7 -48 -2 -115 -5 -139 -8 -13 -1 -18 -33 -28 -188 -8 -123
-8 -189 -2 -191 31 -11 -2 -18 -93 -20 -57 -2 -112 -5 -123 -6 -17 -3 -20 -16
-26 -142 -3 -76 -9 -158 -12 -181 l-5 -43 73 0 c56 0 86 -6 127 -24 38 -17 77
-25 129 -28 71 -3 75 -2 78 20 4 26 -4 24 173 22 89 -1 139 2 143 9 11 17 39
14 33 -3 -5 -12 5 -14 56 -11 94 6 98 8 27 16 -46 5 -32 6 50 3 63 -2 138 -4
165 -5 l50 -1 -90 -29 c-101 -32 -139 -63 -129 -105 4 -14 2 -24 -4 -24 -6 0
-12 10 -14 23 -2 15 -9 21 -21 19 -9 -2 -27 4 -39 13 -25 17 -143 21 -153 5
-4 -6 13 -10 44 -10 27 0 56 -3 65 -6 17 -7 10 -33 -13 -51 -13 -10 -3 -13 54
-15 39 -1 84 -3 100 -5 32 -3 184 -16 380 -33 179 -15 182 -15 188 17 3 16 -1
46 -9 68 -8 22 -16 44 -17 49 -1 5 108 10 243 11 135 1 250 3 255 4 6 1 -1 7
-15 14 l-25 13 0 245 0 245 112 -1 c68 0 113 -4 113 -10 0 -5 4 -4 8 2 8 13
108 21 119 9 4 -4 1 -11 -6 -15 -11 -7 -9 -11 5 -20 18 -10 17 -10 -4 -11 -20
0 -21 -3 -11 -21 6 -12 9 -37 7 -55 -3 -25 -1 -33 9 -30 10 4 10 -1 0 -22 -6
-15 -15 -30 -20 -33 -5 -3 -1 -9 9 -13 16 -6 16 -8 4 -16 -16 -10 -17 -13 -19
-60 -1 -20 -6 -30 -17 -30 -9 0 -14 -8 -13 -17 2 -30 -1 -47 -8 -40 -10 10
-32 -25 -33 -53 0 -18 -3 -21 -9 -11 -5 7 -9 49 -9 93 -1 45 -4 83 -7 86 -3 3
-5 -16 -5 -41 0 -31 -4 -47 -12 -47 -10 0 -10 -2 0 -9 11 -6 9 -19 -7 -67 -14
-41 -16 -53 -6 -40 14 19 15 19 15 -6 0 -31 -29 -41 -92 -33 -38 6 -41 5 -23
-7 29 -19 783 -13 803 7 4 4 -15 357 -24 447 -7 66 -15 71 -106 70 -32 -1 -58
3 -58 9 0 5 7 9 15 9 9 0 15 9 15 23 1 12 0 118 0 235 -1 207 0 214 20 219 11
3 20 9 20 13 0 5 14 16 32 24 24 12 68 16 194 18 139 1 164 -1 179 -15 9 -10
29 -17 45 -17 42 0 82 -20 70 -35 -5 -6 -11 -32 -14 -58 -3 -26 -9 -61 -15
-79 -12 -41 -34 -316 -25 -330 4 -6 39 -7 95 -3 85 6 159 0 159 -14 -1 -19
-21 -29 -68 -34 -30 -3 -55 -7 -57 -9 -1 -2 1 -27 4 -56 10 -74 27 -85 23 -14
-2 41 0 53 7 42 9 -13 12 -12 24 4 22 29 37 10 38 -47 l1 -52 12 53 c8 29 16
55 19 58 8 8 20 -103 12 -115 -3 -6 -11 -9 -16 -6 -5 4 -9 -3 -9 -14 0 -15 -6
-21 -21 -21 -20 0 -21 -4 -16 -41 3 -23 12 -49 21 -57 13 -14 14 -13 9 6 -4
18 -1 22 16 22 11 0 21 6 21 14 0 19 32 30 41 14 5 -7 4 -15 -1 -16 -14 -5
-12 -20 3 -18 6 0 14 -3 17 -9 3 -5 -10 -11 -27 -13 -23 -2 -33 -8 -33 -20 0
-15 2 -15 10 -2 8 12 11 13 19 1 7 -11 9 -11 14 0 4 10 6 8 6 -4 1 -11 -8 -30
-18 -43 -17 -22 -20 -23 -24 -7 -3 12 -5 8 -6 -9 -1 -25 8 -33 32 -29 4 0 8
-23 8 -51 1 -29 4 -43 6 -30 7 35 21 26 29 -21 6 -37 8 -39 14 -17 l6 25 6
-28 c5 -26 -5 -34 -37 -27 -35 7 -55 5 -59 -6 -3 -9 -21 -14 -46 -14 -25 0
-39 4 -35 10 8 13 -33 13 -71 0 -16 -5 -55 -11 -87 -13 -87 -6 -81 -17 9 -17
43 0 140 -3 214 -7 74 -3 241 -1 370 6 346 17 390 18 385 10 -3 -3 -24 -9 -47
-13 -59 -8 -522 -55 -580 -58 -46 -3 -48 -4 -48 -33 0 -16 -3 -54 -6 -83 l-7
-52 -146 2 c-109 2 -123 3 -53 5 50 2 92 7 92 12 0 5 -26 20 -59 35 -118 53
-126 54 -248 42 -61 -6 -114 -14 -118 -17 -3 -4 -3 -18 0 -31 5 -18 17 -28 43
-36 l37 -11 -35 3 c-19 2 -43 -1 -52 -6 -19 -9 -25 -38 -8 -38 5 0 7 -7 4 -15
-4 -9 -1 -15 7 -15 10 0 10 -3 2 -11 -8 -8 -17 -7 -34 5 -45 31 -53 14 -15
-31 14 -16 27 -49 31 -76 l7 -47 2903 0 c2759 0 2904 1 2908 17 4 17 5 17 6 1
2 -26 145 -26 161 0 11 16 11 16 6 0 -5 -16 23 -17 435 -18 l440 0 -5 32 c-3
18 -10 69 -16 113 -5 44 -14 100 -20 125 -18 81 -50 284 -50 317 0 17 -4 34
-8 37 -5 3 -7 18 -5 33 3 15 -3 44 -11 63 -14 33 -16 33 -22 12 -7 -26 -26
-30 -23 -4 3 23 -11 72 -21 72 -4 0 -7 -11 -7 -25 0 -14 3 -25 7 -25 5 0 6 -9
3 -20 -3 -11 -10 -20 -15 -20 -5 0 -7 8 -4 18 4 11 -2 21 -19 29 -23 10 -25
10 -19 -13 4 -14 2 -24 -4 -24 -15 0 -27 63 -13 68 16 5 13 22 -4 22 -9 0 -18
7 -21 15 -4 10 -13 13 -25 10 -11 -4 -19 -2 -19 4 0 10 14 15 33 12 4 -1 1 12
-8 29 -9 16 -20 30 -25 30 -6 0 -10 11 -10 25 0 17 -6 25 -17 26 -15 0 -15 2
2 9 11 5 16 9 10 10 -5 0 -3 5 7 10 20 12 13 47 -12 60 -15 8 -20 5 -28 -18
-8 -23 -9 -18 -8 30 1 65 -6 78 -36 59 -16 -10 -22 -10 -28 -1 -6 9 -10 8 -17
-5 -8 -13 -19 -16 -42 -13 -17 2 -31 0 -31 -5 0 -5 -14 -7 -32 -3 -61 13 -78
13 -89 0 -14 -17 -19 -17 -43 1 -19 14 -19 15 -1 35 10 11 25 18 32 15 8 -3
11 0 8 6 -4 5 -2 16 4 23 9 11 6 15 -14 18 -32 7 -60 -13 -52 -36 4 -11 3 -15
-4 -10 -6 3 -19 -3 -30 -15 -11 -12 -25 -18 -32 -14 -8 5 -8 8 1 11 7 2 12 13
12 25 0 29 15 51 29 43 16 -10 14 9 -3 23 -11 9 -17 2 -30 -33 -9 -24 -27 -55
-39 -68 -12 -13 -28 -35 -35 -48 -7 -14 -10 -17 -8 -7 6 20 -19 24 -28 5 -3
-7 -4 1 -1 17 3 17 15 36 25 44 25 17 25 26 0 28 -23 2 -33 -11 -36 -46 -2
-14 -8 -27 -14 -29 -5 -2 -10 -10 -10 -18 0 -8 -7 -14 -15 -14 -18 0 -19 -12
-3 -28 14 -14 4 -27 -12 -17 -6 4 -10 17 -8 29 2 21 -37 84 -47 74 -3 -2 3
-13 13 -24 28 -30 28 -33 5 -49 -13 -9 -23 -21 -23 -27 0 -7 6 -6 15 2 8 7 15
9 15 4 -1 -15 -29 -48 -36 -41 -3 3 -16 2 -29 -3 -19 -7 -24 -5 -29 12 -3 12
-2 26 1 32 11 16 8 59 -3 63 -6 2 -11 -17 -13 -44 -2 -47 -23 -77 -48 -68 -7
2 -13 0 -13 -6 0 -6 -9 -7 -22 -3 -13 4 -33 7 -45 6 -15 -1 -23 4 -24 16 -1 9
-4 4 -8 -12 -7 -34 -46 -44 -64 -15 -9 15 -12 15 -25 2 -12 -12 -42 -13 -166
-9 -83 2 -181 5 -217 5 -66 1 -66 1 -61 27 3 19 1 25 -7 20 -6 -4 -11 -16 -11
-27 0 -24 -27 -25 -33 -1 -4 15 -5 15 -6 -2 -1 -18 -8 -19 -143 -13 -79 4
-185 7 -235 7 -76 0 -93 3 -93 15 0 8 -4 15 -10 15 -5 0 -10 5 -10 11 0 6 7 9
15 5 9 -3 15 0 15 8 0 42 -49 14 -51 -29 -1 -23 -3 -25 -6 -7 -2 12 -8 22 -13
22 -5 0 -7 -7 -4 -15 5 -13 -10 -15 -100 -15 l-106 0 5 27 5 28 -12 -28 c-12
-26 -15 -28 -63 -23 -27 3 -165 8 -305 11 -225 5 -498 14 -570 20 -14 2 -33 3
-42 4 -35 2 -17 21 19 21 36 0 37 0 16 15 -14 10 -20 22 -16 31 5 14 8 12 19
-7 l13 -24 1 30 c0 17 -3 60 -7 98 l-6 67 -38 0 c-38 0 -38 0 -32 33 3 17 10
33 14 35 4 2 5 10 2 18 -3 7 2 17 11 20 11 4 15 13 10 26 -4 14 -3 18 5 13 7
-4 19 -1 27 6 14 11 16 9 12 -16 -4 -34 21 -48 29 -16 3 12 9 21 14 21 5 0 7
-11 3 -24 -8 -31 21 -43 31 -13 7 21 8 20 12 -6 5 -34 23 -26 23 11 l1 27 20
-27 c12 -16 26 -25 34 -21 9 3 18 -4 24 -18 9 -23 15 -14 12 21 0 10 1 11 5 3
10 -22 24 -14 24 12 0 26 15 34 23 13 2 -7 2 -3 0 9 -3 20 0 22 28 19 l31 -4
-28 24 c-27 22 -28 23 -7 24 12 0 23 -6 26 -12 3 -10 7 -10 18 -1 15 12 66 7
75 -8 9 -15 26 -10 20 6 -4 12 5 15 55 15 53 0 62 -3 66 -20 l5 -20 18 20 c18
20 18 20 24 -5 4 -14 4 -37 0 -52 l-6 -28 21 25 c20 25 25 22 21 -14 -1 -11 3
-17 12 -14 18 6 24 69 6 66 -9 -2 -12 8 -10 37 6 73 8 80 20 77 15 -3 15 3 2
26 -13 23 -40 109 -40 127 0 8 6 12 14 9 8 -3 17 0 21 5 9 16 25 3 25 -20 0
-10 5 -19 10 -19 6 0 10 -18 10 -41 0 -29 3 -38 13 -33 9 5 9 4 0 -6 -13 -14
-6 -118 8 -134 5 -6 9 -2 9 10 0 12 3 24 8 28 7 8 8 13 11 41 0 8 5 15 10 15
12 0 22 -54 10 -58 -12 -5 -12 -32 1 -32 6 0 10 5 10 12 0 6 6 19 14 27 7 9
17 27 21 41 7 22 6 23 -9 11 -9 -7 -16 -20 -16 -29 0 -8 -3 -13 -6 -9 -3 3 0
30 7 59 10 41 14 48 18 31 9 -34 31 -13 33 31 1 20 -4 42 -11 49 -10 9 -10 6
-2 -15 9 -24 8 -28 -7 -28 -10 0 -18 8 -19 18 0 9 -4 32 -8 51 -6 24 -5 32 3
27 6 -3 16 2 22 13 9 17 8 19 -5 15 -17 -7 -21 11 -5 21 6 4 8 11 5 16 -4 5
-2 9 4 9 5 0 13 -14 16 -32 6 -27 9 -29 17 -14 6 10 7 33 4 52 -7 37 0 42 30
19 15 -12 16 -16 5 -24 -9 -6 -11 -18 -6 -40 5 -25 4 -30 -8 -25 -9 3 -20 -3
-26 -15 -18 -32 -13 -43 12 -27 24 16 40 11 50 -16 7 -19 -8 -34 -18 -18 -3 5
-12 10 -18 10 -7 0 -2 -8 10 -18 13 -9 25 -33 28 -52 5 -29 4 -31 -4 -12 -6
12 -15 22 -21 22 -7 0 -7 -7 1 -21 7 -14 8 -24 1 -28 -7 -4 -6 -16 2 -36 11
-25 10 -34 -1 -52 -17 -26 -10 -43 18 -43 23 0 34 22 24 48 -9 23 -9 167 0
215 6 32 4 41 -15 57 -13 11 -19 24 -14 31 5 9 10 6 15 -9 5 -13 14 -20 23
-16 21 8 28 -10 16 -42 -15 -38 -5 -74 20 -74 27 0 36 -20 12 -27 -12 -3 -20
-13 -19 -23 1 -10 4 -17 8 -15 3 3 12 -15 19 -38 21 -72 23 -74 27 -54 3 9 9
15 13 12 5 -3 15 3 21 14 10 16 15 17 26 6 14 -14 8 -45 -9 -45 -6 0 -7 8 -4
17 4 10 4 14 -1 10 -9 -10 -14 -77 -6 -77 3 0 16 11 29 25 28 31 31 31 37 3
l4 -23 2 23 c1 25 19 30 27 8 3 -8 12 -12 19 -10 9 4 15 -4 18 -23 4 -27 5
-27 12 -6 4 13 12 23 17 23 6 0 8 6 5 13 -4 10 2 13 18 9 25 -4 24 -26 -1 -36
-18 -7 -18 -30 1 -46 8 -7 15 -21 15 -31 0 -22 20 -36 29 -20 4 6 6 38 4 71
-2 47 0 60 12 60 19 0 29 -18 11 -22 -25 -6 48 -79 83 -83 17 -2 31 0 31 5 0
6 -7 10 -15 10 -18 0 -20 16 -3 26 8 5 -2 14 -28 26 -21 10 -29 16 -16 14 18
-3 22 0 22 20 0 37 20 29 21 -8 l1 -33 10 29 c8 21 8 34 -1 48 -6 10 -11 27
-11 39 0 18 2 19 15 5 8 -8 15 -19 15 -24 0 -6 4 -12 10 -14 6 -2 4 -15 -5
-32 -20 -38 -8 -49 33 -29 23 11 32 22 33 42 0 23 1 24 8 6 5 -11 6 -24 4 -28
-4 -7 9 -44 24 -66 1 -2 9 2 18 9 13 11 15 9 15 -14 0 -17 4 -25 11 -21 6 4 8
14 5 22 -8 21 4 39 15 22 6 -9 8 -2 8 21 -1 19 -3 28 -6 18 -2 -9 -10 -19 -18
-22 -10 -4 -14 3 -12 24 1 17 5 30 10 30 4 0 7 11 7 24 0 14 7 32 16 41 20 19
12 31 -8 13 -22 -21 -51 -34 -73 -33 -11 0 -29 -8 -39 -17 -27 -24 -33 -15 -7
11 13 13 27 18 37 14 12 -4 15 -3 10 5 -5 8 0 12 13 12 30 0 36 19 9 30 -22
10 -22 10 5 7 22 -4 25 -2 16 10 -14 17 -24 117 -11 109 14 -8 35 21 26 35 -4
7 -2 10 7 7 8 -3 15 -14 17 -26 2 -12 10 -22 18 -22 15 0 14 11 -4 59 -4 10
-1 13 12 8 10 -4 21 -7 26 -7 5 0 5 -13 0 -30 -5 -16 -5 -30 0 -30 14 0 24 64
11 68 -6 2 -11 8 -11 14 0 6 7 8 15 4 9 -3 15 0 15 9 0 12 5 12 23 4 18 -8 24
-19 24 -43 0 -18 7 -47 16 -66 20 -38 21 -43 7 -35 -5 3 -10 1 -10 -5 0 -6 -4
-9 -9 -6 -5 3 -11 -3 -14 -14 -3 -11 -1 -20 4 -20 5 0 9 4 9 9 0 5 9 11 19 14
13 3 18 0 15 -7 -3 -7 2 -13 11 -13 8 0 14 7 13 16 -2 9 3 16 11 16 8 0 16 6
19 14 3 10 -1 12 -17 8 -11 -3 -21 -3 -21 0 0 9 29 33 39 33 6 0 11 5 11 11 0
5 5 7 11 3 8 -5 8 -1 0 13 -6 11 -7 23 -4 27 3 3 -1 6 -10 6 -10 0 -14 5 -11
14 3 8 12 12 21 9 8 -3 19 0 24 8 8 12 11 11 20 -4 6 -9 14 -15 19 -12 4 3 19
1 32 -4 12 -6 17 -10 11 -10 -7 -1 -13 -9 -13 -18 0 -12 -3 -14 -8 -6 -4 6
-19 10 -33 10 -21 -2 -26 -7 -24 -25 1 -13 -3 -22 -11 -22 -23 0 -4 -28 27
-39 16 -5 28 -7 28 -3 -4 26 5 21 16 -8 7 -19 14 -27 14 -17 1 9 6 17 11 17
17 0 11 38 -7 43 -15 4 -14 5 3 6 11 0 26 -5 32 -11 10 -10 15 -10 23 2 9 13
10 13 6 -2 -3 -9 1 -19 9 -22 8 -3 14 -10 14 -16 0 -6 -4 -8 -10 -5 -5 3 -10
-1 -10 -9 0 -9 6 -16 14 -16 13 0 31 -27 28 -42 -4 -17 9 -6 18 15 8 20 9 19
9 -10 1 -29 3 -31 28 -27 38 7 42 11 36 35 -5 19 -4 20 15 8 15 -10 18 -16 9
-21 -7 -4 -7 -8 -2 -8 25 0 33 16 25 50 -4 19 -9 28 -10 20 -1 -9 -5 -7 -10 8
-11 25 -30 30 -30 7 0 -8 -4 -15 -10 -15 -5 0 -10 9 -10 20 0 10 -8 24 -17 29
-10 6 -12 11 -5 11 6 0 12 9 12 19 0 26 19 37 33 21 9 -10 8 -12 -5 -7 -19 7
-22 -5 -9 -38 8 -19 9 -18 21 7 11 23 16 26 28 15 12 -10 17 -8 26 7 21 35 44
61 50 55 3 -3 -2 -14 -12 -25 -31 -33 -55 -144 -32 -144 6 0 10 7 10 15 0 8 5
15 11 15 6 0 9 7 5 15 -3 8 -1 15 4 15 6 0 10 11 10 25 0 14 4 25 10 25 5 0 8
18 6 40 -2 22 0 43 5 46 5 3 9 -2 9 -10 0 -14 38 -23 55 -13 2 1 11 -7 19 -18
9 -11 16 -15 17 -10 1 9 10 -33 23 -108 3 -15 1 -39 -4 -53 -8 -19 -7 -25 2
-22 7 3 15 15 19 29 5 21 6 19 10 -13 4 -27 0 -41 -13 -52 -11 -10 -18 -30
-18 -52 0 -31 2 -35 15 -24 9 8 15 9 15 2 0 -6 -5 -14 -10 -17 -6 -4 -8 -16
-5 -28 5 -17 4 -19 -4 -7 -8 11 -11 11 -11 2 0 -7 7 -15 15 -18 10 -4 15 -20
15 -50 0 -24 4 -44 9 -44 5 0 11 -12 13 -27 2 -21 5 -24 10 -12 3 9 0 29 -8
44 -19 37 -18 72 4 84 16 10 15 11 -4 17 -13 3 -20 12 -18 22 12 67 15 74 29
68 8 -3 15 -1 15 4 0 6 -4 10 -9 10 -11 0 -25 39 -17 47 3 3 11 -7 17 -23 15
-35 22 -87 11 -80 -4 2 -14 0 -22 -5 -13 -8 -13 -10 0 -18 9 -7 17 -6 21 0 3
6 11 4 19 -6 11 -13 10 -15 -4 -9 -19 7 -20 -3 -2 -35 12 -22 14 -23 23 -6 10
16 10 16 17 -1 4 -9 3 -20 -1 -23 -14 -10 -11 -59 3 -65 8 -3 14 1 14 9 0 8 4
15 9 15 11 0 1 94 -10 98 -5 2 -9 18 -8 35 1 27 4 22 21 -30 21 -68 41 -80 60
-38 21 46 37 29 18 -20 -16 -42 -22 -87 -10 -80 5 3 10 15 10 26 0 10 5 19 10
19 6 0 10 11 10 24 0 14 5 28 10 31 6 3 11 23 11 43 2 31 3 33 6 9 3 -16 11
-31 19 -34 17 -6 19 -39 2 -46 -10 -4 -10 -6 0 -6 6 -1 12 -11 13 -23 l0 -23
10 23 c5 13 13 21 18 17 6 -3 7 -13 4 -22 -4 -11 -2 -14 8 -11 9 3 13 16 11
34 -2 21 3 33 18 42 11 7 25 10 30 7 6 -4 10 5 10 19 0 14 -4 26 -8 26 -4 0
-8 8 -9 18 -1 14 6 18 32 18 19 0 31 -4 28 -9 -3 -6 -7 -23 -9 -39 -3 -24 -1
-26 10 -16 8 7 12 16 10 20 -2 4 0 9 6 13 6 3 13 -1 16 -9 3 -9 13 -16 21 -16
8 0 11 4 8 10 -3 5 0 7 9 4 9 -3 16 2 18 13 3 10 5 0 5 -22 0 -22 -5 -46 -10
-52 -6 -9 -6 -13 2 -13 6 0 11 6 11 13 0 8 4 7 11 -3 9 -13 10 -13 6 2 -3 9 1
22 9 29 12 10 12 14 2 21 -10 7 -10 8 2 7 34 -3 61 2 55 10 -6 10 13 26 21 18
9 -8 -8 -37 -22 -37 -8 0 -14 -4 -14 -10 0 -13 17 -13 26 1 3 6 15 9 25 6 12
-3 19 0 19 10 0 10 5 13 18 8 9 -4 26 -9 37 -12 18 -4 18 -3 3 7 -16 10 -17
17 -1 58 5 13 7 11 12 -12 3 -16 12 -31 19 -34 7 -2 10 2 6 11 -4 12 0 14 14
10 35 -9 66 73 37 97 -18 15 -38 3 -31 -19 4 -11 2 -10 -10 4 -9 12 -14 33
-12 53 2 17 0 32 -4 32 -4 0 -8 -6 -8 -12 0 -8 -5 -6 -11 4 -12 21 0 103 13
90 6 -6 6 -17 -1 -30 -15 -28 -14 -33 7 -30 14 3 16 -3 14 -36 -2 -25 1 -37 8
-34 6 2 12 8 12 13 0 6 4 15 9 21 9 11 -5 166 -16 184 -4 6 -8 39 -10 75 -4
74 -24 183 -37 205 -5 10 -6 5 -2 -12 5 -22 3 -28 -11 -28 -13 0 -16 6 -11 23
3 12 6 28 6 35 0 7 4 11 9 8 20 -13 -13 193 -33 206 -17 12 -26 9 -26 -7 0 -8
3 -15 8 -15 4 0 7 -37 8 -82 0 -47 5 -83 11 -85 12 -4 5 -53 -8 -53 -10 0 -10
1 -14 45 -7 85 -29 181 -44 192 -13 11 -14 14 -2 22 7 5 10 14 7 20 -9 13 -56
15 -56 2 0 -18 -38 1 -44 22 -4 14 -9 18 -13 11 -5 -6 -15 -14 -23 -17 -10 -3
-6 -6 10 -8 20 -1 19 -3 -10 -8 -45 -9 -53 -5 -38 22 7 12 11 30 9 40 -1 10 4
17 15 17 13 0 15 6 10 28 -3 15 -9 38 -12 51 -5 23 4 57 29 109 6 13 11 39 11
59 0 20 2 31 4 25 6 -20 32 14 32 42 0 15 8 30 20 36 20 11 30 -3 11 -14 -10
-7 9 -56 22 -56 4 0 3 8 -2 19 -8 14 -6 24 9 41 22 25 26 35 10 25 -6 -3 -19
-3 -30 0 -26 8 -28 69 -3 84 10 5 15 13 11 16 -9 9 -43 -16 -44 -32 -1 -7 -2
-27 -2 -44 -3 -44 -18 -27 -17 18 1 47 22 91 47 98 22 8 24 35 2 35 -13 0 -15
7 -10 38 15 82 4 167 -19 158 -12 -4 -12 -1 -3 20 9 18 8 41 0 88 -7 35 -12
75 -12 89 0 38 -20 127 -29 127 -11 0 -79 -66 -118 -114 -18 -22 -35 -37 -38
-34 -3 3 15 30 41 61 25 31 43 61 39 67 -3 5 1 10 10 10 34 0 65 31 65 66 0
41 -11 49 -33 23 -22 -26 -41 -26 -27 0 15 29 13 31 -26 31 -29 0 -35 3 -30
16 3 9 6 19 6 22 0 4 4 1 9 -7 15 -23 52 -23 72 0 17 20 16 49 -2 49 -5 0 -9
7 -9 15 0 22 -16 18 -27 -7 -6 -15 -12 -18 -17 -10 -4 7 -2 12 3 12 20 0 11
19 -11 22 -31 4 -32 21 -3 35 29 13 44 -1 18 -16 -15 -9 -16 -10 -2 -11 36 0
48 75 28 171 -7 30 -13 68 -14 84 -1 17 -3 38 -4 48 0 9 -8 17 -16 17 -8 0
-15 5 -15 11 0 5 4 8 9 5 12 -8 22 19 11 30 -5 5 -12 51 -16 102 -5 67 -10 92
-20 92 -17 0 -18 17 -1 23 6 3 -2 6 -19 6 -16 1 -39 8 -50 16 -27 20 -41 19
-18 -2 12 -12 18 -28 16 -45 -4 -32 -3 -31 -35 -19 -16 6 -26 20 -30 40 -8 38
0 61 18 54 13 -4 24 2 64 38 9 8 23 13 31 11 10 -4 12 11 6 74 -7 74 -20 149
-33 184 -3 8 -5 26 -4 40 2 19 0 22 -11 13 -7 -6 -21 -7 -33 -2 -16 6 -17 8
-3 8 10 1 22 10 28 21 9 16 8 18 -5 14 -11 -5 -15 1 -15 19 0 16 7 27 18 30
14 4 14 6 -5 12 -26 8 -31 25 -8 25 8 0 15 9 15 20 0 11 -4 20 -10 20 -5 0
-10 6 -10 14 0 8 -16 16 -40 20 -33 5 -40 10 -40 29 0 17 -2 19 -9 7 -6 -8 -7
-18 -5 -22 7 -11 -5 -48 -16 -48 -5 0 -7 15 -5 33 3 17 3 26 -1 20 -8 -18 -44
-16 -44 2 0 8 -5 15 -11 15 -6 0 -9 -6 -6 -13 3 -8 1 -20 -4 -28 -5 -8 -9 -9
-9 -3 0 19 -40 54 -62 54 -21 0 -21 -1 -3 -14 11 -8 16 -20 12 -29 -7 -18 17
-42 33 -32 8 5 9 -4 4 -32 -7 -42 -14 -56 -14 -30 0 10 -7 17 -15 17 -8 0 -15
8 -15 18 0 14 2 15 10 2 6 -9 10 -10 10 -3 0 7 -7 16 -15 20 -8 5 -16 21 -17
36 -1 15 -7 27 -13 27 -5 0 -21 3 -34 7 -16 4 -22 3 -17 -5 3 -6 -3 -13 -14
-17 -29 -9 -25 -27 4 -19 31 7 47 -2 39 -22 -5 -15 -7 -15 -15 0 -13 23 -28
20 -25 -5 1 -12 -4 -24 -10 -26 -8 -3 -13 4 -13 17 0 17 -4 20 -21 15 -20 -7
-21 -4 -15 21 4 19 3 24 -2 15 -6 -8 -17 -11 -31 -6 -27 8 -27 -9 0 -28 15
-11 17 -17 8 -23 -7 -4 -19 2 -31 16 -10 12 -18 17 -18 11 0 -6 -6 -11 -14
-11 -8 0 -19 -13 -25 -30 -10 -31 -37 -40 -59 -18 -16 16 -45 -9 -39 -34 3
-10 1 -18 -4 -18 -5 0 -9 11 -9 25 0 30 47 66 59 46 6 -10 10 -9 14 3 4 9 2
16 -3 16 -15 0 -12 28 4 37 21 12 29 50 12 56 -10 4 -16 -2 -18 -20 -2 -15 -9
-28 -16 -31 -7 -2 -10 2 -6 12 6 15 -4 20 -33 17 -8 -1 -10 5 -6 15 4 12 3 15
-5 10 -7 -4 -12 -2 -12 3 0 14 23 14 37 0 16 -16 12 42 -4 59 -14 14 -37 16
-28 2 3 -5 1 -10 -4 -10 -6 0 -11 -10 -11 -22 -1 -20 -2 -21 -13 -7 -7 8 -21
19 -32 23 -17 6 -18 8 -4 16 15 9 16 32 5 119 -4 33 -22 38 -31 9 -6 -22 -7
-21 -17 10 -9 26 -16 32 -39 32 -29 0 -40 15 -16 23 6 2 9 8 5 12 -5 5 -20 3
-35 -4 -22 -10 -28 -10 -35 3 -12 21 -68 21 -68 1 0 -8 -9 -15 -20 -15 -11 0
-20 4 -20 9 0 5 -9 12 -19 16 -12 4 -17 12 -14 24 6 24 -11 35 -45 26 -20 -5
-23 -8 -11 -16 10 -6 11 -9 1 -9 -7 0 -18 13 -23 30 -6 16 -14 29 -17 28 -4
-1 -15 2 -25 7 -15 6 -16 10 -5 17 9 7 7 8 -9 5 -18 -4 -23 -1 -23 14 0 21
-25 26 -33 7 -3 -7 -6 -4 -6 7 -1 16 -5 13 -17 -11 -12 -25 -20 -31 -36 -26
-14 3 -19 1 -15 -6 4 -5 1 -13 -5 -16 -10 -5 -10 -7 0 -12 19 -9 14 -23 -7
-21 -11 0 -17 5 -15 9 8 13 -5 9 -31 -8 -14 -9 -22 -20 -19 -26 3 -5 -2 -8
-12 -6 -11 2 -20 -4 -22 -14 -3 -14 3 -18 23 -18 14 0 24 -4 21 -9 -6 -9 -75
4 -112 21 -14 7 -28 7 -40 0 -21 -10 -47 -5 -39 8 3 5 -5 16 -19 25 -18 12
-36 15 -70 10 -25 -4 -44 -11 -41 -15 3 -5 -1 -10 -7 -13 -10 -3 -10 -8 1 -21
13 -16 12 -17 -12 -11 -23 6 -27 4 -27 -15 0 -19 -4 -21 -29 -15 -28 6 -30 4
-36 -32 -10 -59 -12 -61 -39 -56 -21 4 -28 0 -37 -23 l-12 -29 -7 33 c-4 18
-11 36 -15 40 -5 4 -5 -1 -2 -10 9 -24 -13 -35 -29 -14 -6 9 -15 13 -18 8 -6
-10 10 -26 34 -34 10 -3 8 -6 -8 -10 -12 -4 -22 -2 -22 3 0 5 -4 9 -10 9 -5 0
-7 -8 -4 -17 14 -42 29 -63 45 -63 10 0 26 -12 36 -27 9 -16 19 -30 21 -33 1
-2 7 2 12 9 8 15 40 8 40 -8 0 -5 -13 -12 -30 -16 -31 -7 -42 -25 -14 -25 9 0
12 -5 8 -12 -5 -8 -2 -9 9 -5 10 3 17 2 17 -4 0 -6 4 -8 9 -5 5 4 12 0 14 -6
3 -8 6 -6 6 5 1 9 -6 17 -15 17 -27 0 -9 25 20 26 18 1 31 -6 38 -20 6 -12 16
-24 22 -28 8 -5 7 -8 -2 -8 -7 0 -15 7 -19 16 -5 13 -7 13 -14 2 -14 -22 -10
-28 16 -28 16 0 25 -6 25 -15 0 -12 12 -14 60 -12 58 4 94 16 54 18 -10 1 -3
5 16 8 24 5 39 3 46 -6 14 -17 26 -16 50 2 19 15 19 15 0 8 -16 -5 -18 -3 -13
11 4 10 3 15 -3 11 -6 -3 -11 -3 -11 2 -10 68 -2 78 37 48 24 -18 34 -19 34
-1 0 9 7 12 20 9 13 -4 20 0 20 10 0 22 41 29 56 9 8 -9 14 -24 14 -33 0 -14
5 -15 40 -6 43 12 48 18 26 37 -11 9 -13 18 -5 37 5 15 8 32 5 39 -5 14 31 27
39 14 3 -5 1 -10 -5 -12 -15 -5 0 -48 17 -48 13 0 13 3 3 15 -7 9 -10 19 -6
23 4 4 17 -4 29 -18 14 -18 18 -20 13 -6 -8 22 9 46 33 46 13 0 13 -2 2 -9 -9
-6 -10 -14 -3 -27 7 -13 7 -26 1 -37 -7 -11 -7 -17 0 -17 5 0 15 13 22 29 10
23 16 27 26 19 8 -6 17 -8 20 -4 4 4 1 11 -7 16 -11 7 -12 10 -2 10 10 0 9 4
-2 16 -9 8 -13 21 -9 27 5 8 9 6 11 -5 4 -21 28 -24 35 -5 3 9 9 9 27 -2 21
-12 25 -11 37 5 8 11 17 15 21 9 11 -16 41 -15 35 1 -8 21 11 17 27 -6 19 -27
25 -25 27 7 0 15 6 29 12 31 6 2 9 8 5 13 -3 5 0 9 5 9 14 0 14 -37 1 -45 -12
-7 -14 -26 -2 -24 19 3 25 -2 12 -11 -12 -8 -11 -10 6 -10 23 0 51 -26 40 -37
-3 -3 -6 -1 -6 5 0 7 -7 12 -15 12 -22 0 -18 -15 8 -28 14 -7 16 -11 7 -11
-13 -1 -13 -2 0 -11 13 -8 12 -10 -2 -10 -10 0 -18 5 -18 10 0 6 -7 10 -15 10
-8 0 -14 3 -14 8 4 21 -3 30 -19 25 -27 -7 -24 -59 3 -55 12 1 26 -7 33 -19
13 -20 12 -21 -12 -15 -15 4 -26 2 -26 -4 0 -5 6 -11 13 -11 51 -6 73 -4 79 5
5 8 8 7 8 -1 0 -7 7 -10 15 -7 8 4 15 2 15 -4 0 -6 -6 -12 -12 -15 -7 -2 -9
-8 -5 -13 4 -5 11 -4 15 1 18 26 51 45 66 39 20 -8 22 -62 2 -78 -24 -18 -9
-66 20 -66 12 0 26 -4 29 -10 3 -6 0 -10 -7 -10 -7 0 -23 -3 -36 -6 -13 -4
-22 -3 -21 2 5 26 -3 44 -18 43 -11 0 -13 -3 -5 -6 6 -2 12 -11 12 -19 0 -23
-37 -57 -51 -49 -8 5 -10 4 -5 -3 5 -8 -1 -12 -18 -12 -13 0 -26 6 -29 13 -2
6 -8 0 -12 -15 -8 -31 -15 -34 -33 -16 -7 7 -12 8 -12 2 0 -5 -4 -2 -10 6 -14
22 -24 4 -24 -40 0 -27 -4 -40 -13 -40 -7 0 -13 -5 -13 -12 0 -9 -3 -9 -11 -1
-9 9 -8 16 5 28 9 9 16 21 16 26 0 14 -47 22 -68 10 -28 -15 -29 -14 -34 14
-3 14 -1 25 6 25 11 0 -14 20 -26 20 -11 0 -15 -33 -7 -63 7 -24 5 -27 -11
-22 -13 4 -22 -1 -29 -14 -14 -25 -45 -35 -68 -22 -11 6 -13 11 -5 11 7 0 10
5 6 11 -3 6 -2 14 3 18 6 3 7 15 2 26 -6 17 -8 17 -8 3 -1 -22 -20 -23 -47 -4
-16 13 -17 18 -6 35 13 22 6 27 -16 12 -20 -12 -4 -58 22 -65 13 -3 22 -14 23
-26 1 -13 -3 -20 -10 -17 -7 3 -11 10 -10 16 2 6 -4 11 -12 11 -8 0 -15 -4
-15 -10 0 -5 -7 -10 -15 -10 -9 0 -12 -6 -9 -15 5 -11 0 -15 -17 -14 -13 0
-18 3 -11 6 6 2 12 9 12 14 0 4 -7 6 -15 3 -11 -5 -13 -2 -8 12 5 13 3 16 -10
11 -9 -3 -17 -2 -17 2 0 5 6 11 13 14 6 2 10 7 7 10 -3 4 -18 -5 -33 -19 -15
-14 -27 -19 -27 -12 0 8 -3 9 -10 2 -11 -11 -2 -54 11 -54 5 0 6 6 3 14 -7 18
25 29 42 15 8 -6 14 -18 14 -26 0 -11 7 -14 25 -11 19 4 25 1 25 -13 0 -10 -4
-21 -10 -24 -5 -3 -10 -14 -10 -23 1 -16 2 -16 14 1 18 23 42 21 60 -5 20 -27
22 -54 4 -42 -7 5 -22 9 -33 9 -11 0 -24 4 -28 10 -6 7 -10 6 -14 -2 -2 -7 -9
-13 -15 -13 -6 0 -6 6 2 15 10 12 6 17 -23 29 -19 8 -39 22 -45 31 -6 12 -11
14 -16 6 -11 -18 -32 -13 -45 12 l-12 22 5 -24 c4 -18 2 -21 -7 -12 -14 14
-30 15 -22 0 4 -5 18 -14 31 -19 15 -6 22 -15 18 -25 -6 -13 0 -17 23 -14 12
1 21 -35 12 -47 -6 -8 -3 -14 8 -19 17 -7 17 -8 -2 -15 -32 -13 -55 -11 -55 5
0 8 5 15 11 15 8 0 8 4 0 14 -7 8 -13 28 -13 45 -1 26 -5 31 -25 31 -15 0 -23
6 -24 18 -1 11 -4 9 -9 -8 -4 -14 -8 -19 -9 -12 -2 20 -31 13 -31 -8 0 -13 5
-18 15 -14 8 4 15 1 15 -5 0 -6 7 -11 15 -11 8 0 15 -5 15 -10 0 -6 -8 -10
-17 -8 -11 2 -18 -4 -18 -14 0 -10 -4 -18 -8 -17 -4 0 -17 -10 -27 -23 -11
-13 -19 -18 -20 -12 0 6 9 19 20 29 18 17 22 46 7 61 -3 3 -18 3 -34 0 -20 -6
-24 -9 -13 -16 8 -5 11 -12 7 -16 -3 -4 -14 -1 -24 7 -11 9 -14 10 -9 2 10
-18 -9 -16 -24 2 -10 12 -10 15 2 15 7 0 22 10 32 21 14 17 15 23 5 30 -7 4
-19 3 -26 -3 -9 -7 -15 -6 -19 7 -4 9 -2 20 3 24 6 3 2 14 -10 26 -11 11 -17
14 -13 7 5 -8 0 -22 -11 -34 -10 -12 -12 -18 -4 -13 14 8 31 -10 31 -34 0 -9
-8 -12 -25 -9 -22 5 -24 3 -13 -11 7 -9 19 -20 26 -24 17 -11 15 -28 -3 -21
-8 4 -15 1 -15 -5 0 -6 4 -11 10 -11 5 0 7 -7 4 -15 -4 -8 -1 -15 6 -15 6 0
14 9 17 19 7 27 38 23 38 -5 0 -16 -3 -19 -11 -13 -8 6 -14 4 -18 -8 -4 -10
-2 -19 3 -21 18 -6 12 -22 -7 -22 -28 0 -34 -11 -15 -32 9 -10 12 -18 7 -17
-5 0 -19 13 -31 28 -20 25 -20 29 -5 27 21 -1 24 35 3 42 -10 3 -12 -1 -7 -14
5 -14 1 -12 -15 6 -11 14 -19 18 -16 10 6 -18 -9 -41 -38 -59 l-20 -12 20 5
c11 3 27 1 35 -5 12 -8 10 -9 -7 -4 -13 4 -23 2 -23 -4 0 -5 10 -13 23 -17
l22 -8 -24 -5 c-22 -6 -23 -8 -8 -22 8 -9 12 -21 7 -28 -5 -10 -9 -9 -13 3 -4
9 -13 16 -22 16 -17 0 -39 -46 -29 -61 7 -12 34 -12 34 0 0 5 12 8 28 6 39 -5
39 -5 17 -15 -19 -8 -19 -9 0 -9 15 -1 16 -4 7 -13 -9 -9 -15 -9 -24 0 -7 7
-27 12 -45 12 -24 0 -37 7 -49 25 -9 14 -20 23 -24 20 -5 -3 -15 1 -23 9 -8 8
-17 13 -20 10 -8 -8 -57 -12 -53 -5 2 3 -6 15 -17 26 l-20 20 8 -20 c9 -24 9
-42 0 -72 -6 -18 -3 -22 14 -20 20 1 31 27 11 27 -5 0 -10 5 -10 10 0 6 7 10
15 10 14 0 18 -7 18 -41 0 -11 8 -14 28 -11 43 6 35 -6 -13 -18 -31 -9 -38
-14 -27 -21 11 -7 11 -9 -3 -9 -25 0 -48 -28 -48 -57 0 -21 -2 -24 -15 -13
-21 18 -19 -4 3 -26 16 -17 16 -17 -6 -12 -19 5 -21 4 -11 -8 10 -12 9 -13 -5
-8 -9 3 -16 1 -16 -5 0 -6 4 -11 8 -11 5 0 9 -14 10 -31 0 -18 5 -36 11 -42 6
-6 8 1 5 23 -5 28 -3 32 11 26 9 -3 21 -6 26 -6 5 0 9 -10 9 -22 0 -19 2 -20
10 -8 16 25 11 40 -12 40 -34 0 -15 12 32 19 9 2 7 71 -2 71 -4 0 -8 4 -8 8 0
5 14 7 31 4 20 -3 27 -8 21 -14 -6 -6 -8 -17 -5 -24 6 -16 53 -19 53 -3 0 5
-6 7 -12 3 -10 -5 -10 -4 -1 6 9 10 8 16 -5 30 -9 9 -24 20 -32 23 -11 4 -9 7
9 13 23 7 22 7 -9 21 -18 7 -30 16 -27 20 4 3 13 0 21 -6 11 -10 16 -9 23 4 8
13 15 14 37 5 15 -5 24 -15 21 -20 -4 -6 -10 -8 -15 -5 -5 3 -12 0 -16 -6 -5
-8 1 -10 19 -7 20 4 28 0 32 -13 4 -11 11 -19 16 -19 5 0 9 -12 9 -26 0 -22 2
-24 15 -14 8 6 20 8 26 4 8 -4 9 -3 5 4 -8 14 22 16 42 3 10 -6 6 -10 -15 -16
-15 -5 -34 -7 -40 -6 -7 1 -13 -2 -13 -8 0 -5 -3 -17 -7 -26 -5 -14 -2 -16 15
-10 13 4 22 2 22 -4 0 -6 -14 -11 -32 -11 -37 0 -31 -9 17 -26 22 -7 37 -8 41
-2 3 5 12 7 19 4 16 -6 29 21 15 29 -16 10 -11 25 5 19 8 -4 15 -12 15 -19 0
-8 4 -17 10 -20 6 -4 7 1 3 12 -6 15 -4 16 9 5 13 -10 17 -10 22 3 3 8 11 15
17 15 8 0 8 -4 -1 -15 -7 -8 -10 -21 -7 -30 4 -8 -1 -19 -11 -24 -13 -7 -14
-13 -6 -21 9 -9 15 -4 25 18 7 18 18 28 26 25 7 -3 13 -1 13 5 0 5 8 12 18 15
9 2 24 8 33 11 9 4 25 -2 39 -14 13 -11 30 -20 38 -20 10 0 12 -7 8 -24 -4
-17 -1 -26 11 -30 9 -4 18 -4 21 -1 3 3 0 5 -7 5 -7 0 -9 5 -6 10 9 14 25 2
25 -18 0 -11 9 -18 27 -19 30 -1 49 17 30 29 -9 6 -9 8 1 8 6 0 12 8 13 18 0
10 3 12 6 5 8 -21 20 -15 27 12 4 14 14 25 23 25 13 0 14 -3 5 -12 -7 -7 -12
-20 -12 -30 0 -10 -4 -18 -10 -18 -14 0 -12 -27 3 -33 7 -3 5 -6 -5 -6 -10 -1
-18 4 -18 9 0 6 -5 10 -11 10 -5 0 -7 -5 -4 -10 3 -5 2 -10 -4 -10 -6 0 -8 -7
-5 -15 4 -8 10 -12 15 -9 5 3 9 -2 9 -10 0 -9 7 -16 15 -16 9 0 12 -6 8 -17
-4 -9 -8 -12 -10 -7 -2 6 -17 9 -33 6 -16 -2 -38 -1 -47 3 -10 5 -24 7 -30 6
-14 -2 -18 15 -5 21 4 2 2 14 -5 28 -12 25 -13 25 -13 3 0 -27 -12 -29 -34 -8
-13 13 -15 13 -18 -7 -3 -20 -4 -21 -19 -5 -9 9 -19 13 -23 10 -3 -4 -6 7 -6
23 -1 27 -2 27 -12 9 -6 -11 -17 -24 -25 -28 -7 -4 -13 -13 -13 -19 0 -9 3 -9
11 -1 9 9 19 4 41 -19 17 -18 25 -35 20 -40 -5 -5 -14 -2 -22 7 -14 16 -55 21
-45 5 4 -6 11 -8 16 -5 5 4 17 -1 26 -10 9 -9 25 -14 35 -11 31 7 46 -3 40
-26 -4 -17 -2 -20 12 -15 10 4 15 3 11 -3 -3 -6 3 -10 14 -10 12 0 21 -4 21
-10 0 -5 -15 -8 -32 -6 -18 3 -38 5 -45 5 -6 1 -18 7 -25 14 -7 8 -36 16 -63
20 -32 4 -43 3 -30 -3 19 -8 19 -9 1 -9 -14 -1 -16 -4 -7 -14 6 -8 8 -17 4
-20 -3 -4 4 -7 17 -7 18 0 20 3 11 14 -9 11 -6 15 15 20 30 8 45 -1 25 -13
-11 -7 -8 -15 13 -37 20 -22 26 -25 26 -12 0 9 -8 21 -17 27 -10 5 -15 13 -11
16 10 11 40 -3 33 -15 -3 -5 -1 -10 6 -10 8 0 9 -11 4 -36 -4 -25 -3 -34 5
-29 5 3 8 10 5 14 -4 8 48 5 71 -3 16 -6 38 10 30 23 -10 15 -36 14 -36 -1 0
-9 -3 -9 -12 0 -18 18 -3 25 40 17 27 -4 53 -20 84 -48 75 -71 75 -73 10 -72
l-57 2 1 31 c1 18 -2 32 -8 32 -15 0 -38 -27 -38 -44 0 -21 -19 -21 -27 0 -4
12 -14 14 -37 10 -28 -5 -29 -4 -11 7 18 11 13 13 -40 18 -80 9 -98 14 -103
27 -2 7 -8 12 -12 12 -10 0 -6 -33 6 -52 5 -8 2 -9 -10 -5 -10 4 -22 7 -26 7
-5 0 -7 9 -5 20 2 11 0 20 -6 20 -5 0 -4 9 3 19 7 11 15 18 19 15 4 -2 10 0
14 6 3 5 0 10 -8 10 -10 0 -13 7 -10 20 3 11 1 20 -5 20 -6 0 -8 9 -5 20 3 11
12 20 19 20 8 0 14 7 14 17 0 15 -2 15 -19 -1 -12 -11 -21 -14 -26 -7 -3 6 -1
11 5 11 6 0 8 5 5 10 -11 17 -26 0 -19 -22 12 -39 11 -53 -5 -66 -15 -12 -14
-13 1 -8 13 4 16 -1 14 -22 -1 -15 -8 -26 -14 -24 -7 1 -12 -2 -12 -8 0 -5 5
-10 11 -10 5 0 7 -5 4 -10 -3 -5 -1 -10 6 -10 7 0 9 -3 6 -7 -6 -6 -28 2 -79
28 -13 7 -18 5 -18 -5 0 -8 12 -17 28 -21 25 -7 25 -8 7 -15 -12 -4 -23 -3
-27 4 -10 15 -20 2 -12 -18 4 -11 14 -15 28 -11 11 2 16 2 9 -1 -10 -4 -10
-10 -1 -24 7 -11 9 -23 5 -27 -5 -4 -12 -1 -17 7 -7 12 -12 12 -22 2 -10 -10
-10 -15 2 -23 11 -8 9 -9 -10 -4 -14 4 -29 11 -34 16 -13 12 -26 12 -26 0 0
-13 70 -52 81 -46 5 4 9 -5 9 -19 0 -31 -29 -36 -37 -6 -3 11 -12 20 -19 20
-19 0 -18 -10 4 -26 16 -12 15 -13 -8 -14 -19 -1 -13 -5 24 -20 28 -11 57 -26
65 -35 14 -14 13 -15 -17 -9 -21 4 -32 3 -32 -5 0 -6 9 -11 20 -11 20 0 25
-15 13 -45 -5 -16 -8 -15 -22 4 -12 15 -35 24 -80 32 -35 5 -66 7 -69 4 -3 -3
4 -5 16 -5 12 0 22 -4 22 -9 0 -15 -31 -22 -65 -15 -19 3 -35 1 -39 -5 -4 -7
1 -11 13 -11 12 0 21 -5 21 -11 0 -7 -10 -9 -25 -6 -17 3 -24 0 -22 -7 3 -6
11 -9 18 -7 8 2 31 4 52 4 26 1 36 6 32 14 -2 7 3 13 11 13 10 0 13 -6 10 -18
-4 -12 3 -23 22 -34 20 -13 22 -18 10 -18 -19 0 -24 -32 -12 -65 5 -13 9 -14
15 -4 4 7 3 21 -2 31 -12 22 -6 23 34 1 29 -16 30 -18 10 -21 -15 -2 -20 -8
-16 -18 3 -9 -3 -21 -16 -30 -11 -8 -21 -21 -21 -29 0 -9 -6 -12 -17 -8 -11 4
-12 8 -5 11 7 2 12 10 12 18 0 10 -6 11 -26 4 -17 -7 -32 -6 -46 1 -15 8 -22
8 -28 -1 -4 -7 -13 -9 -19 -6 -6 4 -11 3 -11 -3 0 -5 8 -15 18 -20 14 -9 11
-10 -17 -11 -19 0 -31 -3 -27 -7 12 -12 47 -13 67 -2 15 8 24 7 36 -3 11 -9
17 -10 20 -2 6 17 55 4 74 -20 10 -12 15 -24 12 -28 -8 -14 -31 -9 -37 8 -3 8
-2 12 4 9 5 -3 8 0 5 7 -3 7 -17 14 -30 14 -21 2 -25 -2 -20 -17 5 -14 1 -19
-14 -19 -12 0 -21 5 -21 11 0 5 5 7 10 4 14 -8 13 8 -1 22 -6 6 -18 9 -25 6
-12 -4 -12 -8 -2 -21 11 -13 10 -15 -9 -10 -15 4 -20 2 -16 -8 3 -7 8 -13 11
-12 26 3 42 -4 42 -19 0 -16 1 -16 13 0 10 15 12 7 13 -48 1 -36 -2 -65 -8
-65 -5 0 -7 4 -4 9 4 5 0 11 -6 14 -10 3 -9 8 2 22 14 17 13 18 -2 12 -10 -3
-18 -2 -18 3 0 6 -10 10 -22 10 l-21 0 22 19 c21 18 21 19 1 24 -13 3 -20 0
-20 -8 0 -7 -5 -15 -12 -17 -7 -3 -9 -11 -3 -24 4 -10 7 -22 7 -26 -1 -5 2 -8
8 -8 5 0 10 7 10 15 0 22 18 18 25 -5 4 -12 0 -26 -9 -36 -15 -14 -16 -14 -16
0 0 9 -5 16 -10 16 -6 0 -8 -10 -4 -24 4 -18 1 -25 -13 -29 -15 -4 -14 -5 5
-6 23 -1 32 -21 8 -21 -7 0 -27 -7 -42 -16 -27 -15 -27 -15 -4 -10 68 16 100
18 100 6 0 -7 7 -10 16 -6 9 4 23 1 30 -5 8 -7 14 -7 14 -2 0 7 14 6 40 0 22
-6 40 -15 40 -20 0 -4 -4 -5 -10 -2 -6 3 -10 -4 -11 -17 -1 -21 -1 -21 -11 5
-10 28 -22 34 -33 17 -3 -5 -1 -10 4 -10 6 0 11 -4 11 -10 0 -5 -12 -10 -27
-10 -42 0 -14 -18 34 -23 61 -5 65 -17 7 -18 -43 -1 -45 -2 -19 -9 17 -4 23
-9 15 -10 -54 -7 -66 -13 -56 -29 4 -6 14 -8 24 -5 12 4 14 3 4 -3 -14 -10 -4
-23 28 -36 8 -4 4 -5 -10 -4 -14 1 -28 7 -32 12 -4 6 -8 2 -8 -7 0 -24 -17
-23 -25 2 -3 11 -13 20 -21 20 -12 0 -12 -3 -2 -20 7 -11 17 -20 21 -20 5 0 6
-11 3 -24 -4 -16 -1 -26 9 -30 8 -3 15 -13 15 -22 0 -10 -5 -14 -15 -10 -8 3
-15 1 -15 -4 0 -13 51 -59 73 -66 9 -3 17 -9 17 -14 0 -11 -30 -21 -41 -14 -5
3 -9 1 -9 -5 0 -5 9 -13 21 -16 22 -7 17 -19 -9 -21 -45 -3 -52 -5 -52 -15 0
-6 9 -9 20 -6 28 7 33 -6 9 -23 -24 -18 -24 -26 1 -33 13 -3 20 0 20 9 0 8 5
14 10 14 6 0 10 9 10 20 0 11 5 20 10 20 6 0 9 3 8 8 -5 15 26 104 37 109 7 2
11 14 8 26 -4 20 -3 20 7 4 9 -13 8 -25 -2 -47 -7 -17 -16 -30 -21 -30 -4 0
-5 -16 -1 -35 4 -22 2 -41 -6 -50 -10 -12 -9 -16 4 -21 9 -4 19 -4 23 -1 6 6
7 72 1 98 -2 8 4 13 14 13 10 -1 19 8 23 23 3 13 10 21 16 17 6 -3 8 -16 5
-27 -3 -12 0 -28 7 -36 10 -14 10 -14 -5 -3 -19 15 -24 9 -37 -46 -8 -38 -7
-42 11 -42 16 0 18 5 12 35 -5 29 -4 34 9 29 9 -3 18 -15 20 -27 3 -14 5 -9 6
13 1 27 4 31 11 20 8 -12 10 -11 10 6 0 11 -6 26 -12 33 -11 10 -8 11 12 7 14
-4 35 -7 47 -9 12 -2 25 -6 29 -9 6 -6 65 23 93 45 7 6 28 10 47 8 33 -2 45
11 22 25 -7 5 -8 3 -3 -5 5 -9 0 -12 -16 -9 -12 1 -25 9 -27 17 -3 10 0 12 12
8 10 -4 15 -3 11 3 -12 19 -45 11 -45 -10 0 -11 -5 -20 -10 -20 -6 0 -10 6 -9
13 4 35 -5 48 -49 70 -33 17 -50 21 -58 13 -7 -7 -5 -16 10 -28 16 -14 18 -20
8 -26 -10 -7 -10 -11 3 -22 11 -9 15 -9 15 -1 0 7 4 10 9 7 11 -7 2 -46 -10
-46 -5 0 -16 11 -25 25 -19 29 -24 30 -50 9 -16 -13 -16 -15 -1 -10 13 4 17 0
17 -19 0 -19 -4 -23 -17 -18 -23 9 -43 29 -43 42 0 6 -11 11 -24 11 -13 0 -26
7 -30 15 -7 19 -23 19 -43 0 -17 -17 -34 -16 -41 3 -2 7 2 10 12 6 11 -4 16
-1 16 11 0 11 5 15 15 11 8 -3 15 -1 15 4 0 6 -10 10 -22 10 -21 1 -22 2 -5
14 9 7 17 18 17 25 0 20 18 12 39 -18 12 -16 19 -36 15 -44 -3 -9 3 -16 16
-20 14 -3 20 -1 17 6 -2 7 0 20 5 30 6 12 5 17 -7 17 -8 0 -15 9 -15 20 0 15
7 20 25 20 14 0 25 -4 25 -10 0 -5 -4 -10 -10 -10 -5 0 -7 -6 -4 -14 4 -12 10
-12 34 1 16 8 32 18 35 24 4 5 15 9 26 9 11 0 18 -4 15 -9 -8 -12 14 -29 45
-34 20 -4 25 -1 27 18 1 19 -4 24 -36 29 -20 3 -52 6 -69 6 -33 -1 -46 16 -18
22 9 2 12 8 6 16 -6 11 -11 10 -25 -3 -16 -16 -18 -16 -36 0 -11 10 -17 22
-14 26 3 5 -4 9 -16 9 -20 0 -20 1 -5 30 9 17 20 30 26 30 8 0 8 -4 0 -13 -6
-8 -8 -17 -4 -20 11 -12 21 -8 26 11 3 12 5 13 6 2 1 -11 12 -15 41 -15 22 0
45 -6 52 -13 16 -16 2 -28 -15 -14 -11 10 -14 5 -14 -21 0 -17 2 -26 5 -19 5
17 22 15 22 -2 0 -21 17 -29 37 -17 16 9 16 10 2 11 -9 0 -19 7 -23 15 -6 15
5 20 18 8 3 -4 16 -8 27 -10 20 -3 49 -25 49 -38 0 -4 -7 -4 -16 -1 -13 5 -15
0 -11 -28 2 -19 8 -39 11 -45 12 -19 26 -12 26 14 0 17 6 25 18 25 16 1 16 1
0 14 -10 7 -18 16 -18 19 0 10 32 -5 51 -24 14 -14 15 -18 3 -23 -7 -3 -11
-12 -8 -21 3 -8 10 -13 15 -10 9 6 31 -30 23 -38 -3 -3 3 -3 14 0 14 3 24 -2
32 -19 10 -19 10 -21 -1 -11 -18 18 -34 16 -17 -1 27 -26 73 -44 108 -40 24 3
29 2 16 -4 -16 -7 -13 -12 25 -34 31 -19 46 -23 51 -15 5 8 8 6 8 -4 0 -17 19
-29 46 -29 19 0 6 30 -15 31 -9 0 -11 3 -4 5 14 6 5 34 -16 51 -14 11 -14 12
1 13 9 0 20 -5 24 -11 5 -8 10 -6 16 5 6 10 8 19 6 20 -1 1 -15 10 -30 19 -16
10 -28 21 -28 26 0 14 34 7 47 -9 9 -10 12 -11 13 -2 0 6 9 21 19 31 19 19 19
67 -1 55 -5 -3 -6 -15 -2 -26 4 -14 2 -18 -5 -14 -14 9 -15 43 -1 51 5 3 2 14
-8 25 -20 25 -33 26 -25 2 5 -16 5 -16 -13 1 -16 15 -17 19 -4 27 12 7 11 12
-5 32 -11 12 -28 29 -37 36 -10 7 -18 20 -18 28 0 8 31 -16 69 -55 68 -69 81
-75 81 -39 0 10 4 18 8 18 9 0 37 45 52 85 9 23 8 26 -5 21 -18 -7 -20 5 -3
22 10 10 10 15 -2 22 -8 5 -11 10 -6 10 16 0 86 -62 80 -71 -3 -6 -12 -5 -21
3 -12 10 -17 9 -26 -7 -14 -24 -28 -68 -23 -72 2 -2 11 3 19 12 17 17 21 13
31 -28 4 -19 3 -26 -4 -22 -5 3 -10 12 -10 20 0 8 -7 11 -20 8 -16 -4 -19 -11
-14 -27 5 -17 4 -19 -7 -9 -24 23 -33 13 -10 -11 19 -20 20 -24 6 -30 -11 -4
-14 -13 -9 -33 4 -16 12 -31 18 -35 6 -4 11 -11 11 -15 1 -15 35 -72 47 -80
17 -11 50 -74 43 -82 -12 -11 -41 17 -72 70 -27 44 -33 49 -33 30 0 -13 -2
-22 -4 -20 -5 4 -14 51 -15 77 -1 7 -5 11 -9 8 -14 -9 -6 -75 12 -95 37 -40
12 -42 -31 -1 -34 32 -53 38 -53 17 0 -18 32 -47 51 -47 9 0 28 -13 44 -30 22
-23 25 -30 12 -30 -9 0 -17 3 -17 8 0 15 -63 43 -73 33 -14 -14 9 -41 34 -41
11 0 19 -4 19 -10 0 -5 7 -10 15 -10 8 0 15 -6 15 -14 0 -9 -7 -12 -21 -9 -14
4 -25 -1 -36 -17 -10 -14 -23 -20 -37 -18 -12 3 -28 -2 -35 -9 -9 -10 -17 -10
-32 -2 -37 19 -111 -17 -137 -68 -9 -16 -9 -23 1 -26 8 -4 9 -8 1 -14 -6 -4
-13 -21 -16 -37 -5 -22 1 -35 29 -63 18 -20 32 -37 30 -40 -8 -7 -37 9 -37 22
0 19 -37 25 -51 9 -16 -20 -29 -17 -29 6 0 14 7 20 23 21 17 1 18 2 4 6 -10 3
-14 9 -10 16 5 7 8 26 8 42 0 21 4 29 14 27 11 -2 12 0 3 10 -8 10 -4 27 14
66 24 52 41 70 31 32 -7 -27 6 -33 29 -12 23 20 35 24 87 30 24 3 37 9 37 19
0 13 -11 15 -60 11 -33 -2 -60 0 -60 4 0 5 -4 6 -10 3 -12 -8 -120 17 -120 27
0 12 38 10 62 -3 27 -14 129 -18 125 -4 -2 5 -14 12 -26 15 -12 3 -22 8 -22
13 2 25 -1 29 -23 23 -14 -3 -28 -2 -31 4 -3 5 -15 10 -26 10 -18 0 -49 21
-49 33 0 2 11 2 25 -1 14 -2 25 -8 25 -13 0 -5 12 -9 28 -8 24 0 21 3 -23 24
-51 24 -64 22 -69 -11 -3 -20 -26 -33 -26 -14 0 6 5 21 11 33 12 21 11 22 -8
4 -11 -10 -37 -20 -57 -24 -19 -3 -34 -9 -31 -13 2 -3 -9 -7 -25 -7 -36 0 -42
-5 -34 -27 7 -18 25 -22 22 -5 -2 6 2 13 8 16 7 2 11 -6 10 -22 0 -14 -4 -25
-8 -25 -5 0 -8 -4 -8 -10 0 -5 16 -10 35 -10 27 0 35 -4 34 -17 0 -11 -3 -13
-6 -5 -7 19 -30 14 -36 -8 -3 -11 -11 -20 -17 -20 -10 0 -10 3 0 15 10 12 10
15 -2 15 -44 0 -76 -91 -50 -143 15 -32 22 -68 11 -61 -5 3 -9 -4 -9 -16 0
-13 -5 -20 -12 -18 -15 5 -29 66 -17 74 12 7 11 54 -1 54 -5 0 -10 -13 -10
-30 0 -16 -4 -30 -10 -30 -5 0 -10 -7 -10 -15 0 -8 -4 -15 -10 -15 -15 0 -12
27 5 44 8 8 15 23 14 33 0 14 -2 15 -7 3 -4 -8 -13 -15 -21 -15 -8 0 -19 -16
-25 -35 -10 -34 -10 -35 -14 -7 -2 16 3 34 12 43 9 8 16 20 16 25 0 6 4 8 9 4
5 -3 15 12 22 32 14 45 29 68 47 69 36 3 42 5 42 13 0 4 -10 8 -22 7 -13 -1
-26 5 -29 13 -7 18 -38 -38 -49 -89 l-8 -35 -1 33 c-1 19 -5 31 -11 27 -5 -3
-10 -2 -10 4 0 5 7 14 15 19 10 5 13 15 9 25 -7 20 -24 23 -24 5 0 -10 -3 -9
-9 1 -10 16 -32 6 -25 -12 3 -8 -5 -13 -18 -14 -16 -2 -19 0 -9 6 7 5 10 14 7
20 -11 16 -46 13 -46 -4 0 -8 -8 -15 -17 -15 -15 0 -16 -2 -3 -10 10 -7 11
-10 2 -10 -6 0 -22 11 -34 25 -23 26 -38 32 -38 15 0 -11 -36 -50 -46 -50 -3
0 -2 9 1 20 9 30 -7 24 -30 -9 -11 -17 -21 -28 -23 -26 -2 2 4 15 13 29 18 27
7 36 -17 14 -7 -7 -19 -13 -25 -14 -7 -1 -17 -2 -23 -2 -5 -1 -11 -21 -11 -44
-1 -40 -2 -41 -8 -13 l-7 30 -17 -39 c-10 -22 -20 -36 -23 -33 -4 3 3 22 15
42 26 44 29 74 6 55 -13 -11 -15 -8 -15 16 0 26 -1 26 -14 9 -21 -29 -49 -13
-41 24 5 23 2 32 -17 45 -13 10 -24 12 -26 6 -8 -23 -22 -7 -28 30 -5 28 -12
40 -23 40 -13 0 -13 -2 -2 -9 7 -5 10 -14 6 -20 -5 -9 -10 -9 -21 0 -7 6 -12
15 -9 19 3 4 -2 11 -11 14 -22 9 -23 8 -17 -14 3 -11 9 -20 14 -20 5 0 9 -4 9
-10 0 -17 -20 -11 -26 7 -3 10 -9 25 -12 33 -9 25 -10 63 -2 98 7 26 5 34 -10
42 -12 7 -20 6 -22 -1 -5 -14 -35 -1 -42 19 -4 9 -16 33 -26 52 -13 23 -20 54
-20 89 0 52 1 53 26 47 23 -6 24 -5 14 14 -6 11 -15 20 -21 20 -6 0 -7 -4 -4
-10 3 -5 -1 -10 -9 -10 -9 0 -16 7 -16 15 0 8 5 15 10 15 22 0 4 42 -37 85
-15 15 -17 31 -5 38 4 2 1 2 -7 0 -8 -2 -11 2 -8 12 4 8 1 17 -5 21 -7 4 -8 3
-4 -4 6 -11 -12 -17 -36 -13 -12 1 3 -33 20 -46 13 -11 6 -12 -39 -8 -118 11
-144 19 -118 37 11 7 11 9 -1 7 -35 -3 -60 2 -57 12 5 26 -22 18 -34 -10 -11
-25 -16 -28 -34 -19 -11 6 -31 20 -44 32 l-25 21 18 -29 c10 -16 14 -26 10
-23 -5 3 -54 10 -109 16 -55 7 -113 15 -130 18 l-30 6 33 9 33 9 -7 132 c-3
73 -9 175 -14 227 -4 52 -5 98 -2 101 4 4 43 12 87 18 44 7 139 21 210 32 72
11 161 25 198 31 l69 10 -4 142 c-1 77 -6 143 -9 146 -12 9 -17 140 -5 140 8
0 7 3 0 8 -7 4 -15 36 -18 72 -4 36 -9 77 -12 93 -5 26 8 38 21 17 3 -5 11
-10 16 -10 6 0 -4 13 -21 29 -26 23 -43 29 -96 34 -35 2 -70 9 -77 14 -6 5
-35 19 -64 31 -49 21 -55 21 -114 7 -35 -8 -68 -10 -73 -6 -6 5 -33 12 -60 16
-27 3 -88 19 -137 35 -89 28 -110 29 -191 4 -17 -5 -19 7 -33 227 l-5 86 39 7
c22 3 42 10 45 15 4 5 -1 126 -9 268 -8 142 -19 336 -24 431 -5 96 -11 175
-13 176 -2 2 -70 31 -153 66 -82 34 -205 87 -273 116 -67 30 -151 65 -185 78
-60 22 -229 96 -537 233 -80 36 -172 77 -205 92 -32 14 -78 35 -102 46 l-43
20 -4 244 c-3 134 -9 248 -13 252 -7 6 -114 57 -428 204 -44 20 -145 68 -225
105 -80 38 -206 96 -280 130 -74 34 -169 78 -210 97 -41 20 -147 69 -235 110
-88 41 -178 83 -200 93 -22 11 -76 35 -119 55 l-79 35 -347 0 -347 0 -12 -108z
m1999 -1699 c113 -41 251 -91 308 -111 101 -36 102 -37 102 -69 0 -18 -4 -33
-9 -33 -5 0 -71 -29 -146 -65 -75 -36 -140 -65 -146 -65 -13 0 -11 -14 3 -28
10 -10 10 -15 0 -21 -11 -6 -9 -9 6 -13 15 -4 18 -12 14 -36 -3 -21 -8 -29
-18 -25 -10 3 -14 -2 -14 -18 0 -31 15 -53 29 -45 6 4 11 2 11 -4 0 -7 -9 -14
-20 -17 -25 -7 -26 -19 -2 -32 25 -15 -4 -14 -31 1 -12 6 -40 15 -62 19 -22 4
-80 19 -128 33 -48 15 -93 24 -99 20 -7 -4 -8 -3 -4 4 4 7 1 12 -8 12 -9 0
-16 -4 -16 -10 0 -5 -4 -10 -10 -10 -5 0 -7 6 -4 14 4 10 -19 21 -85 42 l-90
28 -3 110 -3 110 -142 50 c-79 28 -143 53 -143 56 0 3 19 13 43 22 23 9 119
46 212 82 94 37 179 71 190 75 25 12 21 13 265 -76z m3576 -400 c7 -10 17 -19
23 -19 6 -1 16 -2 21 -3 6 0 10 -10 10 -22 0 -11 4 -17 10 -14 17 10 52 -15
45 -32 -3 -9 0 -20 6 -24 6 -4 -4 -6 -22 -4 -45 4 -43 3 -29 20 18 22 5 31
-15 11 -9 -9 -21 -14 -26 -11 -12 8 -11 -2 2 -26 8 -16 13 -18 25 -8 11 9 14
8 14 -6 0 -14 3 -15 15 -5 16 13 35 6 35 -15 0 -7 -11 -23 -24 -36 -23 -22
-23 -25 -10 -52 14 -27 14 -27 -6 -15 -11 7 -20 16 -20 20 0 5 -5 8 -10 8 -6
0 -3 -11 6 -25 9 -14 14 -28 10 -32 -3 -3 -6 -1 -6 5 0 14 -39 16 -58 3 -10
-6 -10 -10 3 -21 12 -10 13 -16 4 -26 -7 -9 -8 -14 -1 -14 6 0 17 -3 26 -6 10
-4 16 -1 16 9 0 8 -6 17 -12 20 -7 2 -10 7 -7 11 11 12 39 -6 39 -24 0 -23
-30 -34 -61 -21 -13 5 -32 12 -43 15 -15 5 -16 9 -6 21 14 17 7 19 -20 5 -23
-13 -80 6 -80 27 0 8 -9 17 -20 20 -36 9 -14 41 24 34 10 -1 17 2 14 9 -2 6
-7 11 -11 11 -4 -1 -16 -1 -27 -1 -13 0 -24 -10 -30 -25 -8 -22 -12 -24 -35
-13 -23 10 -23 12 -7 24 14 12 15 15 3 23 -10 7 -18 5 -26 -6 -14 -18 -51 -10
-39 8 4 8 9 7 15 -2 8 -12 11 -11 19 1 5 8 10 25 10 38 0 26 7 28 32 5 16 -15
21 -15 28 -3 5 8 7 17 4 21 -2 4 0 10 6 14 5 3 10 -1 10 -10 0 -16 10 -15 57
2 13 5 37 -33 38 -59 0 -24 11 -31 40 -24 22 6 24 9 15 26 -6 11 -16 20 -22
20 -6 0 -21 12 -34 26 -19 20 -22 29 -14 44 13 24 13 33 -1 24 -12 -7 -29 12
-29 33 0 18 65 46 89 38 16 -5 20 -3 15 9 -8 21 6 20 22 -1z m1350 -508 c8
-20 19 -33 24 -30 6 3 10 -2 11 -12 0 -16 1 -16 9 2 7 16 9 17 9 3 1 -9 7 -19
14 -22 9 -5 9 -7 -1 -12 -6 -3 -10 -10 -6 -15 8 -14 -16 -11 -30 4 -7 7 -15
18 -17 26 -3 9 -11 8 -29 -8 l-25 -20 23 -1 c25 0 27 -7 7 -34 -8 -10 -12 -23
-9 -27 3 -5 0 -17 -6 -26 -8 -15 -10 -12 -6 15 2 18 0 32 -6 32 -6 0 -8 7 -5
15 4 8 1 17 -5 21 -7 5 -8 2 -3 -6 6 -10 3 -12 -13 -8 -16 5 -19 2 -14 -11 3
-9 10 -20 16 -24 7 -6 5 -7 -4 -4 -9 3 -24 -2 -35 -9 -18 -13 -16 -14 15 -8
42 8 31 -11 -12 -21 -21 -5 -28 -3 -28 7 0 7 -9 14 -19 14 -15 0 -17 -3 -9
-13 6 -8 8 -17 4 -20 -4 -4 -11 -1 -15 6 -5 8 -14 10 -21 6 -10 -6 -11 -1 -6
19 5 19 3 27 -6 25 -35 -4 -46 2 -41 21 3 11 2 28 -2 37 -5 10 -7 21 -7 26 1
4 -5 7 -14 7 -8 0 -12 5 -8 11 3 6 0 15 -7 20 -7 4 -11 11 -7 14 3 4 16 -3 27
-14 12 -12 25 -21 30 -21 5 0 11 -4 13 -8 5 -13 58 -24 58 -12 0 5 -5 10 -12
10 -22 0 11 25 35 26 12 1 31 5 41 9 14 6 17 5 12 -3 -4 -7 -2 -12 3 -12 6 0
11 7 11 15 0 8 5 15 10 15 6 0 10 -5 10 -11 0 -5 5 -7 11 -4 6 4 8 13 5 20 -4
12 2 25 11 25 2 0 11 -16 19 -35z m123 -121 c-6 -8 -8 -21 -5 -31 4 -9 1 -20
-6 -25 -8 -6 -5 -7 10 -3 23 7 28 -12 7 -27 -6 -5 -5 -8 3 -8 7 0 20 7 28 15
9 8 20 15 25 15 16 0 22 -29 9 -44 -9 -11 -9 -20 0 -36 15 -28 6 -37 -15 -16
-9 9 -21 16 -26 16 -11 0 -50 37 -48 46 3 11 -25 44 -37 44 -6 0 -11 -13 -10
-30 1 -21 6 -30 18 -30 23 0 34 -20 11 -20 -15 -1 -13 -3 6 -14 18 -10 20 -15
10 -19 -26 -11 20 -37 55 -31 23 4 27 3 16 -4 -8 -6 -18 -8 -22 -6 -4 3 -8 0
-8 -6 0 -7 -8 -9 -20 -5 -11 4 -20 2 -20 -4 0 -6 8 -11 18 -12 12 0 11 -3 -7
-10 -15 -6 -28 -6 -36 1 -9 8 -11 4 -8 -14 4 -17 0 -25 -15 -28 -13 -4 -19 -2
-16 6 3 7 -4 23 -15 35 -12 13 -18 28 -15 32 8 13 -10 11 -24 -3 -15 -15 -16
-31 0 -22 8 5 9 2 5 -9 -3 -10 -2 -18 3 -18 6 -1 15 -2 20 -3 6 0 10 -4 10 -8
0 -5 0 -15 0 -24 0 -10 -6 -14 -15 -10 -8 3 -15 1 -15 -3 0 -5 5 -11 11 -13
15 -5 -3 -43 -21 -43 -20 0 -31 16 -24 37 8 25 -34 35 -53 11 -11 -13 -13 -14
-10 -2 3 8 -3 21 -14 27 -12 8 -16 18 -12 29 6 15 5 16 -9 3 -9 -8 -13 -19
-10 -24 3 -5 0 -6 -6 -3 -18 12 -44 -4 -39 -24 3 -10 -1 -23 -9 -30 -8 -6 -14
-18 -14 -25 0 -17 20 -19 21 -1 0 6 4 3 8 -8 5 -12 3 -25 -6 -33 -7 -8 -10
-19 -6 -25 3 -7 -3 -4 -14 6 -16 14 -26 15 -45 8 -19 -7 -33 -5 -57 10 -52 31
-57 19 -12 -28 15 -17 31 -36 34 -44 3 -8 6 -5 6 9 1 12 -4 22 -11 22 -20 0 2
14 28 17 13 2 34 -3 45 -10 l20 -14 -21 -6 c-11 -3 -20 -1 -20 4 0 5 -4 9 -8
9 -5 0 -9 -13 -9 -30 0 -18 6 -30 14 -30 7 0 13 5 13 10 0 6 5 10 11 10 7 0 5
-10 -5 -25 -9 -14 -13 -25 -9 -25 10 0 -19 -20 -29 -20 -5 0 -8 7 -8 16 0 11
-5 14 -16 10 -9 -3 -25 -6 -36 -6 -20 0 -21 -1 -3 -20 19 -21 13 -42 -7 -22
-16 16 -28 15 -28 -3 0 -8 6 -12 14 -9 7 3 16 -1 18 -8 4 -9 -5 -13 -28 -13
-33 0 -46 9 -23 17 6 2 11 17 12 33 1 17 6 34 12 38 6 5 3 7 -7 4 -20 -7 -42
17 -35 37 3 8 -1 17 -9 20 -8 3 -14 10 -14 16 0 14 27 13 33 -2 4 -8 6 -7 6 4
1 9 -5 18 -11 21 -10 3 -10 10 2 31 12 24 12 28 0 36 -13 8 -12 10 2 10 9 0
20 -4 23 -10 10 -15 25 -12 25 6 0 9 6 14 13 11 6 -2 11 -15 9 -28 -1 -16 1
-20 7 -11 6 11 11 10 25 -3 15 -15 21 -12 17 9 -1 5 4 13 11 17 7 4 9 12 4 16
-5 4 -11 2 -13 -4 -8 -22 -22 -14 -52 27 -18 25 -32 36 -36 29 -5 -8 -10 -8
-18 0 -8 8 -15 6 -27 -4 -14 -13 -19 -13 -35 -1 -14 10 -15 15 -5 21 9 5 11 4
6 -3 -12 -20 8 -13 27 8 14 17 21 18 37 10 21 -11 40 -6 40 10 0 5 -13 11 -30
15 -16 4 -30 11 -30 16 0 6 7 6 19 0 14 -8 22 -7 32 5 7 8 19 12 27 9 13 -5
13 -3 2 11 -12 13 -11 17 1 25 17 11 39 12 39 2 0 -5 -9 -22 -20 -40 -17 -28
-17 -33 -4 -41 12 -7 13 -14 4 -36 -15 -41 -11 -55 6 -22 9 15 13 37 11 48 -7
26 2 48 18 48 13 0 25 21 25 46 0 8 -7 14 -16 14 -8 0 -13 4 -10 8 3 5 -13 19
-36 32 -23 13 -38 18 -34 12 9 -15 -4 -42 -19 -42 -16 0 -29 35 -20 50 4 6 -4
20 -16 31 l-24 20 -8 -30 c-4 -17 -12 -31 -18 -31 -6 0 -7 -4 -4 -10 8 -13
-15 -13 -35 0 -13 8 -13 10 1 10 16 0 29 19 29 41 0 5 -9 9 -19 9 -40 0 -32
39 9 48 11 3 10 -1 -3 -16 -17 -19 -17 -20 8 -24 14 -3 25 -1 25 3 0 5 10 9
23 9 12 0 33 12 46 26 14 14 30 23 39 19 10 -3 12 0 8 10 -6 17 3 19 36 6 27
-10 32 -56 7 -72 -18 -11 -7 -11 23 0 20 8 24 6 25 -12 2 -24 25 -41 34 -25 5
7 12 3 20 -10 11 -18 16 -19 29 -8 9 8 28 12 48 9 33 -5 45 -23 15 -23 -11 0
-14 -3 -7 -8 6 -4 14 -17 18 -29 4 -13 12 -23 18 -23 5 0 8 7 4 15 -3 8 6 27
19 41 14 15 25 30 25 35 0 4 10 5 23 2 21 -4 21 -4 3 11 -20 16 -13 38 12 35
36 -3 52 2 52 15 0 8 5 16 11 18 8 3 6 10 -5 21 -10 9 -14 22 -10 29 5 8 13 4
26 -12 14 -17 16 -26 7 -36z m-642 -866 c-2 -7 -10 -12 -16 -10 -7 1 -10 -2
-7 -7 3 -5 14 -7 25 -4 15 4 18 0 14 -19 -3 -14 3 -32 16 -47 12 -13 21 -30
21 -38 0 -8 8 -13 18 -12 9 2 27 -1 40 -5 22 -7 22 -8 -10 -38 l-33 -31 32 7
c26 6 34 4 42 -13 14 -25 14 -81 1 -81 -5 0 -10 4 -10 9 0 6 -16 7 -35 4 -40
-6 -44 4 -15 35 21 22 27 37 11 28 -14 -9 -40 4 -35 18 3 7 -7 18 -22 25 -23
10 -26 10 -21 -4 4 -9 1 -15 -10 -15 -11 0 -13 -4 -5 -12 5 -8 6 -22 1 -33 -4
-11 -8 -15 -8 -8 -1 6 -10 9 -21 6 -17 -5 -18 -1 -13 31 4 29 2 36 -10 36 -19
0 -22 5 -31 45 l-7 30 24 -27 c13 -16 29 -28 35 -28 6 0 13 -8 15 -17 4 -15 6
-15 12 5 4 12 11 22 16 22 5 0 6 6 3 14 -5 14 -32 26 -67 31 -10 1 -21 6 -25
10 -4 4 15 4 43 0 48 -7 49 -6 34 12 -27 32 -39 69 -26 82 15 15 30 14 24 -1z
m-297 -38 c0 -5 8 -10 18 -10 14 0 15 -2 2 -10 -9 -6 -17 -5 -21 2 -4 7 -9 5
-15 -3 -8 -14 -10 -18 -12 -51 -1 -9 -9 -24 -18 -32 -16 -17 -16 -53 1 -48 6
1 10 11 10 21 0 11 4 23 9 28 5 4 6 3 2 -4 -4 -7 -2 -13 4 -13 6 0 8 -5 5 -10
-10 -16 15 -80 31 -80 8 0 14 -4 14 -10 0 -5 5 -10 11 -10 7 0 9 10 5 28 -6
25 -5 25 8 9 21 -27 68 -29 83 -3 10 18 12 18 13 4 0 -14 8 -18 34 -18 44 0
89 -17 81 -30 -3 -6 2 -13 12 -17 22 -9 48 -33 34 -33 -5 0 -13 5 -16 10 -3 6
-14 10 -24 10 -10 0 -25 8 -32 19 -15 20 -79 37 -79 21 0 -5 -6 -7 -14 -4 -8
3 -17 1 -21 -5 -3 -6 1 -11 10 -11 8 0 18 -6 21 -14 3 -8 19 -18 35 -21 18 -4
29 -13 29 -23 1 -15 3 -14 15 2 15 20 15 20 16 0 0 -16 2 -15 10 6 l11 25 49
-55 c27 -30 47 -60 45 -67 -3 -7 1 -13 8 -13 15 0 48 -33 45 -46 -1 -5 -1 -11
0 -14 1 -3 4 -29 6 -57 4 -59 -9 -78 -27 -39 -6 14 -19 26 -30 26 -17 0 -23
16 -19 48 2 16 -17 15 -34 -1 -11 -12 -10 -17 6 -30 19 -17 26 -47 11 -47 -4
0 -19 8 -32 17 -24 16 -24 16 -10 -1 13 -16 12 -20 -5 -32 -28 -20 -72 -18
-85 5 -7 14 -6 21 3 24 6 3 2 6 -10 6 -17 1 -23 7 -23 22 0 18 -2 19 -15 9
-20 -17 -20 -20 18 -61 18 -20 41 -54 51 -75 9 -21 21 -46 26 -54 36 -56 41
-70 26 -70 -8 0 -17 9 -21 19 -3 11 -21 36 -39 56 -19 20 -33 44 -32 53 0 9
-9 21 -22 27 -18 8 -23 16 -19 38 3 24 -3 32 -26 28 -11 -2 11 37 23 41 7 2 5
11 -4 23 -15 20 -15 20 -16 -2 0 -25 -14 -30 -26 -11 -4 7 -3 8 4 4 7 -4 12
-2 12 4 0 6 -10 15 -22 20 -13 5 -17 9 -9 9 16 1 5 16 -12 16 -12 0 -45 53
-46 75 0 10 6 8 19 -9 11 -12 17 -27 14 -32 -3 -5 6 -13 19 -18 14 -6 27 -16
30 -23 2 -7 8 -10 12 -6 4 4 -1 19 -12 35 -20 29 -45 80 -49 99 -1 6 -5 21 -8
32 -4 11 -2 23 4 27 5 3 10 12 10 18 0 8 -3 7 -9 -2 -7 -11 -16 -6 -42 23 -21
22 -43 36 -58 36 -16 0 -21 4 -18 15 4 8 2 17 -4 20 -5 4 -7 10 -4 15 9 15 -7
40 -26 40 -26 0 -63 41 -47 52 8 5 18 0 27 -12 24 -36 46 -25 60 30 11 43 16
50 37 50 13 0 24 -4 24 -10z m573 -22 c-1 -20 3 -28 19 -30 14 -2 22 -12 24
-30 1 -16 -1 -28 -6 -28 -12 0 -9 -59 4 -67 6 -4 2 -9 -11 -13 -18 -4 -20 -8
-12 -20 8 -11 12 -12 16 -2 6 15 23 6 23 -12 0 -9 -9 -12 -27 -8 -27 4 -27 4
-8 -11 11 -9 20 -28 21 -47 1 -20 -1 -28 -6 -20 -10 17 -71 15 -81 -2 -11 -17
-2 -25 13 -10 8 8 15 7 24 -6 8 -10 13 -12 14 -4 0 6 5 12 11 12 7 0 9 -10 5
-25 -4 -14 -2 -25 3 -25 5 0 14 -14 20 -31 14 -39 14 -50 0 -26 -5 9 -15 17
-20 17 -6 0 -7 -4 -4 -10 3 -5 1 -10 -5 -10 -6 0 -11 10 -10 23 3 36 1 47 -11
47 -6 0 -9 -7 -5 -15 3 -8 0 -15 -7 -15 -8 0 -7 -4 3 -10 8 -5 11 -12 7 -16
-4 -4 -13 -2 -19 4 -7 7 -27 12 -45 12 -31 0 -33 2 -33 33 0 37 7 49 35 65 20
11 20 11 -1 12 -18 0 -23 8 -28 43 -3 23 -6 47 -7 52 -1 6 2 22 6 38 6 21 4
27 -10 27 -9 0 -13 5 -10 10 11 18 35 11 44 -12 9 -22 9 -22 17 -3 9 25 39 55
55 55 8 0 8 4 -1 15 -12 14 -15 14 -30 0 -9 -9 -24 -13 -33 -9 -10 4 -19 0
-23 -9 -3 -9 -12 -13 -20 -10 -12 4 -11 10 3 34 9 15 20 26 24 23 16 -10 40 9
36 28 -5 16 -1 19 21 16 22 -2 27 -8 25 -30z m-913 -148 c4 -6 19 -10 32 -9
31 5 59 -17 51 -39 -4 -14 -3 -15 6 -2 8 12 13 12 23 2 6 -6 18 -12 26 -12 22
0 112 -64 112 -80 1 -12 3 -11 11 3 15 26 39 8 60 -47 14 -37 14 -45 3 -35
-12 10 -13 9 -8 -5 3 -9 10 -16 14 -16 13 0 80 -96 80 -114 0 -9 4 -16 8 -16
4 0 13 -14 19 -31 8 -21 9 -29 1 -27 -6 2 -13 13 -14 23 -2 11 -9 24 -16 30
-8 5 -12 17 -10 27 2 9 -1 19 -6 22 -5 3 -9 -8 -9 -24 0 -17 4 -30 9 -30 5 0
6 -4 3 -10 -12 -20 -27 -10 -23 15 6 28 -6 33 -20 9 -7 -13 -13 -14 -31 -5
-11 7 -21 18 -21 25 0 8 -7 20 -16 27 -9 7 -20 24 -25 37 -5 14 -12 22 -15 19
-10 -9 -32 17 -27 31 4 10 8 10 22 0 14 -11 14 -11 3 4 -10 12 -11 22 -3 37
15 26 14 31 -3 25 -8 -3 -12 -12 -9 -20 4 -10 0 -12 -13 -7 -26 9 -35 24 -28
46 5 15 1 18 -18 15 -16 -2 -23 -10 -23 -26 0 -21 -35 -55 -35 -35 0 4 -4 1
-10 -7 -8 -12 -11 -12 -28 3 -22 20 -36 22 -26 5 5 -9 2 -9 -9 1 -18 15 -23
26 -7 16 23 -14 7 19 -25 52 -19 20 -35 31 -35 25 0 -7 -11 -12 -25 -12 -19 0
-23 4 -18 17 5 12 3 14 -7 8 -9 -6 -11 -4 -6 4 5 7 0 21 -11 33 -18 21 -18 21
5 9 12 -6 22 -16 22 -21 0 -6 7 -10 16 -10 15 0 15 2 0 25 -9 14 -12 25 -6 25
5 0 10 4 10 10 0 5 -7 7 -15 4 -8 -4 -15 -1 -15 6 0 6 -5 8 -12 4 -7 -5 -8 -3
-3 5 9 16 84 9 95 -9z m-7570 -230 c0 -24 -51 -267 -61 -292 -6 -16 -19 -28
-29 -28 -10 0 -37 -7 -61 -15 -23 -9 -46 -12 -50 -8 -3 5 2 35 12 68 10 33 25
87 34 120 9 33 21 70 25 81 5 13 4 26 -2 32 -12 12 -9 15 64 37 53 17 68 18
68 5z m-217 -167 c-2 -71 -6 -147 -9 -170 -5 -39 -7 -42 -44 -48 -22 -4 -42
-11 -46 -16 -3 -5 -20 -9 -37 -9 -49 0 -58 23 -51 132 12 213 5 199 99 223 97
25 91 33 88 -112z m9115 98 c-14 -24 -3 -55 18 -47 8 3 13 2 10 -3 -3 -5 1
-14 8 -20 11 -10 17 -8 26 6 10 16 11 16 6 1 -3 -10 -1 -20 4 -23 8 -5 26 51
22 67 -1 4 5 5 13 2 17 -7 21 -64 5 -64 -6 0 -8 -11 -4 -25 4 -16 2 -25 -5
-25 -16 0 15 -57 39 -73 11 -6 20 -17 20 -24 0 -6 6 -14 13 -16 9 -4 9 -7 -1
-15 -7 -5 -16 -22 -20 -37 -5 -16 -15 -31 -23 -33 -12 -5 -12 -3 0 11 12 15
11 17 -3 17 -18 0 -22 35 -6 45 16 10 11 45 -10 72 l-20 26 -1 -24 c0 -13 -3
-18 -6 -11 -2 6 -9 9 -14 6 -9 -5 -6 24 7 64 2 7 0 11 -5 8 -4 -3 -25 10 -47
29 -28 26 -41 31 -51 23 -7 -6 -13 -15 -13 -20 0 -5 -9 -18 -20 -30 -29 -31
-24 -11 10 47 35 58 36 65 13 65 -13 0 -12 4 7 14 31 16 43 11 28 -13z m-1087
-51 c11 0 11 -2 1 -9 -7 -4 -24 -6 -38 -3 -18 3 -24 0 -24 -12 0 -10 -5 -14
-11 -11 -6 4 -8 13 -5 21 3 8 2 14 -3 14 -17 0 -19 -39 -3 -45 12 -4 13 -8 4
-17 -9 -9 -8 -16 5 -30 15 -17 15 -18 0 -18 -10 0 -26 9 -37 20 -18 18 -18 20
-2 21 9 0 12 3 5 5 -15 7 -63 -24 -63 -41 0 -7 11 -21 25 -31 26 -19 32 -34
15 -34 -13 0 -50 37 -44 43 3 3 -8 11 -25 18 -23 10 -27 16 -19 26 8 10 5 13
-12 13 -13 0 -20 3 -17 7 4 3 -2 12 -13 20 -11 8 -20 18 -20 24 0 18 26 8 53
-21 17 -17 38 -29 50 -29 22 2 22 2 0 6 -26 5 -32 33 -7 33 8 0 12 -4 9 -10
-4 -6 5 -10 19 -10 24 0 30 8 24 27 -4 10 -58 12 -64 2 -9 -15 -34 -10 -34 7
0 14 7 16 39 11 22 -2 43 -1 49 5 5 5 26 11 48 14 21 3 40 7 43 9 2 3 12 -2
21 -10 9 -8 23 -15 31 -15z m49 -37 c0 -14 2 -15 9 -5 6 10 19 5 55 -22 25
-20 50 -36 56 -36 5 0 7 -6 4 -14 -3 -8 0 -17 7 -22 8 -5 10 -3 4 6 -6 10 -4
12 9 7 10 -4 21 -7 26 -7 4 0 10 -9 13 -21 4 -16 3 -18 -9 -8 -11 9 -14 9 -14
-1 0 -7 -7 -10 -15 -7 -8 4 -17 2 -21 -4 -3 -5 -13 -7 -22 -5 -19 6 -36 -3
-39 -21 -2 -9 4 -10 22 -3 36 14 69 -2 48 -23 -3 -4 -12 -2 -20 4 -15 13 -16
5 -4 -38 7 -24 6 -33 -4 -37 -9 -3 -12 0 -9 8 4 9 -3 14 -21 14 -25 0 -25 -1
-9 -19 9 -11 25 -19 35 -19 10 0 21 -5 25 -11 4 -7 -1 -9 -12 -7 -11 2 -25 -3
-32 -12 -8 -8 -11 -9 -7 -2 3 6 0 19 -9 27 -19 19 -26 19 -26 0 0 -8 -4 -15
-9 -15 -6 0 -8 9 -6 20 2 11 -1 20 -6 20 -5 0 -9 -6 -8 -12 1 -7 0 -22 -1 -33
-3 -30 -22 32 -21 68 1 15 -2 27 -6 27 -5 0 -19 10 -33 21 -24 20 -24 20 -3
16 15 -3 20 -1 16 9 -3 8 -13 15 -22 15 -9 1 9 7 39 14 30 7 47 13 38 14 -9 0
-20 5 -23 11 -4 6 1 7 12 3 16 -6 16 -5 4 11 -11 13 -12 19 -3 25 7 4 8 12 2
21 -8 13 -10 12 -10 -2 0 -11 -8 -18 -20 -18 -11 0 -23 -7 -26 -15 -4 -8 -14
-15 -23 -14 -10 0 -11 2 -3 6 6 2 10 9 6 14 -3 5 0 9 5 9 6 0 11 5 11 10 0 6
-6 10 -14 10 -18 0 -27 23 -15 41 7 12 9 12 9 -1 0 -18 35 -51 45 -42 3 3 -4
14 -17 24 -18 15 -19 17 -4 11 13 -4 17 -3 13 4 -4 6 -1 14 5 16 23 9 28 7 28
-10z m426 -79 c12 -14 37 -47 56 -74 32 -47 57 -67 44 -35 -3 8 -1 15 4 15 6
0 10 -10 10 -22 0 -38 12 -68 26 -68 17 0 39 -40 27 -49 -24 -16 -25 -70 -1
-55 6 4 5 10 -3 16 -11 8 -11 9 1 5 8 -2 15 -12 15 -23 0 -10 6 -18 13 -17 7
2 12 -7 12 -21 0 -16 7 -26 21 -29 17 -5 20 -11 15 -31 -5 -19 -2 -26 8 -26 7
0 13 -6 13 -12 -2 -22 15 -102 24 -113 4 -6 10 -26 13 -45 l5 -35 -19 40 c-15
30 -20 35 -20 18 0 -12 -5 -25 -10 -28 -7 -4 -6 -13 1 -27 9 -17 13 -18 21 -7
7 10 7 8 3 -8 -7 -27 0 -29 21 -8 23 22 35 18 30 -11 -3 -14 0 -27 7 -30 8 -3
12 -30 13 -75 l1 -70 -18 40 c-18 41 -34 52 -41 29 -7 -19 -38 -1 -38 22 0 13
-7 20 -20 20 -13 0 -20 7 -20 20 0 11 -4 20 -10 20 -16 0 -12 27 6 45 9 9 14
19 11 22 -4 3 -14 -8 -24 -26 -10 -17 -21 -31 -25 -31 -11 0 -34 50 -41 88 -6
31 6 45 16 20 3 -7 6 -4 6 7 0 11 -4 27 -9 35 -8 13 -10 13 -10 1 0 -11 -3
-12 -11 -4 -7 7 -8 19 -4 30 14 31 13 55 -4 75 -15 17 -16 17 -23 1 -4 -13 -7
-8 -7 15 -1 18 -5 31 -9 28 -5 -3 -19 12 -33 33 -24 38 -84 75 -72 45 4 -12 1
-13 -21 -3 -14 7 -26 16 -26 21 0 5 -9 18 -20 30 -11 12 -18 24 -15 27 3 2 12
-4 20 -15 13 -18 14 -18 11 9 -1 15 -6 30 -9 34 -13 12 -7 24 11 22 29 -2 58
2 44 8 -6 2 -10 9 -6 14 3 5 -2 9 -10 9 -9 0 -25 19 -37 43 -12 23 -28 50 -37
60 -26 29 15 51 61 32 10 -4 17 -4 16 1 -6 33 19 32 47 -2z m-916 -54 c12 -8
12 -10 1 -10 -8 0 -12 -3 -9 -6 8 -7 148 -11 148 -4 0 4 -5 11 -12 18 -9 9 -9
12 3 12 7 -1 32 -17 54 -37 34 -30 36 -35 15 -28 -47 14 -170 18 -170 6 0 -7
-5 -9 -10 -6 -6 3 -18 -1 -27 -10 -14 -14 -14 -18 -2 -27 10 -7 5 -8 -18 -5
-23 2 -33 -1 -33 -10 0 -7 5 -13 10 -13 6 0 10 -7 10 -15 0 -20 -17 -19 -29 2
-5 10 -13 14 -17 10 -4 -4 -2 -13 4 -19 17 -17 15 -28 -3 -22 -11 5 -17 -3
-21 -25 -6 -29 -10 -32 -37 -29 -32 3 -51 28 -22 28 9 0 13 5 10 10 -3 6 4 10
17 10 l22 0 -22 16 c-21 14 -33 52 -13 40 5 -4 12 0 15 6 3 7 3 3 0 -9 -4 -18
-1 -20 16 -16 14 4 18 9 11 17 -11 14 -3 56 10 56 5 0 9 -4 9 -10 0 -5 8 -10
18 -10 13 0 14 2 3 9 -10 7 -10 10 -1 16 7 4 15 2 19 -4 10 -16 32 34 25 54
-7 17 4 19 26 5z m1258 -35 c18 -11 35 -31 39 -45 6 -28 21 -50 33 -50 15 0
21 33 8 42 -9 5 -6 8 9 8 18 0 22 -6 22 -32 -1 -44 -18 -78 -41 -78 -12 0 -16
-4 -12 -11 3 -6 1 -15 -7 -19 -10 -7 -10 -12 -1 -22 6 -8 13 -57 16 -109 5
-114 13 -163 33 -208 26 -59 27 -102 2 -159 -12 -28 -26 -52 -29 -52 -4 0 -5
-13 -2 -30 6 -40 -5 -67 -20 -52 -7 7 -21 13 -32 13 -16 1 -17 2 -5 6 17 4 29
29 34 73 2 14 13 43 24 65 24 45 27 101 7 124 -8 9 -19 32 -24 51 -8 26 -10
29 -11 12 -1 -13 -5 -21 -10 -18 -5 3 -7 14 -4 25 2 10 -2 24 -9 32 -8 8 -13
31 -13 52 1 23 -3 41 -10 44 -7 2 -10 13 -7 25 3 11 -1 24 -9 29 -11 7 -10 9
4 9 20 0 24 40 5 40 -13 1 -58 34 -58 43 0 2 -18 36 -39 76 -22 39 -35 71 -30
71 5 0 9 7 9 15 0 8 4 15 9 15 5 0 7 -9 4 -20 -3 -12 0 -20 6 -20 7 0 10 4 7
9 -3 5 1 11 9 15 8 3 15 12 15 20 0 12 5 14 25 6 19 -7 23 -6 19 5 -3 8 -14
17 -25 20 -10 4 -19 11 -19 16 0 9 10 5 78 -36z m207 -179 c-16 -80 -17 -96
-5 -96 9 0 11 -11 7 -37 -5 -26 -3 -33 3 -23 14 22 12 -4 -2 -36 -11 -23 -10
-28 7 -40 19 -14 11 -19 -22 -15 -7 1 -13 -6 -14 -16 -5 -140 -11 -219 -18
-226 -5 -5 -9 1 -10 14 0 13 -1 41 -2 62 0 20 -5 40 -10 43 -5 3 -9 14 -9 25
0 11 4 18 9 14 5 -3 12 -1 16 5 3 5 -1 10 -9 10 -24 0 -21 56 4 73 16 11 19
21 14 41 -7 31 -12 32 -30 9 -12 -16 -13 -14 -11 14 1 18 5 33 9 33 4 0 4 16
1 35 -4 24 -2 35 6 35 7 0 9 5 5 11 -11 18 -23 79 -14 74 4 -3 11 2 14 11 3 8
10 12 16 9 6 -4 8 -11 5 -16 -4 -5 -1 -9 5 -9 6 0 10 6 9 13 -4 33 0 40 17 26
11 -9 14 -22 9 -43z m-560 -82 c0 -30 6 -50 16 -58 9 -6 14 -16 12 -23 -4 -11
17 -69 38 -103 5 -8 15 -28 22 -45 8 -16 26 -44 40 -61 15 -18 27 -39 27 -49
0 -9 5 -13 10 -10 6 3 10 0 10 -8 0 -8 32 -47 70 -86 68 -71 86 -99 54 -87 -9
3 -22 6 -31 6 -9 0 -13 6 -10 15 4 9 -5 22 -24 35 -16 12 -27 25 -25 29 5 8
-51 81 -62 81 -11 0 -2 -79 9 -86 5 -3 9 -16 9 -30 0 -13 4 -24 8 -24 4 0 9
-16 10 -37 2 -20 5 -39 7 -43 2 -3 0 -12 -4 -19 -6 -9 -13 4 -21 38 -11 47
-29 69 -31 39 0 -7 -6 12 -13 42 -7 37 -8 58 -1 63 5 5 -1 5 -14 2 -20 -6 -23
-4 -17 10 4 11 -1 24 -15 36 -28 24 -39 24 -39 -1 0 -11 5 -20 10 -20 6 0 10
5 10 12 0 6 2 9 5 6 3 -2 -4 -23 -15 -46 -28 -59 -25 -75 23 -118 23 -21 44
-47 47 -58 3 -12 16 -25 28 -31 12 -5 22 -13 22 -18 0 -15 -32 -20 -41 -6 -7
11 -9 11 -9 1 0 -8 -5 -10 -14 -5 -19 11 -96 73 -124 100 -12 13 -32 28 -45
34 l-22 11 23 -21 c22 -22 26 -32 23 -61 -2 -17 71 -63 102 -65 11 -1 22 -7
26 -14 9 -15 81 -5 81 11 0 6 11 8 24 4 16 -4 29 0 41 14 15 17 27 19 77 15
36 -3 58 -1 58 6 0 6 5 7 11 3 6 -3 7 -9 2 -13 -10 -7 -9 -43 2 -61 6 -9 9 -9
15 0 5 9 9 9 14 1 4 -6 -2 -15 -16 -20 -18 -7 -25 -4 -35 17 -7 13 -10 28 -7
33 3 5 -3 9 -13 9 -12 0 -25 -15 -37 -42 -15 -36 -16 -48 -6 -81 6 -21 9 -41
6 -44 -3 -4 6 -17 20 -30 29 -26 24 -49 -7 -33 -16 9 -19 7 -20 -12 -1 -17 -3
-18 -6 -5 -2 9 -10 17 -16 17 -8 0 -7 4 1 12 17 17 15 25 -9 31 -17 5 -20 2
-16 -14 6 -21 0 -24 -22 -10 -11 7 -10 14 7 37 12 16 23 47 27 69 4 29 3 35
-4 20 -11 -23 -14 -10 -5 23 5 18 9 20 20 11 11 -9 14 -8 14 5 0 9 -3 16 -7
17 -5 0 -29 3 -55 5 -43 5 -47 3 -41 -13 4 -10 11 -21 16 -24 5 -4 11 -27 12
-52 1 -45 1 -45 -17 -23 l-19 21 5 -27 c5 -23 3 -28 -14 -28 -17 0 -18 3 -9
24 18 39 4 76 -31 83 -17 3 -33 10 -36 14 -3 5 -14 9 -25 9 -10 0 -19 5 -19
10 0 6 -5 10 -11 10 -5 0 -7 -4 -4 -10 15 -24 -8 -6 -52 41 -26 28 -57 56 -68
61 -18 8 -18 8 3 4 33 -6 27 8 -18 44 -42 33 -50 50 -25 50 9 0 12 6 9 15 -4
8 -1 15 5 15 6 0 11 -4 11 -10 0 -5 5 -10 10 -10 18 0 80 -45 80 -57 0 -7 5
-13 11 -13 15 0 79 -62 79 -77 0 -7 9 -13 20 -13 23 0 31 -10 -79 104 -60 62
-75 96 -31 68 11 -7 22 -12 25 -12 10 0 4 36 -10 54 -20 26 -19 40 1 32 11 -4
15 -2 11 8 -3 8 0 17 7 19 14 6 29 47 17 47 -4 0 -7 15 -7 34 1 21 5 32 13 29
7 -3 10 3 8 14 -2 10 -4 20 -4 23 -1 3 -6 -2 -11 -10 -8 -13 -11 -13 -19 -1
-5 7 -14 11 -20 7 -7 -5 -9 2 -5 22 3 17 1 32 -5 36 -5 4 -8 13 -5 21 6 16
-23 34 -50 32 -11 -1 -21 3 -23 8 -4 12 41 14 53 3 13 -14 26 -9 20 7 -3 8 -1
15 3 15 5 0 12 -6 14 -12 3 -7 6 -3 6 9 1 12 -4 23 -10 25 -15 5 -21 81 -6 90
7 4 12 8 12 8 0 0 0 -21 0 -46z m702 -47 c13 5 15 1 9 -23 -4 -16 -10 -54 -12
-84 -7 -88 -14 -111 -32 -108 -11 2 -23 -9 -33 -29 -9 -18 -19 -30 -23 -26
-10 11 -7 121 4 128 8 5 7 11 0 20 -7 8 -9 18 -6 23 3 5 9 36 15 70 6 35 20
74 33 93 l23 31 3 -51 c2 -41 6 -49 19 -44z m-3935 -250 c19 -29 8 -47 -32
-53 -33 -5 -40 -10 -40 -30 0 -19 -7 -24 -37 -29 -21 -4 -60 -11 -88 -16 -324
-60 -417 -71 -770 -94 -126 -8 -254 -18 -282 -21 l-53 -6 0 65 c0 59 2 65 23
71 12 3 157 17 322 31 411 35 623 54 735 65 52 5 105 10 118 10 13 0 22 6 22
16 0 13 7 15 37 9 21 -4 41 -12 45 -18z m2345 -569 c11 28 29 -7 25 -49 -4
-39 -6 -41 -18 -24 -8 10 -14 14 -14 9 0 -6 11 -21 25 -34 19 -18 22 -26 13
-37 -15 -19 -4 -27 20 -14 29 15 42 14 36 -4 -4 -8 -18 -15 -34 -15 -37 0 -48
-28 -19 -48 13 -9 17 -17 10 -21 -6 -4 12 -15 39 -25 49 -18 72 -44 28 -31
-20 6 -19 3 7 -19 l30 -27 -37 20 c-28 15 -36 17 -31 6 3 -8 10 -15 16 -15 8
0 8 -3 0 -11 -9 -9 -20 -6 -45 8 -18 11 -39 18 -45 16 -7 -3 -13 2 -13 11 0 9
-4 16 -8 16 -5 0 -18 9 -31 21 -23 21 -44 18 -23 -3 18 -18 14 -31 -8 -25 -10
3 -21 0 -23 -7 -2 -6 -7 -8 -11 -4 -8 7 9 45 30 65 8 9 15 10 19 3 3 -5 18
-10 32 -10 25 0 26 0 8 20 -15 17 -26 19 -64 14 -25 -4 -54 -7 -63 -6 -9 0
-15 -5 -13 -11 3 -7 1 -19 -5 -27 -8 -13 -11 -12 -23 5 -17 22 -3 56 20 48 19
-7 16 14 -3 25 -13 7 -14 11 -3 17 7 5 14 4 17 -3 4 -14 52 -16 52 -2 0 5 -10
19 -22 30 -21 20 -22 22 -6 31 9 5 15 16 12 23 -4 9 3 16 18 19 l23 4 -22 8
c-25 8 -27 13 -13 35 7 11 12 12 20 4 14 -14 70 4 70 21 0 5 5 3 11 -5 8 -12
12 -12 16 -2z m-3131 -355 c-3 -7 1 -13 9 -13 18 0 20 -16 3 -24 -7 -4 -3 -4
10 -2 12 2 22 0 22 -5 0 -5 -4 -9 -10 -9 -5 0 -9 -15 -9 -32 l2 -33 5 30 5 30
7 -30 8 -30 1 28 c1 18 6 27 14 24 6 -2 20 0 29 4 23 12 33 -7 11 -20 -17 -10
-17 -10 2 -12 11 -1 28 -1 37 0 12 2 16 -3 12 -13 -3 -9 -18 -16 -33 -16 -18
0 -22 -3 -13 -9 11 -6 10 -10 -4 -15 -10 -4 -21 -1 -26 6 -5 8 -7 2 -7 -17 0
-16 3 -24 6 -17 5 14 63 17 63 3 0 -15 -19 -24 -95 -42 -66 -16 -67 -17 -28
-18 23 -1 53 3 67 9 16 6 27 6 31 -1 4 -5 10 -7 15 -4 5 3 11 1 14 -4 8 -13
-61 -19 -281 -26 -162 -5 -182 -4 -177 10 3 8 2 15 -4 15 -5 0 -12 -7 -16 -15
-3 -8 -12 -15 -21 -15 -8 0 -15 7 -15 15 0 8 -7 15 -15 15 -8 0 -15 -7 -15
-15 0 -8 -4 -15 -10 -15 -5 0 -10 16 -10 35 0 29 4 35 23 36 12 0 31 5 42 10
15 7 10 8 -22 6 -29 -2 -43 2 -43 10 0 6 8 11 18 11 9 0 42 6 72 15 43 12 51
17 36 23 -19 7 -19 8 0 15 10 4 38 8 61 8 52 1 66 19 18 23 -34 3 -35 4 -14
16 12 8 18 9 14 2 -5 -7 2 -9 22 -4 38 9 42 14 10 14 -15 0 -27 4 -27 9 0 5
-6 9 -12 8 -35 -1 -81 5 -70 10 6 2 10 9 6 14 -3 5 4 9 16 9 12 0 18 -4 15
-10 -4 -6 7 -10 24 -10 17 0 31 4 31 9 0 10 53 16 148 16 39 1 51 -3 48 -12z
m-2046 -131 c-19 -8 -140 -66 -268 -128 -228 -111 -254 -122 -338 -143 -23 -6
-53 -20 -66 -31 -27 -21 -45 -79 -28 -90 5 -3 -40 -53 -100 -110 -61 -57 -110
-109 -110 -117 0 -7 -4 -13 -9 -13 -13 0 -19 32 -10 55 4 11 8 39 8 62 1 23 8
48 16 57 10 9 15 34 15 69 0 30 3 75 6 100 6 42 9 46 40 52 19 3 34 11 34 16
0 6 9 18 21 28 16 13 34 15 85 11 42 -4 72 -1 87 7 12 7 39 12 60 13 35 0 80
15 182 61 36 16 77 29 305 98 81 25 120 27 70 3z m5362 -378 c191 -5 285 -10
281 -17 -4 -6 0 -8 8 -5 8 3 26 0 40 -8 22 -13 21 -14 -26 -9 -47 4 -428 18
-487 18 -16 -1 -28 3 -28 8 0 5 -13 9 -30 9 -17 0 -30 -5 -30 -12 0 -9 -3 -9
-12 0 -15 15 -52 16 -42 1 4 -7 -1 -7 -16 1 -15 8 -48 10 -94 7 -45 -3 -58 -2
-36 3 25 5 3 8 -75 9 -74 0 -105 -2 -95 -9 8 -5 10 -10 4 -10 -5 0 -19 7 -30
16 -17 14 -1 15 181 10 110 -3 329 -9 487 -12z m156 -60 c29 -4 60 -13 68 -21
16 -16 118 -14 454 12 102 7 241 16 310 18 113 5 117 4 40 -3 -47 -5 -143 -14
-215 -20 -71 -6 -204 -17 -295 -25 -91 -8 -199 -17 -240 -19 -41 -3 -122 -9
-180 -15 -58 -7 -150 -16 -205 -21 -55 -6 -116 -12 -135 -14 -19 -2 -86 -5
-148 -7 -63 -2 -115 -6 -117 -9 -2 -3 -26 -7 -54 -8 -42 -2 -294 -30 -436 -48
-22 -3 -56 -7 -75 -8 -66 -6 -175 -17 -230 -22 -30 -3 -109 -8 -175 -10 -66
-2 -158 -9 -205 -15 -132 -16 -140 -16 -152 -2 -6 7 -17 13 -24 13 -17 0 -19
-20 -1 -20 6 0 4 -5 -6 -11 -23 -13 -36 -4 -30 21 3 12 19 24 37 29 31 9 30 9
-14 12 -38 2 -40 3 -12 6 32 4 43 20 20 28 -26 8 -522 13 -503 5 11 -5 15 -9
8 -9 -7 -1 -10 -8 -7 -16 4 -8 1 -15 -5 -15 -7 0 -14 7 -18 16 -5 13 -8 13
-15 2 -7 -10 -11 -10 -15 0 -2 6 -16 12 -31 12 l-26 0 35 36 34 35 110 -7
c144 -10 159 -10 442 -12 204 -2 242 -4 237 -16 -3 -8 2 -16 13 -19 10 -2 -33
-4 -96 -5 -74 0 -118 -5 -125 -13 -8 -8 -8 -13 2 -16 6 -3 10 -9 6 -14 -3 -5
0 -9 5 -9 6 0 11 4 11 9 0 5 35 7 78 4 78 -4 256 7 542 33 315 29 376 34 830
64 69 5 152 11 185 14 33 3 96 8 140 12 44 3 82 7 84 10 11 11 -26 34 -55 34
-19 0 -34 5 -34 10 0 6 -34 10 -82 10 -57 0 -78 -3 -68 -10 18 -12 -210 -12
-255 0 -21 6 -8 8 45 7 59 -2 74 1 72 12 -2 11 33 12 210 7 117 -4 237 -9 266
-12z m-6160 -88 c2 -58 0 -64 -20 -69 -13 -4 -29 0 -38 8 -14 13 -23 11 -75
-10 -154 -61 -154 -42 2 98 71 64 74 65 101 52 26 -13 28 -19 30 -79z m5472
84 c41 0 60 -4 51 -9 -11 -7 -10 -13 8 -32 l22 -24 -73 -8 c-43 -4 -93 -3
-122 3 -27 6 -150 13 -275 16 -124 3 -229 9 -234 13 -4 4 33 7 82 7 56 0 94 4
104 12 14 12 94 11 157 -2 95 -21 111 -23 116 -15 3 5 14 9 25 9 11 0 17 -4
14 -10 -3 -5 1 -10 9 -10 9 0 16 4 16 8 0 17 -26 32 -56 32 -18 0 -36 5 -40
11 -5 8 13 10 62 6 38 -4 98 -7 134 -7z m-6000 -279 c0 -5 8 -12 18 -14 9 -3
0 -5 -20 -6 -42 -1 -44 -5 -23 -41 8 -14 14 -40 15 -57 0 -26 -4 -33 -20 -33
-11 0 -20 4 -20 10 0 5 -26 23 -57 38 -45 22 -67 28 -98 24 -36 -4 -38 -3 -26
12 12 14 66 34 181 65 47 12 50 13 50 2z"/>
<path d="M13078 7378 c-2 -6 5 -41 16 -77 11 -36 21 -99 22 -138 0 -40 6 -79
13 -87 6 -7 14 -51 17 -97 6 -95 28 -232 49 -299 8 -25 14 -62 14 -82 -1 -20
1 -41 5 -46 3 -5 8 -47 11 -93 3 -46 10 -110 16 -143 6 -32 8 -64 5 -71 -2 -7
2 -25 10 -40 14 -27 31 -125 37 -215 9 -118 31 -190 59 -190 7 0 9 19 5 63 -7
67 -4 75 32 95 29 17 41 4 41 -45 0 -17 2 -37 3 -45 2 -7 2 -10 0 -5 -3 4 -13
7 -24 7 -27 0 -25 -34 4 -57 36 -29 49 -72 53 -178 3 -55 12 -129 21 -165 9
-36 17 -92 19 -125 2 -33 5 -76 8 -95 2 -19 4 -50 5 -67 1 -21 6 -33 15 -33
18 0 23 -15 32 -92 4 -35 13 -81 21 -102 7 -22 11 -41 9 -43 -2 -3 0 -19 5
-36 6 -18 14 -50 19 -72 5 -22 16 -62 24 -90 54 -186 92 -368 99 -471 3 -40
10 -81 16 -92 12 -23 34 -139 60 -322 11 -75 38 -194 53 -230 6 -14 13 -63 15
-110 2 -47 9 -103 15 -125 10 -38 26 -200 33 -333 2 -35 7 -71 11 -80 9 -20
21 -110 30 -212 4 -41 10 -80 15 -86 22 -27 37 -228 19 -250 -9 -10 -10 -17
-1 -28 6 -7 18 -40 27 -72 16 -61 31 -87 45 -78 19 11 8 -16 -11 -29 -19 -13
-19 -47 0 -47 15 0 20 -31 8 -50 -10 -16 -8 -24 11 -50 15 -22 21 -39 17 -58
-7 -33 8 -190 23 -250 6 -23 13 -77 16 -120 2 -42 11 -95 19 -117 8 -22 14
-72 14 -112 0 -39 5 -80 11 -91 6 -11 14 -53 17 -94 4 -40 12 -84 19 -98 17
-34 25 -80 31 -175 3 -44 9 -84 12 -90 3 -5 9 -30 13 -55 4 -25 13 -65 19 -90
5 -25 15 -83 20 -130 5 -47 18 -128 29 -180 12 -52 23 -129 27 -170 3 -41 10
-89 16 -107 6 -22 6 -39 -2 -53 -8 -14 -8 -26 0 -40 10 -19 21 -20 206 -20
170 0 195 2 190 15 -7 19 -4 19 41 0 29 -12 102 -15 434 -15 365 0 399 1 399
17 0 9 -9 66 -20 127 -11 61 -36 208 -56 326 -40 240 -46 274 -138 795 -72
408 -103 587 -147 835 -16 91 -47 269 -69 395 -22 127 -47 268 -55 315 -9 47
-25 137 -36 200 -11 63 -40 225 -65 360 -90 488 -101 549 -169 965 -25 149
-54 322 -65 385 -11 63 -26 156 -34 205 -14 90 -135 811 -181 1085 -14 80 -47
282 -74 450 -125 766 -143 877 -148 903 l-5 27 -658 0 c-500 0 -659 -3 -662
-12z"/>
<path d="M11760 5376 c0 -8 -16 -16 -40 -20 -23 -4 -38 -11 -35 -16 3 -6 -1
-10 -9 -10 -20 0 -20 -5 0 -35 15 -23 17 -23 40 -9 13 9 21 20 18 25 -3 5 1 9
10 9 8 0 16 -5 18 -12 3 -7 12 -9 22 -5 9 4 14 12 11 17 -4 7 3 8 21 4 19 -5
25 -4 20 5 -4 6 -2 11 3 11 6 0 11 -4 11 -8 0 -5 20 -7 45 -6 49 3 53 -1 29
-27 -14 -16 -13 -19 7 -38 13 -12 33 -21 46 -21 13 0 23 -4 23 -10 0 -5 -7
-10 -16 -10 -8 0 -12 -5 -8 -11 4 -7 15 -2 32 14 23 24 24 27 8 42 -13 13 -16
13 -16 2 0 -8 -9 -13 -22 -12 -25 2 -38 25 -13 25 9 0 14 4 11 9 -3 5 21 14
54 20 l59 12 -20 23 -21 24 -41 -18 c-23 -10 -46 -16 -51 -12 -10 6 -22 8 -76
17 -14 2 -25 4 -25 5 0 1 -16 3 -35 5 -19 1 -36 8 -38 14 -5 16 -22 14 -22 -3z"/>
<path d="M12335 4803 c2 -35 0 -63 -4 -63 -4 0 -7 10 -8 21 -3 30 -11 35 -26
16 -6 -8 -22 -17 -34 -19 -18 -2 -20 -6 -12 -18 8 -11 12 -12 16 -2 6 14 33
16 33 2 0 -5 -6 -10 -14 -10 -17 0 -29 -27 -16 -35 15 -9 12 -25 -5 -25 -8 0
-15 5 -15 12 0 21 -11 1 -16 -28 -4 -26 -3 -27 10 -11 16 21 28 10 45 -45 14
-44 21 -46 40 -16 11 18 11 23 -1 32 -18 13 -19 76 -1 76 6 0 15 -5 18 -10 9
-15 25 -2 18 15 -9 25 23 17 43 -10 11 -15 25 -23 35 -20 11 4 18 -1 22 -15 6
-23 37 -27 37 -5 0 9 11 21 25 27 34 15 32 28 -4 28 -17 0 -33 5 -37 12 -5 8
0 9 15 5 17 -4 21 -2 17 9 -3 8 0 14 5 14 6 0 9 9 6 19 -3 14 2 21 21 26 15 4
28 1 32 -5 5 -7 10 -8 13 -3 4 6 -3 20 -14 32 l-20 21 -31 -22 c-22 -15 -33
-18 -36 -10 -2 7 -8 10 -13 6 -5 -3 -9 3 -9 12 0 13 -3 15 -11 7 -7 -7 -5 -21
9 -47 19 -35 19 -39 4 -67 -23 -39 -37 -42 -56 -14 -14 21 -14 26 -1 39 21 20
19 23 -17 35 -30 10 -31 9 -14 -4 11 -8 17 -17 14 -21 -4 -3 -16 4 -28 16
l-22 22 22 23 c24 26 18 49 -11 42 -10 -3 -20 0 -23 7 -3 6 -3 -17 -1 -51z"/>
<path d="M11650 4633 c0 -19 -20 -26 -35 -13 -12 10 -15 9 -15 -4 0 -9 -7 -16
-15 -16 -8 0 -15 6 -15 14 0 9 -10 13 -25 12 -26 -1 -36 -16 -10 -16 8 0 15
-5 15 -11 0 -6 -9 -8 -20 -4 -17 5 -20 2 -20 -22 0 -16 -6 -35 -12 -42 -11
-10 -8 -10 15 0 24 11 30 10 37 -1 5 -8 6 -18 4 -22 -5 -7 45 0 54 7 8 7 -42
43 -52 38 -6 -4 -5 1 3 10 14 18 36 24 26 7 -3 -5 1 -10 9 -10 10 0 16 -9 16
-22 0 -20 1 -21 20 -3 11 10 20 13 20 7 0 -7 -5 -12 -11 -12 -5 0 -8 -4 -5 -9
3 -5 -5 -12 -19 -15 -15 -4 -25 -13 -24 -24 0 -10 3 -12 6 -4 2 6 11 12 18 12
14 0 15 -17 2 -37 -5 -9 -2 -13 8 -13 9 0 13 -4 10 -10 -3 -6 1 -7 10 -3 14 5
14 8 3 15 -11 8 -11 10 1 15 11 5 11 7 0 15 -11 7 -11 11 -1 15 6 2 12 13 12
24 0 12 7 19 20 19 11 0 20 5 20 10 0 6 5 10 11 10 5 0 7 -4 4 -10 -3 -5 1
-10 10 -10 13 0 14 4 5 21 -7 12 -17 18 -27 15 -8 -3 -17 -6 -19 -6 -3 0 -2
-4 1 -10 3 -5 -1 -10 -9 -10 -10 0 -16 9 -16 25 0 14 -6 25 -12 25 -8 1 -6 6
5 14 10 8 27 11 39 8 14 -3 19 -1 14 6 -4 7 -2 12 3 12 6 0 11 4 11 9 0 5 -16
9 -35 8 -19 -1 -35 -7 -35 -14z"/>
<path d="M2103 3275 c-17 -7 -33 -11 -36 -9 -4 4 -63 -20 -252 -106 -22 -10
-130 -57 -240 -105 -110 -48 -228 -100 -263 -116 -92 -42 -112 -46 -112 -20 0
26 -14 27 -40 1 -26 -26 -28 -25 -22 5 2 15 0 25 -7 25 -6 0 -11 -12 -11 -26
l0 -27 -137 7 c-76 3 -171 9 -210 13 -71 6 -73 5 -82 -19 -5 -14 -11 -75 -14
-135 -4 -119 -8 -133 -38 -133 -11 0 -88 -29 -172 -64 -84 -35 -179 -73 -211
-85 -33 -12 -82 -32 -110 -45 -28 -13 -72 -31 -98 -41 l-48 -18 0 -53 c0 -63
15 -72 25 -14 8 47 25 53 25 9 0 -21 4 -29 13 -26 6 3 62 26 122 50 273 111
269 109 278 156 9 46 34 52 29 7 -2 -17 2 -26 12 -26 8 0 77 27 153 60 76 33
151 63 168 66 16 3 32 9 35 13 8 13 36 26 367 165 175 73 415 175 533 226 118
52 244 106 280 121 l65 28 3 48 c2 26 10 56 19 65 19 21 18 21 -24 3z"/>
<path d="M7280 1526 c-5 -14 -13 -26 -18 -26 -9 0 -20 -98 -27 -240 -3 -44 -9
-68 -19 -76 -9 -6 -16 -19 -16 -28 0 -10 -8 -16 -23 -16 -25 0 -49 -22 -61
-54 -5 -14 -2 -17 11 -13 42 11 48 11 46 0 -1 -6 5 -17 13 -24 13 -11 15 -10
12 7 -2 16 4 20 42 24 42 5 43 6 17 13 -36 10 -30 31 9 35 28 3 30 7 49 85 14
59 20 117 20 207 0 122 -1 125 -22 128 -17 3 -26 -3 -33 -22z"/>
<path d="M1660 775 c0 -8 -4 -15 -10 -15 -14 0 -12 -27 3 -33 10 -4 10 -6 0
-6 -7 -1 -13 -10 -13 -21 0 -16 7 -20 34 -20 l34 0 -12 -42 c-21 -69 -27 -110
-16 -103 6 3 10 2 10 -4 0 -5 -6 -14 -14 -18 -8 -4 -16 -23 -18 -42 -2 -27 -8
-35 -25 -36 -13 -1 -23 2 -23 6 0 14 -44 50 -50 42 -4 -5 -4 -39 -1 -78 3 -38
5 -83 3 -99 -3 -26 -6 -28 -35 -22 -42 8 -47 19 -47 103 0 39 -4 74 -9 77 -19
12 -207 46 -271 50 -37 1 -71 6 -77 9 -6 4 -18 1 -27 -6 -16 -12 -12 -16 33
-40 47 -26 50 -26 60 -10 10 15 10 14 6 -7 -7 -33 1 -43 57 -64 26 -10 57 -25
69 -35 21 -17 20 -18 -125 -151 -139 -127 -146 -135 -146 -172 l0 -38 563 0
562 0 20 57 c22 65 73 108 135 118 l35 6 -37 -21 c-37 -20 -38 -22 -38 -74 0
-95 -54 -86 530 -86 l519 0 6 55 c8 64 -1 81 -48 88 -59 9 -411 67 -499 83
-47 8 -98 12 -113 8 -17 -4 -30 -2 -35 5 -7 12 -83 26 -445 82 -282 44 -336
54 -335 62 0 4 0 22 0 41 0 28 4 35 23 38 12 2 38 -2 57 -9 52 -18 70 -16 70
7 0 22 -12 26 -111 35 l-66 6 -11 -43 c-6 -24 -14 -72 -17 -108 -9 -100 -27
-221 -32 -216 -3 2 3 61 12 131 10 69 15 129 12 132 -3 3 -21 8 -39 12 -28 6
-33 11 -36 39 -2 22 2 34 12 38 20 7 21 24 3 24 -21 0 -47 34 -47 59 0 12 13
35 29 51 18 19 30 43 34 69 5 40 25 71 46 71 6 0 8 7 5 15 -5 11 -24 15 -80
15 -59 0 -74 -3 -74 -15z"/>
<path d="M0 380 l0 -380 319 0 319 0 7 32 c4 18 8 67 9 110 2 43 4 79 7 81 2
2 69 60 149 128 82 70 168 135 198 148 28 14 52 28 52 32 0 14 -33 26 -87 34
-50 6 -53 6 -53 -15 0 -18 4 -21 25 -18 29 6 34 -8 6 -17 -29 -9 -50 4 -59 37
-4 16 -12 29 -17 29 -15 0 -18 -43 -4 -52 10 -6 9 -10 -5 -15 -23 -9 -38 13
-30 47 4 19 0 28 -12 33 -32 12 -48 -45 -18 -62 12 -7 13 -11 5 -16 -21 -14
-42 15 -39 53 3 35 2 36 -47 47 -63 15 -95 17 -95 5 0 -5 12 -11 28 -13 22 -2
28 -8 30 -35 3 -25 -2 -35 -22 -48 -33 -22 -52 -14 -69 27 -12 28 -12 36 0 53
16 24 17 35 2 35 -11 0 -98 -90 -99 -102 0 -8 34 -3 50 7 6 3 10 -1 10 -9 0
-9 -6 -16 -12 -17 -7 0 -26 -2 -42 -4 -49 -7 -49 5 -2 55 26 27 46 56 46 65 0
18 -35 20 -46 3 -5 -8 -9 -6 -14 7 -5 14 -39 24 -171 51 -186 39 -313 64 -316
64 -2 0 -3 -171 -3 -380z"/>
<path d="M3909 625 c-3 -2 -30 -9 -60 -14 l-54 -9 43 -1 c35 -1 42 -4 42 -21
0 -11 -4 -20 -10 -20 -5 0 -10 -4 -10 -9 0 -5 35 -12 78 -15 42 -3 107 -9 145
-12 63 -6 67 -5 67 15 0 13 -14 30 -42 47 -37 24 -47 26 -101 20 -46 -6 -63
-4 -76 8 -10 9 -20 14 -22 11z"/>
<path d="M3442 62 c-26 -55 -28 -69 -7 -52 10 9 15 9 15 1 0 -6 17 -11 40 -11
29 0 40 4 40 15 0 9 6 12 15 9 8 -4 22 -1 30 6 12 10 15 9 15 -9 0 -21 1 -21
278 -20 260 1 273 2 207 14 -102 20 -508 85 -526 85 -9 0 -33 -15 -53 -34 -37
-36 -47 -36 -21 -2 18 24 19 46 3 46 -7 -1 -23 -22 -36 -48z"/>
</g>
</svg>
