<?xml version="1.0" standalone="no"?>
<!DOCTYPE svg PUBLIC "-//W3C//DTD SVG 20010904//EN"
 "http://www.w3.org/TR/2001/REC-SVG-20010904/DTD/svg10.dtd">
<svg version="1.0" xmlns="http://www.w3.org/2000/svg"
 width="1600.000000pt" height="739.000000pt" viewBox="0 0 1600.000000 739.000000"
 preserveAspectRatio="xMidYMid meet">
<metadata>
Created by potrace 1.16, written by Peter Selinger 2001-2019
</metadata>
<g transform="translate(0.000000,739.000000) scale(0.100000,-0.100000)"
fill="#000000" stroke="none">
<path d="M0 3695 l0 -3695 2760 0 2759 0 78 30 c43 17 83 30 89 30 6 0 33 12
60 26 27 14 63 28 79 31 17 3 38 9 47 14 9 5 33 9 52 9 23 0 36 5 36 13 0 12
84 37 127 37 12 0 24 4 27 9 3 5 26 12 51 16 25 3 61 13 80 21 19 8 50 14 70
14 34 0 47 13 23 23 -7 3 6 6 30 6 25 1 41 5 37 10 -3 6 11 13 31 17 22 4 39
2 43 -4 12 -19 60 0 98 39 21 21 43 39 49 39 6 0 28 8 49 19 l39 19 -30 5
c-16 3 -69 13 -119 22 -49 9 -166 31 -260 50 -361 71 -452 86 -520 87 -71 0
-217 -10 -257 -18 -13 -2 -77 -7 -143 -10 -66 -3 -169 -14 -230 -24 -101 -17
-457 -45 -550 -43 -65 2 -199 14 -215 20 -32 12 69 28 405 63 61 6 138 18 173
26 35 8 79 14 98 14 18 0 57 9 86 20 29 11 66 20 81 20 42 0 270 59 287 75 8
7 51 16 95 20 44 4 86 12 94 18 8 7 69 13 147 14 73 2 155 8 181 13 26 6 77
15 113 21 117 20 120 21 65 31 -27 4 -63 6 -80 3 -25 -4 -362 -8 -432 -6 -27
1 -31 21 -5 21 10 0 41 11 67 25 27 13 62 27 78 31 16 3 31 14 34 23 4 14 24
19 117 28 74 7 124 17 146 29 l35 19 -58 5 -57 5 30 28 c53 50 37 65 -36 31
-42 -19 -57 -22 -85 -14 -19 6 -47 8 -64 5 -16 -3 -47 -7 -69 -9 -42 -5 -62
-16 -28 -16 25 0 34 -12 26 -34 -4 -10 -18 -16 -40 -16 -30 0 -34 -3 -34 -25
0 -17 -6 -25 -17 -25 -34 0 -82 -24 -85 -42 -2 -10 -7 -18 -13 -17 -5 0 -9 5
-7 10 8 30 5 34 -28 37 -22 2 -54 -6 -92 -24 l-58 -28 -44 22 c-24 12 -50 22
-59 22 -9 0 -36 14 -59 30 -28 20 -64 34 -103 40 -79 13 -262 13 -270 0 -3 -6
-17 -10 -30 -10 -16 0 -26 -8 -33 -27 -5 -16 -20 -39 -32 -53 l-22 -25 -55 60
-54 60 6 63 c5 52 3 62 -10 62 -11 0 -15 13 -16 58 -1 31 -3 46 -6 32 -22
-139 -28 -80 -31 295 l-3 365 40 0 c41 0 41 0 41 -39 0 -54 -11 -131 -19 -127
-3 2 -6 -6 -7 -17 -2 -70 -15 -292 -20 -348 -4 -38 -2 -74 4 -84 7 -14 11 -3
16 46 11 101 -7 94 231 90 66 -1 147 -6 180 -11 33 -5 114 -16 180 -25 66 -9
161 -23 210 -30 50 -8 155 -24 234 -35 80 -11 149 -25 155 -30 7 -5 31 -6 54
-3 l42 6 0 55 c0 30 2 53 5 50 8 -8 9 -180 1 -224 -8 -45 3 -58 41 -48 16 5
18 13 15 75 l-4 69 29 0 c37 0 46 -9 31 -27 -9 -11 -9 -17 3 -24 18 -11 42
-12 35 0 -3 5 1 14 9 21 11 9 34 9 107 -4 186 -33 268 -64 175 -67 -27 -1 116
-40 236 -64 88 -18 89 -19 55 -31 -60 -21 -182 -44 -243 -45 l-60 -1 55 -9
c118 -17 400 -8 400 13 0 5 5 6 11 3 6 -4 8 -9 5 -12 -3 -3 5 -14 17 -24 l22
-19 -22 -6 c-39 -11 -25 -32 31 -48 30 -9 61 -16 70 -16 9 0 54 -9 99 -19 112
-26 248 -49 332 -56 39 -4 90 -10 115 -15 39 -8 263 -33 400 -45 25 -2 97 -8
160 -14 96 -8 249 -14 297 -12 14 1 67 138 94 240 22 85 23 95 9 86 -16 -10
-12 15 5 31 8 9 15 23 14 32 0 13 -3 11 -11 -5 -20 -41 -36 -23 -51 55 -6 27
-4 32 13 32 11 0 20 -4 20 -10 0 -5 -4 -10 -10 -10 -5 0 -10 -4 -10 -10 0 -5
7 -10 15 -10 8 0 15 8 15 18 0 14 4 12 20 -8 11 -14 20 -21 20 -16 0 13 57
304 75 386 14 61 57 283 68 342 2 16 0 28 -4 28 -5 0 -9 -4 -9 -9 0 -4 -12
-21 -27 -37 -47 -50 -72 -92 -95 -162 -13 -37 -27 -70 -32 -73 -5 -4 -6 -14
-3 -23 3 -8 2 -18 -3 -21 -6 -4 -10 -15 -10 -25 0 -23 -20 -37 -30 -20 -5 8
-10 9 -14 2 -3 -6 -2 -13 4 -17 15 -9 13 -38 -2 -29 -10 6 -10 4 0 -7 17 -18
15 -29 -5 -29 -17 -1 -17 -2 0 -14 18 -14 18 -15 0 -25 -10 -6 -12 -11 -5 -11
14 0 17 -30 2 -30 -5 0 -10 -5 -10 -11 0 -6 7 -9 14 -6 19 8 31 -27 17 -50 -6
-10 -11 -14 -11 -9 0 5 -7 3 -15 -4 -13 -11 -15 -6 -16 36 -4 176 14 294 63
411 25 62 97 187 117 203 3 3 30 31 59 61 52 55 53 57 67 150 8 52 22 173 30
269 9 96 20 220 25 275 5 55 6 103 2 106 -8 7 -298 27 -487 35 -66 2 -167 9
-225 14 -128 12 -123 12 -115 0 3 -6 -3 -10 -15 -10 -12 0 -19 4 -16 9 7 11
-81 21 -159 19 -50 -1 -53 -2 -17 -5 l43 -4 -3 -42 -3 -42 -82 1 -83 2 -1 -42
c-1 -22 -3 -32 -6 -21 -2 11 -6 30 -9 43 -2 13 -11 21 -19 20 -7 -2 -14 2 -15
7 -1 6 -8 18 -17 27 -8 9 -13 27 -11 39 3 21 8 23 73 22 l70 -1 -65 9 c-36 4
-101 8 -145 8 -44 1 -98 5 -120 11 -33 8 -26 9 40 5 44 -3 143 -7 220 -9 l140
-5 -155 14 -155 13 190 -4 c281 -6 532 -20 879 -49 99 -8 201 -12 227 -9 53 7
51 2 64 144 3 36 13 123 21 193 15 123 15 129 -3 142 -16 13 -16 14 -1 15 20
0 31 46 32 136 1 34 4 60 7 58 4 -2 10 43 14 101 4 58 12 108 18 112 10 6 7
-87 -9 -279 -5 -52 -3 -78 3 -78 19 0 25 51 28 213 1 87 5 160 9 164 3 3 6 -3
6 -15 0 -12 4 -30 9 -40 21 -42 40 -123 44 -190 4 -68 3 -74 -19 -89 -29 -18
-32 -38 -5 -23 23 12 52 13 49 3 0 -5 2 -16 7 -26 10 -23 7 -26 -42 -29 -46
-3 -48 -18 -2 -18 16 0 29 -4 29 -10 0 -5 -12 -10 -27 -10 -27 -1 -27 -1 -9
-15 11 -8 14 -15 7 -15 -7 0 -9 -5 -6 -10 4 -6 2 -17 -5 -25 -9 -10 -7 -15 9
-20 41 -13 44 -31 9 -64 l-33 -31 28 0 c16 0 26 -4 23 -9 -10 -16 21 -20 49
-5 39 20 54 17 26 -6 -13 -12 -38 -20 -58 -20 -28 0 -34 -3 -29 -16 5 -12 2
-15 -10 -10 -8 3 -33 6 -55 6 -35 0 -39 3 -39 25 0 29 5 30 44 10 15 -8 33
-12 38 -9 15 9 -32 44 -59 44 -13 0 -21 5 -19 13 11 34 16 207 6 207 -16 0
-24 -31 -11 -40 10 -5 9 -9 -1 -13 -10 -3 -18 -36 -26 -104 -16 -139 -34 -355
-29 -359 2 -3 35 0 73 6 70 10 135 12 101 3 -9 -2 -17 -8 -17 -13 0 -4 -10
-11 -22 -15 -27 -9 390 -26 440 -18 42 7 124 -6 117 -18 -4 -5 4 -9 17 -10 15
0 18 -3 8 -6 -8 -4 -21 -12 -28 -20 -14 -14 -53 -18 -51 -5 5 28 -4 32 -65 32
-36 0 -68 -4 -71 -10 -13 -21 -473 1 -487 23 -13 20 -24 -8 -27 -66 -2 -66
-58 -591 -67 -634 -6 -32 7 -46 21 -23 10 17 156 87 221 106 62 19 250 25 348
12 177 -24 361 -89 444 -157 41 -33 56 -41 65 -32 9 9 8 15 -6 22 -34 20 -20
39 30 39 57 0 102 -28 169 -106 46 -55 67 -66 77 -40 4 11 17 13 47 9 29 -4
45 -2 50 8 7 10 12 6 21 -14 15 -32 23 -33 51 -7 15 13 25 17 32 10 5 -5 33
-10 61 -10 47 0 75 -12 75 -32 0 -4 -7 -8 -15 -8 -16 0 -36 -39 -28 -53 2 -4
16 -7 31 -6 38 1 92 -8 127 -20 28 -10 28 -11 -10 -5 -36 5 -100 8 -347 17
-75 3 -78 2 -78 -19 0 -13 5 -26 10 -29 14 -9 12 -21 -6 -39 -8 -9 -11 -16 -6
-16 5 0 7 -11 4 -25 -4 -26 -16 -32 -27 -16 -3 5 0 13 7 17 8 5 4 10 -10 15
-12 5 -22 15 -22 24 0 9 -9 15 -22 15 -21 1 -21 2 -5 11 21 12 23 33 2 25 -8
-3 -14 -2 -14 2 4 22 -3 32 -21 32 -25 0 -25 -1 0 -47 21 -40 19 -53 -5 -33
-12 10 -15 10 -15 -4 0 -19 -16 -22 -23 -3 -3 6 -4 2 -4 -10 1 -12 4 -21 7
-21 11 2 40 -15 40 -23 0 -6 -9 -5 -20 1 -19 10 -28 1 -13 -14 4 -3 7 -24 8
-45 1 -22 7 -46 13 -54 13 -16 6 -50 -9 -41 -5 3 -7 9 -4 14 3 5 -3 13 -12 19
-14 8 -16 12 -5 22 17 18 15 30 -5 22 -12 -5 -15 -2 -10 10 4 11 -1 18 -14 22
-19 6 -19 8 -5 24 21 23 20 29 -1 27 -12 -1 -17 5 -15 16 2 13 -4 18 -20 18
-17 0 -19 3 -10 12 16 16 15 28 -3 28 -8 0 -15 7 -15 15 0 8 -7 15 -16 15 -11
0 -14 6 -9 20 5 16 2 20 -15 20 -16 0 -20 5 -16 15 4 11 -3 15 -27 16 -18 1
-24 3 -14 6 9 2 17 11 17 19 0 9 -7 14 -17 12 -10 -2 -17 3 -15 10 2 11 -10
16 -29 14 -4 -1 -5 8 -2 19 5 18 3 20 -16 14 -16 -5 -21 -2 -21 10 0 11 -5 15
-14 12 -20 -8 -28 4 -14 20 9 12 9 14 -3 13 -7 -1 -25 -2 -39 0 -23 1 -23 2
-5 10 17 8 16 9 -9 9 -25 1 -27 3 -15 18 13 15 12 16 -9 11 -15 -4 -25 -2 -28
7 -3 7 -14 11 -25 8 -14 -4 -18 -1 -14 9 4 11 -3 14 -32 13 -21 -1 -46 -5 -55
-9 -9 -4 -23 -4 -29 0 -9 5 -7 9 7 15 18 6 17 8 -6 17 -20 8 -26 6 -32 -8 -7
-18 -35 -34 -40 -22 -6 14 -88 40 -109 35 -11 -3 -16 -9 -10 -12 6 -4 -19 -7
-54 -7 -36 0 -59 3 -53 8 10 6 10 8 1 8 -7 0 -13 11 -13 24 0 31 -10 56 -21
56 -5 0 -9 -23 -9 -51 0 -32 -4 -48 -10 -44 -28 17 -210 -46 -210 -72 0 -8 -5
-11 -10 -8 -6 4 -17 1 -25 -5 -8 -6 -18 -9 -23 -6 -5 3 -23 -10 -41 -28 -29
-30 -35 -46 -56 -162 -14 -71 -47 -239 -75 -374 -28 -135 -60 -294 -71 -355
-12 -60 -26 -118 -31 -128 -5 -11 -24 -62 -43 -115 -18 -54 -37 -105 -40 -114
-6 -16 -1 -18 42 -18 27 0 52 3 56 6 3 4 35 16 70 28 54 18 64 19 63 6 -1 -8
6 -14 16 -14 10 1 15 -3 12 -8 -4 -5 8 -23 25 -38 37 -34 39 -52 9 -72 -13 -9
-19 -19 -14 -27 12 -18 80 -45 166 -65 70 -16 105 -24 190 -46 19 -5 80 -16
135 -25 55 -9 125 -20 155 -25 30 -5 94 -14 143 -21 48 -7 87 -16 87 -20 0 -5
6 -6 13 -3 7 2 53 0 103 -6 49 -6 157 -17 239 -25 83 -8 177 -18 210 -23 79
-11 387 -7 448 6 55 11 101 48 94 74 -4 13 4 20 31 27 19 6 48 22 63 37 26 25
36 28 126 31 152 6 277 2 284 -9 4 -6 15 -8 25 -5 11 3 62 -2 114 -13 52 -10
86 -19 75 -19 -11 -1 -60 -4 -110 -7 -90 -6 -115 -15 -115 -39 0 -23 -68 -56
-133 -65 -36 -5 -85 -19 -111 -30 -26 -11 -60 -20 -76 -20 -15 0 -44 -7 -63
-15 -20 -8 -52 -15 -72 -15 -19 0 -35 -4 -35 -9 0 -5 -26 -13 -57 -18 l-58 -8
85 -28 c54 -17 105 -27 140 -26 30 1 96 -8 145 -20 50 -12 135 -28 190 -36 55
-8 168 -28 250 -45 83 -17 195 -37 250 -44 55 -8 144 -23 197 -35 92 -20 121
-21 515 -19 l418 3 -190 28 c-104 16 -218 37 -252 48 -34 10 -76 19 -93 19
-17 0 -87 11 -156 25 -69 14 -138 25 -152 26 -15 0 -36 5 -47 10 -15 7 -11 8
17 4 76 -12 88 0 142 138 17 42 15 41 121 11 28 -8 93 -21 145 -29 199 -30
296 -48 325 -60 17 -7 49 -16 73 -20 24 -4 41 -9 38 -12 -2 -3 -60 -7 -128 -9
-68 -3 -172 -8 -232 -12 -60 -4 -135 -5 -165 -1 -53 6 -70 4 -60 -5 6 -6 239
-55 334 -71 144 -23 390 -76 400 -86 5 -5 618 -9 1547 -9 l1538 0 0 39 0 38
-57 11 c-67 13 -45 10 -678 106 -269 41 -518 80 -551 86 -34 5 -73 10 -87 10
-20 0 -26 6 -31 35 -4 20 -5 39 -2 44 3 5 27 12 53 17 27 4 40 9 31 11 -10 3
-18 8 -18 11 0 11 142 -3 375 -38 365 -53 929 -141 948 -146 16 -5 17 18 15
428 l-3 433 -55 7 c-30 4 -154 19 -275 33 -121 14 -265 32 -320 40 -55 8 -145
19 -200 25 -171 17 -182 20 -193 44 -7 15 -7 28 0 40 7 12 7 21 -1 29 -21 21
-12 37 22 38 21 1 25 3 12 6 -11 3 -25 13 -31 22 -7 9 -16 13 -19 9 -4 -4 -17
-1 -29 7 -11 8 -41 15 -67 15 -25 0 -61 5 -79 12 -25 8 -35 8 -38 0 -2 -7 -11
-8 -25 -2 -12 5 -65 14 -117 20 -52 6 -124 16 -160 21 -36 5 -76 11 -90 13
-14 2 -39 -2 -56 -9 -25 -10 -34 -10 -49 1 -10 8 -28 15 -39 16 -12 1 69 5
179 8 110 3 236 1 280 -3 44 -4 107 -10 140 -12 33 -3 107 -11 165 -19 58 -9
111 -15 119 -16 7 0 11 -6 8 -15 -4 -8 -2 -17 3 -20 19 -12 10 -25 -16 -25
-14 0 -32 -7 -40 -15 -13 -12 -10 -15 18 -19 93 -14 139 -19 200 -21 36 -2 70
-5 75 -8 4 -2 43 -8 86 -12 78 -7 79 -7 75 17 -3 22 -7 23 -83 23 -59 0 -89 5
-115 19 -55 29 -63 48 -28 67 52 28 157 11 205 -33 17 -16 30 -19 56 -14 30 6
37 3 52 -20 19 -29 17 -33 -40 -59 -23 -11 -26 -14 -10 -15 35 0 419 -40 453
-46 30 -6 32 -4 32 21 0 26 -2 27 -39 22 -27 -3 -41 -1 -45 8 -6 17 52 29 70
14 11 -9 14 -8 14 3 0 11 -16 17 -61 21 -34 3 -66 11 -73 17 -8 9 7 10 62 4
l72 -7 0 100 0 100 -117 12 c-226 23 -318 28 -325 17 -5 -7 -12 -5 -20 5 -7 9
-20 19 -28 23 -22 8 151 -3 330 -23 l155 -16 3 1659 c1 913 -1 1662 -4 1665
-3 3 -245 5 -537 3 -528 -2 -532 -2 -579 20 -27 12 -46 23 -44 26 19 18 184
18 476 1 365 -21 536 -24 545 -9 3 6 15 10 26 10 22 0 24 9 8 43 -12 27 -58
57 -103 68 l-31 7 28 1 c26 1 24 4 -40 65 -214 202 -376 311 -603 406 -105 44
-163 63 -305 105 -75 22 -248 56 -334 65 -595 65 -751 73 -1386 74 -394 0
-582 -3 -610 -11 -22 -6 -66 -14 -98 -18 -66 -7 -85 -27 -94 -95 l-6 -40 89
-2 89 -2 -93 -5 c-102 -7 -105 -9 -118 -75 l-7 -41 -7 40 c-4 22 -8 35 -9 28
0 -7 -15 -10 -40 -7 -38 5 -39 4 -43 -31 -2 -19 0 -35 4 -35 4 0 8 -7 8 -15 0
-8 3 -15 8 -15 10 0 34 39 28 48 -2 4 3 13 11 21 13 12 14 11 8 -8 -4 -14 -2
-21 7 -21 9 0 10 -2 2 -8 -7 -4 -14 -16 -16 -27 -4 -21 -6 -22 -52 -11 -23 6
-27 4 -23 -8 4 -9 2 -16 -4 -16 -5 0 -12 7 -15 15 -5 13 -11 12 -36 -6 l-30
-22 4 24 c2 16 10 24 23 25 44 2 47 4 42 23 -3 14 -1 18 9 14 8 -3 14 1 14 11
0 23 -30 20 -57 -6 -21 -19 -23 -20 -17 -4 5 14 3 17 -7 14 -8 -3 -15 -11 -15
-19 -3 -32 -5 -33 -14 -19 -8 12 -10 8 -11 -15 -1 -17 -3 -22 -6 -12 -2 9 -11
17 -19 17 -15 0 -17 12 -8 48 7 25 34 30 34 6 0 -9 5 -12 12 -8 8 5 4 14 -13
28 -14 12 -25 35 -26 51 -1 17 1 25 5 19 8 -12 59 4 60 19 1 17 12 20 12 4 0
-10 7 -17 15 -17 8 0 15 7 15 15 0 8 -4 15 -10 15 -5 0 -10 7 -10 15 0 8 -9
15 -21 15 -17 0 -20 5 -17 37 2 30 9 41 31 51 18 9 27 21 27 38 0 13 -4 24
-10 24 -5 0 -10 5 -10 10 0 6 7 10 15 10 9 0 15 -9 15 -22 0 -19 2 -20 10 -8
5 8 10 10 10 5 0 -21 36 -13 46 10 13 27 2 45 -29 45 -13 0 -17 -5 -13 -15 8
-22 -3 -18 -25 8 -10 12 -18 17 -19 11 0 -7 -8 -11 -17 -10 -10 0 -17 -5 -15
-11 1 -8 -9 -13 -24 -13 l-27 0 27 21 c22 17 25 24 14 31 -10 7 -10 11 0 15 6
2 12 9 12 15 0 6 -8 4 -18 -5 -24 -22 -31 -21 -25 2 5 18 -24 35 -54 32 -13
-2 -11 14 9 70 7 19 18 34 24 32 19 -6 38 25 25 41 -6 7 -8 27 -5 45 7 34 -10
43 -30 15 -8 -10 -22 -14 -37 -12 -23 4 -23 5 -4 13 24 9 54 45 55 63 0 18
-85 16 -104 -4 -17 -17 -21 -34 -8 -34 4 0 13 5 20 12 6 6 15 9 18 5 4 -4 0
-9 -9 -13 -14 -5 -14 -9 -1 -41 12 -27 12 -34 2 -31 -7 3 -15 13 -17 24 -2 10
-11 24 -20 31 -22 16 -38 -1 -21 -22 12 -14 11 -18 -1 -26 -8 -5 -19 -9 -26
-9 -19 0 -25 17 -8 24 8 3 15 10 15 16 0 17 -22 11 -41 -11 -14 -16 -25 -20
-45 -15 -15 4 -32 2 -40 -5 -8 -7 -17 -9 -21 -6 -3 4 -12 2 -19 -4 -14 -11
-49 2 -49 18 0 4 -3 7 -7 5 -5 -1 -8 2 -8 7 0 18 57 50 86 48 25 -2 29 1 27
21 -2 16 2 22 17 22 11 0 20 6 20 13 0 14 57 77 70 77 15 0 29 57 17 69 -8 8
-5 11 11 11 26 0 28 12 5 47 l-17 26 -6 -23 c-3 -13 -14 -28 -25 -34 -11 -6
-23 -15 -27 -21 -11 -15 -20 1 -24 38 -2 23 3 41 16 55 12 12 16 23 10 27 -6
3 -10 13 -10 22 0 13 3 13 15 3 8 -7 15 -19 15 -26 0 -8 6 -14 14 -14 8 0 16
-4 18 -9 2 -5 19 -11 38 -13 44 -4 50 18 15 56 -33 36 -32 50 3 41 43 -12 55
-11 59 3 3 8 -4 16 -16 19 -12 3 -21 11 -21 19 0 7 6 11 14 8 8 -3 19 3 26 15
9 17 15 19 30 11 25 -14 30 -13 24 5 -4 8 -1 15 5 15 6 0 11 -4 11 -10 0 -23
29 -7 73 41 45 49 56 78 26 70 -8 -2 -20 -4 -26 -4 -7 0 -13 -6 -13 -12 0 -13
-59 -29 -69 -19 -3 3 2 10 12 15 9 6 17 21 17 34 0 29 -3 30 -36 9 -13 -9 -28
-14 -32 -10 -4 4 1 12 11 17 21 12 22 48 2 56 -9 3 -24 -2 -34 -11 -10 -9 -25
-14 -32 -11 -11 4 -15 -3 -17 -23 -2 -23 4 -32 25 -42 19 -8 23 -14 14 -18 -7
-2 -17 1 -21 8 -4 7 -17 10 -29 7 -22 -5 -29 7 -11 18 7 5 8 11 1 19 -6 7 -6
17 -1 26 6 9 5 17 -3 22 -9 6 -9 8 1 8 6 0 12 5 12 10 0 6 -7 10 -16 10 -14 0
-14 1 0 16 9 8 14 20 11 25 -4 5 1 9 11 9 14 0 14 -2 3 -16 -11 -14 -10 -18 6
-30 11 -8 26 -12 33 -9 8 3 18 5 24 5 6 0 7 7 4 15 -3 9 -1 24 6 34 6 10 8 26
5 35 -5 12 -12 14 -32 6 -14 -5 -25 -6 -26 -2 -1 4 -2 16 -3 27 -1 21 -46 36
-46 16 0 -6 -7 -11 -15 -11 -16 0 -17 -33 -2 -57 5 -9 3 -13 -7 -13 -9 0 -16
5 -16 10 0 14 -26 13 -50 -2 -17 -11 -22 -10 -30 2 -8 12 -16 9 -44 -22 -26
-28 -30 -38 -19 -42 8 -4 19 -4 24 -1 5 4 6 -1 3 -10 -4 -9 -13 -14 -20 -11
-7 3 -16 1 -19 -4 -4 -6 1 -10 11 -10 14 0 14 -2 3 -16 -12 -15 -14 -13 -22
10 -5 15 -16 26 -26 26 -14 0 -17 6 -13 30 3 18 0 30 -7 30 -6 0 -11 -13 -11
-30 0 -17 -7 -33 -17 -39 -10 -5 -15 -13 -11 -17 10 -9 -10 -44 -25 -44 -8 0
-9 3 -1 8 6 4 10 24 9 45 -1 26 3 41 15 47 19 10 28 110 10 110 -6 0 -13 -7
-16 -15 -4 -8 -11 -15 -17 -15 -7 0 -7 4 1 12 7 7 12 23 12 38 0 18 -3 21 -9
11 -5 -8 -14 -10 -22 -6 -9 6 -11 4 -6 -8 3 -9 -4 -35 -16 -58 -21 -41 -22
-41 -25 -15 l-3 27 -20 -25 c-14 -17 -17 -33 -13 -55 5 -23 3 -31 -5 -29 -7 2
-20 -7 -28 -20 -15 -21 -15 -22 3 -15 18 7 19 6 0 -21 -10 -16 -14 -26 -8 -22
5 3 13 -1 16 -10 9 -24 7 -54 -4 -54 -5 0 -12 -11 -16 -25 -3 -14 -10 -25 -14
-25 -4 0 -11 11 -14 25 -4 14 -10 25 -14 25 -12 0 -29 -33 -36 -70 -3 -19 -3
-29 0 -22 8 17 41 15 48 -3 3 -8 12 -15 20 -15 8 0 17 -4 20 -9 7 -10 -35 -8
-52 3 -17 10 -15 0 3 -18 11 -11 13 -21 6 -33 -5 -10 -14 -31 -20 -46 -8 -19
-16 -27 -26 -23 -8 3 -15 0 -15 -6 0 -6 -8 -17 -17 -24 -17 -13 -17 -13 0 -14
9 0 17 -7 17 -15 0 -7 6 -18 13 -22 17 -10 31 -63 17 -63 -5 0 -10 6 -10 12 0
20 -28 -26 -36 -58 -3 -16 -16 -38 -28 -49 -11 -11 -21 -29 -21 -40 0 -31 -39
-32 -53 0 -6 14 -16 26 -22 26 -5 1 -15 2 -20 3 -17 2 -38 52 -29 67 4 8 3 19
-3 26 -13 16 4 17 20 1 17 -17 28 0 14 22 -8 13 -8 21 -1 26 6 3 9 15 6 25 -3
11 1 26 9 33 16 17 18 36 4 36 -5 0 -10 11 -10 25 0 30 -20 33 -27 5 -3 -11
-14 -20 -24 -20 -12 0 -19 -7 -19 -19 0 -22 -18 -38 -42 -38 -14 0 -15 3 -7
14 6 7 12 33 12 58 0 34 4 44 14 41 8 -4 13 3 13 18 0 13 7 29 15 36 17 14 20
50 4 50 -5 0 -7 5 -3 11 3 6 0 15 -7 20 -15 9 -16 8 25 29 16 8 31 21 34 28 6
18 -35 15 -42 -4 -4 -9 -9 -14 -13 -11 -3 4 7 25 22 47 26 38 28 67 3 42 -17
-17 -26 -15 -31 6 -4 16 -5 16 -6 0 0 -10 -6 -18 -12 -18 -6 0 -9 -9 -6 -20 3
-13 0 -20 -9 -20 -8 0 -19 -9 -26 -20 -7 -11 -18 -20 -25 -20 -7 0 -13 -5 -13
-12 0 -6 -10 -22 -22 -35 -17 -19 -20 -26 -9 -32 17 -11 11 -39 -16 -69 -13
-14 -23 -34 -23 -44 0 -16 -5 -19 -29 -13 -16 3 -32 2 -35 -3 -8 -13 40 -25
65 -17 11 4 19 2 19 -5 0 -6 4 -8 10 -5 6 3 7 -1 4 -10 -5 -11 -14 -15 -27
-11 -30 7 -56 -31 -57 -81 0 -24 5 -43 10 -43 17 0 11 -17 -7 -25 -12 -4 -24
1 -35 15 -18 22 -38 19 -38 -6 0 -8 8 -14 18 -14 10 0 24 -9 31 -19 8 -11 21
-17 29 -13 10 3 13 0 10 -9 -3 -8 -15 -13 -28 -11 -15 3 -21 -1 -18 -10 3 -7
-2 -18 -11 -25 -15 -11 -14 -12 1 -13 9 0 23 6 30 14 12 12 17 10 36 -9 13
-13 20 -31 17 -43 -2 -12 0 -24 6 -27 17 -11 10 -47 -11 -52 -15 -4 -19 -11
-14 -25 11 -35 -6 -148 -22 -148 -20 0 -18 -27 3 -39 10 -5 14 -13 10 -18 -10
-10 -28 19 -43 70 -10 30 -9 37 2 37 8 0 14 9 14 20 0 11 5 20 10 20 13 0 13
20 0 40 -7 12 -12 12 -22 2 -17 -17 -26 -15 -31 6 -3 9 -4 -9 -3 -40 1 -32 5
-61 9 -64 4 -4 7 -13 7 -20 0 -7 13 -41 30 -76 42 -92 49 -114 56 -166 3 -26
9 -51 13 -57 14 -18 34 -104 27 -120 -3 -9 -2 -13 4 -10 14 9 24 -66 12 -97
-8 -22 -7 -28 4 -28 7 0 16 -12 20 -27 3 -16 8 -36 11 -46 2 -10 -1 -24 -7
-32 -9 -11 -9 -15 -1 -15 6 0 11 -9 11 -20 0 -11 6 -20 14 -20 7 0 16 -9 19
-20 6 -24 -8 -27 -17 -3 -6 15 -9 15 -16 3 -19 -31 -101 -10 -99 25 0 6 3 4 6
-2 2 -7 11 -13 20 -13 27 0 40 25 40 78 0 44 -3 52 -18 52 -12 0 -16 -5 -13
-15 7 -17 -11 -21 -21 -5 -11 18 -35 10 -45 -14 -12 -34 -29 -41 -48 -22 -15
15 -15 16 6 16 12 0 22 6 22 13 0 12 -75 15 -87 3 -4 -3 -1 -6 5 -6 7 0 12 -7
12 -15 0 -8 5 -14 12 -13 6 2 13 -4 15 -14 4 -15 -30 -35 -49 -30 -5 1 -8 -5
-8 -13 0 -8 15 -18 33 -23 35 -10 54 -5 39 10 -7 7 -5 17 6 29 20 24 31 24 27
2 -1 -10 -8 -17 -14 -15 -6 1 -11 -3 -11 -9 0 -7 11 -9 30 -5 17 3 30 1 30 -4
0 -6 -14 -10 -31 -10 -22 0 -32 -5 -36 -20 -3 -11 -10 -20 -15 -20 -5 0 -6
-10 -3 -21 5 -15 4 -19 -4 -15 -6 4 -11 3 -11 -3 0 -7 -8 -7 -25 1 -27 12 -36
42 -10 32 8 -4 15 -4 15 -1 0 17 -24 55 -42 66 -19 12 -20 10 -16 -64 l3 -77
-27 4 c-22 4 -28 1 -28 -14 0 -10 -4 -18 -10 -18 -16 0 -12 16 10 41 17 21 21
22 30 9 6 -9 10 -10 10 -3 0 6 -7 19 -16 27 -14 15 -14 16 0 16 22 0 22 75 0
84 -8 3 -12 11 -8 17 4 8 3 9 -4 5 -6 -4 -19 2 -29 14 -10 11 -21 20 -26 20
-4 0 -7 -43 -6 -96 1 -62 -2 -99 -10 -103 -8 -5 -11 -105 -10 -349 1 -320 2
-342 20 -358 24 -22 24 -34 0 -34 -16 0 -19 -7 -18 -43 0 -23 -6 -53 -13 -67
-14 -25 -16 -31 -19 -51 0 -6 -8 -9 -16 -5 -9 3 -15 0 -15 -9 0 -10 -11 -15
-32 -15 -18 0 -136 -5 -263 -10 -126 -5 -259 -10 -295 -12 -47 -2 -64 1 -62
10 1 7 -7 12 -18 12 -11 0 -20 5 -20 10 0 23 -54 90 -72 90 -15 0 -18 5 -14
23 3 12 3 16 0 9 -8 -17 -27 -15 -21 2 7 19 -14 66 -30 66 -7 0 -10 7 -6 16 4
10 -1 17 -15 21 -12 3 -30 20 -41 39 -11 19 -25 34 -30 34 -6 0 -8 7 -5 15 4
10 0 15 -11 15 -11 0 -15 5 -11 15 5 15 -7 19 -51 16 -11 -1 -24 2 -27 8 -4 6
5 9 21 8 30 -2 40 17 23 43 -8 12 -16 8 -45 -24 -19 -22 -35 -48 -35 -58 0
-10 -7 -21 -15 -24 -8 -4 -12 -11 -8 -17 4 -6 -4 -7 -23 -3 -45 11 -50 24 -13
34 l34 10 -31 1 c-32 1 -45 15 -37 39 7 17 33 15 33 -4 0 -8 5 -12 10 -9 5 3
10 14 10 25 0 22 -49 37 -61 18 -10 -16 -16 -10 -21 22 -3 21 2 25 34 33 33 8
36 11 25 27 -6 11 -8 22 -4 26 10 11 39 -17 33 -33 -7 -16 6 -17 23 0 11 10
13 9 9 -3 -3 -9 -21 -17 -43 -20 -21 -3 -40 -10 -42 -16 -5 -16 103 -25 134
-11 25 11 25 14 20 79 -8 96 -40 141 -128 177 l-65 28 -35 -30 c-19 -16 -24
-24 -12 -18 12 6 25 16 28 21 3 6 13 10 22 10 14 0 13 -4 -5 -23 -12 -13 -22
-34 -22 -48 0 -18 -2 -21 -9 -9 -6 8 -7 18 -4 23 3 5 -4 4 -16 -2 -15 -8 -21
-9 -21 -1 0 6 -5 8 -11 5 -6 -4 -10 -1 -8 6 5 39 0 41 -58 34 -31 -4 -62 -9
-70 -12 -7 -3 -29 11 -48 32 -23 23 -41 35 -51 31 -18 -7 -9 -26 12 -26 18 0
18 -19 -1 -44 -20 -26 -20 -145 -1 -172 23 -30 26 -14 18 75 -6 64 -6 79 3 67
7 -9 15 -13 18 -9 4 3 7 2 7 -4 0 -16 49 -3 52 14 3 17 58 28 58 12 0 -5 -11
-9 -25 -9 -25 0 -25 -1 -9 -25 9 -14 17 -42 18 -63 1 -30 5 -37 26 -43 25 -7
25 -7 -4 -8 -21 -1 -27 -5 -22 -16 3 -8 1 -15 -4 -15 -6 0 -10 -7 -10 -15 0
-8 5 -15 10 -15 6 0 10 -9 10 -20 0 -11 9 -25 20 -32 23 -15 27 -33 5 -24 -17
6 -21 -29 -6 -53 9 -14 -15 -60 -31 -61 -5 0 -8 27 -8 60 0 49 -3 58 -15 54
-18 -7 -20 -31 -3 -37 10 -3 9 -9 -4 -23 -28 -32 0 -72 92 -132 87 -57 92 -59
84 -37 -4 9 0 15 9 15 12 0 14 -9 10 -42 -2 -24 -6 -49 -9 -55 -6 -20 -35 -15
-41 7 -8 31 -42 25 -49 -9 -5 -21 -11 -27 -24 -24 -10 3 -21 -1 -26 -8 -5 -9
-2 -10 10 -6 28 11 40 -3 19 -23 -13 -12 -29 -16 -52 -12 l-33 5 16 -25 c9
-14 13 -28 9 -31 -3 -4 1 -7 10 -7 9 0 19 5 22 10 3 6 1 10 -4 10 -19 0 -12
18 10 23 15 4 19 2 15 -8 -5 -15 21 -42 31 -31 3 3 1 6 -5 6 -7 0 -12 5 -12
11 0 5 5 7 10 4 6 -3 10 -2 10 2 0 5 9 14 21 21 19 12 19 11 9 -8 -12 -23 -8
-25 22 -9 26 14 33 6 17 -22 -27 -50 -46 -62 -99 -60 -49 1 -50 1 -50 -29 0
-34 -13 -37 -63 -17 -26 11 -69 14 -97 7 -16 -3 68 -30 97 -30 23 0 32 -4 27
-11 -5 -9 -36 -10 -108 -4 -56 4 -141 9 -191 11 -67 2 -92 7 -101 18 -8 11
-28 16 -63 16 -38 0 -51 4 -48 13 3 8 21 11 59 9 l56 -4 40 81 c39 76 70 186
58 198 -3 4 -6 -5 -7 -18 l-1 -24 -8 25 c-4 14 -8 49 -9 78 -1 48 -3 52 -25
52 -24 0 -24 -2 -31 -114 -4 -63 -6 -130 -3 -148 l3 -33 -275 0 c-151 0 -323
4 -382 9 -97 8 -108 7 -108 -8 0 -13 12 -16 73 -17 39 -1 194 -5 342 -9 l270
-8 -342 3 c-193 2 -343 0 -343 -5 0 -5 19 -10 42 -12 l43 -3 -3 -67 -4 -68 66
0 c46 0 67 -4 73 -14 5 -8 19 -20 33 -26 19 -8 3 -9 -73 -7 -67 3 -100 1 -102
-7 -2 -6 -6 -45 -9 -87 l-7 -76 47 -12 c25 -7 45 -13 43 -15 -5 -3 -488 20
-654 31 l-110 8 2 35 c1 19 4 73 8 120 17 242 12 230 100 230 48 0 65 4 65 14
0 14 -49 26 -109 26 -27 0 -32 3 -26 18 12 30 13 46 4 70 -8 20 -11 21 -23 10
-7 -8 -17 -24 -20 -36 -6 -17 -15 -22 -39 -22 -29 0 -77 19 -52 20 6 1 -4 7
-20 14 -49 21 -410 19 -378 -3 5 -3 8 -25 5 -48 l-4 -43 -67 -2 -66 -2 70 -6
70 -6 -67 -2 c-99 -3 -85 -22 16 -22 51 0 86 -4 88 -11 4 -11 131 -15 148 -4
6 3 7 -1 4 -9 -4 -10 -1 -16 9 -16 29 0 50 -49 44 -102 -6 -47 -5 -49 22 -54
30 -6 33 -12 62 -131 11 -44 10 -66 -5 -150 -9 -54 -20 -108 -23 -120 -5 -22
-2 -23 57 -23 61 0 62 0 56 -25 -5 -18 -2 -25 9 -25 8 0 15 9 15 20 0 19 6 20
98 19 117 -2 264 -15 191 -17 l-46 -2 -6 -112 c-4 -62 -7 -144 -7 -181 l0 -69
-127 4 c-71 2 -131 8 -135 13 -4 6 -14 0 -24 -14 -17 -23 -18 -23 -31 -5 -7
10 -19 19 -26 20 -7 0 -27 2 -44 2 -22 1 -33 7 -33 17 0 8 4 15 8 15 4 0 9 17
10 38 2 21 7 63 13 93 14 79 23 165 15 157 -4 -3 -18 -62 -31 -130 -30 -150
-30 -155 -46 -247 -14 -82 -22 -90 -80 -74 -21 5 -36 6 -33 2 3 -5 -10 -9 -28
-8 -26 0 -29 2 -13 8 30 12 -32 21 -124 19 l-76 -2 80 -7 c59 -5 48 -5 -45 -2
-201 6 -300 15 -293 26 3 6 -6 8 -26 5 -17 -2 -31 -1 -31 4 0 4 28 8 63 7 47
-1 56 -3 37 -9 -15 -5 7 -6 55 -3 44 2 150 0 235 -5 85 -5 156 -8 158 -7 8 7
18 115 10 115 -32 0 -670 42 -780 51 l-138 12 -1 166 c-1 207 0 234 14 243 18
11 112 2 111 -10 -2 -28 -5 -32 -19 -32 -8 0 -15 -4 -15 -9 0 -4 43 -11 96
-15 91 -7 96 -6 115 15 17 20 24 16 20 -13 -1 -11 74 -17 273 -21 114 -2 182
0 172 5 -9 5 -21 6 -26 3 -6 -3 -10 -1 -10 4 0 6 4 11 9 11 15 0 45 54 33 58
-7 2 -12 9 -12 15 1 7 9 2 19 -10 18 -22 19 -22 24 -3 5 20 -6 25 -46 22 -11
-1 -17 3 -15 10 3 8 21 11 54 9 27 -2 57 -4 67 -5 27 -1 20 -14 -9 -18 -24 -3
-26 -7 -28 -54 l-1 -51 57 -13 c63 -14 208 -19 208 -8 0 5 -7 8 -15 8 -21 0
-19 16 4 39 13 13 16 21 8 24 -8 2 -6 9 6 21 22 23 22 29 -1 17 -13 -7 -19 -6
-19 2 -1 13 -32 130 -36 133 -1 1 -15 4 -31 6 -28 3 -31 0 -45 -44 -14 -48
-15 -48 -58 -48 -46 0 -47 1 -43 68 l2 32 -101 0 c-89 0 -101 -2 -103 -17 0
-10 -2 -22 -3 -28 -2 -5 -3 -25 -4 -42 l-1 -33 -75 0 -74 0 -3 62 c-3 59 -4
63 -28 63 -33 0 -40 -11 -40 -68 l0 -48 -77 3 -78 3 -3 53 c-2 31 -8 52 -15
53 -7 0 -62 0 -124 0 -87 0 -114 3 -124 15 -9 11 -10 48 -5 146 7 138 1 171
-10 52 -6 -75 -28 -192 -38 -201 -3 -4 -32 -5 -63 -4 -113 4 -421 20 -626 32
-114 7 -210 10 -212 7 -3 -3 -8 -29 -12 -57 l-6 -52 -71 3 -71 3 2 53 c1 28
-2 52 -7 52 -6 0 -10 -22 -10 -50 l0 -50 -75 0 -75 0 0 54 0 54 -152 6 c-84 3
-227 8 -318 10 -91 3 -256 11 -367 17 -112 7 -206 9 -210 5 -4 -4 -10 -28 -13
-54 -3 -26 -8 -46 -13 -46 -4 1 -70 5 -147 9 -95 5 -140 11 -140 18 0 7 5 66
11 132 6 66 10 137 10 158 -1 25 4 40 14 43 8 4 15 11 15 16 0 6 -6 8 -14 5
-8 -3 -19 0 -25 7 -9 10 -7 15 9 19 11 3 20 0 20 -6 0 -6 3 -7 7 -3 5 4 -5 19
-22 33 l-30 25 32 -4 c33 -5 43 8 43 59 0 12 8 24 18 26 13 4 11 5 -5 6 -17 1
-23 -5 -23 -21 0 -28 -10 -42 -30 -46 -13 -2 -12 0 1 10 18 14 30 76 17 84 -4
3 -8 -1 -8 -8 0 -10 -2 -10 -9 0 -11 19 -24 17 -32 -5 -4 -13 0 -20 15 -25 21
-6 21 -6 -1 -7 -23 -1 -32 -16 -13 -23 6 -2 2 -8 -9 -15 -17 -11 -19 -9 -16
23 3 29 0 34 -18 34 -12 0 -69 4 -127 10 -144 13 -263 16 -279 5 -10 -5 -12
-4 -7 3 4 7 2 12 -3 12 -8 0 -8 6 -2 18 14 24 31 204 31 317 0 76 3 96 16 103
14 8 12 10 -10 14 -15 3 -30 0 -37 -8 -19 -23 -42 -4 -36 30 5 28 5 29 -5 9
-6 -13 -14 -23 -19 -23 -4 0 -10 -30 -13 -67 -20 -229 -19 -287 3 -210 9 31 9
31 10 5 1 -15 -4 -39 -11 -55 -6 -15 -17 -55 -22 -88 -11 -58 -12 -60 -43 -63
-35 -3 -43 -16 -18 -26 9 -3 15 -19 16 -38 l1 -33 7 30 c5 19 8 -12 9 -80 1
-60 7 -125 13 -143 13 -41 2 -442 -12 -442 -5 0 -9 -14 -9 -31 0 -26 -3 -30
-20 -26 -17 4 -20 -2 -26 -55 -4 -36 -12 -62 -21 -65 -14 -5 -333 14 -368 23
-18 5 -20 15 -23 127 -2 67 -5 123 -6 124 -2 2 -11 -41 -21 -94 -10 -54 -24
-106 -33 -115 -9 -11 -12 -26 -8 -43 4 -14 3 -31 -1 -38 -4 -6 -8 -21 -9 -34
-2 -17 2 -23 17 -23 10 0 18 -6 16 -12 -1 -9 16 -14 56 -16 41 -2 57 0 52 8
-5 8 14 9 67 5 40 -4 111 -10 157 -13 57 -5 86 -11 89 -21 3 -10 -2 -11 -19
-6 -22 7 -23 7 -9 -10 14 -17 13 -18 -25 -11 -55 11 -65 19 -30 27 23 5 18 7
-26 8 -30 0 -59 -3 -65 -8 -5 -6 -32 -6 -64 -2 l-55 9 60 2 c41 2 49 5 25 7
-19 2 -74 0 -122 -5 -49 -4 -88 -4 -88 0 0 4 -6 8 -14 8 -8 0 -16 5 -18 12 -3
7 -9 8 -19 2 -16 -10 -38 -12 -171 -14 l-97 -1 -3 -27 c-3 -27 -4 -27 -68 -24
-36 2 -69 7 -73 12 -4 4 -5 19 -1 34 4 19 13 26 33 27 23 2 24 2 4 6 -13 2
-23 11 -23 20 0 16 10 16 261 -3 l77 -6 7 33 c8 39 23 61 36 53 5 -3 9 2 9 10
0 18 -16 21 -26 5 -4 -7 -24 -9 -53 -5 -25 2 -104 8 -175 12 l-128 7 6 41 c25
171 41 239 59 244 16 4 18 12 13 56 l-5 51 11 -50 c6 -27 11 -51 13 -52 1 -2
71 -5 157 -9 l155 -5 7 32 c9 49 9 49 -45 49 l-50 0 6 55 c7 53 6 55 -16 55
-50 0 -101 -13 -87 -21 8 -6 2 -9 -19 -9 -20 0 -32 5 -30 12 1 7 -19 15 -51
21 -42 7 -52 12 -48 25 3 9 12 71 21 136 9 66 18 124 21 128 3 4 25 8 50 8 50
0 88 16 121 52 20 21 23 41 33 181 11 153 11 160 -10 202 -15 31 -34 51 -63
67 -31 17 -43 30 -45 51 -3 26 -10 30 -65 39 -10 2 -18 7 -17 12 0 5 25 8 55
7 45 -2 54 0 49 12 -3 8 0 18 6 22 8 5 8 11 -1 21 -19 23 -4 41 35 39 20 -1
36 2 36 6 0 10 -71 12 -95 3 -13 -5 -14 -8 -3 -15 10 -7 8 -13 -10 -31 l-22
-22 0 36 c0 28 -3 36 -14 32 -8 -3 -16 -15 -18 -27 -3 -23 -15 -25 -72 -11
-21 5 -27 4 -22 -5 4 -6 1 -11 -8 -11 -9 0 -16 -4 -16 -10 0 -5 5 -10 10 -10
6 0 10 -4 10 -10 0 -13 -92 -12 -150 1 -25 6 -55 11 -67 12 -49 4 -29 16 58
32 51 9 107 14 126 10 19 -3 33 -2 33 4 0 22 -117 27 -150 6 -7 -4 -25 -9 -39
-10 -14 -1 -50 -6 -79 -10 -47 -6 -55 -5 -67 13 -12 16 -22 18 -67 14 -29 -3
-56 -9 -59 -14 -3 -5 -28 -8 -55 -6 -45 3 -49 5 -49 29 0 35 -21 58 -46 52
-12 -3 -24 -2 -28 4 -3 5 -22 14 -41 20 -29 8 -32 11 -16 18 10 4 90 -2 182
-15 91 -12 175 -20 187 -16 12 3 42 22 65 41 46 40 58 86 25 100 -15 6 -315
55 -438 71 -32 5 -46 13 -68 45 -66 91 -129 115 -361 134 -94 7 -277 23 -406
35 -201 19 -247 20 -317 10 -45 -7 -86 -9 -91 -6 -6 3 -19 22 -31 41 -25 42
-25 42 105 19 202 -35 158 -36 611 1 101 8 211 15 245 15 37 0 185 -25 358
-60 162 -33 374 -76 470 -95 239 -48 403 -82 480 -101 94 -23 220 -28 430 -15
102 6 253 14 337 17 83 4 157 10 164 15 13 8 38 224 39 336 0 28 5 55 11 59 6
4 32 8 57 10 25 1 48 7 51 12 3 5 16 12 29 16 12 4 22 12 22 18 0 5 -6 8 -14
5 -10 -4 -16 2 -19 16 l-4 22 -2 -22 c0 -13 -5 -23 -10 -23 -12 0 -5 100 9
114 13 13 13 52 -1 77 -6 12 -8 28 -4 37 5 14 9 13 20 -8 8 -14 14 -19 15 -12
0 20 16 14 17 -8 1 -11 -4 -20 -12 -20 -8 0 -13 -8 -12 -19 1 -16 7 -18 42
-14 41 6 86 33 53 33 -26 0 -41 71 -18 85 5 3 10 0 10 -7 0 -9 3 -9 10 2 9 13
11 13 19 1 5 -8 7 -21 3 -29 -3 -10 -1 -13 5 -9 13 8 43 -18 43 -38 0 -17 27
-27 36 -13 6 10 42 -26 65 -66 10 -16 9 -18 -9 -14 -15 4 -18 1 -15 -13 3 -11
14 -19 24 -19 19 0 35 -17 25 -27 -3 -3 -12 0 -21 7 -9 7 -19 10 -23 6 -4 -4
7 -19 23 -32 25 -20 28 -26 15 -34 -19 -12 -14 -12 260 1 118 6 230 10 248 9
18 0 32 4 32 11 0 7 7 8 18 4 26 -10 162 -7 517 15 394 23 479 28 675 36 124
5 158 10 168 22 9 12 12 12 12 3 0 -11 26 -12 133 -7 461 23 1043 54 1222 66
146 10 500 29 534 30 11 0 10 4 -4 14 -18 13 -18 15 -2 31 15 15 18 15 23 1 3
-9 10 -14 14 -11 5 3 16 2 25 -1 15 -6 14 -9 -6 -20 -24 -13 -24 -14 6 -9 17
2 89 7 160 10 272 11 428 25 443 37 12 11 12 7 -2 -20 -10 -19 -14 -37 -10
-40 4 -4 9 -1 11 6 3 7 10 18 17 25 7 7 11 18 10 25 -1 7 0 8 3 2 7 -14 70
-12 76 3 4 9 6 9 6 -1 1 -16 48 -6 76 17 18 15 19 15 6 -1 -12 -16 -11 -18 15
-18 16 0 52 3 81 6 44 6 54 11 63 33 l10 26 -6 -29 -5 -29 62 7 c34 3 88 6
119 6 l58 0 7 85 7 84 31 6 c34 5 189 16 520 36 108 7 197 16 197 20 0 3 -14
12 -32 20 -27 11 -29 14 -12 20 13 5 27 -1 46 -18 l27 -26 178 12 c98 6 203
14 234 17 l57 6 -11 29 c-11 28 -27 39 -27 18 0 -5 -5 -7 -11 -4 -6 4 -13 -2
-16 -14 -3 -12 -12 -21 -21 -21 -14 0 -14 2 0 18 9 9 19 28 23 41 6 18 9 20
16 10 5 -8 9 -9 9 -3 0 6 14 11 30 11 34 0 41 -14 9 -19 -20 -3 -20 -4 8 -36
25 -29 34 -33 68 -29 32 3 40 9 46 29 6 22 4 25 -12 21 -33 -9 -21 23 19 51
42 29 83 37 62 12 -6 -8 -18 -12 -26 -9 -8 3 -15 1 -15 -3 -7 -43 -5 -50 12
-51 23 -2 24 1 2 22 -16 16 -15 17 3 13 15 -3 18 -11 17 -35 -3 -31 -1 -32 40
-35 37 -3 42 -6 45 -29 3 -24 7 -27 38 -26 34 1 51 27 18 27 -10 0 -14 6 -10
15 4 10 -1 15 -14 15 -11 0 -20 5 -20 10 0 6 11 10 25 10 20 0 25 5 25 26 0
19 -4 25 -17 22 -10 -2 -18 -8 -18 -15 0 -6 -3 -15 -8 -19 -4 -4 -7 0 -7 8 0
9 -7 18 -15 22 -8 3 -15 15 -15 26 0 14 -7 20 -22 20 -21 1 -22 2 -6 14 10 7
15 16 11 19 -3 4 1 7 10 7 10 0 17 -5 17 -11 0 -15 31 -38 51 -39 9 0 22 7 29
15 11 13 10 18 -6 30 -11 8 -14 14 -6 15 6 0 12 12 12 26 0 19 -4 25 -15 20
-10 -4 -15 1 -16 17 0 12 -3 16 -6 10 -15 -38 -39 20 -24 59 l9 23 12 -27 c7
-16 17 -28 22 -28 5 0 7 -4 4 -9 -3 -5 8 -14 24 -21 24 -10 33 -10 45 0 9 7
14 19 11 26 -3 8 0 11 10 7 10 -4 12 0 8 11 -3 9 -10 16 -15 16 -5 0 -9 5 -9
10 0 6 6 10 13 8 18 -4 20 3 8 35 -12 30 -36 38 -28 8 3 -14 0 -17 -14 -14
-10 3 -17 8 -14 12 2 4 -2 19 -9 33 -10 19 -11 29 -3 37 7 7 5 12 -6 17 -9 3
-17 12 -17 20 0 8 -6 11 -16 7 -14 -5 -15 -3 -6 14 6 11 9 29 6 40 -6 21 15
50 52 72 11 6 14 11 7 11 -7 0 -10 7 -7 15 4 8 1 15 -5 15 -6 0 -11 -8 -11
-17 0 -15 -2 -16 -10 -3 -8 12 -10 10 -8 -10 2 -17 -3 -25 -17 -28 -16 -3 -18
-1 -7 9 6 7 12 19 12 27 0 12 -3 12 -15 2 -8 -7 -15 -25 -15 -41 0 -21 -4 -27
-15 -23 -19 8 -19 -1 0 -30 15 -23 15 -23 -10 -19 -14 3 -25 12 -25 19 0 8 -5
14 -11 14 -6 0 -9 7 -5 15 8 22 -2 18 -28 -10 -24 -25 -56 -34 -56 -15 0 6 -6
10 -12 9 -25 -3 -38 1 -38 12 0 6 8 9 18 7 20 -6 42 20 42 47 0 21 -18 19 -23
-2 -4 -17 -5 -17 -6 0 -1 11 -9 17 -26 17 -25 0 -29 -7 -26 -45 2 -20 1 -20
-14 -1 -18 24 -20 52 -2 59 7 3 5 6 -6 6 -10 1 -20 -6 -23 -14 -4 -10 -13 -13
-25 -10 -13 4 -19 1 -19 -9 0 -9 5 -16 10 -16 6 0 10 -4 10 -10 0 -5 -7 -7
-15 -4 -27 11 -16 -6 18 -26 21 -13 26 -20 15 -20 -10 0 -18 -4 -18 -10 0 -5
-4 -10 -10 -10 -5 0 -10 9 -10 20 0 11 -4 20 -9 20 -5 0 -12 10 -16 23 -5 12
-11 31 -15 42 -4 11 -3 30 1 42 5 13 4 25 -1 28 -6 4 -10 2 -10 -4 0 -6 -11 1
-25 15 -14 14 -25 29 -25 34 0 5 -5 12 -11 16 -7 4 -10 -3 -9 -17 1 -13 2 -35
1 -49 -1 -20 -3 -22 -11 -10 -6 10 -10 11 -10 3 0 -7 -6 -13 -13 -13 -8 0 -13
13 -13 35 0 25 4 34 13 31 7 -3 15 -1 18 4 4 6 -9 11 -27 11 -21 1 -10 5 32
12 46 7 59 12 45 17 -19 7 -19 7 3 14 13 4 22 9 20 11 -2 2 -28 -5 -58 -15
-57 -20 -230 -29 -182 -10 35 14 26 30 -18 30 -26 0 -43 6 -50 18 -10 15 -10
15 -5 -4 6 -24 -8 -38 -45 -48 -25 -6 -25 -6 -2 5 24 13 31 32 7 23 -23 -9
-18 3 20 53 19 25 35 49 35 53 0 5 15 26 33 48 17 23 43 57 57 76 14 20 30 36
36 36 7 0 14 10 18 23 7 29 53 80 65 73 10 -6 26 63 17 72 -3 3 -6 1 -6 -5 0
-17 -32 -25 -42 -11 -6 9 -8 5 -6 -12 2 -28 -15 -66 -43 -92 -37 -36 -44 -20
-40 87 1 37 0 38 -10 15 -6 -14 -9 -53 -6 -90 5 -63 -10 -120 -32 -120 -4 0
-13 -11 -19 -24 -6 -14 -18 -33 -26 -43 -8 -10 -37 -47 -63 -82 -26 -35 -59
-71 -73 -79 -17 -11 -11 -1 18 29 46 49 54 66 22 49 -17 -9 -20 -8 -20 9 0 11
-5 23 -11 27 -9 5 -10 -1 -5 -20 4 -17 3 -25 -3 -22 -5 4 -12 -2 -15 -11 -3
-10 -3 4 -1 30 3 30 1 46 -5 42 -6 -3 -10 -1 -10 4 0 6 4 11 8 11 10 0 9 36
-1 46 -4 4 -7 1 -7 -7 0 -8 -8 -24 -18 -37 -17 -23 -18 -22 -17 23 0 25 3 45
8 45 4 0 7 -6 7 -12 1 -7 7 1 14 17 18 40 12 43 -26 15 -23 -17 -30 -19 -25
-7 3 9 2 19 -4 22 -5 4 -7 10 -4 15 3 5 1 11 -5 15 -12 8 -13 65 -1 65 5 0 16
16 25 35 10 20 26 41 37 48 10 6 19 15 19 19 0 4 -49 7 -109 7 -91 0 -109 -3
-104 -15 6 -17 -9 -18 -25 -1 -20 19 -62 16 -62 -5 0 -10 -5 -18 -10 -18 -6 0
-9 -6 -8 -12 2 -7 -4 -12 -13 -10 -19 3 -36 -31 -20 -36 18 -6 12 -22 -8 -22
-10 0 -22 7 -25 16 -3 8 -10 13 -16 9 -11 -7 -44 25 -48 47 -1 9 2 19 8 23 25
15 8 27 -32 21 -24 -3 -46 -5 -50 -5 -5 -1 -8 -7 -8 -15 0 -7 -9 -16 -21 -19
-15 -4 -22 1 -29 19 -9 22 -15 24 -68 24 -33 0 -64 -5 -71 -12 -11 -11 -13
-10 -7 0 6 10 -67 12 -355 11 -346 -1 -364 -1 -377 -20 -7 -10 -20 -19 -28
-19 -10 0 -14 -12 -14 -38 0 -44 -24 -84 -45 -76 -8 4 -15 1 -15 -5 0 -6 4
-11 9 -11 12 0 -6 -56 -29 -90 -9 -14 -21 -34 -25 -45 -8 -19 -9 -19 -12 2 -3
12 8 43 22 67 15 25 24 50 20 56 -4 6 -1 19 7 28 8 9 24 33 35 53 19 34 20 39
5 68 -13 27 -20 32 -46 29 -24 -2 -32 -8 -34 -28 -6 -41 -18 -43 -15 -2 1 20
0 29 -3 20 -3 -10 -9 -18 -14 -18 -5 0 -7 7 -4 15 4 9 0 15 -10 15 -9 0 -16
-8 -16 -20 0 -11 -4 -20 -10 -20 -5 0 -10 8 -10 19 0 15 -8 19 -50 20 -45 1
-50 -1 -50 -22 0 -12 -5 -29 -10 -37 -7 -11 -8 -4 -5 23 l5 37 -114 0 c-101 0
-115 -2 -119 -17 -4 -16 -5 -16 -6 -1 -1 14 -19 16 -147 17 -116 2 -144 -1
-138 -11 5 -10 4 -11 -7 0 -17 15 -61 16 -77 0 -9 -9 -15 -9 -24 0 -7 7 -35
12 -64 12 -47 0 -53 -2 -61 -26 l-8 -25 -28 25 c-16 14 -32 26 -38 26 -12 0
-12 -17 1 -25 13 -8 13 -25 0 -25 -6 0 -16 11 -22 25 -10 22 -17 25 -59 23
-26 -1 -45 -6 -42 -11 3 -5 16 -6 29 -3 17 5 26 1 34 -14 6 -11 17 -20 24 -20
19 0 46 -33 46 -58 0 -11 6 -27 13 -34 8 -7 12 -19 9 -26 -5 -16 -52 -16 -52
1 0 8 -4 7 -10 -3 -15 -23 -12 -36 15 -61 26 -26 31 -39 14 -39 -5 0 -7 5 -4
10 3 6 1 10 -5 10 -7 0 -9 -8 -5 -20 4 -13 2 -20 -7 -20 -10 0 -10 -2 0 -8 10
-7 9 -16 -4 -47 -15 -36 -15 -41 1 -67 9 -15 12 -28 6 -28 -5 0 -11 6 -14 13
-2 6 -7 9 -11 5 -10 -8 16 -48 31 -48 15 0 43 -28 42 -43 0 -9 -2 -9 -5 0 -4
8 -11 6 -23 -6 -22 -22 -34 -51 -21 -51 6 0 10 5 10 10 0 6 4 10 9 10 5 0 7
-27 4 -59 -4 -51 -2 -60 14 -65 10 -3 1 -3 -20 0 -37 5 -38 5 -20 -16 10 -11
19 -16 21 -10 2 5 8 10 13 10 6 0 7 -4 4 -10 -3 -5 2 -10 11 -10 22 0 15 -7
-11 -12 -11 -1 -23 -12 -27 -23 -4 -15 -6 -12 -7 13 -1 25 -5 32 -22 32 -16 0
-19 4 -14 23 4 12 14 27 22 33 11 10 11 13 1 16 -11 4 -10 8 1 21 12 15 11 17
-3 17 -10 0 -16 -9 -17 -22 0 -13 -3 -17 -6 -10 -7 19 -23 14 -23 -7 0 -14 -5
-18 -20 -14 -13 4 -20 0 -20 -10 0 -8 -6 -20 -14 -26 -11 -10 -15 -8 -19 6 -4
17 -5 17 -6 1 -1 -11 -9 -18 -21 -18 -11 0 -20 -4 -20 -10 0 -5 -7 -10 -16
-10 -8 0 -12 -5 -9 -10 6 -10 -12 -14 -52 -10 -18 1 -22 -5 -25 -32 -2 -24 -8
-33 -20 -32 -10 1 -18 -5 -18 -13 0 -8 -13 -19 -30 -24 -16 -6 -30 -15 -30
-20 0 -5 -10 -9 -22 -9 -31 0 -52 -15 -46 -31 2 -8 -7 -24 -20 -37 l-24 -23 5
68 c2 37 7 79 11 93 7 22 6 22 -8 -4 -9 -15 -16 -39 -16 -52 0 -12 -5 -26 -11
-30 -12 -7 -24 9 -46 58 -11 25 -10 27 10 25 17 -2 22 3 22 25 1 15 -5 30 -13
33 -10 4 -13 14 -9 34 4 17 0 36 -8 47 -11 14 -14 15 -15 4 0 -10 -5 -7 -15 7
-11 15 -15 42 -14 85 1 35 1 68 -1 73 -1 6 -2 19 -1 29 1 15 4 17 12 9 22 -22
38 -4 27 31 -7 23 -7 39 0 52 9 15 11 16 12 3 0 -19 37 -55 47 -46 3 4 -1 15
-10 25 -10 10 -17 26 -17 36 0 9 -5 14 -10 11 -7 -4 -8 3 -4 22 l7 28 -22 -22
c-11 -12 -21 -30 -21 -40 0 -28 -16 -47 -34 -40 -17 7 -23 -8 -7 -17 8 -5 5
-74 -5 -124 -4 -19 -7 -22 -19 -12 -12 10 -16 9 -21 -4 -9 -24 -24 -19 -24 9
0 27 -9 32 -28 13 -9 -9 -12 -9 -12 0 0 7 5 12 10 12 6 0 10 11 10 25 0 16 6
25 15 25 11 0 14 -7 9 -24 -4 -16 -1 -25 12 -30 9 -4 19 -4 22 -1 3 3 0 5 -7
5 -9 0 -11 8 -7 25 5 20 1 27 -24 40 -16 9 -30 20 -30 26 0 6 6 7 13 3 8 -5 8
-3 -2 9 -7 9 -17 14 -22 11 -5 -3 -9 0 -9 5 0 6 5 11 10 11 16 0 12 28 -7 50
-17 19 -80 30 -69 11 4 -5 -3 -7 -14 -4 -15 4 -17 8 -7 18 7 7 24 15 37 19 17
5 21 4 11 -2 -17 -12 64 -22 82 -10 10 7 4 12 -14 10 -11 -1 -1 74 12 96 10
15 24 22 46 22 17 0 35 5 39 12 4 6 3 8 -4 4 -6 -3 -14 -1 -18 5 -3 6 -1 15 6
19 15 9 5 15 -37 25 -26 5 -33 3 -33 -9 0 -9 -5 -16 -11 -16 -6 0 -8 9 -3 23
3 12 3 19 -1 15 -5 -4 -15 -2 -23 5 -13 10 -14 8 -10 -16 3 -15 1 -30 -3 -33
-5 -3 -12 8 -15 25 -4 17 -11 31 -16 31 -5 0 -7 4 -4 9 3 5 15 7 26 4 11 -3
20 -1 20 5 0 6 -10 13 -22 15 -20 4 -19 4 5 6 19 1 27 -4 28 -16 0 -15 2 -15
9 2 13 29 12 35 -5 29 -8 -3 -20 -2 -26 2 -9 5 -7 10 7 15 10 4 -115 8 -278 8
-193 1 -298 -3 -298 -9 0 -5 6 -10 14 -10 8 0 18 -5 22 -11 5 -9 -1 -10 -20
-5 -22 5 -26 3 -26 -14 0 -11 -4 -20 -10 -20 -6 0 -8 15 -4 35 l5 35 -227 0
c-196 -1 -224 -3 -208 -15 15 -11 17 -16 7 -26 -9 -9 -13 -9 -13 -2 0 6 -9 9
-19 6 -13 -3 -18 -11 -14 -21 3 -13 1 -13 -11 2 -18 23 -20 36 -6 36 6 0 10 5
10 10 0 6 -79 10 -216 10 -178 0 -218 -3 -230 -15 -18 -17 -44 -20 -44 -4 0 5
-4 8 -10 4 -5 -3 -1 -14 10 -25 22 -22 26 -40 10 -40 -5 0 -10 5 -10 10 0 6
-9 10 -20 10 -11 0 -20 -4 -20 -10 0 -5 -15 -17 -32 -25 -18 -8 -26 -13 -17
-11 27 7 11 -32 -20 -50 -22 -13 -23 -14 -3 -9 36 10 25 -12 -12 -26 -19 -7
-33 -16 -30 -21 3 -4 -2 -11 -10 -14 -9 -3 -14 -9 -12 -13 2 -3 -2 -17 -10
-31 l-15 -25 4 27 c5 31 -5 37 -50 31 -37 -6 -47 -15 -67 -65 -15 -35 -15 -35
9 -35 15 0 25 5 25 14 0 10 6 12 20 8 16 -5 19 -3 13 11 -4 11 -2 15 4 11 6
-4 14 7 18 26 7 27 9 29 12 10 2 -12 0 -30 -5 -40 -5 -10 -7 -24 -5 -30 8 -22
50 15 57 49 7 34 23 58 38 58 6 0 7 -8 4 -17 -5 -13 0 -11 20 7 22 21 26 22
20 6 -6 -16 -4 -17 10 -6 13 12 17 11 25 -1 5 -8 9 -17 9 -21 0 -5 7 -8 15 -8
8 0 15 -3 15 -7 0 -12 -20 -39 -20 -28 0 6 -9 16 -20 23 -19 11 -20 10 -19
-20 0 -18 3 -27 6 -20 8 21 19 13 20 -15 2 -76 3 -83 18 -83 9 0 20 -10 25
-22 7 -18 9 -19 9 -5 1 9 8 17 16 17 8 0 15 4 15 10 0 5 -6 7 -14 4 -8 -3 -17
1 -22 8 -4 7 -4 10 1 6 4 -4 14 -3 21 3 9 7 14 5 19 -11 8 -25 -3 -80 -16 -80
-6 0 -7 -4 -4 -10 3 -5 -2 -22 -12 -37 -23 -36 -43 -57 -44 -46 0 4 -7 -13
-15 -38 -8 -27 -20 -46 -28 -46 -8 0 -13 4 -10 9 3 4 -2 8 -10 8 -18 0 -59
-37 -71 -65 -8 -17 -10 -15 -13 15 -2 19 -8 39 -13 44 -5 6 -9 21 -9 35 l1 26
19 -24 c11 -13 20 -30 20 -38 0 -8 5 -11 10 -8 7 4 7 13 0 25 -6 11 -9 30 -7
42 2 13 2 17 0 10 -6 -18 -23 -4 -23 19 0 11 -5 17 -10 14 -6 -4 -7 -12 -4
-18 5 -8 3 -8 -7 1 -21 19 -46 14 -54 -10 -4 -14 -8 -18 -12 -10 -11 26 -22
10 -28 -43 -6 -46 -4 -60 16 -92 13 -21 26 -40 30 -43 3 -3 15 -24 26 -48 11
-23 22 -39 26 -36 4 4 7 -2 7 -14 0 -32 -29 -27 -41 6 -20 55 -22 58 -26 36
-3 -16 -9 -20 -25 -16 -18 4 -20 2 -13 -27 8 -38 -11 -42 -46 -8 -50 47 -55
49 -74 30 -17 -16 -20 -15 -55 25 -21 23 -43 42 -49 42 -14 0 -34 38 -26 50 8
13 -7 13 -40 0 -15 -6 -30 -8 -35 -5 -14 8 1 45 19 46 9 0 4 5 -11 11 -16 5
-28 14 -28 19 0 6 -4 7 -10 4 -5 -3 -10 -1 -10 5 0 8 -6 8 -20 0 -17 -9 -20
-8 -20 10 0 23 -25 27 -34 4 -3 -8 -2 -12 4 -9 6 3 10 2 10 -4 0 -5 3 -18 6
-28 5 -15 4 -16 -6 -3 -9 11 -13 12 -17 3 -8 -22 -20 -14 -18 12 3 19 -1 25
-16 25 -10 0 -19 -6 -19 -14 0 -8 -16 -31 -34 -51 -35 -37 -35 -37 -60 -18
-14 10 -26 24 -26 31 0 7 -5 10 -11 7 -6 -4 -8 -13 -6 -19 8 -20 -8 -37 -27
-30 -15 6 -15 8 -1 30 22 34 18 51 -6 25 -15 -16 -25 -19 -32 -12 -13 13 8 39
41 52 13 5 22 15 19 22 -2 6 4 21 14 31 17 17 19 18 19 3 0 -9 -4 -17 -10 -17
-5 0 -10 -5 -10 -11 0 -6 9 -8 20 -4 27 9 44 -3 30 -20 -9 -10 -7 -16 8 -24
25 -13 34 -4 21 21 -8 15 -6 24 8 40 17 19 17 20 -5 38 -12 10 -22 26 -21 37
0 11 3 13 6 5 4 -10 8 -9 18 5 9 13 10 22 3 30 -13 16 -48 17 -48 2 0 -6 -9
-8 -20 -4 -16 5 -19 2 -17 -12 1 -10 6 -23 10 -29 4 -7 0 -15 -9 -18 -22 -8
-22 -8 -20 12 0 9 -4 16 -10 15 -5 -1 -11 13 -12 31 -2 29 1 34 23 38 14 3 25
1 25 -3 0 -5 5 -9 11 -9 15 0 39 26 32 34 -12 11 14 6 43 -9 15 -8 30 -12 32
-10 8 8 -20 35 -35 35 -8 0 -25 11 -38 24 -13 13 -26 22 -28 20 -2 -3 -15 0
-28 5 -20 7 -28 4 -46 -18 -11 -14 -25 -23 -29 -18 -4 4 2 14 14 23 12 8 22
21 22 28 0 7 10 12 23 12 19 -1 22 3 19 37 -2 21 2 37 8 37 5 0 10 5 10 12 0
6 -12 1 -26 -13 l-27 -24 5 28 c4 21 2 25 -7 17 -10 -8 -10 -18 -2 -40 6 -17
15 -30 20 -30 4 0 6 -4 3 -9 -4 -5 -21 -8 -39 -6 -17 2 -24 1 -14 -2 17 -4 16
-7 -7 -38 -14 -18 -22 -36 -18 -40 4 -5 -1 -5 -10 -2 -10 3 -24 -1 -33 -9 -19
-19 -19 -13 0 34 14 31 14 38 2 47 -12 9 -12 17 -1 55 15 51 18 73 7 67 -5 -3
-8 6 -8 19 0 30 9 31 27 2 14 -23 14 -58 -1 -58 -3 0 -8 -11 -9 -25 -1 -18 3
-25 16 -25 14 0 15 2 2 10 -12 7 -12 12 -2 22 9 9 12 9 12 0 0 -7 4 -12 9 -12
4 0 6 11 3 25 -4 21 -1 24 14 19 17 -5 17 -4 -1 11 -18 15 -18 16 -2 13 11 -2
25 9 39 30 l21 33 -29 -7 c-26 -6 -27 -5 -16 8 9 12 10 18 2 23 -6 4 -9 13 -6
21 6 15 -24 7 -36 -10 -5 -7 -8 -4 -8 7 0 9 -4 17 -10 17 -6 0 -6 10 1 27 14
38 5 57 -21 43 -17 -9 -18 -14 -9 -31 6 -12 8 -23 5 -27 -3 -3 -6 -2 -6 3 0
12 -40 -36 -41 -49 -1 -12 -3 -21 -19 -81 -26 -93 -30 -117 -24 -127 4 -6 2
-8 -4 -4 -5 3 -12 0 -15 -6 -2 -7 -5 4 -5 25 0 21 -3 41 -7 45 -12 12 -25 -23
-19 -53 6 -25 5 -28 -8 -17 -12 10 -18 9 -28 -3 -10 -13 -9 -15 9 -15 11 0 21
-6 21 -12 0 -9 3 -9 9 1 7 10 9 7 8 -12 -2 -31 -17 -36 -24 -9 -3 13 -13 18
-34 17 -16 -1 -29 2 -29 6 0 19 13 38 24 33 6 -3 3 1 -6 9 -26 21 -26 114 -1
165 13 28 15 38 6 35 -7 -3 -13 2 -13 11 0 14 -2 14 -14 4 -7 -7 -11 -19 -8
-26 5 -13 -13 -32 -32 -32 -4 0 -6 13 -4 29 2 17 1 28 -4 25 -12 -7 -10 8 7
55 8 22 10 41 6 41 -11 0 -21 -25 -21 -51 0 -10 -4 -19 -10 -19 -5 0 -10 -9
-10 -19 0 -11 -4 -22 -9 -25 -5 -4 -7 3 -4 13 3 11 0 28 -6 38 -9 16 -10 16
-11 1 0 -9 -10 -18 -22 -20 -16 -2 -22 -9 -20 -22 3 -13 -1 -17 -12 -13 -13 5
-13 2 -4 -18 6 -14 19 -25 30 -25 15 0 18 -7 17 -42 -1 -24 -3 -35 -6 -25 -7
25 -22 11 -17 -16 4 -20 4 -20 -6 2 -6 14 -9 32 -8 40 2 9 -5 21 -16 26 -20
10 -34 75 -16 75 6 0 10 15 11 33 0 27 2 29 10 12 7 -16 8 -12 6 17 -2 27 1
38 13 42 8 2 -2 4 -22 5 -21 0 -38 -3 -38 -9 0 -5 5 -10 10 -10 6 0 9 -19 9
-42 -2 -34 -3 -37 -6 -13 -6 37 -19 53 -33 39 -7 -7 -5 -21 6 -43 13 -27 15
-45 7 -107 -5 -41 -6 -77 -1 -80 11 -7 10 -34 -2 -34 -5 0 -10 9 -10 19 0 11
-5 23 -11 27 -8 4 -7 9 2 15 10 6 11 9 2 9 -16 0 -17 27 -1 32 9 3 9 12 -1 36
-7 18 -17 32 -21 32 -4 0 -11 12 -14 26 -4 15 -9 24 -12 21 -4 -3 -1 -22 6
-41 13 -40 7 -58 -16 -49 -13 5 -13 8 -2 15 8 6 0 7 -25 3 -27 -4 -37 -3 -32
5 3 5 10 8 15 5 5 -3 12 0 16 6 4 7 3 9 -4 5 -6 -3 -13 -2 -16 2 -3 5 -15 8
-28 7 -18 -1 -22 -7 -19 -26 3 -24 3 -24 -23 4 -28 30 -32 42 -16 52 12 7 4
25 -11 25 -5 0 -9 -9 -9 -20 0 -14 -6 -20 -17 -18 -12 2 -17 -2 -14 -12 2 -8
3 -30 2 -48 0 -26 3 -33 14 -28 23 8 18 -2 -15 -34 -24 -24 -29 -34 -21 -48 5
-10 6 -24 1 -32 -7 -11 -11 -11 -24 2 -17 17 -7 75 12 71 6 -2 16 6 22 17 12
22 7 25 -20 10 -20 -10 -20 -9 -7 105 1 13 -5 20 -18 22 -11 1 -14 0 -7 -3 17
-8 15 -42 -4 -61 -13 -13 -17 -14 -24 -3 -4 7 -6 20 -2 28 3 9 1 13 -5 9 -16
-10 -36 20 -29 40 6 15 8 15 17 3 8 -12 9 -10 4 7 -3 12 -1 24 4 27 6 4 7 14
4 22 -5 15 -7 15 -15 0 -12 -21 -28 -21 -28 0 0 13 -3 14 -14 5 -11 -9 -15 -9
-18 0 -3 8 -11 10 -24 5 -10 -5 -14 -10 -8 -13 7 -2 10 -12 7 -23 -4 -15 -1
-18 15 -14 12 4 22 0 25 -10 8 -19 -2 -48 -13 -41 -5 3 -11 -3 -15 -14 -3 -11
-11 -24 -18 -29 -9 -8 -12 -2 -14 21 -1 24 1 27 6 13 7 -18 8 -18 14 -3 4 10
2 17 -4 17 -6 0 -8 8 -5 18 6 16 5 16 -8 0 -7 -10 -23 -18 -35 -18 -15 0 -20
-4 -15 -12 11 -17 12 -48 3 -54 -4 -2 -10 0 -14 5 -3 6 -13 7 -23 4 -15 -6
-15 -5 -3 10 12 15 11 17 -3 17 -9 0 -17 9 -17 20 -2 35 -4 39 -16 51 -18 18
-16 46 2 46 11 0 12 -4 3 -14 -6 -7 -8 -16 -4 -20 8 -8 12 -3 20 25 7 20 4 22
-24 22 -27 0 -30 -3 -25 -20 8 -25 0 -25 -27 0 -12 11 -24 17 -27 14 -3 -3 9
-19 27 -35 19 -17 38 -44 42 -60 l9 -30 -67 6 c-74 8 -83 12 -62 25 10 6 11
10 3 10 -9 0 -10 7 -3 26 13 33 13 34 -5 28 -8 -4 -15 -2 -15 4 0 6 5 12 12
14 7 3 5 7 -6 11 -16 7 -18 3 -13 -26 3 -19 1 -40 -4 -48 -6 -11 -9 -8 -9 10
0 16 -4 21 -15 18 -20 -8 -28 9 -15 33 10 18 8 20 -21 20 -24 0 -30 -3 -25
-16 3 -8 1 -25 -5 -36 -6 -11 -7 -23 -3 -27 12 -8 16 -31 6 -31 -15 0 -42 41
-42 65 0 31 -13 32 -29 3 -9 -18 -10 -19 -6 -3 12 37 10 40 -18 43 -26 3 -27
1 -21 -24 5 -20 4 -26 -7 -22 -8 3 -15 14 -17 26 -4 24 -17 29 -25 10 -4 -10
-6 -10 -6 0 -1 6 -6 12 -11 12 -7 0 -7 -6 0 -19 15 -28 12 -58 -5 -65 -12 -4
-13 -2 -6 12 9 17 -2 52 -17 52 -26 -1 -32 -18 -16 -49 9 -17 17 -37 18 -44 1
-7 13 -33 25 -59 13 -26 20 -51 17 -57 -4 -5 -1 -13 5 -17 8 -4 9 -3 5 4 -5 8
-2 10 9 6 14 -6 14 -8 -2 -20 -10 -7 -13 -14 -7 -14 6 0 10 -12 10 -27 -1 -16
3 -34 8 -41 7 -9 6 -16 -3 -21 -10 -6 -8 -12 5 -25 11 -12 13 -20 7 -24 -9 -6
-17 -60 -28 -186 -2 -29 -16 -29 -69 -1 -26 14 -56 25 -67 25 -21 0 -26 33 -9
60 7 12 12 11 29 -9 11 -13 23 -33 27 -44 7 -21 7 -21 25 2 26 32 25 100 -1
129 -28 30 -37 28 -76 -14 -27 -28 -34 -44 -34 -75 0 -38 -1 -39 -27 -33 -16
4 -30 11 -33 15 -3 5 -29 13 -58 20 -56 12 -92 36 -72 49 9 5 9 9 1 14 -6 4
-11 17 -11 29 0 12 -4 18 -8 12 -10 -14 -92 -19 -92 -6 0 6 -4 11 -9 11 -5 0
-7 -9 -4 -20 4 -15 11 -18 28 -14 27 7 65 -3 65 -17 0 -14 -82 1 -102 18 -9 8
-21 12 -26 9 -8 -5 -279 81 -352 112 -25 11 -25 11 8 11 31 1 48 21 16 21 -13
0 -13 2 -1 21 8 11 13 29 10 40 -4 14 0 19 16 19 11 0 21 -4 21 -10 0 -5 6 -7
13 -4 9 3 12 22 11 62 l-3 57 14 -50 c12 -47 13 -48 14 -15 0 36 -18 116 -32
138 -5 6 -5 17 -2 22 4 7 -75 10 -230 10 -200 0 -236 -2 -241 -15 -4 -8 -10
-15 -15 -15 -5 0 -9 7 -9 15 0 10 -10 15 -29 15 -26 0 -29 -3 -35 -46 -3 -26
-6 -62 -6 -80 0 -39 -1 -39 -64 -18 -46 16 -48 18 -42 47 3 16 6 34 6 39 0 5
11 -3 24 -17 29 -32 35 -23 24 33 l-9 42 -60 0 c-32 0 -59 -4 -59 -9 0 -4 9
-19 19 -33 11 -13 23 -37 26 -51 l7 -27 -48 16 c-27 8 -65 20 -84 25 -19 6
-78 26 -131 45 -88 31 -106 34 -208 34 l-111 0 0 -3695z m2965 3505 c-3 -5 2
-10 12 -10 12 0 27 -19 45 -55 15 -30 23 -55 17 -55 -6 0 -8 -8 -5 -18 4 -12
-2 -26 -18 -41 -28 -26 -35 -20 -32 30 3 40 -13 47 -49 23 -11 -8 -23 -14 -27
-14 -13 0 -9 40 5 41 10 0 10 2 0 6 -7 2 -13 12 -14 21 0 11 -2 12 -6 5 -7
-19 -20 -16 -25 5 -4 15 0 18 23 17 15 -1 26 2 23 7 -3 4 0 8 6 8 6 0 13 -7
16 -15 12 -29 25 -15 18 20 -4 24 -2 35 5 35 7 0 9 -4 6 -10z m88 -177 c-7 -2
-13 -9 -13 -14 0 -4 6 -6 14 -3 8 3 17 -3 20 -14 4 -11 13 -26 21 -32 13 -11
13 -9 0 16 -17 34 -14 40 13 23 22 -14 47 -59 33 -59 -5 0 -11 -13 -14 -28 -7
-34 -46 -40 -48 -7 -1 15 -2 16 -6 4 -2 -9 -19 -25 -38 -35 -27 -14 -36 -15
-49 -5 -8 7 -21 10 -28 6 -7 -4 -5 0 6 9 10 8 15 19 11 25 -3 6 1 11 9 11 9 0
16 5 16 11 0 5 -4 8 -9 5 -17 -11 -18 18 -2 37 28 34 55 57 65 56 6 0 5 -3 -1
-6z m2831 -58 c9 -14 21 -25 27 -25 8 0 7 5 -1 15 -17 20 -11 24 25 18 26 -5
27 -7 10 -14 -20 -7 -20 -7 -1 -15 13 -5 21 -3 24 4 5 15 29 16 37 2 3 -6 3
-30 -1 -55 -5 -39 -9 -45 -31 -45 -20 0 -23 -4 -18 -20 5 -16 2 -20 -17 -20
-17 0 -20 -3 -9 -9 8 -5 21 -6 30 -3 14 5 14 2 -2 -21 -23 -35 -22 -44 3 -22
11 10 20 13 20 7 0 -7 5 -12 10 -12 6 0 10 13 10 30 0 20 4 28 13 24 10 -4 13
9 11 53 -1 32 0 71 3 86 l6 28 22 -21 c20 -18 23 -19 35 -5 10 12 16 13 26 4
16 -13 19 -79 4 -79 -16 0 -12 -21 8 -37 15 -13 15 -14 1 -10 -13 4 -15 1 -11
-15 4 -17 2 -19 -17 -13 -19 6 -22 4 -19 -12 2 -10 8 -18 13 -19 33 -3 45 -18
45 -55 0 -21 4 -39 8 -39 5 0 13 -16 19 -35 6 -19 8 -35 3 -35 -4 0 -10 9 -13
21 -3 13 -10 18 -17 14 -9 -5 -9 -10 -1 -18 16 -16 14 -40 -3 -34 -16 7 -32
-26 -21 -43 4 -6 1 -9 -7 -8 -8 2 -13 -7 -13 -23 0 -14 -7 -33 -17 -42 -14
-15 -17 -15 -29 -1 -14 17 -92 55 -99 47 -3 -2 2 -8 10 -13 8 -5 38 -29 65
-54 28 -25 57 -46 67 -46 17 0 38 -47 38 -86 0 -25 -15 -33 -23 -11 -8 22 -20
-2 -19 -38 2 -38 -13 -56 -21 -25 -3 11 -1 20 4 20 5 0 4 9 -3 20 -12 19 -14
19 -25 3 -15 -20 -17 -53 -3 -53 6 0 10 -4 10 -10 0 -5 -6 -10 -14 -10 -12 0
-30 -33 -27 -51 1 -14 -39 -16 -62 -4 -18 9 -28 10 -36 2 -7 -7 -12 -5 -17 7
-8 20 13 39 34 31 6 -2 12 2 12 10 0 18 -31 20 -47 4 -19 -19 -103 8 -103 32
0 17 -11 24 -33 20 -4 -1 -10 12 -13 28 -5 21 -11 27 -24 24 -13 -3 -19 3 -23
23 -5 28 -5 28 12 6 18 -24 46 -16 36 11 -6 13 0 15 34 11 38 -5 41 -3 40 18
0 13 -3 17 -6 11 -2 -7 -9 -13 -14 -13 -6 0 -7 5 -4 10 3 6 1 10 -4 10 -6 0
-11 9 -11 20 0 14 5 18 16 13 9 -3 19 0 23 6 5 8 13 1 24 -21 9 -18 17 -27 17
-19 0 8 7 22 15 31 14 16 14 20 -6 42 -23 26 -34 88 -15 88 6 0 4 5 -4 10 -8
5 -10 10 -4 10 11 0 54 -37 54 -46 0 -4 -7 -4 -15 0 -21 8 -19 -17 3 -37 23
-21 34 -12 25 21 -3 15 -1 27 7 32 16 10 2 33 -16 26 -7 -3 -16 -1 -19 4 -4 6
4 10 17 10 13 0 29 -9 36 -20 7 -11 17 -20 22 -20 6 0 3 12 -6 26 -15 22 -22
25 -66 21 -26 -2 -48 0 -48 5 0 4 5 8 11 8 6 0 9 6 6 13 -2 6 -9 11 -15 10 -6
-2 -9 4 -6 12 4 8 11 15 18 16 6 0 27 19 46 42 l35 41 -34 -24 c-32 -22 -35
-22 -46 -6 -12 16 -14 14 -20 -13 -7 -31 -36 -43 -50 -21 -3 6 -1 10 5 10 7 0
9 7 6 15 -3 10 1 18 12 22 19 8 42 28 42 38 0 3 -5 3 -11 -1 -8 -5 -10 1 -7
20 4 18 1 26 -9 26 -7 0 -16 14 -20 30 -4 21 -9 27 -17 22 -6 -5 -23 -12 -38
-16 -15 -3 -33 -12 -40 -20 -10 -9 -21 -10 -38 -4 -18 7 -21 11 -11 17 11 7
11 9 0 13 -8 3 -3 13 16 30 19 18 26 32 22 47 -6 25 20 30 29 6 5 -13 11 -11
30 10 13 14 25 25 28 25 11 0 35 -58 28 -65 -4 -5 -2 -5 4 -2 6 4 9 18 6 33
-4 24 -3 25 17 15 11 -7 21 -17 21 -23 0 -6 3 -8 6 -5 4 4 0 17 -9 31 -15 22
-13 36 4 36 3 0 14 -11 23 -25z m-1801 -432 c-3 -16 -1 -24 4 -18 4 6 21 11
37 12 16 0 33 7 37 15 7 11 11 10 19 -2 5 -8 8 -20 6 -26 -2 -6 0 -17 5 -25 7
-11 9 -11 9 -1 0 7 4 11 10 7 6 -4 6 -15 0 -31 -14 -35 -13 -37 14 -32 14 3
31 1 38 -4 10 -6 6 -14 -16 -34 -25 -22 -29 -33 -27 -67 1 -23 7 -47 13 -55 8
-9 8 -16 1 -23 -8 -8 -13 -5 -18 10 -7 24 -40 28 -52 7 -4 -8 -24 -16 -43 -18
-34 -4 -34 -4 -10 -15 l24 -10 -23 -12 c-21 -12 -22 -15 -8 -28 8 -8 28 -16
43 -17 16 0 29 -6 30 -11 0 -6 -7 -9 -18 -7 -10 2 -18 -2 -18 -7 0 -15 57 -14
63 2 2 6 4 -6 4 -28 0 -22 -2 -33 -6 -25 -9 22 -46 27 -37 5 3 -9 2 -14 -3
-11 -5 3 -11 -4 -14 -16 -7 -24 -22 -17 -22 10 0 22 -46 24 -62 2 -10 -13 -12
-10 -18 15 -3 17 -10 44 -15 60 -8 26 -9 24 -6 -18 3 -39 2 -45 -9 -31 -8 11
-14 13 -19 6 -10 -16 5 -43 22 -40 20 4 28 -30 12 -46 -10 -8 -11 -5 -5 14 7
22 6 23 -9 11 -14 -12 -16 -11 -16 3 0 9 -4 16 -10 16 -15 0 -40 -56 -35 -81
3 -12 1 -27 -4 -33 -5 -6 -12 -26 -16 -44 -4 -18 -16 -37 -28 -44 -12 -6 -26
-17 -30 -24 -12 -21 -27 -17 -27 7 0 11 -4 18 -9 14 -5 -3 -22 6 -36 19 -15
14 -39 31 -54 37 -15 7 -33 25 -40 40 -7 16 -18 27 -24 26 -7 -1 -12 4 -12 11
0 6 4 12 9 11 5 0 13 5 17 13 7 10 9 10 9 -2 1 -9 5 -5 10 8 5 12 19 26 31 31
15 5 18 10 11 15 -7 4 -12 12 -12 17 0 6 5 7 12 3 7 -4 8 -3 4 4 -10 17 -26
15 -26 -3 0 -8 -4 -15 -10 -15 -5 0 -10 5 -10 10 0 6 -11 8 -25 4 -15 -4 -25
-2 -25 5 0 6 12 13 28 17 55 11 68 22 82 65 7 24 18 49 22 56 5 6 5 14 -2 18
-6 4 -13 -6 -16 -25 -7 -34 -38 -57 -57 -42 -7 5 -21 6 -32 1 -36 -14 -47 -11
-34 10 18 28 5 50 -31 49 -16 -1 -33 2 -37 6 -11 11 20 26 39 20 13 -4 16 -1
12 10 -8 20 -5 20 49 -3 25 -11 47 -25 50 -33 4 -11 7 -11 18 0 12 11 9 18
-19 43 -18 16 -40 29 -48 29 -13 0 -14 3 -5 14 9 11 8 17 -3 29 -8 8 -12 17
-9 21 4 3 -1 6 -10 6 -21 0 -32 19 -18 33 8 8 11 7 11 -5 0 -19 27 -32 36 -17
3 5 14 7 25 4 13 -4 19 -2 19 9 0 8 10 22 22 30 18 13 19 16 5 16 -18 0 -23
25 -7 35 6 4 8 10 5 15 -3 5 14 3 39 -4 25 -8 46 -10 48 -5 4 12 44 20 62 13
8 -3 17 -22 21 -42 8 -44 33 -107 40 -100 3 2 1 19 -5 36 -7 25 -5 39 8 62 9
16 13 32 8 37 -5 4 -11 2 -13 -4 -8 -22 -23 -14 -23 11 0 22 3 23 51 18 41 -4
54 -1 61 12 14 25 26 19 21 -11z m4056 -31 c-16 -3 -18 -6 -8 -18 6 -8 9 -28
6 -47 -3 -17 -3 -26 0 -19 2 6 9 9 15 6 6 -4 8 1 3 15 -5 15 -2 21 9 21 21 0
20 -14 -1 -47 -12 -19 -14 -25 -4 -19 14 9 14 8 -5 -63 -6 -19 -4 -22 7 -16
12 8 12 6 0 -9 -13 -15 -15 -16 -23 -1 -5 8 -8 23 -7 33 1 9 -3 28 -10 42 -10
22 -10 20 -5 -17 8 -58 -3 -100 -27 -106 -10 -3 -19 -1 -19 4 0 5 7 9 15 9 8
0 15 7 15 15 0 19 -20 19 -34 0 -9 -13 -11 -11 -12 9 -1 17 2 23 12 19 8 -3
14 0 14 7 0 6 -4 8 -10 5 -5 -3 -10 -2 -10 4 0 6 -7 8 -15 5 -12 -5 -15 4 -15
50 0 31 -4 56 -8 56 -5 0 -8 -12 -7 -27 2 -16 0 -19 -2 -8 -3 11 -10 23 -16
27 -14 8 -16 7 63 47 36 19 69 38 74 42 6 5 13 4 18 -4 5 -8 1 -13 -13 -15z
m3539 -710 c2 -7 -2 -10 -11 -6 -8 3 -19 -1 -23 -8 -13 -20 -15 -48 -4 -48 5
0 7 -7 3 -16 -4 -11 -9 -12 -16 -5 -20 20 -28 11 -22 -22 6 -28 2 -37 -26 -61
-17 -16 -34 -24 -38 -19 -7 11 -46 11 -57 0 -4 -4 -1 -13 6 -22 19 -22 -3 -18
-28 6 -12 11 -19 25 -16 31 4 7 2 8 -5 4 -20 -13 -42 19 -32 46 9 24 41 57 41
43 0 -4 7 -2 15 5 17 14 35 5 35 -18 0 -12 -3 -13 -12 -4 -24 24 -39 4 -19
-27 7 -11 13 -10 35 4 27 18 27 18 21 -7 -4 -16 -1 -29 9 -37 13 -11 17 -9 28
14 10 23 10 29 -5 40 -12 8 -14 15 -8 20 19 11 12 35 -11 35 -21 0 -22 0 -2
18 25 23 94 52 118 49 11 -1 21 -8 24 -15z m-538 -14 c0 -5 -5 -6 -11 -2 -8 4
-9 -1 -5 -17 3 -13 3 -18 0 -11 -5 10 -9 10 -20 1 -18 -15 -18 -49 1 -49 9 0
12 6 8 18 -5 13 -3 14 6 6 10 -9 10 -17 2 -33 -7 -12 -16 -21 -21 -21 -5 0 -7
-7 -4 -15 4 -10 0 -15 -12 -15 -17 -1 -17 -2 -2 -10 18 -11 17 -62 -3 -86 -6
-7 -8 -18 -4 -24 3 -5 1 -10 -4 -10 -16 0 -13 -28 4 -37 9 -6 11 -13 5 -23 -7
-12 -12 -11 -29 4 -12 11 -21 27 -21 37 0 10 -4 21 -10 24 -5 3 -10 29 -10 56
0 44 2 50 20 47 10 -2 19 0 20 5 1 23 -1 27 -15 27 -17 0 -11 21 22 70 15 22
19 36 12 41 -8 5 -8 8 0 13 6 4 16 4 21 1 6 -3 13 0 16 9 6 15 34 11 34 -6z
m2520 -222 c184 -17 301 -40 352 -68 39 -22 54 -43 38 -53 -5 -3 -80 10 -167
29 -221 49 -353 64 -637 72 -136 4 -243 11 -239 15 20 20 453 23 653 5z
m-2622 -531 c16 -4 21 -12 18 -22 -4 -11 -2 -13 9 -10 19 8 31 -13 14 -24 -11
-7 -10 -9 4 -9 9 0 17 -7 17 -15 0 -8 5 -15 10 -15 7 0 10 -33 9 -85 -1 -47
-4 -85 -8 -85 -15 0 -31 42 -25 65 8 32 -13 58 -41 51 -23 -6 -53 28 -35 39 6
3 10 16 10 29 0 12 3 26 7 30 4 3 8 15 10 26 2 15 -3 20 -20 20 -30 0 -51 15
-42 30 5 8 11 8 23 -3 10 -8 27 -18 40 -22z m365 -247 c-3 -14 0 -29 6 -32 6
-4 11 0 11 8 0 9 7 16 15 16 8 0 15 5 15 11 0 6 6 9 14 6 7 -3 19 0 26 6 10
10 12 7 7 -10 -3 -13 -1 -26 4 -29 14 -9 10 -22 -8 -28 -10 -3 3 -4 29 -3 45
2 47 1 41 -22 -3 -14 -1 -26 7 -31 7 -4 9 -13 5 -21 -6 -9 -10 -7 -16 9 -5 12
-15 22 -24 22 -18 0 -19 -4 -3 -30 10 -15 10 -22 0 -32 -9 -9 -12 -9 -12 0 0
7 -5 12 -11 12 -19 0 10 -28 34 -33 12 -2 -33 -5 -100 -6 l-121 -1 -7 -82
c-11 -152 -13 -173 -14 -178 -1 -3 -12 -7 -26 -8 -23 -2 -24 0 -15 18 6 11 15
20 20 20 6 0 10 4 10 10 0 5 -14 3 -32 -4 -27 -12 -35 -12 -55 1 -35 23 -31
60 7 68 26 6 30 10 25 28 -5 20 -5 20 5 4 6 -9 15 -15 21 -12 5 4 9 1 9 -4 0
-24 15 -9 16 17 1 15 3 34 5 42 5 18 -48 27 -64 11 -16 -16 -30 -13 -23 5 4
10 -6 26 -26 45 -29 25 -31 32 -20 49 6 11 12 27 12 36 0 12 6 14 31 9 19 -4
29 -3 26 2 -4 6 5 8 21 5 15 -3 24 -1 20 3 -5 5 1 14 11 22 12 8 17 20 14 33
-5 20 -19 25 -57 21 -18 -1 -17 1 4 19 26 23 47 27 34 7 -5 -7 1 -2 13 11 24
28 91 44 109 27 7 -6 10 -23 7 -37z m-9165 -200 c4 -17 5 -61 0 -97 -6 -54
-13 -145 -17 -228 -2 -27 -33 -43 -83 -43 l-50 0 5 43 c5 53 66 368 73 379 11
17 64 -22 72 -54z m13192 -3 c19 -22 167 -21 192 2 17 15 19 15 36 0 10 -10
35 -17 56 -17 38 0 96 -24 96 -39 0 -5 -18 -11 -40 -15 -61 -10 -419 -6 -447
5 -35 13 -27 43 14 47 17 2 37 10 43 18 16 18 34 18 50 -1z m-3770 -267 c0
-21 -13 -35 -50 -55 -20 -11 -36 -29 -38 -41 -2 -12 -9 -22 -15 -22 -6 0 -4
-7 5 -16 12 -12 14 -23 8 -39 -13 -35 -29 -198 -35 -375 -3 -91 -9 -214 -12
-275 -3 -60 -9 -177 -13 -260 -9 -160 0 -254 12 -135 3 36 4 -2 1 -85 -3 -82
-5 -157 -5 -167 0 -10 -6 -15 -16 -13 -9 2 -20 4 -25 4 -4 1 -5 36 -2 79 13
196 15 249 20 427 3 105 10 287 15 405 6 118 10 281 11 362 l1 146 29 12 c17
7 32 23 35 36 5 19 13 24 40 24 21 0 34 -5 34 -12z m-360 -42 c0 -14 -4 -27
-10 -31 -5 -3 -7 -12 -3 -20 4 -11 -3 -15 -23 -16 l-29 -2 29 -4 29 -5 -7
-116 c-4 -64 -8 -125 -7 -134 0 -10 -8 -19 -17 -19 -14 -1 -14 -2 -2 -5 12 -4
14 -15 11 -47 -3 -34 -5 -37 -10 -18 -4 13 -15 29 -26 35 -11 6 -23 15 -27 20
-10 14 23 58 38 52 20 -8 17 8 -6 35 -19 22 -21 23 -19 4 3 -45 0 -48 -37 -42
-43 7 -64 23 -64 48 0 21 25 26 36 7 5 -8 10 -6 15 8 4 12 1 26 -10 38 -15 18
-15 19 2 13 21 -8 22 10 2 37 -10 13 -11 24 -4 37 7 15 6 19 -6 19 -8 0 -15 6
-15 14 0 8 -6 13 -12 12 -25 -2 -19 19 9 34 16 9 28 21 25 28 -4 14 9 16 24 4
5 -5 27 -3 49 4 22 7 33 13 25 14 -10 1 -9 4 5 10 31 13 35 12 35 -14z m3386
-56 c40 -18 45 -22 31 -33 -13 -10 -16 -53 -21 -297 -7 -359 -17 -563 -26
-529 -7 23 -7 146 0 644 2 173 2 180 -19 193 -11 8 -21 21 -21 28 0 18 -1 18
56 -6z m-11658 -86 c6 -2 12 -11 12 -20 0 -34 43 -114 61 -114 20 0 106 66
136 104 19 24 25 25 127 27 59 1 110 -1 113 -5 4 -3 1 -6 -5 -6 -7 0 -12 -9
-12 -21 0 -11 -4 -18 -9 -14 -6 3 -9 -3 -9 -12 1 -15 -22 -146 -37 -219 -4
-20 -9 -20 -222 -17 -120 3 -224 6 -230 8 -8 3 -13 23 -13 55 0 28 -5 82 -11
120 -20 118 2 144 99 114z m4377 -61 c9 -12 10 -25 3 -45 -5 -15 -8 -35 -5
-45 4 -14 5 -13 6 5 0 12 6 22 11 22 14 0 12 -21 -4 -39 -8 -9 -17 -34 -20
-56 -4 -25 -3 -33 2 -21 7 15 10 17 17 6 5 -8 2 -17 -7 -24 -9 -6 -19 -32 -22
-56 -5 -31 -4 -41 3 -30 5 8 13 11 17 7 4 -4 0 -15 -9 -25 -10 -10 -17 -29
-17 -41 0 -20 -4 -22 -42 -19 -41 3 -43 4 -40 33 2 17 7 35 11 40 4 6 9 32 10
58 2 37 -2 52 -16 62 -17 14 -17 14 3 15 19 0 23 8 29 58 4 31 12 66 18 77 6
11 10 23 9 28 -4 14 31 7 43 -10z m3149 -6 c3 3 26 -4 51 -16 49 -23 50 -36 6
-73 -12 -10 -21 -25 -21 -33 0 -8 -6 -15 -14 -15 -9 0 -13 -8 -10 -22 2 -13 2
-17 -2 -10 -3 6 -16 12 -29 12 -40 0 -77 80 -42 93 10 3 10 9 0 26 -23 38 -17
50 21 41 19 -4 37 -5 40 -3z m4646 -14 c0 -25 -30 -53 -56 -53 -13 0 -26 -4
-29 -10 -10 -16 -35 -12 -35 6 0 9 -6 14 -12 11 -8 -2 -12 -15 -10 -30 2 -15
-1 -27 -7 -27 -6 0 -11 -4 -11 -9 0 -5 8 -8 18 -7 10 0 16 -5 14 -15 -1 -9 7
-24 18 -34 20 -18 27 -46 13 -44 -24 2 -130 91 -146 122 -23 45 -17 82 15 91
42 11 88 7 94 -9 8 -19 24 -20 24 -1 0 15 23 22 78 25 24 1 32 -3 32 -16z
m-197 -165 c18 -12 49 -39 70 -59 20 -21 46 -40 56 -44 20 -6 57 -43 50 -49
-4 -4 -105 -9 -136 -7 -20 1 -102 136 -103 169 0 19 28 14 63 -10z m-6417
-175 c-3 -76 -9 -164 -12 -196 l-6 -58 -42 3 c-41 3 -41 3 -47 -37 l-6 -40 -2
43 c-1 41 -2 42 -36 42 -31 0 -35 3 -44 38 -6 20 -11 42 -12 47 -1 6 -5 19 -9
31 -8 21 0 24 45 14 6 -1 36 -2 68 -1 l57 1 0 58 c0 31 3 87 7 125 5 58 9 67
25 67 19 0 20 -6 14 -137z m2680 80 c-3 -8 -6 -33 -6 -56 0 -23 -4 -37 -8 -30
-8 13 -49 12 -71 -2 -10 -5 -12 -4 -7 3 4 8 2 10 -8 6 -8 -3 -17 -16 -20 -29
-4 -16 -19 -27 -55 -39 -75 -24 -74 -25 -66 57 10 96 16 107 65 107 29 0 42
-5 50 -20 11 -21 50 -28 50 -10 0 21 24 36 52 32 21 -3 28 -9 24 -19z m-7905
-172 c7 -6 -36 -289 -44 -297 -2 -2 -57 0 -123 6 -65 5 -133 10 -151 10 -52 0
-58 13 -61 156 -2 71 -6 133 -9 138 -6 10 378 -2 388 -13z m2377 -15 c198 -19
182 -14 179 -49 -2 -31 -1 -32 41 -34 23 -1 42 3 42 8 0 5 -8 9 -17 7 -19 -3
-31 28 -16 42 14 14 88 -4 85 -21 -2 -8 -5 -34 -7 -59 -7 -83 -25 -215 -35
-250 -5 -19 -10 -48 -10 -64 l0 -29 -157 9 c-87 4 -185 8 -218 9 l-60 0 -3
-32 c-2 -18 2 -42 8 -54 10 -17 9 -20 -2 -17 -7 3 -14 19 -16 37 -3 27 -7 32
-22 28 -15 -4 -20 1 -22 22 l-3 26 -180 11 c-99 7 -239 15 -312 19 l-131 8 -5
-29 c-3 -18 -5 -13 -3 14 l2 42 -72 0 c-39 0 -86 3 -103 6 -20 4 -31 3 -31 -5
0 -6 14 -11 31 -11 17 0 28 -4 24 -10 -9 -15 -46 -12 -65 5 -10 9 -25 13 -34
9 -18 -7 -22 -24 -5 -24 5 0 8 -4 5 -8 -2 -4 -7 -43 -10 -86 -3 -44 -7 -80 -8
-81 -2 -1 -13 -6 -25 -9 -18 -6 -25 -2 -35 18 -6 14 -17 26 -25 26 -17 0 -17
16 1 23 8 3 16 29 20 66 7 59 21 80 28 44 2 -11 6 -14 10 -8 19 31 -11 37
-223 51 -118 7 -286 18 -374 24 -88 5 -174 10 -190 9 -26 0 -27 -2 -10 -9 18
-8 17 -9 -8 -9 -16 -1 -35 5 -42 13 -9 8 -50 16 -112 20 -149 11 -135 -7 -131
168 l3 151 145 -7 c80 -4 233 -9 340 -12 107 -3 196 -7 199 -10 11 -11 55 -2
67 14 12 15 13 15 14 1 0 -12 11 -18 34 -21 38 -4 58 0 51 11 -5 9 39 6 54 -3
5 -4 16 3 24 14 15 22 27 17 27 -11 0 -15 11 -18 75 -21 l75 -3 1 30 c0 25 2
27 8 10 5 -11 6 -25 4 -31 -3 -8 8 -12 29 -12 18 0 116 -5 218 -11 372 -20
553 -25 546 -12 -11 18 3 51 20 44 9 -3 13 0 11 8 -2 8 1 4 7 -8 5 -12 20 -24
33 -28 13 -3 23 -12 23 -19 0 -9 12 -14 34 -14 44 0 56 32 23 63 -20 18 -20
20 -3 23 10 2 36 2 57 0 28 -2 41 1 45 12 6 13 8 13 11 -1 3 -13 21 -18 71
-23z m3622 -101 c0 -8 -3 -14 -8 -12 -4 1 -18 -8 -32 -20 -13 -13 -30 -23 -37
-23 -7 0 -13 -4 -13 -10 0 -5 16 -10 35 -10 19 0 35 5 35 10 0 6 -5 10 -11 10
-5 0 -7 5 -4 11 4 6 13 8 21 5 7 -3 20 1 28 9 19 20 36 19 36 -1 0 -18 -48
-64 -65 -64 -6 0 -18 -9 -28 -20 -9 -11 -25 -20 -34 -20 -10 0 -24 -9 -31 -20
-16 -25 -32 -26 -32 -1 0 11 -4 22 -9 25 -17 11 2 53 44 99 33 37 50 47 74 47
21 0 31 -5 31 -15z m-60 -154 c0 -6 -9 -16 -20 -24 -19 -13 -80 -91 -80 -102
0 -3 12 -5 26 -5 23 0 25 -3 20 -25 -5 -21 -3 -25 17 -25 42 0 106 56 134 116
13 30 26 54 27 54 11 0 1 -74 -17 -113 -17 -39 -29 -51 -65 -67 -47 -21 -159
-43 -173 -34 -18 11 -8 22 14 17 18 -5 20 -3 10 8 -19 20 -16 54 11 109 15 31
20 50 13 50 -7 1 2 7 19 14 18 8 35 19 38 25 9 13 26 15 26 2z m1645 -171
c121 -6 236 -12 255 -13 35 -2 35 -3 35 -47 -1 -132 -31 -670 -38 -675 -1 -1
-34 3 -74 8 -51 8 -73 15 -76 26 -3 13 -6 12 -12 -4 -21 -49 -36 -65 -55 -55
-17 9 -22 3 -41 -50 -23 -64 -39 -77 -39 -34 0 41 -22 104 -36 104 -7 0 -21
-25 -30 -55 -10 -30 -21 -52 -25 -50 -3 3 -10 24 -13 47 -4 24 -11 49 -16 57
-14 24 -38 -4 -46 -55 -8 -54 -21 -57 -30 -6 -14 76 -46 97 -65 42 -13 -36
-25 -38 -34 -7 -4 12 -13 32 -21 44 -11 18 -18 20 -44 13 -27 -8 -30 -6 -31
13 -1 12 -1 28 0 34 2 17 -54 50 -98 57 -20 4 -70 16 -112 28 -76 21 -77 21
-69 49 5 15 5 31 2 35 -4 4 -1 4 6 0 8 -5 12 1 12 21 0 21 3 24 10 13 5 -8 12
-12 15 -8 4 3 -3 15 -15 26 -35 33 -17 45 55 38 34 -3 65 -3 69 1 4 4 22 6 40
5 18 -2 37 3 43 10 15 18 28 242 14 233 -14 -8 -15 27 -2 41 5 5 11 27 13 49
3 34 8 43 43 63 35 20 49 22 115 17 41 -2 174 -10 295 -15z m-8093 -192 c1
-40 -2 -101 -7 -136 -7 -55 -6 -64 12 -80 20 -18 21 -39 15 -249 -2 -71 -4
-83 -19 -83 -15 0 -16 -2 -3 -10 11 -7 7 -10 -17 -10 -18 0 -33 4 -33 9 0 5
-12 12 -27 14 l-28 4 30 2 30 1 3 118 c5 150 5 160 1 323 -1 99 2 144 12 167
19 44 30 21 31 -70z m3178 -108 c5 0 8 -22 8 -48 -2 -71 18 -94 41 -49 20 39
6 -245 -16 -323 -30 -106 -25 -102 -138 -101 -54 1 -95 -2 -91 -6 4 -4 25 -6
46 -4 22 1 40 -2 40 -7 0 -10 -47 -22 -90 -22 -27 0 -28 1 -28 61 l0 61 117
-7 116 -7 0 49 c0 26 -3 50 -7 53 -4 4 -9 23 -10 43 -2 20 -7 37 -12 37 -4 0
-6 14 -4 30 3 17 1 30 -3 30 -4 0 -3 17 2 37 10 48 13 45 -59 52 -7 0 -10 6
-6 12 3 6 19 9 35 5 15 -3 31 -1 34 4 3 6 1 10 -6 10 -7 0 -5 6 6 13 10 8 15
19 11 25 -3 5 -1 12 6 14 22 8 1 37 -23 31 l-22 -6 19 25 c17 24 19 24 22 7 2
-10 7 -19 12 -19z m6666 -115 l-24 -60 -55 -3 c-53 -3 -56 -5 -62 -32 -4 -17
-11 -30 -16 -30 -6 0 -7 -4 -4 -10 3 -5 37 -10 76 -10 49 0 69 -4 69 -13 0 -7
-26 -50 -57 -97 l-58 -85 -3 46 c-3 45 -4 47 -40 53 -20 3 -59 6 -85 6 -29 0
-49 5 -52 13 -3 6 12 66 33 132 l38 120 102 2 c87 1 105 4 129 23 15 12 29 18
30 13 2 -5 -8 -36 -21 -68z m-8049 -150 l-6 -205 67 -1 c58 -1 62 -2 27 -8
-22 -4 -46 -10 -53 -14 -12 -8 -93 -18 -307 -37 -124 -11 -421 -39 -675 -65
-343 -34 -422 -38 -519 -26 -62 8 -102 18 -117 30 l-23 18 37 7 c20 3 57 6 81
6 42 0 43 1 25 15 -18 14 -18 14 6 15 33 0 423 30 476 36 l41 5 9 77 c8 67 11
77 29 77 18 0 20 -6 16 -50 -1 -28 -6 -52 -10 -55 -3 -3 -7 -24 -8 -47 -3 -51
-19 -50 217 -28 424 40 472 45 487 60 8 8 30 15 48 15 24 0 35 5 38 18 2 9 4
6 3 -8 -1 -19 4 -25 19 -25 19 0 20 9 26 142 6 137 16 230 26 246 2 4 14 7 25
7 21 0 21 -2 15 -205z m4503 170 c19 -1 68 -2 108 -3 l72 -2 0 -40 0 -40 -140
0 -140 0 0 43 c0 52 6 60 40 51 14 -4 41 -8 60 -9z m3909 -76 c21 -9 23 -14
17 -57 l-5 -47 24 53 c23 48 27 52 60 52 l35 0 0 -70 c0 -62 -2 -70 -19 -70
-10 0 -22 8 -25 17 -5 12 -9 14 -18 5 -18 -18 -97 -15 -105 3 -5 14 -7 14 -22
1 -27 -25 -44 -5 -36 43 6 39 6 41 -19 41 -20 0 -26 -5 -26 -22 0 -47 -12 -69
-33 -66 -17 2 -21 11 -21 48 -1 34 -5 45 -18 48 -15 3 -18 -4 -18 -47 0 -54
-15 -67 -40 -36 -9 11 -16 13 -24 5 -5 -5 -19 -10 -29 -10 -16 0 -18 5 -14 28
3 15 13 44 21 64 l16 38 138 -6 c75 -4 148 -11 161 -15z m197 -7 c6 -4 16 -16
22 -27 11 -19 11 -19 12 3 0 17 6 22 26 22 24 0 25 -2 20 -47 l-6 -48 19 41
c23 51 33 57 71 49 29 -6 30 -8 30 -71 0 -61 -1 -64 -24 -64 -13 0 -26 6 -29
13 -3 9 -7 9 -19 0 -21 -18 -99 -8 -115 13 -12 17 -13 17 -13 1 0 -11 -8 -17
-25 -17 -28 0 -29 5 -14 70 16 74 20 79 45 62z m-7981 -207 c83 -8 153 -15
156 -15 4 0 9 -18 11 -40 l4 -40 -38 0 c-21 0 -38 -4 -38 -10 0 -5 16 -10 35
-10 23 0 35 -5 35 -14 0 -7 10 -16 22 -19 47 -13 5 -17 -166 -18 -97 -1 -179
-5 -181 -9 -3 -4 46 -10 108 -14 146 -9 180 -8 188 5 4 8 12 8 24 1 10 -5 35
-7 56 -5 l37 5 6 -53 c13 -99 29 -149 64 -190 l33 -39 -93 5 c-51 3 -115 10
-143 15 -27 5 -104 16 -170 24 -66 9 -131 17 -145 19 l-25 4 25 11 c14 6 23
11 20 12 -48 9 -141 5 -169 -6 -57 -24 -61 -21 -61 50 0 35 -6 76 -14 91 -8
15 -13 34 -11 43 2 9 4 20 4 24 1 4 44 5 96 3 53 -2 95 1 95 6 0 5 -34 9 -76
9 -110 0 -158 31 -68 45 50 7 56 28 8 33 -71 6 -74 9 -74 59 l0 46 148 -7 c81
-4 215 -13 297 -21z m1313 -47 c18 -18 15 -38 -5 -39 -10 -1 -5 -4 11 -8 21
-4 36 -19 59 -59 16 -29 27 -55 24 -59 -3 -3 -36 -12 -74 -19 -37 -8 -71 -18
-75 -22 -16 -17 -126 -212 -120 -212 4 0 18 18 32 40 41 66 38 44 -14 -95 -10
-27 -15 -33 -16 -18 0 12 -3 29 -6 38 -6 14 -8 14 -23 1 -9 -8 -36 -18 -60
-22 -41 -7 -44 -6 -37 12 4 10 34 93 67 184 79 218 89 241 112 265 11 11 17
15 13 9 -7 -14 78 -24 97 -12 7 4 -6 8 -28 9 -35 1 -37 2 -15 9 36 12 45 11
58 -2z m-218 -61 c-7 -18 -16 -41 -21 -52 -19 -44 -109 -296 -109 -305 0 -6
-4 -10 -9 -10 -4 0 -7 21 -5 48 2 26 6 86 10 134 5 73 8 87 25 91 10 3 23 16
28 30 5 13 17 27 25 30 10 4 16 19 16 41 0 28 4 35 23 38 28 4 32 -5 17 -45z
m3355 17 c22 -1 53 -7 69 -13 20 -8 32 -9 40 -1 13 13 103 13 112 -1 4 -7 -12
-9 -52 -5 -34 3 -46 2 -29 -2 27 -7 24 -9 -42 -25 -39 -10 -88 -26 -109 -36
-37 -18 -74 -18 -74 1 0 5 -15 9 -32 7 -18 -1 -40 1 -49 5 -9 4 -22 6 -29 4
-7 -2 -14 2 -17 8 -2 8 12 10 45 6 31 -2 52 0 56 7 4 6 14 11 22 11 8 0 13 -4
9 -9 -10 -17 18 -24 30 -8 7 10 27 17 46 18 28 0 31 2 14 9 -11 5 -33 9 -48 9
-16 1 -36 9 -45 18 -16 15 -15 16 13 8 17 -5 48 -10 70 -11z m-2515 -9 c0 -8
-10 -16 -22 -17 -37 -2 -42 -3 -55 -11 -8 -5 -13 -3 -13 5 0 10 -3 9 -9 -2 -6
-8 -7 -18 -5 -22 3 -4 1 -8 -5 -8 -5 0 -11 5 -13 12 -3 7 -10 8 -17 4 -11 -7
-11 -10 0 -18 10 -7 7 -7 -8 -3 -21 6 -82 -18 -94 -37 -3 -5 -8 -9 -10 -7 -10
6 -47 -26 -42 -36 2 -7 -3 -15 -12 -19 -11 -4 -14 -2 -10 7 4 6 -7 -4 -24 -23
-17 -19 -46 -51 -64 -70 -35 -36 -89 -122 -86 -136 3 -21 -2 -35 -11 -29 -10
6 -14 -7 -11 -32 1 -6 -3 -14 -8 -17 -5 -3 -7 -15 -4 -26 3 -11 0 -20 -6 -20
-6 0 -10 -3 -9 -7 3 -11 -12 -86 -20 -98 -3 -5 -5 -29 -3 -53 1 -24 -1 -42 -6
-39 -5 3 -9 -31 -9 -76 0 -61 4 -85 16 -95 11 -10 12 -15 3 -18 -7 -3 -13 -10
-13 -15 0 -6 5 -7 11 -3 7 4 10 1 7 -6 -2 -8 -9 -15 -15 -17 -31 -11 -33 286
-3 401 53 200 183 383 334 471 105 61 236 95 236 60z m182 -70 c80 -18 122
-39 142 -69 10 -17 22 -23 35 -19 12 3 33 -6 56 -22 51 -39 54 -25 4 19 -33
29 -40 39 -30 49 9 9 14 9 20 -2 5 -7 14 -11 20 -7 14 9 91 -31 91 -47 0 -7
-6 -19 -12 -26 -11 -10 -10 -11 5 -6 12 5 17 2 17 -9 0 -13 6 -15 26 -10 21 5
32 -1 69 -40 25 -25 49 -46 55 -46 5 0 10 -6 10 -13 0 -17 38 -39 52 -31 6 4
8 3 5 -3 -7 -11 16 -36 25 -28 3 3 8 -3 10 -13 4 -15 1 -18 -13 -15 -11 3 -19
10 -19 15 0 6 -7 5 -15 -2 -19 -16 -19 -31 0 -24 16 6 42 -43 29 -55 -4 -3 -9
0 -11 7 -7 19 -22 14 -18 -7 3 -15 -4 -20 -31 -23 -33 -4 -33 -4 -19 19 14 21
14 23 0 23 -20 0 -19 17 3 29 23 14 -3 14 -28 1 -24 -13 -35 3 -15 23 13 13
13 16 -1 21 -13 5 -14 9 -4 21 8 10 9 15 2 15 -17 0 -25 -20 -13 -34 6 -7 8
-16 4 -19 -3 -4 -17 9 -31 29 -32 48 -39 37 -10 -18 12 -23 24 -54 24 -68 1
-14 5 -35 9 -47 5 -15 3 -23 -4 -23 -7 0 -10 4 -7 9 3 5 -1 15 -10 22 -25 21
-53 84 -51 115 2 21 -3 29 -21 33 -12 3 -48 31 -80 62 -66 64 -124 109 -141
109 -7 0 -27 11 -44 23 -18 13 -66 32 -108 42 -70 17 -86 17 -180 5 -120 -15
-204 -53 -283 -128 -29 -28 -44 -38 -37 -25 6 13 36 41 67 64 30 23 52 44 50
47 -6 6 -68 -39 -113 -82 -20 -19 -31 -37 -27 -48 6 -21 -8 -30 -23 -13 -21
22 99 130 205 184 99 50 242 65 364 36z m-1372 -24 c0 -5 -9 -29 -20 -53 -13
-30 -21 -72 -22 -122 -2 -59 -6 -76 -18 -76 -12 -1 -12 -3 3 -14 9 -7 17 -23
17 -35 0 -24 -10 -25 -85 -10 -27 6 -85 14 -127 18 -43 4 -81 11 -85 15 -4 4
8 21 26 38 40 37 60 82 76 163 l11 60 43 1 c23 1 47 6 54 13 13 13 127 15 127
2z m-290 -86 c0 -41 -5 -85 -11 -98 -11 -24 -12 -24 -30 -6 -11 11 -33 19 -54
19 l-35 0 14 35 c25 60 75 125 96 125 18 0 20 -7 20 -75z m4696 -115 c68 -4
127 -11 131 -13 17 -10 299 -39 387 -39 130 0 597 -25 604 -32 3 -4 -3 -12
-13 -20 -18 -13 -17 -14 11 -20 29 -6 433 -52 552 -63 43 -4 62 -10 62 -19 0
-10 -14 -14 -47 -14 -56 0 -227 25 -243 35 -7 4 -58 8 -114 9 -70 1 -108 5
-119 15 -11 9 -30 11 -54 7 -27 -4 -32 -3 -18 4 19 8 19 9 -2 9 -12 1 -24 -3
-27 -7 -2 -4 -23 -6 -45 -4 -23 2 -38 8 -35 13 3 5 0 9 -5 9 -6 0 -11 -5 -11
-11 0 -12 -93 -1 -98 12 -5 13 -164 -85 -170 -104 -10 -39 -58 -39 -308 -1
l-111 16 -1 30 c-1 26 5 32 46 49 91 38 144 69 122 69 -9 0 -20 -4 -25 -9 -6
-4 -98 2 -210 14 -466 52 -596 65 -605 60 -12 -7 -13 8 -3 19 8 7 112 3 349
-14z m-2997 -39 c78 -40 169 -128 205 -199 23 -45 52 -144 61 -207 1 -11 6
-28 10 -38 4 -11 2 -28 -5 -42 -8 -15 -10 -38 -6 -62 4 -23 3 -33 -2 -25 -6 9
-9 -3 -8 -33 1 -32 -4 -50 -15 -58 -9 -7 -21 -23 -28 -37 -11 -24 -11 -24 3
-6 18 23 21 14 5 -15 -5 -11 -15 -17 -22 -13 -7 4 -9 4 -5 -1 19 -20 -49 -104
-84 -105 -9 0 -20 -5 -24 -12 -4 -7 -3 -8 4 -4 7 4 12 3 12 -2 0 -17 -50 -43
-70 -37 -10 3 -21 1 -25 -4 -4 -7 1 -9 12 -5 10 3 0 -5 -22 -18 -57 -32 -199
-33 -265 -1 -48 23 -146 112 -197 178 -51 67 -85 175 -91 292 -5 108 12 208
30 181 6 -9 7 -5 3 10 -9 32 25 98 87 167 93 103 169 137 293 132 67 -3 91 -9
144 -36z m1931 -211 c113 -49 191 -114 254 -210 74 -114 88 -157 96 -315 6
-126 5 -144 -12 -178 -10 -21 -16 -42 -13 -47 3 -5 -1 -22 -9 -37 -8 -16 -15
-24 -16 -20 0 5 -5 5 -11 1 -8 -5 -8 -9 1 -14 9 -6 5 -14 -14 -31 -14 -12 -26
-27 -26 -33 0 -15 -42 -56 -57 -56 -7 0 -13 -7 -13 -15 0 -14 -11 -19 -37 -16
-8 1 -10 -5 -6 -16 5 -17 5 -17 -9 0 -13 17 -15 17 -27 3 -8 -9 -10 -16 -6
-16 22 0 -59 -60 -82 -62 -126 -7 -228 -4 -240 7 -10 11 -10 14 0 18 6 3 1 6
-14 6 -14 1 -30 6 -37 13 -8 8 -15 8 -24 0 -9 -7 -19 -7 -28 -2 -12 8 -12 10
4 10 14 0 6 11 -30 43 -116 102 -171 164 -201 227 -134 277 -61 579 172 715
73 43 128 55 235 52 73 -3 108 -9 150 -27z m1371 -11 c-13 -11 -22 -22 -19
-24 3 -3 54 -10 114 -15 253 -22 454 -46 462 -56 4 -4 -14 -4 -40 -1 -27 4
-48 3 -48 -1 0 -4 -16 -6 -35 -4 -19 2 -35 8 -35 13 0 5 -5 9 -11 9 -5 0 -7
-4 -4 -10 3 -5 -1 -10 -10 -10 -9 0 -13 5 -10 10 3 6 2 10 -4 10 -5 0 -11 -4
-13 -9 -3 -9 -121 3 -443 44 -71 9 -132 19 -135 22 -3 3 23 2 57 -2 61 -7 133
7 133 25 0 9 23 17 50 19 10 0 7 -6 -9 -20z m1719 -130 c74 -11 175 -25 223
-29 109 -12 268 -33 450 -60 127 -19 177 -34 177 -52 0 -4 9 -16 20 -26 l21
-19 -25 -17 c-14 -9 -32 -16 -40 -16 -8 0 -18 -5 -21 -11 -7 -11 -46 -8 -165
11 -30 5 -95 14 -145 20 -290 34 -352 41 -369 47 -17 5 -18 6 -3 15 14 7 15
13 6 30 -10 18 -17 20 -72 14 -34 -4 -75 -14 -91 -22 -33 -16 -94 -18 -116 -4
-11 7 -8 10 16 10 17 0 60 9 94 20 34 11 78 20 96 20 18 0 37 6 41 14 4 7 15
15 23 18 8 3 -23 9 -69 13 -61 5 -89 4 -107 -6 -20 -10 -27 -10 -42 4 -10 10
-31 17 -46 17 -21 0 -29 -7 -38 -31 -14 -41 -22 -30 -13 20 8 50 5 49 195 20z
m-9116 -114 c119 -19 137 -28 71 -36 -38 -5 -27 -6 45 -7 91 0 307 -19 323
-29 15 -9 -5 -23 -48 -34 -24 -6 -51 -20 -61 -30 -9 -10 -23 -19 -31 -19 -8 0
-37 -16 -66 -35 -28 -19 -58 -35 -66 -35 -8 0 -22 -6 -30 -14 -9 -8 -54 -38
-101 -66 -47 -29 -87 -55 -90 -59 -3 -4 -32 -18 -65 -31 -33 -13 -124 -56
-202 -96 -78 -39 -155 -77 -170 -83 -15 -6 -47 -22 -71 -36 -23 -14 -48 -25
-55 -25 -7 0 -39 -16 -71 -35 -32 -19 -65 -35 -72 -35 -8 0 -36 -9 -62 -21
-51 -23 -71 -31 -118 -49 -24 -9 -82 -9 -240 0 -115 6 -227 15 -249 20 -22 5
-78 10 -125 10 -58 0 -100 6 -134 18 l-48 19 27 21 c15 12 37 22 49 22 11 0
44 6 71 13 46 13 48 14 28 25 -12 7 -29 12 -38 12 -11 0 1 20 39 64 31 35 56
70 56 78 0 8 18 31 39 51 21 20 53 60 70 90 33 59 60 73 112 62 16 -4 93 6
181 24 84 16 216 39 293 51 77 11 196 29 265 40 69 11 172 25 230 31 58 6 108
14 112 18 6 5 11 40 17 120 1 15 10 14 185 -14z m10221 -31 c61 -8 164 -22
230 -30 66 -9 176 -22 245 -28 l125 -12 -62 -7 c-44 -6 -63 -12 -63 -22 0 -9
-6 -12 -15 -9 -8 4 -15 12 -15 19 0 7 -10 15 -21 18 -20 5 -21 3 -17 -46 3
-29 7 -58 9 -66 2 -7 -2 -16 -8 -18 -9 -3 -13 6 -13 29 0 90 -23 134 -56 107
-7 -6 -18 -8 -23 -5 -6 4 -31 7 -56 8 -25 0 -45 4 -45 9 0 5 -3 8 -7 7 -10 -3
-185 20 -243 32 -25 5 -75 12 -112 15 -37 4 -71 11 -74 17 -7 10 18 8 221 -18z
m-2755 -69 c306 -37 905 -122 925 -129 22 -9 -43 -5 -139 8 -126 18 -374 51
-486 65 -288 36 -454 61 -464 72 -8 9 -5 10 14 6 14 -4 82 -13 150 -22z
m-6280 -283 c0 -79 11 -99 60 -105 19 -3 5 -4 -32 -3 -66 1 -67 1 -72 -28 -3
-16 -6 -40 -6 -54 0 -17 -14 -40 -37 -64 -29 -29 -35 -41 -25 -47 8 -4 64 -11
125 -14 93 -5 114 -4 123 9 10 12 13 12 17 2 4 -9 6 -9 6 -1 1 6 -3 15 -9 18
-12 7 -14 35 -2 35 9 0 42 -54 42 -69 0 -7 -41 -11 -125 -11 -69 0 -125 -3
-125 -8 0 -4 12 -15 28 -24 20 -13 22 -18 10 -18 -10 0 -18 5 -18 10 0 6 -5
10 -11 10 -5 0 -7 -4 -4 -10 8 -12 -5 -13 -24 -1 -7 5 -11 13 -7 19 3 6 2 13
-4 17 -5 3 -10 -3 -10 -14 0 -12 -4 -21 -10 -21 -5 0 -12 -15 -16 -34 -6 -33
-7 -34 -62 -39 -75 -7 -122 -17 -122 -28 0 -23 23 -25 318 -28 61 0 112 -5
112 -9 0 -11 -263 -50 -390 -58 -102 -6 -222 -24 -335 -48 -144 -31 -246 -40
-330 -27 -43 6 -81 14 -84 16 -2 3 4 12 15 20 21 15 200 105 302 150 34 16 62
32 62 37 0 4 7 8 15 8 7 0 18 6 22 13 4 6 24 20 44 30 20 10 58 39 85 64 27
24 63 55 79 68 17 13 52 44 78 68 27 25 56 48 64 51 8 3 12 9 10 13 -7 11 154
131 192 144 17 6 31 15 31 20 0 5 5 9 10 9 6 0 10 -29 10 -68z m6600 -213
c461 -67 510 -77 510 -94 0 -16 32 -13 38 3 7 21 32 13 33 -10 1 -13 1 -26 0
-30 0 -5 4 -8 9 -8 6 0 10 4 10 10 0 6 24 8 63 4 88 -8 109 -13 101 -26 -5 -7
-32 -9 -85 -4 -88 7 -129 1 -129 -20 0 -8 -4 -14 -10 -14 -5 0 -10 -7 -10 -15
0 -10 -8 -13 -27 -10 -140 24 -312 52 -548 90 -154 24 -294 47 -311 50 -21 4
-34 13 -37 27 -8 29 18 47 66 48 27 0 37 4 37 16 0 14 11 15 83 9 45 -4 138
-15 207 -26z m-10203 -71 c-3 -13 -9 -35 -12 -50 -6 -25 -4 -28 18 -28 15 0
31 9 40 23 13 20 13 26 1 50 -12 23 -12 27 -1 27 8 0 18 -10 24 -22 l10 -23
12 23 c8 15 21 22 40 22 25 0 30 -5 41 -46 12 -42 15 -45 27 -28 7 10 13 30
13 46 0 15 5 28 10 28 30 0 -4 -85 -58 -142 -26 -28 -62 -38 -62 -17 0 5 4 8
9 4 5 -3 21 5 35 17 l26 23 -16 53 c-17 56 -30 64 -59 32 -17 -19 -18 -22 -2
-55 14 -29 14 -35 3 -35 -8 0 -18 9 -21 20 -8 25 -17 25 -32 1 -12 -18 -63
-24 -78 -9 -4 4 -16 1 -27 -5 -16 -10 -22 -9 -34 8 -31 42 8 105 64 105 30 0
34 -2 29 -22z m482 -330 c12 -40 14 -41 27 -23 8 11 12 30 9 43 -4 15 -1 22
10 22 21 0 19 -23 -10 -79 -26 -53 -67 -91 -96 -91 -30 0 -22 15 13 25 20 6
34 18 36 29 6 28 -19 106 -33 106 -17 0 -30 -81 -14 -90 8 -6 8 -9 -1 -15 -6
-4 -17 -2 -22 3 -8 8 -17 8 -30 1 -39 -21 -62 26 -37 74 17 32 28 37 85 37
l51 0 12 -42z m10121 -250 c22 1 44 -6 59 -19 l24 -20 -19 -35 c-18 -34 -21
-35 -59 -30 -22 4 -71 11 -110 16 -119 17 -129 28 -73 75 30 25 36 27 88 20
30 -4 71 -7 90 -7z"/>
<path d="M7213 2005 c-128 -54 -223 -222 -223 -392 0 -99 13 -135 66 -183 60
-55 151 -128 176 -141 19 -10 18 -7 -7 20 -16 18 -40 42 -52 53 -30 28 -63 91
-78 151 -16 58 -10 60 15 5 10 -24 19 -36 19 -27 1 25 22 40 38 28 10 -9 13
-5 13 20 0 45 12 38 42 -27 32 -69 59 -101 117 -137 49 -30 151 -47 151 -25 0
8 -9 11 -26 7 -16 -3 -32 2 -42 13 -25 25 -72 54 -72 43 0 -5 5 -14 12 -21 7
-7 8 -12 2 -12 -15 0 -45 35 -37 43 3 4 1 7 -5 7 -19 0 -70 56 -87 96 -21 51
-11 55 14 6 11 -22 30 -42 42 -45 11 -3 18 -10 15 -16 -11 -17 65 -45 87 -32
13 9 17 8 17 -3 0 -14 29 -26 68 -26 12 0 22 5 22 11 0 5 -4 7 -10 4 -5 -3
-10 -1 -10 4 0 6 6 11 14 11 9 0 12 7 9 19 -3 10 0 22 6 25 6 4 11 1 11 -7 0
-14 28 -27 62 -27 10 0 20 10 24 25 3 14 10 25 15 25 5 0 18 19 30 42 49 97
-12 301 -122 409 -31 30 -57 48 -66 45 -8 -3 -11 -1 -8 4 7 11 -42 26 -52 16
-4 -3 2 -6 11 -6 12 0 16 -5 12 -15 -3 -8 -1 -15 4 -15 6 0 10 -4 10 -10 0 -5
-8 -10 -17 -10 -72 0 -169 -70 -202 -146 -16 -35 -41 -135 -41 -162 0 -3 -9 3
-19 12 -26 23 -62 17 -79 -14 -12 -22 -13 -17 -8 50 6 81 39 168 49 130 3 -11
1 -18 -3 -15 -5 3 -12 -11 -15 -32 -4 -21 -9 -46 -12 -57 -4 -14 -2 -16 8 -10
12 6 12 5 0 -9 -12 -15 -11 -17 3 -17 21 0 42 20 49 46 4 18 5 18 6 -1 0 -12
-4 -26 -11 -33 -9 -9 -9 -12 0 -12 16 0 26 44 18 76 -5 20 -3 27 14 31 25 7
36 46 21 79 -13 30 -45 31 -65 2 -9 -12 -16 -18 -16 -12 0 16 34 44 53 44 9 0
17 5 17 11 0 6 -9 8 -22 4 -22 -6 -22 -5 -3 7 11 7 25 13 30 13 6 0 10 6 10
13 0 7 11 22 25 32 32 24 24 32 -17 15z"/>
<path d="M9287 1783 c3 -10 11 -24 17 -32 9 -11 8 -13 -4 -9 -25 9 -107 -28
-158 -71 -34 -28 -58 -60 -78 -103 -25 -55 -29 -75 -29 -154 l0 -90 -27 15
c-26 15 -31 15 -57 -1 l-29 -16 -7 69 c-4 37 -4 92 1 121 7 52 7 53 16 21 6
-23 16 -35 33 -39 48 -12 73 13 61 61 -7 29 -50 44 -77 27 -17 -11 -18 -9 -12
18 3 17 3 30 -1 30 -9 0 -36 -70 -36 -96 0 -13 -3 -24 -7 -24 -5 0 -8 -17 -9
-37 -1 -21 -4 -49 -8 -63 -6 -19 -5 -22 3 -10 8 12 11 7 10 -20 0 -30 -2 -32
-10 -15 -8 17 -9 16 -6 -7 3 -16 0 -28 -6 -28 -6 0 -8 27 -4 73 4 59 4 66 -5
37 -13 -44 -4 -153 16 -202 18 -42 36 -58 36 -31 1 14 6 12 25 -12 14 -16 23
-36 20 -43 -3 -7 -1 -11 4 -8 4 3 14 -6 21 -19 7 -13 18 -26 25 -29 7 -2 -3
21 -21 51 -38 64 -49 91 -39 101 4 4 13 -2 21 -12 8 -11 14 -16 14 -10 0 5 10
14 23 19 14 6 23 21 25 38 3 27 6 25 48 -40 76 -117 152 -169 263 -178 l56 -5
-61 13 c-101 21 -226 119 -240 187 -2 14 -11 48 -19 76 -31 105 -11 201 56
277 104 118 278 118 402 -1 46 -44 74 -95 97 -176 22 -80 40 -85 34 -9 -12
141 -162 323 -262 317 -27 -1 -32 1 -27 16 7 22 2 26 -53 35 -38 6 -41 5 -35
-12z"/>
<path d="M9252 1648 c-7 -7 -12 -17 -12 -22 0 -12 -46 -36 -67 -36 -18 0 -46
-47 -39 -65 4 -11 2 -14 -6 -9 -8 5 -9 2 -4 -11 3 -10 0 -27 -7 -39 -17 -26
-27 -86 -14 -86 5 0 7 -6 4 -14 -3 -9 2 -16 15 -19 17 -5 20 -12 15 -39 -7
-47 7 -68 46 -68 41 -1 68 -21 61 -46 -7 -25 17 -47 48 -42 14 2 24 12 28 28
4 18 13 26 34 28 24 3 27 1 21 -18 -4 -12 -1 -27 5 -35 16 -20 34 -19 26 0 -4
12 0 14 19 9 20 -5 25 -2 25 13 0 10 -5 24 -12 31 -6 6 -10 13 -7 14 2 2 17
14 33 28 16 14 26 19 22 13 -13 -23 13 -54 42 -51 24 3 27 7 27 38 0 29 -4 36
-22 38 -35 5 -27 26 15 41 20 8 43 18 50 23 20 17 14 56 -12 73 -22 15 -46 63
-25 49 15 -9 10 53 -6 69 -8 8 -12 17 -9 19 2 3 -3 11 -13 19 -9 8 -14 9 -10
3 4 -7 -1 -15 -10 -19 -10 -3 -19 -1 -21 4 -2 6 -8 9 -13 5 -5 -3 -9 5 -9 18
0 45 -19 55 -116 62 -63 4 -94 2 -102 -6z"/>
<path d="M1675 7350 c4 -32 2 -40 -10 -40 -9 0 -13 -4 -10 -10 3 -5 -1 -10
-10 -10 -9 0 -14 4 -10 9 8 14 -9 21 -25 10 -13 -8 -13 -10 0 -19 13 -9 13
-10 0 -10 -12 -1 -12 -3 3 -14 10 -8 15 -20 11 -30 -4 -11 -2 -15 8 -11 8 3
21 -1 28 -9 7 -9 16 -13 21 -10 5 3 9 0 9 -6 0 -19 -83 0 -98 21 -7 11 -17 17
-22 14 -4 -3 -21 2 -36 10 -16 8 -34 15 -40 15 -6 0 -17 7 -24 15 -21 25 12
19 55 -10 20 -14 35 -21 33 -15 -2 7 -17 19 -33 28 -16 9 -35 24 -42 32 -9 12
-14 12 -24 3 -8 -8 -18 -9 -29 -3 -9 5 -22 5 -31 -1 -12 -8 -12 -10 1 -8 29 3
40 -1 40 -15 0 -12 115 -76 135 -76 3 0 17 -7 31 -16 13 -9 39 -18 57 -19 39
-2 115 -45 81 -45 -12 0 -33 10 -48 21 -15 12 -30 19 -33 15 -8 -8 16 -36 29
-33 6 1 13 -4 15 -10 7 -19 -82 -17 -101 2 -8 8 -26 15 -39 15 -14 0 -27 4
-29 9 -1 5 -16 12 -33 15 -30 6 -30 6 -5 -6 29 -14 103 -69 108 -80 7 -15 24
-8 18 7 -3 9 0 15 9 15 18 0 28 -17 15 -25 -5 -3 -10 -11 -10 -17 0 -6 9 -1
19 11 25 29 88 38 116 16 17 -14 18 -17 5 -25 -9 -6 -11 -10 -3 -10 7 0 10 -7
7 -15 -5 -11 1 -15 21 -15 21 0 29 -7 38 -30 6 -16 15 -30 19 -30 12 0 30 39
23 50 -3 6 1 10 10 10 9 0 25 9 36 19 19 17 21 29 17 114 -1 52 0 93 5 90 4
-2 7 2 7 11 0 8 -4 16 -9 18 -4 2 -11 13 -15 25 -6 18 -3 22 14 20 12 -1 20
-8 20 -20 0 -10 5 -15 10 -12 19 12 10 35 -17 41 -23 6 -24 8 -10 19 10 7 17
21 16 31 0 16 -2 16 -9 -3 -12 -28 -30 -30 -30 -3 0 11 -6 20 -14 20 -8 0 -14
-8 -14 -17 0 -10 -3 -26 -7 -35 -4 -11 -3 -18 4 -18 6 0 11 -11 11 -24 0 -14
3 -27 8 -29 11 -8 15 -194 4 -201 -20 -12 -41 7 -56 49 -12 37 -12 43 0 38 8
-3 14 -13 14 -23 0 -11 5 -22 11 -26 8 -4 9 1 3 17 -4 13 -8 42 -8 63 -1 22
-6 41 -11 43 -6 2 -11 -9 -10 -24 0 -20 -5 -28 -17 -28 -10 0 -23 -6 -30 -13
-6 -6 -21 -12 -31 -12 -28 0 -88 31 -86 44 3 24 -1 37 -11 31 -5 -3 -10 -2
-10 4 0 6 -7 8 -15 5 -16 -6 -19 4 -9 30 7 18 25 22 22 5 -2 -6 3 -14 10 -16
6 -3 12 2 12 11 0 9 4 16 9 16 13 0 21 53 10 65 -5 5 -9 17 -9 27 0 11 -7 18
-20 18 -17 0 -19 -5 -15 -40z"/>
<path d="M15658 7212 c-10 -2 -18 -8 -18 -13 0 -5 -11 -9 -25 -9 -15 0 -25 -6
-25 -14 0 -17 -20 -24 -74 -28 -21 -1 -40 -8 -43 -14 -5 -13 -44 -7 -54 9 -4
5 -15 7 -25 3 -16 -6 -15 -8 5 -27 l21 -20 -26 -35 c-15 -18 -31 -34 -36 -34
-6 0 -6 5 1 14 6 7 9 21 5 30 -4 9 -1 16 6 16 9 0 9 4 -1 16 -12 14 -14 14
-20 -3 -4 -10 -3 -22 2 -27 16 -17 10 -26 -17 -26 -14 0 -23 -4 -19 -9 3 -6
-3 -14 -12 -20 -10 -5 -15 -13 -11 -17 5 -4 3 -14 -4 -21 -9 -11 -9 -17 3 -24
11 -8 10 -9 -6 -7 -14 2 -20 -3 -20 -17 0 -11 -8 -21 -18 -23 -31 -6 -20 -45
19 -65 l36 -18 28 28 c21 21 27 32 20 43 -7 11 -10 12 -10 2 0 -7 -4 -10 -10
-7 -17 10 -11 25 10 25 11 0 20 -5 20 -11 0 -5 4 -8 9 -5 5 4 7 -3 4 -14 -4
-14 0 -20 11 -20 19 0 22 -33 4 -47 -7 -6 -21 -9 -32 -7 -19 3 -76 -33 -76
-48 0 -4 7 -8 15 -8 21 0 19 -27 -3 -32 -11 -3 -23 2 -30 12 -7 12 -19 16 -36
13 -14 -3 -26 -1 -26 4 0 5 -12 15 -26 21 -14 7 -22 17 -19 22 3 6 0 10 -8 10
-8 0 -17 6 -20 14 -6 14 -57 29 -57 16 0 -4 -15 -15 -34 -24 -19 -9 -36 -22
-39 -29 -7 -21 -17 -2 -10 22 4 17 11 21 27 17 18 -4 24 1 34 26 6 18 9 34 5
37 -3 3 -8 1 -10 -5 -4 -13 -43 -7 -43 7 0 5 5 9 10 9 6 0 10 9 10 20 0 11 5
20 11 20 6 0 13 -9 16 -20 7 -27 29 -26 36 2 7 24 -17 88 -32 88 -6 0 -19 10
-31 22 l-20 22 0 -21 c0 -12 6 -23 13 -26 6 -2 9 -7 6 -11 -3 -4 -19 -2 -34 4
-22 8 -30 8 -37 -2 -6 -10 -8 -9 -8 4 0 9 5 20 10 23 8 5 8 11 0 20 -8 10 -7
14 2 18 7 2 10 8 5 12 -4 5 -12 4 -18 -2 -6 -6 -18 -9 -25 -6 -9 3 -14 -2 -14
-15 0 -18 -3 -19 -25 -9 -14 7 -25 18 -25 25 0 20 -22 14 -52 -15 -15 -15 -28
-22 -28 -15 0 7 -10 5 -29 -6 -23 -13 -27 -20 -20 -34 13 -24 11 -27 -9 -22
-9 3 -33 -1 -52 -10 -28 -11 -35 -20 -36 -45 -1 -19 -11 -39 -25 -51 -30 -25
-39 -25 -39 -1 0 18 -25 31 -64 31 -24 0 -48 -31 -35 -46 13 -16 0 -44 -18
-37 -10 4 -11 8 -3 13 7 4 -1 10 -20 13 -23 5 -36 2 -53 -13 -19 -18 -20 -23
-9 -41 15 -24 15 -24 -15 -33 -17 -6 -23 -3 -23 8 0 9 5 16 10 16 6 0 2 10
-10 22 l-20 22 -25 -24 c-14 -13 -25 -31 -26 -39 0 -11 -2 -12 -6 -3 -14 35
-60 -10 -48 -48 4 -13 1 -22 -9 -26 -9 -3 -16 -10 -16 -15 0 -6 8 -5 19 1 27
14 29 14 46 -20 20 -38 44 -40 42 -4 -1 15 4 29 12 32 8 3 11 0 7 -7 -5 -7 1
-11 14 -11 13 0 20 -5 17 -12 -2 -7 0 -22 6 -32 7 -15 6 -18 -7 -13 -21 8 -40
-27 -32 -59 6 -21 11 -23 41 -19 20 2 40 7 45 10 5 3 12 0 16 -6 10 -17 -39
-60 -72 -63 -58 -4 -82 -17 -93 -48 -14 -41 -14 -65 2 -71 7 -3 5 -6 -5 -6 -9
-1 -21 7 -27 17 -8 14 -12 15 -22 5 -17 -17 -39 -16 -60 3 -19 17 -15 43 8 57
19 12 16 27 -6 27 -29 0 -35 17 -11 30 33 18 26 41 -11 33 -25 -5 -31 -2 -36
16 -3 11 -12 21 -20 21 -8 0 -13 -6 -10 -13 3 -8 -6 -12 -28 -13 -28 -1 -31 2
-27 23 6 32 -26 31 -63 -1 -16 -14 -32 -23 -36 -20 -13 8 -37 -7 -42 -26 -3
-13 -11 -16 -33 -12 l-28 5 27 21 c20 16 24 25 16 39 -7 11 -7 17 1 17 5 0 11
15 11 33 1 17 3 24 6 15 2 -10 11 -18 19 -18 16 0 19 16 4 25 -5 3 -10 16 -10
27 l0 21 -19 -21 c-25 -30 -35 -27 -28 8 7 33 -8 51 -18 20 -3 -11 -13 -20
-21 -20 -9 0 -14 -11 -14 -30 0 -41 -18 -38 -26 5 -3 19 -12 39 -20 46 -8 6
-14 17 -14 24 0 20 -48 11 -65 -11 -13 -17 -14 -17 -15 -2 0 15 -4 15 -30 6
-24 -8 -29 -15 -25 -29 4 -11 2 -19 -4 -19 -6 0 -11 6 -11 13 -1 6 -6 3 -13
-8 -8 -13 -24 -21 -46 -22 -31 -1 -45 -11 -54 -38 -2 -6 -9 -6 -18 2 -11 9
-18 8 -32 -1 -18 -14 -24 -42 -7 -31 7 4 8 -3 4 -20 -5 -21 -2 -27 14 -31 14
-4 18 -12 15 -25 -4 -13 0 -19 13 -19 9 0 14 -3 11 -7 -4 -4 -26 -6 -50 -6
-24 1 -49 -5 -59 -14 -9 -8 -21 -12 -26 -9 -5 3 -9 0 -9 -7 3 -35 -17 -87 -35
-93 -10 -3 -25 -18 -31 -32 -15 -34 -25 -44 -58 -59 -21 -9 -26 -17 -22 -38 6
-27 77 -92 103 -92 8 -1 24 -4 35 -9 17 -6 18 -5 8 7 -7 9 -9 20 -3 29 8 13
11 12 24 -5 12 -16 16 -17 30 -6 14 12 16 10 16 -14 0 -36 20 -28 45 18 23 42
34 46 42 17 3 -11 9 -20 14 -20 11 0 11 2 -1 37 l-10 28 19 -22 c25 -30 27
-29 35 7 3 19 12 30 23 30 13 0 14 -3 5 -12 -13 -13 -17 -59 -4 -56 4 0 15 -2
25 -7 11 -4 27 -1 43 10 32 21 64 14 102 -23 16 -16 34 -26 40 -24 7 2 12 -3
12 -12 0 -10 6 -13 17 -9 13 5 15 2 10 -11 -4 -10 -7 -22 -7 -28 0 -6 -12 1
-26 16 -31 30 -53 34 -53 9 1 -10 -2 -28 -6 -41 -7 -20 -5 -22 16 -17 13 3 30
1 38 -4 11 -7 11 -14 -3 -41 -19 -40 -19 -37 0 -44 13 -5 15 -2 11 15 -4 14
-2 19 8 16 7 -3 17 -1 22 4 7 7 19 6 36 -2 34 -15 35 -29 2 -29 -28 0 -59 -27
-70 -59 -3 -12 -14 -22 -23 -22 -34 -3 -97 3 -119 12 -25 9 -31 34 -10 42 27
12 -18 25 -79 23 l-64 -1 0 47 c0 51 -2 53 -30 38 -14 -7 -19 -5 -23 10 -4 15
-10 18 -24 13 -47 -16 -58 -45 -16 -41 20 2 28 -2 31 -15 3 -16 -1 -17 -32
-11 -26 4 -43 2 -61 -10 -24 -16 -25 -15 -40 13 -18 36 -19 47 -2 34 6 -6 19
-10 28 -10 15 0 15 3 0 31 -10 18 -27 32 -40 34 -13 2 -26 12 -28 23 -7 26
-26 24 -39 -5 -8 -18 -8 -28 -1 -35 8 -8 8 -14 0 -22 -8 -8 -15 -4 -27 12 -9
13 -16 19 -16 13 0 -6 -10 -16 -22 -22 -22 -10 -22 -11 6 -11 23 -1 26 -4 17
-14 -6 -8 -8 -17 -4 -21 10 -10 12 -36 3 -36 -4 0 -10 7 -14 15 -6 18 -37 20
-54 3 -8 -8 -15 -8 -26 1 -12 10 -17 8 -26 -8 -6 -12 -17 -21 -25 -21 -20 0
-28 -17 -17 -36 8 -15 10 -15 15 0 4 9 16 16 28 16 18 0 20 -4 15 -25 -7 -27
0 -30 38 -15 19 7 26 17 26 35 0 15 4 24 10 20 6 -3 10 -15 10 -26 0 -21 7
-23 30 -9 12 8 12 10 -3 16 -9 3 -14 10 -11 15 3 5 13 5 24 -1 10 -5 29 -10
42 -10 19 -1 16 -4 -17 -22 -29 -16 -35 -23 -22 -26 11 -2 17 -13 17 -29 0
-34 21 -25 42 18 10 19 18 28 18 22 0 -7 7 -13 15 -13 8 0 15 4 15 8 0 5 18 8
41 8 33 0 38 -2 25 -12 -9 -6 -16 -16 -16 -23 0 -16 27 -14 34 4 6 16 35 10
48 -9 5 -7 12 -6 20 5 7 8 21 21 30 28 15 11 16 9 13 -18 -4 -32 11 -43 21
-16 4 8 13 15 21 15 8 0 12 -4 9 -9 -14 -22 7 -41 46 -41 35 0 39 2 28 15 -7
9 -23 13 -36 11 -17 -3 -24 0 -24 10 0 12 9 14 48 8 26 -3 54 -13 62 -21 13
-14 13 -15 -7 -10 -13 3 -23 1 -23 -4 0 -5 11 -9 25 -9 14 0 25 5 25 10 0 14
32 12 82 -4 24 -8 76 -16 116 -19 58 -3 72 -2 72 10 0 8 -4 11 -10 8 -5 -3
-10 -1 -10 4 0 14 -36 14 -62 0 -23 -13 -31 -8 -22 15 3 9 17 16 29 16 13 0
27 5 30 10 5 8 12 7 22 -1 12 -10 17 -10 25 2 7 10 11 11 14 2 8 -18 34 -4 27
14 -11 28 30 -2 62 -46 33 -45 59 -58 80 -41 9 7 15 8 20 0 3 -5 12 -10 18
-10 7 0 4 7 -6 14 -14 11 -16 22 -11 60 6 43 5 46 -17 47 -13 1 -30 1 -36 0
-7 -1 -13 3 -13 9 0 5 3 10 8 11 4 0 19 2 35 4 26 4 55 -24 40 -39 -3 -3 -1
-6 5 -6 7 0 12 -15 12 -32 0 -18 7 -41 14 -50 17 -23 27 -23 19 -1 -5 12 -2
15 13 11 17 -4 19 0 16 36 -3 27 -11 47 -25 58 l-22 18 23 0 c16 0 22 6 22 23
0 20 2 20 20 -8 11 -16 21 -25 21 -20 1 6 3 15 3 20 1 11 9 15 27 15 6 0 8 -9
4 -20 -5 -16 -2 -20 16 -18 27 4 37 -18 12 -25 -17 -4 -17 -5 0 -6 21 -1 22
-14 2 -31 -17 -14 -3 -40 21 -40 8 0 14 -6 14 -12 0 -7 5 -5 11 5 5 9 16 17
23 17 18 0 49 -37 42 -49 -4 -5 -2 -12 4 -16 5 -3 10 0 10 8 0 18 24 39 33 30
4 -3 2 -12 -4 -19 -7 -9 -6 -14 2 -20 7 -4 15 -2 17 4 7 22 52 9 90 -25 19
-18 29 -16 29 5 -1 60 4 83 16 80 6 -3 12 -9 13 -14 1 -19 40 -74 52 -74 6 0
12 3 12 6 0 10 -23 48 -38 64 -14 13 -14 15 1 18 9 2 17 8 17 14 0 7 4 7 13
-1 18 -15 29 -3 17 19 -8 15 -4 18 28 23 20 4 41 2 46 -3 6 -6 18 -10 27 -10
9 0 22 -7 30 -16 10 -13 10 -17 -2 -25 -9 -6 -10 -9 -2 -9 7 0 16 -12 19 -27
4 -16 14 -35 23 -43 9 -8 17 -23 18 -33 1 -15 -4 -17 -23 -13 -16 4 -24 2 -24
-7 0 -17 33 -34 91 -46 25 -6 58 -17 75 -26 16 -8 41 -15 57 -15 15 0 27 -4
27 -9 0 -7 133 -71 149 -71 4 0 6 25 4 56 -2 38 1 60 11 70 20 20 25 18 37
-13 8 -21 6 -30 -6 -42 -15 -15 -16 -14 -13 9 2 14 -1 25 -7 25 -5 0 -9 -7 -8
-15 2 -8 6 -37 10 -63 8 -46 11 -50 63 -79 37 -20 62 -28 81 -24 31 6 43 -2
29 -19 -7 -8 4 -22 37 -46 44 -31 158 -127 228 -191 34 -32 61 -35 93 -12 12
8 22 12 22 7 0 -4 4 -2 9 6 5 7 15 11 22 9 12 -4 2 -17 -45 -56 -22 -18 -21
-22 25 -70 28 -30 47 -42 59 -39 11 3 21 -1 24 -9 3 -8 11 -14 17 -14 8 0 7 5
-2 16 -12 15 -10 16 24 12 l37 -4 0 78 c0 63 -3 78 -15 78 -8 0 -15 4 -15 8 0
5 -13 8 -30 7 -31 -2 -50 16 -64 62 -6 18 -4 21 15 16 18 -5 21 -3 16 10 -3 9
-2 19 3 22 15 9 12 34 -5 51 -8 9 -15 24 -15 34 0 22 22 39 28 22 2 -7 7 -10
12 -7 4 3 13 -9 19 -25 7 -20 17 -30 30 -30 25 0 26 8 7 29 -8 9 -16 30 -18
46 -2 24 1 30 15 29 13 -1 17 6 17 38 0 38 -1 40 -25 34 -14 -4 -25 -4 -25 -1
0 3 11 23 25 43 24 36 25 41 25 212 0 108 -4 180 -10 186 -8 8 -8 19 0 38 5
15 10 39 10 53 0 22 -3 24 -26 19 -19 -5 -24 -4 -20 6 3 7 9 21 12 31 4 10 13
16 20 13 12 -5 14 74 14 486 0 270 -3 488 -7 485 -3 -4 -13 -1 -21 6 -12 9
-16 9 -19 -1 -3 -8 -11 -5 -24 10 -15 19 -18 20 -19 6 0 -15 -4 -16 -27 -6
-16 6 -37 20 -47 29 -19 17 -20 17 -30 -3 -6 -12 -17 -24 -25 -26 -11 -4 -13
2 -8 25 6 32 -7 53 -32 53 -13 0 -14 -2 -2 -9 11 -7 11 -13 -3 -32 -12 -18
-16 -20 -16 -7 0 9 -7 21 -16 26 -14 8 -14 10 0 21 22 19 20 34 -4 28 -10 -3
-20 -2 -22 2 -2 4 -11 5 -20 3z m241 -1214 c10 -16 10 -23 2 -26 -6 -2 -11
-11 -11 -19 0 -11 7 -14 23 -9 17 4 30 -1 47 -19 19 -20 20 -25 8 -25 -9 0
-18 5 -20 12 -2 6 -12 12 -21 14 -13 2 -16 -3 -12 -16 4 -13 -1 -19 -22 -25
-28 -7 -93 -66 -93 -85 0 -5 -16 -10 -35 -10 -19 0 -35 -4 -35 -9 0 -15 -30
-41 -46 -41 -8 0 -14 7 -14 15 0 8 -12 22 -26 31 l-26 17 34 32 c34 33 46 31
62 -10 8 -19 8 -19 17 4 6 16 14 21 25 17 13 -5 15 -2 11 14 -3 11 -1 23 4 26
5 3 6 10 3 16 -4 6 -9 5 -15 -3 -4 -7 -11 -10 -15 -6 -4 4 -2 13 4 19 9 9 18
8 37 -2 28 -15 44 -7 26 14 -9 11 -7 15 14 20 17 4 25 12 23 24 -2 9 4 18 12
18 8 1 19 2 24 3 5 0 3 8 -4 16 -7 8 -8 15 -4 15 5 0 15 -10 23 -22z"/>
<path d="M12118 6094 c-12 -11 -10 -66 2 -59 12 7 13 -15 2 -31 -13 -19 -42
-25 -42 -9 0 22 -27 18 -33 -5 -7 -27 2 -31 59 -25 32 3 51 1 56 -8 5 -7 6 0
2 16 -5 21 -3 27 10 27 9 0 16 -8 16 -19 0 -16 18 -31 36 -31 2 0 4 19 4 43 1
33 3 38 11 25 15 -27 36 -22 37 10 0 21 -7 31 -35 45 -40 20 -114 33 -125 21z"/>
<path d="M10313 5556 c4 -11 2 -43 -4 -73 -10 -41 -16 -53 -31 -53 -11 0 -16
-4 -13 -10 4 -6 -28 -10 -87 -11 -51 -1 -104 -5 -118 -9 -23 -7 -23 -8 -3 -9
12 -1 23 -4 26 -8 2 -5 2 -2 1 5 -4 13 17 15 54 6 15 -4 22 -14 22 -30 0 -21
-5 -24 -40 -24 -23 0 -40 -5 -40 -11 0 -8 -44 -10 -160 -4 -114 5 -160 4 -160
-4 0 -6 -13 -11 -30 -11 -16 0 -30 -4 -30 -8 0 -12 67 -72 79 -72 6 0 21 -11
35 -25 19 -18 36 -25 66 -25 27 0 40 -4 40 -14 0 -11 -34 -15 -160 -21 -88 -4
-162 -10 -164 -14 -2 -3 44 -5 102 -3 59 2 103 0 99 -4 -11 -11 -301 -24 -311
-14 -6 6 5 7 27 3 33 -5 37 -3 37 15 0 23 -27 42 -58 42 -11 0 -31 17 -47 40
-34 49 -68 59 -149 47 -65 -10 -81 -23 -91 -74 -3 -18 -11 -33 -17 -33 -6 0
-8 -11 -6 -25 4 -20 -1 -28 -25 -40 -17 -8 -38 -15 -48 -15 -12 0 -21 -10 -25
-25 -5 -19 -11 -24 -25 -20 -11 4 -19 5 -20 3 -3 -20 -5 -77 -2 -60 3 13 10
21 16 19 16 -5 16 -62 0 -62 -6 0 -15 -3 -19 -7 -4 -5 -16 -8 -26 -8 -11 0
-18 -7 -18 -21 0 -19 4 -18 65 16 36 19 66 33 66 30 1 -3 2 -10 3 -15 1 -11
25 -30 39 -30 5 0 6 4 2 9 -3 5 3 12 12 14 10 2 6 3 -9 1 -20 -2 -28 1 -28 11
0 8 4 15 8 15 4 0 8 24 8 54 0 30 6 61 13 70 17 20 51 21 51 0 0 -8 -5 -12
-11 -8 -6 3 -10 -1 -9 -12 4 -39 0 -64 -11 -61 -6 1 -13 -3 -16 -10 -3 -8 9
-11 41 -9 33 2 49 -2 60 -16 10 -11 29 -18 53 -18 40 0 100 -30 109 -55 4 -8
11 -15 16 -15 5 0 21 -9 35 -20 37 -29 41 -17 9 25 -24 31 -26 41 -20 83 5 34
9 42 14 27 6 -17 8 -16 14 10 4 16 10 24 14 18 4 -6 42 -14 85 -18 42 -4 77
-11 77 -16 0 -5 17 -16 37 -24 28 -12 38 -13 44 -3 9 14 79 -29 79 -49 0 -8
15 -13 40 -13 26 0 40 4 40 13 0 9 38 18 133 29 113 14 133 14 140 2 4 -8 14
-14 22 -14 7 0 15 -6 18 -12 5 -17 -2 32 -9 54 -8 28 35 59 81 58 52 -1 198
32 219 49 8 7 23 11 31 7 10 -3 15 1 17 14 0 11 1 26 2 33 1 9 -29 11 -126 8
-85 -2 -128 0 -128 7 0 6 12 13 28 15 22 3 20 4 -10 6 l-36 1 14 30 c9 16 20
32 25 35 5 4 7 11 3 16 -3 5 10 16 30 24 19 8 37 19 41 25 3 5 14 10 23 10 10
0 24 9 31 19 8 11 20 17 28 14 8 -3 13 2 13 13 0 9 7 25 16 35 15 17 13 22
-41 74 -31 30 -63 55 -71 55 -8 0 -14 5 -14 10 0 6 -5 10 -11 10 -6 0 -27 12
-47 28 -30 22 -35 24 -29 8z"/>
<path d="M8295 4994 c-16 -2 -102 -5 -190 -6 l-160 -3 -9 -27 c-5 -15 -6 -31
-2 -35 4 -5 120 -9 258 -11 228 -3 250 -2 244 13 -3 9 -6 30 -6 46 0 29 -1 29
-52 27 -29 0 -66 -3 -83 -4z"/>
<path d="M7409 4976 c-5 -5 -772 -20 -859 -17 -63 2 -66 1 -100 -35 l-35 -37
430 6 c237 4 508 7 602 7 l173 0 15 36 c8 20 15 38 15 40 0 5 -235 5 -241 0z"/>
<path d="M3199 4935 c-33 -34 -39 -36 -122 -42 -68 -5 -87 -9 -83 -20 3 -7 1
-13 -4 -13 -6 0 -10 -6 -10 -14 0 -27 97 -25 163 3 58 25 89 22 52 -5 -18 -14
-8 -15 100 -13 66 1 139 4 163 7 39 4 42 7 42 33 l0 29 -117 0 -118 0 29 24
30 23 -30 5 c-16 3 -36 8 -44 12 -10 4 -28 -6 -51 -29z"/>
<path d="M5530 4939 c-190 -4 -529 -10 -755 -14 -225 -3 -427 -10 -447 -15
-26 -5 -36 -4 -31 3 4 6 -4 7 -23 3 -15 -4 -95 -7 -177 -7 -131 1 -148 -1
-137 -14 7 -8 19 -15 26 -15 8 0 14 -7 14 -16 0 -15 19 -16 192 -11 127 3 194
9 196 16 2 6 8 11 13 11 6 0 7 -4 4 -10 -7 -11 516 -14 653 -3 71 5 82 8 82
24 0 11 4 19 9 19 5 0 7 -9 4 -21 l-6 -21 504 6 c618 8 618 8 655 47 l29 30
-230 -3 c-127 -2 -385 -6 -575 -9z"/>
<path d="M2467 4881 l-57 -6 25 -27 c25 -28 27 -28 149 -28 90 0 125 3 129 13
5 15 -9 57 -20 57 -18 -1 -35 -19 -28 -30 5 -8 3 -11 -6 -8 -8 3 -13 11 -11
17 1 6 -1 11 -5 12 -40 5 -129 5 -176 0z"/>
<path d="M6250 4693 c-11 -38 -24 -75 -27 -83 -3 -8 -7 -35 -9 -60 -1 -38 -21
-183 -39 -292 -4 -26 -2 -28 31 -28 29 0 35 3 30 16 -3 8 -2 13 3 10 5 -3 11
29 14 72 3 42 10 100 16 127 5 28 13 107 17 178 8 147 -2 165 -36 60z"/>
<path d="M3820 4156 c0 -20 1 -37 3 -37 6 -3 1039 -24 1047 -21 12 4 14 32 3
32 -104 7 -209 12 -448 21 -159 5 -309 13 -332 16 -35 4 -43 2 -43 -11 0 -20
4 -20 -63 3 -30 11 -80 22 -111 26 l-56 7 0 -36z"/>
<path d="M5197 4124 c-28 -28 -1 -31 311 -38 174 -3 386 -9 470 -12 150 -6
152 -6 152 15 0 20 -5 21 -87 22 -49 0 -135 2 -193 4 -267 10 -647 15 -653 9z"/>
<path d="M2578 3793 l-3 -48 -56 -3 c-49 -3 -58 -6 -63 -25 -14 -55 -17 -53
147 -61 83 -3 179 -9 213 -12 l61 -6 11 70 c21 126 27 118 -85 125 -54 4 -126
7 -160 7 l-62 0 -3 -47z"/>
</g>
</svg>
