<?xml version="1.0" standalone="no"?>
<!DOCTYPE svg PUBLIC "-//W3C//DTD SVG 20010904//EN"
 "http://www.w3.org/TR/2001/REC-SVG-20010904/DTD/svg10.dtd">
<svg version="1.0" xmlns="http://www.w3.org/2000/svg"
 width="1600.000000pt" height="739.000000pt" viewBox="0 0 1600.000000 739.000000"
 preserveAspectRatio="xMidYMid meet">
<metadata>
Created by potrace 1.16, written by Peter Selinger 2001-2019
</metadata>
<g transform="translate(0.000000,739.000000) scale(0.100000,-0.100000)"
fill="#000000" stroke="none">
<path d="M1115 7380 c-3 -5 -2 -36 4 -67 11 -73 10 -133 -3 -134 -6 -1 -24 0
-40 1 -16 1 -32 -4 -37 -11 -6 -10 -11 -10 -23 0 -11 10 -13 17 -6 26 5 6 7
15 4 18 -8 8 -91 -2 -126 -15 -31 -12 -27 -30 5 -26 17 2 23 -3 25 -20 2 -14
16 -31 33 -40 19 -11 28 -23 25 -34 -2 -10 2 -22 9 -28 8 -6 11 -18 8 -26 -4
-12 0 -14 21 -8 31 7 36 -11 6 -21 -11 -3 -20 -10 -20 -15 0 -9 -39 -23 -57
-21 -9 1 -11 -8 -6 -30 5 -24 3 -31 -8 -27 -15 5 -39 -14 -39 -32 0 -7 6 -10
13 -7 19 7 51 -19 41 -34 -4 -7 -7 -28 -6 -46 2 -24 -2 -33 -13 -33 -9 0 -14
4 -10 9 3 5 1 12 -4 15 -5 4 -12 2 -16 -4 -3 -5 -17 -10 -30 -10 -13 0 -29 -8
-34 -17 -8 -14 -13 -15 -19 -5 -10 15 -42 5 -42 -14 0 -8 -6 -11 -15 -8 -19 8
-20 -12 -2 -23 8 -4 17 -21 21 -38 6 -26 5 -28 -6 -14 -17 21 -46 31 -53 19
-4 -6 -1 -10 5 -10 6 0 8 -5 5 -11 -5 -6 -11 -4 -19 7 -11 14 -16 15 -37 3
-13 -8 -27 -18 -30 -23 -8 -10 -49 11 -49 24 0 6 -8 10 -17 9 -11 0 -13 -3 -5
-6 6 -2 12 -11 12 -19 0 -8 5 -14 10 -14 6 0 10 -9 10 -19 0 -11 -4 -23 -10
-26 -5 -3 -10 -1 -10 4 0 6 -7 11 -15 11 -18 0 -20 16 -2 23 6 3 -1 10 -18 16
-20 9 -31 9 -33 2 -5 -16 -42 6 -42 24 0 8 4 15 10 15 5 0 9 -5 7 -12 -1 -7
11 -12 30 -13 28 0 31 3 27 21 -4 15 4 27 30 45 34 23 41 36 37 68 -2 7 2 10
8 6 6 -3 11 -2 11 3 0 6 14 15 30 21 17 5 30 13 30 16 0 3 -5 3 -12 -1 -8 -5
-9 -2 -5 9 3 10 2 17 -3 17 -5 0 -11 -8 -13 -17 -3 -11 -5 -7 -6 10 -1 17 4
27 13 27 8 0 17 6 19 13 4 7 8 3 13 -11 5 -16 12 -21 25 -17 11 4 19 2 19 -5
0 -6 -4 -9 -9 -5 -18 11 -7 -36 13 -53 18 -16 19 -16 13 1 -5 12 -1 17 13 17
11 0 22 -1 23 -2 2 -2 12 3 21 11 11 10 14 17 7 24 -7 7 -5 14 6 23 15 10 15
14 4 28 -8 9 -20 15 -26 12 -7 -2 -18 1 -24 7 -9 9 -14 9 -19 0 -10 -15 -42
-18 -72 -5 -25 11 -25 11 8 11 17 1 32 6 32 12 0 5 -4 8 -8 5 -5 -3 -16 3 -25
12 -26 28 -47 43 -47 35 0 -4 -4 -2 -9 6 -5 8 -11 9 -15 3 -3 -6 0 -16 7 -24
22 -21 28 -74 12 -88 -8 -7 -15 -25 -15 -41 0 -15 -5 -31 -12 -35 -8 -5 -9 0
-5 15 4 18 3 20 -8 11 -10 -8 -14 -7 -18 2 -3 7 -10 -1 -17 -19 -7 -18 -15
-33 -19 -33 -4 0 -13 -12 -20 -26 -7 -16 -17 -24 -25 -21 -9 4 -16 -3 -20 -18
-3 -12 -12 -25 -20 -28 -19 -8 -27 39 -10 54 8 6 14 23 14 38 l-1 26 -14 -30
-15 -30 6 43 c4 28 2 42 -6 42 -6 0 -8 -5 -5 -11 4 -5 -1 -19 -11 -30 -15 -16
-16 -22 -5 -28 9 -6 10 -11 2 -15 -7 -5 -7 -15 -1 -31 10 -26 4 -31 -19 -16
-15 9 -24 59 -25 131 -1 37 3 47 21 55 13 5 23 16 23 23 0 7 10 17 23 22 32
13 50 31 70 69 l17 33 -32 -19 c-18 -11 -34 -29 -36 -41 -4 -23 -22 -31 -23
-9 0 6 -4 2 -9 -10 -5 -13 -14 -23 -20 -23 -5 0 -10 -7 -10 -16 0 -13 -2 -13
-17 2 -15 15 -18 36 -18 128 0 61 2 149 5 196 l5 85 -49 -4 c-28 -2 -59 3 -73
10 -19 10 -28 10 -43 1 -11 -7 -26 -12 -34 -12 -8 0 -16 -5 -18 -12 -3 -9 -22
-8 -75 5 -39 9 -74 17 -77 17 -3 0 -6 -380 -6 -845 0 -794 1 -845 18 -846 14
0 14 -2 -3 -9 -15 -6 -8 -9 30 -10 38 -1 45 -4 30 -10 -11 -5 -32 -9 -47 -9
-27 -1 -28 -3 -28 -55 l0 -53 73 -7 c39 -4 79 -6 87 -6 80 8 360 9 360 2 0 -5
9 -12 21 -15 12 -3 18 -10 14 -16 -3 -7 2 -11 14 -11 15 0 19 4 14 18 -4 9
-11 21 -17 25 -8 5 659 3 680 -3 9 -2 9 -40 0 -43 -6 -2 -2 -2 9 0 11 3 55 10
98 17 64 10 77 10 77 -1 0 -7 -7 -13 -15 -13 -19 0 -55 -20 -73 -40 -7 -8 -11
-10 -8 -3 13 24 -13 22 -33 -3 -15 -19 -21 -22 -21 -10 0 23 -16 20 -34 -6
l-16 -22 0 27 c0 31 -6 33 -31 11 -16 -15 -20 -14 -40 5 -30 28 -54 29 -39 1
8 -15 6 -21 -10 -30 -16 -9 -20 -8 -20 5 0 9 -5 13 -11 9 -6 -3 -57 -6 -113
-6 -55 1 -110 -2 -121 -7 -20 -8 -9 -9 115 -14 25 -1 48 -6 52 -12 5 -6 8 -5
8 3 0 6 9 12 20 12 27 0 26 -4 -14 -43 -33 -33 -33 -33 -102 -26 -57 6 -416
17 -686 21 -59 0 -68 3 -68 19 0 16 -9 18 -85 16 l-85 -2 0 -105 c0 -58 4
-120 9 -138 6 -20 6 -32 0 -32 -5 0 -9 -11 -9 -25 0 -19 5 -25 21 -25 16 0 19
3 12 13 -8 10 -10 50 -4 78 0 4 11 5 24 4 12 -1 43 -3 70 -4 34 -1 47 -5 47
-16 0 -10 10 -15 34 -15 l33 0 7 -60 7 -60 49 0 c64 0 65 -14 2 -18 -26 -2
-49 -7 -50 -13 -5 -11 -78 -11 -160 1 -35 5 -70 6 -78 3 -21 -8 -18 -53 4 -53
9 -1 165 -2 345 -4 180 -2 330 -6 333 -8 2 -3 2 -24 -2 -48 l-7 -42 -96 6
c-53 3 -195 8 -315 11 -121 2 -225 6 -233 9 -24 10 -43 -6 -43 -35 0 -16 3
-30 8 -30 31 -6 105 -7 370 -9 l303 -1 59 -61 59 -61 77 6 c97 9 146 38 193
115 11 18 36 6 38 -18 1 -14 -5 -20 -20 -20 -28 0 -10 -17 23 -22 22 -3 25 -9
28 -45 l3 -43 -53 -2 -53 -2 48 -3 c45 -4 61 -16 35 -26 -10 -4 -10 -6 0 -6 6
-1 12 -7 12 -15 0 -9 -17 -17 -47 -21 l-48 -8 44 -9 43 -10 -6 -46 c-4 -26
-15 -85 -27 -132 -11 -47 -32 -146 -47 -220 l-27 -134 -35 -7 c-19 -4 -154
-12 -300 -19 -146 -6 -303 -16 -350 -21 -47 -6 -140 -10 -207 -9 l-123 1 0
-293 0 -294 68 4 c37 2 112 7 167 12 55 4 141 11 190 14 129 9 299 26 303 31
21 21 107 167 162 278 48 94 70 130 70 112 0 -15 -6 -39 -14 -53 -7 -15 -26
-54 -42 -87 -39 -80 -140 -251 -178 -298 -17 -22 -49 -60 -71 -86 -22 -26 -58
-70 -80 -97 -102 -127 -380 -384 -517 -479 -32 -22 -58 -46 -58 -52 0 -19 22
-16 45 7 11 11 49 43 85 71 158 122 335 288 472 443 24 26 74 89 111 140 37
50 76 94 85 97 9 4 70 10 134 14 l118 7 -3 -124 c-3 -160 9 -409 24 -493 6
-36 9 -69 5 -72 -3 -3 -50 -9 -103 -13 -54 -4 -140 -17 -192 -29 -65 -15 -97
-19 -105 -11 -13 13 -29 13 -21 0 3 -5 -1 -10 -10 -10 -13 0 -14 4 -5 20 6 11
17 20 25 20 16 0 20 16 6 24 -5 3 -11 -1 -15 -9 -4 -10 -14 -13 -34 -9 -17 3
-32 1 -36 -5 -5 -7 -1 -9 8 -5 9 4 16 1 16 -6 0 -9 -11 -11 -37 -7 l-38 6 25
-20 c14 -11 18 -19 10 -17 -8 3 -39 -1 -70 -9 -65 -15 -120 -17 -120 -3 0 5
17 14 37 20 21 5 54 14 73 20 l35 10 -35 -5 c-25 -4 -31 -2 -20 5 11 7 11 10
2 10 -7 0 -11 4 -8 9 10 16 -17 18 -44 4 -15 -8 -26 -9 -28 -3 -6 16 -22 12
-22 -5 0 -17 -16 -20 -25 -5 -4 6 -11 8 -16 4 -5 -3 -7 -10 -4 -15 3 -5 -2 -6
-12 -3 -12 4 -10 -1 7 -15 25 -20 25 -20 5 -35 -13 -9 -24 -11 -31 -5 -8 7
-14 5 -16 -3 -3 -9 -28 -13 -80 -14 -42 -1 -80 -4 -85 -7 -5 -3 -33 -9 -61
-13 l-52 -7 0 -263 0 -264 51 0 c31 0 48 4 44 10 -4 6 6 10 22 11 15 0 37 2
48 4 39 8 111 8 171 0 40 -5 63 -4 68 3 3 6 -8 10 -30 10 -19 0 -38 3 -41 6
-6 6 44 10 78 7 9 -1 28 3 42 8 15 6 27 7 27 2 0 -5 -6 -11 -12 -14 -32 -11 2
-12 42 -1 25 7 37 13 28 13 -10 1 -18 6 -18 12 0 6 9 9 20 6 10 -3 20 -1 22 3
2 4 29 9 60 12 41 3 55 1 49 -6 -6 -7 0 -11 21 -12 17 -1 24 2 18 6 -9 5 -5
10 11 15 27 9 30 8 27 -2 -2 -5 -7 -7 -13 -5 -7 2 -7 0 0 -6 14 -15 56 -17 86
-5 14 6 37 9 51 6 15 -3 37 2 51 12 15 9 31 14 37 10 5 -3 10 -4 10 0 0 3 -10
9 -22 14 -18 6 -13 9 28 14 52 6 68 5 126 -7 21 -5 36 -12 33 -16 -3 -5 -13
-6 -23 -3 -9 2 -38 -5 -62 -16 -25 -11 -38 -20 -30 -21 67 -5 122 -4 126 2 3
5 12 8 20 8 19 0 18 -29 -2 -37 -10 -4 -14 -13 -10 -26 7 -30 -11 -47 -49 -47
-35 0 -95 -41 -95 -65 0 -14 -51 -25 -118 -25 -31 0 -42 -4 -39 -12 3 -9 22
-12 62 -9 l57 3 -5 -38 c-4 -22 -9 -56 -13 -76 l-6 -37 52 4 c41 2 50 0 46
-11 -6 -17 6 -18 21 -3 7 7 19 8 30 4 10 -4 27 -9 38 -10 11 -1 47 -12 79 -24
46 -17 71 -21 110 -16 66 8 149 35 158 50 4 7 42 15 88 19 45 4 102 14 128 21
26 8 99 19 162 24 133 11 180 23 205 51 15 16 31 20 82 20 73 0 153 17 168 35
10 13 261 97 325 110 19 4 91 24 160 45 69 21 141 41 161 44 21 4 42 13 49 21
7 8 21 15 32 15 10 0 35 8 56 17 20 9 51 17 69 18 22 2 42 13 66 39 29 30 41
36 76 36 29 0 41 4 41 14 0 9 12 16 28 18 18 2 28 10 30 23 2 12 18 27 40 37
29 13 31 16 10 11 -32 -6 -38 10 -10 26 10 6 12 11 4 11 -7 0 -10 5 -7 11 4 5
-10 3 -32 -6 -28 -12 -53 -15 -95 -10 -51 5 -59 4 -70 -15 -7 -11 -17 -20 -23
-20 -6 0 -32 -22 -58 -49 -43 -44 -73 -59 -130 -66 -10 -1 -34 -9 -55 -17 -73
-30 -110 -38 -148 -34 -21 2 -33 2 -26 -1 25 -10 10 -21 -65 -51 -90 -35 -197
-58 -301 -66 -71 -5 -72 -4 -87 23 -8 16 -21 31 -30 35 -9 3 -15 14 -13 23 1
10 0 23 -4 28 -3 6 -8 48 -10 95 l-3 84 83 12 c46 7 101 19 122 28 23 9 52 13
68 10 17 -4 41 0 58 9 16 8 73 17 129 20 55 3 152 17 215 30 63 14 151 28 195
31 44 4 116 14 160 22 175 31 304 47 393 49 113 2 130 13 76 50 -98 66 -144
95 -151 96 -5 0 -39 21 -77 47 -49 33 -70 54 -73 71 -2 14 -6 27 -10 30 -3 3
-3 -4 0 -16 8 -34 -11 -29 -85 25 -36 26 -74 52 -84 59 -18 11 -18 12 0 12 11
1 29 -7 40 -16 l21 -18 -20 23 c-12 15 -27 22 -40 19 -11 -3 -56 -14 -100 -25
-44 -11 -129 -23 -190 -26 -60 -4 -139 -11 -175 -16 -36 -5 -123 -12 -195 -15
-71 -4 -166 -13 -210 -22 -44 -9 -110 -19 -147 -22 l-68 -7 0 36 c-1 19 -7 46
-15 60 -8 14 -14 46 -15 71 0 31 -6 53 -20 69 -24 27 -24 42 -6 95 11 31 13
73 9 181 -6 133 -5 142 13 147 10 3 84 8 164 12 80 3 289 17 465 30 176 13
345 25 375 26 l55 2 -6 101 c-4 56 -7 162 -8 236 -1 74 -5 141 -10 149 -8 12
-33 13 -143 8 -73 -4 -284 -14 -468 -24 -381 -19 -427 -20 -437 -9 -8 8 -11
402 -3 409 3 3 145 6 315 8 l311 4 44 -36 c44 -35 110 -72 117 -66 1 2 -19 18
-46 35 -51 33 -77 59 -69 68 3 2 91 6 196 8 170 3 191 2 195 -13 3 -9 5 -2 6
16 1 26 -2 30 -18 26 -10 -3 -22 0 -25 6 -4 6 -13 11 -21 11 -7 0 -51 14 -96
32 -71 27 -80 32 -60 40 13 4 27 6 32 3 5 -3 35 0 68 6 52 11 62 11 85 -4 17
-12 26 -27 27 -45 0 -15 3 -21 6 -14 2 6 11 12 19 12 9 0 12 -5 8 -12 -4 -7
-3 -8 5 -4 6 4 9 12 6 17 -4 5 1 12 9 15 9 3 16 15 16 26 0 14 5 18 16 14 9
-3 22 -6 30 -6 8 0 14 -7 14 -16 0 -12 7 -15 27 -11 28 5 73 -29 73 -56 0 -16
71 -40 93 -31 21 8 24 20 25 89 0 67 2 68 62 30 33 -21 40 -31 46 -71 6 -41 9
-45 28 -39 11 3 28 7 36 8 8 1 28 11 44 22 17 11 38 19 47 17 15 -3 16 2 7 40
-5 24 -13 47 -19 52 -5 6 -9 20 -9 33 0 13 -9 31 -20 40 -11 10 -20 25 -20 34
0 16 38 39 65 39 8 0 15 4 15 9 0 5 20 6 45 3 29 -3 50 0 60 8 11 9 52 13 128
14 105 0 118 -2 218 -37 65 -24 119 -50 138 -68 46 -42 103 -47 538 -45 373 1
373 1 373 -20 0 -20 -5 -21 -112 -20 -223 2 -628 -8 -641 -16 -6 -4 51 -9 128
-10 l140 -2 -180 -6 c-111 -4 -151 -7 -105 -9 41 -2 65 -6 53 -8 -13 -2 -23
-9 -23 -14 0 -13 88 -11 92 3 3 8 39 11 120 9 74 -1 118 2 123 8 4 7 -5 11
-24 11 -17 0 -31 3 -31 8 0 4 64 6 143 5 78 0 182 -2 230 -2 59 -1 86 -5 82
-11 -4 -7 -24 -9 -48 -6 -23 3 -107 2 -187 -3 -89 -5 -118 -9 -76 -9 38 -1 67
-5 63 -8 -3 -3 -90 -6 -193 -6 -110 0 -181 -4 -173 -9 11 -7 10 -9 -4 -9 -33
0 -8 -18 36 -26 23 -4 132 -8 242 -8 l200 -1 72 -37 c79 -42 84 -44 80 -25 -1
9 57 14 253 19 140 3 314 9 385 11 72 3 187 6 257 6 123 1 127 2 130 24 3 25
-47 22 673 47 l370 12 69 -26 c84 -32 86 -32 86 -2 0 21 4 24 28 21 15 -2 43
-10 62 -18 19 -8 47 -17 63 -21 24 -6 27 -4 27 19 0 23 4 25 48 26 26 0 65 4
87 8 l40 7 -70 13 c-73 13 -104 25 -93 37 8 7 159 -10 288 -34 92 -17 461 -18
490 -1 10 6 3 9 -25 9 -22 0 -83 7 -135 15 -52 8 -138 20 -190 26 -52 5 -140
16 -195 24 -55 8 -125 17 -156 20 -55 7 -56 7 -45 31 10 22 17 24 79 24 l67 0
0 40 c0 22 4 40 8 40 5 0 16 6 26 13 17 13 17 14 2 20 -10 4 -25 -2 -38 -15
-16 -16 -37 -22 -89 -26 -48 -3 -69 -1 -69 7 0 6 -11 11 -25 11 -14 0 -25 -4
-25 -10 0 -17 -147 -12 -181 6 -35 18 -34 34 4 52 21 10 27 20 27 46 0 32 2
34 40 38 22 2 42 -1 44 -7 2 -5 5 -4 5 3 1 10 6 10 21 2 26 -14 28 10 3 32
-39 34 -110 29 -97 -7 5 -12 -2 -15 -32 -15 -45 0 -356 39 -363 45 -2 3 2 12
10 21 13 16 11 17 -13 12 -36 -7 -36 5 0 20 24 10 23 11 -18 6 -25 -3 -51 -13
-58 -22 -9 -12 -15 -13 -24 -4 -7 7 -19 12 -28 11 -10 0 -11 -2 -2 -6 6 -2 10
-8 8 -11 -5 -8 -274 2 -321 11 -16 4 -22 4 -12 1 34 -11 5 -24 -51 -24 -56 1
-57 1 -27 15 23 10 26 14 10 14 -33 1 -65 -11 -65 -24 0 -7 -14 -15 -31 -19
-49 -9 -129 -7 -129 4 0 6 -5 10 -11 10 -5 0 -7 -4 -4 -10 8 -12 -82 -13 -140
-1 -39 9 -39 9 19 10 72 1 70 8 -4 14 -30 3 -75 9 -100 13 -50 8 -49 -4 2 -17
22 -5 12 -6 -32 -2 -70 6 -114 21 -70 24 36 2 -67 17 -120 17 l-45 0 35 -13
35 -14 -55 4 c-30 1 -77 4 -105 5 l-50 3 45 7 c28 5 -7 7 -95 6 -77 0 -264 2
-415 6 -431 12 -1066 23 -1444 26 -149 1 -355 20 -370 33 -9 8 242 2 255 -7 4
-2 87 0 185 6 99 5 260 12 359 17 99 4 162 9 140 11 -22 2 -44 8 -50 13 -6 6
22 9 83 7 50 -2 92 0 92 4 0 5 -30 8 -67 8 -38 0 -75 5 -83 10 -11 7 2 10 43
10 l57 0 0 38 c0 48 5 54 37 39 21 -9 24 -16 20 -44 -5 -30 -4 -33 26 -37 168
-25 1123 -42 1130 -21 2 6 -6 20 -19 31 -12 12 -20 25 -16 29 4 5 -3 5 -15 2
-15 -3 -23 -1 -23 8 0 19 28 27 51 14 11 -5 35 -12 54 -14 27 -4 33 -2 29 10
-4 8 -10 15 -15 15 -5 0 -9 9 -9 21 0 11 5 17 10 14 6 -3 10 -1 10 4 0 6 -5
11 -12 11 -6 0 -9 2 -6 5 9 9 37 -6 42 -23 7 -21 66 -24 66 -3 0 8 -7 11 -20
8 -13 -3 -20 0 -20 10 0 9 6 13 15 9 9 -3 15 0 15 9 0 8 9 15 20 15 11 0 20
-7 20 -16 0 -8 -4 -12 -10 -9 -5 3 -10 -3 -10 -15 0 -12 5 -18 10 -15 6 3 10
-1 10 -11 0 -11 6 -15 20 -11 11 3 29 -3 41 -14 26 -22 24 -22 52 -8 31 17 60
17 75 -1 8 -8 11 -9 7 -2 -4 8 2 12 19 12 16 0 26 -6 26 -15 0 -8 -5 -15 -11
-15 -6 0 -17 -7 -26 -16 -9 -8 -22 -13 -29 -10 -8 3 -14 1 -14 -4 0 -6 7 -10
16 -10 9 0 12 -5 8 -12 -6 -10 -4 -10 8 0 9 7 36 13 60 12 24 -1 89 -2 146 -1
68 0 101 -3 97 -10 -4 -6 8 -10 32 -10 21 0 72 -3 113 -7 62 -6 72 -9 56 -18
-11 -7 -44 -9 -82 -6 -44 3 -64 1 -64 -7 0 -6 -11 -11 -25 -11 -14 0 -25 5
-25 10 0 6 -25 10 -55 10 -30 0 -55 -4 -55 -10 0 -5 -5 -10 -11 -10 -5 0 -7 5
-4 10 11 18 -25 23 -43 7 -16 -15 -20 -15 -47 -1 -40 22 -174 12 -192 -13 -12
-16 -13 -16 -13 0 0 14 -10 17 -57 18 -32 0 -79 1 -104 2 -34 2 -46 -2 -45
-12 1 -8 -6 -16 -14 -18 -13 -4 -13 -3 0 6 25 18 -15 25 -42 7 -25 -16 -90
-14 -96 4 -2 6 -37 10 -78 10 -48 0 -73 -4 -69 -10 3 -6 -1 -13 -10 -17 -10
-3 -20 -1 -24 5 -9 14 -134 27 -158 16 -13 -6 -3 -10 37 -15 30 -3 -80 -5
-245 -3 -225 2 -269 0 -175 -6 69 -4 296 -10 505 -14 572 -10 708 -16 850 -42
67 -13 98 -13 198 -3 64 7 117 16 117 20 0 3 -36 10 -79 13 -43 4 -92 11 -107
15 -50 13 -11 20 61 11 39 -5 94 -9 123 -10 28 0 52 -4 52 -9 0 -15 59 -19 71
-4 13 15 109 18 109 4 0 -14 31 -22 44 -12 6 5 20 5 31 0 24 -9 141 -12 132
-2 -4 3 -2 12 4 19 9 11 14 11 26 -2 9 -9 23 -12 32 -8 33 13 81 22 75 13 -7
-12 14 -11 76 2 31 7 50 16 50 25 0 8 7 14 15 14 8 0 15 -7 15 -15 0 -12 6
-11 35 5 37 21 81 27 70 10 -3 -5 1 -10 10 -10 9 0 14 4 11 9 -4 5 -1 11 6 13
15 5 -13 38 -31 38 -6 0 -11 6 -11 13 0 8 -4 7 -10 -3 -5 -8 -10 -10 -10 -5 0
6 -4 4 -9 -4 -10 -16 -61 -25 -61 -11 0 5 23 32 51 60 40 40 48 54 38 61 -9 6
-15 4 -17 -6 -2 -8 -8 -15 -13 -15 -14 0 -10 27 7 44 8 9 11 16 5 16 -6 0 -11
4 -11 9 0 4 10 8 23 7 16 -1 22 -7 22 -25 0 -13 6 -26 14 -29 8 -3 12 1 9 9
-5 15 19 45 29 35 3 -3 12 2 19 12 13 16 13 16 14 -2 0 -16 2 -16 16 -5 13 10
17 10 24 -1 6 -10 9 -8 13 6 4 16 5 16 6 -3 1 -31 21 -29 21 2 0 14 4 25 9 25
6 0 6 -12 1 -30 -5 -18 -5 -32 1 -36 6 -3 13 4 16 16 3 12 11 19 18 16 7 -2
16 -2 19 1 11 12 120 7 124 -5 2 -7 -1 -12 -7 -12 -6 0 -11 -4 -11 -10 0 -17
21 -11 41 13 10 12 18 17 19 10 0 -6 -4 -15 -10 -18 -13 -8 -13 -42 -1 -50 5
-3 21 0 36 7 21 9 28 9 34 -1 6 -9 11 -10 15 -2 4 6 4 11 -1 11 -4 0 -2 4 6 9
7 5 10 14 6 20 -5 8 -11 9 -19 2 -15 -12 -26 -5 -26 17 0 10 7 12 24 8 19 -5
29 0 44 21 l20 27 41 -27 c22 -15 41 -32 41 -38 0 -5 5 -7 11 -4 6 4 9 0 7
-11 -2 -13 2 -18 15 -16 10 2 17 -3 17 -12 0 -10 6 -13 15 -10 8 4 15 1 15 -6
0 -6 4 -9 9 -6 5 4 12 0 15 -6 3 -9 8 -8 16 5 13 20 30 23 30 3 0 -9 11 -12
33 -11 42 3 41 3 28 18 -15 19 -2 29 16 12 7 -8 12 -16 11 -18 -2 -1 5 -15 14
-29 10 -15 15 -37 12 -53 -3 -16 -1 -24 5 -21 14 9 25 -34 12 -47 -8 -8 -11
-6 -11 6 0 21 -33 23 -50 2 -24 -29 -46 -17 -41 23 1 6 -3 20 -8 30 -9 14 -10
13 -11 -10 0 -30 -20 -40 -20 -10 0 28 -17 49 -30 36 -6 -6 -12 -18 -13 -25
-2 -8 -6 -20 -10 -26 -5 -7 -6 -17 -3 -22 3 -4 -6 -13 -19 -19 -15 -7 -25 -8
-25 -2 0 17 -29 11 -50 -10 -11 -11 -20 -17 -20 -14 0 4 -7 1 -15 -6 -8 -7
-15 -9 -15 -5 0 5 -9 0 -19 -9 -22 -20 -23 -67 -3 -74 9 -3 12 3 10 14 -2 11
3 19 10 19 6 0 12 -4 11 -9 -1 -12 22 -26 45 -26 12 0 16 5 12 16 -3 8 -2 13
3 10 5 -3 11 2 14 13 2 10 13 20 25 23 19 5 18 3 -5 -31 -13 -19 -30 -39 -36
-43 -8 -5 -4 -8 11 -8 12 0 22 -5 22 -11 0 -6 7 -9 15 -5 8 3 15 1 15 -3 0 -5
-6 -11 -12 -13 -7 -3 -2 -7 10 -10 17 -5 22 -2 22 13 0 10 6 19 13 19 14 0 77
52 77 64 0 4 -9 2 -21 -4 -11 -6 -25 -9 -32 -6 -7 2 -5 5 5 5 9 1 20 10 23 21
8 24 18 25 35 6 6 -8 17 -13 25 -10 7 3 16 0 20 -5 3 -6 11 -8 17 -5 6 4 20 7
32 8 18 1 21 6 19 46 -2 32 0 41 7 30 5 -8 10 -25 10 -36 0 -12 7 -39 17 -60
15 -37 17 -38 22 -15 4 14 12 26 19 29 8 2 11 -27 9 -117 -1 -67 -5 -121 -9
-121 -5 0 -8 8 -8 18 0 10 -3 21 -6 25 -8 8 -34 -3 -34 -15 0 -5 5 -6 11 -3 6
4 13 -2 16 -14 3 -12 13 -21 24 -21 25 0 33 -38 21 -97 -6 -26 -10 -48 -9 -49
1 -1 23 -4 48 -8 l47 -7 17 46 c10 25 21 45 25 45 10 0 30 -56 30 -81 0 -13
10 -20 34 -25 46 -8 56 0 57 44 1 20 4 51 8 67 5 25 11 29 31 27 l25 -4 -23
22 c-16 15 -20 25 -13 33 15 19 41 131 41 181 0 34 5 48 19 55 20 11 44 65 34
75 -4 3 -2 6 4 6 6 0 13 -7 17 -15 7 -20 26 -19 26 2 0 10 7 37 17 61 l16 43
72 -3 c74 -4 105 -19 105 -52 0 -19 28 -20 53 -2 25 19 21 34 -8 28 -15 -2
-25 0 -25 7 0 7 5 9 11 5 6 -3 14 -1 18 5 5 8 16 3 35 -15 26 -26 27 -27 41
-8 14 18 14 18 15 -4 0 -16 4 -21 12 -16 7 5 25 7 41 6 18 -2 35 4 43 15 9 12
13 14 14 5 0 -7 4 -11 9 -7 5 3 8 16 5 30 -3 19 -1 23 11 18 9 -3 14 -11 11
-18 -3 -8 5 -16 20 -19 13 -4 24 -13 24 -22 0 -8 5 -12 10 -9 18 11 11 35 -10
35 -25 0 -28 41 -4 61 15 12 16 11 10 -9 -4 -12 -4 -22 1 -21 30 5 64 -3 60
-13 -2 -7 -11 -12 -21 -10 -28 5 -17 -26 13 -36 22 -8 31 -7 34 1 3 8 10 7 24
-5 11 -10 24 -18 30 -18 6 0 14 -6 16 -12 3 -7 6 -3 6 9 1 17 6 21 26 18 14
-1 28 2 31 7 8 12 44 -26 44 -47 0 -8 -5 -15 -10 -15 -7 0 -7 -7 0 -21 13 -24
7 -34 -15 -25 -10 3 -14 14 -11 30 2 14 -1 27 -7 30 -9 3 -8 8 3 15 8 5 11 13
7 18 -5 4 -12 1 -16 -6 -5 -7 -13 -11 -17 -8 -5 3 -10 -8 -11 -24 -2 -20 2
-29 12 -29 8 0 15 -4 15 -10 0 -5 -5 -10 -11 -10 -17 0 -36 -24 -32 -40 2 -8
-4 -1 -14 15 -14 24 -18 26 -21 12 -2 -9 -8 -15 -13 -12 -5 3 -6 0 -3 -8 7
-20 -17 -36 -41 -26 -19 7 -18 8 4 8 18 1 22 5 15 19 -4 9 -8 27 -8 40 -1 16
-7 22 -23 22 -12 0 -24 -6 -26 -12 -4 -10 -8 -9 -17 2 -9 12 -10 9 -6 -15 5
-25 4 -28 -6 -15 -18 21 -51 14 -43 -9 3 -10 -1 -24 -10 -31 -8 -7 -15 -21
-15 -31 0 -19 -14 -26 -23 -11 -2 4 -2 1 -1 -6 2 -8 -4 -10 -20 -6 -13 3 -27
1 -31 -6 -4 -6 -15 -8 -25 -5 -13 4 -19 -1 -24 -25 -4 -22 -11 -31 -23 -28
-21 4 -29 28 -9 28 9 0 16 5 16 10 0 6 -6 10 -13 10 -9 0 -11 12 -9 38 3 29 0
39 -11 39 -8 0 -13 -6 -10 -12 2 -7 -6 -15 -19 -18 -13 -4 -24 -2 -26 3 -2 6
-10 10 -18 10 -8 0 -14 5 -14 11 0 6 9 8 20 4 15 -5 20 -2 20 10 0 13 -6 16
-27 11 -16 -3 -22 -3 -15 0 18 8 15 35 -3 28 -10 -4 -15 0 -15 12 -1 18 -1 18
-11 0 -9 -14 -8 -20 2 -27 11 -6 10 -9 -4 -15 -31 -12 -15 -94 19 -94 10 0 14
-6 10 -15 -3 -9 0 -15 9 -15 9 0 12 6 9 15 -4 9 0 15 8 15 9 0 14 -10 13 -27
0 -24 -4 -28 -30 -27 -17 0 -33 -4 -37 -10 -6 -8 -11 -7 -17 3 -7 11 -13 9
-30 -8 -25 -25 -26 -31 -6 -31 8 0 23 -5 33 -11 15 -9 24 -8 46 6 20 14 24 20
14 26 -9 6 -7 9 9 9 12 0 23 -3 26 -7 2 -5 3 -3 1 4 -1 6 6 13 17 16 15 4 21
-2 27 -26 7 -27 13 -32 36 -29 16 2 25 -1 22 -7 -8 -13 5 -20 48 -25 27 -4 36
-1 36 9 0 8 6 12 13 9 8 -3 20 2 27 11 11 13 9 15 -13 15 -14 0 -29 5 -32 10
-4 6 -11 8 -16 5 -5 -4 -9 1 -9 9 0 23 36 29 64 11 14 -9 27 -12 30 -7 3 5 -4
13 -17 17 l-22 8 23 4 c13 3 30 -1 38 -7 10 -9 14 -9 14 -1 0 6 -7 14 -15 17
-8 4 -15 12 -15 20 0 8 6 11 16 7 9 -3 20 0 25 8 8 12 10 12 19 -1 7 -11 5
-16 -5 -18 -18 -4 -20 -19 -2 -25 8 -3 5 -11 -10 -24 -36 -32 -26 -93 15 -93
11 0 13 10 9 41 -4 34 -3 40 11 37 11 -2 17 -13 17 -30 0 -38 12 -45 83 -52
53 -5 62 -4 62 10 0 8 6 14 13 11 6 -2 11 -16 10 -31 -2 -25 0 -26 38 -20 42
7 53 -6 22 -26 -15 -9 -13 -10 12 -8 24 2 31 9 36 33 4 17 7 25 8 18 1 -14
131 -13 130 2 0 11 41 25 54 18 19 -10 4 -40 -25 -52 l-33 -13 25 -7 c15 -4
27 -3 29 3 9 22 32 38 47 32 9 -3 25 4 40 19 13 13 31 22 38 19 11 -4 13 0 9
15 -3 12 -1 21 6 21 6 0 11 -7 11 -15 0 -8 6 -15 13 -16 6 0 2 -5 -10 -11 -24
-12 -31 -28 -11 -28 6 0 3 -9 -7 -20 -18 -19 -17 -20 2 -20 11 0 26 6 32 14 7
8 21 12 32 9 15 -4 18 -2 13 12 -6 15 -3 17 19 13 16 -3 27 -1 27 6 0 6 5 3
11 -7 14 -24 64 -14 149 29 35 19 71 34 78 34 10 0 13 8 10 24 -6 29 6 35 65
37 l42 2 -40 7 c-39 6 -39 6 -12 14 21 6 33 4 48 -10 27 -25 42 -25 105 -5 55
19 81 12 44 -11 -11 -7 -20 -18 -20 -23 0 -6 -23 -32 -50 -58 -28 -26 -48 -52
-45 -58 4 -5 12 -6 18 -3 7 4 8 3 4 -2 -5 -5 -27 -13 -49 -19 -32 -8 -45 -18
-57 -42 -9 -18 -23 -34 -31 -36 -8 -2 1 -4 21 -3 21 1 35 4 32 9 -2 4 1 7 6 7
6 0 11 -4 11 -10 0 -6 59 -10 158 -10 151 0 158 -1 158 -20 0 -11 -4 -20 -8
-20 -4 0 -10 -20 -14 -45 -3 -25 -10 -48 -15 -51 -5 -3 -9 -17 -9 -31 0 -24
-2 -25 -41 -19 -49 8 -44 -9 6 -18 21 -4 35 -13 35 -21 0 -8 -4 -15 -10 -15
-5 0 -10 5 -10 11 0 9 -31 10 -112 5 -62 -3 -284 -13 -493 -21 -797 -32 -1481
-61 -2130 -90 -176 -8 -507 -21 -735 -29 -583 -21 -937 -35 -1140 -46 -319
-17 -601 -30 -975 -45 -203 -9 -494 -22 -645 -31 -151 -8 -387 -19 -525 -24
-137 -5 -338 -14 -445 -20 -107 -5 -224 -10 -259 -10 -39 0 -61 -4 -55 -9 8
-9 248 -111 399 -171 39 -15 99 -40 135 -55 74 -30 63 -30 515 -1 132 8 312
20 400 26 88 5 246 15 350 20 105 6 251 15 325 20 74 6 329 21 565 35 237 14
576 34 755 45 179 11 366 22 415 25 50 3 194 12 320 20 127 8 309 19 405 25
808 47 992 59 1645 105 121 8 396 26 610 40 363 23 578 38 735 50 36 3 108 8
160 10 52 3 147 10 210 15 63 5 174 12 245 16 72 3 135 10 140 14 6 5 28 6 50
3 22 -3 67 -7 100 -8 33 -1 85 -5 115 -8 144 -16 175 -17 160 -7 -9 6 -10 10
-3 10 7 0 16 -6 20 -14 6 -10 43 -18 123 -25 159 -15 150 -16 150 22 0 17 3
56 6 85 l7 52 46 2 46 1 -45 4 c-32 3 -40 7 -30 14 16 10 -271 4 -569 -12 -95
-5 -224 -9 -287 -9 l-114 0 5 53 c3 28 8 76 11 105 l5 52 128 0 c87 0 131 4
139 12 10 10 17 10 32 0 11 -6 32 -12 47 -12 26 1 27 1 8 12 -29 15 -45 39
-45 64 0 18 -7 23 -35 26 -19 2 -35 0 -35 -4 0 -17 -41 -48 -65 -48 -14 0 -25
-4 -25 -8 0 -5 -13 -9 -30 -9 -31 0 -40 11 -17 20 20 9 -15 28 -40 22 -14 -3
-23 -1 -23 6 0 6 -6 9 -14 6 -10 -4 -14 7 -15 49 0 30 4 54 9 54 6 0 10 9 10
19 0 10 8 22 18 26 15 6 14 8 -8 21 -24 15 -24 15 15 10 22 -3 51 -6 65 -6 18
0 21 -3 11 -9 -10 -7 -11 -13 -2 -30 10 -18 9 -21 -9 -21 -11 0 -20 -7 -20
-15 0 -12 -4 -13 -19 -5 -25 13 -41 13 -41 0 0 -5 9 -10 19 -10 32 0 34 -19 4
-31 l-28 -12 28 -8 c16 -4 35 -13 43 -20 12 -10 13 -9 9 3 -5 13 7 15 89 14
74 -1 97 2 101 13 3 8 2 17 -1 20 -4 3 -9 0 -11 -6 -6 -17 -21 -16 -39 2 -14
13 -14 15 1 15 9 0 22 15 31 35 11 26 20 35 39 35 13 0 27 -5 31 -11 4 -8 9
-7 15 2 8 12 11 11 20 -1 9 -13 10 -12 5 2 -3 10 -1 20 4 23 6 4 10 1 10 -4 0
-6 7 -11 16 -11 14 0 14 -3 4 -15 -11 -13 -8 -15 16 -15 19 1 35 9 47 25 18
25 13 30 -17 19 -8 -3 -13 -13 -10 -22 5 -13 2 -13 -10 2 -18 22 -7 36 27 36
10 0 17 6 15 12 -3 7 2 19 9 26 10 10 11 18 3 27 -8 9 -4 14 15 17 26 5 35 -6
13 -15 -10 -4 -10 -6 0 -6 20 -1 15 -51 -5 -52 -10 0 -13 -3 -6 -5 6 -3 28 -1
47 5 20 5 36 6 36 1 0 -4 8 -11 18 -14 32 -12 62 -33 55 -39 -3 -4 -20 -7 -37
-6 -30 1 -30 1 -6 9 26 8 22 12 -20 15 -14 1 -42 5 -62 10 -57 11 -47 -10 15
-33 33 -12 66 -17 91 -14 26 3 37 1 32 -6 -3 -6 2 -13 11 -15 10 -3 5 -5 -12
-6 -16 0 -52 -10 -80 -21 l-50 -19 41 -1 c34 0 43 -4 47 -22 8 -30 3 -33 -51
-32 l-47 1 38 -10 c28 -8 37 -16 37 -33 l0 -22 228 2 227 1 11 35 c15 45 53
69 86 52 28 -14 78 -12 96 5 17 16 15 28 -2 14 -14 -12 -66 -5 -66 8 0 4 -25
6 -56 3 -57 -5 -173 16 -155 28 6 3 37 3 69 0 55 -5 59 -4 58 15 -1 17 -12 22
-85 32 -89 13 -108 20 -73 30 12 3 22 12 22 19 0 12 4 12 20 2 11 -7 20 -17
20 -23 0 -13 52 -16 67 -3 9 7 15 6 19 -6 3 -9 17 -16 30 -16 29 0 32 16 4 25
-11 3 -20 10 -20 14 0 5 -11 6 -25 3 -14 -2 -25 0 -25 6 0 6 9 8 20 5 14 -4
20 0 20 10 0 9 8 21 18 27 15 10 14 11 -7 6 -13 -3 -20 -1 -15 4 5 4 18 10 29
12 19 4 19 5 -3 17 -20 11 -26 10 -42 -4 -10 -9 -28 -15 -42 -12 -23 4 -23 4
0 6 12 0 22 5 22 11 0 5 -10 10 -22 10 -42 1 -133 11 -148 17 -23 9 -119 9
-113 1 2 -5 -1 -8 -6 -8 -6 0 -11 5 -11 11 0 5 -4 7 -10 4 -5 -3 -18 -1 -28 4
-11 6 -45 14 -76 19 -47 7 -56 7 -52 -4 3 -8 -1 -14 -10 -14 -12 0 -13 4 -2
23 6 12 17 56 23 97 l11 75 45 -3 c65 -4 77 17 81 146 3 98 4 101 28 106 14 3
112 9 218 12 171 6 192 5 192 -9 0 -10 -10 -17 -27 -19 -28 -3 -28 -4 -31 -88
-4 -104 2 -130 28 -130 11 0 20 5 20 10 0 6 16 10 35 10 23 0 35 -5 35 -14 0
-11 34 -15 168 -20 420 -16 582 -27 582 -39 0 -26 -25 -127 -31 -127 -4 0 -10
-25 -14 -55 -3 -30 -10 -57 -15 -60 -5 -3 -12 -26 -16 -50 -3 -25 -10 -47 -14
-50 -4 -3 -21 2 -36 10 l-29 15 35 1 c30 2 31 3 8 6 -19 3 -28 11 -29 24 -1
10 -2 25 -3 32 0 6 -13 13 -29 15 -15 2 -25 8 -22 13 4 5 -8 9 -26 9 -25 0
-29 3 -20 13 17 22 1 28 -30 11 -38 -19 -39 -52 -1 -56 21 -2 27 -8 25 -25 -4
-32 25 -30 33 2 3 14 10 25 15 25 5 0 6 -12 3 -26 -4 -17 -2 -29 7 -36 9 -6
-10 -7 -53 -4 -53 3 -68 1 -68 -9 0 -17 27 -26 76 -24 22 0 64 -4 94 -9 40 -7
46 -10 23 -11 -22 -1 -34 -7 -38 -21 -3 -11 -17 -28 -30 -38 -13 -11 -22 -21
-20 -24 3 -2 -8 -16 -23 -30 l-27 -26 -165 9 c-91 4 -177 11 -192 13 -16 3
-29 1 -29 -4 -1 -6 -2 -15 -3 -21 -1 -7 47 -12 149 -13 129 -2 187 -9 410 -49
143 -26 310 -55 370 -65 l110 -18 -145 -8 c-80 -4 -210 -11 -290 -16 -80 -5
-275 -12 -435 -15 -313 -6 -376 -11 -387 -28 -5 -9 -10 -9 -19 0 -7 7 -21 8
-39 3 -15 -4 -47 -7 -71 -5 -24 1 -29 0 -11 -2 17 -2 32 -9 32 -15 0 -6 22 -9
58 -6 55 3 57 2 56 -22 -1 -64 -15 -154 -24 -165 -9 -11 -1 -15 37 -20 26 -3
56 -8 66 -10 9 -2 17 0 17 5 0 4 7 11 16 14 14 5 15 4 4 -9 -11 -13 -7 -15 27
-15 22 0 42 -3 46 -6 3 -4 25 -8 48 -9 23 -2 45 -9 49 -16 5 -6 19 -10 34 -7
14 3 26 2 26 -2 0 -4 45 -8 99 -9 82 -2 101 1 108 14 9 15 16 14 82 -3 39 -10
84 -17 100 -14 35 5 37 32 2 33 -21 1 -22 3 -5 6 11 2 34 -1 50 -8 26 -10 27
-12 10 -18 -20 -8 -20 -8 0 -12 27 -7 54 0 54 15 0 9 16 11 58 9 31 -2 89 -4
129 -3 39 0 74 -4 77 -9 4 -5 27 -8 52 -7 25 1 47 -1 50 -6 3 -4 36 -6 74 -4
38 2 72 1 75 -2 3 -3 11 -7 18 -8 7 -1 20 -5 30 -9 10 -4 17 -3 17 4 0 7 8 8
23 2 12 -5 47 -12 77 -16 56 -8 87 -10 225 -20 44 -3 97 -8 119 -12 27 -4 37
-2 32 6 -9 15 -4 14 30 -4 27 -14 18 -15 -112 -10 -78 3 -149 8 -158 11 -9 3
-16 1 -16 -5 0 -6 18 -12 40 -12 22 -1 45 -3 50 -4 6 -1 13 -3 18 -4 4 -1 -2
-8 -12 -16 -11 -8 -14 -15 -7 -15 7 0 10 -4 7 -9 -3 -5 -15 -7 -26 -4 -11 3
-17 9 -14 14 3 5 4 9 2 9 -2 0 -35 11 -73 25 -39 14 -104 30 -145 36 -41 5
-82 12 -92 15 -10 3 -18 1 -18 -4 0 -5 19 -12 43 -15 23 -3 51 -8 62 -11 11
-2 27 -6 35 -7 8 -1 -7 -5 -35 -9 -41 -6 -46 -8 -27 -15 12 -4 22 -11 22 -16
0 -5 10 -9 23 -9 22 1 22 1 2 17 -19 15 -19 15 5 9 67 -19 97 -24 122 -21 18
2 25 -1 22 -10 -6 -14 78 -31 96 -20 6 4 17 1 25 -5 8 -7 21 -10 29 -7 16 6
40 -16 29 -26 -3 -4 -2 -7 4 -7 5 0 13 3 17 8 12 11 150 9 158 -3 5 -6 11 -6
19 2 6 6 18 9 27 6 10 -4 13 -2 8 5 -10 16 22 15 117 -3 43 -8 86 -15 95 -15
21 0 4 16 -23 23 -15 4 -14 5 7 6 15 0 29 -3 32 -8 8 -12 144 -12 151 0 4 5
11 9 16 9 6 0 8 -4 5 -8 -3 -5 52 -7 122 -5 70 3 163 0 207 -6 198 -25 282
-34 308 -33 15 1 27 -2 27 -6 0 -24 191 -42 216 -21 9 7 19 6 33 -3 25 -15 34
-8 26 25 -6 20 -15 26 -51 32 -59 8 -56 25 5 25 l48 0 1 53 c1 48 0 50 -13 33
-8 -11 -15 -24 -15 -28 0 -5 -9 -4 -19 2 -26 14 -64 13 -79 -2 -9 -9 -12 -9
-12 2 0 7 -3 10 -7 7 -3 -4 -12 -2 -19 4 -8 6 -25 8 -40 5 -21 -6 -24 -10 -14
-21 16 -20 3 -37 -23 -29 -12 4 -46 7 -77 8 -44 1 -55 5 -55 18 0 9 -4 20 -9
25 -5 4 -6 3 -2 -4 5 -10 -5 -13 -41 -13 -27 0 -55 6 -62 13 -11 10 -13 10 -7
0 9 -17 -26 -17 -42 -1 -6 6 -73 17 -149 24 -240 22 -353 37 -348 44 3 5 -7 8
-23 7 -15 -1 -55 0 -88 1 l-62 2 3 33 c2 17 3 40 4 51 1 12 6 16 16 12 8 -3
26 0 40 6 18 8 28 8 39 -1 17 -14 76 -6 76 10 0 5 10 10 23 10 35 2 -72 17
-130 18 -57 1 -74 20 -20 22 30 2 30 2 5 6 -18 3 -28 10 -28 22 0 15 -18 19
-137 30 -76 7 -145 17 -154 22 -10 5 -39 8 -66 8 -26 0 -81 4 -121 10 -41 6
-77 9 -82 6 -4 -3 -24 2 -44 10 -19 8 -43 14 -53 13 -49 -4 -58 3 -23 18 44
19 192 22 345 5 132 -14 407 -39 565 -51 207 -17 240 -20 745 -70 110 -11 201
-20 203 -20 1 0 2 16 2 35 l0 35 -48 0 c-27 0 -73 4 -103 9 -30 6 -108 12
-174 15 -66 3 -192 13 -280 21 -88 8 -239 22 -335 31 -96 8 -193 19 -215 24
-22 5 -82 9 -134 9 -52 1 -97 4 -101 6 -3 2 -53 7 -111 10 -57 3 -120 7 -139
10 -30 4 -184 20 -300 30 -19 2 -82 6 -140 10 -105 6 -150 19 -158 43 -2 8 8
12 35 12 21 0 84 8 140 17 84 14 108 15 136 5 18 -7 47 -12 63 -11 16 0 22 3
14 6 -8 2 -22 7 -30 9 -28 10 12 23 109 35 66 8 98 9 114 1 12 -6 38 -13 57
-17 l35 -6 -30 18 -30 17 50 12 c28 7 68 13 91 13 22 1 49 8 60 16 23 17 65
20 61 3 -1 -6 6 -14 17 -16 17 -4 17 -2 3 18 -10 14 -28 24 -49 25 -18 2 -130
11 -248 20 -118 9 -224 20 -235 25 -31 13 -123 20 -127 9 -3 -8 -331 6 -364
16 -6 2 -8 21 -5 51 l6 49 65 2 c36 1 57 -1 48 -4 -16 -4 -21 -15 -32 -74 -3
-14 10 -17 77 -23 44 -4 82 -4 85 -1 3 3 -7 5 -21 5 -25 0 -27 3 -27 45 l0 45
88 0 c60 0 82 3 72 10 -13 9 -13 11 0 20 8 5 23 10 33 10 10 0 15 4 12 10 -4
6 26 10 84 10 82 0 90 -2 84 -17 -3 -10 -10 -24 -16 -30 -7 -10 -1 -13 24 -14
l34 -2 -35 -6 c-32 -6 -30 -7 25 -13 33 -3 65 -2 70 2 6 4 21 4 35 0 21 -6 22
-8 8 -15 -9 -4 -22 -4 -28 0 -5 3 -10 3 -10 -2 0 -4 -4 -24 -9 -45 -7 -31 -6
-37 11 -41 15 -4 19 -1 17 16 -2 26 10 57 22 57 8 0 8 -16 -3 -60 -2 -11 5
-15 27 -15 28 0 30 3 35 45 5 44 6 45 38 43 27 -1 31 1 21 13 -9 12 -6 13 22
9 28 -4 30 -3 9 4 l-25 8 28 12 c16 6 36 11 45 12 28 1 -18 18 -48 17 l-25 0
25 -8 c30 -10 5 -12 -30 -3 -24 6 -23 7 10 20 31 12 19 13 -110 10 -80 -2
-134 0 -120 4 16 4 -8 8 -65 9 -49 1 -101 3 -115 6 -14 2 -78 5 -143 8 -65 2
-121 7 -124 10 -4 3 -35 6 -69 6 -35 0 -65 3 -67 8 -2 4 3 38 11 76 l15 68 56
-6 c31 -3 126 -6 211 -8 146 -2 155 -1 158 18 7 35 22 39 22 6 l0 -32 60 0
c33 0 63 0 68 -1 4 0 9 10 12 22 9 35 30 36 30 1 l0 -30 108 -4 c62 -2 114 1
125 7 12 7 20 7 25 -1 10 -16 287 -30 296 -15 11 17 76 14 82 -4 8 -20 43 -19
51 1 5 13 22 14 122 9 307 -15 321 -17 321 -31 0 -11 18 -14 78 -15 42 -1 114
-2 160 -3 70 -1 83 2 88 16 7 24 24 23 24 -1 0 -23 26 -31 106 -31 53 0 62 3
67 20 3 11 10 20 15 20 6 0 8 -9 5 -20 -3 -11 0 -20 6 -20 8 0 11 53 11 175
l0 175 -27 0 c-20 0 -24 3 -14 9 9 6 3 10 -20 14 -19 2 -39 1 -44 -3 -13 -11
-108 9 -117 24 -6 8 -8 7 -8 -2 0 -9 -13 -11 -47 -8 -27 2 -54 5 -60 5 -16 1
-17 32 -1 66 7 15 8 29 2 34 -5 5 -78 11 -161 14 l-153 5 0 -29 c0 -28 -24
-42 -32 -19 -2 6 -15 4 -32 -5 -27 -14 -28 -14 -23 5 3 11 2 22 -2 24 -10 7
-41 -31 -41 -49 0 -11 -7 -14 -25 -10 -14 3 -36 7 -50 10 -14 3 -23 10 -20 15
4 6 -4 6 -20 0 -34 -13 -35 -13 -35 4 0 8 -11 17 -25 20 -21 5 -25 13 -26 44
l-2 37 -6 -35 c-5 -31 -9 -35 -33 -32 -23 3 -28 -1 -28 -17 0 -18 -5 -21 -35
-18 l-34 2 4 60 c3 33 7 69 10 80 4 17 3 16 -6 -2 -7 -13 -17 -23 -23 -23 -6
0 -4 -5 4 -10 13 -8 12 -11 -5 -24 -15 -12 -16 -16 -5 -16 8 -1 2 -8 -15 -15
-28 -12 -28 -14 -10 -22 11 -4 21 -14 22 -20 4 -17 -14 -17 -20 0 -4 9 -8 8
-16 -3 -9 -13 -11 -12 -16 2 -4 10 -14 14 -27 10 -17 -4 -20 -2 -15 12 4 10 7
24 7 32 0 8 7 14 16 14 10 0 14 -6 11 -15 -4 -8 -2 -17 3 -20 6 -4 10 5 10 19
0 20 5 26 23 27 18 1 18 2 4 6 -11 3 -16 11 -13 18 3 10 0 12 -12 8 -15 -6
-15 -5 -3 10 12 15 11 17 -7 17 -11 0 -23 8 -26 17 -6 15 -8 15 -16 3 -14 -22
-12 -30 5 -24 8 4 15 2 15 -4 0 -6 2 -17 5 -24 4 -9 -4 -14 -24 -16 -18 -1
-31 3 -35 14 -3 8 -11 12 -17 8 -7 -4 -10 -1 -7 6 2 8 13 18 24 24 29 17 29
17 19 24 -6 4 -16 19 -22 35 -7 15 -17 27 -23 27 -10 0 -7 -40 4 -59 9 -14 -5
-42 -17 -34 -6 4 -8 1 -5 -8 4 -11 -4 -14 -36 -14 -22 0 -46 4 -53 8 -14 9
-11 36 6 47 10 5 10 9 2 15 -7 4 -9 16 -5 27 3 11 0 31 -7 44 -10 20 -10 26 3
37 9 6 18 24 22 38 5 21 2 28 -14 32 -24 6 -28 47 -5 47 8 0 15 5 15 10 0 6
-12 10 -26 10 -21 0 -24 -4 -19 -20 3 -11 2 -20 -3 -20 -5 0 -12 -9 -15 -20
-3 -11 -10 -20 -16 -20 -8 0 -6 12 4 36 19 46 20 44 -12 44 -21 0 -24 3 -14 9
8 5 20 7 26 4 9 -3 12 6 11 26 0 17 -6 31 -13 31 -7 0 -10 -6 -7 -14 4 -10 -2
-12 -20 -9 -26 5 -35 18 -15 25 17 6 -2 38 -22 38 -24 0 -37 29 -18 40 7 5 17
6 21 4 5 -3 6 6 2 20 -5 21 -3 25 10 20 10 -4 18 1 23 12 4 11 14 24 22 31 9
7 11 13 5 13 -17 0 -25 40 -8 40 16 0 19 16 4 25 -15 9 -12 25 4 25 18 0 29
27 13 34 -7 2 0 5 15 5 20 1 26 5 22 16 -4 8 -2 15 4 15 5 0 13 11 16 25 8 31
65 91 92 97 19 4 22 39 4 46 -5 2 -6 10 -3 18 3 9 -2 14 -15 14 -29 0 -33 12
-16 44 7 16 14 37 14 47 0 10 9 24 21 33 12 8 32 30 45 50 29 43 37 44 52 11
12 -25 38 -36 29 -12 -3 8 8 19 27 27 33 15 65 47 66 67 0 6 -9 27 -20 47 -15
24 -18 36 -10 41 7 5 9 20 5 41 -3 21 -2 34 4 34 14 0 2 58 -17 87 -8 13 -12
30 -8 38 3 9 0 15 -9 15 -8 0 -15 6 -15 13 0 6 -3 22 -6 35 -5 18 -3 21 11 16
16 -6 17 -3 11 30 -6 31 -4 41 15 57 12 10 18 19 13 19 -17 0 21 20 59 30 21
6 37 17 37 25 0 18 -8 18 -40 0 -36 -21 -40 -19 -36 16 l4 31 -44 -5 c-24 -2
-44 -1 -44 4 0 5 -261 9 -596 9 -590 0 -597 0 -614 -21 l-18 -20 -7 20 c-6 21
-11 21 -363 20 -196 -1 -349 -3 -339 -6 12 -3 16 -10 12 -24 -5 -15 -2 -19 14
-19 14 0 21 -6 21 -20 0 -11 4 -20 9 -20 5 0 7 -18 4 -40 -4 -28 -2 -40 7 -40
9 0 10 -3 1 -13 -6 -8 -8 -17 -4 -20 3 -4 1 -7 -5 -7 -7 0 -12 -7 -12 -15 0
-8 -4 -15 -9 -15 -4 0 -6 -11 -3 -25 2 -14 0 -25 -5 -25 -6 0 -9 -12 -8 -27 1
-27 4 -28 51 -28 50 -1 87 12 78 27 -9 14 2 9 25 -11 14 -12 21 -28 19 -43 -3
-20 1 -23 28 -20 24 2 33 -2 37 -17 2 -10 0 -24 -6 -30 -9 -9 -6 -13 11 -17
12 -4 22 -14 22 -23 -2 -44 -20 -105 -34 -113 -8 -5 -13 -15 -10 -22 3 -9 -3
-17 -15 -21 -12 -3 -21 -11 -21 -17 0 -6 7 -5 17 3 15 13 15 12 5 -8 -7 -12
-17 -25 -22 -28 -6 -3 -10 -16 -11 -28 -1 -20 -2 -20 -9 3 l-8 25 -1 -24 c-1
-13 -13 -32 -27 -43 -18 -15 -24 -27 -20 -42 3 -13 -2 -32 -11 -45 -13 -19
-13 -25 -2 -32 11 -7 10 -9 -3 -9 -10 0 -18 -6 -18 -14 0 -19 -46 -29 -70 -16
-19 10 -24 6 -21 -12 0 -5 -4 -8 -10 -8 -6 0 -3 -7 5 -16 9 -8 16 -24 16 -34
0 -20 33 -36 50 -25 7 4 9 -2 5 -18 -5 -20 -2 -26 18 -33 24 -8 24 -11 11 -29
-12 -16 -16 -17 -23 -6 -7 11 -12 10 -22 -8 -16 -24 -26 -27 -32 -8 -2 6 -3 0
-1 -14 1 -14 -2 -31 -8 -37 -8 -8 -5 -14 13 -21 17 -7 19 -10 7 -10 -10 -1
-18 -5 -18 -11 0 -11 32 -1 42 14 5 7 8 6 8 -3 0 -7 14 -29 31 -48 36 -42 32
-52 -10 -27 -22 13 -29 24 -25 36 6 21 -9 24 -25 4 -9 -10 -8 -16 4 -26 22
-18 18 -30 -8 -30 -38 0 -41 -14 -5 -26 l33 -12 -25 -11 c-23 -9 -22 -10 12
-7 25 2 42 -2 52 -13 13 -15 5 -16 -92 -19 -59 -2 -110 -8 -113 -14 -4 -7 -9
-7 -13 1 -5 8 -81 11 -242 11 -200 0 -235 2 -240 15 -4 8 -1 22 6 30 22 27 5
35 -23 11 -16 -14 -26 -29 -23 -35 9 -14 -14 -25 -26 -13 -6 6 -10 29 -10 51
1 39 -1 41 -24 35 -23 -6 -25 -4 -18 22 4 16 10 34 15 39 4 6 4 17 -1 25 -13
20 -12 30 1 30 5 0 7 -4 4 -10 -3 -5 1 -10 10 -10 8 0 18 7 22 16 3 8 12 13
19 10 8 -3 14 1 14 9 0 8 7 15 15 15 8 0 15 5 15 11 0 6 -9 8 -22 4 -20 -5
-19 -3 5 12 15 10 27 21 27 25 0 5 13 8 29 8 35 0 61 9 61 20 0 14 -38 22 -57
11 -30 -15 -100 -34 -113 -29 -15 5 18 42 68 77 33 23 43 51 17 51 -8 0 -17
-11 -21 -24 -4 -16 -11 -23 -20 -19 -9 3 -14 -1 -14 -12 0 -10 -6 -15 -17 -13
-15 3 -18 14 -18 63 0 33 -4 66 -8 73 -11 17 10 42 34 42 11 0 20 7 20 15 1 8
2 21 3 28 0 6 6 12 13 12 6 0 22 9 35 21 13 11 32 23 42 27 18 7 18 8 2 20 -9
7 -20 26 -25 42 l-9 30 -1 -32 c-1 -26 -6 -34 -26 -39 -14 -3 -25 -10 -25 -15
0 -5 -6 -6 -14 -3 -7 3 -16 -2 -20 -11 -3 -9 -2 -13 4 -10 6 3 10 2 10 -4 0
-5 -6 -12 -12 -14 -10 -4 -10 -7 0 -15 18 -13 -8 -34 -28 -22 -11 7 -11 11 -1
24 9 11 10 16 2 16 -6 0 -11 -5 -11 -10 0 -6 -6 -5 -14 2 -7 7 -11 20 -8 28 4
11 -1 10 -16 -4 -19 -16 -22 -17 -22 -3 0 9 5 19 10 22 6 3 10 11 10 16 0 6
-4 7 -10 4 -5 -3 -10 -1 -10 5 0 6 7 13 15 16 18 7 20 24 3 24 -7 0 -19 4 -27
9 -12 8 -12 13 3 35 16 25 15 26 -1 27 -10 1 -21 1 -25 0 -3 0 -2 14 3 31 5
17 6 34 3 37 -2 3 -7 -5 -11 -17 -9 -35 -29 -26 -29 13 1 21 6 35 13 35 7 0
13 -5 13 -11 0 -27 28 14 32 46 4 35 -2 41 -39 36 -15 -2 -18 16 -3 21 5 2 12
30 15 63 3 38 10 62 20 68 8 4 15 19 15 32 0 14 6 25 13 25 16 0 63 47 55 55
-3 3 -21 -4 -41 -15 -19 -12 -37 -17 -39 -13 -7 14 -1 66 11 96 15 39 14 87
-2 87 -16 0 -47 -32 -47 -48 0 -6 -5 -14 -12 -18 -8 -5 -9 0 -6 14 4 12 2 25
-3 28 -5 3 -7 10 -4 15 4 5 -3 9 -14 9 -17 0 -21 -7 -22 -32 -3 -115 -5 -137
-12 -144 -4 -5 -12 -2 -16 5 -12 19 -20 2 -25 -57 -4 -41 -1 -52 10 -52 8 0
14 -7 14 -15 0 -8 7 -15 15 -15 8 0 15 -5 15 -11 0 -6 -7 -9 -15 -5 -18 6 -19
1 -5 -25 8 -14 7 -26 -5 -46 -9 -16 -14 -20 -11 -11 8 26 -19 11 -32 -18 -10
-22 -9 -24 11 -24 12 0 27 -8 34 -19 12 -20 7 -61 -8 -61 -12 0 -11 17 1 25
17 11 11 23 -9 18 -20 -5 -51 20 -51 43 0 8 -4 14 -8 14 -5 0 -9 -20 -9 -44 0
-38 4 -45 24 -51 24 -6 30 -19 13 -30 -5 -3 -10 -24 -10 -45 0 -21 -5 -40 -10
-42 -6 -2 -16 -31 -22 -66 -8 -42 -16 -62 -26 -62 -10 0 -12 -7 -8 -26 6 -23
4 -26 -13 -21 -26 6 -28 -18 -3 -32 25 -15 6 -13 -33 3 -19 8 -35 13 -35 10 0
-3 -7 1 -15 10 -19 19 -19 30 0 22 10 -3 15 1 15 13 0 10 -6 18 -12 19 -7 0
-30 2 -50 4 -27 3 -38 0 -38 -9 0 -8 -13 -14 -32 -14 -31 -2 -31 -2 -6 -6 24
-4 27 -7 18 -24 -13 -23 -11 -23 26 -4 43 22 51 19 49 -22 -1 -21 2 -48 6 -61
8 -20 6 -22 -16 -16 -28 7 -85 -15 -85 -33 0 -15 36 -17 45 -3 11 18 23 11 18
-10 -4 -16 0 -20 17 -20 14 0 20 -5 16 -12 -3 -7 -9 -21 -12 -30 -4 -10 -10
-18 -15 -18 -5 0 -9 -7 -9 -15 0 -8 -4 -15 -10 -15 -5 0 -10 5 -10 11 0 18
-45 5 -48 -14 -3 -15 1 -18 16 -13 22 7 59 -4 44 -13 -6 -3 -14 -19 -17 -34
-6 -21 -4 -27 9 -27 9 0 16 -4 16 -10 0 -5 6 -10 14 -10 8 0 17 -4 21 -9 3 -6
-20 -9 -57 -8 l-63 2 3 -30 c2 -23 0 -27 -8 -15 -18 26 -39 -13 -30 -55 4 -19
5 -35 1 -36 -3 0 3 -4 14 -9 18 -8 17 -9 -7 -9 -25 -1 -28 3 -28 29 0 17 -5
30 -11 30 -7 0 -10 -12 -7 -30 l5 -30 -53 0 c-40 0 -54 4 -60 18 -4 9 -7 20
-6 23 1 4 -10 17 -23 29 -29 27 -32 40 -9 40 8 0 12 5 9 10 -3 6 -15 10 -26
10 -20 0 -24 20 -9 55 8 18 9 18 9 2 1 -10 10 -27 20 -38 11 -12 22 -33 26
-47 6 -25 21 -41 37 -42 17 0 -1 53 -27 80 -16 16 -25 33 -22 37 4 3 7 1 7 -6
0 -7 4 -9 10 -6 17 11 11 25 -15 35 -14 5 -25 14 -25 20 0 13 17 13 25 0 8
-13 45 -13 45 0 0 6 -14 13 -31 17 -27 5 -30 9 -24 32 4 14 11 28 16 29 14 6
11 22 -5 22 -8 0 -17 6 -19 13 -3 6 -10 -3 -17 -20 -11 -31 -30 -45 -30 -23 0
6 -7 10 -15 10 -16 0 -31 -42 -21 -58 3 -6 -1 -12 -9 -16 -8 -3 -15 -14 -15
-24 0 -11 -9 -31 -20 -45 -11 -14 -20 -30 -20 -37 0 -7 -8 -9 -19 -5 -15 5
-18 1 -17 -22 1 -15 5 -34 10 -41 4 -7 5 -16 2 -19 -3 -3 -1 -12 5 -20 10 -11
-19 -13 -170 -13 -179 0 -182 0 -190 23 -6 15 -4 27 5 38 24 26 17 41 -14 34
-35 -7 -66 19 -32 28 25 6 27 27 3 27 -13 0 -14 3 -5 8 10 7 10 16 0 43 -6 19
-16 38 -22 42 -6 5 6 6 27 2 40 -6 47 3 21 29 -8 9 -12 16 -9 16 13 0 65 -34
65 -42 0 -5 14 -7 30 -6 17 1 30 8 30 15 0 10 -5 11 -19 4 -14 -8 -24 -4 -49
20 l-31 31 27 23 c66 55 103 74 133 68 40 -8 36 4 -7 22 -25 10 -34 19 -30 30
3 8 1 15 -4 15 -6 0 -10 -7 -10 -15 0 -9 -10 -15 -26 -15 -17 0 -28 -6 -31
-19 -7 -27 -33 -35 -48 -14 -7 10 -11 21 -9 25 2 3 6 20 8 37 3 25 1 29 -10
21 -10 -9 -10 -4 -1 25 8 28 8 41 -1 56 -7 10 -9 19 -4 19 4 0 13 9 20 20 15
25 -3 60 -30 60 -10 0 -18 5 -18 11 0 6 7 8 15 5 10 -3 18 1 22 12 4 9 13 21
20 25 19 12 7 26 -17 20 -12 -3 -20 0 -20 6 0 7 4 10 9 7 5 -3 8 22 7 57 -1
81 7 124 43 230 16 48 28 87 26 87 -2 0 -10 -6 -17 -12 -8 -7 -23 -18 -35 -25
-21 -12 -21 -11 -15 49 4 45 2 59 -6 54 -8 -5 -12 6 -12 36 0 48 -13 78 -25
59 -4 -7 -1 -19 6 -27 9 -12 9 -23 0 -56 -7 -23 -12 -70 -12 -105 0 -53 -2
-64 -14 -59 -20 7 -15 -92 6 -104 11 -8 10 -12 -8 -25 -15 -11 -23 -26 -23
-46 0 -16 -4 -29 -9 -29 -5 0 -12 -8 -14 -17 -4 -16 -5 -16 -6 1 -1 12 -6 16
-17 12 -12 -5 -14 -1 -8 17 3 12 3 18 -2 14 -5 -5 -9 -30 -10 -57 -1 -38 3
-49 16 -53 10 -3 19 -17 22 -36 5 -37 -9 -42 -18 -7 -3 15 -14 26 -27 28 -14
2 -23 11 -25 24 -2 16 -8 20 -23 17 -26 -7 -25 -50 2 -74 22 -19 45 -17 33 3
-4 7 -2 8 4 4 7 -4 12 -13 12 -20 0 -8 9 -16 20 -19 11 -3 20 -10 20 -16 0
-16 -42 -13 -64 4 -27 21 -46 19 -46 -5 0 -12 -7 -20 -16 -20 -10 0 -14 6 -10
15 3 8 0 15 -5 15 -7 0 -9 -9 -6 -22 4 -14 0 -29 -10 -40 -15 -16 -15 -18 0
-18 27 0 38 -32 19 -54 -16 -18 -16 -18 6 -12 16 5 22 3 22 -7 0 -8 14 -20 32
-26 27 -10 33 -9 42 6 12 23 19 76 8 69 -10 -6 -38 11 -31 18 3 4 19 8 36 10
31 3 31 3 25 -38 -3 -22 -12 -48 -20 -56 -14 -13 -14 -15 2 -18 13 -3 16 -10
12 -25 -4 -12 -9 -56 -13 -97 -3 -41 -12 -85 -20 -97 -9 -14 -12 -37 -9 -65 2
-24 2 -36 0 -27 -8 27 -46 31 -76 9 -33 -24 -58 -26 -58 -4 0 8 5 12 10 9 6
-3 10 1 10 9 0 12 -10 16 -35 16 -25 0 -35 -5 -35 -15 0 -11 -9 -15 -30 -13
-27 2 -45 18 -20 18 5 0 12 15 16 34 3 19 12 37 20 40 8 3 14 13 14 23 0 15
-2 15 -14 -2 -13 -19 -14 -18 -13 7 2 25 3 26 23 13 26 -17 44 -3 44 33 0 16
-4 21 -12 15 -7 -4 -21 -9 -31 -10 -16 -3 -18 3 -13 44 2 27 5 50 5 52 1 2 7
-2 15 -8 11 -9 16 -9 21 0 4 6 2 15 -5 19 -9 6 -9 9 0 15 6 4 9 14 6 22 -4 9
-2 21 4 28 11 14 2 75 -11 75 -5 0 -7 12 -3 28 6 25 5 26 -8 8 -14 -18 -15
-16 -22 22 -3 23 -10 42 -15 42 -16 0 -19 -39 -5 -57 7 -10 14 -28 14 -41 0
-12 5 -21 12 -20 6 2 13 -4 15 -12 2 -10 -4 -16 -17 -17 -13 -1 -20 5 -21 18
-3 38 -4 42 -18 47 -10 3 -12 0 -8 -12 4 -9 1 -16 -5 -16 -19 0 -38 -33 -26
-47 7 -9 7 -13 -1 -13 -6 0 -11 -4 -11 -10 0 -5 7 -10 15 -10 10 0 15 -11 15
-35 0 -19 -4 -35 -10 -35 -22 0 -8 -30 33 -68 23 -22 22 -32 -4 -32 -15 0 -19
5 -15 15 4 12 -19 35 -37 35 -12 0 2 -63 18 -80 21 -23 13 -39 -10 -20 -14 12
-16 9 -13 -23 3 -50 -5 -53 -28 -12 -17 32 -34 46 -34 27 0 -4 -14 -13 -31
-21 -23 -10 -28 -16 -18 -22 11 -8 10 -12 -6 -25 -19 -14 -20 -13 -23 21 -2
20 2 43 8 51 16 18 4 52 -12 36 -17 -17 -38 -15 -38 3 0 18 16 20 23 3 3 -8 6
-6 6 5 1 9 4 16 9 15 8 -3 12 5 12 28 0 8 -4 12 -10 9 -5 -3 -20 -8 -32 -10
-13 -3 -24 -9 -26 -15 -2 -5 -13 -10 -25 -10 l-21 0 22 16 c21 15 32 42 12 29
-15 -9 -12 58 4 80 8 11 19 16 30 12 20 -8 20 -26 1 -63 -8 -15 -12 -31 -8
-34 3 -3 8 1 10 8 3 6 10 9 15 6 6 -4 8 -2 4 4 -3 6 -2 13 3 17 5 3 14 -3 20
-12 6 -11 11 -13 11 -5 0 7 6 20 14 28 16 15 10 54 -8 54 -7 0 -18 -6 -25 -12
-11 -11 -12 -8 -7 17 4 17 21 41 37 55 33 29 36 40 13 40 -9 0 -14 6 -11 13 2
6 12 11 21 11 9 -1 16 6 16 16 0 24 -38 22 -51 -2 -5 -10 -15 -18 -21 -18 -6
0 -4 10 6 25 19 28 22 55 5 38 -12 -12 -49 -6 -49 8 0 4 11 20 24 36 20 23 26
25 39 14 9 -7 22 -9 28 -5 8 4 9 3 5 -4 -10 -16 -33 -15 -39 1 -4 10 -6 10 -6
0 -1 -7 -8 -13 -16 -13 -8 0 -15 -4 -15 -9 0 -6 11 -9 24 -8 14 1 25 -2 25 -7
-1 -16 33 -30 41 -16 11 18 23 -17 25 -77 0 -29 4 -55 8 -59 4 -4 7 -2 7 5 0
7 6 11 14 8 15 -6 26 12 26 44 0 12 5 16 15 13 12 -5 15 0 13 25 -2 24 -7 31
-24 31 -11 0 -28 8 -37 18 -19 21 -23 52 -6 52 7 0 9 10 5 25 -4 15 -2 25 4
25 7 0 6 6 -2 14 -8 9 -17 11 -22 5 -15 -14 -26 -11 -26 6 0 8 -7 15 -15 15
-8 0 -15 -8 -15 -17 0 -14 -2 -15 -9 -5 -6 10 -11 5 -19 -18 -8 -21 -22 -35
-41 -43 -33 -12 -48 -36 -30 -47 12 -8 -14 -58 -39 -73 -7 -5 -10 -17 -7 -27
3 -10 1 -21 -5 -25 -12 -7 -14 -45 -2 -45 4 0 14 6 20 12 10 10 15 10 22 -2
11 -18 4 -31 -14 -24 -9 4 -18 -7 -26 -30 -17 -53 -28 -52 -22 1 5 46 5 47
-15 27 -11 -10 -23 -26 -26 -34 -4 -10 -6 -7 -6 8 -1 25 -19 30 -27 7 -8 -19
-54 -20 -54 -1 0 8 -7 16 -15 20 -9 3 -15 18 -15 35 0 17 -8 44 -19 61 l-18
30 -29 -42 c-15 -24 -30 -45 -32 -48 -2 -2 -8 2 -13 10 -8 11 -9 5 -4 -22 4
-30 1 -41 -18 -62 -27 -29 -37 -65 -37 -135 l0 -46 -20 25 c-11 14 -20 31 -20
38 0 6 -6 12 -14 12 -8 0 -17 12 -19 28 -2 15 -5 6 -5 -23 -1 -27 2 -57 8 -65
5 -9 5 -19 -1 -27 -11 -13 10 -22 57 -25 13 -1 20 -7 17 -15 -6 -16 -15 -17
-29 -3 -21 21 -9 -27 13 -50 22 -23 22 -23 16 -2 -3 13 -1 22 6 22 7 0 11 -28
11 -80 0 -75 -1 -80 -21 -80 -15 0 -19 -5 -15 -15 3 -8 1 -15 -4 -15 -6 0 -10
16 -10 36 0 19 -4 33 -9 29 -5 -3 -12 -1 -16 5 -4 6 -11 8 -16 5 -5 -4 -9 5
-9 19 0 13 6 26 12 29 7 2 11 7 8 10 -10 11 -54 -18 -68 -43 -13 -24 -13 -24
-8 12 4 36 4 37 -17 25 -34 -19 -46 -40 -41 -67 5 -24 5 -24 -10 -6 -8 10 -19
15 -25 11 -6 -3 -11 0 -11 8 0 8 -6 20 -14 26 -11 9 -15 7 -19 -10 -4 -13 -12
-20 -24 -17 -13 2 -19 13 -20 43 -1 22 0 34 3 28 8 -18 25 -16 51 5 19 14 22
23 17 54 -4 21 -11 35 -16 32 -5 -3 -6 -19 -3 -34 3 -16 2 -31 -4 -35 -7 -4
-11 4 -11 21 0 21 -4 25 -20 21 -26 -7 -25 8 1 34 19 19 20 23 6 30 -9 5 -13
17 -10 28 3 10 0 22 -6 25 -5 4 -8 13 -4 21 9 24 -10 17 -41 -15 -22 -22 -32
-27 -38 -18 -5 8 -8 3 -8 -14 0 -19 5 -28 16 -28 13 0 14 -3 5 -14 -8 -10 -9
-16 -1 -21 13 -8 13 -25 1 -25 -5 0 -13 9 -16 20 -7 22 -13 24 -35 10 -9 -6
-11 -13 -5 -17 6 -5 18 -18 29 -30 17 -21 17 -23 2 -39 -16 -15 -16 -17 0 -29
16 -11 14 -13 -14 -17 -21 -3 -32 0 -32 8 0 22 -28 23 -55 2 -25 -20 -27 -20
-40 -2 -9 13 -10 21 -3 25 15 9 0 29 -17 23 -7 -3 -24 0 -37 7 -13 7 -31 12
-40 10 -10 -1 -18 4 -18 11 0 13 -60 52 -77 49 -4 0 -8 -7 -8 -13 0 -7 -11
-13 -25 -13 -17 0 -26 -6 -28 -20 -8 -51 -13 -65 -27 -65 -9 0 -12 -6 -8 -17
9 -25 46 -63 61 -63 7 0 10 -4 7 -10 -6 -10 -43 6 -57 25 -5 6 -8 3 -8 -7 0
-9 -3 -23 -6 -31 -3 -9 2 -17 13 -20 10 -3 -94 -5 -230 -4 -196 2 -249 5 -256
16 -7 11 -15 10 -45 -4 -44 -21 -50 -17 -33 18 13 28 33 38 23 11 -4 -10 -1
-14 6 -12 7 3 14 18 16 34 2 22 0 25 -7 14 -15 -22 -24 -5 -9 19 10 16 10 23
0 33 -6 6 -12 23 -12 36 0 19 -3 22 -13 14 -7 -6 -18 -7 -25 -3 -10 6 -10 17
0 54 10 40 10 48 -5 65 -9 10 -17 21 -17 25 0 8 -60 67 -69 67 -5 0 -11 -18
-15 -40 -5 -31 -11 -41 -31 -46 -15 -4 -25 -13 -25 -24 0 -24 -18 -36 -26 -17
-3 8 -14 17 -25 20 -12 3 -19 14 -19 30 0 33 -17 45 -64 43 -39 -2 -76 -32
-76 -62 0 -8 -6 -23 -13 -34 -8 -14 -9 -23 -2 -28 19 -14 10 -51 -22 -86 -37
-42 -46 -45 -37 -12 3 13 1 27 -6 31 -8 5 -6 14 5 31 9 14 15 39 13 57 -2 26
-7 32 -25 31 -15 0 -24 7 -28 23 -5 21 -35 34 -35 14 0 -5 -8 -11 -17 -15 -10
-3 -23 -8 -28 -11 -7 -3 -9 9 -8 32 4 45 -31 98 -47 73 -5 -8 -12 -11 -16 -8
-11 11 -44 -11 -44 -30 0 -10 -18 -26 -43 -38 -27 -14 -42 -28 -42 -40 0 -11
-7 -24 -15 -31 -12 -9 -16 -8 -22 8 -11 27 -27 23 -41 -10 -10 -25 -16 -28
-31 -19 -14 8 -21 7 -27 -3 -12 -19 -11 -3 3 42 6 22 17 39 26 39 12 0 12 4
-2 25 -9 14 -12 25 -7 25 5 0 11 -6 14 -12 7 -20 46 30 42 53 -2 12 2 19 11
19 16 0 19 16 4 25 -5 3 -10 17 -10 30 0 17 -9 29 -29 40 -16 8 -31 20 -33 27
-4 10 -8 10 -19 1 -8 -6 -27 -13 -44 -15 -23 -2 -31 -9 -33 -27 -2 -13 -10
-30 -17 -38 -15 -14 -10 -43 7 -43 7 0 6 -5 -1 -14 -9 -10 -8 -16 4 -26 12
-10 10 -16 -16 -43 -25 -25 -30 -36 -26 -62 7 -44 -6 -100 -23 -100 -9 0 -15
10 -16 25 -1 43 -4 50 -19 50 -16 0 -36 60 -24 74 12 14 -1 36 -22 36 -22 0
-22 -1 -10 -32 8 -22 7 -23 -30 -23 -31 0 -39 -3 -39 -17 0 -10 5 -18 10 -18
15 0 12 -26 -5 -40 -13 -11 -15 -3 -14 68 1 45 6 79 11 76 4 -3 8 -13 8 -22 0
-9 8 -1 19 18 10 19 15 40 11 45 -5 6 -7 33 -4 62 2 39 -1 57 -15 75 -16 19
-21 20 -35 9 -9 -7 -16 -19 -16 -27 0 -7 -10 -20 -22 -29 -17 -11 -23 -26 -24
-53 -1 -20 -4 -66 -8 -101 -4 -44 -2 -67 5 -72 9 -5 8 -15 -2 -38 -8 -17 -17
-31 -20 -31 -8 0 -23 30 -24 50 -1 15 -8 16 -37 5 -19 -8 -21 0 -18 68 1 20
-3 37 -8 37 -5 0 -9 28 -9 63 1 68 -16 112 -39 103 -8 -3 -14 -1 -14 4 0 16
-26 11 -42 -7 -17 -19 -32 -86 -33 -139 0 -17 -5 -37 -11 -45 -6 -8 -14 -23
-18 -33 -5 -14 -10 -16 -17 -9 -8 8 -8 17 0 32 16 28 -6 98 -33 105 -25 6 -36
-1 -36 -23 0 -9 -6 -23 -12 -30 -10 -11 -10 -13 0 -7 8 5 12 0 12 -14 0 -16
-4 -20 -15 -16 -9 3 -18 -1 -21 -9 -4 -8 -15 -15 -25 -15 -11 0 -22 -7 -25
-15 -4 -8 -11 -15 -16 -15 -6 0 -19 -9 -29 -21 -9 -11 -21 -20 -26 -19 -4 0
-9 -8 -11 -20 -2 -11 -10 -20 -17 -20 -11 0 -12 7 -4 33 7 23 6 35 -4 42 -7 6
-13 21 -13 35 0 16 -6 26 -17 28 -10 2 -17 -3 -17 -11 0 -8 -7 -20 -15 -27
-14 -12 -14 -15 1 -31 14 -16 14 -19 -3 -36 -19 -18 -18 -18 11 -33 22 -11 30
-22 29 -38 -2 -14 3 -22 12 -22 11 0 15 -11 14 -37 0 -21 -3 -32 -6 -25 -2 6
-13 12 -24 12 -10 0 -19 5 -19 10 0 16 -14 12 -38 -10 l-22 -21 -1 23 c-1 13
-1 44 1 71 1 29 -2 47 -9 47 -6 0 -11 11 -11 25 0 14 -10 35 -21 46 l-21 21
-15 -33 c-8 -19 -18 -41 -23 -50 -4 -8 -6 -29 -3 -45 4 -23 3 -27 -7 -17 -12
11 -14 33 -8 78 2 15 -2 19 -19 18 -18 -2 -27 8 -50 57 -15 33 -33 62 -41 65
-19 7 -62 -32 -62 -56 0 -9 -7 -22 -16 -30 -8 -7 -22 -25 -30 -41 -13 -26 -13
-33 4 -72 11 -24 25 -47 31 -50 6 -4 9 -12 6 -17 -13 -20 -32 -7 -49 34 -17
38 -41 67 -56 67 -3 0 -12 -16 -20 -35 -8 -19 -20 -35 -27 -35 -7 0 -13 -9
-13 -20 0 -11 -9 -28 -19 -37 -16 -13 -17 -19 -8 -34 7 -11 21 -19 31 -19 15
0 17 -3 9 -11 -8 -8 -17 -8 -32 0 -17 9 -24 8 -40 -8 -16 -16 -31 -19 -83 -17
-63 2 -63 2 -60 30 3 18 0 26 -7 22 -6 -4 -11 -20 -11 -37 0 -33 -13 -38 -30
-11 -8 12 -13 13 -16 5 -8 -18 -24 -16 -24 3 0 8 -4 12 -10 9 -5 -3 -10 -1
-10 5 0 7 12 10 27 8 23 -3 29 2 37 30 5 17 13 32 19 32 5 0 7 -7 3 -15 -3 -8
-1 -15 4 -15 6 0 10 6 10 14 0 8 6 16 14 19 9 4 12 14 9 26 -4 16 -9 18 -29
11 -24 -9 -35 2 -14 15 5 3 8 11 6 18 -1 7 -1 8 2 4 2 -4 10 -3 18 4 18 15 0
40 -24 33 -9 -3 0 4 20 15 46 26 50 33 38 65 -8 21 -6 27 10 36 16 9 18 14 9
33 -8 17 -19 23 -44 23 -19 0 -37 3 -41 6 -11 12 7 70 20 65 19 -7 7 42 -17
76 -23 31 -54 36 -64 10 -4 -10 -11 -21 -17 -25 -6 -4 -11 -15 -11 -25 0 -10
-9 -19 -19 -21 -16 -3 -18 0 -13 25 6 33 -5 59 -22 49 -6 -4 -11 -4 -11 1 0 4
-7 17 -15 27 -15 19 -15 19 -35 -2 -11 -11 -20 -33 -20 -47 0 -14 -4 -25 -10
-25 -5 0 -10 5 -10 11 0 5 -5 7 -11 3 -8 -4 -9 1 -4 15 5 16 1 27 -16 42 -12
10 -19 22 -14 27 4 4 10 1 12 -5 6 -18 23 -16 23 1 0 8 -14 21 -31 30 -30 15
-30 15 -44 -18 -8 -18 -23 -39 -34 -47 -26 -19 -12 -59 22 -59 13 0 27 -3 30
-6 10 -10 -13 -45 -25 -38 -6 4 -9 1 -7 -5 3 -7 7 -11 9 -9 8 5 38 -26 33 -35
-2 -4 -13 -2 -24 3 -22 12 -39 6 -39 -16 0 -8 -4 -14 -8 -14 -4 0 -13 -13 -19
-30 -9 -23 -18 -30 -37 -30 -16 0 -26 -6 -26 -14 0 -8 -9 -18 -20 -21 -23 -7
-54 -60 -45 -75 3 -6 15 -10 26 -10 10 0 19 -5 19 -10 0 -6 -7 -10 -17 -8 -26
5 -35 -47 -15 -83 15 -26 15 -31 2 -39 -22 -14 -30 -12 -24 8 4 10 -3 7 -18
-10 -13 -16 -29 -28 -35 -28 -6 0 -13 -6 -16 -12 -2 -7 -8 -9 -13 -5 -5 4 -2
12 5 16 24 15 3 33 -22 19 -28 -14 -26 -15 -46 24 -18 37 -76 64 -98 46 -10
-8 -13 -6 -13 6 0 9 -5 16 -11 16 -8 0 -8 5 1 15 21 26 6 41 -38 37 -27 -3
-42 -10 -45 -20 -4 -15 -5 -15 -6 0 0 9 3 20 9 23 13 8 13 35 -1 35 -5 0 -7
-4 -4 -10 3 -5 1 -10 -4 -10 -6 0 -11 -12 -11 -27 l0 -28 -16 33 c-19 37 -48
42 -64 12 -12 -22 -35 -17 -26 6 3 8 1 14 -4 14 -6 0 -10 -5 -10 -10 0 -16
-44 -30 -52 -16 -5 7 -11 8 -15 1 -5 -5 -35 -11 -69 -12 l-61 -1 3 30 c4 30
-9 58 -27 58 -5 0 -9 -4 -9 -10 0 -5 5 -9 11 -7 22 4 20 -21 -2 -28 -20 -7
-21 -8 -5 -17 13 -8 15 -13 5 -24 -15 -18 -43 -18 -36 0 4 9 -3 16 -20 20 -20
6 -23 9 -12 22 13 16 14 16 -22 31 -16 7 -31 8 -42 1 -26 -14 -20 -26 10 -20
21 4 25 2 20 -12 -4 -9 -2 -16 3 -16 6 0 10 -5 10 -11 0 -8 -15 -9 -47 -4 -34
5 -54 14 -70 33 -12 15 -22 21 -23 15 0 -7 -6 -13 -14 -13 -9 0 -12 -7 -9 -19
3 -13 -2 -23 -16 -30 -21 -12 -31 2 -11 14 6 3 10 12 9 18 0 8 -2 8 -6 -1 -4
-10 -8 -10 -19 -1 -10 8 -14 8 -14 0 0 -6 -7 -11 -15 -11 -8 0 -15 -6 -15 -12
0 -9 -3 -8 -10 2 -8 12 -12 11 -30 -8 -17 -18 -24 -20 -40 -10 -20 13 -18 28
6 28 8 0 14 7 14 15 0 8 -5 15 -11 15 -5 0 -7 -4 -4 -10 8 -13 5 -12 -34 1
-17 6 -31 14 -31 19 0 4 -12 7 -27 8 -16 0 -48 1 -73 3 -25 1 -55 -3 -68 -10
-24 -13 -62 0 -62 20 0 6 -7 9 -15 5 -21 -8 -19 6 4 26 14 12 21 13 24 5 2 -7
7 -10 9 -7 3 3 2 16 -3 29 -8 19 -12 21 -24 11 -12 -10 -15 -10 -15 3 0 8 14
20 32 26 l32 11 -23 16 c-13 9 -19 19 -14 23 5 3 15 15 21 26 10 17 11 15 6
-15 -5 -33 -5 -34 10 -16 16 19 16 19 16 -2 0 -13 6 -22 15 -22 8 0 15 6 15
13 0 7 3 8 8 2 4 -5 25 -18 47 -29 22 -10 52 -25 68 -33 24 -13 27 -12 27 2 0
9 -9 19 -20 22 -25 7 -26 20 -2 26 12 3 10 5 -8 7 -14 1 -28 2 -32 1 -5 0 -8
3 -8 8 0 5 -16 12 -35 15 -19 4 -35 12 -35 19 0 8 -4 7 -10 -3 -5 -8 -10 -12
-12 -10 -2 3 -8 14 -14 25 -15 26 -45 31 -60 10 -10 -13 -17 -14 -31 -6 -11 6
-13 11 -5 11 11 0 11 2 0 13 -7 8 -30 13 -50 13 -20 -1 -34 2 -32 6 3 5 -2 11
-11 14 -9 4 -14 13 -11 20 3 7 -2 17 -11 22 -14 8 -14 13 2 50 14 32 22 39 31
31 7 -6 19 -7 25 -3 9 5 10 2 6 -9 -4 -10 0 -20 11 -26 9 -5 13 -13 9 -17 -5
-5 -12 -2 -16 5 -11 18 -31 5 -31 -20 0 -14 7 -19 25 -19 14 0 25 -5 25 -12 0
-9 3 -9 11 -1 9 9 18 8 36 -4 19 -13 28 -14 46 -4 12 6 31 12 42 14 36 5 46
16 35 38 -11 19 -11 19 -40 -1 -25 -18 -30 -19 -43 -5 -12 11 -17 12 -20 2 -4
-9 -6 -9 -6 0 -1 9 -8 10 -27 2 -24 -9 -26 -8 -14 6 10 12 10 19 2 27 -20 20
-13 29 14 22 17 -4 25 -3 21 3 -13 20 18 43 61 46 72 5 77 57 6 57 -18 0 -44
4 -58 10 -29 11 -34 3 -11 -14 13 -10 13 -13 -6 -24 -12 -8 -18 -9 -15 -3 4 5
2 12 -2 15 -13 8 -33 -41 -25 -60 5 -15 1 -16 -33 -10 -55 11 -60 16 -33 37
20 16 22 20 9 29 -13 9 -13 11 0 20 13 8 12 10 -4 10 -13 0 -17 5 -13 19 3 14
1 18 -9 14 -13 -5 -15 -11 -18 -45 -1 -7 -12 -19 -25 -25 -30 -17 -30 -17 -24
7 4 14 0 20 -11 20 -27 0 -77 -30 -70 -42 4 -6 1 -9 -7 -6 -8 3 -13 16 -11 29
3 25 20 41 35 32 4 -3 11 5 14 17 4 13 8 17 13 11 4 -8 13 -4 26 10 19 22 19
22 -5 16 -21 -5 -22 -3 -16 21 17 69 18 85 5 77 -6 -4 -9 -16 -7 -27 5 -16 2
-19 -14 -15 -10 3 -19 1 -19 -4 0 -5 -7 -9 -15 -9 -12 0 -15 17 -16 88 -1 100
-4 167 -12 267 -3 39 -3 60 -1 48 3 -13 9 -23 14 -23 5 0 11 -9 15 -19 3 -11
16 -21 28 -23 13 -2 23 -12 27 -28 4 -17 8 -21 14 -12 10 16 -15 72 -33 72 -8
0 -11 7 -8 20 3 13 0 20 -9 20 -12 0 -12 4 -4 20 6 11 15 18 21 15 5 -4 7 -10
5 -14 -3 -4 4 -12 15 -19 15 -10 19 -10 19 2 0 29 35 77 52 72 10 -2 21 0 24
6 4 6 -28 8 -87 6 l-94 -3 3 -32 c1 -18 -2 -33 -8 -33 -5 0 -10 16 -10 35 0
39 -6 43 -26 18 -13 -17 -13 -17 -14 0 0 15 -10 17 -76 17 -71 0 -75 -1 -69
-20 5 -15 2 -20 -14 -20 -10 0 -26 -2 -34 -6 -8 -3 -28 6 -45 20 -16 15 -38
26 -47 26 -25 0 -11 -50 21 -73 13 -10 24 -25 24 -32 0 -8 8 -18 18 -24 13 -7
14 -13 6 -21 -8 -8 -14 -9 -18 -1 -12 19 -29 12 -23 -9 4 -16 0 -20 -17 -20
-30 0 -32 -36 -3 -51 12 -7 25 -16 28 -21 3 -5 16 -4 30 1 l24 10 -27 0 c-27
1 -51 21 -25 21 11 0 13 7 10 21 -8 29 18 21 32 -9 6 -15 15 -20 27 -16 22 7
23 -2 3 -23 -15 -15 -12 -33 6 -33 6 0 8 4 5 9 -3 5 1 11 9 15 25 9 17 -24
-11 -51 -19 -17 -30 -21 -37 -14 -15 15 -27 14 -27 -4 0 -8 5 -15 10 -15 19 0
10 -15 -15 -27 -14 -6 -25 -7 -25 -2 0 21 -22 7 -31 -21 -6 -16 -15 -30 -20
-30 -5 0 -9 -18 -9 -39 0 -28 -6 -44 -20 -54 -17 -12 -18 -15 -5 -34 8 -12 12
-30 9 -40 -5 -17 -5 -17 10 1 32 39 64 71 85 86 24 17 28 43 5 38 -8 -2 -15
-7 -15 -13 0 -13 -38 -27 -51 -19 -6 4 0 13 16 21 14 7 26 22 26 32 0 29 37
34 44 6 4 -16 16 -25 41 -29 19 -4 35 -11 35 -16 0 -6 13 -10 29 -10 24 0 31
-6 40 -31 17 -50 13 -65 -24 -84 -28 -16 -32 -22 -22 -33 10 -13 8 -14 -13 -8
-23 6 -22 5 8 -23 26 -22 32 -34 27 -50 -3 -12 -13 -21 -21 -21 -17 0 -18 12
-2 28 8 8 2 8 -25 0 -45 -14 -65 -6 -78 31 -6 17 -19 33 -29 36 -10 3 -20 15
-23 26 -5 18 -8 19 -27 7 -21 -13 -21 -13 0 -16 11 -2 18 -8 15 -13 -4 -5 -1
-9 4 -9 6 0 11 -8 11 -19 0 -10 6 -24 14 -30 8 -7 13 -23 11 -36 -1 -14 2 -25
6 -25 5 0 9 -12 9 -26 0 -19 -4 -25 -15 -20 -17 6 -20 -19 -6 -56 6 -17 5 -29
-5 -43 -8 -10 -14 -29 -14 -41 0 -32 -57 -51 -77 -26 -13 16 -14 15 -10 -6 5
-20 2 -22 -16 -16 -18 5 -20 4 -9 -7 16 -17 15 -29 -3 -29 -8 0 -15 -4 -15
-10 0 -5 -5 -10 -11 -10 -6 0 -8 7 -5 15 4 11 -3 19 -20 25 -18 7 -24 15 -20
26 3 9 6 24 6 34 0 10 7 25 15 33 8 8 17 32 19 54 5 40 30 98 47 108 13 8 11
52 -2 61 -6 3 -9 17 -6 30 6 32 -7 31 -21 -2 -13 -27 -32 -24 -32 6 0 10 -4
21 -9 24 -18 11 1 46 24 46 32 0 41 29 12 39 -22 8 -67 -5 -67 -19 0 -17 -45
-19 -57 -3 -14 18 -5 41 28 74 10 10 19 24 19 29 0 6 6 10 14 10 23 0 31 22
13 35 -21 15 -22 26 -3 19 20 -8 27 9 16 44 -5 20 -5 34 1 38 5 3 7 9 4 14 -3
4 2 13 10 20 8 7 15 18 15 25 0 7 6 12 13 11 13 -1 17 5 17 29 0 8 -7 15 -15
15 -8 0 -16 6 -16 13 -1 6 -2 19 -3 27 0 8 -9 14 -18 12 -22 -3 -22 6 -3 32
14 18 15 18 15 2 0 -9 4 -14 10 -11 15 9 12 35 -4 35 -9 0 -12 7 -9 20 5 18
-5 25 -29 21 -5 0 -8 3 -8 9 0 5 5 10 10 10 6 0 10 9 10 20 0 25 -45 28 -54 4
-3 -8 -10 -12 -16 -9 -6 4 -8 11 -4 16 3 6 -283 9 -766 9 -577 -1 -769 -4
-764 -12 4 -6 8 -25 9 -41 2 -28 1 -28 -33 -22 -39 7 -71 23 -88 44 -8 11 -13
11 -19 2 -5 -9 -11 -7 -22 8 -12 18 -25 21 -78 21 -35 0 -67 -4 -70 -10z
m-552 -836 c30 -5 36 -9 27 -19 -8 -9 -8 -14 1 -17 17 -6 2 -28 -20 -28 -9 0
-22 5 -29 12 -6 6 -14 10 -16 7 -3 -2 -6 -57 -8 -121 -2 -65 -7 -120 -11 -124
-6 -6 -9 3 -6 22 2 13 -23 21 -52 18 -26 -3 -29 -1 -29 24 0 15 7 35 15 46 13
17 12 21 -10 38 -21 16 -25 28 -25 71 0 44 3 54 23 63 25 12 85 16 140 8z
m1294 -709 c51 0 88 -2 82 -3 -5 -2 7 -13 28 -24 51 -27 59 -36 47 -48 -8 -8
-15 -6 -24 5 -17 20 -60 20 -60 -1 0 -14 3 -14 16 -4 13 11 19 10 36 -8 l21
-20 -44 4 c-40 5 -42 4 -26 -10 11 -8 25 -12 33 -9 8 3 14 0 14 -6 0 -6 -6
-11 -14 -11 -36 0 -21 -22 38 -55 35 -19 97 -67 137 -105 l74 -70 137 0 c75 0
139 -4 143 -9 3 -5 38 -7 80 -4 63 5 75 3 75 -9 0 -13 13 -15 74 -12 51 2 79
-1 92 -11 18 -13 18 -14 2 -20 -33 -13 -19 -28 20 -22 20 4 44 2 52 -3 12 -8
12 -10 1 -10 -8 0 -11 -7 -8 -20 5 -18 0 -20 -56 -20 -91 0 -65 -7 53 -14 253
-15 260 -16 260 -41 0 -20 -4 -22 -42 -19 -24 3 -169 6 -323 7 -189 3 -292 8
-318 16 -20 7 -43 10 -50 8 -6 -3 -1 -6 13 -7 19 0 21 -3 10 -9 -8 -5 -35 -6
-60 -2 -39 5 -47 11 -67 46 -24 43 -22 55 10 55 19 0 18 2 -8 16 -18 9 -31 11
-33 5 -2 -6 -22 10 -45 34 -22 25 -47 45 -54 45 -8 0 -12 4 -9 9 15 23 -136
138 -227 174 -78 31 -204 52 -255 42 -60 -11 -139 -45 -177 -75 -21 -17 -42
-30 -48 -30 -6 0 6 12 26 28 20 15 36 32 37 38 0 7 20 18 44 25 l43 13 -5 68
c-3 47 -1 68 7 68 6 0 11 -16 11 -35 0 -40 9 -44 36 -14 10 12 31 27 46 35 16
8 27 18 27 22 -3 20 3 24 19 11 12 -10 45 -14 109 -14z m5324 -132 c1 -10 1
-21 1 -25 -1 -3 5 -12 13 -18 12 -10 15 -10 15 1 0 9 3 10 11 2 8 -8 8 -17 0
-32 -9 -17 -8 -22 9 -31 23 -12 25 -7 10 21 -7 13 -7 19 0 19 5 0 11 10 11 23
1 20 2 20 6 2 3 -11 10 -23 17 -27 6 -4 11 -13 11 -19 0 -7 14 -17 30 -22 17
-6 33 -14 36 -20 4 -5 11 -7 17 -3 6 4 8 -2 5 -15 -4 -14 -9 -17 -16 -10 -18
18 -30 13 -24 -10 3 -13 1 -19 -6 -16 -7 2 -11 13 -10 25 1 11 -4 26 -12 32
-11 9 -15 9 -15 1 0 -15 -83 -14 -98 1 -10 10 -15 10 -22 -2 -18 -29 -23 2 -5
32 17 30 17 31 0 45 -22 15 -45 17 -45 3 0 -5 6 -10 13 -10 6 0 1 -6 -13 -13
-26 -14 -50 -12 -50 4 0 5 5 9 11 9 21 0 55 35 51 53 -3 13 3 17 22 17 18 0
26 -6 27 -17z m-2705 -120 c11 -17 19 -23 22 -15 2 7 -2 19 -8 27 -7 9 -8 15
-2 15 5 0 12 -7 16 -15 3 -8 13 -15 22 -15 9 0 23 -8 31 -17 8 -10 12 -13 9
-6 -7 14 3 43 15 43 5 0 9 -6 9 -14 0 -9 7 -12 20 -9 11 3 20 10 20 15 0 5 4
7 10 3 5 -3 6 -13 3 -21 -4 -10 2 -17 17 -21 17 -5 21 -11 17 -32 -3 -14 2
-39 10 -56 9 -16 19 -36 23 -44 3 -8 21 -16 38 -18 28 -4 32 -1 32 19 1 21 2
21 13 6 12 -15 14 -15 25 3 7 10 12 28 12 38 0 11 5 23 10 26 6 3 10 15 10 25
0 21 42 40 48 21 2 -6 8 -8 14 -5 6 4 21 -6 35 -22 l25 -29 -7 33 c-7 33 -6
33 17 22 12 -7 31 -19 41 -28 15 -14 17 -14 17 1 0 16 33 13 58 -6 8 -7 20 -7
35 1 40 19 67 21 67 5 0 -10 6 -12 21 -8 13 5 25 2 31 -6 7 -10 11 -11 14 -2
4 8 12 8 32 -3 15 -7 35 -11 45 -8 11 4 17 0 17 -11 0 -10 7 -15 18 -13 14 3
52 -29 52 -44 0 -1 -23 -3 -50 -4 -28 0 -56 -6 -62 -12 -9 -9 -7 -12 8 -12 11
0 24 4 30 10 5 5 15 6 23 1 11 -7 9 -10 -9 -16 -19 -6 -21 -12 -15 -42 4 -24
3 -33 -4 -28 -6 3 -11 -1 -11 -9 0 -9 -6 -16 -14 -16 -11 0 -13 11 -11 43 2
23 1 34 -2 24 -3 -12 -10 -16 -20 -12 -9 3 -33 -6 -55 -20 -39 -26 -49 -45
-24 -45 7 0 16 -9 19 -20 5 -21 -7 -28 -18 -9 -4 5 -17 14 -28 20 -12 5 -30
15 -40 21 -14 11 -19 10 -26 0 -6 -10 -10 -6 -14 15 -3 15 -1 33 4 39 6 7 4
16 -6 24 -8 7 -15 18 -15 25 0 7 -9 15 -20 18 -11 3 -20 1 -20 -4 0 -5 8 -9
18 -9 13 0 14 -2 3 -9 -11 -7 -10 -11 4 -19 10 -5 15 -14 11 -21 -12 -19 -36
-12 -45 12 -14 36 -38 52 -55 37 -8 -6 -25 -10 -37 -8 -26 4 -39 28 -15 28 9
0 16 5 16 10 0 6 -2 10 -4 10 -2 0 -11 3 -20 6 -11 4 -16 0 -16 -12 0 -11 -5
-36 -11 -57 -9 -34 -13 -38 -32 -32 -12 3 -29 6 -37 6 -8 -1 -37 -1 -64 0 -30
0 -52 -5 -58 -13 -6 -10 -10 -10 -19 2 -8 11 -12 12 -16 3 -9 -23 -25 -14 -19
11 4 18 1 25 -14 29 -13 3 -20 0 -20 -9 0 -8 -4 -14 -10 -14 -5 0 -10 4 -10 9
0 5 -16 15 -35 21 -19 6 -35 17 -35 23 0 7 -10 -3 -21 -20 -12 -18 -28 -33
-37 -33 -13 -1 -12 -5 7 -21 13 -11 22 -22 19 -24 -3 -3 -29 -1 -59 4 -30 6
-94 15 -142 22 -48 7 -90 16 -92 20 -3 4 2 12 10 19 8 7 15 21 15 31 0 25 25
24 44 -2 8 -12 22 -19 33 -16 15 3 14 6 -9 15 -15 6 -32 20 -38 31 -15 29 -2
71 21 71 12 0 19 7 19 19 0 11 9 21 22 24 31 9 35 1 9 -20 -14 -12 -18 -22
-12 -32 7 -11 13 -7 27 15 21 32 46 54 55 48 3 -2 11 8 17 21 15 33 35 32 58
-2z m2720 -200 c-8 -37 8 -64 26 -44 8 9 9 11 1 7 -16 -9 -28 13 -14 27 8 8
14 8 23 -1 7 -7 17 -8 30 -1 14 8 18 6 18 -8 0 -15 2 -16 10 -3 7 12 12 12 29
-4 12 -11 21 -25 21 -32 0 -10 6 -11 25 -4 28 11 43 -3 26 -24 -6 -7 -8 -28
-5 -48 5 -30 3 -36 -16 -41 -12 -3 -19 -10 -15 -16 3 -6 0 -18 -9 -26 -17 -17
-41 -20 -31 -4 4 6 0 16 -8 22 -8 7 -17 24 -21 40 -5 21 -3 27 9 27 9 0 13 -5
10 -10 -4 -7 6 -10 29 -8 27 1 36 7 36 20 0 10 -3 17 -7 16 -5 -2 -8 2 -8 7 0
6 4 9 8 7 5 -1 6 2 2 8 -3 5 -17 10 -30 10 -13 0 -26 6 -28 13 -3 6 -6 1 -6
-11 -1 -14 -8 -26 -19 -28 -13 -4 -17 -14 -16 -40 2 -42 -23 -61 -52 -39 -15
11 -16 14 -4 15 10 0 11 3 4 8 -16 11 -34 48 -27 56 4 4 12 -4 19 -16 12 -22
13 -22 20 -4 5 13 2 23 -9 31 -9 7 -15 14 -13 16 2 2 -2 10 -10 17 -11 10 -15
8 -20 -14 -5 -20 -11 -24 -27 -20 -30 7 -71 -38 -57 -64 13 -24 13 -40 0 -40
-5 0 -10 7 -10 15 0 11 -5 12 -26 5 -34 -13 -52 -13 -51 3 0 6 -1 21 -2 32 -1
18 -2 19 -12 3 -12 -22 -46 -24 -46 -3 0 8 4 15 9 15 4 0 8 8 8 17 0 13 -3 14
-12 5 -8 -8 -15 -9 -25 -1 -20 17 -16 26 14 32 27 5 45 -6 56 -33 3 -8 6 -1 6
17 1 28 -3 34 -31 42 -18 5 -25 10 -15 10 10 1 35 12 55 26 33 23 38 24 49 9
14 -19 33 -11 33 14 1 13 4 11 14 -7 l14 -24 12 23 c10 18 14 20 21 9 7 -12
11 -11 26 4 23 23 26 22 19 -10z m3950 12 c24 -10 39 -25 50 -52 9 -21 24 -43
33 -49 32 -23 72 -64 62 -64 -6 0 -11 -11 -11 -24 0 -29 -18 -44 -26 -22 -3 9
-10 13 -16 10 -5 -3 -5 -11 2 -19 9 -10 4 -15 -19 -20 -17 -3 -35 -4 -41 0 -5
3 -34 -19 -63 -49 -29 -31 -60 -56 -67 -56 -8 0 2 12 23 27 33 23 50 47 30 41
-5 -2 -9 0 -10 5 -7 19 0 29 29 41 17 8 33 21 34 31 1 9 0 14 -3 11 -3 -3 -13
-2 -22 3 -9 5 -29 11 -45 15 -21 5 -27 4 -24 -6 19 -50 19 -56 -4 -62 -28 -7
-68 -70 -98 -154 -16 -44 -26 -59 -34 -53 -14 12 -41 -2 -41 -21 0 -9 -14 -12
-43 -10 -31 2 -44 -2 -48 -13 -9 -23 -26 -18 -19 5 4 12 2 20 -6 20 -8 0 -8 4
1 15 11 13 15 13 22 3 6 -9 7 -6 3 9 -5 19 -3 21 22 18 15 -2 32 -4 36 -4 5
-1 5 -5 2 -11 -3 -5 0 -10 8 -10 21 0 101 99 130 162 33 69 37 102 8 67 l-19
-24 -7 38 c-8 40 5 67 34 67 9 0 25 7 35 15 11 8 35 15 52 15 55 0 101 28 74
45 -5 3 -10 1 -10 -4 0 -6 -9 -11 -21 -11 -12 0 -18 -4 -13 -11 5 -8 -3 -10
-27 -5 -19 4 -49 7 -68 7 -27 -1 -32 2 -27 16 6 15 4 15 -14 -2 -15 -14 -20
-15 -20 -4 0 24 44 67 80 77 49 14 56 14 96 -3z m-9151 -55 c-4 -6 3 -6 18 1
20 9 34 6 83 -20 63 -32 113 -54 129 -56 6 -1 17 -4 25 -7 8 -3 35 -12 59 -19
25 -7 56 -24 69 -36 20 -18 37 -23 86 -24 34 -1 122 -5 196 -9 l135 -8 -182 3
c-101 1 -183 0 -183 -4 0 -3 18 -19 40 -34 22 -16 40 -34 40 -42 0 -7 7 -15
15 -19 22 -8 18 -26 -6 -26 -14 0 -19 5 -16 14 10 26 -156 156 -197 156 -8 0
-27 7 -42 15 -16 8 -43 15 -61 15 -32 0 -113 45 -113 64 0 6 -5 3 -10 -6 -9
-14 -21 -16 -83 -11 -39 3 -74 7 -76 9 -8 7 53 53 72 54 5 0 5 -5 2 -10z
m4850 0 c14 -5 24 -14 20 -20 -3 -5 3 -15 15 -22 22 -14 28 -33 7 -25 -10 4
-12 -3 -9 -23 2 -15 -1 -31 -7 -34 -5 -4 -7 -14 -4 -22 4 -11 8 -12 13 -4 5 8
15 4 34 -13 20 -19 24 -27 14 -33 -9 -6 -6 -10 12 -15 14 -4 -36 -4 -110 -1
-120 5 -136 8 -153 26 -11 13 -20 17 -23 10 -3 -8 -17 -5 -42 7 -20 11 -43 19
-50 19 -10 0 -12 7 -9 21 5 20 5 20 -14 3 -15 -13 -22 -15 -31 -6 -9 9 -8 12
5 12 9 0 17 4 17 8 0 15 -38 44 -49 37 -6 -3 -11 0 -11 9 0 21 20 25 50 9 22
-11 26 -10 32 6 3 11 11 22 17 25 7 4 8 1 5 -8 -4 -11 0 -13 16 -9 13 3 29 -2
41 -13 24 -21 28 -21 40 -2 7 11 11 10 19 -2 6 -10 10 -11 10 -2 0 6 4 12 8
12 5 0 9 -14 9 -30 0 -22 -4 -29 -14 -26 -9 4 -13 -3 -13 -19 0 -16 6 -25 16
-25 10 0 14 6 10 15 -3 8 0 15 5 15 6 0 9 -9 6 -20 -6 -24 8 -37 17 -15 4 11
11 13 30 5 17 -6 27 -6 32 1 3 6 12 8 20 5 8 -3 14 -1 14 4 0 6 -4 10 -10 10
-5 0 -10 7 -10 15 0 9 7 15 16 13 21 -4 27 41 7 49 -12 5 -12 7 -2 14 8 4 11
11 8 14 -11 11 -36 -6 -48 -33 -10 -21 -14 -23 -21 -11 -8 11 -13 12 -30 1
-18 -11 -20 -10 -20 9 0 11 3 18 8 16 4 -3 21 1 37 9 17 8 22 12 13 9 -10 -2
-26 -1 -35 2 -13 5 -9 9 18 19 43 16 43 16 74 4z m-5922 -201 c-9 -19 -19 -36
-22 -39 -3 -3 -6 -14 -6 -25 0 -12 -8 -21 -20 -23 -28 -5 -62 -39 -70 -70 -5
-20 -8 -23 -15 -11 -8 12 -12 11 -27 -3 -16 -17 -16 -18 12 -18 23 0 26 -3 17
-12 -8 -8 -41 -11 -100 -9 -138 4 -141 4 -136 13 3 4 38 8 79 8 41 0 77 5 80
10 6 10 -19 14 -62 10 -13 -1 -23 1 -23 4 0 7 61 36 77 36 7 0 13 4 13 9 0 6
27 20 60 32 33 12 60 28 60 35 0 8 11 14 25 14 14 0 25 5 25 10 0 12 42 71 47
67 2 -2 -4 -19 -14 -38z m-203 -49 c-8 -5 -23 -10 -33 -10 -11 0 -31 -8 -45
-19 -15 -10 -49 -28 -77 -40 -47 -21 -50 -21 -62 -4 -7 9 -26 17 -41 18 -23 0
-27 5 -30 33 l-3 32 153 0 c102 0 148 -4 138 -10z m9406 -66 c8 3 14 1 14 -3
0 -5 -6 -11 -12 -14 -20 -7 -2 -19 27 -19 19 0 24 -5 21 -17 -2 -9 -7 -31 -11
-49 -4 -18 -10 -30 -14 -28 -4 3 -19 -1 -34 -9 -25 -13 -27 -12 -27 6 0 10 -4
19 -10 19 -5 0 -10 -13 -10 -30 0 -16 -5 -30 -10 -30 -6 0 -8 10 -4 24 3 13 1
27 -5 30 -7 4 -11 -1 -11 -13 0 -12 -4 -21 -10 -21 -5 0 -10 7 -10 15 0 22 22
65 34 65 5 0 1 7 -10 16 -10 8 -14 13 -7 10 6 -4 14 -2 18 4 3 5 -3 10 -14 10
-25 0 -26 6 -7 26 19 18 30 18 22 -1 -6 -16 3 -19 28 -9 9 3 17 16 17 28 1 18
2 18 6 3 3 -11 11 -16 19 -13z m762 -202 c-11 -13 -11 -15 4 -10 11 5 18 0 21
-13 7 -26 -20 -51 -47 -44 -11 2 -15 2 -8 -1 6 -3 12 -13 12 -21 0 -14 2 -14
18 0 16 15 42 23 42 13 0 -1 -5 -17 -11 -35 -12 -34 -33 -39 -88 -20 -30 11
-32 14 -29 53 3 36 0 41 -22 46 -33 7 -38 50 -6 49 12 0 15 -3 9 -6 -23 -9
-14 -23 12 -19 14 3 25 0 25 -5 0 -5 7 -9 16 -9 10 0 14 -6 11 -14 -4 -10 -1
-13 9 -9 16 6 18 19 4 28 -11 7 -2 34 17 53 7 7 14 21 15 30 0 9 3 2 5 -16 3
-19 -1 -40 -9 -50z m-7624 52 c23 -9 20 -23 -4 -17 -11 3 -20 1 -20 -4 0 -9
52 -23 142 -38 21 -3 40 -9 42 -14 8 -12 -17 -61 -31 -61 -7 0 -13 -11 -13
-25 0 -19 -4 -23 -17 -18 -14 5 -15 1 -9 -28 3 -19 11 -35 16 -37 15 -5 12
-29 -5 -36 -9 -3 -15 0 -15 9 0 24 -34 36 -56 21 -11 -8 -36 -18 -57 -24 -32
-9 -37 -8 -37 6 -1 26 -67 95 -84 89 -9 -4 -18 -2 -21 4 -4 5 -11 7 -16 3 -5
-3 -16 -1 -23 5 -8 7 -18 10 -23 9 -4 -2 -19 7 -33 20 -13 12 -30 22 -37 22
-7 0 -13 5 -13 10 0 6 -14 10 -31 10 -17 0 -28 4 -24 10 3 5 -9 19 -27 30 -22
13 -27 20 -15 20 9 0 25 -4 35 -9 89 -45 207 -91 236 -91 8 0 33 16 57 36 37
31 39 34 16 29 -35 -9 -35 6 0 45 27 30 39 35 67 24z m10588 -495 c2 -6 60
-14 137 -20 73 -5 136 -11 140 -14 4 -2 46 -5 94 -6 48 -2 87 -7 87 -12 0 -5
20 -7 47 -4 26 3 58 0 72 -5 15 -6 54 -14 89 -18 35 -5 66 -11 69 -13 11 -12
-10 -27 -37 -27 -39 0 -43 -22 -8 -37 22 -10 29 -18 26 -35 -3 -22 -7 -23 -88
-22 -80 0 -114 -11 -87 -28 7 -5 1 -8 -15 -8 -31 0 -37 14 -11 24 12 5 7 11
-23 27 -21 10 -46 18 -54 15 -8 -2 -5 -4 8 -5 40 -2 23 -16 -21 -16 -28 0 -41
4 -39 13 3 16 -3 15 -23 -5 -13 -13 -19 -13 -25 -4 -5 8 -10 9 -14 3 -3 -6
-16 -8 -28 -4 -17 4 -20 2 -15 -11 4 -11 1 -17 -9 -17 -11 0 -13 6 -9 20 5 16
2 20 -15 20 -12 0 -19 -3 -16 -8 6 -10 -146 -9 -163 2 -10 7 -12 5 -6 -3 5 -9
-1 -11 -26 -6 -19 4 -47 6 -62 6 -16 -1 -34 2 -40 6 -7 5 -19 8 -27 9 -45 3
-51 5 -45 14 3 6 1 10 -4 10 -6 0 -11 -4 -11 -9 0 -5 -10 -12 -22 -14 -17 -3
-14 -5 10 -6 17 0 32 -5 32 -11 0 -6 28 -10 63 -11 34 0 71 -4 82 -9 28 -12
-70 -13 -132 -1 -26 5 -99 12 -162 15 -62 2 -118 9 -123 14 -10 10 79 8 157
-3 29 -4 35 -3 20 4 -19 9 -19 10 4 10 54 2 9 11 -79 16 -52 3 -102 6 -110 7
-36 3 -61 -3 -55 -12 4 -6 15 -8 24 -5 11 3 18 0 18 -7 0 -10 -18 -12 -66 -10
-63 4 -65 4 -36 16 l30 12 -34 7 c-18 4 -37 4 -42 1 -5 -3 -9 0 -9 5 0 6 20
11 45 11 36 0 45 -4 46 -17 0 -14 2 -13 9 5 11 25 12 26 81 11 42 -9 53 -9 60
2 4 8 21 14 36 15 15 0 78 4 140 8 l112 9 5 28 c4 16 9 43 12 59 5 29 29 41
36 19z m-12142 -961 c0 -7 11 -34 24 -61 14 -26 29 -80 36 -120 6 -39 21 -106
34 -147 14 -41 32 -102 42 -135 9 -33 21 -64 25 -70 3 -5 10 -29 14 -51 l6
-42 -48 -15 c-26 -9 -111 -23 -188 -32 -77 -9 -155 -19 -172 -22 -19 -3 -33
-1 -33 5 0 5 18 12 40 16 30 5 38 10 33 22 -6 17 -52 11 -65 -9 -8 -12 -22 37
-20 68 1 11 -5 39 -13 62 -11 31 -12 50 -5 69 6 14 8 30 4 35 -3 5 2 17 11 26
13 12 16 29 13 65 -4 38 -1 53 14 71 43 49 94 157 112 239 6 29 21 34 94 37
28 1 42 -3 42 -11z m296 -1189 l6 -56 -43 -7 c-50 -8 -123 -38 -145 -61 -9 -8
-20 -13 -24 -10 -5 3 -14 -4 -20 -15 -6 -11 -15 -18 -20 -15 -5 3 -11 1 -15
-5 -6 -10 7 -14 33 -11 6 1 12 -3 12 -8 0 -14 -45 -24 -74 -17 -14 3 -28 2
-31 -4 -8 -13 -65 -13 -65 0 0 6 -27 10 -61 10 -55 0 -60 2 -53 18 4 9 9 56
12 103 l4 86 136 22 c76 12 175 26 222 32 46 6 87 12 89 15 12 12 31 -27 37
-77z"/>
<path d="M12307 7043 c-3 -5 -5 -24 -6 -43 -1 -19 -3 -51 -5 -70 -3 -19 -5
-39 -5 -43 -1 -5 -5 -6 -10 -3 -5 3 -15 -2 -22 -11 -13 -15 -11 -16 12 -10 22
6 26 3 25 -11 -1 -15 -20 -34 -38 -38 -5 -1 -11 -2 -14 -3 -4 0 -2 -7 4 -14
13 -15 3 -32 -17 -32 -8 0 -16 -6 -18 -12 -3 -7 3 -13 11 -13 11 0 15 -7 13
-22 -2 -13 -2 -18 0 -13 2 6 14 15 26 20 12 6 26 20 32 33 5 12 18 25 27 28 9
3 15 11 12 19 -3 8 6 21 20 30 14 10 26 24 26 31 0 16 -16 19 -25 4 -3 -5 -13
-10 -22 -10 -27 0 -10 70 26 109 17 18 31 39 31 47 0 24 -71 47 -83 27z"/>
<path d="M9170 6643 c0 -7 -7 -10 -15 -7 -8 4 -15 2 -15 -4 0 -6 6 -12 13 -15
9 -3 9 -7 0 -17 -16 -17 -35 -3 -28 21 4 11 2 19 -5 19 -6 0 -8 -5 -5 -10 3
-6 -1 -13 -10 -16 -13 -6 -14 -8 -3 -15 9 -6 3 -9 -17 -9 l-30 0 25 -14 c17
-9 31 -10 44 -3 13 6 21 5 26 -3 5 -7 14 -10 22 -7 11 4 14 -2 13 -22 -2 -35
-13 -53 -27 -45 -17 11 -68 13 -74 3 -3 -5 0 -9 6 -9 7 0 10 -7 6 -15 -3 -8
-1 -15 3 -15 5 0 11 4 13 9 4 13 76 -10 83 -26 2 -7 0 -13 -4 -13 -5 0 -7 -9
-4 -20 6 -22 23 -27 23 -7 0 6 6 1 13 -13 17 -33 10 -65 -14 -67 -10 -1 -19 2
-19 8 0 5 4 9 8 9 4 0 8 9 9 20 1 11 -2 20 -7 20 -16 0 -32 -41 -25 -67 5 -20
11 -24 30 -20 14 2 25 0 25 -4 0 -5 -9 -9 -20 -9 -26 0 -26 -16 1 -23 12 -3
18 -10 15 -16 -4 -5 -2 -12 3 -16 5 -3 14 2 20 12 5 10 19 18 32 18 12 0 24 6
27 13 3 10 -4 12 -30 7 -28 -5 -35 -3 -35 9 0 9 8 16 17 16 20 0 46 27 36 37
-3 4 -12 1 -18 -5 -17 -17 -38 -15 -38 4 0 13 3 14 14 5 11 -10 15 -8 18 6 2
10 10 18 18 19 44 3 50 5 50 19 0 10 10 15 31 15 17 0 28 4 24 10 -3 5 -12 7
-20 3 -8 -3 -15 -1 -15 5 0 6 -9 8 -21 5 -24 -7 -41 14 -33 40 3 10 0 17 -8
17 -8 0 -14 9 -14 19 0 11 3 19 6 18 11 -3 70 38 70 49 0 7 10 14 22 16 28 4
35 24 8 24 -11 0 -20 -4 -20 -8 0 -4 -6 -8 -12 -8 -7 0 -24 -12 -37 -25 -13
-14 -28 -25 -35 -25 -6 0 -2 6 9 12 19 12 18 13 -10 18 -18 3 -37 17 -51 38
-14 20 -24 27 -27 20 -3 -9 -9 -7 -21 7 -8 11 -16 15 -16 8z"/>
<path d="M7593 5235 c-16 -18 -17 -47 -2 -62 17 -17 4 -30 -36 -37 -19 -4 -35
-11 -35 -16 0 -6 4 -10 8 -10 5 0 9 -7 9 -15 0 -17 -24 -28 -32 -15 -11 17
-23 11 -29 -15 -5 -18 -13 -25 -30 -25 -36 0 -55 -10 -49 -25 3 -10 10 -11 21
-5 10 5 30 11 45 15 15 3 25 10 22 15 -3 6 -1 10 4 10 6 0 11 -5 11 -11 0 -7
16 -9 50 -4 34 5 50 3 50 -4 0 -6 9 -11 20 -11 11 0 20 5 20 11 0 8 14 9 43 5
27 -4 37 -3 28 3 -19 12 -7 41 17 41 26 0 34 -11 21 -27 -9 -10 -5 -13 20 -13
17 0 31 -4 31 -10 0 -5 -6 -10 -14 -10 -24 0 -40 -28 -26 -45 6 -8 9 -19 5
-25 -9 -14 6 -12 27 4 13 10 15 15 6 24 -9 9 -9 12 0 12 7 0 12 6 12 14 0 8 6
17 13 20 9 5 9 7 0 12 -8 3 -11 16 -7 32 4 21 3 24 -5 12 -6 -8 -11 -13 -11
-10 -1 16 -29 82 -30 70 0 -20 -39 -23 -47 -4 -3 8 -11 14 -18 14 -8 0 -15 14
-18 33 l-4 32 -1 -32 c-2 -31 -4 -33 -38 -33 l-36 0 4 50 c3 53 1 58 -19 35z"/>
<path d="M14923 4778 c2 -7 0 -21 -5 -31 -8 -16 -17 -18 -59 -12 -39 6 -48 4
-44 -7 4 -11 -9 -13 -70 -11 -47 2 -75 0 -75 -7 0 -6 18 -9 45 -7 25 2 47 -1
49 -7 3 -7 8 -6 14 3 5 7 15 10 21 7 8 -5 6 -12 -6 -24 -15 -16 -9 -18 98 -29
63 -6 128 -12 144 -12 29 0 28 1 -10 14 -22 8 -56 15 -75 15 -31 1 -33 2 -17
14 24 18 21 29 -5 21 l-23 -6 22 18 c16 12 21 25 17 40 -4 15 -1 23 13 26 12
3 8 5 -10 6 -19 1 -27 -3 -24 -11z"/>
<path d="M15854 4675 c-4 -9 -10 -31 -13 -48 -5 -25 -13 -33 -38 -38 -43 -8
-55 1 -50 42 4 33 3 34 -32 34 -25 0 -37 -5 -39 -17 -2 -9 -13 -19 -25 -22
-36 -8 -379 2 -416 13 -19 6 -37 8 -40 6 -10 -11 12 -19 64 -23 40 -3 55 -9
55 -20 0 -12 -11 -13 -71 -8 -50 5 -69 4 -64 -3 3 -6 32 -11 65 -11 42 0 59
-4 64 -15 5 -13 -13 -15 -122 -14 -190 3 -239 0 -223 -10 11 -7 9 -11 -8 -20
-22 -12 -29 -31 -10 -31 5 0 7 5 3 12 -5 8 7 9 47 5 30 -4 105 -7 167 -7 93 0
112 -3 112 -15 0 -8 -5 -15 -12 -15 -6 0 -9 -2 -7 -4 6 -7 233 -26 340 -30 52
-1 86 -1 77 1 -31 8 -20 21 31 38 38 12 58 14 92 6 56 -13 72 -13 64 -1 -3 6
-19 10 -36 10 -53 0 -29 23 47 45 13 3 26 -1 34 -10 7 -8 16 -12 22 -9 5 3 4
11 -2 19 -9 11 -3 16 29 26 l41 12 0 54 0 53 -47 0 c-27 0 -58 3 -70 6 -16 4
-25 1 -29 -11z"/>
<path d="M8896 4634 c-3 -9 -6 -32 -6 -53 0 -37 1 -37 53 -51 28 -7 57 -15 63
-17 6 -2 14 5 17 16 5 19 7 19 58 5 30 -9 62 -18 72 -21 12 -4 17 0 17 13 0
11 3 35 6 54 l6 36 -54 17 c-67 21 -88 21 -88 2 0 -8 -6 -15 -14 -15 -7 0 -33
7 -56 15 -54 19 -66 19 -74 -1z"/>
<path d="M13015 3951 c-73 -31 -383 -54 -496 -38 l-57 8 -6 -48 c-3 -26 -7
-67 -8 -91 -1 -24 -4 -45 -7 -47 -4 -1 -64 -11 -134 -21 -78 -11 -123 -21
-115 -26 7 -4 29 -6 48 -3 37 5 274 31 420 45 47 5 139 18 205 29 70 11 121
16 123 10 2 -5 11 -9 19 -9 13 0 13 3 3 15 -14 16 -3 20 19 6 8 -5 10 -14 6
-22 -5 -8 4 -3 20 11 19 17 29 21 32 13 3 -8 21 -13 46 -12 l42 1 -35 13 -35
13 66 1 c37 1 81 -2 100 -6 29 -5 30 -7 14 -15 -13 -5 1 -7 38 -4 31 3 55 1
53 -3 -3 -4 38 -7 90 -8 55 0 94 4 94 10 0 5 -25 8 -60 5 -43 -3 -60 -1 -60 8
0 13 103 13 154 -1 23 -6 27 -5 21 5 -6 10 -4 12 9 7 10 -4 32 -7 49 -7 20 0
27 -3 19 -8 -9 -6 0 -13 27 -22 21 -7 44 -9 50 -6 6 4 11 2 11 -3 0 -14 -66
-14 -92 0 -18 10 -20 9 -15 -5 4 -9 2 -16 -3 -16 -5 0 -10 7 -12 16 -2 11 -16
18 -41 21 -25 2 -36 0 -32 -7 3 -5 20 -10 37 -10 25 0 29 -3 25 -20 -6 -24 0
-25 93 -5 39 8 125 21 191 29 88 10 126 19 141 32 12 11 18 13 14 7 -4 -8 -2
-13 7 -13 8 0 18 7 21 16 9 23 8 24 -11 17 -15 -6 -16 -4 -6 8 11 13 8 16 -20
17 -17 0 -57 2 -87 4 -30 2 -76 5 -102 6 -36 1 -48 6 -48 18 0 11 6 14 20 10
11 -3 29 -8 39 -11 16 -5 18 -2 14 15 -4 15 -1 20 13 20 16 0 16 -2 4 -10 -8
-5 -12 -11 -10 -13 8 -7 60 -18 60 -12 0 9 -25 50 -35 57 -15 11 -27 9 -20 -3
4 -6 -1 -5 -12 2 -13 7 -31 9 -49 4 -16 -4 -23 -10 -16 -12 6 -3 12 -9 12 -15
0 -6 -7 -8 -15 -5 -8 4 -27 0 -42 -8 -28 -15 -28 -15 -4 -15 16 0 22 -3 15
-10 -6 -6 -50 -3 -124 10 -151 26 -162 29 -155 40 3 6 0 10 -7 10 -10 0 -9 3
2 11 12 9 12 10 -3 5 -10 -3 -23 -6 -28 -6 -13 0 -11 -18 4 -23 6 -2 -1 -3
-17 -1 -16 2 -40 4 -55 5 -23 0 -24 1 -6 8 11 5 26 6 33 4 6 -3 12 0 12 7 0 8
-9 10 -25 6 -14 -3 -37 -9 -51 -12 -20 -5 -25 -4 -20 5 6 9 -10 11 -66 7 -40
-2 -64 -1 -54 3 18 7 18 8 -5 14 -33 9 -41 9 -34 -3 6 -9 -51 -7 -145 5 -19 2
-44 0 -55 -4z"/>
<path d="M11815 3649 c-22 -4 -89 -13 -150 -19 -60 -6 -139 -15 -175 -21 -36
-5 -119 -16 -185 -24 -136 -16 -310 -38 -465 -59 -58 -8 -129 -18 -158 -21
-43 -6 -51 -10 -42 -21 10 -11 6 -11 -22 -3 -32 9 -230 -8 -353 -31 -27 -5
-104 -14 -170 -20 -66 -6 -151 -17 -190 -25 -38 -7 -107 -17 -153 -21 -45 -3
-85 -10 -87 -15 -3 -4 21 -11 52 -14 32 -4 63 -11 69 -16 17 -14 105 -39 136
-39 15 0 30 -4 33 -10 3 -5 34 -10 67 -10 44 0 70 -6 94 -20 18 -12 60 -25 93
-31 61 -9 202 7 761 91 74 11 324 47 555 80 231 33 479 69 550 80 72 11 150
23 175 26 65 8 224 35 228 39 3 3 -86 15 -148 21 -19 1 -47 7 -62 13 -16 6
-28 8 -28 5 0 -4 -6 -1 -13 5 -8 6 -56 13 -108 16 -160 10 -179 14 -179 41 0
16 -56 18 -125 3z"/>
<path d="M9180 3309 c-346 -48 -620 -84 -945 -124 -260 -32 -510 -67 -515 -72
-3 -3 37 -2 88 1 l92 8 0 -35 c0 -34 1 -35 73 -60 94 -32 142 -47 150 -47 4 0
7 33 7 74 0 41 5 78 10 81 6 4 10 -6 10 -22 0 -27 4 -29 93 -55 141 -41 131
-44 139 36 3 38 10 72 15 77 4 4 31 9 58 10 28 1 68 8 89 16 57 19 135 21 147
3 5 -10 12 -11 17 -5 4 6 18 11 32 13 13 1 34 12 46 23 18 17 29 19 71 13 35
-4 70 0 124 14 41 11 101 24 134 28 66 7 77 9 150 22 41 8 44 10 15 10 -19 -1
-64 -5 -100 -9z"/>
<path d="M7130 3040 c-19 -5 -78 -13 -130 -19 -52 -5 -140 -17 -195 -25 -55
-8 -156 -22 -225 -31 -69 -9 -186 -25 -260 -36 -74 -11 -187 -26 -250 -34 -63
-8 -180 -23 -260 -34 -80 -11 -200 -27 -267 -36 -216 -28 -208 -26 -211 -62
-3 -30 1 -34 67 -70 l70 -39 -27 -18 c-18 -12 -20 -15 -7 -11 50 16 75 16 96
1 41 -28 56 -21 57 27 0 23 0 46 1 50 1 4 13 -4 29 -18 15 -14 38 -28 52 -32
14 -3 52 -21 85 -39 33 -19 111 -60 174 -91 97 -49 111 -59 90 -64 -13 -4 -37
-7 -52 -8 -37 -1 -211 -67 -256 -96 -20 -13 -52 -25 -71 -26 -19 -2 -46 -11
-59 -21 -13 -10 -40 -18 -60 -18 -20 0 -55 -5 -79 -10 -33 -8 -55 -7 -93 4
-27 8 -49 11 -49 6 0 -5 -11 -17 -25 -26 -23 -15 -28 -15 -64 -1 -39 16 -40
16 -68 -13 -31 -32 -124 -57 -169 -46 -32 8 -176 -18 -244 -45 -59 -23 -146
-43 -250 -60 -36 -6 -90 -15 -120 -20 -30 -5 -84 -14 -120 -20 -36 -6 -87 -14
-115 -19 -27 -5 -84 -13 -125 -19 -41 -6 -127 -18 -190 -27 -63 -10 -151 -18
-195 -18 -44 -1 -89 -6 -100 -12 -11 -6 -35 -14 -52 -17 -26 -5 -35 -2 -43 13
-6 11 -17 20 -24 20 -8 0 -19 7 -26 15 -7 9 -29 15 -51 15 -34 0 -39 -3 -39
-23 0 -24 28 -57 48 -57 6 0 20 -12 32 -27 11 -15 34 -35 50 -45 17 -10 30
-22 30 -27 0 -5 -29 -20 -65 -32 -73 -27 -67 -47 7 -24 26 7 54 12 65 11 10
-2 24 1 31 7 8 6 12 5 12 -4 0 -8 9 -20 21 -27 18 -11 23 -11 34 4 11 16 17
16 40 6 21 -10 26 -18 22 -34 -6 -22 17 -53 32 -44 13 8 41 -4 41 -18 0 -6 14
-26 30 -44 36 -40 38 -52 6 -52 -13 0 -40 -7 -59 -15 -42 -17 -77 -20 -77 -5
0 6 10 10 23 10 12 0 28 4 35 9 24 15 -16 22 -58 11 -29 -8 -49 -6 -94 9 -44
14 -56 15 -56 5 0 -16 21 -28 81 -48 117 -39 169 -42 169 -12 0 8 14 16 31 20
29 5 41 -2 148 -97 64 -56 132 -118 151 -138 19 -20 65 -61 102 -93 l66 -57
64 25 c34 14 90 32 123 40 33 8 94 24 135 36 110 31 151 39 178 34 39 -7 231
46 263 73 15 13 120 30 232 38 31 2 79 10 105 18 26 8 72 20 102 27 30 6 80
20 110 30 75 26 164 45 300 65 149 22 223 40 288 70 29 14 90 31 135 40 80 15
159 37 204 58 17 7 28 5 51 -12 17 -11 37 -21 46 -21 8 0 27 -11 42 -25 15
-14 32 -25 39 -25 7 0 18 -7 25 -15 24 -29 46 -18 46 23 0 20 1 172 3 337 1
165 2 310 2 323 -1 18 -14 29 -66 52 -36 16 -72 27 -80 24 -8 -4 -15 -1 -15 5
0 7 -28 25 -62 40 -65 30 -65 34 5 46 20 3 37 10 37 14 0 11 -100 55 -122 53
-10 0 -18 4 -18 9 0 5 -25 21 -55 35 -30 15 -55 30 -55 34 0 4 69 17 153 28
83 12 276 40 427 62 151 22 304 45 340 50 36 5 110 17 165 25 55 8 165 25 245
36 80 12 151 24 158 28 8 4 -30 21 -90 40 -57 19 -138 45 -181 59 -43 14 -80
29 -83 34 -3 4 -14 8 -24 8 -11 0 -45 11 -76 25 -59 26 -85 29 -144 15z"/>
<path d="M15475 2778 c-280 -94 -519 -174 -530 -179 -11 -4 -63 -22 -115 -38
-52 -17 -115 -37 -140 -45 -247 -81 -547 -176 -554 -176 -5 0 -31 -21 -58 -46
-26 -25 -64 -52 -83 -60 -40 -16 -110 -20 -85 -4 8 5 24 10 36 10 25 0 89 46
76 54 -6 3 -50 -7 -99 -23 -48 -15 -148 -48 -221 -71 -73 -24 -129 -47 -125
-51 10 -10 136 21 181 45 18 9 36 15 41 12 4 -3 17 1 27 9 23 18 57 19 52 3
-3 -7 -22 -17 -44 -23 -21 -6 -55 -18 -74 -27 -19 -8 -71 -21 -115 -28 -44 -6
-87 -18 -96 -26 -8 -7 -60 -27 -115 -42 -54 -16 -118 -39 -142 -51 -23 -12
-70 -28 -105 -37 -106 -25 -170 -46 -232 -74 -33 -15 -100 -39 -150 -55 -49
-15 -108 -33 -130 -40 -22 -7 -66 -18 -98 -24 -31 -6 -66 -15 -78 -21 -11 -7
-23 -9 -26 -7 -9 9 30 24 92 36 33 7 83 21 110 31 28 10 88 30 135 45 47 14
108 38 137 52 29 13 67 29 85 33 109 28 188 51 223 66 109 45 208 81 242 89
36 7 54 25 27 25 -9 0 -42 -9 -73 -19 -31 -11 -137 -45 -236 -76 -99 -31 -292
-92 -430 -137 -137 -44 -306 -98 -375 -120 -355 -114 -408 -131 -444 -148
l-40 -19 30 -6 c47 -10 124 -47 124 -60 0 -6 -28 -25 -61 -41 -96 -45 -96 -45
-102 -159 -6 -111 -11 -153 -21 -162 -6 -6 -11 32 -6 52 1 6 4 43 5 84 2 40 7
86 10 102 6 28 5 29 -28 29 -19 0 -51 -7 -71 -15 -33 -14 -41 -14 -86 2 -27 9
-47 20 -44 24 2 4 -5 9 -16 12 -13 3 -18 1 -14 -6 4 -7 -4 -2 -17 11 -20 19
-22 24 -9 32 8 5 12 10 8 10 -11 0 -117 -28 -168 -45 -25 -8 -112 -35 -195
-61 -82 -25 -195 -61 -250 -79 -55 -18 -129 -41 -165 -52 -60 -19 -254 -81
-595 -190 -77 -25 -205 -67 -285 -93 -80 -26 -273 -89 -430 -139 -157 -51
-301 -98 -320 -105 -19 -8 -132 -45 -250 -83 -162 -53 -216 -67 -218 -56 -2 7
1 132 7 278 6 146 16 385 22 531 8 202 8 273 -1 294 -10 24 -30 36 -116 70
-57 23 -117 43 -134 44 -18 1 -35 7 -38 13 -9 13 -207 113 -225 113 -20 0 -24
-69 -39 -568 -6 -232 -15 -427 -18 -432 -4 -6 -29 -15 -56 -19 -113 -20 -261
-68 -335 -110 -23 -13 -109 -25 -109 -15 1 5 7 20 15 34 17 30 18 40 6 40 -5
0 -13 -9 -16 -20 -6 -19 -71 -60 -95 -60 -6 0 -24 -10 -40 -22 -16 -12 -32
-20 -34 -17 -14 14 43 156 73 183 16 14 107 142 117 164 6 13 52 8 69 -7 11
-10 40 -30 65 -44 25 -15 59 -40 77 -57 18 -16 36 -30 41 -30 9 0 13 78 33
671 10 282 9 341 -2 365 -20 40 -176 109 -214 94 -20 -8 -27 -6 -32 6 -6 16
-173 104 -198 104 -12 0 -15 -16 -15 -84 0 -47 -4 -118 -9 -158 -5 -40 -13
-219 -16 -398 l-6 -325 22 -10 c31 -14 36 -35 9 -35 -12 0 -18 -5 -15 -10 4
-7 13 -7 25 0 15 8 31 5 67 -13 27 -13 60 -27 76 -31 15 -3 27 -11 27 -16 0
-15 -9 -12 -82 23 -47 23 -68 29 -69 20 -1 -7 -2 -17 -3 -21 0 -5 -18 -25 -38
-44 -25 -23 -38 -44 -38 -62 0 -14 3 -26 6 -26 3 0 34 21 68 46 78 59 103 71
118 56 18 -18 -40 -97 -76 -103 -15 -3 -23 -19 -34 -67 -7 -34 -17 -62 -22
-62 -5 0 -18 20 -29 45 -13 30 -26 45 -38 45 -14 0 -15 -2 -5 -9 9 -5 -6 -12
-45 -20 -67 -14 -84 -24 -107 -69 -17 -34 -36 -35 -36 -3 0 29 -50 131 -64
131 -7 0 -21 -9 -30 -19 -22 -24 -128 -44 -221 -42 -93 3 -108 7 -95 31 6 10
10 23 10 28 0 14 -41 22 -60 12 -9 -5 -50 -18 -91 -29 l-74 -19 40 -16 c22 -9
61 -26 87 -38 44 -19 52 -20 105 -9 113 25 110 24 89 7 -10 -8 -15 -19 -11
-25 3 -6 2 -11 -3 -11 -15 0 -24 -32 -12 -44 8 -8 15 -6 24 6 10 13 35 18 124
22 104 5 112 4 112 -13 0 -28 -20 -38 -83 -40 -33 -1 -77 -9 -99 -17 -53 -18
-88 -18 -88 1 0 8 -5 15 -11 15 -6 0 -8 7 -5 15 3 10 1 15 -7 14 -19 -3 -48
12 -41 22 3 5 1 9 -5 9 -18 0 -190 -78 -221 -100 -34 -24 -39 -23 -175 34 -32
13 -62 23 -66 20 -4 -2 -10 -16 -14 -31 -9 -38 -52 -93 -68 -88 -11 5 -36 -9
-97 -52 l-24 -18 15 23 c9 12 43 47 75 76 60 54 122 145 92 133 -36 -13 -148
-102 -154 -121 -7 -25 -72 -88 -129 -124 -36 -23 -53 -27 -165 -32 -86 -4
-137 -11 -164 -23 -21 -9 -58 -17 -82 -17 -25 0 -44 -5 -44 -11 0 -11 33 -44
95 -93 20 -16 32 -32 28 -37 -17 -16 -406 -125 -484 -135 -30 -4 -60 -11 -67
-17 -7 -6 -38 -12 -68 -13 -31 -2 -61 -7 -67 -12 -37 -27 -108 -42 -200 -41
-56 0 -103 -4 -111 -10 -7 -6 -28 -11 -47 -12 -19 -2 -40 -7 -46 -12 -7 -5
-22 -7 -33 -4 -16 4 -20 2 -15 -12 4 -14 0 -18 -22 -19 -115 -3 -213 -20 -268
-47 -33 -15 -79 -37 -103 -48 -91 -43 -81 -47 139 -47 209 0 247 5 410 51 36
10 87 30 113 44 26 14 73 28 104 31 40 5 81 19 139 50 54 29 93 44 118 44 63
0 194 39 338 101 172 74 222 81 299 45 55 -26 84 -31 126 -20 18 5 22 14 22
43 1 47 34 121 55 121 12 0 15 -6 10 -20 -5 -15 0 -21 26 -27 27 -7 34 -16 45
-52 7 -24 26 -58 43 -75 47 -50 102 -136 88 -141 -7 -2 -23 -6 -37 -9 -57 -13
-57 -21 -4 -78 28 -29 54 -66 58 -81 l6 -27 2220 0 c1221 0 2220 3 2220 8 0 4
-9 18 -20 32 -31 39 -23 48 10 12 17 -18 30 -37 30 -43 0 -5 113 -9 283 -8
178 0 274 4 260 9 -16 6 -23 18 -23 35 0 29 5 30 40 10 36 -21 50 -18 50 9 0
36 41 79 133 140 156 102 153 101 387 100 113 -1 218 -5 234 -8 95 -22 224
-97 245 -142 14 -31 14 -94 1 -128 l-10 -26 139 0 c114 0 140 3 145 15 3 8 16
15 28 16 l23 0 -22 15 c-18 13 -21 24 -19 62 2 26 2 37 -1 25 -7 -39 -21 -26
-25 25 -3 30 0 55 9 70 8 13 12 29 10 37 -3 7 0 12 6 12 38 -1 47 4 47 27 0
32 -20 38 -45 15 -11 -10 -39 -21 -61 -25 -40 -6 -41 -5 -100 60 -32 37 -80
80 -107 95 -44 25 -54 27 -88 18 -29 -7 -67 -5 -147 8 -107 17 -242 59 -242
76 0 5 -11 16 -25 25 -23 15 -27 15 -43 2 -9 -9 -22 -13 -29 -11 -6 2 -14 -1
-18 -6 -11 -19 -23 -12 -18 9 3 11 15 27 26 35 20 14 20 15 1 36 -23 26 -72
52 -83 44 -5 -3 -7 -14 -4 -25 5 -17 0 -20 -31 -20 -44 0 -52 15 -62 123 -5
59 -3 81 11 110 9 21 21 37 25 37 5 0 4 15 -1 32 -5 18 -6 41 -3 50 14 46 133
63 230 33 27 -8 85 -18 129 -21 80 -6 124 -21 260 -85 33 -16 67 -34 76 -40
12 -9 29 -6 81 15 37 14 71 26 77 26 5 0 40 16 77 34 48 25 72 32 84 26 12 -6
34 0 76 22 32 17 61 35 65 39 3 5 43 21 90 37 79 27 132 53 191 95 13 9 60 26
104 38 43 11 86 26 94 34 18 15 60 29 60 20 0 -22 -123 -84 -169 -85 -7 0 -42
-20 -77 -45 -34 -25 -67 -45 -72 -45 -5 0 -24 -7 -42 -16 -18 -9 -52 -19 -77
-22 -33 -4 -48 -11 -64 -33 -11 -16 -29 -29 -38 -29 -10 0 -24 -6 -30 -14 -6
-8 -36 -17 -65 -20 -30 -4 -71 -16 -93 -27 -21 -11 -51 -24 -68 -29 -99 -31
-135 -48 -123 -57 25 -18 171 -73 180 -67 6 4 5 -4 -2 -16 -18 -33 1 -46 34
-24 32 20 30 44 -4 61 l-25 13 23 0 c14 0 36 -13 54 -32 51 -55 62 -85 62
-180 1 -49 3 -88 4 -88 6 0 207 96 312 149 64 32 139 64 227 96 34 13 69 30
77 38 28 28 190 100 242 107 83 13 217 83 229 120 5 14 13 17 43 13 38 -5 64
8 261 129 54 32 92 49 161 70 19 5 53 21 75 33 22 13 51 26 65 30 14 4 49 18
78 31 29 13 56 24 61 24 5 0 14 7 21 15 7 8 28 17 47 21 20 4 44 15 54 25 11
11 28 19 38 19 10 0 21 6 24 13 3 8 40 30 84 51 43 21 101 48 128 62 28 13 67
30 88 38 20 8 37 20 37 26 0 6 12 3 28 -8 50 -36 131 -72 159 -72 26 0 25 2
-21 31 -26 17 -45 33 -41 37 3 3 -20 16 -52 28 -65 24 -71 21 75 45 47 8 72
17 72 26 0 7 6 13 14 13 8 0 16 6 19 13 4 10 7 10 18 -1 11 -10 10 -12 -4 -12
-24 0 -21 -17 3 -23 11 -3 20 -1 20 5 0 5 5 6 10 3 6 -4 16 -2 23 3 21 17 51
17 86 -1 19 -9 36 -15 39 -12 8 8 -19 35 -35 35 -24 0 -5 17 25 23 15 3 45 21
66 41 l39 35 -41 -1 c-22 0 -45 3 -51 6 -14 9 -14 33 1 42 6 4 8 3 4 -4 -10
-17 10 -23 24 -7 14 17 40 20 40 5 0 -5 15 -10 33 -10 24 0 28 3 17 10 -12 8
-9 10 13 10 15 0 27 5 27 11 0 7 -35 9 -110 5 -60 -3 -110 -4 -110 -2 0 16 74
46 113 46 44 0 156 -24 187 -40 8 -4 41 -3 73 2 54 9 57 12 57 38 0 26 -5 30
-67 49 -68 20 -68 20 -153 1 -120 -27 -211 -51 -237 -63 -44 -20 -45 0 -1 43
25 25 60 71 79 103 33 57 35 58 69 52 45 -9 120 -15 120 -10 0 2 -25 11 -55
20 -30 8 -55 19 -55 24 0 5 15 25 33 45 49 56 129 65 230 27 16 -6 30 -11 32
-11 2 0 4 164 4 365 1 201 -2 364 -6 364 -5 -1 -237 -78 -518 -171z m-4160
-2014 c96 -64 165 -155 165 -217 0 -47 -11 -98 -20 -92 -4 2 -22 -7 -40 -20
-19 -14 -42 -25 -52 -25 -14 0 -18 -8 -18 -39 0 -48 -7 -53 -71 -54 -50 -1
-89 21 -89 50 0 11 -12 13 -58 7 -32 -3 -74 -2 -95 4 -22 6 -39 7 -43 1 -9
-15 -44 -10 -44 6 0 22 -17 18 -23 -5 -8 -31 -43 -38 -111 -24 -89 18 -95 22
-107 65 -12 38 -24 49 -31 29 -4 -13 -59 13 -78 35 -7 8 -21 15 -31 15 -14 0
-19 7 -19 25 0 21 5 25 28 25 15 0 33 -4 40 -9 8 -4 61 5 130 25 135 37 155
44 358 125 132 52 151 63 147 80 -7 27 14 24 62 -7z m-4390 -19 c17 -8 23 -14
14 -14 -18 -1 -111 -40 -169 -70 -19 -10 -51 -22 -70 -26 -19 -4 -60 -20 -90
-35 -97 -50 -195 -90 -220 -90 -9 0 -32 -11 -52 -25 -38 -26 -68 -32 -68 -15
0 6 8 14 18 18 48 18 132 117 132 154 0 23 63 35 105 19 47 -17 104 -13 139 8
17 10 51 22 75 26 25 4 65 20 90 36 52 33 55 33 96 14z"/>
<path d="M5078 2765 c-3 -3 -51 -8 -108 -10 -56 -3 -106 -7 -110 -10 -8 -5 -2
-87 8 -96 4 -4 30 -19 57 -33 56 -31 78 -43 118 -69 47 -31 52 -21 56 107 2
103 -3 129 -21 111z"/>
<path d="M6709 2318 c-1 -2 -6 -157 -13 -345 l-11 -342 30 -28 c37 -36 126
-83 154 -83 12 0 21 -6 21 -15 0 -8 5 -15 10 -15 6 0 10 -21 10 -46 0 -51 6
-60 79 -108 57 -38 80 -50 103 -50 10 -1 18 -5 17 -9 0 -9 67 -57 80 -57 5 0
20 -9 35 -21 14 -11 30 -18 35 -15 7 5 16 252 24 674 2 128 10 116 -98 163
-33 14 -66 24 -73 21 -8 -2 -22 5 -33 17 -11 12 -47 35 -81 52 -64 32 -65 49
-5 49 15 0 27 4 27 10 0 13 -114 70 -139 70 -11 0 -23 5 -26 10 -12 20 -141
79 -146 68z"/>
<path d="M124 1782 c3 -5 -8 -7 -23 -4 -15 2 -44 -3 -64 -12 -37 -15 -37 -15
-37 -77 0 -54 2 -60 18 -54 9 3 60 18 112 32 95 25 114 36 105 61 -3 8 -5 18
-5 23 0 6 -16 17 -35 25 -37 15 -79 19 -71 6z"/>
<path d="M742 1679 c-43 -25 -55 -29 -67 -19 -12 10 -15 9 -15 -3 0 -23 -160
-70 -348 -103 -86 -15 -105 -15 -112 -4 -7 11 -11 11 -24 -2 -10 -10 -44 -18
-96 -23 -70 -6 -80 -9 -80 -26 0 -18 4 -19 38 -12 63 14 398 6 516 -11 60 -9
136 -16 167 -16 32 0 79 -7 105 -16 54 -18 64 -14 35 15 -24 24 -30 90 -8 92
6 1 26 2 44 3 18 0 37 6 42 11 13 13 -28 13 -48 1 -8 -5 -17 -3 -22 5 -5 8 -3
17 4 21 9 6 8 8 -2 8 -11 0 -11 3 -1 16 11 12 11 15 -1 12 -8 -2 -13 2 -12 9
1 6 -4 17 -12 23 -12 10 -15 9 -15 -3 0 -15 -73 -57 -99 -57 -6 0 4 17 24 38
39 39 61 72 48 72 -4 0 -32 -14 -61 -31z"/>
<path d="M15580 1659 c0 -10 0 -22 0 -26 -1 -10 94 -29 185 -38 39 -4 77 -13
85 -20 8 -7 46 -16 83 -20 l68 -7 -3 34 -3 33 -60 2 c-81 2 -108 7 -113 21 -2
7 -13 12 -25 12 -16 0 -18 -3 -8 -9 7 -5 9 -11 5 -14 -10 -5 -113 14 -131 26
-6 4 -18 4 -27 1 -9 -3 -16 -2 -16 4 0 5 -9 12 -20 15 -15 4 -20 0 -20 -14z"/>
<path d="M15225 1432 c-9 -23 -6 -27 30 -46 19 -10 32 -23 29 -27 -2 -5 18
-11 46 -15 35 -5 64 -17 94 -40 33 -25 62 -36 124 -48 137 -26 252 -66 252
-87 0 -6 9 -9 20 -6 13 3 18 1 14 -6 -5 -8 -2 -7 7 1 15 14 49 16 49 3 0 -5
17 -12 38 -15 20 -4 45 -9 55 -12 34 -10 16 12 -20 25 -40 15 -107 61 -99 68
2 3 19 -3 36 -12 37 -19 100 -13 100 9 0 14 -75 31 -115 27 -12 -1 -34 5 -50
13 -17 9 -37 16 -45 16 -12 1 -11 3 3 11 9 6 27 7 40 3 18 -5 20 -4 9 7 -16
17 -192 17 -233 1 -22 -9 -34 -4 -94 34 -84 54 -81 50 -65 70 12 13 11 17 -1
25 -18 11 -25 12 -131 13 -65 1 -89 -3 -93 -12z"/>
<path d="M890 1284 c-14 -14 -36 -27 -50 -30 -48 -11 -80 -26 -80 -40 0 -12
-36 -30 -52 -26 -3 1 -33 -7 -65 -18 -70 -24 -87 -24 -103 -5 -19 23 -30 18
-45 -19 -11 -27 -24 -37 -61 -50 -65 -22 -143 -21 -160 2 -12 16 -15 15 -36
-9 -27 -31 -98 -57 -180 -66 l-58 -6 0 -508 0 -509 170 0 c144 0 170 2 170 15
0 8 4 15 10 15 5 0 12 11 16 25 4 16 14 25 28 26 42 3 62 8 144 37 80 28 114
26 76 -4 -17 -14 -17 -14 6 -3 14 7 28 17 32 23 5 7 8 6 8 -4 0 -9 9 -16 20
-16 23 0 27 14 5 22 -19 8 -19 24 0 24 8 0 15 -4 15 -10 0 -5 10 -8 23 -6 12
3 24 5 27 5 3 1 -2 5 -10 11 -10 6 -6 9 15 8 17 0 44 5 60 12 17 7 38 12 48
11 9 -1 17 4 17 12 0 11 -7 13 -22 9 -21 -5 -22 -4 -9 11 13 16 16 16 37 2 29
-19 56 -20 32 -1 -20 14 -24 36 -8 36 6 0 10 -4 10 -10 0 -5 6 -7 14 -4 8 3
16 -2 19 -13 3 -15 5 -13 11 8 4 14 22 33 40 43 47 25 62 56 47 97 -6 17 -11
48 -11 68 l0 35 -37 -35 c-82 -77 -209 -142 -398 -202 -106 -34 -145 -41 -145
-28 0 6 3 11 8 11 4 0 20 11 36 25 16 14 35 25 43 25 7 0 13 4 13 9 0 5 8 7
18 4 23 -5 177 53 273 103 87 46 162 114 153 138 -4 10 -2 21 5 25 17 11 -8
221 -26 221 -7 0 -13 4 -13 10 0 5 -8 7 -17 4 -14 -5 -15 -4 -4 4 8 6 20 8 28
5 9 -4 13 3 12 23 0 16 -3 23 -6 16 -2 -6 -9 -10 -14 -6 -5 3 -9 0 -9 -5 0 -6
-18 -11 -40 -11 -22 0 -40 5 -40 10 0 6 -7 6 -19 -1 -48 -30 -68 28 -31 89 20
33 29 36 68 26 21 -6 22 -10 16 -55 -7 -54 1 -61 36 -32 22 19 27 43 8 43 -6
0 -8 3 -5 7 4 3 2 12 -4 19 -8 10 -8 15 3 19 14 6 24 65 10 65 -4 0 -9 19 -10
43 -1 23 -3 58 -5 78 l-2 36 -55 -29 c-30 -15 -61 -28 -68 -28 -16 0 -75 -31
-80 -42 -8 -19 -22 -5 -22 21 0 29 18 41 66 41 11 0 30 11 41 24 11 13 34 31
50 41 38 22 64 65 56 93 -7 27 -12 27 -43 -4z m-174 -621 c-3 -3 1 -12 9 -19
7 -8 11 -22 8 -33 -6 -23 -33 -37 -33 -17 0 8 -7 16 -15 20 -8 3 -14 11 -13
18 2 7 -6 13 -17 13 -11 0 -21 -8 -23 -17 -3 -13 3 -18 22 -18 14 0 28 -5 31
-11 11 -17 -5 -79 -20 -79 -8 0 -12 -6 -9 -13 3 -8 -2 -20 -11 -27 -10 -8 -15
-9 -15 -1 0 6 5 11 10 11 25 0 7 18 -22 23 -42 6 -60 -9 -34 -29 11 -7 17 -16
14 -19 -8 -8 -38 23 -38 39 0 9 -15 10 -57 5 -32 -3 -59 -5 -61 -4 -1 1 22 28
53 59 30 32 55 64 55 71 0 23 -22 29 -36 10 -16 -21 -30 -14 -20 10 4 12 16
15 43 13 31 -3 38 -8 44 -32 4 -15 5 -25 2 -22 -7 6 -83 -62 -83 -75 0 -3 11
-4 25 -1 14 2 25 9 25 15 0 6 7 2 15 -9 8 -11 15 -14 15 -6 0 14 30 17 30 2 0
-13 27 -13 35 0 3 6 -1 7 -9 4 -9 -3 -16 -1 -16 5 0 10 13 15 32 12 4 0 5 6 2
14 -4 8 -17 15 -30 15 -27 0 -28 5 -13 48 8 24 17 31 42 34 35 3 71 -2 63 -9z"/>
<path d="M5810 1169 c-82 -40 -147 -87 -219 -162 -74 -75 -99 -87 -134 -62
-19 13 -22 12 -41 -19 -12 -19 -45 -61 -73 -93 -29 -33 -61 -71 -72 -84 l-18
-24 151 -1 c149 -1 382 -27 401 -45 6 -6 6 -9 0 -9 -138 -7 -201 -14 -203 -20
-2 -4 -19 -4 -38 1 -19 6 -40 7 -46 3 -7 -4 -68 -7 -137 -6 l-126 2 28 -23
c15 -13 55 -29 90 -37 80 -17 77 -17 110 -18 16 -1 25 -6 22 -12 -8 -13 108
-14 133 -1 9 5 33 16 52 26 19 9 52 26 74 37 21 12 52 21 68 20 16 0 31 5 34
12 3 9 32 16 77 21 39 3 80 13 90 20 17 12 24 12 49 -1 43 -22 44 -11 3 25
-38 33 -54 38 -71 21 -8 -8 -19 -7 -37 1 -24 11 -29 9 -47 -11 -11 -13 -20
-27 -20 -32 0 -4 -4 -8 -10 -8 -5 0 -10 5 -10 11 0 29 -40 47 -95 43 -42 -3
-65 1 -95 16 -43 22 -81 25 -111 10 -30 -17 -23 -1 24 49 23 25 56 64 72 85
44 56 56 68 70 63 17 -7 39 9 30 23 -4 6 -14 9 -24 5 -11 -4 -13 -3 -6 4 6 6
35 13 65 16 30 3 63 8 74 11 11 4 16 2 12 -4 -3 -6 -2 -13 4 -17 5 -3 10 1 10
9 0 12 10 16 40 16 33 0 42 4 49 23 7 16 4 27 -12 44 -11 12 -24 20 -28 17 -5
-3 -9 3 -9 13 -1 55 -78 76 -150 42z"/>
<path d="M5014 974 c-10 -15 -23 -23 -31 -19 -8 3 -37 -9 -64 -27 -49 -32 -50
-32 -49 -82 1 -28 1 -58 -1 -66 -6 -37 2 -48 37 -55 20 -3 60 -17 88 -29 52
-23 52 -23 138 -6 90 18 116 35 150 100 7 14 17 28 22 31 4 4 -4 7 -19 7 -27
0 -41 11 -148 119 -29 29 -73 53 -97 53 -5 0 -17 -11 -26 -26z"/>
<path d="M12508 533 c-60 -9 -17 -62 84 -104 86 -36 138 -52 145 -46 2 3 -11
30 -30 60 -54 84 -100 105 -199 90z"/>
<path d="M3781 347 c-49 -24 -87 -50 -93 -62 -7 -16 -16 -21 -34 -17 -24 4
-33 -11 -14 -23 19 -12 10 -24 -38 -50 -27 -14 -56 -38 -65 -53 -29 -47 -75
-91 -112 -106 -52 -22 -43 -36 22 -36 l58 0 65 68 c72 76 114 107 130 97 5 -3
10 -1 10 4 0 6 10 11 23 12 12 0 16 3 10 6 -7 2 -13 11 -13 18 0 7 -6 15 -12
18 -9 3 -5 13 11 31 16 17 27 22 32 15 4 -8 10 -6 16 6 6 10 13 13 17 7 3 -5
-1 -15 -9 -22 -15 -13 -21 -50 -7 -50 18 0 63 38 53 44 -13 8 3 46 25 59 7 4
11 14 8 22 -4 8 -1 15 5 15 12 0 15 26 3 33 -4 3 -45 -13 -91 -36z"/>
<path d="M1004 236 c-28 -30 -68 -62 -89 -71 -32 -13 -37 -18 -25 -26 12 -9
12 -10 -3 -5 -11 4 -31 -3 -50 -18 -18 -13 -48 -27 -67 -31 -59 -11 -120 -39
-120 -55 0 -9 -5 -7 -16 8 -8 12 -23 21 -32 21 -15 -1 -15 -2 1 -6 22 -6 22
-11 -5 -34 l-23 -18 48 -1 c27 0 46 4 43 8 -2 4 21 8 53 9 47 2 75 11 152 49
52 27 99 52 104 56 6 5 22 17 36 28 15 11 34 35 43 54 17 35 22 86 9 86 -5 -1
-31 -25 -59 -54z"/>
<path d="M11848 261 l-117 -7 -48 -47 c-26 -26 -59 -51 -72 -54 -42 -10 -131
-108 -131 -142 0 -8 135 -11 439 -11 409 0 439 1 445 18 3 9 14 32 24 49 11
19 17 43 15 57 -5 26 -69 96 -88 96 -6 0 -28 9 -50 20 -44 23 -71 25 -81 9 -5
-8 -10 -6 -16 5 -5 9 -14 16 -21 16 -8 0 -6 -4 3 -11 15 -11 10 -10 -140 4
-25 3 -98 2 -162 -2z m257 -112 c90 -11 155 -30 155 -46 0 -5 -14 -14 -32 -21
-28 -10 -34 -9 -50 8 -10 11 -32 20 -48 20 -15 0 -30 5 -32 10 -2 8 -115 16
-180 12 -10 -1 -26 -1 -35 -1 -10 1 -42 -5 -70 -13 -30 -9 -53 -11 -53 -6 0 6
-16 0 -36 -11 -20 -12 -39 -19 -42 -16 -11 11 26 60 50 66 38 11 277 10 373
-2z"/>
<path d="M3920 129 c-11 -20 -11 -20 19 -5 16 9 32 16 34 16 2 0 4 -19 4 -43
l0 -44 -66 20 c-90 26 -136 33 -127 18 4 -6 1 -11 -8 -11 -9 0 -16 -4 -16 -8
0 -5 -18 -16 -41 -26 -74 -33 -37 -41 197 -43 l215 -2 86 55 c47 30 83 57 81
59 -2 3 -32 0 -65 -6 -53 -9 -66 -8 -104 9 -24 11 -79 22 -121 26 -71 5 -78 4
-88 -15z"/>
</g>
</svg>
