<?xml version="1.0" standalone="no"?>
<!DOCTYPE svg PUBLIC "-//W3C//DTD SVG 20010904//EN"
 "http://www.w3.org/TR/2001/REC-SVG-20010904/DTD/svg10.dtd">
<svg version="1.0" xmlns="http://www.w3.org/2000/svg"
 width="1600.000000pt" height="739.000000pt" viewBox="0 0 1600.000000 739.000000"
 preserveAspectRatio="xMidYMid meet">
<metadata>
Created by potrace 1.16, written by Peter Selinger 2001-2019
</metadata>
<g transform="translate(0.000000,739.000000) scale(0.100000,-0.100000)"
fill="#000000" stroke="none">
<path d="M3082 7298 c-7 -51 -19 -159 -29 -240 -9 -81 -20 -152 -23 -158 -4
-6 -90 27 -221 86 l-215 97 9 71 c18 140 18 138 -35 158 l-48 18 -4 -23 c-6
-32 -45 -352 -51 -422 -3 -33 -12 -105 -20 -160 -23 -167 -44 -334 -54 -450
-22 -234 -23 -251 -12 -235 6 8 11 10 11 4 0 -6 -7 -18 -16 -25 -13 -10 -15
-24 -10 -62 4 -29 3 -46 -2 -43 -13 8 -20 -35 -17 -93 1 -25 -2 -68 -7 -96 -5
-27 -11 -65 -14 -84 -2 -18 -7 -37 -10 -42 -3 -5 -8 -46 -10 -92 -3 -45 -7
-104 -9 -132 -3 -27 -6 -75 -8 -105 -2 -30 -7 -65 -11 -78 -6 -16 -3 -22 8
-22 9 0 16 -4 16 -10 0 -5 -7 -10 -15 -10 -21 0 -37 -66 -22 -97 10 -22 8 -27
-12 -42 -22 -17 -23 -21 -11 -56 8 -25 9 -39 2 -44 -6 -3 -11 -31 -13 -61 -2
-47 0 -55 14 -52 10 2 17 -4 17 -13 0 -8 -4 -15 -9 -15 -4 0 -6 -31 -4 -70 2
-39 0 -70 -5 -70 -5 0 -9 -27 -8 -60 1 -33 4 -60 9 -60 4 0 1 -11 -8 -23 -10
-15 -14 -42 -13 -76 1 -31 -2 -55 -9 -59 -7 -5 -9 -13 -4 -21 7 -11 11 -10 20
5 10 16 11 14 7 -16 -3 -19 -9 -62 -12 -95 -3 -33 -8 -62 -11 -65 -3 -3 -3 20
-1 50 6 58 2 80 -13 80 -4 0 -6 -14 -2 -32 5 -23 3 -29 -6 -23 -10 6 -11 -5
-6 -49 5 -36 3 -61 -3 -69 -7 -9 -8 -24 -3 -43 l9 -29 1 30 c2 36 21 73 21 40
0 -11 -7 -77 -15 -145 -8 -69 -17 -146 -20 -172 -5 -44 -4 -48 15 -48 32 0 21
-32 -15 -42 -16 -5 -73 -11 -125 -13 -93 -4 -140 -16 -327 -83 -52 -18 -60
-32 -20 -32 11 0 18 -3 15 -6 -7 -6 -189 24 -403 68 -82 16 -181 36 -220 43
-79 15 -327 62 -395 74 -128 24 -222 45 -212 49 6 2 57 -6 114 -17 57 -11 155
-29 218 -41 63 -11 157 -30 208 -40 116 -25 149 -25 156 -2 9 29 25 130 51
317 14 99 27 187 30 195 3 8 13 74 24 145 11 72 29 190 40 263 22 136 38 244
91 587 17 110 39 256 50 325 10 69 24 159 30 200 11 83 34 229 50 330 23 145
24 160 7 160 -27 0 -28 15 -8 122 34 179 35 197 14 204 -10 3 -27 10 -38 14
-79 33 -265 89 -278 84 -12 -4 -17 -1 -17 10 0 9 -5 16 -11 16 -6 0 -17 6 -24
13 -43 38 -42 40 -58 -51 -23 -130 -49 -232 -59 -232 -11 0 -10 23 3 57 6 15
20 84 31 153 11 69 26 132 33 140 7 8 21 51 30 95 8 44 18 88 21 98 5 15 1 18
-22 15 -24 -3 -30 -10 -41 -53 -17 -64 -93 -453 -93 -476 0 -17 -4 -16 -62 1
-71 21 -233 79 -293 104 -22 10 -101 40 -175 67 -126 47 -453 169 -492 184
-17 7 -18 -66 -18 -1443 l0 -1451 37 -4 38 -4 -37 -1 -38 -2 0 -1035 0 -1034
33 -5 c17 -3 82 -7 142 -11 61 -3 247 -14 415 -25 168 -11 481 -32 695 -46
215 -14 443 -28 508 -31 64 -3 117 -10 117 -14 0 -11 -15 -11 -158 1 -64 5
-193 14 -287 19 -187 12 -826 52 -1195 76 -129 8 -243 15 -252 15 -17 0 -18
-50 -18 -900 l0 -900 874 0 c824 0 875 1 879 18 4 16 5 16 6 0 1 -17 18 -18
229 -17 125 1 215 4 200 8 -23 5 -25 8 -14 23 7 10 16 15 19 11 4 -3 7 6 7 20
0 15 4 27 8 27 8 0 26 127 36 254 3 32 7 61 11 64 3 3 23 -12 44 -34 21 -23
59 -51 86 -64 46 -22 48 -23 61 -5 13 18 14 18 14 -3 0 -12 5 -22 11 -22 6 0
9 7 6 14 -4 10 -1 13 7 10 9 -3 11 -17 6 -49 -5 -32 -3 -46 6 -49 17 -7 84 5
84 14 0 4 16 10 35 12 40 5 41 4 18 -21 -14 -15 -41 -20 -133 -26 -63 -4 -137
-10 -165 -14 l-50 -6 -6 -43 c-5 -38 -3 -42 13 -36 26 8 22 -13 -7 -42 -14
-14 -25 -29 -25 -34 0 -18 30 -10 52 12 l23 23 3 -22 c3 -23 4 -23 181 -23
l178 0 -8 43 c-4 24 -4 43 2 45 18 7 8 20 -11 15 -19 -5 -20 0 -20 66 l0 71
187 -2 c172 -3 188 -5 191 -21 2 -10 1 -26 -3 -35 -4 -9 -8 -54 -11 -99 l-4
-83 669 0 669 0 6 28 c4 15 10 43 14 62 7 35 29 41 25 7 -2 -9 2 -17 7 -17 11
0 14 19 11 62 -1 16 6 35 18 47 22 22 37 12 23 -16 -5 -10 -12 -37 -16 -61 -7
-44 -25 -82 -39 -82 -4 0 -5 6 -1 12 5 9 2 9 -9 -1 -9 -7 -17 -20 -17 -27 0
-12 63 -14 373 -14 322 0 403 3 607 24 129 14 269 27 310 30 41 3 156 13 255
21 99 8 335 26 525 40 190 14 435 32 545 40 323 24 900 63 1175 80 140 9 264
18 276 20 17 4 19 10 16 41 l-5 37 143 -6 c146 -6 159 -10 160 -48 0 -23 -104
-35 -480 -59 -173 -11 -443 -29 -600 -40 -157 -12 -355 -25 -440 -30 -85 -6
-195 -14 -245 -20 -49 -5 -135 -12 -190 -15 -98 -6 -312 -21 -690 -50 -104 -8
-260 -19 -345 -25 -159 -11 -204 -15 -300 -30 -31 -4 307 -8 777 -9 778 0 832
1 839 17 4 9 6 20 6 25 -1 4 5 7 13 7 8 0 15 -7 15 -15 0 -10 10 -15 30 -15
32 0 41 16 13 23 -10 3 -3 5 15 6 18 0 31 -3 28 -8 -3 -5 4 -12 17 -17 16 -5
6 -9 -43 -14 -36 -4 124 -7 354 -8 382 -2 421 0 438 15 18 16 18 16 12 0 -5
-15 3 -17 70 -17 60 0 76 3 76 15 0 17 31 23 168 33 l102 8 0 -28 0 -28 734 0
734 0 11 48 c33 146 71 471 71 612 l0 65 -163 -1 c-89 -1 -166 -2 -172 -4 -5
-1 -23 -1 -40 0 l-30 2 30 8 c27 7 26 8 -15 9 -35 0 -42 -2 -30 -10 12 -9 11
-9 -5 -3 -11 4 -36 8 -55 8 -19 1 -38 6 -42 11 -4 6 -8 2 -8 -8 0 -14 6 -16
28 -12 22 4 24 4 7 -4 -11 -5 -63 -9 -115 -8 -54 0 -71 2 -40 4 30 2 62 6 70
10 8 3 19 5 23 4 5 -1 6 2 4 6 -5 7 -167 8 -372 2 -64 -2 -66 -3 -25 -8 39 -6
33 -7 -49 -14 -140 -11 -399 -9 -381 3 12 8 11 10 -7 10 -12 0 -23 -4 -25 -10
-1 -5 -41 -11 -86 -12 -46 -2 -86 -6 -88 -10 -3 -5 2 -8 10 -8 10 0 16 -9 16
-25 0 -23 4 -25 48 -27 26 0 86 0 133 2 l86 2 5 -29 c7 -52 4 -53 -115 -53
-62 0 -156 -3 -209 -7 -84 -5 -98 -8 -98 -24 0 -12 -6 -16 -20 -12 -15 4 -20
14 -20 41 0 27 -7 42 -27 58 -21 16 -26 29 -25 57 1 40 -14 52 -20 15 -4 -28
-28 -36 -28 -9 0 23 -19 28 -38 9 -6 -6 -15 -8 -19 -4 -4 4 -1 11 7 16 12 8
11 10 -7 10 -20 0 -22 -7 -28 -85 -5 -54 -12 -88 -21 -93 -9 -5 -15 -44 -20
-125 -6 -100 -9 -117 -23 -115 -24 5 -16 224 10 291 11 26 19 61 19 78 0 17 6
32 15 35 8 4 15 10 15 15 0 6 -9 5 -20 -1 -30 -16 -176 -25 -184 -11 -14 21
17 38 64 35 l45 -4 -35 11 c-19 7 -29 14 -22 16 6 3 12 11 12 19 0 13 20 15
30 3 11 -13 79 3 83 20 4 14 5 14 6 0 1 -13 10 -14 51 -9 27 3 58 14 68 23 12
11 36 17 65 17 26 0 47 3 47 8 0 14 48 30 59 19 18 -18 41 12 41 54 0 21 5 41
10 44 13 8 13 82 1 89 -5 4 -11 2 -13 -4 -2 -6 -12 -4 -25 5 -13 9 -20 22 -17
30 4 8 3 27 0 41 -7 25 -8 26 -21 8 -14 -18 -14 -18 -15 3 0 12 4 23 9 25 4 1
11 39 15 83 6 77 6 79 -11 59 -23 -28 -78 -38 -115 -22 -15 7 -28 17 -28 21 0
5 -7 15 -15 23 -12 12 -15 12 -15 2 0 -10 -2 -10 -9 1 -7 11 -9 11 -14 0 -4
-10 -6 -10 -6 -1 -1 6 -6 12 -12 12 -5 0 -7 -4 -4 -10 9 -15 -4 -12 -21 5 -10
9 -37 16 -72 17 -31 1 -82 3 -112 4 -30 2 -116 5 -192 8 -75 2 -156 8 -181 11
-29 4 -47 3 -51 -4 -4 -6 -14 -11 -22 -11 -8 0 -12 5 -9 10 11 19 -358 19
-380 0 -12 -10 -18 -10 -30 0 -8 6 -19 9 -25 5 -6 -4 -20 1 -30 10 -15 14 -45
17 -177 20 -87 1 -165 6 -174 10 -10 3 -20 2 -24 -4 -3 -6 -16 -9 -28 -6 -46
11 -215 26 -289 25 -48 -1 -78 3 -78 9 0 7 -8 7 -25 1 -13 -5 -26 -6 -29 -2
-7 11 -76 14 -76 3 0 -13 -73 -20 -88 -8 -6 5 -31 11 -55 12 -23 1 -50 5 -59
9 -41 14 -48 15 -48 3 0 -9 -11 -12 -35 -9 -30 4 -35 1 -35 -16 0 -13 8 -22
23 -25 19 -5 19 -5 -3 -4 -19 2 -26 9 -31 32 -4 17 -7 26 -8 21 0 -5 -9 -3
-18 5 -22 18 -98 24 -315 24 -91 0 -164 3 -162 6 2 4 -31 9 -74 11 -42 2 -78
1 -80 -4 -2 -4 -16 1 -30 12 -23 17 -46 20 -153 23 l-126 2 11 24 10 24 141
-6 c77 -3 246 -13 375 -21 252 -16 545 -33 730 -42 63 -2 132 -9 153 -15 20
-5 42 -7 48 -3 6 3 35 3 64 -1 41 -5 56 -11 60 -26 6 -17 16 -19 83 -19 42 0
127 -5 189 -10 116 -10 143 -7 143 16 0 15 12 17 59 8 17 -4 31 -13 31 -20 0
-20 18 -17 22 3 3 14 13 17 58 15 77 -4 110 -11 110 -26 0 -15 84 -26 201 -26
73 0 79 2 84 23 5 24 25 184 25 204 0 7 4 13 10 13 6 0 7 -45 3 -124 l-6 -124
94 -7 c52 -4 110 -5 129 -3 l34 3 17 107 c8 60 19 111 22 115 4 3 7 -42 7
-100 0 -88 3 -107 15 -107 8 0 15 -4 15 -10 0 -5 16 -9 35 -8 19 1 32 5 29 10
-11 17 44 7 57 -11 12 -17 32 -20 162 -26 131 -6 147 -5 147 9 0 9 6 16 13 16
10 0 233 -17 485 -36 50 -4 72 -10 72 -19 0 -10 31 -15 118 -21 114 -8 530 -9
538 -1 2 2 8 28 13 58 l9 54 1 -56 c0 -32 6 -61 14 -66 6 -6 40 -13 74 -16 67
-7 72 -4 74 56 1 30 2 30 11 -10 8 -31 17 -43 34 -47 32 -8 275 -37 362 -43
l72 -5 0 123 c0 68 -3 147 -6 175 l-6 50 -41 3 c-22 1 -90 9 -151 17 -61 8
-180 21 -265 29 -84 8 -161 17 -170 20 -21 6 -64 12 -196 25 -136 13 -257 29
-312 41 -23 5 -57 9 -76 9 -23 0 -37 6 -41 16 -6 14 -19 16 -89 12 -45 -3 -70
-3 -54 -1 15 2 27 8 27 13 0 14 -58 22 -110 15 -29 -4 -50 -3 -50 2 0 5 -26
10 -57 10 -40 1 -52 -1 -38 -7 15 -6 9 -9 -25 -9 -36 0 -41 2 -25 10 15 7 8 8
-26 5 -45 -5 -47 -4 -52 24 -6 28 -47 63 -47 40 0 -15 -26 -12 -40 5 -11 13
-7 15 29 15 l41 0 0 40 0 40 -55 0 c-52 0 -55 1 -55 25 0 23 -4 25 -40 25 -35
0 -40 -3 -40 -22 0 -21 -1 -21 -17 -5 -16 15 -16 18 2 37 22 25 95 29 95 5 0
-11 11 -15 40 -15 33 0 40 -4 40 -19 0 -16 11 -20 80 -26 l80 -7 0 -34 c0 -33
1 -34 40 -34 33 0 40 3 40 20 0 11 7 20 15 20 8 0 15 7 15 15 0 9 12 28 26 42
22 22 26 35 25 75 0 36 3 48 14 48 11 0 14 -7 10 -22 -3 -13 -1 -30 5 -38 8
-13 11 -12 24 5 14 18 15 18 16 3 0 -16 11 -18 85 -18 l85 0 0 -30 0 -30 -80
0 c-47 0 -80 -4 -80 -10 0 -5 18 -10 40 -10 l40 0 0 -40 c0 -29 4 -40 15 -40
11 0 15 11 15 41 0 40 1 40 33 37 l32 -3 -3 43 c-3 36 -1 42 16 42 25 0 52 31
52 58 0 27 35 30 62 5 17 -15 18 -15 18 0 0 13 9 17 39 17 22 0 41 5 43 12 3
9 6 9 12 0 4 -7 2 -12 -3 -12 -6 0 -11 -7 -11 -16 0 -14 10 -15 80 -9 69 6 80
5 80 -9 0 -14 5 -14 48 3 26 10 47 23 47 29 0 17 13 25 26 16 7 -4 34 -8 60
-9 49 -1 79 -17 79 -42 0 -10 6 -12 21 -8 15 5 22 2 26 -14 6 -25 18 -27 27
-5 4 10 12 14 22 10 9 -3 21 -3 27 1 7 4 21 7 31 8 26 0 31 19 11 39 -14 14
-55 21 -105 18 -8 0 -23 4 -34 10 -23 12 -31 14 -121 27 -33 5 -87 16 -120 24
-33 9 -95 21 -139 26 -43 6 -81 13 -86 16 -4 2 -27 7 -51 10 -24 3 -53 8 -64
12 -11 3 -58 14 -105 24 -47 9 -75 18 -62 18 13 1 67 -8 120 -18 53 -11 149
-29 212 -41 63 -12 158 -30 210 -40 52 -11 158 -31 235 -45 203 -38 446 -85
474 -92 l24 -6 -7 69 c-4 38 -13 96 -19 129 -12 54 -15 60 -42 66 -17 3 -82
18 -145 32 -494 113 -640 146 -895 203 -159 36 -344 79 -410 95 -65 17 -158
38 -205 48 -381 81 -565 129 -495 131 20 0 463 -97 475 -105 5 -3 299 -68 385
-85 24 -5 47 -4 59 2 13 7 16 7 12 -1 -11 -18 18 -26 319 -93 222 -49 310 -66
317 -62 5 3 8 2 8 -3 0 -10 151 -46 196 -47 18 -1 30 -4 28 -7 -2 -4 15 -10
39 -15 50 -10 170 -12 155 -3 -7 5 -6 9 3 11 8 3 2 3 -12 1 -37 -6 -79 6 -73
21 3 7 -2 19 -11 26 -18 15 -20 47 -3 52 12 4 16 63 4 75 -4 4 -11 2 -15 -5
-11 -17 -3 156 8 176 17 32 41 144 41 188 0 24 5 44 10 44 6 0 10 18 10 41 0
23 4 38 10 34 5 -3 7 -11 4 -18 -3 -8 0 -24 6 -38 l11 -24 -5 24 c-3 13 -1 33
5 43 6 11 6 18 0 18 -5 0 -12 7 -15 16 -5 13 -4 14 7 6 19 -16 37 4 37 39 0
28 -39 202 -65 294 -8 28 -28 109 -44 180 -45 199 -55 231 -140 443 -79 198
-117 282 -134 293 -5 4 -18 4 -30 1 -14 -4 -18 -2 -12 7 5 10 2 11 -13 7 -13
-4 -24 -2 -29 7 -4 8 -17 19 -28 26 -20 12 -20 12 1 6 16 -4 23 0 28 17 10 39
7 57 -17 96 -14 21 -28 67 -35 107 -14 93 -133 442 -200 588 -18 40 -31 56
-41 52 -10 -4 -11 -2 -3 8 9 10 -4 39 -54 122 -72 121 -90 144 -149 185 -35
24 -46 26 -85 20 -30 -5 -36 -8 -17 -9 52 -2 27 -21 -30 -22 -57 -1 -57 -1
-18 -9 22 -4 54 -5 72 -3 18 3 40 2 50 -1 63 -25 -115 -35 -221 -14 -47 10
-60 10 -64 0 -6 -20 -25 -13 -19 8 7 27 1 25 -38 -9 -28 -24 -41 -28 -89 -28
-41 0 -56 3 -56 13 0 8 6 14 14 14 7 0 21 11 30 25 17 26 9 34 -12 13 -8 -8
-12 -8 -12 -1 0 16 28 36 40 28 15 -9 12 -37 -6 -64 -16 -22 -15 -23 2 -19 10
2 25 15 32 30 11 23 10 32 -3 57 -8 17 -15 49 -15 73 0 24 -4 59 -9 79 -10 43
-8 46 42 79 20 14 39 32 42 41 3 9 17 21 31 28 26 11 28 39 3 33 -11 -3 -12
-1 -1 9 15 16 17 129 1 129 -7 0 -9 10 -7 25 3 13 1 22 -3 19 -5 -3 -10 -20
-10 -37 l-2 -32 -6 35 c-4 22 -9 30 -14 23 -4 -7 -5 -23 -2 -36 4 -16 1 -28
-11 -38 -16 -13 -17 -10 -11 46 6 63 -6 44 -18 -29 -5 -29 -9 -36 -16 -25 -5
8 -9 9 -9 2 0 -6 -14 -14 -30 -18 -25 -5 -30 -11 -25 -26 5 -16 1 -19 -23 -19
-16 0 -37 -9 -47 -20 -21 -23 -20 -24 20 -38 29 -10 29 -10 5 -11 -15 -1 -30
3 -36 9 -10 10 -54 3 -54 -9 0 -4 18 -15 40 -25 38 -17 42 -17 66 -1 35 23 41
12 11 -19 -19 -19 -37 -26 -65 -26 -58 0 -74 -16 -60 -62 9 -31 15 -36 40 -36
39 1 41 -4 12 -29 -18 -16 -24 -18 -24 -7 0 9 -4 13 -8 10 -14 -8 -1 -66 14
-66 8 0 31 7 51 15 20 8 38 13 41 10 3 -2 -7 -9 -21 -14 -14 -5 -28 -15 -32
-21 -4 -7 -18 -9 -31 -6 -36 9 -29 -7 21 -55 25 -24 45 -50 45 -58 1 -23 27
-54 39 -46 6 3 14 -1 17 -9 9 -23 102 -89 116 -83 8 3 5 6 -5 6 -25 1 -16 26
9 26 16 0 19 8 22 50 2 47 15 75 28 63 3 -4 1 -16 -6 -27 -6 -12 -8 -26 -5
-31 9 -14 32 -12 38 4 3 7 15 16 27 19 20 5 20 4 -4 -20 -14 -14 -26 -30 -26
-35 0 -5 -9 -6 -21 -3 -18 6 -20 3 -18 -22 1 -15 -1 -35 -5 -43 -7 -18 -3 -71
8 -88 4 -7 9 -38 11 -70 2 -31 8 -86 14 -122 6 -36 14 -87 18 -113 3 -27 12
-51 20 -54 8 -3 10 -10 6 -17 -5 -6 -8 -22 -8 -36 0 -19 5 -24 19 -22 11 2 15
-1 11 -7 -9 -15 7 -13 29 4 11 8 29 14 40 14 17 -1 18 -2 4 -6 -10 -2 -18 -9
-18 -14 0 -12 27 -12 35 1 4 6 11 5 19 -3 21 -18 10 -26 -26 -18 -48 11 -50
11 -81 -11 l-29 -21 -366 184 c-202 101 -369 186 -372 189 -3 3 -21 7 -40 9
-19 1 -42 7 -50 12 -10 6 -3 7 20 4 19 -3 28 -3 20 1 -33 12 -66 29 -90 45
-27 17 -334 177 -415 216 -27 13 -57 28 -65 33 -8 5 -58 30 -110 57 -52 26
-97 50 -100 53 -3 3 -133 70 -290 148 -157 79 -334 170 -394 203 -60 32 -113
59 -118 59 -17 0 -7 21 15 29 37 14 44 31 50 121 7 112 -3 131 -82 156 -34 11
-61 22 -61 27 0 19 -19 4 -29 -24 -14 -40 -14 -62 -1 -54 15 9 12 -1 -10 -37
-22 -36 -25 -30 -21 48 2 23 -2 45 -8 49 -6 3 -11 -1 -11 -9 0 -9 -4 -16 -10
-16 -5 0 -10 -7 -10 -15 0 -8 5 -15 10 -15 6 0 10 -6 10 -14 0 -14 -53 -16
-67 -2 -10 10 -35 7 -28 -4 13 -21 -15 -9 -33 15 -22 28 -32 32 -32 11 0 -8 7
-16 15 -20 8 -3 15 -10 15 -16 0 -6 -5 -8 -12 -4 -7 4 -8 3 -4 -5 4 -6 11 -9
16 -6 5 3 29 -15 54 -40 25 -25 43 -45 40 -45 -3 0 -35 18 -71 40 -37 22 -69
40 -72 40 -20 -1 -140 -68 -134 -75 5 -4 0 -5 -9 -2 -10 4 -18 2 -18 -3 0 -6
-7 -10 -16 -10 -16 0 -182 -63 -214 -81 -35 -20 -242 -99 -259 -99 -24 0 -221
97 -221 109 0 6 15 24 33 42 17 17 26 28 19 24 -7 -4 -19 -1 -27 5 -8 7 -22 9
-31 6 -19 -7 -74 23 -74 41 0 7 -7 13 -15 13 -8 0 -15 4 -15 9 0 12 88 7 123
-8 22 -9 34 -8 58 4 16 9 35 13 41 9 6 -4 8 -3 5 3 -4 6 4 11 18 11 16 0 25
-6 26 -17 0 -13 2 -14 6 -1 11 29 47 51 78 49 39 -4 131 31 113 42 -9 6 -7 9
7 9 38 0 45 -15 14 -29 -17 -7 -28 -15 -26 -17 2 -2 28 7 58 21 30 14 46 24
37 21 -32 -10 -9 34 25 47 18 7 24 -7 7 -18 -5 -3 -10 -12 -9 -18 0 -9 2 -9 6
1 2 6 14 12 26 12 12 1 33 7 47 15 29 17 22 19 -14 5 -17 -6 -26 -6 -26 0 0 6
5 10 11 10 5 0 7 5 4 10 -4 6 -10 8 -15 5 -4 -3 -10 -2 -12 3 -3 7 -86 60
-118 75 -8 4 -51 27 -95 50 -44 24 -197 103 -340 176 -143 74 -267 140 -276
147 -9 8 -18 12 -21 9 -6 -7 -153 66 -204 100 -19 13 -56 34 -82 46 -26 12
-49 25 -52 28 -3 4 -18 11 -35 16 -30 11 -30 11 -28 80 1 39 4 91 8 118 3 26
2 47 -4 47 -5 0 -12 -49 -16 -110 -4 -60 -11 -110 -15 -110 -13 0 -180 87
-198 103 -9 8 -35 23 -57 34 -22 11 -104 52 -182 91 -78 40 -146 72 -152 72
-5 0 -11 3 -13 8 -1 4 -31 22 -64 40 -59 31 -66 32 -176 32 l-114 0 -2 -32
c-1 -18 -7 -60 -12 -93 -12 -80 -24 -232 -22 -272 1 -29 -21 -64 -30 -46 -3 4
3 76 13 158 9 83 20 180 24 218 l8 67 -40 0 -41 0 -10 -92z m1388 -1017 c0
-12 7 -17 23 -17 16 1 23 -5 25 -23 6 -39 -6 -71 -24 -64 -12 4 -15 0 -12 -23
2 -24 7 -28 26 -26 19 3 22 -1 22 -32 0 -44 -9 -66 -26 -66 -8 0 -14 -10 -14
-25 0 -22 3 -25 25 -19 23 6 25 4 25 -31 0 -40 -16 -79 -30 -70 -12 8 -21 -10
-14 -29 3 -9 14 -16 24 -16 22 0 30 -33 17 -72 -5 -17 -14 -25 -23 -21 -11 4
-13 -17 -9 -133 2 -86 8 -141 16 -148 9 -8 10 -1 6 32 -4 31 -2 42 8 42 19 0
28 -34 20 -71 -4 -19 -12 -29 -20 -25 -14 5 -26 -65 -18 -108 8 -41 21 -30 17
14 -3 30 0 40 11 40 8 0 15 -6 15 -14 0 -8 6 -16 13 -19 9 -3 7 -13 -7 -40
-11 -22 -24 -33 -32 -30 -10 4 -14 -4 -14 -31 0 -25 -4 -36 -15 -36 -8 0 -15
-5 -15 -11 0 -5 4 -8 10 -4 5 3 16 -7 25 -22 l16 -28 -4 46 c-3 40 -1 46 14
42 10 -3 20 -12 23 -20 3 -8 10 -11 16 -8 17 11 11 -15 -12 -48 -13 -18 -24
-34 -26 -37 -2 -2 -7 2 -13 10 -7 11 -9 6 -9 -20 1 -19 0 -42 -1 -50 -4 -31 1
-60 12 -60 8 0 10 14 6 39 -4 34 -3 38 14 34 11 -3 23 -19 28 -37 7 -25 4 -35
-12 -54 -14 -15 -23 -18 -28 -11 -5 8 -9 8 -14 -1 -4 -6 -3 -16 3 -22 6 -6 6
-21 -1 -44 -9 -29 -8 -37 7 -52 18 -16 18 -15 13 25 -4 36 -3 41 12 36 21 -8
31 -23 31 -49 0 -23 -32 -58 -43 -47 -4 3 -7 -3 -7 -14 0 -11 -3 -42 -7 -68
-4 -33 -3 -46 5 -42 5 4 13 1 16 -5 3 -7 4 6 2 30 -4 45 14 59 32 25 12 -23
-4 -83 -22 -83 -8 0 -16 -14 -19 -32 -4 -18 -9 -48 -13 -65 -5 -26 -3 -33 9
-33 18 0 29 26 22 51 -8 24 20 26 29 3 11 -28 6 -54 -13 -73 -10 -10 -21 -34
-25 -52 -18 -90 -18 -96 -2 -96 12 0 16 10 16 40 0 53 24 44 28 -11 2 -33 -1
-43 -17 -52 -15 -7 -21 -21 -21 -45 0 -18 -4 -37 -10 -40 -5 -3 -10 -19 -10
-35 0 -23 4 -28 16 -23 14 5 15 -1 11 -43 -3 -27 -9 -65 -12 -86 -6 -31 -4
-36 12 -35 13 2 19 13 23 42 l6 40 13 -27 c16 -31 7 -78 -14 -78 -10 0 -15
-10 -15 -28 0 -16 -7 -37 -15 -48 -8 -10 -15 -29 -15 -41 0 -18 6 -23 24 -23
13 0 24 6 23 13 -1 42 4 60 14 50 15 -15 7 -89 -8 -85 -7 1 -13 -8 -13 -20 -1
-13 -7 -34 -15 -48 -8 -14 -14 -37 -15 -52 0 -23 4 -28 25 -28 21 0 25 5 25
31 0 17 4 28 10 24 16 -10 12 -65 -5 -71 -8 -4 -15 -14 -15 -23 0 -9 -9 -34
-20 -56 -28 -54 -26 -75 5 -75 18 0 25 5 25 19 0 11 4 23 10 26 6 4 10 -8 10
-29 0 -25 -4 -36 -15 -36 -10 0 -15 -10 -15 -33 0 -18 -7 -42 -15 -53 -22 -29
-20 -74 4 -74 12 0 21 8 23 22 2 12 9 23 16 26 18 6 16 -57 -3 -64 -9 -4 -15
-19 -15 -38 0 -18 -7 -41 -15 -52 -8 -10 -15 -31 -15 -46 0 -21 4 -25 19 -21
11 3 21 13 24 24 8 29 27 22 27 -10 0 -16 -6 -31 -15 -35 -8 -3 -15 -16 -15
-29 0 -21 6 -24 78 -34 76 -11 132 -29 132 -43 0 -6 -152 20 -196 34 -17 5
-23 2 -27 -15 -3 -11 -10 -18 -16 -14 -7 4 -11 -6 -11 -28 0 -30 3 -34 19 -30
11 3 22 11 25 19 9 23 26 16 26 -11 0 -14 -6 -28 -14 -31 -8 -3 -17 -22 -21
-42 -9 -47 -23 -74 -36 -67 -5 4 -9 -9 -9 -28 0 -30 3 -34 20 -30 11 3 20 12
20 19 0 8 7 14 15 14 19 0 20 -39 1 -46 -8 -3 -17 -25 -21 -50 -4 -29 -13 -48
-26 -54 -13 -8 -19 -21 -19 -47 0 -28 3 -33 13 -24 8 6 17 8 20 4 4 -3 7 1 7
10 0 9 7 17 15 17 21 0 19 -23 -5 -50 -11 -13 -20 -34 -20 -47 0 -30 -18 -65
-29 -58 -13 8 -21 -34 -11 -58 5 -12 9 -16 9 -8 1 7 7 11 16 7 9 -3 15 0 15 9
0 8 5 15 10 15 16 0 12 -47 -5 -54 -8 -3 -15 -16 -15 -30 0 -31 -24 -88 -36
-84 -5 2 -10 -12 -12 -31 -3 -29 -1 -33 11 -23 7 7 17 9 20 5 4 -3 9 2 13 11
9 24 24 19 24 -8 0 -13 -7 -26 -15 -30 -8 -3 -15 -16 -15 -29 0 -37 -21 -87
-36 -87 -10 0 -14 -12 -13 -42 0 -24 3 -37 6 -30 2 6 13 12 24 12 10 0 19 7
19 15 0 8 5 15 10 15 15 0 12 -40 -4 -46 -8 -3 -17 -25 -21 -50 -3 -25 -14
-49 -25 -57 -18 -13 -32 -70 -17 -74 20 -7 37 -1 37 12 0 8 5 15 10 15 12 0
13 -32 2 -45 -5 -6 -14 -36 -21 -68 -7 -31 -17 -57 -22 -57 -5 0 -9 6 -9 13 0
26 -20 -19 -20 -46 0 -25 3 -27 23 -21 12 3 24 11 25 15 6 14 22 10 22 -5 0
-8 -6 -27 -14 -43 -8 -15 -18 -46 -23 -68 -5 -25 -14 -40 -23 -40 -10 0 -16
-12 -18 -38 -3 -36 -2 -37 17 -25 12 7 21 16 21 20 0 5 5 8 10 8 12 0 13 -37
1 -44 -4 -3 -14 -32 -20 -65 -11 -54 -31 -92 -31 -59 0 9 -3 9 -10 -2 -5 -8
-10 -29 -10 -47 0 -29 1 -31 24 -20 14 7 24 16 23 21 -1 6 5 11 14 13 13 3 15
-2 12 -22 -3 -14 -9 -25 -14 -25 -4 0 -12 -19 -16 -42 -6 -32 -13 -42 -31 -44
-18 -3 -22 1 -22 20 0 28 16 43 23 24 3 -8 6 -6 6 4 1 10 -8 22 -19 28 -15 8
-20 21 -20 55 0 25 4 53 9 63 23 47 29 81 15 93 -8 7 -14 30 -14 55 l0 44 -62
0 c-57 0 -102 4 -293 29 l-70 9 73 -1 c57 -1 75 2 82 14 9 15 16 52 40 199 16
103 19 110 39 110 10 0 21 -6 24 -14 5 -13 -4 -146 -18 -267 l-5 -46 38 -7
c58 -9 184 -7 177 3 -3 5 0 21 7 36 9 19 9 28 0 37 -17 17 -15 80 4 107 13 17
15 34 9 69 -10 72 -7 103 15 147 24 47 25 61 5 69 -21 8 -21 104 0 112 8 4 15
17 15 30 0 13 6 24 13 24 6 0 1 9 -13 19 -19 16 -24 28 -24 65 0 28 6 52 17
64 9 10 17 26 17 36 0 10 5 15 13 11 6 -3 2 2 -10 11 -18 13 -23 26 -23 65 0
26 6 54 13 61 22 21 27 59 11 75 -20 20 -18 97 2 114 9 7 20 24 25 38 8 19 5
28 -11 43 -24 22 -26 62 -5 102 8 15 15 34 15 41 0 7 6 16 13 19 9 3 7 8 -5
19 -10 7 -22 25 -27 39 -8 23 -19 28 -79 38 -75 12 -174 38 -155 39 7 1 59 -8
115 -19 127 -25 128 -25 128 0 0 11 5 20 12 20 6 0 9 2 6 5 -8 8 -178 36 -186
31 -4 -2 -21 1 -37 9 -17 7 -61 18 -100 24 -38 6 -149 27 -245 47 -96 20 -195
40 -220 44 -25 5 -103 20 -175 34 -121 24 -256 48 -350 61 -22 4 -47 8 -56 11
-9 2 -24 -5 -34 -15 -16 -19 -20 -19 -51 -6 -19 8 -38 15 -42 17 -4 2 -6 10
-4 18 2 8 5 31 6 50 4 50 16 88 42 140 13 25 26 60 30 78 6 28 4 32 -15 32
-14 0 -22 -8 -27 -27 -15 -69 -65 -216 -79 -229 -8 -8 -12 -21 -9 -29 4 -10 0
-15 -12 -15 -42 0 -45 14 -17 68 15 29 30 52 34 52 9 0 43 69 62 125 14 42 12
75 -4 75 -11 0 -60 -103 -89 -185 -20 -58 -60 -136 -60 -117 0 7 8 29 19 50
20 41 46 140 38 148 -3 3 -13 -20 -23 -51 -9 -31 -22 -62 -28 -69 -6 -6 -18
-25 -26 -41 -10 -18 -24 -30 -35 -30 -11 0 -26 -4 -32 -8 -19 -12 -36 2 -30
24 3 11 1 17 -4 13 -23 -14 -26 12 -8 91 22 103 30 165 20 165 -27 0 -104
-131 -118 -200 -5 -26 -10 -30 -37 -30 -36 0 -110 22 -171 51 -25 12 -41 15
-45 8 -4 -5 -32 -10 -63 -10 -55 -1 -76 -13 -39 -22 9 -3 38 -10 65 -17 36
-10 49 -18 53 -36 10 -38 -10 -51 -89 -58 -39 -4 -74 -11 -76 -17 -2 -7 -6 -7
-11 2 -6 9 -12 10 -22 2 -14 -12 -46 -11 -66 1 -16 10 -31 -1 -44 -32 -9 -22
-12 -24 -15 -9 -3 9 -9 15 -13 12 -15 -9 -50 33 -50 59 0 31 -19 87 -37 107
-8 9 -33 20 -56 24 l-42 7 50 14 c28 8 64 16 80 20 17 3 39 7 51 9 16 4 20 11
18 35 -1 20 3 30 12 30 8 0 14 5 14 10 0 6 11 16 25 22 14 6 25 16 25 22 0 9
56 136 64 143 8 8 172 63 187 63 10 0 62 -20 115 -45 53 -25 99 -45 103 -45 4
0 12 37 17 82 l9 82 124 32 c76 20 135 31 152 27 39 -7 46 -20 11 -19 -26 1
-27 -1 -34 -64 -4 -36 -9 -85 -13 -110 -5 -42 -4 -41 20 24 14 38 25 77 25 85
0 9 9 22 20 29 11 7 20 19 20 27 0 8 5 15 11 15 6 0 9 -6 6 -14 -3 -7 -1 -18
3 -22 11 -11 2 -54 -11 -54 -5 0 -8 9 -6 19 1 11 -2 20 -8 20 -5 1 -10 -7 -11
-17 0 -9 -10 -47 -22 -84 -12 -37 -22 -80 -21 -95 0 -20 8 -7 26 45 14 40 27
71 29 69 4 -4 -21 -122 -32 -151 -3 -9 -12 -16 -20 -16 -8 0 -14 -7 -14 -15 0
-9 -7 -18 -15 -21 -8 -4 -15 -13 -15 -21 0 -15 -28 -75 -40 -83 -10 -8 -40
-88 -40 -108 0 -9 13 6 28 35 15 29 36 62 47 75 31 36 65 97 65 119 0 10 4 19
9 19 5 0 14 19 19 43 25 105 49 170 55 153 11 -29 7 -70 -8 -90 -8 -11 -15
-28 -15 -38 0 -10 -7 -29 -16 -42 -9 -15 -11 -27 -5 -30 13 -9 41 22 41 45 0
11 4 18 9 14 5 -3 7 -21 4 -40 -5 -29 -3 -35 13 -36 11 -1 31 -3 45 -4 17 -3
26 1 26 11 0 8 -6 13 -14 10 -8 -4 -13 2 -13 17 0 16 3 18 9 9 6 -10 10 -8 15
11 3 14 22 59 41 100 19 41 35 82 35 91 0 19 -30 22 -31 4 0 -10 -2 -10 -6 0
-8 20 -23 14 -24 -10 0 -13 -8 -43 -18 -68 -14 -34 -20 -40 -23 -25 -4 20 -27
-64 -29 -108 -1 -13 -4 -7 -10 15 -5 23 -5 48 1 63 14 37 12 85 -2 85 -9 0 -8
4 2 11 11 7 12 12 3 15 -7 3 -10 11 -7 19 3 7 0 23 -6 35 -11 21 -10 22 22 16
94 -19 158 -40 158 -53 0 -8 -5 -11 -11 -7 -9 5 -10 -1 -5 -22 4 -18 3 -24 -2
-16 -6 9 -13 -7 -21 -50 -7 -35 -23 -85 -36 -113 -44 -94 -125 -298 -121 -303
3 -2 12 10 21 27 23 46 26 37 4 -19 -30 -79 -8 -57 35 35 22 46 42 83 44 81 2
-2 -11 -38 -28 -81 -18 -42 -30 -79 -27 -82 6 -5 37 61 37 77 0 4 6 13 14 19
8 7 18 26 21 42 4 16 10 31 15 34 5 3 3 -14 -4 -37 -7 -24 -18 -62 -23 -85
l-10 -42 41 -6 c40 -7 215 -40 366 -70 768 -153 990 -194 990 -181 0 3 -9 15
-20 26 -22 22 -28 84 -9 95 5 4 15 18 20 32 8 21 6 28 -11 40 -25 18 -28 97
-4 124 18 20 11 59 -12 59 -20 0 -20 98 1 106 21 8 19 41 -5 71 -25 32 -26 79
-2 94 21 13 19 51 -4 70 -16 13 -19 99 -4 99 16 0 12 56 -5 70 -19 16 -19 64
0 93 13 20 13 26 0 51 -18 35 -19 89 -2 116 10 17 9 26 -5 51 -21 36 -22 61
-6 105 10 27 9 39 -6 72 -15 34 -16 45 -5 81 10 33 10 46 -1 65 -9 17 -10 44
-6 89 5 43 4 67 -3 72 -6 3 -11 21 -11 40 0 18 -6 36 -12 38 -8 3 -7 6 4 6 18
1 18 -4 2 181 -5 65 -7 181 -5 255 3 74 -7 347 -13 352 -9 10 -7 96 3 112 7
11 10 9 16 -8 8 -26 25 -28 25 -2 0 19 -29 50 -39 41 -3 -3 -7 23 -9 58 -2 38
1 62 8 62 5 0 10 -6 10 -14 0 -8 5 -18 11 -21 7 -5 9 3 7 21 -2 21 -8 28 -20
26 -10 -2 -19 -2 -19 0 -7 19 -6 258 1 258 6 0 10 -4 10 -10 0 -5 5 -10 11
-10 6 0 9 10 7 23 -2 12 -9 21 -16 19 -20 -4 -83 29 -76 40 8 12 47 27 57 21
4 -2 7 -12 7 -22z m1882 -1044 l-3 -146 -47 -10 c-26 -5 -51 -6 -56 -1 -9 9 2
251 13 269 7 11 82 41 91 36 3 -2 4 -68 2 -148z m2463 -125 c19 -41 44 -106
56 -147 11 -40 31 -101 44 -136 14 -34 25 -77 25 -93 0 -17 8 -44 18 -61 10
-16 22 -45 25 -63 4 -18 18 -49 32 -69 13 -20 23 -39 20 -41 -7 -7 -394 191
-399 204 -3 9 7 15 32 20 20 3 54 10 75 16 37 9 38 11 32 41 -4 18 -10 37 -14
42 -10 15 -1 379 10 368 4 -4 24 -41 44 -81z m-3051 -368 c17 -7 22 -34 6 -34
-12 0 -14 -26 -2 -33 4 -2 1 -2 -5 -1 -7 2 -13 -5 -13 -15 0 -10 -11 -26 -25
-35 -14 -9 -25 -23 -25 -32 0 -8 -7 -17 -15 -20 -8 -4 -15 -12 -15 -20 0 -7
-8 -18 -17 -23 -16 -9 -16 -12 -3 -21 13 -9 13 -10 0 -10 -8 0 -25 -18 -38
-41 -13 -22 -30 -43 -38 -46 -8 -3 -14 -14 -14 -25 0 -15 -5 -18 -19 -13 -17
5 -21 0 -27 -29 -3 -20 -10 -33 -15 -30 -17 10 -9 40 16 64 14 13 25 29 25 37
0 7 5 13 10 13 6 0 10 7 10 15 0 8 9 24 20 35 11 11 23 34 27 50 3 17 12 30
19 30 8 0 19 11 24 25 5 14 15 25 21 25 7 0 9 10 5 28 -5 19 -4 23 3 12 8 -12
13 -12 23 -2 7 7 13 16 13 20 1 4 6 17 13 29 6 12 9 29 6 37 -6 17 4 20 30 10z
m1856 -369 c0 -7 6 -18 14 -22 9 -5 17 -45 25 -122 6 -63 13 -116 16 -119 3
-3 5 2 5 11 0 23 22 21 37 -3 17 -26 7 -49 -18 -43 -15 4 -19 0 -19 -21 0 -30
8 -33 25 -9 12 15 15 15 45 -4 20 -13 28 -23 21 -27 -6 -4 -11 -2 -11 3 0 6
-9 11 -20 11 -24 0 -24 -3 -5 -41 10 -18 20 -27 28 -22 7 4 6 -1 -2 -11 -10
-11 -14 -38 -13 -74 7 -255 10 -472 6 -472 -3 0 -14 4 -24 10 -26 14 -47 3
-55 -28 -3 -14 -17 -39 -31 -55 -13 -16 -24 -37 -24 -48 0 -10 -4 -19 -10 -19
-5 0 -10 -9 -10 -20 0 -21 -33 -29 -45 -10 -9 14 -25 12 -25 -2 0 -8 -13 -13
-33 -12 -69 2 -70 2 -63 28 7 30 -2 56 -20 56 -17 0 -18 -12 -1 -30 10 -12 9
-12 -6 0 -10 7 -16 19 -13 26 3 8 -2 17 -11 22 -9 5 -13 14 -9 21 11 17 26 13
34 -9 5 -12 12 -16 20 -11 10 6 10 13 -3 37 -8 16 -15 46 -15 67 0 26 -4 37
-15 37 -11 0 -15 -11 -15 -40 0 -30 4 -40 16 -40 8 0 12 -5 8 -11 -3 -6 -17
-8 -31 -4 -22 5 -24 3 -17 -17 3 -13 -14 8 -40 46 -25 38 -46 71 -46 74 0 3
-8 14 -17 24 -16 18 -16 18 0 12 11 -4 17 -1 17 9 0 8 -7 17 -15 21 -8 3 -15
1 -15 -5 0 -6 -4 -8 -9 -4 -9 5 -8 132 1 218 2 20 0 37 -4 37 -9 0 -11 -14 -8
-43 1 -10 -5 -26 -13 -35 -11 -12 -14 -33 -12 -75 2 -36 0 -55 -6 -51 -6 3 -7
18 -4 33 4 20 0 35 -15 52 -21 24 -21 24 -15 2 4 -13 2 -23 -3 -23 -13 0 -23
27 -16 44 3 7 -2 16 -11 20 -11 4 -14 2 -10 -7 4 -6 -3 -1 -14 13 -12 15 -18
33 -15 44 4 11 2 16 -4 12 -6 -3 -13 -2 -17 4 -3 5 -2 10 4 10 12 0 3 69 -12
87 -5 7 -6 25 -1 40 4 16 7 64 6 108 l-2 80 20 -24 c11 -13 20 -29 20 -37 0
-8 5 -14 10 -14 7 0 7 -6 0 -19 -12 -24 -2 -60 11 -39 5 7 9 23 9 36 0 36 28
26 36 -13 6 -36 18 -45 27 -22 3 7 6 5 6 -5 1 -10 -3 -18 -9 -18 -6 0 -10 -33
-10 -80 0 -47 4 -80 10 -80 6 0 10 6 10 14 0 8 7 16 15 20 8 3 15 10 15 16 0
5 -7 10 -15 10 -8 0 -15 5 -15 10 0 6 9 10 20 10 15 0 20 7 20 29 0 17 4 32 9
35 10 6 31 -41 29 -64 -3 -41 3 -90 12 -90 6 0 10 20 10 45 0 38 3 45 20 45
17 0 20 -7 20 -41 0 -33 3 -40 16 -35 9 4 13 2 8 -5 -6 -10 -7 -239 -1 -245
10 -10 57 -14 57 -5 0 6 -9 11 -20 11 -17 0 -20 7 -20 40 0 23 5 40 11 40 8 0
10 17 7 51 -6 59 9 109 33 109 18 0 26 55 25 173 -1 47 3 67 12 67 6 0 12 -7
12 -15 0 -8 4 -15 9 -15 6 0 7 24 4 55 -5 47 -3 55 11 55 19 0 20 13 16 125
-2 72 -1 78 14 66 10 -9 16 -30 17 -60 0 -25 4 -64 8 -86 10 -44 10 -45 16
100 2 52 8 91 14 93 6 2 11 12 11 23 0 10 5 19 10 19 6 0 10 -7 10 -15z m540
-39 c0 -22 19 -30 35 -16 12 10 18 10 30 0 8 -7 15 -9 15 -4 0 4 5 3 12 -4 8
-8 8 -15 -2 -27 -10 -12 -10 -15 4 -15 12 0 16 -10 16 -40 0 -22 3 -40 8 -40
22 0 54 -154 33 -162 -4 -1 -2 -21 4 -43 12 -37 13 -31 14 81 1 70 5 124 12
131 5 5 11 24 11 42 1 17 6 31 12 31 6 0 4 5 -4 10 -9 6 -10 10 -3 10 21 0 43
-12 37 -21 -6 -11 25 -79 37 -79 5 0 9 -18 9 -40 0 -33 3 -40 20 -40 12 0 20
7 20 18 1 16 1 16 14 0 7 -10 23 -18 35 -18 18 0 21 -6 21 -47 1 -27 7 -59 14
-72 8 -14 11 -42 8 -72 -3 -32 -1 -49 7 -49 6 0 11 -17 11 -40 0 -22 5 -40 10
-40 6 0 10 -33 10 -80 0 -47 -4 -80 -10 -80 -5 0 -10 -18 -10 -40 0 -29 -4
-40 -15 -40 -10 0 -15 10 -15 34 0 19 -5 38 -11 42 -7 4 -10 26 -6 58 5 58 -5
103 -16 72 -4 -10 -7 -50 -7 -89 0 -40 -4 -78 -9 -85 -14 -23 -28 37 -20 93 3
28 2 59 -2 70 -5 13 -8 -2 -9 -45 l-2 -65 -12 40 -13 40 -7 -37 c-5 -20 -5
-41 -2 -46 3 -5 1 -24 -5 -42 -9 -25 -9 -34 1 -40 9 -5 7 -18 -10 -51 -17 -35
-20 -60 -19 -122 1 -42 -1 -80 -5 -84 -3 -3 -6 -2 -6 4 0 6 -9 13 -20 16 -12
3 -20 14 -20 26 0 12 -4 21 -10 21 -5 0 -10 -11 -10 -25 0 -14 -4 -25 -10 -25
-5 0 -10 7 -10 15 0 11 -11 15 -40 15 -29 0 -40 -4 -40 -15 0 -8 7 -15 15 -15
12 0 15 -16 15 -80 0 -64 -3 -80 -15 -80 -8 0 -18 0 -21 0 -4 0 -8 44 -9 97
-1 54 -5 112 -9 128 -4 17 -11 94 -16 170 -21 293 -39 448 -55 475 -3 6 -1 10
6 10 8 0 7 5 -2 17 -11 13 -11 17 -1 20 16 6 15 30 -2 36 -20 8 -20 247 0 247
8 0 14 -6 14 -14z m1285 -413 c4 -38 11 -85 15 -106 4 -20 5 -39 1 -41 -3 -2
-26 -6 -50 -7 l-43 -4 -5 87 c-5 95 4 124 39 131 13 2 26 5 30 6 3 0 9 -29 13
-66z m-433 -51 c22 3 33 -11 43 -54 7 -34 32 -37 37 -5 4 20 6 18 20 -13 l16
-35 -5 36 c-7 50 14 60 25 12 6 -21 13 -49 17 -63 3 -14 11 -59 16 -100 5 -41
13 -104 18 -140 6 -36 12 -168 15 -295 4 -207 3 -217 -5 -100 -6 71 -12 131
-14 133 -15 15 -19 -20 -13 -110 4 -56 4 -131 1 -165 -5 -54 -3 -63 11 -63 12
0 16 -9 16 -33 0 -18 5 -59 11 -91 9 -49 8 -61 -5 -75 -19 -21 -21 -41 -4 -41
6 0 9 -2 7 -5 -3 -2 -14 -2 -26 1 -16 4 -23 17 -28 45 -4 21 -11 39 -16 39 -5
0 -9 18 -9 40 0 22 -4 40 -10 40 -13 0 -13 77 0 82 6 2 13 55 17 121 5 103 4
117 -10 117 -8 0 -18 -8 -20 -17 -2 -10 -2 -3 0 16 3 25 -1 37 -16 48 -27 18
-27 33 -1 33 17 0 20 7 20 40 0 39 -6 45 -37 41 -8 -1 -13 9 -13 24 0 31 -17
33 -23 3 -4 -24 -4 -24 -25 41 -12 35 0 67 19 55 5 -3 9 4 9 16 0 12 -4 18
-10 15 -5 -3 -10 -2 -10 3 0 9 -56 37 -75 37 -16 0 -35 48 -35 92 0 32 5 45
20 53 16 9 20 8 20 -5 0 -8 5 -15 11 -15 8 0 10 18 6 57 -6 58 4 234 11 200 2
-12 11 -17 24 -15z m-4091 -416 c96 -20 197 -43 224 -51 28 -7 136 -33 240
-56 279 -61 361 -83 355 -94 -3 -5 -12 -8 -20 -6 -8 2 -76 16 -150 31 -160 33
-462 101 -610 136 -58 14 -156 35 -217 47 -62 12 -113 26 -113 31 0 14 105 1
291 -38z m1959 -49 c0 -5 8 -17 18 -26 10 -9 26 -29 36 -45 17 -27 17 -29 1
-22 -15 5 -16 4 -5 -9 7 -8 18 -15 25 -15 13 0 65 -62 65 -78 0 -5 7 -15 16
-22 8 -8 20 -23 26 -34 10 -18 9 -19 -4 -9 -8 7 -18 10 -21 6 -4 -3 -7 1 -7 9
0 9 -6 18 -14 21 -8 3 -16 18 -18 33 -2 15 -8 29 -15 31 -7 3 -9 -4 -6 -18 4
-15 3 -20 -5 -15 -7 4 -12 14 -12 22 0 8 -4 14 -10 14 -5 0 -10 -4 -10 -10 0
-5 -13 -10 -30 -10 -27 0 -30 3 -30 32 0 29 -1 30 -17 16 -39 -33 -114 -27
-157 14 -18 16 -18 18 -3 18 14 0 15 3 6 19 -24 38 -8 46 85 43 66 -3 86 -7
86 -18 0 -8 7 -14 15 -14 19 0 19 2 -4 29 -14 16 -31 22 -65 23 -37 0 -46 4
-46 19 0 22 37 22 63 1 22 -19 34 -8 16 15 -13 16 -12 17 4 4 9 -7 17 -18 17
-24z m-924 -187 c23 0 61 -6 85 -13 43 -14 189 -49 259 -62 45 -8 189 -41 260
-59 30 -8 62 -14 70 -14 8 -1 53 -10 100 -22 47 -11 123 -30 170 -41 47 -11
92 -23 101 -25 14 -4 15 1 8 38 -10 58 -26 98 -39 98 -5 0 -10 7 -10 15 0 8 7
15 16 15 14 0 14 3 4 15 -9 11 -10 19 -3 26 8 8 16 1 29 -20 10 -17 23 -30 29
-27 14 5 39 -50 29 -65 -4 -8 1 -9 17 -4 19 5 21 4 9 -4 -13 -10 -13 -12 0
-21 8 -5 20 -8 27 -5 12 4 57 -44 49 -53 -6 -6 -31 19 -39 38 -4 12 -6 11 -6
-2 -1 -10 8 -27 20 -39 l20 -20 -48 5 -48 6 40 -14 c67 -22 95 -27 95 -17 0 5
-8 12 -17 14 -17 4 -17 5 0 6 10 0 20 -6 24 -14 3 -9 22 -25 42 -35 l36 -20
-40 6 c-22 4 -148 31 -280 61 -132 30 -301 67 -375 83 -121 26 -217 48 -594
134 -60 14 -114 31 -120 37 -8 9 -5 10 14 5 14 -4 43 -7 66 -6z m-2695 -791
c15 -10 34 -19 43 -19 11 0 16 -9 16 -28 0 -16 6 -29 13 -30 48 -3 202 -41
200 -50 -1 -5 -9 -56 -18 -112 -8 -57 -21 -110 -27 -118 -11 -13 -11 -14 1 -7
11 6 13 3 8 -16 -4 -13 -7 -33 -7 -44 -1 -19 -1 -19 -14 -2 -7 9 -19 17 -27
16 -10 0 -11 -2 -1 -6 28 -11 9 -22 -30 -18 -24 3 -63 7 -87 8 -34 3 -46 9
-57 28 l-13 24 -1 -22 c0 -20 -5 -23 -40 -23 -44 0 -50 -9 -20 -28 27 -16 18
-30 -36 -53 -38 -17 -43 -24 -53 -66 -7 -33 -6 -52 1 -61 8 -9 6 -16 -7 -26
-12 -8 -16 -21 -13 -34 3 -12 2 -22 -2 -24 -5 -2 -11 -19 -15 -40 -6 -30 -4
-37 12 -41 10 -3 -20 -4 -67 -4 l-85 2 2 55 c2 30 6 62 9 70 4 8 8 26 9 40 1
14 6 49 10 78 7 49 6 52 -13 52 -16 0 -24 -9 -31 -37 -13 -49 -23 -105 -26
-146 -1 -17 -6 -49 -10 -70 l-8 -39 -56 7 c-85 10 -149 22 -123 24 12 0 22 6
22 11 0 7 -16 9 -40 6 -38 -5 -40 -3 -41 22 0 15 -3 21 -6 15 -3 -10 -8 -9
-20 3 -22 22 -11 26 26 11 17 -7 28 -16 24 -20 -3 -4 3 -7 14 -7 11 0 32 -9
47 -21 34 -27 57 -22 45 9 -6 15 -17 22 -34 22 -14 0 -25 5 -25 10 0 6 -8 10
-17 10 -10 0 -27 7 -37 15 -11 8 -32 15 -47 15 -15 0 -29 7 -32 15 -10 24 9
27 45 7 19 -11 57 -26 86 -35 45 -13 52 -13 52 0 0 8 -4 11 -10 8 -5 -3 -10
-2 -10 4 0 6 -22 13 -50 17 -42 6 -50 10 -50 28 0 13 -3 17 -8 9 -4 -6 -23
-10 -44 -8 l-36 3 -13 -71 c-15 -86 -41 -116 -102 -115 -20 0 -40 4 -43 9 -3
5 -16 9 -30 9 -28 0 -31 12 -8 31 11 9 14 23 11 45 -3 18 -2 34 3 36 5 2 16
37 24 78 33 156 39 174 66 181 33 9 217 9 255 -1 21 -5 7 -7 -42 -6 -39 1 -74
-1 -76 -4 -3 -3 -8 -17 -12 -33 -6 -24 -5 -27 19 -27 14 0 26 -4 26 -9 0 -5
-8 -8 -17 -7 -10 0 -17 -5 -15 -11 1 -7 -2 -13 -7 -13 -5 0 -12 -7 -15 -16 -5
-12 -2 -15 9 -10 21 8 31 -20 15 -39 -8 -9 -8 -15 -2 -15 6 0 12 4 14 8 2 5
18 12 36 15 23 5 32 3 32 -7 0 -17 29 -25 55 -15 17 6 17 8 3 8 -10 1 -18 6
-18 12 0 8 16 10 50 5 53 -7 100 0 100 16 0 5 -9 12 -20 15 -11 3 -17 9 -14
14 3 5 -3 9 -13 9 -11 0 -28 7 -39 15 -17 13 -15 14 31 9 27 -3 53 -8 57 -10
4 -3 8 -3 8 1 0 3 -10 10 -22 15 -14 5 -17 9 -8 9 8 1 21 10 27 21 12 17 9 20
-25 29 -20 5 -48 12 -62 15 -14 3 -1 3 28 2 l52 -3 0 43 c0 33 5 46 20 54 21
11 28 40 10 40 -5 0 -10 8 -10 17 0 23 22 83 31 83 4 0 11 15 14 33 4 17 12
38 17 45 6 6 8 13 4 13 -3 1 -9 2 -13 3 -5 1 -13 5 -20 9 -6 4 -19 4 -27 1
-15 -6 -15 -3 -5 20 9 19 15 23 25 15 9 -7 13 -5 16 8 3 15 8 13 34 -15 29
-31 31 -32 92 -26 65 7 71 13 53 59 -14 35 -3 42 61 38 40 -3 71 -11 89 -24z
m2419 -103 c0 -8 16 -16 40 -20 38 -6 57 -26 25 -26 -8 0 -15 -6 -15 -14 0 -7
7 -19 15 -26 8 -7 15 -21 15 -30 0 -10 6 -20 13 -23 9 -3 9 -9 -2 -30 -7 -14
-11 -32 -8 -40 3 -8 -3 -23 -13 -32 -18 -16 -26 -16 -102 -4 -68 11 -78 15
-53 20 17 4 24 7 18 8 -7 0 -13 7 -13 15 0 8 -6 17 -12 19 -10 4 -10 8 -2 14
7 4 12 21 12 36 0 15 7 36 16 46 20 22 20 31 1 31 -11 0 -5 11 17 34 36 38 48
43 48 22z m1600 -206 c0 -5 21 -10 47 -12 l47 -3 -32 -33 c-18 -18 -32 -39
-32 -46 0 -12 -15 -21 -72 -45 -16 -6 -28 -15 -28 -21 0 -5 -9 -10 -20 -10
-18 0 -20 7 -20 83 0 46 4 87 10 93 11 11 100 6 100 -6z m-4974 -506 c-3 -7 2
-21 11 -29 15 -15 10 -16 -51 -14 -36 1 -69 -1 -73 -4 -3 -4 19 -7 50 -7 32 0
57 -4 57 -10 0 -5 6 -7 13 -5 9 4 11 -7 8 -42 -2 -27 -6 -41 -9 -33 -6 17 -31
-72 -32 -112 l0 -28 -77 0 c-43 0 -89 4 -103 8 -21 6 -17 8 25 13 l50 6 -65 3
c-47 2 -57 4 -36 9 17 3 29 11 27 16 -1 6 8 13 21 17 l23 6 -22 1 c-25 1 -31
16 -10 24 7 3 5 6 -5 6 -35 2 -18 27 19 29 51 4 55 12 7 13 -30 0 -34 2 -19 8
11 5 26 6 33 4 6 -3 12 0 12 6 0 6 -15 12 -32 13 -28 1 -25 2 12 7 l45 6 -45
9 c-41 8 -43 9 -20 16 14 5 21 8 16 9 -5 1 -2 8 5 17 10 12 26 15 66 12 55 -5
61 7 8 15 l-30 4 33 2 c19 0 32 6 32 14 0 9 10 12 31 9 20 -3 28 -9 25 -18z
m3685 -213 c-8 -5 -9 -11 -3 -15 6 -3 13 -2 17 4 14 23 25 7 25 -34 0 -26 -6
-51 -15 -60 -8 -8 -15 -26 -15 -39 0 -20 4 -24 19 -20 19 5 19 4 3 -31 -9 -21
-23 -36 -33 -36 -24 0 -35 -20 -12 -21 10 -1 20 -1 23 -1 3 0 5 -57 5 -126 0
-70 4 -130 8 -133 10 -7 19 -175 11 -201 -4 -13 -17 -18 -42 -19 l-37 -2 40
-7 c33 -6 26 -7 -39 -9 -63 -1 -76 2 -68 12 7 8 7 18 2 27 -7 11 -11 8 -21
-13 -11 -25 -17 -28 -58 -26 -25 1 -52 7 -59 12 -9 8 -16 7 -20 0 -8 -13 -238
-12 -266 1 -14 7 -17 6 -12 -2 9 -16 -7 -15 -22 0 -9 9 -12 9 -12 0 0 -8 -17
-12 -45 -12 -39 0 -45 3 -45 21 0 17 -5 20 -26 16 -19 -3 -24 -1 -20 10 3 8 6
19 6 24 0 5 9 9 20 9 11 0 20 5 20 10 0 6 14 10 31 10 18 0 28 4 24 10 -4 6
-10 8 -15 5 -4 -3 -13 2 -20 10 -10 13 -9 19 5 35 18 20 51 29 40 11 -10 -18
17 -23 33 -7 11 10 12 16 4 16 -7 0 -12 15 -12 40 0 29 4 40 15 40 8 0 15 -8
15 -17 1 -17 1 -17 14 0 18 23 38 22 54 -4 16 -26 38 -12 47 32 4 16 16 37 29
46 12 10 20 26 18 36 -3 14 4 17 37 17 33 0 40 3 43 23 2 17 11 23 36 25 21 2
32 9 33 20 1 15 2 15 6 0 6 -22 26 -23 43 -3 7 8 19 15 26 15 19 0 44 53 44
95 0 33 2 35 35 35 34 0 35 1 35 40 0 22 5 40 10 40 6 0 8 11 4 25 -7 27 18
75 39 75 8 0 8 -3 -2 -9z m501 -123 c-4 -40 -2 -48 12 -48 21 0 20 -13 -1 -47
-16 -24 -24 -28 -63 -26 -25 1 -37 -1 -27 -4 12 -3 17 -15 17 -44 0 -21 3 -39
8 -39 4 0 16 -14 27 -30 11 -16 25 -30 30 -30 6 0 16 -4 23 -9 11 -7 11 -12 1
-28 -15 -25 -5 -53 21 -60 14 -4 20 -14 20 -32 0 -21 7 -29 33 -39 43 -15 47
-15 47 3 0 8 7 15 15 15 9 0 12 -6 9 -15 -4 -8 -10 -15 -15 -15 -5 0 -9 -11
-9 -25 0 -32 13 -32 39 1 16 20 33 28 68 32 37 4 55 12 81 38 18 19 39 34 46
34 7 0 18 10 23 23 10 21 11 21 26 -14 23 -57 40 -60 34 -8 -3 24 -4 36 -1 27
4 -13 16 -18 45 -18 21 0 39 5 39 10 0 6 5 10 10 10 6 0 10 -12 10 -26 0 -14
-4 -23 -10 -19 -5 3 -10 2 -10 -4 0 -5 5 -13 10 -16 6 -3 10 -2 10 4 0 5 8 12
18 15 14 5 16 15 14 51 -2 25 -8 45 -14 45 -5 0 -8 21 -6 48 3 40 6 47 26 50
12 2 22 -2 22 -8 0 -8 17 -11 50 -8 l50 3 0 -42 c0 -36 3 -43 19 -43 22 0 30
-33 38 -157 2 -46 8 -83 13 -83 5 0 8 12 7 27 -2 27 -1 28 68 31 39 1 72 7 73
12 4 12 182 14 182 2 0 -4 -13 -22 -30 -40 -32 -35 -38 -57 -17 -65 6 -3 -22
-7 -63 -8 l-75 -3 85 -6 85 -6 -71 -2 c-39 -1 -99 -5 -133 -8 -41 -5 -61 -3
-61 4 0 6 12 13 28 15 15 2 0 5 -33 6 -33 2 -54 5 -47 8 17 7 15 23 -3 23 -11
0 -15 12 -16 43 0 23 -9 62 -20 87 -15 35 -18 38 -14 15 3 -16 8 -55 11 -86 6
-53 5 -56 -17 -63 -23 -7 -23 -8 -4 -16 16 -7 12 -9 -20 -9 -52 -2 -86 -11
-79 -22 3 -5 -25 -9 -63 -9 -117 0 -173 -10 -173 -31 0 -10 -4 -20 -8 -23 -15
-9 -1672 -16 -1672 -7 0 12 346 24 566 20 98 -2 346 -3 549 -1 l371 2 2 25 c2
22 -2 24 -31 22 -17 -2 -40 0 -49 5 -11 5 -26 5 -37 -2 -14 -7 -21 -6 -24 3
-3 7 -6 4 -6 -7 -1 -16 -6 -17 -43 -11 -24 4 -82 8 -129 10 -48 1 -91 5 -97 9
-6 4 -20 -2 -30 -12 -12 -12 -25 -17 -33 -11 -7 4 -16 6 -20 3 -4 -2 -12 3
-19 12 -8 8 -16 11 -19 5 -3 -5 -26 -11 -51 -12 l-45 -4 0 35 c0 35 1 35 48
38 26 2 47 7 47 12 0 11 59 70 71 70 5 0 9 18 9 40 0 36 3 40 25 40 15 0 25 6
25 14 0 7 7 19 15 26 12 10 15 9 15 -4 0 -14 4 -15 20 -6 11 6 20 19 20 28 0
10 9 24 20 32 27 20 25 26 -11 34 -18 3 -28 10 -24 17 4 6 18 8 31 5 14 -4 24
-2 24 4 0 5 -4 10 -10 10 -6 0 -10 48 -10 124 0 73 4 127 10 131 6 3 10 1 10
-4 0 -24 17 -9 29 25 l13 37 27 -29 c24 -25 27 -35 23 -76z m-4198 -39 c3 -17
5 -43 5 -58 -1 -19 -4 -15 -9 14 l-7 40 -2 -37 c0 -20 -7 -39 -13 -41 -8 -3
-5 -6 6 -6 15 -1 16 -4 6 -16 -9 -11 -9 -15 -1 -15 13 0 12 -68 0 -76 -4 -2
-6 -22 -4 -44 3 -30 1 -40 -10 -40 -9 0 -15 -10 -15 -24 0 -34 -10 -56 -26
-56 -8 0 -11 -6 -8 -15 4 -9 0 -15 -7 -15 -11 0 -11 -3 1 -10 10 -6 11 -10 3
-10 -7 0 -13 -7 -13 -16 0 -8 -4 -12 -10 -9 -5 3 -10 0 -11 -7 0 -7 -4 -4 -9
7 -7 17 -9 17 -9 3 -1 -14 -9 -18 -33 -17 l-33 2 30 5 30 4 -35 12 c-25 8 -40
9 -54 1 -14 -7 -20 -7 -23 2 -3 9 -11 6 -26 -7 -19 -18 -50 -30 -33 -13 4 4
-8 13 -26 19 -24 9 -28 13 -13 14 17 2 16 3 -5 10 -24 8 -24 8 -2 9 12 1 22 5
22 10 0 5 -10 12 -22 14 -16 3 -13 5 12 6 19 2 29 5 23 8 -19 7 -16 23 5 25 9
1 -8 4 -38 8 l-55 7 57 1 c64 2 86 17 30 20 -58 4 -50 12 14 13 32 1 51 3 42
6 -10 3 -18 14 -18 26 0 18 2 19 10 7 7 -11 10 -3 10 30 0 28 3 40 9 32 7 -11
9 -11 14 2 3 8 1 17 -6 20 -7 2 -4 5 6 5 9 1 17 5 17 11 0 5 -7 7 -15 4 -8 -4
-15 -1 -15 5 0 6 16 11 35 11 19 0 35 5 35 11 0 5 -5 7 -12 3 -8 -5 -9 -2 -5
10 4 10 7 22 7 27 0 6 5 7 10 4 6 -3 10 -2 10 3 0 6 9 8 20 5 11 -3 20 0 20 6
0 6 -9 11 -21 11 -11 0 -17 5 -14 10 3 6 16 8 28 4 15 -3 31 2 46 15 l24 21
-34 2 c-19 1 -44 1 -56 1 -13 0 -23 4 -23 8 0 5 40 9 89 9 l89 0 6 -31z
m-1397 -295 c20 -5 21 -11 16 -55 -6 -54 5 -63 39 -32 22 20 23 46 3 67 -11
11 -12 17 -3 22 6 4 19 -2 29 -15 17 -21 18 -21 28 -4 9 18 46 24 68 10 6 -4
14 -23 18 -43 5 -28 9 -34 18 -25 7 7 12 25 12 41 0 38 19 44 23 8 4 -31 -39
-110 -71 -133 -23 -16 -67 -20 -67 -6 0 5 14 11 30 15 39 7 45 26 30 81 -13
47 -29 56 -50 30 -12 -14 -11 -29 5 -67 5 -13 2 -18 -8 -18 -9 0 -21 8 -26 18
-10 16 -12 16 -25 0 -15 -21 -86 -25 -86 -6 0 9 -3 9 -12 0 -20 -20 -47 -14
-54 13 -7 30 12 81 35 95 19 11 20 11 48 4z m1191 -220 c12 -4 22 -13 22 -21
0 -8 5 -11 10 -8 6 3 10 -1 10 -9 0 -10 12 -16 36 -18 21 -2 42 -10 48 -20 8
-14 2 -25 -32 -58 -23 -23 -42 -43 -42 -45 0 -3 28 1 40 5 3 1 8 2 13 1 4 0 7
8 7 18 0 11 5 23 12 27 7 4 8 3 4 -4 -18 -30 22 3 47 38 21 30 35 40 55 39 15
0 21 -3 15 -6 -7 -2 -13 -10 -13 -16 0 -17 52 -15 69 1 12 12 16 11 23 -2 5
-9 6 -22 2 -29 -4 -6 2 -3 15 7 12 11 20 25 18 30 -3 6 10 12 29 14 33 2 34 1
28 -25 -4 -22 -3 -25 5 -13 9 12 11 10 11 -10 1 -25 1 -25 10 -2 10 24 25 29
36 10 4 -6 -1 -17 -11 -25 -17 -12 -16 -13 13 -13 18 0 32 -4 32 -10 0 -5 -7
-10 -15 -10 -8 0 -15 -7 -15 -16 0 -12 8 -9 34 13 45 37 60 68 41 83 -12 10
-16 9 -21 -4 -8 -22 -36 -21 -32 2 2 12 15 18 46 20 40 3 42 2 42 -24 0 -15
-10 -38 -22 -51 l-21 -23 45 0 c39 0 50 5 72 30 14 17 23 37 20 45 -8 21 -20
19 -38 -7 -14 -20 -16 -20 -22 -4 -9 23 12 37 51 34 36 -4 46 -39 20 -68 -14
-15 -14 -21 -4 -38 10 -16 10 -26 2 -44 -6 -13 -14 -40 -18 -60 -7 -42 -11
-45 -42 -23 -14 10 -32 13 -47 9 -19 -5 -26 -14 -31 -47 -4 -23 -13 -45 -19
-49 -6 -4 -36 -8 -67 -8 l-56 0 12 53 c11 50 11 55 -6 66 -15 9 -25 8 -46 -3
-18 -9 -36 -11 -52 -6 -15 5 -39 11 -54 15 -25 5 -28 9 -23 31 6 23 5 24 -14
14 -11 -6 -18 -15 -15 -21 4 -5 -5 -9 -20 -9 -17 0 -28 7 -34 23 -5 12 -5 24
0 27 13 9 -7 31 -23 25 -10 -4 -15 -21 -16 -53 -2 -48 -11 -102 -17 -102 -2 0
-10 3 -19 6 -17 7 -22 54 -6 54 6 0 10 12 9 28 0 24 -1 25 -9 7 -7 -16 -9 -16
-9 -4 -1 23 -80 32 -82 9 -1 -11 -3 -10 -6 3 -5 19 -34 16 -61 -6 -7 -5 -16
-7 -19 -3 -4 4 -1 11 7 16 12 8 9 10 -10 11 -14 0 -20 3 -15 5 13 5 7 74 -6
74 -5 0 -17 -7 -26 -15 -10 -8 -27 -21 -38 -29 -20 -15 -20 -15 2 -16 12 0 25
5 28 10 3 6 13 10 22 10 13 0 13 -3 3 -15 -7 -8 -9 -15 -4 -15 5 0 2 -5 -6
-10 -21 -13 -100 -13 -100 1 0 6 13 23 29 39 16 16 27 32 25 35 -2 3 -1 3 3 0
12 -9 33 17 33 41 0 27 -27 33 -36 9 -4 -8 -13 -15 -21 -15 -11 0 -13 5 -8 18
4 9 9 24 12 34 3 9 14 19 26 22 28 7 34 0 8 -9 -12 -3 -21 -11 -21 -17 0 -5 6
-8 14 -5 22 9 58 -22 53 -45 -3 -10 -1 -18 5 -16 5 2 8 6 7 8 -7 12 38 50 59
50 18 0 22 4 18 15 -3 8 -9 22 -12 30 -7 16 6 19 44 9z"/>
<path d="M5120 7375 c0 -12 16 -15 80 -15 79 0 80 0 80 -25 0 -22 4 -25 40
-25 36 0 40 -2 40 -25 0 -22 4 -25 34 -25 19 0 38 5 41 10 3 6 15 10 26 10 11
0 17 -4 14 -10 -3 -5 1 -10 9 -10 8 0 18 5 21 10 10 15 23 12 28 -7 4 -15 5
-14 6 3 0 11 6 25 12 31 6 6 8 17 4 23 -6 9 -10 9 -17 -1 -7 -11 -8 -9 -4 4 3
10 6 26 7 35 0 10 6 4 14 -14 10 -22 11 -42 5 -70 -10 -45 -5 -57 10 -23 10
24 10 24 7 -3 -3 -19 0 -28 10 -28 8 0 11 -4 8 -10 -3 -5 -1 -10 5 -10 8 0 10
-11 6 -32 -4 -22 -3 -26 2 -14 7 15 13 6 31 -45 21 -58 52 -143 71 -194 5 -11
23 -63 41 -115 18 -52 43 -108 55 -123 17 -20 22 -35 18 -56 -4 -16 -1 -32 5
-35 6 -4 11 -16 11 -26 0 -10 6 -20 13 -23 9 -3 9 -8 -2 -21 -13 -15 -16 -14
-37 18 -34 50 -74 62 -74 23 0 -15 9 -29 25 -37 13 -7 22 -16 20 -20 -8 -14
45 -21 66 -9 11 6 21 9 22 7 1 -2 8 -13 15 -25 6 -13 12 -32 12 -43 0 -13 5
-18 16 -13 18 7 16 59 -2 56 -7 -1 -12 8 -12 20 -1 34 -7 60 -19 82 -6 11 -13
34 -17 50 -4 17 -9 39 -13 49 -4 15 -1 18 16 13 14 -3 21 0 21 9 0 8 -4 14
-10 14 -19 0 -10 19 13 26 12 4 23 6 24 6 2 -1 19 6 38 14 20 8 40 12 45 9 16
-10 12 23 -9 73 -35 85 -71 186 -77 217 -5 27 -2 31 26 42 39 15 56 9 69 -25
5 -15 10 -21 10 -14 1 6 8 12 16 12 8 0 15 9 15 20 0 11 -4 20 -9 20 -4 0 -11
17 -14 38 -3 20 -8 53 -12 72 -5 27 -4 32 5 20 8 -12 9 -6 4 23 -5 29 -3 37 9
37 8 0 18 -6 20 -12 3 -8 6 -6 6 5 1 11 -6 17 -21 17 -13 0 -33 3 -45 6 -20 6
-22 3 -16 -30 3 -21 1 -42 -6 -50 -8 -10 -9 -16 -1 -21 5 -3 10 -23 10 -44 0
-34 -4 -39 -45 -59 -61 -30 -81 -28 -100 8 -9 17 -11 30 -5 30 5 0 10 5 10 11
0 5 -9 9 -20 7 -15 -2 -27 9 -46 40 -14 23 -20 42 -15 42 6 0 11 9 11 20 0 11
-4 20 -10 20 -5 0 -10 5 -10 10 0 17 46 11 71 -8 20 -17 25 -17 50 -5 16 8 32
19 35 25 4 7 2 8 -5 4 -8 -5 -17 6 -28 33 l-16 41 -369 0 c-320 0 -368 -2
-368 -15z"/>
<path d="M6151 7372 c0 -13 -8 -31 -17 -40 -11 -10 -13 -17 -5 -20 15 -5 14
-49 -1 -54 -8 -3 -7 -11 5 -28 9 -14 17 -39 17 -56 0 -18 9 -42 20 -55 l21
-24 -7 34 c-10 54 -10 121 1 120 6 0 13 15 16 33 6 32 6 31 8 -9 0 -24 -3 -43
-9 -43 -5 0 -10 -5 -10 -11 0 -8 5 -8 15 1 8 7 15 19 15 27 0 12 3 12 22 -1
17 -12 49 -16 130 -16 89 0 108 -3 108 -15 0 -12 20 -15 120 -15 l120 0 0 -25
c0 -25 1 -25 80 -25 64 0 80 3 80 15 0 11 11 15 40 15 38 0 40 -2 40 -30 0
-28 2 -30 40 -30 38 0 40 2 40 30 0 28 2 30 40 30 29 0 40 -4 40 -15 0 -12 16
-15 80 -15 l80 0 0 45 0 45 40 0 c33 0 40 -3 40 -20 0 -18 7 -20 80 -20 53 0
80 4 80 11 0 7 20 31 44 55 37 38 49 44 85 44 33 0 47 6 65 27 23 26 23 26
154 24 114 -2 132 0 132 13 0 14 -90 16 -915 16 l-915 0 6 -25 c4 -15 2 -25
-4 -25 -6 0 -13 12 -15 28 -3 23 -4 24 -6 4z"/>
<path d="M5939 6624 c-10 -12 -10 -20 -1 -35 7 -10 12 -26 12 -34 0 -8 4 -15
9 -15 6 0 18 -28 27 -61 15 -54 19 -59 26 -39 5 13 7 29 4 37 -3 7 -1 15 4 18
5 3 17 -20 27 -52 9 -32 19 -50 21 -40 2 9 11 17 20 17 14 0 14 2 3 9 -7 5
-11 14 -7 19 10 16 -15 103 -31 109 -9 3 -11 13 -7 26 6 20 6 20 -10 4 -23
-22 -43 -11 -22 12 12 13 13 20 4 29 -17 17 -63 15 -79 -4z"/>
<path d="M8594 6541 c-47 -28 -74 -73 -74 -120 0 -31 3 -39 14 -35 9 3 12 12
9 22 -5 12 -2 14 12 9 9 -4 24 -2 32 4 24 20 155 24 190 6 l31 -16 -8 37 c-13
56 -80 112 -134 112 -23 0 -55 -9 -72 -19z"/>
<path d="M9081 6230 c-7 -23 -18 -40 -26 -40 -8 0 -15 -5 -15 -11 0 -5 5 -7
10 -4 6 3 10 -1 10 -9 0 -25 -13 -19 -43 19 -15 19 -35 35 -44 35 -14 0 -14
-3 3 -22 44 -51 65 -90 61 -111 -4 -19 -4 -19 -6 4 -1 23 -7 28 -38 34 -21 3
-49 9 -62 12 -17 4 -22 2 -17 -6 4 -6 23 -11 42 -11 19 0 34 -4 34 -10 0 -5
-12 -10 -27 -10 -22 0 -25 -2 -13 -10 8 -5 25 -10 38 -10 12 0 22 -4 22 -9 0
-4 -12 -6 -27 -3 l-27 5 23 -24 c22 -24 22 -24 2 -27 -12 -2 -21 -7 -21 -12 0
-5 -15 -7 -32 -3 l-33 6 30 -34 c17 -19 33 -35 38 -37 4 -2 5 -8 2 -12 -3 -5
-17 -5 -31 0 -22 9 -27 7 -31 -10 -3 -13 -19 -24 -45 -31 l-41 -10 49 -25 c37
-19 59 -24 92 -21 51 5 65 -8 19 -18 -30 -6 -31 -7 -10 -17 15 -7 21 -19 21
-38 l-1 -28 -41 22 c-41 22 -72 28 -296 62 -130 20 -154 20 -186 -1 -19 -12
-23 -12 -28 0 -6 18 -36 20 -36 4 0 -7 9 -26 20 -45 16 -25 35 -37 82 -53 33
-11 65 -18 69 -15 18 10 -1 22 -47 29 -30 4 -43 10 -37 16 7 7 26 6 56 -2 26
-6 59 -8 74 -4 25 7 20 9 -37 21 -36 8 -80 11 -97 8 -20 -4 -33 -2 -33 4 0 16
90 24 135 13 22 -5 58 -15 80 -20 22 -6 79 -11 126 -11 63 0 98 -5 129 -19 26
-12 37 -21 30 -26 -6 -4 -17 -2 -23 4 -6 6 -20 11 -31 11 -20 0 -20 -1 2 -18
13 -10 20 -21 16 -25 -4 -4 -13 -2 -21 4 -9 8 -17 8 -25 1 -15 -12 -16 -12
-60 -12 -25 0 -29 -3 -18 -10 8 -5 27 -10 42 -10 15 0 29 -4 32 -8 2 -4 24 -9
48 -11 41 -2 58 -13 58 -38 0 -9 -16 -13 -47 -13 l-48 -1 65 -34 c86 -45 58
-46 -37 -2 -13 6 -26 8 -29 4 -3 -3 11 -14 32 -23 27 -12 34 -18 22 -21 -9 -2
-27 1 -38 7 -36 19 -34 4 7 -52 46 -64 52 -75 119 -203 28 -55 57 -117 64
-138 7 -21 14 -36 17 -33 6 6 -22 227 -39 301 -14 60 -16 83 -25 298 -7 135
-6 166 5 162 10 -3 11 4 7 29 -4 19 -2 43 5 55 6 12 8 27 4 33 -4 7 -9 25 -11
40 -2 23 2 31 23 38 19 7 31 7 40 -1 8 -6 14 -7 14 -2 0 16 -24 33 -47 33 -13
0 -23 2 -23 5 0 14 25 55 34 55 6 0 5 5 -2 12 -9 9 -6 22 14 55 23 40 25 63 5
63 -4 0 -13 -18 -20 -40z"/>
<path d="M9223 5887 c-19 -24 -29 -72 -23 -104 5 -22 4 -30 -3 -26 -7 4 -8 -1
-3 -13 4 -10 9 -23 10 -29 2 -5 6 -17 9 -25 8 -22 16 -60 12 -60 -7 0 -45 82
-46 98 0 9 -9 35 -20 57 l-19 40 6 -45 c14 -109 24 -219 24 -267 0 -29 5 -53
10 -53 10 0 12 11 12 70 -1 30 1 28 9 -14 12 -57 7 -78 -17 -69 -14 5 -15 3
-4 -16 6 -13 9 -29 6 -36 -3 -9 0 -12 10 -8 7 3 14 13 14 23 0 20 16 34 40 35
12 0 14 13 13 60 -1 33 2 86 8 119 10 58 6 84 -32 183 -5 13 -4 25 1 28 12 8
13 52 1 59 -5 3 -13 0 -18 -7z"/>
<path d="M9393 5514 c-39 -14 -95 -62 -155 -131 -20 -24 -32 -30 -49 -26 -15
4 -20 3 -15 -5 4 -7 16 -12 27 -12 10 0 19 -4 19 -10 0 -5 -13 -10 -30 -10
-21 0 -30 -5 -30 -16 0 -11 8 -14 28 -12 39 4 43 -14 5 -24 -36 -9 -40 -17
-21 -36 10 -10 10 -15 -2 -23 -13 -8 -12 -11 4 -24 14 -10 17 -21 12 -40 -5
-20 -3 -26 6 -23 7 3 18 25 23 49 6 24 16 54 23 66 6 12 9 29 6 37 -7 19 0 20
25 4 17 -10 27 -4 81 45 33 31 71 58 83 58 77 5 174 -7 221 -27 16 -6 18 -4
13 9 -3 9 -2 17 2 17 5 0 12 7 15 17 8 19 -34 59 -109 103 -57 34 -113 38
-182 14z"/>
<path d="M9487 5286 c-7 -24 -10 -27 -18 -15 -6 9 -7 3 -3 -18 8 -40 -14 -53
-48 -29 -25 18 -53 22 -43 6 11 -18 -6 -50 -26 -50 -10 0 -19 -4 -19 -10 0 -5
-7 -10 -16 -10 -13 0 -11 -6 10 -26 l26 -27 -35 -34 c-19 -19 -35 -38 -35 -44
0 -5 -11 -27 -25 -49 -14 -21 -26 -44 -27 -51 -4 -15 33 -21 49 -7 8 6 16 8
20 4 3 -3 1 -6 -6 -6 -7 0 -10 -4 -6 -10 3 -5 -6 -31 -21 -58 l-26 -49 21 -59
c31 -83 55 -133 63 -134 4 0 14 12 22 28 8 15 26 38 41 52 24 23 43 57 59 103
3 9 11 17 18 17 9 0 14 24 16 84 1 56 13 123 33 198 16 62 34 127 38 143 4 17
13 40 20 53 8 15 8 22 1 22 -6 0 -26 -32 -45 -72 -25 -52 -35 -65 -35 -47 0
14 7 34 15 45 16 22 20 38 6 29 -5 -3 -11 7 -13 22 l-3 28 -8 -29z"/>
<path d="M9845 5138 l5 -53 -14 40 c-14 39 -14 38 -15 -65 -1 -58 -5 -119 -10
-137 -7 -24 -6 -31 3 -27 8 3 11 -6 8 -31 -2 -19 -8 -35 -13 -35 -5 0 -9 -8
-8 -17 0 -11 3 -13 6 -5 2 6 9 12 15 12 6 0 7 -7 4 -16 -4 -9 0 -22 8 -28 11
-8 13 -20 8 -44 l-7 -34 -20 22 c-11 12 -28 26 -38 31 -15 9 -17 5 -16 -33 1
-24 1 -65 -1 -91 -3 -39 -6 -47 -19 -41 -9 3 -52 10 -96 14 -44 5 -98 14 -121
21 -37 11 -45 10 -87 -11 -26 -13 -62 -37 -80 -53 l-32 -29 45 25 c65 35 95
40 130 22 17 -9 30 -20 30 -26 0 -6 -4 -8 -9 -5 -5 3 -15 -2 -22 -11 -13 -15
-11 -16 24 -10 38 6 107 -15 107 -32 0 -22 -53 -43 -94 -38 l-41 6 28 -23 c26
-21 28 -25 16 -44 -12 -20 -70 -54 -111 -66 -14 -4 -15 -9 -2 -45 8 -23 18
-49 24 -59 18 -33 70 -164 70 -178 0 -8 4 -14 9 -14 4 0 16 -26 25 -57 10 -32
28 -89 41 -128 31 -93 88 -310 141 -535 14 -63 29 -122 32 -130 3 -8 7 -27 8
-41 2 -14 8 -37 14 -50 8 -20 10 -21 9 -4 -2 34 1 38 18 24 15 -13 15 -12 3
11 -29 55 -31 63 -23 71 10 10 28 -27 63 -126 45 -128 221 -662 229 -695 5
-19 12 -43 16 -52 4 -11 3 -18 -4 -18 -6 0 -11 6 -11 13 0 8 -14 13 -37 14
l-38 2 33 -10 c17 -5 32 -12 32 -14 0 -2 -15 -2 -32 0 l-33 5 35 -11 c70 -22
91 -32 83 -40 -4 -4 -44 1 -88 11 -121 29 -113 35 -98 -73 7 -50 20 -154 28
-231 9 -76 17 -142 20 -145 4 -7 45 -239 45 -255 0 -4 -10 -6 -22 -4 -17 2
-23 -2 -22 -14 0 -10 1 -88 2 -172 l2 -155 52 -3 53 -3 7 -40 c11 -60 39 -290
45 -372 l6 -73 -66 0 c-116 0 -113 5 -120 -162 -7 -152 -28 -335 -52 -457 -8
-40 -15 -82 -15 -92 0 -19 35 -19 1709 -19 l1709 0 7 28 c12 49 45 92 70 92
24 0 84 -64 72 -76 -3 -3 -12 3 -19 15 -13 21 -48 30 -48 12 0 -5 -9 -11 -20
-14 -14 -3 -20 -14 -20 -31 l0 -26 109 0 108 0 7 40 c3 22 16 60 28 85 25 51
56 60 82 23 22 -31 20 -45 -3 -24 -19 17 -20 17 -36 -7 -16 -25 -35 -81 -35
-104 0 -9 21 -13 71 -13 66 0 71 1 66 20 -7 27 12 25 22 -2 8 -20 10 -18 16
20 10 58 25 63 25 8 l0 -46 40 0 c36 0 40 3 40 24 0 29 15 42 24 20 3 -9 2
-12 -5 -8 -6 3 -5 -3 3 -15 7 -12 23 -21 35 -21 19 0 23 6 23 30 0 25 4 30 25
30 23 0 25 4 25 44 l0 45 -45 7 c-42 6 -49 11 -80 59 -36 58 -33 57 -160 59
-75 1 -80 0 -92 -24 -15 -31 -48 -28 -75 6 -10 13 -34 26 -54 30 -42 8 -51 21
-30 42 15 15 16 15 16 0 0 -24 21 -28 145 -28 l113 0 6 31 c3 17 1 39 -4 49
-16 30 -13 63 6 56 9 -3 24 -6 35 -6 12 0 21 -10 27 -32 10 -40 38 -45 34 -7
-4 40 24 45 37 7 11 -30 12 -30 30 -14 11 10 17 24 14 32 -9 23 13 16 25 -9 8
-16 11 -18 11 -5 1 17 40 30 76 25 21 -4 54 -79 55 -126 0 -19 -4 -22 -22 -17
-13 3 -26 6 -30 6 -5 0 -9 21 -10 48 l-1 47 -4 -43 c-3 -34 -8 -42 -19 -38
-12 5 -14 -1 -11 -27 3 -31 5 -32 48 -29 l44 3 0 -63 c1 -71 22 -115 58 -120
17 -2 23 -11 25 -36 l3 -32 170 0 169 0 -6 43 c-4 23 -15 61 -25 84 -10 24
-23 62 -29 85 -6 24 -19 62 -28 85 -15 37 -21 42 -52 45 -33 3 -35 5 -48 63
-7 33 -16 71 -19 84 -4 17 -2 22 6 17 6 -4 11 -1 11 8 0 29 69 -52 76 -89 l6
-35 59 0 c33 0 62 -1 67 -2 10 -4 11 47 0 124 -10 74 1 112 30 106 17 -4 19
-15 6 -56 -6 -20 -4 -22 17 -14 13 5 30 7 37 5 7 -3 12 4 12 17 0 18 5 21 33
19 34 -3 61 7 53 20 -3 4 -22 8 -43 9 -34 1 -55 15 -65 42 -2 4 -34 11 -73 15
l-70 7 2 -74 c2 -61 1 -70 -10 -54 -6 11 -20 28 -31 39 -15 16 -17 28 -11 73
3 30 11 52 16 49 5 -4 9 8 9 24 0 17 -4 31 -10 31 -5 0 -10 5 -10 10 0 6 7 10
16 8 10 -2 19 3 21 10 3 8 -3 11 -17 10 -18 -3 -25 5 -36 42 -16 53 -12 70 16
70 11 0 20 7 20 15 0 20 54 20 74 -1 18 -18 21 -40 6 -49 -20 -12 -9 -26 18
-23 21 2 28 9 30 30 2 16 9 28 17 28 7 0 16 7 19 16 9 22 7 31 -2 16 -5 -7
-16 -10 -26 -6 -12 4 -14 10 -6 19 5 6 7 14 4 17 -7 8 45 20 56 13 13 -8 13
-35 -1 -35 -6 0 -9 -8 -7 -17 3 -17 58 -38 58 -22 0 5 11 9 25 9 14 0 25 4 25
8 0 5 -13 8 -30 7 -32 -2 -44 4 -47 22 -2 7 6 13 17 13 11 0 20 -4 20 -10 0
-5 5 -10 10 -10 6 0 10 7 10 15 0 8 -4 15 -9 15 -5 0 -11 7 -15 15 -4 11 2 15
25 15 29 0 31 -2 27 -30 -4 -28 -2 -30 28 -30 26 0 33 5 38 25 4 16 13 25 26
25 14 0 20 7 20 23 0 17 -9 26 -33 35 -44 16 -49 15 -46 -6 1 -9 -1 -25 -6
-35 -6 -13 -10 -15 -21 -6 -10 8 -11 16 -3 30 7 14 6 19 -2 19 -6 0 -9 8 -6
19 3 13 0 18 -8 15 -7 -3 -10 -15 -7 -30 4 -20 1 -23 -14 -17 -13 5 -16 3 -11
-10 5 -12 1 -17 -13 -17 -13 0 -22 9 -26 27 -4 16 -15 36 -24 45 -18 17 -36
100 -25 117 3 5 1 13 -5 16 -6 4 -10 3 -9 -2 3 -20 -2 -24 -17 -12 -18 15 -54
20 -54 7 0 -4 5 -8 11 -8 5 0 7 -5 4 -10 -5 -8 -11 -7 -21 1 -10 8 -11 16 -3
31 6 11 8 29 5 40 -2 11 1 27 9 34 15 16 39 19 30 5 -3 -5 8 -16 25 -25 17 -8
28 -10 24 -5 -3 5 -1 16 5 23 8 10 7 17 -6 27 -15 12 -16 12 -10 -4 4 -11 2
-17 -7 -17 -8 0 -16 13 -18 30 -3 22 -1 30 11 30 10 0 5 7 -13 19 -23 16 -33
17 -47 8 -24 -15 -24 -27 0 -27 10 0 21 -7 25 -15 3 -9 0 -15 -9 -15 -18 0
-47 -29 -40 -41 11 -16 -32 -9 -55 9 -23 19 -70 19 -70 0 0 -5 -4 -6 -10 -3
-5 3 -10 -1 -10 -9 0 -9 -4 -16 -10 -16 -5 0 -10 6 -10 14 0 19 -48 34 -85 27
l-29 -6 27 -18 c14 -9 33 -17 40 -17 8 0 20 -7 27 -15 7 -8 21 -15 32 -15 18
0 20 -5 16 -49 -4 -45 -3 -48 11 -34 14 14 18 12 47 -21 17 -20 37 -36 45 -36
10 1 9 4 -3 11 -10 5 -18 17 -18 26 0 13 3 14 12 5 7 -7 20 -12 29 -12 10 0
27 -12 38 -28 12 -15 26 -33 31 -39 7 -8 7 -13 1 -13 -5 0 -13 4 -16 10 -3 5
-17 -2 -30 -18 -20 -22 -24 -24 -25 -9 0 9 6 17 13 17 8 0 14 7 14 15 0 22 -9
18 -36 -16 l-24 -30 -28 27 c-30 29 -41 56 -14 34 17 -14 31 -8 20 9 -3 6 -20
11 -36 11 -25 0 -33 6 -42 31 -8 21 -17 29 -29 25 -10 -2 -18 0 -18 6 0 5 -4
7 -9 3 -5 -3 -13 0 -16 5 -4 6 -19 10 -33 8 -23 -3 -27 0 -24 21 1 17 -2 22
-12 18 -8 -3 -20 0 -26 8 -19 23 -79 29 -101 9 -18 -16 -20 -16 -42 4 -31 29
-38 28 -35 -5 2 -23 7 -28 31 -30 47 -4 81 -43 37 -43 -11 0 -23 7 -26 15 -7
17 -34 21 -34 5 0 -6 6 -13 14 -16 8 -3 17 -13 21 -22 3 -9 3 -13 -1 -9 -4 3
-15 -3 -25 -15 -14 -16 -22 -18 -32 -9 -8 6 -18 7 -22 3 -5 -4 -5 -2 -2 4 4 6
-2 19 -13 29 -25 22 -25 34 -2 42 9 4 23 12 30 19 14 15 16 44 2 44 -5 0 -10
-6 -10 -14 0 -8 -5 -18 -12 -22 -6 -4 -8 -3 -4 4 3 6 -1 15 -11 20 -14 9 -15
13 -4 26 14 17 5 21 -18 7 -8 -5 -11 -16 -6 -30 8 -28 -18 -28 -45 -1 -28 28
-64 35 -84 15 -19 -20 -20 -31 -3 -42 15 -10 50 -63 41 -63 -4 0 -12 7 -18 15
-12 16 -66 28 -66 15 0 -5 -3 -15 -6 -24 -4 -10 7 -21 35 -36 23 -11 41 -24
41 -28 0 -4 15 -6 34 -4 18 2 36 0 39 -5 3 -4 -13 -7 -36 -7 -25 1 -47 -5 -57
-14 -14 -14 -15 -14 -18 6 -4 29 -20 28 -28 -2 -11 -45 24 -64 48 -26 15 24
24 25 44 6 18 -18 18 -34 1 -38 -9 -2 -3 -12 16 -27 28 -23 29 -23 18 -4 -9
17 -8 25 5 37 14 14 18 14 37 1 12 -8 25 -15 29 -15 14 0 8 28 -7 34 -8 3 -12
12 -9 21 3 8 2 15 -4 15 -6 0 -13 -6 -15 -12 -3 -7 -6 -1 -6 15 -1 27 -1 27
24 11 20 -13 25 -14 26 -3 1 8 4 3 8 -11 4 -15 15 -26 28 -28 17 -3 24 4 32
30 9 31 9 31 10 6 1 -35 11 -58 23 -58 7 0 6 5 -1 14 -9 11 -7 15 9 19 20 5
45 51 41 74 -3 21 10 15 33 -14 29 -37 35 -55 25 -75 -7 -13 -4 -21 11 -30 30
-19 24 -28 -12 -22 -23 4 -29 3 -19 -4 23 -16 6 -44 -23 -36 -23 6 -24 4 -19
-35 4 -27 2 -41 -5 -41 -6 0 -9 -7 -6 -15 7 -17 -11 -21 -21 -5 -3 6 -17 10
-31 10 -14 0 -22 4 -19 10 3 5 1 10 -5 10 -7 0 -10 -6 -7 -12 2 -7 0 -21 -5
-32 -7 -13 -6 -21 3 -26 15 -10 18 -44 9 -130 -4 -36 -5 -71 -2 -77 6 -18 32
-16 32 3 0 8 -4 12 -10 9 -5 -3 -10 1 -10 9 0 9 5 16 10 16 6 0 10 14 10 31 0
29 2 30 30 24 24 -5 31 -3 37 12 15 42 43 38 43 -7 0 -16 5 -32 10 -35 6 -4 8
-10 5 -15 -3 -5 11 -14 31 -20 37 -12 37 -13 14 -25 -22 -12 -22 -13 -4 -26
11 -8 30 -31 44 -51 13 -20 27 -35 31 -32 4 2 5 -5 2 -16 -4 -15 -9 -18 -18
-10 -10 8 -18 4 -34 -15 -11 -15 -25 -24 -31 -20 -7 4 -8 11 -2 18 15 18 3 77
-14 70 -7 -3 -34 6 -59 20 -40 23 -44 23 -35 6 6 -10 15 -19 20 -19 6 0 10 -4
10 -10 0 -14 -16 -12 -32 3 -18 18 -55 27 -55 13 1 -63 -14 -71 -61 -31 -17
14 -39 25 -50 25 -12 0 -37 9 -56 21 -28 17 -36 27 -36 51 0 25 -6 32 -46 49
-25 12 -48 18 -52 15 -7 -8 -42 24 -42 38 0 6 -7 19 -14 29 -13 16 -14 14 -9
-25 7 -51 55 -130 86 -140 l22 -6 -22 -1 c-13 -1 -23 -6 -23 -12 0 -7 11 -9
28 -6 15 2 36 1 47 -3 14 -6 16 -9 5 -10 -63 -8 -75 -8 -86 1 -8 7 -14 7 -19
-1 -3 -5 -26 -10 -51 -10 -37 0 -44 3 -44 20 0 11 4 20 10 20 5 0 9 -6 7 -13
-1 -7 10 -13 28 -15 25 -2 27 -1 12 8 -9 6 -15 15 -12 21 6 9 -1 11 -50 13
-25 1 -32 7 -39 33 -6 17 -18 34 -28 36 -13 4 -18 15 -18 42 0 24 4 34 11 29
8 -4 9 1 4 16 -4 13 -9 37 -11 54 -2 17 -7 45 -10 61 -4 23 -3 26 5 15 6 -8
11 -21 11 -29 0 -8 13 -36 30 -62 16 -27 25 -49 20 -49 -18 0 -10 -19 10 -25
12 -4 20 -15 20 -29 0 -23 45 -74 52 -59 3 4 0 32 -5 60 -7 46 -12 53 -31 53
-19 0 -25 7 -30 38 -3 20 -17 60 -30 87 -13 28 -21 54 -19 59 3 4 18 -20 33
-55 15 -35 35 -77 44 -94 13 -25 16 -26 16 -9 0 25 -26 119 -45 159 -14 30
-11 50 6 40 5 -4 9 1 9 9 0 34 -22 169 -31 189 -8 20 -9 19 -6 -6 4 -24 1 -27
-24 -27 -24 0 -31 7 -48 46 -12 25 -25 62 -31 83 -6 20 -21 56 -33 81 -22 42
-26 45 -70 48 -42 3 -47 1 -47 -18 0 -11 13 -55 29 -98 16 -42 31 -85 35 -95
4 -12 16 -17 39 -17 19 0 39 -6 44 -13 9 -11 33 -126 33 -156 0 -7 -25 -11
-71 -11 -79 0 -78 3 -39 -85 9 -22 27 -64 38 -92 l20 -53 -479 0 -479 0 -4 22
c-3 13 -7 48 -9 78 -3 35 -18 83 -40 128 l-34 72 51 0 c48 0 118 -5 401 -29
66 -5 163 -12 215 -15 52 -4 131 -9 176 -12 l81 -7 6 59 c3 33 9 69 12 80 5
15 1 23 -12 28 -10 4 -121 21 -248 37 -126 17 -264 34 -305 40 -41 5 -93 11
-115 13 -89 8 -331 37 -346 42 -18 5 -29 27 -70 137 -33 88 -35 101 -15 94 10
-4 12 0 9 14 -3 12 0 19 8 20 8 1 3 5 -11 9 l-25 8 25 1 c21 1 22 3 8 11 -27
16 -49 2 -42 -29 l6 -26 -14 25 c-12 22 -12 27 1 37 14 10 13 11 -5 7 -12 -3
-25 -1 -28 5 -10 16 31 14 141 -9 109 -23 195 -39 358 -69 61 -11 151 -30 200
-41 119 -27 225 -43 234 -35 7 8 8 13 10 65 1 34 4 40 24 41 12 1 -5 7 -38 15
-446 100 -547 125 -559 136 -7 8 -17 29 -21 46 -3 18 -13 45 -20 60 -30 60
-115 262 -115 271 0 6 -4 11 -9 11 -5 0 -15 17 -22 37 -6 20 -36 84 -65 143
-29 58 -62 128 -73 155 -12 28 -26 57 -31 65 -16 26 -40 82 -40 94 1 6 12 -10
26 -37 28 -53 33 -58 27 -22 -3 13 0 38 5 55 6 17 7 28 3 25 -5 -2 -14 2 -20
9 -14 17 2 32 21 20 7 -4 8 -3 4 4 -12 19 35 14 79 -8 21 -11 54 -25 74 -31
68 -23 281 -134 336 -176 29 -23 66 -7 79 34 6 19 0 24 -48 42 -31 11 -64 25
-73 30 -19 10 -61 29 -125 55 -39 16 -48 30 -24 39 8 3 13 -1 12 -10 -1 -9 18
-22 49 -34 82 -31 89 -33 79 -18 -5 8 -10 25 -12 39 -7 53 -23 98 -37 104 -8
3 -15 1 -15 -4 0 -6 -4 -10 -10 -10 -5 0 -10 5 -10 11 0 12 -25 39 -35 39 -4
0 -5 -6 -2 -14 6 -15 -16 -30 -27 -19 -3 4 -6 17 -6 30 0 14 -4 21 -10 18 -5
-3 -10 -2 -10 3 0 5 -21 18 -47 28 -27 11 -51 21 -55 22 -5 2 -8 -1 -8 -7 0
-6 7 -11 15 -11 8 0 15 -4 15 -10 0 -16 -37 -12 -44 5 -3 8 -10 15 -16 15 -19
0 -55 44 -51 64 2 17 -2 18 -51 13 -29 -4 -111 -12 -183 -18 l-130 -11 -108
51 c-60 28 -110 51 -112 51 -4 0 -75 32 -193 87 -29 14 -56 22 -59 19 -4 -3 1
-6 10 -6 9 0 17 -4 17 -10 0 -12 -16 -13 -39 -1 -11 6 -42 4 -86 -5 -103 -21
-107 -23 -103 -47 2 -17 9 -21 28 -18 28 4 53 9 60 11 3 1 9 2 13 1 4 -1 17 3
28 9 14 8 29 7 57 -5 76 -33 99 -47 99 -58 0 -7 1 -21 2 -32 2 -20 2 -20 16
-1 15 19 15 19 15 -1 0 -23 21 -34 70 -35 31 -1 40 -12 18 -22 -7 -3 -4 -4 7
-3 12 2 19 10 19 20 -1 9 4 17 12 17 26 0 94 -35 94 -48 0 -7 6 -15 13 -18 10
-4 13 -19 9 -55 -4 -39 -2 -49 9 -47 11 2 13 -9 11 -49 -2 -29 1 -58 7 -65 6
-7 20 -24 31 -38 l19 -25 1 33 c0 17 -4 32 -10 32 -5 0 -9 33 -8 75 0 41 -4
81 -10 87 -7 9 -6 19 4 32 13 19 14 19 34 1 11 -10 16 -21 12 -24 -5 -3 4 -37
21 -76 16 -38 32 -86 34 -107 3 -20 14 -46 24 -57 10 -11 22 -44 27 -73 5 -38
12 -54 25 -56 13 -3 17 3 17 25 l1 28 14 -25 c14 -24 20 -17 16 20 -4 28 39
-50 150 -277 61 -126 114 -237 119 -248 4 -11 22 -51 39 -89 17 -37 31 -74 31
-81 0 -8 9 -17 21 -20 11 -4 19 -9 16 -11 -2 -3 -58 7 -123 21 -66 14 -123 25
-127 25 -5 0 -7 -26 -5 -57 l3 -58 -108 2 c-121 3 -118 5 -81 -69 8 -15 15
-30 15 -33 0 -2 15 -37 33 -77 18 -40 41 -92 51 -115 11 -24 22 -43 27 -43 4
0 8 -17 8 -37 0 -21 7 -51 15 -67 8 -15 15 -51 15 -78 0 -42 -2 -49 -17 -44
-10 3 -49 6 -86 7 -37 1 -69 5 -72 9 -2 3 -1 32 2 62 4 44 10 57 24 61 15 4
19 14 19 46 0 45 8 41 -117 62 -66 11 -73 14 -73 36 0 12 5 23 10 23 6 0 10 8
9 18 0 10 -3 12 -6 5 -2 -7 -8 -13 -12 -13 -11 0 -44 99 -37 115 3 8 1 15 -3
15 -5 0 -15 23 -22 50 -7 27 -16 50 -21 50 -4 0 -8 9 -8 20 0 11 -4 20 -10 20
-5 0 -10 -13 -10 -29 0 -17 -4 -33 -10 -36 -18 -11 -10 -26 10 -20 19 6 20 3
15 -27 -3 -18 -10 -37 -16 -43 -14 -14 -11 -25 6 -25 17 0 21 -55 5 -65 -15
-9 -12 -25 5 -25 22 0 20 -66 -2 -75 -16 -6 -15 -8 5 -16 25 -9 31 -56 10 -78
-11 -10 -10 -14 5 -22 20 -12 24 -65 5 -71 -9 -3 -8 -9 5 -22 18 -18 23 -61 8
-70 -16 -10 -18 -56 -4 -73 12 -16 13 -14 7 16 -4 23 -3 31 5 27 15 -10 14
-56 -4 -89 -15 -28 -10 -62 7 -51 5 3 7 12 4 20 -3 8 0 14 6 14 13 0 2 -78
-13 -97 -6 -6 -7 -18 -3 -24 5 -9 10 -7 15 7 7 18 7 18 15 0 4 -11 2 -27 -5
-38 -10 -16 -9 -23 3 -37 18 -20 21 -42 7 -56 -15 -16 -24 -75 -12 -75 6 0 11
8 11 18 1 16 1 16 11 -1 7 -12 7 -22 1 -30 -15 -18 -26 -87 -14 -87 6 0 12 8
15 17 4 17 4 17 12 0 4 -10 1 -31 -9 -51 -9 -19 -16 -39 -16 -45 0 -6 -6 -11
-14 -11 -9 0 -12 8 -8 25 2 14 8 25 13 25 5 0 9 5 9 10 0 6 -10 8 -22 5 -40
-8 -539 -37 -545 -31 -13 13 9 16 188 26 101 5 223 13 270 16 l87 6 5 41 c3
23 1 47 -5 54 -6 7 -8 29 -5 48 3 20 1 37 -5 41 -6 4 -8 25 -5 50 5 48 0 61
-17 40 -9 -12 -141 -15 -791 -21 l-781 -7 -12 123 c-7 68 -23 176 -36 239 -13
63 -22 117 -20 119 3 3 92 -2 200 -10 107 -8 204 -11 215 -7 10 4 19 3 19 -1
0 -5 55 -12 123 -16 67 -3 199 -13 292 -21 94 -7 242 -18 330 -24 88 -5 183
-12 210 -14 28 -3 94 -8 148 -11 73 -5 97 -10 97 -21 0 -8 5 -14 10 -14 14 0
13 11 -4 29 -20 24 -37 79 -25 86 5 4 9 -1 9 -9 0 -9 5 -16 10 -16 15 0 12 11
-10 45 -11 17 -20 41 -20 55 0 19 2 22 10 10 5 -8 12 -11 16 -7 4 4 -2 17 -14
30 -12 13 -22 31 -22 40 0 22 -25 34 -85 41 -72 8 -93 15 -98 37 -5 18 -27 27
-27 12 0 -5 -4 -15 -9 -22 -8 -12 -13 -11 -31 10 -21 24 -21 24 -17 2 4 -18 1
-23 -14 -23 -10 0 -19 4 -19 8 0 4 -28 8 -62 8 -61 0 -137 7 -393 39 -66 8
-212 26 -325 40 -113 13 -261 31 -330 39 -69 9 -153 18 -186 22 l-61 6 -12 72
c-12 73 -18 96 -69 274 -28 97 -29 102 -10 102 11 0 16 5 13 10 -4 6 -15 8
-26 5 -13 -5 -19 -2 -19 10 0 11 6 15 18 11 9 -3 69 -15 132 -26 109 -20 172
-32 425 -79 61 -12 117 -24 125 -27 8 -4 30 -8 48 -10 29 -3 310 -55 557 -104
258 -51 396 -71 408 -58 17 19 13 79 -7 111 -12 17 -16 36 -12 52 4 15 2 25
-4 25 -18 0 -35 48 -22 63 8 10 6 16 -9 25 -10 7 -19 19 -19 27 0 8 -4 23 -10
33 -25 44 -58 132 -47 127 7 -4 5 -1 -4 7 -8 7 -26 37 -40 67 -20 44 -146 298
-199 401 -19 37 -33 38 -26 3 3 -16 13 -93 22 -173 9 -80 22 -190 29 -245 7
-55 11 -103 9 -106 -2 -3 -38 -9 -81 -13 -42 -4 -80 -9 -85 -12 -4 -3 6 -26
22 -52 16 -26 26 -50 22 -53 -4 -3 -26 -4 -49 -1 l-42 4 -91 168 c-49 92 -90
173 -90 178 0 6 -9 12 -21 14 -15 2 -27 17 -39 48 -9 25 -31 74 -47 110 -39
84 -44 100 -33 100 6 0 10 55 10 135 0 80 -4 135 -10 135 -5 0 -7 7 -4 15 4 8
10 15 15 15 5 0 9 -7 9 -15 0 -8 5 -15 10 -15 14 0 13 24 -6 164 -13 96 -14
130 -5 164 6 23 11 56 11 72 0 21 5 30 16 30 12 0 14 -4 7 -12 -6 -9 -5 -43 3
-98 7 -47 14 -103 15 -125 2 -36 3 -35 8 15 l6 55 9 -62 c4 -35 12 -61 16 -58
4 3 4 21 0 40 -7 32 3 51 13 23 2 -9 16 -5 43 15 22 15 44 27 50 27 5 0 2 -5
-6 -10 -13 -8 -12 -10 3 -10 9 0 17 -6 17 -12 0 -8 7 -4 15 6 10 13 18 17 25
10 6 -6 36 -7 78 -3 37 4 70 5 75 2 4 -2 7 -21 7 -43 0 -40 11 -50 56 -50 l24
0 -18 37 c-13 27 -14 37 -4 40 6 3 12 9 12 14 0 4 -6 6 -14 3 -16 -6 -136 46
-136 59 0 4 9 3 19 -3 11 -5 30 -10 43 -10 13 0 28 -4 33 -9 6 -5 23 -11 40
-13 21 -2 34 -11 43 -30 9 -19 21 -28 36 -28 13 0 34 -8 47 -18 34 -25 93 -44
115 -36 14 4 16 3 5 -4 -11 -8 -10 -12 5 -20 11 -6 36 -13 57 -17 33 -7 37 -5
37 14 0 12 5 19 10 16 6 -3 11 -1 11 4 1 6 3 16 4 21 1 6 3 18 4 28 2 15 3 15
12 -3 36 -79 43 -113 24 -117 -10 -2 -5 -7 12 -16 15 -6 22 -7 16 -1 -5 5 -8
21 -5 34 4 21 8 24 31 19 39 -10 65 -25 54 -33 -6 -3 -10 -14 -10 -23 0 -14
10 -16 71 -12 84 6 177 25 156 32 -8 3 -17 8 -20 11 -14 17 -100 52 -111 46
-7 -5 -10 -4 -6 1 8 14 -4 30 -30 38 -17 5 -25 1 -39 -23 -14 -24 -21 -28 -36
-20 -10 5 -18 15 -18 22 0 7 -20 34 -44 61 -34 38 -49 48 -65 43 -11 -3 -19
-1 -16 3 3 5 1 11 -5 15 -5 3 -10 1 -10 -4 0 -6 -4 -11 -10 -11 -5 0 -10 7
-10 16 0 10 -6 14 -15 10 -9 -3 -15 0 -15 9 0 8 -6 15 -14 15 -8 0 -21 6 -28
13 -22 20 -121 66 -131 60 -5 -3 -3 -9 4 -14 10 -6 8 -9 -8 -9 -23 0 -43 20
-21 21 7 0 3 4 -9 9 -13 5 -23 14 -23 19 0 6 -6 8 -14 5 -7 -3 -16 3 -20 13
-6 15 -8 15 -16 3 -8 -13 -10 -12 -10 3 0 9 -6 17 -14 17 -8 0 -16 4 -18 8 -1
5 -67 40 -146 79 -132 65 -142 72 -127 87 20 20 11 36 -21 36 -26 0 -33 -17
-9 -26 8 -4 13 -10 10 -14 -7 -11 -65 9 -65 21 0 5 -3 8 -7 7 -10 -2 -41 10
-75 28 -16 8 -28 12 -28 7 0 -4 -5 0 -11 10 -5 9 -16 17 -23 17 -8 0 -19 7
-26 15 -7 9 -19 14 -27 11 -8 -3 -12 -2 -9 3 3 5 -6 12 -22 16 -25 7 -25 8 -7
15 14 6 3 10 -43 15 -34 4 -61 9 -60 10 2 1 23 5 48 9 31 4 40 3 30 -4 -12 -8
-11 -10 6 -10 36 0 84 12 79 20 -3 4 6 10 20 12 44 9 35 -18 -12 -31 -31 -10
-41 -16 -31 -22 18 -12 31 -11 23 1 -3 6 -2 10 4 10 5 0 13 -4 16 -10 9 -15
22 -12 43 10 19 21 18 47 -3 118 -12 37 -23 25 -18 -18 l6 -41 -26 12 c-21 10
-42 9 -104 -4 -43 -10 -107 -21 -143 -26 -36 -5 -105 -16 -155 -24 -49 -9
-126 -21 -170 -27 l-80 -12 -83 41 c-45 23 -86 41 -91 41 -4 0 -16 9 -25 19
-13 15 -14 20 -4 25 7 3 3 3 -9 0 -13 -3 -44 4 -70 16 l-48 21 25 14 c30 17
24 19 -17 5 -23 -8 -36 -7 -59 5 -16 8 -22 15 -13 15 8 0 21 -6 28 -12 10 -11
11 -10 6 5 -4 9 -13 17 -21 17 -8 0 -14 5 -14 10 0 6 7 10 15 10 9 0 15 9 15
21 0 19 4 21 31 15 17 -3 35 -6 39 -6 4 0 11 -11 14 -25 4 -14 13 -25 21 -25
8 0 15 -7 15 -15 0 -24 95 -16 115 10 12 17 14 17 9 2 -6 -15 -3 -16 22 -7 16
6 39 9 51 5 22 -5 30 4 16 19 -4 3 -12 22 -19 41 -8 26 -9 35 0 35 15 0 -166
99 -182 100 -7 0 -20 7 -28 15 -9 8 -25 15 -36 15 -12 0 -29 6 -37 13 -9 8
-32 20 -51 27 -19 8 -52 26 -73 41 -21 16 -44 26 -51 23 -8 -3 -16 2 -19 10
-4 9 -18 16 -32 16 -14 0 -25 5 -25 11 0 5 4 8 9 4 6 -3 18 19 27 50 10 30 22
55 26 55 5 0 24 12 43 26 l34 25 11 -21 c7 -12 9 -33 6 -46 -5 -18 -3 -22 9
-18 24 10 17 -13 -11 -35 -24 -19 -25 -22 -10 -37 20 -20 46 -3 46 30 0 25 10
41 30 49 11 4 10 6 -4 6 -14 1 -16 4 -7 15 8 10 8 21 1 41 -6 15 -7 31 -4 37
4 6 12 31 18 56 10 36 18 48 37 52 13 3 24 13 24 21 0 9 19 35 43 59 23 24 42
51 42 61 0 10 5 21 10 24 6 3 10 14 10 23 0 9 11 27 24 41 17 18 25 40 28 70
3 40 1 45 -22 52 -16 4 -19 7 -7 8 25 1 21 27 -9 54 -16 15 -22 27 -15 31 12
8 -6 56 -21 56 -4 0 -8 21 -9 48 0 51 -17 108 -18 64 -1 -34 -21 -16 -21 18 0
16 -5 32 -10 35 -7 5 -9 -11 -5 -47z m165 -1867 c0 -22 4 -41 9 -43 6 -1 13
-36 16 -76 6 -78 19 -122 34 -122 5 0 12 -10 14 -22 2 -13 5 -4 6 20 0 23 5
42 10 42 12 0 22 -111 15 -178 -5 -43 -2 -67 11 -97 10 -22 21 -60 25 -85 7
-40 8 -35 10 40 2 52 5 68 7 43 4 -42 5 -43 39 -43 33 0 34 -1 34 -40 0 -36
-2 -40 -25 -40 -22 0 -25 -4 -25 -40 0 -22 5 -40 10 -40 6 0 10 -18 10 -40 0
-29 4 -40 15 -40 8 0 15 -7 15 -15 0 -11 -11 -15 -39 -15 -37 0 -40 -2 -43
-32 -5 -52 -24 -43 -44 19 -9 32 -20 63 -24 68 -4 6 -21 57 -40 115 -18 58
-39 119 -46 137 -8 17 -14 35 -14 40 0 14 -50 165 -66 200 -8 17 -13 35 -12
40 1 4 -5 22 -14 38 -17 32 -33 95 -25 95 3 0 11 -17 18 -37 17 -54 31 -70 40
-46 11 28 10 113 -1 113 -5 0 -10 8 -10 18 1 16 1 16 14 0 7 -10 18 -18 25
-18 6 0 11 -17 11 -42 0 -23 3 -39 6 -36 3 3 5 40 6 82 0 58 3 76 14 76 10 0
14 -12 14 -39z m809 -941 c34 -63 75 -142 92 -174 22 -43 26 -57 15 -53 -9 4
-16 3 -16 -1 0 -4 14 -13 32 -20 17 -6 29 -14 27 -17 -5 -5 -199 37 -594 129
-214 49 -208 47 -196 59 6 6 37 3 93 -12 46 -11 103 -25 128 -30 25 -5 85 -19
135 -30 49 -12 98 -18 110 -15 16 4 17 3 5 -5 -12 -8 -9 -11 15 -10 17 0 24 3
17 6 -6 2 -10 9 -6 14 3 5 -3 9 -12 9 -12 0 -6 9 19 28 34 25 36 30 38 87 0
33 4 71 9 85 6 22 8 23 15 8 4 -10 14 -18 22 -18 12 0 12 3 -1 22 -9 12 -16
30 -16 40 0 10 -4 18 -10 18 -5 0 -10 5 -10 12 0 25 30 -19 89 -132z m1222
-1246 c35 -6 36 -8 107 -164 40 -86 72 -162 72 -169 0 -8 -38 -11 -125 -11
-119 0 -125 1 -136 23 -9 18 -9 20 2 10 24 -23 28 -14 13 29 -11 32 -12 43 -2
49 9 6 8 16 -5 44 -22 47 -21 56 3 25 19 -24 19 -23 -1 30 -11 30 -22 74 -23
98 -2 41 -1 42 28 42 17 0 47 -3 67 -6z m251 -45 c10 -17 22 -28 28 -24 5 3
22 -20 36 -52 65 -144 97 -209 108 -215 6 -4 23 -8 39 -8 25 0 27 -3 27 -44 0
-41 2 -45 28 -48 25 -3 28 -8 36 -61 l8 -58 117 6 c64 3 221 13 349 21 292 18
292 18 292 -1 0 -8 -5 -15 -11 -15 -5 0 -7 -5 -4 -11 5 -6 12 -4 20 8 7 10 11
21 9 25 -7 11 43 9 95 -3 37 -8 46 -7 53 6 14 23 41 19 33 -5 -4 -11 -2 -20 4
-20 6 0 11 -5 11 -11 0 -5 -4 -7 -10 -4 -5 3 -10 2 -10 -4 0 -5 5 -13 10 -16
6 -3 10 -16 9 -28 0 -21 -1 -21 -9 -2 -7 16 -9 17 -9 3 -1 -10 -13 -19 -33
-23 -18 -4 -39 -12 -45 -17 -9 -7 -13 -7 -13 1 0 6 -9 11 -20 11 -11 0 -20 -5
-20 -10 0 -6 -20 -8 -55 -4 -36 5 -55 3 -55 -4 0 -7 -19 -9 -55 -5 -36 4 -55
2 -55 -5 0 -6 -9 -9 -20 -7 -22 4 -61 -26 -41 -33 14 -5 15 -29 1 -37 -6 -3
-7 1 -4 9 4 9 1 16 -6 16 -8 0 -10 8 -7 21 6 24 -17 37 -37 20 -10 -8 -33 -9
-82 -1 -85 12 -84 12 -84 1 0 -5 6 -8 14 -7 8 0 15 -3 15 -9 0 -5 -8 -9 -17
-7 -36 6 -106 1 -117 -8 -7 -5 -14 -7 -18 -4 -3 3 -15 3 -28 -1 -17 -6 -19 -9
-8 -16 10 -6 6 -9 -14 -9 -16 0 -26 4 -22 9 3 6 -3 14 -12 20 -12 7 -13 10 -4
11 8 0 11 7 8 19 -2 10 0 26 6 36 9 16 6 17 -26 11 -20 -4 -46 -2 -61 5 -30
14 -36 44 -7 36 10 -2 25 0 32 5 10 6 -2 8 -33 5 -26 -2 -45 -1 -42 4 3 5 -2
6 -10 3 -12 -4 -16 0 -17 17 -1 17 -3 19 -6 7 -3 -14 -15 -18 -54 -18 -27 0
-49 -3 -49 -7 1 -21 22 -36 56 -42 48 -8 55 -27 10 -27 -22 0 -32 4 -28 11 3
5 -2 4 -11 -4 -18 -14 -16 -16 -32 34 -2 8 -12 15 -22 15 -16 0 -18 11 -15
126 l3 126 -28 -6 c-41 -9 -49 2 -57 74 -7 58 -56 200 -77 225 -14 15 -10 25
9 25 9 0 25 -14 34 -31z m-707 -732 l-1 -52 -39 -3 c-21 -2 -44 -10 -50 -19
-11 -14 -12 -14 -18 1 -4 10 -18 16 -40 16 l-34 0 1 48 1 47 78 1 c43 1 81 4
84 8 14 14 18 4 18 -47z"/>
<path d="M10956 4412 c-7 -11 31 -52 48 -52 17 0 29 -14 19 -24 -3 -3 -12 -1
-19 5 -10 9 -15 7 -20 -5 -3 -9 -4 -22 -1 -30 4 -10 -4 -14 -31 -14 -57 -1
-72 6 -72 36 l0 26 -17 -23 c-15 -22 -15 -25 0 -36 23 -17 21 -25 -5 -22 -18
1 -24 -4 -26 -23 -2 -15 0 -20 5 -13 15 21 64 20 87 -3 24 -23 20 -42 -8 -37
-13 3 -27 0 -30 -6 -5 -7 -1 -8 10 -4 13 5 16 3 11 -10 -3 -9 -3 -17 1 -17 5
0 18 -9 30 -20 20 -19 22 -19 23 -3 0 14 2 13 9 -4 5 -13 15 -23 21 -23 7 0 9
3 6 6 -3 4 -2 15 4 26 13 25 3 55 -22 63 -13 4 -18 12 -15 21 3 8 2 13 -3 10
-11 -7 -48 21 -39 30 4 4 14 2 21 -5 8 -6 21 -9 30 -5 8 3 18 1 22 -5 10 -17
28 -13 21 4 -7 20 -4 19 24 -5 26 -22 82 -28 78 -7 -2 6 -12 15 -23 18 -18 6
-18 7 8 17 15 6 27 18 27 26 0 26 -34 57 -66 59 -27 2 -30 5 -23 19 14 27 11
30 -16 12 -22 -14 -25 -14 -25 -1 0 15 -37 31 -44 19z"/>
<path d="M10283 4195 c8 -18 -9 -30 -19 -13 -5 7 -10 4 -16 -11 -7 -20 -10
-21 -25 -10 -14 12 -15 11 -9 -9 6 -19 4 -22 -18 -22 -14 0 -26 -4 -26 -10 0
-5 11 -10 25 -10 23 0 24 -2 15 -20 -6 -11 -15 -18 -21 -15 -5 4 -9 1 -9 -4 0
-6 -7 -11 -15 -11 -14 0 -13 -3 2 -24 17 -23 18 -23 34 -5 22 25 27 24 21 -6
-2 -14 -9 -25 -15 -25 -7 0 -7 -4 1 -12 7 -7 12 -20 12 -29 0 -9 7 -20 16 -23
14 -5 16 2 13 56 -3 46 -1 62 10 66 10 3 12 -1 9 -16 -4 -15 0 -23 12 -27 22
-7 32 -39 17 -54 -8 -8 -8 -11 0 -11 6 0 14 -11 17 -25 4 -14 11 -25 16 -25
13 0 13 17 1 25 -6 3 -8 15 -6 26 2 11 0 31 -5 44 -5 14 -6 24 -2 24 4 -1 14
-1 22 0 13 1 13 2 0 11 -9 6 -11 10 -3 10 7 0 10 7 7 15 -4 8 2 27 11 42 13
20 15 28 6 31 -7 2 -17 15 -22 29 -8 22 -11 23 -26 12 -15 -12 -16 -12 -10 4
3 9 2 17 -4 17 -6 0 -7 5 -4 10 3 6 1 10 -5 10 -7 0 -10 -7 -7 -15z"/>
<path d="M12049 3443 c-1 -5 -1 -11 0 -15 1 -11 -40 -31 -47 -23 -4 3 0 10 8
15 11 7 12 10 2 10 -32 0 -47 -33 -47 -101 l0 -68 47 2 c53 2 57 0 60 -36 1
-14 6 -23 10 -21 5 3 5 11 1 17 -4 8 -2 8 9 -1 9 -7 18 -26 22 -42 4 -23 10
-28 23 -24 11 4 14 3 7 -3 -6 -4 -14 -25 -17 -45 -4 -29 -3 -36 9 -31 8 3 14
12 14 19 0 8 11 19 25 24 27 10 34 40 9 40 -8 0 -12 5 -9 10 3 6 15 10 25 10
10 0 22 5 26 12 5 8 2 9 -10 5 -13 -5 -17 -3 -13 6 4 10 -3 14 -24 13 -22 -1
-29 -6 -29 -21 0 -17 -2 -17 -17 5 -9 14 -21 28 -26 31 -5 4 -7 19 -3 33 5 19
2 28 -10 33 -8 3 -12 9 -7 12 5 3 17 19 27 34 17 28 17 29 -3 51 -12 12 -21
27 -21 33 0 6 -7 14 -16 17 -20 8 -24 8 -25 -1z"/>
<path d="M12240 3201 c0 -11 -4 -23 -10 -26 -14 -9 -12 -45 3 -45 6 0 -4 -10
-23 -23 -19 -12 -36 -21 -39 -19 -7 6 -31 -50 -31 -72 0 -11 5 -28 10 -36 8
-12 10 -11 10 8 0 13 6 22 16 22 10 0 14 -6 10 -15 -7 -19 13 -19 37 -1 16 12
24 12 53 0 31 -13 34 -13 36 3 5 57 4 89 -3 98 -4 6 -9 24 -11 40 -1 17 -9 36
-15 43 -7 7 -13 20 -13 28 0 8 -7 14 -15 14 -8 0 -15 -9 -15 -19z"/>
<path d="M11455 2633 c4 -10 12 -31 17 -48 24 -70 50 -117 68 -122 23 -6 35
-50 19 -69 -7 -8 -8 -18 -4 -22 4 -4 10 -1 12 6 3 6 9 12 15 12 7 0 9 -19 6
-50 -3 -27 -1 -50 3 -50 5 0 9 6 10 13 1 6 5 -5 10 -27 6 -26 6 -43 -1 -51 -8
-9 -8 -15 0 -20 5 -3 10 1 10 10 0 9 5 13 11 9 8 -4 10 -26 6 -60 -3 -31 -2
-54 4 -54 5 0 9 10 9 23 1 21 1 21 11 3 7 -10 9 -39 6 -65 -3 -26 -2 -37 2
-26 8 19 8 19 19 -2 15 -27 15 -66 1 -80 -8 -8 -8 -13 0 -17 6 -4 11 -2 11 3
0 6 5 11 11 11 8 0 10 -18 7 -55 -3 -30 -1 -55 4 -55 4 0 8 9 8 20 0 11 4 20
9 20 10 0 -4 49 -70 260 -21 69 -50 163 -65 210 -14 47 -31 96 -39 110 -7 14
-18 51 -24 83 -15 80 -26 97 -62 97 -26 0 -30 -3 -24 -17z"/>
<path d="M13797 2603 c4 -27 2 -43 -5 -43 -6 0 -13 6 -15 13 -3 6 -6 2 -6 -10
-1 -13 -6 -23 -12 -23 -6 0 -4 -7 4 -15 19 -18 11 -56 -9 -48 -8 3 -21 -3 -28
-13 -12 -16 -16 -17 -32 -4 -18 14 -18 13 0 -8 21 -24 47 -22 79 6 15 14 17
13 17 -4 0 -10 -7 -28 -15 -38 -8 -11 -15 -16 -15 -12 0 4 -7 0 -15 -8 -9 -9
-25 -22 -37 -30 -18 -13 -19 -18 -8 -31 7 -8 24 -15 37 -15 16 0 27 -7 30 -19
3 -13 11 -17 24 -14 11 3 19 0 19 -7 0 -7 7 -10 15 -7 18 7 30 -9 14 -19 -9
-5 -7 -11 6 -21 18 -12 18 -13 -3 -13 -28 0 -29 -27 -2 -32 25 -4 31 -20 10
-24 -8 -2 -27 -6 -42 -10 -18 -4 -28 -2 -28 5 0 6 12 11 27 11 24 0 25 1 10
18 -10 11 -14 26 -10 40 5 21 4 22 -21 11 -20 -10 -29 -10 -38 -1 -9 9 -7 12
8 13 14 0 12 3 -8 11 -16 5 -28 17 -28 26 0 21 -34 44 -55 36 -10 -4 -15 0
-15 10 0 10 -8 16 -22 15 -13 0 -17 -3 -10 -6 6 -2 12 -9 12 -14 0 -15 -29 2
-35 22 -4 10 -15 19 -26 19 -17 0 -18 -3 -9 -20 6 -12 22 -26 35 -32 28 -12
39 -34 23 -44 -6 -4 -8 -3 -4 4 3 6 1 14 -5 17 -7 5 -10 0 -7 -11 2 -13 10
-18 26 -16 12 2 22 -2 22 -7 0 -16 21 -13 42 6 17 15 18 15 18 0 0 -10 -6 -17
-14 -17 -8 0 -16 -5 -18 -12 -2 -6 -19 -11 -36 -11 -23 0 -31 -4 -28 -13 3 -8
1 -16 -4 -19 -6 -4 -10 1 -10 9 0 9 -4 16 -9 16 -5 0 -8 -8 -6 -17 2 -10 4
-23 4 -30 1 -6 12 -10 26 -8 20 2 24 -1 20 -14 -3 -11 7 -29 25 -47 l29 -31
-44 7 c-25 4 -45 4 -45 0 0 -13 48 -40 69 -40 11 0 22 -4 25 -8 10 -17 -51 -3
-98 23 -27 14 -51 24 -53 21 -8 -8 7 -26 22 -26 15 0 28 -27 20 -41 -4 -5 0
-6 8 -3 9 3 22 -4 31 -18 24 -34 19 -41 -12 -18 -23 17 -33 19 -55 11 -23 -9
-27 -8 -27 7 0 12 -3 13 -8 5 -6 -9 -18 -5 -43 17 l-36 29 4 -27 c3 -23 1 -21
-10 8 -11 27 -20 35 -40 35 -14 0 -29 3 -33 8 -11 11 -44 9 -44 -3 0 -5 7 -10
15 -10 8 0 15 -6 15 -14 0 -17 27 -30 58 -27 20 2 22 -2 23 -41 0 -24 3 -37 6
-31 3 10 10 10 25 2 11 -6 22 -9 24 -6 7 7 -7 37 -17 37 -5 0 -9 5 -9 10 0 18
19 10 25 -11 4 -12 10 -17 14 -11 4 6 21 3 49 -10 41 -20 42 -22 42 -68 0 -27
5 -61 11 -77 10 -27 11 -27 25 -9 8 11 15 16 15 10 1 -5 5 7 9 26 l7 35 3 -45
c2 -25 3 -53 2 -62 -1 -10 7 -18 21 -20 16 -2 23 -11 25 -31 5 -38 22 -23 22
19 0 34 0 34 25 18 40 -26 51 -11 16 23 -36 36 -36 39 -16 59 8 9 15 11 15 6
0 -5 17 -8 39 -8 28 1 37 5 33 15 -3 9 1 12 14 9 11 -2 19 -12 19 -23 0 -32
47 -32 62 0 6 14 7 27 2 31 -14 8 -10 24 6 24 8 0 15 -9 15 -20 0 -11 5 -20
11 -20 7 0 9 10 5 25 -4 14 -2 25 4 25 5 0 10 -6 10 -14 0 -8 5 -18 11 -22 8
-5 10 4 7 30 -5 42 2 45 36 11 19 -19 21 -26 12 -34 -7 -6 -16 -8 -19 -4 -4 3
-9 -2 -13 -11 -3 -9 -10 -13 -15 -10 -5 3 -9 1 -9 -4 0 -12 46 -32 55 -24 4 4
11 8 16 8 5 1 13 2 18 3 5 0 7 9 4 20 -3 12 2 20 16 24 16 4 21 0 21 -15 0
-12 8 -26 17 -33 14 -10 20 -9 37 6 11 11 28 19 38 19 10 0 17 3 17 8 -4 22 3
34 15 29 10 -4 13 -1 9 9 -7 18 -5 19 -47 -21 -21 -19 -40 -35 -44 -34 -11 0
-49 52 -56 77 -6 18 -4 22 15 22 12 0 19 3 16 7 -4 3 -2 12 4 19 8 10 5 16
-15 25 -14 7 -23 16 -20 20 3 5 -6 9 -19 9 -20 0 -24 -4 -20 -21 4 -12 11 -18
20 -15 18 7 30 -24 13 -34 -20 -12 -35 -3 -47 31 -7 18 -16 28 -23 24 -8 -5
-5 -12 7 -22 17 -14 17 -14 -1 -9 -10 4 -24 2 -31 -4 -7 -6 -17 -10 -21 -9
-19 3 -48 -3 -36 -8 19 -8 14 -30 -9 -36 -13 -3 -22 0 -26 10 -5 12 -7 12 -14
2 -6 -10 -9 -9 -15 4 -9 24 0 31 25 18 17 -9 20 -9 15 3 -3 8 -13 17 -22 20
-9 3 -23 9 -31 12 -9 4 -11 2 -7 -5 4 -6 0 -11 -9 -11 -14 0 -16 -6 -10 -27 5
-23 4 -26 -6 -15 -7 6 -21 12 -31 12 -16 0 -17 3 -7 22 7 12 12 31 13 42 1 11
7 21 14 24 7 2 10 -2 6 -12 -4 -10 -1 -16 9 -16 9 0 17 10 19 22 2 13 11 24
21 26 10 2 17 0 16 -5 -1 -4 0 -11 1 -15 1 -5 3 -13 4 -20 2 -20 23 -19 29 2
7 28 34 25 44 -5 6 -18 12 -22 23 -15 12 7 12 12 2 22 -19 19 -14 28 18 28 31
0 43 20 13 20 -14 1 -12 4 7 16 14 8 18 13 8 10 -22 -6 -30 4 -17 21 13 15 33
18 24 3 -3 -5 1 -10 9 -10 25 0 28 18 6 40 -24 24 -25 30 -4 30 15 0 15 2 2
23 -16 23 -45 30 -40 10 3 -16 -1 -16 -49 -1 -22 6 -41 19 -44 30 -9 26 -24
22 -17 -4 5 -20 2 -20 -20 7 l-26 30 29 6 c17 4 33 10 37 14 4 4 -8 4 -25 0
-27 -5 -33 -4 -33 10 0 14 6 16 29 12 29 -6 29 -6 17 25 -10 27 -11 28 -14 9
-5 -32 -28 -19 -24 13 2 16 -3 29 -13 32 -8 3 -13 10 -10 14 6 10 -21 21 -29
13 -3 -4 -6 -17 -6 -30 0 -24 -15 -31 -23 -10 -4 9 -6 9 -6 -1 -2 -29 -21 1
-21 33 0 26 5 35 21 40 12 4 24 3 28 -1 10 -14 44 -15 69 -2 28 15 29 28 0 20
-14 -3 -19 -1 -14 6 5 8 -5 11 -35 8 -24 -3 -37 -1 -31 3 7 4 10 15 6 25 -6
16 -4 17 16 6 16 -9 25 -9 33 -1 8 8 6 11 -6 11 -9 0 -17 8 -17 18 -1 14 -5
12 -24 -10 -33 -37 -42 -5 -21 67 3 11 -1 29 -9 40 -13 18 -14 17 -9 -22z"/>
<path d="M11916 2443 c4 -63 3 -72 -10 -67 -19 7 -19 6 -4 -54 9 -37 13 -42
19 -26 7 18 8 18 8 -3 1 -12 5 -23 9 -25 5 -1 7 -20 4 -40 -5 -46 -22 -40 -22
8 0 19 -5 34 -11 34 -18 0 -5 -97 15 -119 10 -11 20 -38 23 -60 6 -43 33 -59
33 -19 0 40 -41 322 -55 383 l-14 60 5 -72z"/>
<path d="M12860 2436 c0 -36 21 -52 87 -65 94 -19 103 -31 201 -266 16 -40 26
-51 47 -53 17 -2 26 1 24 10 -4 30 2 58 12 58 7 0 8 -11 4 -30 -5 -23 -3 -30
9 -31 9 -1 23 -2 33 -3 9 0 17 7 19 17 4 29 12 32 50 18 40 -14 53 -9 34 14
-7 9 -15 13 -18 11 -2 -3 -11 2 -20 10 -10 11 -18 12 -25 5 -23 -23 -35 -10
-42 42 -11 85 -12 87 -56 87 -33 0 -41 4 -52 28 -6 15 -16 30 -22 34 -48 32
-49 35 -14 34 19 0 66 4 104 8 39 4 112 10 163 13 51 3 92 10 92 15 0 7 -22 8
-57 5 -32 -3 -133 -11 -224 -18 l-165 -13 -68 29 c-38 16 -79 37 -92 48 -24
18 -24 18 -24 -7z"/>
<path d="M10073 2003 c-7 -2 -13 -9 -13 -15 0 -7 4 -7 13 0 14 12 57 5 57 -8
0 -5 -6 -11 -12 -14 -7 -3 1 -3 17 0 24 5 27 3 15 -6 -12 -9 -11 -10 6 -6 19
6 28 1 81 -44 7 -5 27 -10 45 -10 18 0 52 -11 76 -25 44 -25 46 -24 45 23 -1
17 39 25 95 19 32 -4 39 -3 22 3 -14 4 -39 8 -55 9 -17 1 -35 5 -41 11 -5 5
-41 14 -81 20 -39 5 -81 14 -94 19 -13 4 -49 12 -79 15 -30 4 -62 9 -70 11 -8
2 -21 1 -27 -2z"/>
<path d="M13826 1731 c-4 -6 -2 -11 3 -11 6 0 11 -4 11 -10 0 -5 -7 -10 -15
-10 -8 0 -15 -7 -15 -16 0 -8 -5 -12 -10 -9 -10 6 -40 -17 -40 -30 0 -4 12 -4
26 -1 23 6 25 4 19 -14 -4 -13 -1 -28 8 -38 9 -9 19 -32 24 -51 5 -19 14 -36
21 -37 7 -1 8 0 2 3 -5 2 -10 15 -10 28 0 19 5 23 23 21 13 -1 27 -5 33 -8 5
-4 16 -2 24 3 12 7 13 11 2 17 -7 5 -19 20 -26 33 -18 34 2 53 28 27 22 -20
35 -16 17 5 -6 8 -9 21 -5 30 4 11 1 14 -13 11 -12 -3 -23 5 -36 27 -14 25
-20 29 -31 20 -11 -10 -16 -8 -24 5 -6 11 -11 13 -16 5z"/>
<path d="M13681 1625 c0 -31 4 -53 8 -50 17 10 41 -7 41 -31 0 -44 -30 -46
-153 -12 -27 7 -45 17 -40 21 4 5 -1 5 -11 1 -15 -6 -17 -14 -13 -45 4 -30 2
-39 -10 -39 -9 0 -13 -8 -11 -22 3 -22 7 -23 88 -23 60 0 84 3 83 12 -2 6 6
14 15 18 10 3 31 19 47 35 23 24 29 38 27 67 -3 43 -12 60 -22 43 -4 -7 -12 7
-19 34 -15 62 -29 58 -30 -9z"/>
<path d="M14220 1641 c0 -4 11 -20 25 -35 30 -33 31 -36 5 -29 -11 3 -20 0
-20 -6 0 -6 6 -11 13 -11 8 0 7 -3 -3 -10 -12 -7 -11 -10 5 -15 11 -4 28 -11
38 -16 12 -7 17 -5 17 5 0 9 7 12 20 9 19 -5 19 -7 5 -23 -19 -21 -19 -27 5
-52 16 -17 22 -19 34 -9 16 14 56 6 68 -13 4 -6 9 -8 12 -5 3 3 0 14 -8 24
-10 14 -24 19 -49 17 -20 -1 -38 1 -41 6 -2 4 21 9 51 9 40 1 59 6 65 17 5 9
14 13 20 10 7 -5 8 -2 3 7 -20 35 -39 48 -60 43 -25 -6 -79 23 -101 55 -8 11
-21 21 -27 21 -7 0 -6 -4 3 -10 10 -7 11 -10 2 -10 -7 0 -15 7 -18 15 -6 16
-64 22 -64 6z"/>
<path d="M12460 1510 c0 -24 5 -40 12 -40 6 0 8 -3 5 -7 -9 -9 52 -45 64 -38
5 4 9 16 10 28 1 21 1 21 9 2 4 -11 10 -30 15 -42 4 -13 11 -23 16 -23 5 0 9
-8 9 -18 0 -19 18 -42 32 -42 4 0 8 31 8 69 0 38 3 71 8 74 4 2 2 2 -5 1 -7
-2 -15 1 -18 6 -4 6 4 11 17 11 20 1 19 3 -7 10 -26 7 -24 8 13 4 24 -2 41 -1
38 3 -7 7 -113 24 -145 23 -12 -1 -28 2 -35 6 -33 21 -46 13 -46 -27z"/>
<path d="M15698 1233 c6 -2 12 -11 12 -19 0 -8 10 -14 26 -14 20 0 25 -4 20
-16 -4 -9 -2 -13 5 -8 8 4 9 -1 4 -15 -5 -15 -2 -21 9 -21 9 0 16 -6 16 -14 0
-8 5 -16 11 -18 5 -2 7 -11 3 -21 -4 -12 -10 -15 -19 -7 -6 5 -15 6 -19 2 -5
-4 -6 4 -4 17 2 14 -4 28 -14 34 -25 16 -34 0 -13 -23 10 -11 13 -20 7 -20
-16 0 -52 41 -46 52 3 4 1 8 -5 8 -5 0 -17 3 -25 6 -12 5 -15 2 -9 -11 5 -15
2 -17 -21 -11 -30 7 -44 -11 -31 -41 5 -10 7 -28 6 -40 -1 -13 3 -23 9 -23 7
0 9 7 6 16 -6 15 29 62 39 52 3 -3 1 -17 -4 -32 -9 -23 -8 -25 11 -23 12 2 25
12 29 23 4 10 8 17 9 14 7 -24 7 -41 -1 -46 -14 -8 -11 -24 4 -20 34 11 77 15
72 7 -3 -5 -1 -12 4 -15 5 -4 13 -1 16 5 4 6 18 8 34 3 47 -12 89 -11 84 3 -3
7 2 13 10 13 8 0 17 -6 20 -12 2 -7 8 -10 12 -6 4 4 2 14 -5 23 -14 17 0 21
16 5 19 -19 2 53 -17 73 -10 11 -16 23 -14 27 3 5 -2 11 -11 14 -9 4 -14 13
-10 21 4 11 -3 19 -19 25 -14 5 -28 17 -31 25 -4 8 -11 15 -16 15 -6 0 -5 -7
2 -15 17 -20 5 -32 -15 -15 -9 8 -15 8 -15 2 0 -6 5 -14 10 -17 6 -3 10 -13
10 -22 0 -13 -2 -13 -17 -2 -9 8 -24 13 -35 11 -10 -2 -21 4 -24 12 -3 9 -14
16 -24 16 -10 0 -23 7 -30 15 -7 8 -18 15 -24 14 -7 0 -6 -2 2 -6z"/>
<path d="M13670 1003 c0 -42 13 -94 21 -82 4 7 16 -17 31 -62 23 -73 23 -74
55 -71 l32 3 -19 49 c-12 31 -17 61 -13 83 3 20 1 37 -6 41 -6 4 -11 15 -11
24 0 14 2 14 14 2 24 -26 77 -137 81 -170 5 -45 38 -160 46 -160 14 0 11 20
-20 163 -17 72 -31 144 -33 159 -5 37 -13 43 -16 11 -4 -45 -24 -45 -25 -1 0
21 -4 23 -68 26 -61 3 -69 1 -69 -15z"/>
</g>
</svg>
