<?xml version="1.0" standalone="no"?>
<!DOCTYPE svg PUBLIC "-//W3C//DTD SVG 20010904//EN"
 "http://www.w3.org/TR/2001/REC-SVG-20010904/DTD/svg10.dtd">
<svg version="1.0" xmlns="http://www.w3.org/2000/svg"
 width="720.000000pt" height="480.000000pt" viewBox="0 0 720.000000 480.000000"
 preserveAspectRatio="xMidYMid meet">
<metadata>
Created by potrace 1.16, written by Peter Selinger 2001-2019
</metadata>
<g transform="translate(0.000000,480.000000) scale(0.100000,-0.100000)"
fill="#000000" stroke="none">
<path d="M0 4771 c0 -21 6 -30 23 -34 12 -3 40 -12 62 -20 23 -9 91 -17 160
-20 90 -4 133 -10 173 -26 29 -12 57 -19 61 -16 5 2 23 -2 40 -11 24 -12 35
-13 46 -4 16 14 60 7 173 -26 46 -14 92 -34 102 -44 11 -11 25 -20 31 -20 7 0
27 -9 45 -21 19 -11 34 -18 34 -15 0 3 23 -3 50 -14 28 -11 66 -20 85 -20 19
0 35 -4 35 -10 0 -5 13 -10 28 -10 16 0 32 -3 35 -6 4 -4 19 -8 34 -10 65 -6
113 -15 188 -35 44 -11 121 -30 170 -40 50 -11 102 -22 117 -25 15 -4 25 -10
22 -15 -3 -5 6 -9 20 -9 18 0 26 5 26 18 1 13 5 11 21 -10 21 -29 48 -28 50 1
0 10 2 11 6 4 2 -7 15 -13 28 -13 13 0 27 -4 30 -10 3 -5 15 -10 26 -10 19 0
25 -2 84 -32 24 -13 64 -15 212 -13 168 3 183 2 188 -14 3 -10 3 -24 0 -32 -3
-9 7 -20 27 -29 l33 -15 -32 -3 c-34 -3 -48 -32 -16 -32 9 0 14 -3 10 -6 -9
-9 -107 38 -107 51 0 6 -21 16 -48 24 -26 7 -56 17 -67 21 -37 17 -59 16 -63
-2 -5 -26 20 -47 67 -54 23 -4 41 -10 41 -15 0 -24 125 -58 220 -59 53 -1 119
-18 78 -19 -10 -1 -18 -6 -18 -12 0 -5 10 -9 23 -7 14 2 22 -2 22 -12 0 -9 -7
-14 -18 -12 -18 3 -39 -34 -30 -53 2 -5 -2 -2 -10 8 -16 19 -105 37 -182 36
-56 0 -29 -13 73 -34 49 -11 79 -22 74 -27 -5 -5 -19 -5 -33 1 -13 5 -85 21
-159 36 -168 31 -322 66 -317 71 2 2 62 -7 133 -21 150 -29 141 -28 128 -15
-5 5 -30 14 -54 19 -86 17 -206 39 -280 50 -41 7 -88 17 -105 23 -16 6 -50 14
-75 18 -25 5 -70 16 -100 25 -30 8 -82 18 -115 21 -33 3 -82 12 -110 19 -27 8
-86 21 -130 29 -44 8 -114 23 -155 34 -41 12 -104 24 -140 27 -36 4 -101 14
-145 22 -79 15 -93 18 -210 47 -33 8 -90 21 -127 29 -37 8 -70 17 -75 20 -7 5
-74 16 -196 33 -16 2 -43 10 -60 18 -46 20 -66 26 -115 36 -40 7 -43 6 -40
-13 2 -13 13 -24 28 -28 l25 -7 -27 -1 -28 -1 0 -458 0 -458 83 -11 c45 -7
127 -19 182 -27 55 -8 152 -19 215 -26 63 -7 118 -14 121 -16 4 -2 -4 -25 -17
-51 -13 -27 -33 -82 -45 -123 -17 -64 -34 -118 -57 -190 -3 -11 -6 -11 -9 -2
-3 6 -11 12 -19 12 -8 0 -14 4 -14 8 0 8 -95 14 -270 17 -121 2 -180 16 -149
36 11 7 10 9 -3 9 -15 0 -18 -10 -18 -65 l0 -66 58 6 c31 3 125 2 209 -2 83
-5 149 -5 146 0 -2 4 1 7 6 7 6 0 11 -4 11 -9 0 -6 9 -8 20 -6 24 5 24 7 1
-74 -11 -36 -22 -83 -26 -104 -3 -21 -33 -79 -67 -130 -56 -85 -59 -95 -53
-132 4 -22 8 -50 8 -62 1 -11 4 -20 7 -18 3 2 5 -14 5 -35 0 -21 -3 -36 -7
-34 -5 3 -8 14 -8 25 0 28 -29 35 -177 44 l-133 7 0 -56 0 -56 133 -1 c72 -1
136 -1 140 0 4 1 7 -20 5 -46 l-3 -48 -137 3 -138 3 0 -1160 0 -1161 3600 0
3600 0 0 451 c0 264 -4 448 -9 445 -5 -3 -19 -23 -31 -43 -22 -37 -22 -38 -1
-19 38 34 35 8 -4 -40 -38 -47 -89 -84 -113 -84 -17 0 -77 59 -68 67 3 4 12 1
18 -5 7 -7 26 -12 42 -11 l31 1 -33 14 c-31 14 -38 39 -7 28 14 -6 158 130
163 155 1 7 5 34 8 59 l6 47 -26 -27 c-30 -34 -34 -34 -45 -5 -9 21 -9 21 -16
-8 -4 -16 -16 -38 -26 -48 -18 -17 -19 -16 -19 42 0 33 -5 63 -11 67 -6 3 -22
-6 -35 -21 -21 -24 -24 -26 -25 -9 0 18 -1 18 -9 -1 -7 -16 -9 -14 -9 14 -1
46 29 152 41 145 5 -3 14 8 21 25 6 17 15 31 19 31 5 0 -6 -27 -23 -61 -16
-34 -28 -64 -25 -67 3 -3 6 0 6 7 0 7 4 9 10 6 6 -3 10 -2 10 4 0 5 15 24 32
42 20 19 28 34 21 36 -8 3 -6 16 9 44 11 21 24 42 29 45 15 9 59 -29 53 -46
-4 -8 -10 -30 -14 -48 -7 -26 -5 -34 11 -43 18 -9 19 -3 19 169 0 155 -2 179
-16 179 -17 0 -43 -34 -85 -111 -16 -28 -29 -47 -29 -43 0 15 63 132 96 180
l34 47 0 461 0 462 -87 -8 c-49 -4 -178 -9 -288 -11 -110 -2 -220 -8 -245 -13
-25 -6 -76 -13 -114 -16 -38 -4 -85 -13 -105 -20 -52 -18 -193 -29 -381 -30
-91 0 -195 -4 -232 -9 l-68 -9 0 25 c0 22 -4 25 -27 21 -16 -3 -37 -8 -48 -12
-11 -5 -59 -20 -106 -35 -47 -14 -115 -44 -152 -66 l-67 -41 -55 16 c-30 9
-64 13 -76 10 -23 -8 -103 -15 -164 -16 -22 0 -57 -5 -78 -10 -43 -11 -159
-64 -197 -90 -35 -24 -80 -33 -80 -16 0 7 -7 22 -15 33 -13 17 -14 16 -5 -16
11 -40 10 -42 -53 -74 -39 -19 -55 -22 -85 -15 -22 5 -41 4 -46 -1 -15 -15
-26 -12 -26 5 0 8 -7 15 -16 15 -9 0 -14 6 -12 13 3 7 26 13 56 15 29 2 52 7
52 13 0 5 -11 7 -25 3 -26 -6 -55 9 -55 30 0 12 92 50 149 61 23 5 36 3 42 -6
6 -10 9 -5 9 14 0 19 4 26 12 21 7 -5 8 -3 4 5 -5 7 -11 10 -14 6 -3 -3 -17
11 -29 32 -21 33 -23 35 -17 11 5 -25 3 -28 -18 -28 -13 0 -29 -5 -36 -12 -7
-7 -12 -8 -12 -4 0 5 -6 4 -12 -1 -12 -10 -56 -23 -88 -28 -15 -2 -155 -57
-187 -74 -30 -15 -66 -29 -106 -41 -30 -10 -41 -9 -50 0 -9 10 -9 14 0 17 7 2
10 10 7 17 -3 7 15 18 48 28 92 28 284 125 302 153 11 16 12 25 5 25 -7 0 26
39 72 87 47 49 99 109 118 135 l33 46 277 4 c295 4 315 7 347 56 l16 25 -33
-25 c-19 -14 -43 -28 -54 -32 -23 -9 -644 -9 -750 0 -97 7 -123 13 -105 24 8
5 21 5 31 -1 25 -13 83 -5 87 12 4 17 114 89 137 89 9 0 19 9 22 20 3 12 14
20 27 21 11 0 30 5 41 10 17 8 15 8 -7 4 -16 -3 -28 -1 -28 5 0 5 14 10 30 10
17 0 30 5 30 11 0 7 -21 10 -60 7 -33 -1 -61 0 -63 4 -1 5 -47 9 -102 11 -55
2 -105 6 -110 9 -6 3 -44 9 -85 13 -41 4 -94 14 -118 22 -24 8 -53 13 -65 11
-14 -3 1 -9 38 -18 39 -9 52 -15 37 -18 -12 -2 -48 4 -80 14 -31 10 -63 16
-71 15 -7 -1 -10 2 -7 7 3 5 -14 9 -37 10 -158 7 -232 13 -240 21 -6 6 11 8
49 6 l59 -4 -50 8 c-27 4 -77 6 -111 3 -67 -5 -231 15 -240 29 -3 5 -24 9 -47
9 -51 1 -294 38 -254 39 19 1 27 6 27 19 0 13 -19 23 -78 40 -43 13 -93 25
-113 27 -42 4 -131 44 -124 55 3 5 -5 11 -17 13 -17 3 -14 5 10 6 21 0 31 5
27 12 -4 6 -13 8 -20 5 -8 -3 -15 -1 -17 4 -2 5 -25 14 -53 21 -82 19 -108 31
-93 40 19 12 3 11 -26 -2 -20 -9 -32 -8 -68 9 -24 11 -65 24 -93 28 -27 3 -58
11 -67 15 -9 5 -54 16 -100 25 -46 8 -96 19 -113 24 -163 47 -175 49 -155 25
19 -23 6 -28 -39 -14 -28 8 -40 17 -37 26 4 9 -3 13 -19 13 -14 0 -25 5 -25
11 0 6 -7 9 -15 5 -8 -3 -15 -1 -15 4 0 11 -48 25 -140 40 -41 6 -104 18 -140
25 -38 8 -66 10 -68 4 -2 -5 -9 -6 -14 -3 -6 4 -26 7 -45 6 -18 -1 -33 2 -33
7 0 5 -9 11 -21 14 -17 5 -20 2 -16 -13 3 -11 2 -19 -2 -18 -3 0 -13 0 -21 -1
-23 -2 17 -29 62 -41 44 -12 60 -44 32 -65 -17 -12 -16 -14 16 -29 l35 -15
-55 3 c-63 5 -241 70 -313 116 -44 28 -46 31 -35 52 7 13 17 26 21 29 4 3 3
18 -4 32 -9 20 -9 36 -1 64 6 21 14 61 19 88 l8 50 60 7 c33 4 116 7 185 6 73
0 144 4 170 11 70 19 755 28 815 10 25 -7 45 -16 45 -20 0 -12 -144 -25 -540
-49 -91 -6 -182 -13 -202 -16 -45 -7 -158 -77 -158 -98 0 -18 58 -36 118 -36
24 0 73 -4 110 -9 37 -5 114 -15 172 -21 58 -7 139 -20 180 -30 41 -10 100
-21 130 -24 l55 -6 -33 15 c-18 9 -60 18 -93 22 -33 3 -62 10 -66 16 -8 12 43
5 194 -29 61 -13 140 -27 175 -29 35 -2 75 -8 89 -13 13 -5 46 -13 73 -16 42
-7 48 -5 43 8 -5 13 3 14 61 10 76 -7 197 -29 237 -44 14 -5 43 -10 63 -10 39
-1 163 -22 197 -34 11 -4 -6 6 -39 23 -32 16 -66 37 -75 46 -15 16 -13 17 39
11 30 -3 66 -9 80 -12 21 -6 23 -4 13 7 -7 7 -37 16 -65 20 -54 7 -242 72
-313 108 -61 31 -14 26 85 -10 113 -40 998 -336 1175 -393 196 -62 365 -111
539 -157 82 -21 151 -40 153 -42 5 -6 -786 -19 -1027 -17 -118 1 -213 -1 -210
-4 3 -2 59 -5 125 -6 66 -1 188 -6 270 -12 83 -5 218 -11 300 -12 172 -2 507
-31 609 -52 77 -16 103 -12 35 6 -86 21 -88 29 -10 29 41 1 72 3 69 6 -3 3
-34 12 -69 19 -45 10 -59 16 -46 21 19 8 158 -23 282 -63 61 -20 101 -26 167
-26 80 0 90 2 138 32 55 34 60 36 60 24 0 -4 -13 -16 -30 -25 -16 -10 -35 -27
-41 -39 -8 -16 -8 -19 1 -13 7 4 16 2 20 -5 6 -10 17 -6 45 18 19 18 39 32 44
32 10 0 46 -39 40 -44 -11 -10 -85 -46 -95 -46 -18 0 -51 -33 -105 -106 -46
-63 -49 -69 -33 -81 12 -8 13 -13 5 -13 -8 0 -11 -8 -8 -19 3 -12 -1 -22 -9
-25 -13 -5 -12 -9 1 -30 11 -16 12 -26 6 -31 -14 -8 -10 -54 6 -67 18 -15 156
-4 212 16 29 11 47 13 51 6 10 -16 99 19 116 45 8 12 12 29 9 36 -13 34 76 79
156 79 26 0 123 -27 164 -45 50 -22 106 -35 201 -45 142 -17 229 12 260 85
l13 32 113 8 c62 4 199 11 303 15 l190 7 -150 1 c-82 0 -217 -3 -300 -7 -101
-6 -154 -5 -163 2 -10 8 -16 7 -21 -2 -6 -10 -21 -8 -67 8 l-59 21 63 -5 c40
-4 62 -2 62 5 0 5 -5 10 -11 10 -7 0 -8 11 -4 30 6 27 4 30 -17 30 -13 0 -30
5 -38 11 -12 8 -11 9 6 4 16 -4 26 1 37 19 15 22 14 25 -6 43 -26 24 -121 69
-232 111 -44 17 -87 33 -95 36 -8 3 -3 4 12 2 15 -1 25 0 23 4 -3 5 -32 11
-65 15 -50 6 -67 3 -106 -15 -48 -24 -108 -94 -119 -140 -9 -37 -34 -72 -46
-64 -6 3 -8 23 -5 45 3 21 9 58 12 80 7 49 -10 46 -21 -3 -6 -29 -8 -31 -15
-13 -6 14 -9 15 -10 5 -1 -9 -5 -5 -11 9 -6 16 -6 28 0 34 5 5 7 15 4 22 -2 8
9 38 26 69 31 55 39 82 21 71 -16 -10 -121 -203 -135 -248 l-13 -42 -6 35 c-3
19 -7 49 -8 65 -4 42 -23 37 -56 -12 l-28 -43 -39 40 c-36 36 -40 55 -13 55 6
0 13 6 16 14 3 9 0 11 -9 7 -8 -4 -2 3 12 16 14 13 28 32 32 42 4 10 12 14 19
10 7 -5 9 -2 6 7 -6 15 54 117 87 151 10 10 14 22 9 30 -4 7 -4 10 1 6 10 -10
57 61 49 74 -4 6 -2 8 4 5 9 -7 82 81 82 98 0 5 11 23 25 41 14 18 25 37 25
43 0 5 6 14 13 18 25 16 87 94 82 103 -3 5 17 33 44 62 27 29 70 76 96 105
l47 52 -39 -5 c-21 -3 -56 -15 -78 -26 l-40 -20 35 31 c32 28 52 38 104 55 10
4 17 9 14 12 -9 9 -91 -28 -141 -63 -31 -22 -53 -31 -60 -25 -18 13 -96 36
-102 30 -3 -3 19 -13 50 -22 49 -16 54 -20 44 -37 -20 -37 -4 -41 -434 110
-59 21 -130 45 -200 67 -27 9 -59 20 -70 25 -11 5 -51 17 -90 28 -38 11 -149
43 -245 71 -465 136 -1078 286 -1096 267 -2 -2 35 -12 83 -22 49 -10 113 -27
143 -37 l55 -18 -43 5 c-53 7 -48 -11 6 -20 20 -4 45 -9 55 -12 9 -2 17 0 17
6 0 6 -7 11 -17 11 -9 0 -14 2 -11 5 3 3 25 1 49 -4 133 -30 183 -43 231 -60
29 -10 70 -21 92 -25 66 -12 32 -17 -40 -5 -38 6 -77 10 -86 10 -10 0 -17 3
-15 7 3 9 -7 12 -37 12 -15 0 -37 -13 -53 -30 -31 -33 -90 -49 -198 -54 -33
-2 -74 -10 -92 -19 -18 -10 -49 -17 -70 -16 -21 0 -32 3 -25 6 30 12 8 20 -30
11 -24 -6 -50 -10 -58 -9 -8 0 -49 1 -91 0 -41 0 -87 4 -100 10 -27 10 -67 -5
-41 -16 18 -7 15 -33 -4 -33 -9 0 -18 9 -21 20 -7 26 -23 26 -30 1 -3 -11 -12
-22 -22 -24 -11 -3 -9 -5 7 -6 12 0 22 -5 22 -10 0 -12 -58 -46 -93 -55 -15
-3 -27 -13 -27 -21 0 -19 24 -19 40 0 16 19 40 19 40 0 0 -17 34 -37 57 -33 9
2 18 -3 20 -9 3 -7 0 -13 -5 -13 -5 0 -7 -11 -4 -25 2 -14 10 -25 18 -25 8 0
5 -9 -10 -25 -13 -14 -30 -25 -38 -25 -20 0 -38 -20 -38 -42 0 -15 4 -17 19
-9 10 6 21 7 25 4 4 -4 29 -8 57 -10 54 -3 94 11 83 29 -17 26 81 39 131 16
19 -9 31 -8 53 2 15 8 38 15 52 16 14 1 19 0 13 -3 -7 -2 -13 -11 -13 -18 0
-8 -6 -20 -13 -27 -7 -7 -21 -26 -31 -42 -14 -23 -20 -26 -28 -15 -8 11 -8 10
-4 -5 4 -10 -2 -32 -14 -51 -20 -33 -21 -33 -83 -28 -34 2 -83 11 -109 19 -26
8 -64 14 -85 14 -22 0 -48 7 -59 15 -14 11 -52 14 -160 15 -85 0 -144 4 -151
11 -15 15 -99 7 -95 -8 1 -7 -5 -13 -13 -13 -8 0 -23 -9 -32 -20 -21 -24 -39
-25 -87 -5 -37 16 -48 7 -21 -15 9 -7 13 -15 11 -17 -5 -6 -147 140 -144 146
2 2 -10 9 -27 14 -16 6 -47 21 -68 34 l-38 24 139 84 c259 155 668 344 887
410 33 10 69 23 79 28 11 5 107 11 215 13 108 1 219 4 246 6 28 1 91 0 140 -3
72 -5 85 -4 64 5 -14 6 -24 17 -22 24 3 6 0 12 -6 12 -6 0 -11 -7 -11 -15 0
-8 -9 -15 -20 -15 -13 0 -20 7 -20 20 0 11 -4 20 -10 20 -5 0 -10 -6 -10 -12
0 -10 -2 -10 -8 -2 -21 33 -234 38 -335 9 -32 -9 -61 -15 -63 -12 -3 2 28 14
68 27 40 12 78 23 83 25 6 2 1 4 -11 4 -27 1 -172 -37 -208 -55 -33 -16 -46
-18 -46 -6 0 10 104 47 190 67 202 46 480 -10 1048 -212 24 -8 41 -17 39 -19
-2 -2 -77 12 -168 32 -157 34 -383 75 -404 73 -21 -2 55 -20 145 -34 99 -16
440 -90 595 -130 181 -46 826 -240 898 -270 27 -11 20 3 -10 20 l-28 16 30 -8
c17 -4 66 -7 110 -8 44 0 89 -5 100 -11 11 -7 47 -17 80 -24 179 -36 513 -169
683 -272 l32 -20 0 546 0 546 -3600 0 -3600 0 0 -29z m3805 -290 c-6 -5 -44
-19 -85 -31 -174 -50 -435 -161 -734 -311 -98 -50 -180 -88 -183 -85 -3 2 6
10 19 17 12 7 28 19 35 28 7 9 13 12 13 8 0 -5 12 0 28 11 38 27 333 172 428
211 44 18 88 36 99 41 11 4 36 15 55 23 19 8 89 31 155 52 66 20 125 38 130
40 23 7 49 5 40 -4z m-908 -322 c10 -9 10 -15 2 -25 -15 -18 -30 -18 -23 0 3
8 -3 16 -16 19 -31 8 -49 -2 -56 -29 -3 -13 -12 -24 -20 -24 -8 0 -23 -5 -34
-12 -15 -10 -25 -9 -47 2 -60 30 -77 71 -35 84 29 9 215 -4 229 -15z m2853
-238 c181 -61 232 -83 221 -94 -5 -5 -7 -16 -4 -25 4 -10 2 -13 -5 -8 -8 5
-12 0 -12 -13 0 -17 -5 -20 -27 -17 -30 4 -160 66 -204 97 -14 10 -38 21 -53
25 -15 3 -32 17 -38 30 -6 13 -16 24 -22 24 -11 0 13 20 24 20 3 0 57 -18 120
-39z m-4668 -123 c-29 -29 4 -201 47 -244 14 -15 85 -55 156 -90 144 -70 157
-87 18 -24 -141 65 -174 84 -190 108 -24 36 -33 26 -33 -38 0 -68 3 -71 122
-128 48 -23 57 -31 55 -52 -3 -39 74 -76 172 -83 60 -4 98 -15 181 -49 58 -25
118 -48 135 -52 l30 -8 -25 -19 c-25 -19 -24 -19 20 0 24 11 45 19 47 18 1 -1
-5 -23 -13 -48 -10 -30 -25 -51 -45 -63 -39 -23 -38 -51 2 -65 28 -10 31 -14
24 -38 -3 -16 -7 -38 -7 -50 0 -22 -1 -22 -42 -6 -60 24 -65 29 -59 74 l6 40
-37 -22 c-20 -11 -38 -25 -41 -29 -5 -8 -85 20 -85 30 0 3 18 18 41 33 35 25
43 27 71 18 48 -17 55 -14 63 27 4 20 12 43 17 50 9 10 5 11 -18 2 -15 -6 -34
-16 -40 -21 -20 -16 -93 2 -214 53 -166 70 -460 218 -460 231 0 23 42 164 57
192 l16 30 -23 -20 -23 -20 18 27 c9 15 20 26 24 24 4 -3 8 4 8 15 1 11 -3 17
-8 13 -23 -14 -117 -152 -134 -197 -10 -26 -21 -50 -26 -53 -4 -2 7 -21 26
-41 24 -26 35 -49 39 -83 7 -53 19 -67 93 -104 41 -21 52 -31 50 -48 -3 -32
94 -80 147 -73 31 5 60 -2 133 -32 85 -34 93 -40 90 -61 -6 -31 9 -40 188
-108 140 -53 153 -56 190 -45 36 10 51 7 153 -27 96 -32 112 -40 112 -58 0
-24 2 -25 102 -59 56 -20 74 -22 104 -13 32 8 55 5 141 -19 70 -19 102 -32 98
-40 -6 -18 -6 -18 80 22 73 34 79 35 133 26 31 -6 74 -12 95 -13 21 -1 40 -5
42 -8 9 -14 -96 -69 -163 -85 -51 -12 -88 -29 -119 -52 -39 -30 -51 -34 -81
-28 -214 40 -1062 354 -1466 542 l-190 88 -12 48 c-12 48 -3 107 16 107 4 0
12 17 17 38 8 33 7 43 -9 65 -11 15 -25 24 -30 21 -7 -5 -9 2 -6 19 3 15 2 24
-3 21 -4 -2 -6 10 -4 28 26 196 37 231 85 271 16 14 30 30 30 36 0 12 55 52
63 45 3 -3 8 5 12 18 9 29 24 48 38 48 7 0 7 -4 -1 -12z m-217 -229 c-22 -46
-25 -67 -24 -149 0 -111 -21 -235 -54 -312 -9 -22 -16 -26 -37 -21 -31 7 -37
12 -25 21 6 4 10 22 10 41 0 19 8 52 18 73 11 21 25 80 33 130 20 137 32 182
65 234 39 60 46 52 14 -17z m1217 -553 c84 -30 166 -58 181 -62 23 -5 28 -11
23 -29 -5 -21 1 -25 82 -51 58 -18 112 -28 163 -30 103 -2 352 -71 346 -94 -3
-12 25 -4 116 32 119 48 154 54 230 40 l37 -7 -139 -91 -138 -92 -114 19 c-63
10 -186 39 -274 64 -170 49 -651 207 -685 225 -12 6 -20 21 -20 36 0 25 25 94
34 94 3 0 74 -24 158 -54z m-1477 -101 c-6 -51 -5 -55 14 -55 19 0 28 21 22
53 -1 5 4 5 10 2 14 -9 8 -37 -32 -165 -26 -84 -37 -107 -75 -146 -44 -45 -46
-46 -66 -28 -27 25 -68 107 -68 136 0 17 5 12 20 -19 22 -50 30 -52 56 -18 20
27 68 35 78 13 6 -17 36 19 36 44 0 17 -16 23 -49 19 -7 -2 -11 1 -9 6 3 4 8
16 12 27 5 15 9 16 21 6 12 -10 15 -9 15 8 0 12 -4 23 -9 26 -5 3 -4 27 1 53
6 27 12 58 14 71 9 45 16 20 9 -33z m3017 -154 c495 -59 596 -73 626 -86 42
-19 62 -19 62 0 0 9 9 15 23 15 21 -1 22 -1 3 -15 -19 -15 -19 -15 2 -15 12 0
22 5 22 10 0 6 47 10 120 10 119 0 121 0 110 -21 -7 -11 -43 -53 -80 -93 l-69
-73 -57 5 c-32 3 -54 1 -51 -4 9 -15 -631 1 -1032 26 -91 6 -208 13 -259 16
-64 4 -92 10 -89 17 3 8 43 12 126 13 l122 0 29 51 c16 28 44 61 62 74 18 13
42 31 53 41 54 48 71 58 92 53 12 -3 95 -14 185 -24z m-2309 -65 c12 -13 30
-48 40 -78 18 -52 20 -54 85 -81 97 -39 102 -40 102 -30 0 6 -31 22 -69 37
-75 29 -105 54 -99 83 6 33 59 27 185 -22 89 -36 125 -55 148 -81 28 -32 33
-34 61 -24 24 8 39 7 70 -6 l39 -17 -45 -15 c-25 -8 -47 -16 -49 -18 -2 -2 10
-26 27 -54 17 -27 30 -50 28 -50 -21 0 -79 36 -93 58 -9 15 -18 29 -19 31 -2
2 -17 -1 -33 -7 -22 -8 -40 -8 -64 0 -52 17 -52 25 2 43 50 16 50 17 35 40
-16 24 -219 113 -231 101 -3 -3 16 -15 43 -26 90 -38 114 -53 120 -76 15 -57
-35 -57 -170 -1 l-100 42 -23 59 c-12 32 -24 61 -27 63 -6 6 -56 -27 -56 -37
0 -4 15 -11 33 -16 22 -7 33 -17 35 -32 l3 -22 -50 20 c-27 10 -67 26 -87 35
l-37 15 58 45 c67 52 104 58 138 21z m2307 -222 c201 -9 458 -14 573 -12 114
2 207 0 207 -3 0 -14 -27 -27 -70 -33 -25 -4 -311 -9 -636 -12 -559 -4 -595
-5 -657 -24 -37 -11 -69 -25 -72 -30 -3 -5 -18 -7 -33 -4 -20 4 -33 0 -43 -12
-13 -16 -12 -17 14 -12 18 4 26 1 24 -6 -2 -6 -16 -10 -30 -8 -15 2 -27 -1
-27 -8 0 -14 -72 -5 -158 22 -34 10 -67 16 -72 13 -6 -3 -10 1 -10 10 0 12 8
14 43 10 l42 -5 -37 13 c-89 29 -62 65 74 95 51 12 102 23 113 26 26 6 302 -1
755 -20z m3100 -84 c0 -5 -4 -10 -10 -10 -5 0 -7 -6 -4 -14 4 -9 -8 -23 -30
-38 -20 -13 -42 -37 -50 -54 -36 -74 -83 -81 -108 -15 -15 38 -15 39 6 45 11
3 39 6 62 6 22 0 49 7 60 15 18 14 17 15 -8 5 -18 -6 -29 -6 -33 0 -4 7 -13 7
-24 1 -20 -11 -80 -6 -93 7 -16 16 19 33 74 36 29 2 64 9 78 14 32 14 80 15
80 2z m-5684 -261 c59 -24 88 -30 121 -26 45 5 55 -4 26 -23 -17 -11 -17 -11
0 -6 11 3 17 0 17 -9 0 -8 7 -15 15 -15 15 0 69 -21 118 -47 15 -8 36 -11 47
-8 14 4 20 2 18 -6 -2 -10 18 -13 75 -15 73 -2 79 0 89 22 7 15 21 24 42 26
l31 3 -40 22 c-71 39 -19 25 138 -38 145 -59 191 -80 137 -65 -14 4 -38 11
-55 16 -55 16 -82 21 -62 12 10 -4 19 -12 20 -17 1 -15 21 -32 47 -40 14 -4
39 -18 55 -32 17 -13 35 -27 40 -31 6 -4 31 -26 56 -48 39 -35 43 -43 30 -52
-12 -7 -9 -9 13 -4 20 3 27 1 22 -6 -4 -6 2 -16 13 -21 29 -16 35 -13 20 7 -9
11 -5 9 11 -4 34 -30 81 -51 107 -48 13 1 20 -3 16 -9 -4 -6 0 -8 11 -4 9 4
15 3 12 -1 -3 -5 18 -17 47 -27 29 -10 57 -21 62 -26 6 -4 30 -13 55 -19 25
-7 39 -15 32 -17 -27 -10 -544 184 -992 371 -232 98 -465 199 -474 208 -17 14
0 9 80 -23z m4170 -55 c66 -22 110 -57 136 -107 20 -40 50 -138 44 -144 -1 -2
-15 19 -30 46 -59 110 -158 158 -301 148 -44 -3 -89 -9 -100 -13 l-20 -7 20
16 c11 9 30 17 43 17 13 0 21 4 18 8 -3 5 9 6 26 4 21 -3 29 -1 24 7 -4 6 -1
11 6 11 9 1 9 3 -2 9 -8 5 -36 6 -62 2 -27 -5 -48 -4 -48 0 0 22 180 24 246 3z
m-4484 -125 c62 -28 148 -68 192 -89 183 -85 437 -197 701 -308 262 -110 316
-133 484 -198 95 -37 174 -73 176 -79 15 -61 26 -117 24 -119 -2 -2 -32 8 -67
22 -52 20 -65 30 -77 58 -15 36 -15 36 -199 110 -118 47 -132 50 -170 33 -21
-10 -42 -5 -146 37 -107 43 -122 52 -127 76 -8 39 -22 48 -185 118 -139 59
-149 62 -166 47 -24 -22 -23 -22 -100 14 -37 17 -84 38 -105 46 -29 12 -39 23
-44 45 -7 34 -13 38 -145 105 -54 27 -95 52 -92 56 3 3 -2 3 -13 1 -10 -3 -29
0 -43 6 -23 10 -22 10 10 5 l35 -5 -49 35 c-74 52 -29 46 106 -16z m2107 -113
c24 -55 104 -142 152 -167 42 -21 458 -130 672 -175 78 -17 124 -31 119 -36
-17 -17 -95 -10 -236 21 -76 17 -141 30 -143 28 -2 -2 24 -14 58 -26 33 -13
58 -25 55 -28 -8 -9 -207 47 -266 74 -30 14 -96 34 -147 44 -94 18 -133 33
-133 49 0 6 -4 10 -9 10 -17 0 -125 77 -157 111 -38 41 -45 68 -32 113 14 45
42 38 67 -18z m4059 -23 c4 -28 -40 -125 -69 -152 -13 -12 -46 -28 -74 -36
-61 -18 -255 -44 -255 -35 0 4 45 12 100 19 131 16 190 34 222 68 29 32 52 93
40 105 -5 5 -41 2 -81 -6 -39 -8 -99 -18 -132 -22 -37 -4 -73 -16 -94 -29 -20
-14 -37 -19 -42 -14 -11 11 -65 4 -353 -51 -118 -22 -268 -47 -332 -56 -64 -8
-152 -24 -195 -35 -43 -11 -88 -23 -100 -26 -24 -6 -27 1 -38 92 -4 36 -3 46
4 35 6 -8 11 -26 11 -40 1 -51 11 -72 34 -67 49 12 214 57 246 67 19 5 64 15
100 20 36 6 108 19 160 30 89 18 231 44 398 72 51 9 78 9 89 2 13 -8 22 -5 37
13 16 19 37 26 91 33 39 5 102 16 140 24 82 17 89 16 93 -11z m-4508 -23 c25
-4 39 -8 33 -9 -22 -2 -14 -15 15 -28 15 -7 40 -11 57 -9 41 5 55 -2 55 -29 0
-20 -9 -26 -52 -39 -29 -8 -70 -18 -90 -21 -40 -8 -35 -12 -99 107 -8 16 -22
34 -30 39 -10 7 -2 8 26 3 22 -4 60 -10 85 -14z m2582 -286 c17 -16 37 -43 44
-61 21 -49 16 -53 -9 -8 -12 22 -28 40 -35 40 -7 0 -16 5 -20 10 -4 6 -20 11
-36 12 -16 1 -33 8 -37 14 -16 27 -143 -34 -183 -88 -11 -15 -14 -23 -8 -19 8
4 10 2 6 -8 -3 -8 -12 -17 -20 -20 -8 -3 -14 -15 -14 -27 0 -15 -4 -19 -16
-15 -12 5 -15 2 -10 -9 4 -11 2 -14 -6 -9 -7 5 -9 2 -5 -9 4 -11 2 -14 -9 -10
-7 3 -14 0 -14 -7 0 -6 -4 -8 -10 -5 -15 10 -122 -155 -160 -247 -26 -65 -38
-73 -16 -12 45 128 134 272 233 375 131 137 249 174 325 103z m-1498 -61 l234
-47 -16 -25 c-10 -14 -12 -22 -5 -18 6 4 15 2 18 -4 4 -6 18 -8 32 -4 21 5 23
3 14 -13 -27 -50 -127 -54 -320 -12 -149 32 -176 40 -160 51 8 5 15 4 17 -1 8
-21 21 -8 28 26 5 28 3 38 -12 49 -11 8 -28 12 -39 10 -11 -3 -14 -2 -7 1 21
10 13 24 -12 24 -14 0 -28 5 -32 12 -5 8 -2 9 10 5 9 -4 122 -28 250 -54z
m3313 -207 c-8 -8 -47 -19 -88 -25 -203 -28 -617 -83 -799 -106 -113 -14 -285
-37 -382 -50 -194 -27 -242 -30 -233 -15 3 6 -4 10 -17 11 -82 4 155 41 729
114 671 85 817 98 790 71z m-877 -231 c0 -12 -248 -59 -581 -110 -195 -30
-179 -29 -179 -10 0 36 201 83 490 114 83 9 270 14 270 6z m-1197 -102 c-4 -9
-2 -14 3 -11 5 4 10 -22 12 -59 2 -57 0 -64 -15 -61 -15 3 -18 13 -16 56 l1
52 -24 -29 c-28 -34 -30 -53 -8 -76 14 -13 16 -33 12 -121 -5 -112 -11 -125
-67 -139 -31 -8 -38 5 -40 70 -1 60 -16 109 -30 100 -15 -8 -22 11 -15 40 4
15 13 25 24 25 24 0 32 26 14 45 -21 20 -34 19 -34 -3 0 -10 -5 -23 -11 -29
-5 -5 -11 -24 -11 -42 -1 -17 -5 -31 -10 -31 -4 0 -8 -6 -8 -13 0 -7 -8 -24
-17 -37 l-17 -24 -6 24 c-6 25 34 120 51 120 4 0 10 19 14 43 11 70 15 79 28
64 7 -7 17 -21 23 -32 15 -26 33 -30 40 -8 9 22 44 63 56 63 5 0 16 7 24 15
20 20 35 19 27 -2z m117 -324 c0 -41 -183 -238 -251 -269 -54 -24 -121 -26
-160 -3 -32 19 -42 51 -11 37 51 -22 90 -16 159 25 71 42 173 134 173 155 0 7
9 21 21 31 20 19 20 19 10 -8 -6 -15 -8 -27 -6 -27 11 0 45 41 45 55 0 8 5 15
10 15 6 0 10 -5 10 -11z"/>
<path d="M6480 3954 c284 -67 632 -207 683 -277 24 -31 16 -48 -10 -25 -36 31
-231 118 -363 162 -159 52 -315 86 -399 86 -90 0 -74 -15 19 -18 87 -3 265
-43 253 -57 -5 -4 -3 -5 4 -1 17 10 106 -16 90 -27 -7 -5 -1 -6 16 -2 21 4 27
3 21 -6 -4 -7 -3 -9 3 -6 10 6 44 -5 118 -38 17 -7 59 -25 95 -40 36 -15 91
-43 123 -62 32 -19 61 -33 64 -30 3 4 2 22 -1 41 -8 44 -32 61 -189 136 -186
88 -416 163 -541 174 -50 5 -50 5 14 -10z"/>
<path d="M6094 3768 c-16 -17 -23 -28 -16 -24 23 13 12 -9 -26 -50 -57 -64
-72 -84 -64 -84 4 0 3 -4 -3 -8 -14 -10 -175 -250 -175 -261 0 -4 -11 -20 -25
-35 -13 -14 -25 -30 -25 -34 0 -4 -5 -14 -12 -22 -7 -8 -19 -27 -27 -42 -8
-15 -17 -25 -21 -23 -4 3 -7 -3 -6 -13 0 -10 -5 -16 -13 -14 -8 2 -11 -3 -8
-13 4 -8 3 -15 -1 -15 -5 0 -17 -7 -28 -16 -10 -8 -13 -13 -6 -9 16 8 15 -1
-5 -31 -12 -19 -18 -22 -25 -12 -8 10 -9 10 -6 -1 8 -28 23 -20 56 27 18 26
75 105 125 175 51 71 115 161 142 201 28 40 87 119 133 174 46 56 79 102 73
102 -5 0 -13 -5 -17 -12 -5 -8 -10 -6 -15 8 -5 14 1 25 20 41 14 12 21 22 15
23 -5 0 -23 -14 -40 -32z"/>
<path d="M6303 3786 c-62 -20 -103 -49 -169 -118 -32 -34 -62 -62 -65 -61 -3
1 -6 -3 -6 -10 0 -7 -27 -52 -60 -102 -124 -187 -173 -263 -173 -271 0 -5 37
47 83 115 106 161 230 327 265 358 113 100 260 112 502 43 187 -53 406 -141
469 -187 27 -21 31 -22 23 -7 -23 43 -304 161 -511 216 -138 35 -292 46 -358
24z"/>
<path d="M6330 3700 c-10 -7 3 -8 42 -4 32 4 101 1 153 -6 89 -12 97 -15 107
-39 16 -40 15 -511 -2 -666 -7 -71 -14 -139 -14 -151 -1 -15 -6 -19 -19 -16
-12 3 -16 0 -12 -10 4 -9 15 -13 29 -11 22 5 24 12 42 156 20 167 25 645 7
702 -9 27 -15 31 -74 42 -78 15 -238 16 -259 3z"/>
<path d="M1 3291 c0 -82 -1 -81 114 -87 44 -2 97 -7 118 -9 40 -6 87 2 87 15
0 4 -16 11 -35 14 -37 7 -48 26 -15 26 11 0 20 5 20 11 0 5 -4 8 -9 5 -5 -4
-31 -2 -58 3 -101 20 -146 23 -138 10 5 -8 4 -10 -4 -5 -6 4 -9 11 -6 16 3 5
-3 14 -12 20 -15 9 -13 10 12 6 99 -18 177 -26 187 -20 19 12 -22 34 -63 34
-21 0 -39 4 -41 8 -1 5 -38 12 -80 15 l-77 7 0 -69z"/>
</g>
</svg>
