<?xml version="1.0" standalone="no"?>
<!DOCTYPE svg PUBLIC "-//W3C//DTD SVG 20010904//EN"
 "http://www.w3.org/TR/2001/REC-SVG-20010904/DTD/svg10.dtd">
<svg version="1.0" xmlns="http://www.w3.org/2000/svg"
 width="1280.000000pt" height="720.000000pt" viewBox="0 0 1280.000000 720.000000"
 preserveAspectRatio="xMidYMid meet">
<metadata>
Created by potrace 1.16, written by Peter Selinger 2001-2019
</metadata>
<g transform="translate(0.000000,720.000000) scale(0.100000,-0.100000)"
fill="#000000" stroke="none">
<path d="M487 7193 c-16 -15 -5 -46 29 -79 20 -20 33 -42 30 -50 -3 -8 1 -14
10 -14 9 0 14 6 11 13 -2 6 3 17 11 23 18 13 7 54 -14 54 -8 0 -14 7 -14 15 0
14 3 14 24 0 14 -9 37 -15 53 -13 22 2 27 7 25 25 -2 17 1 20 17 16 11 -3 22
-11 25 -19 3 -8 14 -14 24 -14 11 0 31 -9 45 -20 33 -26 37 -25 37 8 -1 57
-13 62 -167 62 -77 0 -143 -3 -146 -7z"/>
<path d="M1757 7180 c4 -15 0 -20 -15 -20 -12 0 -26 -8 -31 -19 -11 -20 -48
-34 -56 -20 -9 14 -35 -2 -35 -21 0 -27 73 -50 86 -28 3 5 10 6 15 3 5 -4 9
-1 9 4 0 6 8 11 18 11 10 0 23 5 30 12 16 16 81 37 87 28 7 -12 -82 -81 -97
-75 -7 3 -40 -4 -72 -15 -33 -11 -75 -20 -95 -20 -41 0 -55 -7 -64 -32 -3 -10
-13 -18 -22 -18 -8 0 -15 -7 -15 -15 0 -9 -14 -22 -31 -29 -35 -15 -33 -12
-126 -196 -109 -215 -116 -237 -137 -400 -2 -19 -11 -57 -19 -85 -8 -27 -29
-111 -46 -185 -18 -74 -42 -175 -55 -225 -51 -195 -58 -244 -57 -378 2 -134
13 -193 54 -290 17 -41 18 -53 8 -87 -9 -31 -9 -65 3 -162 19 -154 36 -406 29
-441 -3 -15 -2 -47 2 -72 6 -41 9 -45 27 -39 18 5 20 3 16 -18 -4 -20 0 -24
19 -23 13 0 28 7 33 15 8 12 13 11 34 -10 27 -24 33 -21 17 8 -4 9 -11 32 -14
50 -5 27 -3 32 12 32 14 0 20 -10 25 -39 6 -41 23 -62 30 -39 2 7 7 26 10 41
8 33 23 27 42 -17 12 -27 13 -28 14 -8 0 14 4 21 11 16 6 -3 9 -15 6 -25 -3
-10 1 -26 9 -36 12 -16 15 -16 24 -3 11 16 12 1024 1 1360 -6 186 -7 195 -26
196 -11 1 -26 2 -33 3 -10 1 -12 49 -10 219 l3 217 32 3 c29 3 32 7 35 40 3
31 7 37 29 40 56 7 54 53 57 -1017 2 -542 5 -991 7 -998 2 -6 13 -9 24 -6 15
4 21 1 21 -12 0 -22 93 -142 98 -126 2 6 0 19 -4 29 -4 9 -6 22 -4 27 1 6 6
24 9 40 5 20 13 30 24 29 9 -1 28 -2 42 -3 14 0 36 -12 49 -26 25 -27 55 -32
74 -13 8 8 15 8 28 -2 13 -11 15 -24 10 -62 -6 -43 -5 -48 13 -48 11 0 23 -5
26 -11 4 -5 21 -9 37 -7 46 4 45 -17 -1 -49 -44 -31 -48 -38 -27 -58 12 -12
16 -12 26 0 14 17 74 30 90 20 9 -6 9 -10 -1 -17 -9 -6 7 -8 46 -4 133 13 358
27 362 22 3 -3 -10 -14 -28 -25 -43 -26 -34 -26 31 -1 74 29 73 25 -2 -21 -38
-23 -68 -47 -68 -53 0 -6 -9 -17 -20 -24 -27 -16 -25 -29 5 -36 32 -8 32 -24
1 -32 -39 -9 -61 -1 -60 24 1 25 2 25 -45 12 -20 -5 -62 -12 -94 -15 -45 -5
-57 -10 -53 -21 4 -10 -3 -14 -27 -14 -18 0 -38 -5 -45 -12 -6 -6 -14 -9 -17
-6 -9 9 6 37 23 42 10 3 -3 2 -28 -1 -25 -4 -63 -6 -85 -5 -33 1 -37 -1 -24
-11 9 -7 14 -18 12 -24 -3 -7 3 -13 13 -13 9 0 14 -3 11 -7 -10 -9 -55 17 -59
33 -2 11 -9 11 -33 -2 -39 -21 -126 -54 -143 -54 -7 0 -10 5 -7 10 10 16 -14
12 -46 -7 -25 -15 -33 -16 -50 -5 -18 11 -24 11 -38 -2 -10 -9 -22 -16 -27
-16 -15 1 40 40 55 40 8 0 11 3 8 7 -4 3 -2 12 4 20 32 37 -74 -13 -112 -53
-13 -15 -46 -41 -74 -59 -67 -45 -126 -97 -100 -88 11 3 32 15 47 25 14 10 38
18 52 18 14 0 26 5 26 10 0 6 14 10 30 10 17 0 30 -4 30 -10 0 -5 22 4 49 20
47 29 51 30 182 30 125 -1 133 -2 114 -17 l-20 -16 20 8 c79 30 135 37 232 31
99 -6 253 -33 253 -45 0 -3 -46 -17 -101 -30 -93 -22 -108 -23 -174 -12 -40 6
-123 12 -184 12 -61 0 -111 4 -111 8 0 5 15 13 33 19 l32 11 -34 -5 c-18 -4
-52 -15 -75 -25 -22 -10 -52 -19 -66 -19 -14 0 -72 -7 -129 -17 -102 -17 -106
-19 -158 -66 -35 -33 -53 -44 -53 -33 0 21 4 31 11 29 3 -1 23 16 43 38 21 21
33 39 28 39 -27 0 -125 -56 -189 -107 l-73 -58 0 -55 c1 -54 1 -55 14 -25 14
32 42 60 90 89 l29 18 -7 -23 c-4 -13 -8 -38 -10 -56 -1 -18 -5 -36 -10 -40
-4 -4 -5 4 -1 20 l7 27 -35 -35 c-19 -19 -42 -35 -51 -35 -13 0 -15 -6 -10
-27 4 -16 12 -34 19 -41 10 -11 14 -8 23 17 6 17 16 31 21 31 11 0 -13 -68
-52 -148 -13 -26 -34 -74 -47 -107 -15 -38 -42 -80 -75 -115 -87 -93 -115
-173 -77 -220 25 -31 38 -20 46 38 3 27 13 57 21 68 18 24 18 19 1 -58 -8 -35
-18 -96 -22 -136 -4 -40 -11 -75 -17 -79 -14 -8 -76 67 -77 94 0 12 -4 24 -8
27 -5 3 -51 6 -103 7 -52 1 -150 8 -219 15 -69 8 -159 14 -201 14 -42 0 -98 4
-125 9 -27 5 -78 12 -114 16 -36 3 -72 8 -80 10 -9 3 -35 7 -58 9 l-42 4 0
-934 0 -934 30 0 c17 0 30 -4 30 -10 0 -5 18 -10 40 -10 23 0 40 -5 40 -11 0
-8 14 -10 45 -6 31 5 45 3 45 -5 0 -6 3 -8 7 -5 7 8 33 -11 33 -24 0 -5 -6 -9
-14 -9 -7 0 -20 -10 -28 -22 -13 -19 -19 -21 -39 -13 -13 6 -60 8 -104 5 l-80
-5 -3 -427 -2 -428 3486 0 3486 0 28 30 c15 17 31 30 34 30 12 0 6 -22 -11
-38 -16 -16 63 -17 1238 -20 832 -1 1255 1 1257 8 5 13 32 13 32 0 0 -7 210
-10 610 -10 536 0 610 2 610 15 0 8 5 15 11 15 6 0 9 -7 5 -15 -5 -13 113 -15
1004 -15 l1010 0 0 1038 0 1037 -156 4 c-183 4 -209 9 -210 40 -1 25 -20 48
-31 38 -3 -4 -1 -23 5 -43 14 -48 -1 -53 -86 -23 -62 21 -86 23 -307 26 -138
2 -325 11 -440 22 -110 11 -227 20 -261 20 -57 1 -114 17 -114 34 0 4 -4 7
-10 7 -5 0 -10 -7 -10 -15 0 -21 -31 -87 -54 -113 -11 -12 -30 -22 -45 -21
-24 0 -25 1 -5 9 30 12 39 42 18 57 -26 19 -1 45 32 33 20 -8 24 -6 24 9 0 11
6 22 13 25 8 3 5 11 -10 24 l-22 19 19 52 c11 28 27 96 36 151 19 110 31 137
59 126 14 -5 16 -14 12 -44 -14 -89 -17 -116 -11 -104 3 6 12 12 19 12 17 0
65 79 65 107 0 11 -10 28 -21 39 -12 10 -25 29 -30 42 -5 12 -17 22 -28 22
-24 0 -43 23 -36 44 3 9 7 23 10 32 4 13 8 14 19 5 20 -16 22 -1 27 199 8 324
5 441 -13 510 -9 36 -22 99 -28 140 -6 41 -16 101 -21 133 -11 63 -8 77 15 58
19 -16 26 5 26 75 0 43 -3 52 -15 48 -27 -11 -60 96 -35 111 6 4 16 2 23 -3 7
-5 122 -12 257 -16 135 -3 272 -9 305 -11 62 -5 425 -23 530 -27 33 -1 70 2
83 6 14 4 28 3 36 -3 7 -6 88 -14 189 -17 l177 -7 0 1363 0 1362 -207 -6
c-500 -14 -1123 -18 -1137 -7 -10 8 -16 8 -24 -1 -8 -10 -139 -14 -594 -16
-320 -2 -599 -7 -618 -12 -19 -5 -89 -14 -155 -19 -220 -20 -1650 -47 -1610
-32 11 5 61 9 110 9 114 1 113 1 96 11 -24 15 17 20 219 25 175 4 230 10 230
25 0 6 -320 5 -431 -2 -51 -4 -72 -10 -88 -26 -22 -22 -41 -27 -41 -11 0 5
-18 9 -40 7 -22 -1 -40 -5 -40 -9 0 -5 -4 -8 -10 -8 -5 0 -10 7 -10 16 0 14
-3 14 -15 4 -13 -11 -18 -10 -30 6 -13 18 -35 19 -652 17 -351 -1 -744 -5
-873 -8 -129 -3 -498 -11 -820 -17 -651 -11 -795 -15 -890 -21 -150 -10 -231
-20 -223 -27 7 -7 830 -19 1342 -20 96 0 172 -2 169 -5 -2 -3 -218 -7 -479
-10 -261 -2 -640 -10 -844 -17 -203 -7 -500 -13 -660 -12 -287 1 -291 1 -368
27 -42 15 -105 33 -140 41 -34 8 -111 29 -172 45 -60 17 -150 42 -200 55 -86
22 -90 24 -90 51 l0 28 85 -2 c47 -1 157 5 245 13 169 16 530 34 753 39 118 2
134 0 143 -15 13 -23 25 -23 32 1 4 15 17 20 68 25 66 6 409 20 899 36 418 14
784 29 872 35 70 6 77 4 91 -15 13 -19 16 -20 24 -6 6 12 29 17 83 20 114 6
590 24 820 31 113 3 354 13 535 21 182 7 410 14 507 14 176 0 177 0 180 -22 4
-30 22 -30 26 -1 2 14 12 25 25 28 12 2 184 9 382 15 685 20 991 29 1115 34
69 3 277 9 462 12 l337 7 10 -27 c13 -33 29 -34 37 -2 7 31 20 32 459 46 182
6 401 13 488 16 87 4 260 9 385 13 l227 6 3 24 4 23 -249 -7 c-319 -10 -411
-13 -503 -19 -41 -3 -113 -5 -160 -4 -47 0 -94 0 -105 -1 -200 -17 -522 -32
-680 -31 -135 0 -374 -8 -780 -25 -471 -20 -601 -25 -790 -30 -93 -2 -206 -7
-250 -10 -140 -9 -550 -24 -850 -31 -159 -3 -436 -11 -615 -18 -292 -12 -440
-9 -457 8 -4 3 -7 29 -8 58 -4 74 -4 75 -19 55 -8 -10 -20 -16 -27 -15 -11 2
-14 -11 -13 -54 1 -66 20 -56 -141 -77 -116 -16 -378 -15 -373 2 8 21 151 96
185 97 34 0 61 22 102 81 13 19 57 57 98 84 l75 50 -187 3 -186 2 -39 -32
c-21 -18 -63 -46 -93 -61 -68 -36 -107 -95 -87 -132 17 -31 8 -51 -27 -59 -15
-4 -42 -18 -60 -32 -29 -22 -41 -24 -200 -29 -92 -3 -280 -10 -418 -15 -137
-5 -378 -14 -535 -20 -345 -11 -780 -27 -1107 -40 -133 -6 -314 -10 -401 -10
-87 0 -228 -4 -313 -10 -85 -5 -200 -11 -257 -13 l-103 -5 7 42 c9 49 11 175
4 270 l-5 70 85 3 c47 2 135 7 195 13 61 5 223 14 360 21 788 36 778 36 -717
38 -1402 1 -1406 1 -1401 -19z m425 -1005 c-2 -407 -8 -905 -12 -1108 -9 -348
-11 -368 -30 -389 l-20 -22 0 32 c0 25 -4 32 -20 32 -11 0 -20 4 -20 9 0 14
-110 71 -136 71 -16 0 -23 8 -27 29 -6 30 -42 71 -62 71 -7 0 -17 -11 -23 -25
-13 -29 -30 -32 -38 -7 -3 9 -9 24 -14 32 -8 14 -47 87 -105 200 -23 45 -36
129 -51 333 -3 48 -10 87 -15 87 -5 0 -9 34 -9 75 0 82 0 82 61 65 39 -11 73
-3 106 24 10 8 32 26 50 41 29 24 44 65 48 130 0 5 9 11 20 13 30 6 45 22 45
47 0 16 8 25 26 29 l25 7 -6 92 c-3 51 -10 94 -15 95 -6 2 -10 9 -10 16 0 23
-25 47 -65 60 -35 12 -44 12 -70 -2 -16 -8 -46 -18 -65 -21 -21 -4 -36 -12
-36 -21 -1 -8 -2 -23 -3 -32 -1 -11 -15 -22 -40 -29 -44 -13 -73 -7 -65 14 3
8 -7 28 -22 43 l-26 29 7 -34 c5 -23 4 -31 -4 -27 -8 5 -11 -20 -11 -85 0 -51
-2 -90 -5 -87 -7 7 -8 889 -1 896 3 3 14 -2 23 -10 22 -19 38 -17 81 9 25 15
29 22 19 32 -9 10 -9 12 3 10 8 -1 22 1 30 4 21 9 135 13 325 13 l160 -1 -3
-740z m1924 154 c9 -35 19 -66 23 -69 3 -3 11 -14 17 -25 6 -11 20 -24 32 -30
13 -6 22 -19 22 -32 0 -12 3 -28 6 -36 4 -12 -5 -17 -43 -22 -26 -3 -58 -8
-70 -11 -23 -4 -23 -4 -23 123 0 115 6 180 16 170 2 -2 11 -32 20 -68z m7926
-580 c21 1 48 -4 60 -10 13 -7 39 -15 58 -19 l35 -5 -3 -150 c-2 -83 -6 -158
-8 -167 -9 -31 -37 -20 -95 36 -70 68 -92 101 -84 126 4 14 2 20 -9 20 -20 0
-21 30 -3 55 17 22 41 11 34 -16 -3 -10 1 -25 7 -35 11 -14 17 -14 54 -3 23 7
42 18 42 25 0 14 -75 83 -113 103 -35 19 -57 1 -57 -45 0 -36 -8 -44 -46 -49
-40 -4 -48 -19 -28 -50 17 -26 17 -28 -1 -41 -20 -15 -57 -9 -64 9 -2 6 -14
20 -27 32 -34 32 -35 122 -1 153 28 27 82 39 101 23 11 -9 22 -8 48 3 18 8 40
12 48 9 8 -3 32 -5 52 -4z m-3497 -219 c99 -6 239 -19 310 -29 163 -24 373
-58 445 -72 163 -32 361 -131 575 -290 22 -16 66 -48 99 -70 32 -23 118 -103
192 -178 118 -120 137 -144 164 -209 27 -65 53 -162 33 -122 -5 8 -14 15 -22
15 -9 0 -20 20 -29 55 -7 30 -20 62 -28 71 -8 8 -14 23 -14 31 0 22 -119 130
-253 231 -223 166 -389 249 -576 288 -126 26 -195 16 -268 -39 -29 -22 -73
-79 -73 -96 0 -8 59 -32 102 -40 32 -6 37 -11 40 -39 2 -27 11 -36 52 -58 26
-15 51 -31 55 -36 9 -16 82 -50 121 -58 72 -14 100 -28 100 -50 0 -26 -18 -45
-42 -45 -10 0 -42 -25 -73 -55 -30 -30 -58 -55 -62 -55 -4 0 -2 5 5 12 17 17
15 38 -3 38 -9 0 -15 -9 -15 -22 0 -12 -3 -18 -7 -15 -9 10 -29 -23 -38 -60
-3 -18 -11 -33 -16 -33 -5 0 -9 -15 -9 -33 0 -18 -5 -38 -12 -45 -7 -7 -12
-24 -13 -39 0 -23 -13 -35 -85 -80 -79 -49 -89 -53 -140 -51 -54 3 -55 4 -56
33 -1 17 -7 46 -14 65 -7 19 -15 41 -17 49 -5 20 -50 -66 -58 -112 -7 -34 -21
-55 -30 -45 -6 6 30 152 54 218 11 30 17 58 15 62 -15 23 -33 -1 -58 -78 -15
-47 -29 -84 -31 -82 -4 4 19 111 26 123 9 14 41 157 36 162 -3 2 -11 -22 -20
-54 -37 -141 -60 -214 -95 -300 l-36 -93 -73 0 c-63 0 -73 2 -73 18 1 32 46
172 54 165 4 -4 4 0 1 8 -3 9 3 43 14 75 11 32 27 86 36 119 9 33 23 74 31 92
8 17 14 39 14 50 0 10 5 25 11 33 7 10 8 -11 3 -70 -3 -47 -8 -88 -10 -92 -2
-4 0 -9 5 -13 6 -3 15 13 21 36 7 26 16 39 24 36 8 -3 18 8 25 29 7 19 16 34
21 34 13 0 30 69 32 133 0 15 3 25 6 22 3 -2 11 3 18 13 8 10 13 12 14 5 0
-20 20 -15 20 4 0 9 -6 32 -12 51 -11 28 -10 38 5 64 12 20 14 34 8 42 -6 6
-6 18 -2 25 7 11 11 10 19 -5 8 -15 13 -16 25 -5 9 7 22 11 30 9 13 -3 75 56
104 98 9 14 29 24 56 28 151 23 202 17 361 -46 111 -44 143 -45 76 -3 -106 67
-407 140 -501 121 -26 -5 -32 -2 -47 24 -19 33 -35 36 -93 17 -38 -12 -115
-74 -105 -84 6 -7 -12 -43 -22 -43 -4 0 -15 7 -25 14 -15 12 -16 18 -7 35 14
27 -1 27 -18 0 -7 -11 -19 -18 -27 -15 -125 48 -725 87 -1285 85 -204 -1 -380
3 -450 11 -63 6 -135 9 -160 6 -25 -3 -146 -6 -270 -7 -123 0 -229 -4 -235 -8
-19 -16 -123 -41 -167 -41 -92 0 -367 -56 -520 -105 -59 -19 -113 -35 -120
-34 -38 1 227 100 307 114 22 3 96 20 164 36 185 45 458 88 621 99 522 35 735
44 1130 50 245 3 470 7 500 8 30 1 136 -3 235 -8z m3482 -113 c35 -33 63 -66
63 -72 0 -14 -59 -41 -110 -51 -19 -3 -51 -14 -70 -24 -44 -22 -108 -32 -116
-19 -3 6 4 21 16 34 25 26 21 67 -3 46 -16 -13 -37 4 -37 30 0 19 24 42 33 32
4 -3 7 10 7 29 0 54 30 70 109 61 38 -5 55 -16 108 -66z m-8378 -631 c7 -21
10 -51 8 -65 -8 -39 3 -83 19 -77 11 4 14 -20 14 -133 l0 -138 -41 -7 c-22 -4
-43 -5 -47 -2 -4 2 -4 102 1 223 4 120 11 360 15 533 l7 315 5 -305 c4 -211
10 -317 19 -344z m4359 588 c62 -4 110 -9 107 -12 -8 -8 -87 -18 -285 -36
-217 -20 -210 -21 -261 16 -39 28 -41 32 -24 40 20 8 238 4 463 -8z m541 -34
c25 -5 86 -16 135 -25 50 -9 108 -26 130 -38 40 -22 41 -24 41 -74 -1 -29 -4
-56 -9 -60 -4 -4 -53 -13 -109 -19 -142 -17 -271 -4 -372 36 -75 30 -83 31
-239 32 -140 1 -253 -10 -302 -29 -9 -3 -18 5 -24 23 -6 16 -32 44 -60 64 -27
19 -49 38 -50 41 0 4 60 9 133 13 183 10 428 35 446 47 17 11 204 3 280 -11z
m-2339 -49 c124 -6 132 -7 95 -18 -22 -6 -67 -17 -100 -23 -33 -6 -89 -20
-125 -30 -36 -10 -119 -21 -185 -24 -66 -4 -138 -11 -160 -16 -51 -11 -57 -5
-14 15 28 12 29 14 8 10 -14 -2 -73 -27 -131 -54 -109 -52 -203 -81 -257 -81
-29 0 -61 -17 -199 -108 -64 -42 -62 -55 2 -17 25 15 53 25 63 23 13 -3 1 -14
-39 -37 -32 -18 -58 -37 -58 -42 0 -5 -9 -9 -20 -9 -11 0 -20 7 -20 15 0 17
-16 20 -25 5 -3 -5 -1 -10 4 -10 22 0 10 -22 -18 -33 -16 -6 -34 -21 -40 -34
-14 -31 -78 -69 -130 -78 -53 -9 -204 -119 -333 -242 -62 -59 -94 -83 -112
-83 -13 0 -27 4 -30 9 -8 12 27 146 50 194 21 43 11 60 -26 45 -19 -7 -21 -11
-11 -17 11 -7 8 -20 -17 -62 -17 -30 -36 -75 -42 -101 -10 -37 -17 -48 -32
-48 -17 0 -20 5 -16 30 4 29 4 30 -19 15 -17 -12 -23 -12 -23 -3 -1 7 -9 3
-19 -9 -10 -12 -31 -25 -47 -29 -16 -4 -34 -14 -41 -23 -11 -14 -12 -11 -13
17 0 18 5 43 12 55 6 12 11 37 9 56 -4 74 25 121 39 62 5 -23 5 -23 40 8 56
49 200 120 250 123 39 3 45 0 59 -25 15 -26 15 -29 -4 -39 -37 -21 -70 -66
-98 -133 -44 -103 -34 -107 64 -23 194 165 382 312 515 401 56 37 107 74 114
82 7 8 17 15 22 15 5 0 64 32 132 70 124 70 161 84 150 55 -8 -19 -6 -19 42 4
140 67 190 87 281 112 111 30 148 23 64 -13 -29 -11 -50 -23 -48 -25 5 -4 172
55 207 74 16 9 37 11 60 7 19 -4 96 -10 170 -13z m5965 9 c17 -27 -11 -52
-107 -100 -115 -57 -133 -69 -120 -82 6 -6 49 1 111 18 56 15 105 24 108 20
11 -11 -18 -26 -50 -26 -15 0 -44 -7 -65 -16 -47 -20 -173 -64 -184 -64 -17 0
-68 94 -68 126 0 32 14 52 24 36 3 -5 28 -10 56 -11 39 -1 65 6 117 32 89 45
156 76 165 76 4 1 10 -4 13 -9z m-5562 -46 c119 -30 174 -51 161 -63 -5 -4
-29 -13 -54 -20 -25 -6 -54 -16 -65 -21 -23 -10 -53 -23 -178 -75 l-88 -37
-47 47 c-58 58 -99 80 -188 98 l-69 14 45 13 c134 39 272 68 323 69 33 1 102
-10 160 -25z m320 -206 c75 -95 90 -125 65 -132 -53 -13 -233 -74 -276 -93
-29 -13 -58 -23 -65 -23 -7 1 -24 18 -39 40 -15 22 -59 65 -98 97 -38 31 -70
60 -70 64 0 4 24 15 53 23 28 9 117 42 197 75 80 33 148 57 151 53 3 -4 40
-51 82 -104z m1357 67 c45 -11 138 -18 303 -22 214 -5 237 -7 232 -22 -4 -9
-11 -35 -18 -58 l-11 -43 -86 0 c-201 -1 -431 -20 -601 -51 -255 -47 -239 -45
-239 -18 0 13 -7 47 -16 74 -33 109 -34 125 -11 136 70 31 326 33 447 4z
m1417 -7 c16 -22 -2 -216 -26 -287 -25 -72 -23 -75 42 -86 23 -4 43 -2 51 4 8
7 28 56 46 111 21 66 36 100 46 100 13 0 12 4 -1 30 -8 16 -15 32 -15 35 0 6
111 -53 120 -64 3 -3 21 -18 40 -32 38 -28 50 -72 30 -108 -11 -21 -45 -18
-54 5 -8 22 -23 16 -30 -11 -8 -33 1 -50 19 -35 11 9 20 8 37 -4 12 -9 25 -16
29 -16 12 0 25 46 23 83 -2 26 2 37 11 37 21 0 100 -71 130 -117 15 -23 40
-53 56 -67 27 -25 39 -56 21 -56 -5 0 -18 14 -31 30 -12 17 -26 28 -30 25 -5
-3 -14 -35 -21 -72 -6 -37 -20 -79 -31 -94 -24 -34 -25 -75 -1 -88 14 -9 12
-10 -14 -11 -19 0 -38 8 -49 20 -23 26 -45 26 -52 0 -3 -11 -17 -23 -30 -26
-15 -4 -30 -19 -38 -37 -7 -18 -15 -25 -19 -18 -4 6 -15 11 -25 11 -10 0 -21
8 -24 19 -3 12 -17 20 -46 24 -23 3 -49 14 -59 25 -33 37 -230 92 -332 92 -93
0 -93 32 0 46 85 13 232 74 178 74 -9 0 -18 7 -21 15 -4 8 -21 19 -39 25 -30
9 -29 10 18 6 29 -3 81 -18 116 -34 93 -42 115 -46 121 -22 4 15 -1 22 -19 26
-13 3 -24 10 -24 15 0 5 -8 9 -17 9 -10 0 -54 11 -98 25 -86 27 -174 32 -193
13 -9 -9 -12 -8 -12 4 0 17 66 38 118 38 16 0 34 6 41 13 23 28 43 151 39 245
-3 90 0 104 19 80z m2459 -161 c2 -7 1 -31 -4 -52 -6 -33 -15 -44 -49 -63 -23
-12 -65 -51 -95 -87 -29 -35 -56 -64 -60 -64 -10 -1 -50 134 -46 155 2 12 35
31 92 56 50 21 95 38 102 38 6 0 17 7 24 15 15 18 29 19 36 2z m-3486 -19 c0
-12 -110 -262 -119 -271 -6 -6 -11 -18 -11 -26 0 -9 -4 -21 -8 -28 -4 -6 -7
11 -7 37 0 32 6 56 17 70 17 19 17 22 1 55 -20 42 -26 43 -42 9 -13 -30 -35
-27 -39 4 -2 12 -8 22 -13 22 -5 0 -9 7 -9 15 0 8 -4 15 -9 15 -5 0 -16 -7
-25 -15 -21 -21 -29 -19 -61 16 l-28 32 -12 -23 c-12 -22 -13 -22 -23 -4 -11
19 -11 19 -26 -1 -8 -11 -16 -27 -16 -36 0 -20 -36 -66 -44 -58 -3 3 1 29 10
58 8 29 13 60 11 69 -3 16 -12 -9 -37 -108 -6 -21 -32 -58 -67 -95 -35 -36
-46 -51 -27 -38 17 12 47 40 67 62 32 36 47 42 47 19 0 -18 -76 -90 -139 -132
-36 -25 -84 -61 -106 -80 -22 -19 -42 -33 -44 -30 -9 8 -41 -29 -41 -48 0 -18
-26 -36 -36 -25 -3 3 -1 21 5 40 12 34 69 94 202 209 73 63 119 140 119 201 0
19 3 42 6 51 7 17 34 22 34 6 0 -5 5 -10 12 -10 6 0 8 3 4 8 -9 8 225 28 362
30 50 1 92 1 92 0z m-3389 -70 c-27 -28 -48 -55 -45 -60 3 -4 0 -8 -6 -8 -8 0
-10 -9 -6 -25 6 -24 -7 -35 -18 -16 -8 13 -121 34 -160 29 -62 -7 -51 3 89 82
53 30 111 49 158 49 l38 1 -50 -52z m2835 -10 c-12 -76 -49 -140 -117 -203
-153 -144 -167 -160 -178 -202 -13 -46 -27 -61 -44 -44 -24 24 12 89 107 190
140 148 147 160 171 274 4 22 11 27 36 27 31 0 32 0 25 -42z m-1034 -40 c40
-78 62 -159 45 -174 -16 -15 -125 -50 -212 -67 -69 -14 -70 -14 -103 11 -18
14 -42 38 -53 54 -12 16 -24 27 -27 24 -2 -3 0 -11 6 -19 6 -7 8 -18 4 -24
-10 -15 -79 -33 -130 -33 -37 0 -49 5 -80 38 -52 54 -69 77 -77 101 -3 12 -12
21 -20 21 -10 0 -11 5 -2 24 9 18 30 31 73 45 96 33 95 33 170 -77 38 -57 56
-65 30 -13 -16 30 -16 31 11 44 24 12 172 67 263 97 52 18 71 8 102 -52z m910
20 c-5 -60 -37 -113 -138 -227 -62 -71 -104 -140 -107 -178 -4 -47 -53 -41
-57 7 -5 61 2 81 55 149 30 39 55 74 55 77 0 3 10 19 21 36 21 29 41 87 40
120 0 22 16 34 59 46 61 18 75 12 72 -30z m-2423 13 c-19 -16 -22 -22 -11 -32
10 -11 12 -10 12 3 0 9 5 20 12 24 7 5 9 2 5 -9 -6 -16 18 -31 34 -21 6 3 33
-6 60 -21 28 -14 54 -24 57 -21 3 3 0 6 -6 6 -7 0 -12 7 -12 15 0 8 -5 15 -12
15 -6 0 -8 3 -5 6 8 8 107 -37 107 -48 0 -4 -9 -12 -20 -18 -11 -6 -62 -42
-112 -81 -51 -38 -104 -72 -117 -76 -33 -8 -241 67 -241 88 0 4 30 31 68 61
37 29 69 56 70 60 2 5 8 8 12 8 5 0 29 13 52 30 48 33 84 41 47 11z m2207 -48
c-3 -10 -8 -31 -12 -48 -7 -31 -47 -113 -86 -175 -17 -27 -22 -51 -23 -102 0
-55 -3 -68 -16 -68 -9 0 -24 18 -34 40 -18 40 -18 42 4 109 12 37 31 82 41 99
11 17 22 54 26 82 5 41 12 54 33 65 38 21 74 19 67 -2z m-3932 -109 c3 -9 6
-76 6 -149 0 -126 1 -135 23 -156 18 -17 30 -20 72 -15 28 3 66 6 85 6 l35 0
-3 136 c-3 92 0 140 8 148 22 22 30 -19 28 -137 -2 -64 1 -117 5 -117 5 0 5
-5 1 -12 -5 -8 18 -10 92 -4 54 3 113 9 129 11 40 7 121 13 169 14 37 1 38 2
33 31 -5 22 -3 30 8 30 7 0 24 13 37 29 23 30 78 53 78 32 0 -11 -23 -33 -78
-77 -17 -14 -30 -29 -27 -33 2 -5 30 -4 62 1 32 5 88 8 124 5 37 -2 73 -1 80
3 8 5 40 11 71 14 56 5 57 5 45 -14 -9 -16 -23 -20 -67 -20 -30 0 -62 -5 -70
-10 -12 -8 -11 -10 8 -10 24 0 30 -15 8 -23 -7 -3 -82 1 -167 8 -142 12 -215
9 -144 -6 26 -6 23 -7 -17 -8 -26 0 -50 4 -53 9 -3 6 -11 10 -16 10 -6 0 -7
-4 -4 -10 4 -6 -36 -10 -112 -11 -104 0 -213 -9 -308 -23 -16 -3 -93 -12 -170
-22 -152 -17 -275 -39 -455 -79 -188 -42 -321 -66 -338 -62 -14 3 -14 5 3 11
85 32 42 27 -100 -10 -126 -34 -284 -66 -304 -62 -11 2 -5 10 19 24 42 25 95
40 85 24 -7 -12 12 -12 40 0 18 8 18 9 2 9 -10 1 -16 5 -13 10 11 18 112 60
156 65 l45 6 -40 -11 c-51 -13 -125 -48 -125 -60 0 -12 24 -11 95 6 33 8 92
21 130 30 70 17 188 38 405 74 63 11 158 27 210 36 52 9 110 18 128 21 39 6
33 24 -9 24 l-29 0 0 128 c0 139 5 172 26 172 19 0 24 -28 27 -163 3 -167 21
-151 27 25 3 79 9 149 13 156 11 17 24 15 31 -4z m3569 -66 c-5 -56 -3 -65 16
-82 11 -11 21 -27 21 -36 0 -9 11 -27 25 -40 31 -30 32 -40 1 -40 -34 0 -126
92 -126 125 0 16 -6 25 -15 25 -26 0 -16 37 19 74 52 56 66 49 59 -26z m-1333
0 l63 -42 -49 -22 c-27 -13 -79 -34 -116 -48 l-68 -26 -82 20 c-46 10 -94 20
-107 22 -49 6 -30 25 51 52 46 14 112 39 148 55 36 16 72 29 81 30 9 1 45 -18
79 -41z m6061 10 c0 -7 0 -49 -1 -92 -2 -91 -18 -131 -54 -138 -45 -9 -69 13
-93 82 -12 36 -22 71 -22 77 -1 7 27 26 62 41 98 46 107 48 108 30z m-5796
-118 c77 -23 150 -46 162 -52 11 -6 25 -8 31 -4 5 3 36 -1 68 -10 38 -10 98
-14 171 -13 112 1 145 12 78 25 -19 3 -33 9 -30 13 7 12 66 0 72 -15 8 -22 44
-18 36 4 -5 13 -1 12 16 -5 18 -20 32 -23 91 -23 38 0 82 -5 97 -12 41 -18
153 -90 153 -99 0 -21 -246 -49 -940 -104 -172 -14 -252 -22 -565 -61 -123
-15 -147 -17 -275 -27 -52 -5 -67 -4 -50 3 36 13 -67 2 -148 -16 -80 -18 -379
-65 -449 -71 -40 -4 -53 -2 -53 9 1 15 82 72 119 83 16 5 20 10 12 18 -8 8 25
21 117 48 70 21 141 43 157 50 17 6 48 15 70 19 22 4 -205 6 -505 5 -319 -2
-562 -7 -585 -13 -31 -7 8 -10 168 -11 197 -1 210 -2 225 -21 10 -11 62 -38
116 -60 81 -33 106 -39 140 -33 23 3 44 11 48 17 5 8 10 8 19 -1 8 -8 3 -13
-20 -18 -17 -4 -44 -13 -60 -21 -51 -26 -292 -104 -302 -99 -5 4 1 16 14 28
13 12 21 21 19 20 -2 -1 -20 6 -40 14 -24 10 -83 17 -177 20 -136 4 -144 6
-265 50 -69 25 -129 49 -134 53 -4 5 5 15 20 23 l29 15 -45 -4 c-133 -13 -367
-21 -379 -14 -10 5 11 10 55 14 38 3 96 11 129 16 84 13 347 38 490 45 66 4
174 15 240 25 73 12 213 22 360 26 222 7 235 9 170 18 -108 17 -64 25 80 16
176 -12 688 -15 705 -5 7 4 94 12 194 17 322 16 387 20 383 25 -3 2 -61 8
-129 13 -135 9 -290 38 -285 53 1 5 36 19 77 31 41 12 84 27 95 34 25 15 39
13 210 -38z m4053 -41 c15 -25 30 -39 43 -39 38 0 77 -28 81 -57 3 -28 3 -28
76 -27 49 1 72 -2 69 -9 -2 -6 7 -27 20 -46 13 -18 23 -41 23 -50 0 -35 41
-144 70 -185 16 -24 49 -55 73 -69 49 -29 72 -70 65 -117 -4 -24 -1 -30 11
-28 8 2 18 14 22 28 8 30 -24 91 -86 165 -64 77 -111 156 -129 219 -26 90 -16
104 80 107 52 2 78 -6 69 -21 -9 -15 52 -182 114 -313 34 -70 61 -136 61 -146
0 -12 -12 -24 -28 -32 -30 -13 -114 -118 -126 -156 -8 -26 -24 -28 -112 -13
-76 14 -224 61 -224 72 0 4 -10 8 -22 8 -13 0 -31 7 -40 14 -16 12 -16 15 7
36 32 30 17 49 -19 25 -32 -21 -146 -37 -164 -22 -9 7 -21 6 -39 -2 -14 -6
-28 -10 -30 -7 -10 10 23 44 53 55 19 7 34 19 34 27 0 11 -16 14 -73 14 -43 0
-78 5 -85 12 -9 9 -12 6 -12 -15 0 -23 -5 -29 -30 -34 -38 -7 -49 -23 -16 -23
14 0 28 5 31 11 15 23 39 4 40 -33 l2 -36 -81 -16 c-45 -9 -120 -20 -167 -25
-48 -4 -92 -12 -98 -16 -7 -4 -40 -9 -74 -11 -34 -2 -115 -12 -179 -22 -89
-13 -121 -22 -131 -36 -15 -20 -80 -34 -157 -35 -33 -1 -41 2 -30 9 12 8 10
10 -10 9 -35 -1 -189 -26 -167 -28 26 -2 20 -18 -10 -26 -33 -8 -336 -34 -342
-29 -8 7 26 13 112 19 49 4 87 8 85 10 -2 2 -75 0 -163 -3 -88 -3 -145 -9
-126 -12 38 -6 55 -30 22 -30 -11 0 -49 9 -83 20 -35 11 -81 24 -103 30 -23 5
-51 19 -63 30 -32 31 -42 25 -40 -24 1 -50 -9 -64 -72 -100 -35 -20 -39 -25
-25 -36 29 -24 17 -33 -35 -26 -76 10 -100 1 -100 -39 0 -58 -6 -64 -53 -53
-63 14 -133 1 -224 -43 -45 -21 -85 -39 -90 -39 -4 0 -25 -16 -47 -36 -35 -32
-38 -33 -32 -12 3 13 6 31 6 42 0 13 5 17 20 13 11 -3 17 -1 14 4 -3 6 5 9 18
7 12 -2 25 2 28 7 3 6 -11 11 -30 13 -19 2 -39 10 -43 18 -15 26 -72 -16 -62
-45 4 -9 0 -11 -11 -7 -18 7 -124 -39 -124 -54 0 -6 -6 -10 -13 -10 -14 0
-160 99 -165 112 -2 4 -10 8 -17 8 -7 0 -23 8 -36 19 l-23 18 22 7 c26 8 28
28 7 46 -13 11 -19 8 -40 -15 l-24 -29 -12 28 c-12 25 -11 30 6 43 18 13 15
14 -35 8 -30 -4 -83 -13 -117 -21 -34 -7 -108 -18 -165 -23 -57 -6 -132 -17
-168 -25 -36 -8 -132 -20 -215 -25 -163 -11 -392 -21 -335 -15 68 8 102 15 96
21 -7 7 110 73 129 73 18 0 86 72 81 85 -2 7 4 22 15 33 22 24 25 42 7 42 -6
0 -3 7 8 16 10 8 13 12 5 8 -9 -5 -12 -3 -7 4 4 7 13 12 19 12 7 0 28 13 47
30 19 16 40 29 47 30 7 0 17 8 22 19 6 10 21 21 33 24 13 4 32 14 43 24 11 10
37 29 58 42 20 12 35 27 32 31 -3 5 17 21 45 36 28 15 48 29 46 32 -7 7 -162
-52 -244 -93 -41 -20 -77 -34 -80 -30 -4 3 0 10 8 15 8 6 11 10 5 9 -5 0 -44
-20 -85 -43 -70 -41 -101 -46 -66 -10 9 8 16 21 16 28 0 30 64 73 134 90 26 6
28 5 17 -8 -19 -23 -8 -20 46 14 56 35 321 115 468 141 39 7 72 16 75 19 3 4
41 10 85 13 44 3 100 12 125 21 45 15 259 45 470 66 63 6 165 18 225 25 134
17 408 29 380 17 -11 -5 -25 -7 -32 -5 -6 3 -58 -3 -115 -11 -56 -9 -121 -18
-143 -20 -22 -2 7 -2 65 0 58 3 133 7 168 11 82 8 80 -6 -8 -53 -38 -20 -70
-40 -70 -45 0 -5 -7 -9 -15 -9 -8 0 -15 -4 -15 -9 0 -4 -28 -23 -62 -41 -35
-19 -91 -51 -126 -72 -34 -21 -65 -38 -68 -38 -8 0 17 43 40 68 24 27 104 67
153 77 49 10 55 29 7 21 -96 -18 -133 -29 -184 -54 -55 -27 -55 -27 -60 -80
-5 -43 -3 -50 6 -37 8 10 15 12 18 6 4 -6 -10 -33 -31 -61 -28 -38 -44 -50
-64 -50 -41 0 -42 -24 -3 -90 20 -33 37 -71 38 -85 1 -23 4 -25 53 -25 71 0
103 -13 96 -39 -4 -18 -1 -21 21 -19 14 1 26 6 26 12 0 12 52 56 66 56 7 0 22
9 35 20 l24 19 -23 1 c-13 0 -32 -5 -43 -11 -16 -8 -25 -7 -38 5 -16 15 -19
15 -31 1 -17 -21 -30 -19 -30 5 0 32 -41 43 -62 18 -10 -11 -18 -30 -18 -41 0
-16 -3 -18 -11 -10 -8 8 -9 20 -1 42 11 31 6 71 -9 71 -5 0 -9 5 -9 10 0 7 6
7 20 0 11 -6 20 -8 20 -5 0 3 18 -6 39 -19 39 -25 54 -25 45 -1 -7 17 15 30
28 17 13 -13 38 -4 38 13 0 13 69 65 87 65 6 0 44 16 84 35 41 19 81 35 89 35
9 0 48 11 88 24 39 13 117 34 174 46 142 31 135 27 104 55 -31 29 -34 30 -55
11 -10 -8 -50 -15 -103 -19 -71 -4 -86 -2 -81 9 7 18 1 18 -44 -6 -21 -10 -73
-34 -115 -53 -43 -19 -75 -37 -70 -42 4 -4 2 -5 -4 -2 -15 9 -118 -27 -147
-50 -16 -13 -21 -26 -19 -47 3 -26 2 -28 -12 -13 -9 8 -16 20 -16 26 0 14 -17
14 -25 1 -3 -5 -1 -10 5 -10 11 0 34 -50 26 -58 -11 -10 -55 28 -50 43 7 17
-21 21 -31 5 -9 -15 -25 -12 -25 4 0 8 16 24 36 37 56 34 191 99 208 99 8 0
21 6 28 13 7 6 20 13 28 15 7 2 25 11 39 21 14 10 47 28 72 39 25 12 52 28 59
37 7 8 29 22 49 31 20 9 48 22 63 30 14 8 35 14 46 14 12 0 24 5 27 10 3 6 -1
10 -10 10 -9 0 -13 5 -10 11 4 6 19 9 33 8 15 -2 33 0 40 5 8 5 26 -2 47 -18
35 -27 40 -41 49 -140 9 -89 75 -121 179 -87 37 12 121 94 131 128 8 26 32 36
56 23 18 -10 77 -4 84 9 2 3 -19 7 -47 9 -28 1 -52 3 -54 5 -1 2 3 18 9 35 12
32 38 44 38 18 0 -24 252 -42 375 -27 108 13 132 4 75 -28 -39 -22 -52 -41
-28 -41 6 0 49 18 95 41 64 32 89 50 111 82 16 24 37 43 50 45 30 5 28 -14 -3
-22 -14 -4 -25 -11 -25 -16 0 -23 -60 -68 -153 -115 -56 -28 -115 -58 -132
-67 -16 -9 -59 -29 -95 -43 -36 -15 -79 -33 -97 -41 -17 -8 -45 -17 -62 -20
-17 -4 -28 -10 -25 -15 3 -5 -2 -9 -11 -9 -13 0 -131 -54 -144 -66 -23 -22
119 5 171 32 30 16 31 18 13 26 -13 5 -2 6 29 2 27 -3 57 -11 66 -16 10 -6 26
-8 36 -4 17 7 15 9 -11 20 l-30 13 40 17 c22 10 85 35 140 56 178 67 259 102
303 132 38 26 50 29 105 26 l61 -3 11 45 c8 36 17 48 43 59 18 8 32 17 32 21
0 3 -22 27 -48 53 -37 36 -58 49 -92 55 -24 4 -45 13 -47 19 -6 16 61 48 114
57 38 6 153 50 153 58 0 2 -10 4 -21 5 -30 3 -33 8 -14 36 14 22 19 24 48 15
22 -7 40 -23 55 -49z m-2498 -174 c14 -1 133 -3 265 -4 151 -2 233 -6 220 -11
-24 -11 100 -5 130 6 19 7 19 6 4 -12 -11 -13 -14 -25 -9 -39 5 -11 9 -14 9
-7 1 19 21 14 21 -6 0 -14 -9 -19 -42 -21 -23 -1 -45 -4 -49 -7 -4 -2 -67 -4
-140 -5 -101 0 -136 3 -146 14 -13 12 -9 15 28 21 25 4 45 3 49 -3 3 -7 25 -1
55 14 l48 25 -59 0 c-32 0 -111 -4 -174 -9 -63 -5 -162 -12 -220 -16 -58 -3
-145 -10 -195 -15 -49 -5 -130 -12 -180 -15 -313 -21 -904 -104 -1095 -155
-105 -27 -180 -47 -285 -75 -49 -13 -126 -34 -170 -48 -184 -57 -168 -43 32
28 l133 48 -3 31 -2 31 150 5 150 6 -151 2 -150 2 2 35 c2 20 6 40 9 45 4 6
74 10 168 10 195 0 598 17 693 30 38 5 128 16 199 25 144 18 274 44 291 57 25
19 105 26 244 21 80 -2 156 -6 170 -8z m1869 -51 c44 -9 39 -22 -11 -28 -81
-10 -529 -16 -524 -7 10 16 60 23 221 30 241 11 280 12 314 5z m-6834 -135
c40 -5 112 -7 169 -3 71 5 100 3 105 -5 5 -8 61 -14 157 -19 l149 -7 -49 -23
c-59 -27 -146 -29 -248 -6 -65 15 -72 15 -80 0 -12 -21 -53 -20 -132 1 -40 10
-75 14 -99 9 -46 -9 -39 -26 11 -27 55 -1 10 -17 -50 -18 -27 -1 -48 -5 -48
-10 0 -11 -66 -35 -77 -28 -5 2 -33 1 -63 -3 -56 -8 -170 -2 -170 9 0 3 9 17
19 30 l18 23 40 -20 c34 -18 52 -20 112 -15 69 6 70 6 43 20 -17 9 -49 13 -87
11 -48 -2 -60 0 -60 12 0 10 17 18 51 25 28 6 58 15 66 22 31 26 84 43 118 38
19 -3 67 -10 105 -16z m3669 -88 c31 -26 18 -49 -47 -86 -65 -35 -147 -48
-162 -25 -4 7 -14 5 -28 -5 -31 -22 -93 -19 -117 5 -30 30 -25 40 20 40 23 0
48 7 60 17 25 21 26 33 3 33 -15 0 -16 2 -3 10 8 5 26 10 41 10 14 0 29 4 35
9 22 22 169 16 198 -8z m-1957 1 c-28 -30 -21 -45 16 -38 129 25 196 28 273
12 166 -33 274 -65 293 -88 8 -10 23 -18 32 -18 21 0 43 -26 34 -40 -4 -6 4
-10 17 -10 23 0 48 -16 48 -30 0 -13 -238 -20 -265 -8 -31 14 -32 28 -2 29 12
1 -11 5 -50 9 -44 5 -87 16 -108 29 -20 12 -47 21 -61 21 -47 0 -309 61 -323
75 -18 17 -19 16 44 48 60 31 74 33 52 9z m-267 -116 c-8 -10 -8 -21 -2 -32
11 -20 109 -59 197 -79 33 -7 69 -17 80 -20 l20 -8 -20 16 c-17 14 -17 16 -4
17 9 0 32 -7 50 -15 31 -13 32 -14 10 -15 -40 0 -13 -16 67 -39 39 -12 72 -26
72 -31 0 -6 16 -10 35 -10 19 0 35 -3 35 -8 0 -4 15 -13 33 -21 39 -17 67 -40
67 -56 0 -7 -22 -24 -49 -37 -41 -22 -48 -23 -44 -9 5 19 -24 36 -122 71 -33
12 -68 26 -77 31 -10 5 -26 9 -36 9 -27 0 -373 88 -399 101 -11 6 -53 19 -93
28 -39 9 -71 20 -71 26 0 5 27 14 59 21 32 7 85 26 118 43 66 34 94 40 74 17z
m-1365 -17 c44 -6 82 -13 84 -15 3 -2 -4 -10 -14 -18 -16 -12 -6 -15 86 -25
164 -19 175 -21 158 -32 -21 -13 -98 -11 -229 6 -63 8 -191 21 -285 30 -278
26 -355 38 -355 54 0 11 472 11 555 0z m847 -100 c57 -7 108 -16 115 -21 6 -5
43 -10 82 -10 38 -1 68 -5 65 -9 -4 -8 40 -19 66 -17 36 3 65 -2 52 -10 -8 -6
1 -13 30 -21 24 -8 54 -17 68 -22 14 -4 53 -11 88 -14 34 -4 65 -11 68 -16 3
-5 18 -9 34 -9 36 0 264 -57 312 -79 79 -35 25 -60 -67 -32 -33 10 -103 26
-155 36 -52 9 -129 24 -170 32 -67 14 -130 24 -320 52 -30 5 -89 16 -130 24
-41 9 -102 19 -135 22 -33 4 -65 12 -72 17 -7 5 -38 11 -70 12 -116 5 -364 40
-388 55 -28 17 392 25 527 10z m1858 -29 c44 0 44 -1 20 -15 -14 -7 -41 -21
-60 -29 -19 -9 -42 -20 -50 -26 -14 -9 -161 -81 -205 -100 -11 -5 -59 -27
-108 -49 -48 -22 -95 -41 -105 -43 -9 -2 -20 -7 -24 -13 -4 -5 -11 3 -17 17
-6 15 -22 35 -36 44 l-26 17 49 21 c27 12 56 27 64 34 9 7 20 12 24 11 12 -3
40 8 86 32 20 11 54 20 76 22 22 1 38 5 35 10 -2 4 10 10 27 13 17 4 33 11 36
15 3 5 25 9 50 9 24 0 44 5 44 10 0 6 9 10 21 10 13 0 18 4 13 12 -5 8 0 9 17
5 13 -4 44 -7 69 -7z m-3055 -41 c61 -6 133 -11 160 -11 65 0 283 -26 298 -35
6 -3 29 -6 51 -5 23 1 79 -5 126 -13 47 -8 146 -22 222 -30 75 -8 156 -19 180
-24 38 -9 206 -27 338 -36 40 -3 195 -18 320 -30 174 -17 368 -50 384 -66 15
-14 -65 -11 -136 6 -77 18 -261 34 -518 46 -107 5 -226 13 -265 18 -38 5 -191
19 -340 30 -148 12 -283 27 -300 33 -48 17 -261 36 -474 42 -207 7 -462 23
-470 31 -8 8 2 12 84 33 91 24 182 27 340 11z m7905 -41 c0 -20 1 -20 20 -3
23 21 57 16 151 -20 43 -17 76 -24 102 -21 37 5 39 4 33 -19 -3 -13 -9 -30
-12 -39 -14 -37 41 -11 100 46 36 34 46 39 75 34 39 -6 75 -43 115 -116 29
-53 25 -65 -9 -26 -11 13 -34 26 -51 30 -27 6 -37 2 -59 -20 -41 -41 -76 -126
-82 -197 -2 -34 -11 -78 -18 -97 -7 -19 -18 -80 -24 -135 -7 -55 -13 -113 -15
-130 -2 -16 0 -37 5 -46 5 -11 3 -28 -7 -47 -12 -26 -13 -35 -2 -53 10 -17 10
-23 1 -26 -7 -3 -13 -13 -13 -23 0 -10 -4 -22 -10 -25 -6 -4 -10 7 -10 26 0
19 -7 37 -17 45 -17 12 -17 13 0 19 24 10 22 52 -3 60 -11 3 -20 11 -20 16 0
6 5 7 10 4 6 -3 10 -2 10 4 0 16 -22 25 -29 12 -7 -11 -6 86 3 202 2 26 0 47
-4 47 -9 0 -45 -97 -65 -180 -12 -45 -26 -74 -45 -92 -16 -16 -31 -28 -34 -28
-11 0 -6 36 6 48 10 10 10 17 0 33 -10 15 -10 24 -2 34 22 27 -6 22 -40 -7
l-35 -29 30 5 c17 4 24 3 18 0 -7 -3 -13 -14 -13 -24 0 -26 -12 -31 -46 -21
-16 4 -40 4 -52 0 -17 -6 -35 -3 -65 11 -48 24 -47 23 -47 7 0 -7 15 -21 34
-31 53 -28 93 -73 78 -88 -7 -7 -12 -24 -12 -39 0 -15 -7 -29 -16 -33 -27 -10
-36 -7 -30 12 3 9 2 22 -2 27 -18 25 -86 67 -116 72 -32 5 -33 4 -29 -20 4
-19 0 -27 -17 -32 -25 -8 -50 10 -50 36 0 12 7 19 20 19 23 0 38 26 24 40 -14
14 -54 0 -47 -16 3 -8 0 -14 -6 -14 -6 0 -11 7 -11 15 0 8 -2 15 -4 15 -3 0
-51 -16 -108 -36 -203 -70 -228 -82 -228 -108 -1 -30 -65 -72 -124 -80 -27 -4
-55 -10 -62 -13 -12 -4 -12 0 -4 22 10 27 10 27 -12 13 -13 -8 -45 -22 -71
-32 -27 -10 -46 -20 -43 -23 2 -2 14 0 25 7 15 8 27 8 42 0 22 -12 20 -38 -2
-31 -29 8 -52 1 -112 -36 -34 -21 -74 -44 -88 -50 -25 -11 -26 -13 -15 -47 6
-20 16 -36 22 -36 25 0 73 23 71 33 -1 7 7 11 18 10 52 -5 89 -14 94 -22 3 -4
12 -10 20 -12 21 -7 -79 -51 -244 -108 -82 -29 -196 -70 -253 -92 -57 -21
-107 -39 -111 -39 -5 0 -5 17 0 38 17 74 7 139 -16 102 -9 -14 -81 -50 -88
-44 -8 8 -57 -21 -96 -56 -18 -16 -37 -30 -41 -30 -5 0 -12 -12 -18 -28 -10
-30 4 -52 35 -52 14 -1 13 -4 -7 -15 -40 -23 -58 -18 -68 18 l-9 32 -8 -37
c-4 -21 -11 -36 -16 -33 -12 8 16 91 45 135 21 33 86 90 86 77 0 -3 -16 -21
-36 -41 -20 -20 -34 -40 -30 -43 4 -4 13 2 21 14 7 11 40 37 72 59 32 21 63
44 68 49 6 6 28 17 50 24 22 7 58 21 80 31 37 17 97 43 260 112 33 14 77 32
98 39 20 7 37 16 37 20 0 4 15 11 33 14 17 4 41 14 52 23 l20 14 -20 -7 c-11
-5 -30 -9 -42 -9 -11 -1 -19 -4 -16 -8 2 -5 -3 -8 -13 -8 -9 0 -32 -9 -50 -21
-22 -13 -42 -18 -56 -14 -18 5 -20 4 -8 -4 12 -9 12 -11 1 -11 -8 0 -38 -11
-67 -25 -29 -14 -63 -26 -76 -28 -13 -1 -26 -6 -29 -11 -4 -4 -17 -5 -30 -1
-23 7 -22 9 16 22 21 7 42 17 45 21 3 5 21 14 40 22 38 14 189 85 363 170 93
45 127 70 127 95 0 3 -11 10 -25 15 -14 5 -25 14 -25 20 0 12 -4 11 83 14 50
2 67 -1 67 -11 0 -17 20 -16 44 2 39 30 8 36 -162 31 -154 -5 -177 -3 -292 22
l-125 27 62 7 c69 7 87 14 77 29 -4 7 -66 9 -163 7 -121 -2 -155 0 -154 10 2
6 -5 13 -15 13 -46 3 125 30 213 34 135 5 288 20 303 29 7 4 9 12 6 18 -7 12
-169 1 -218 -14 -17 -5 -98 -14 -181 -18 -82 -5 -167 -12 -187 -15 -24 -5 -38
-3 -38 3 0 11 9 14 63 26 15 4 27 10 27 15 0 5 -16 5 -37 0 -21 -5 -41 -9 -44
-9 -4 0 -6 33 -6 74 l1 73 51 1 c27 0 100 14 160 31 174 48 502 99 652 102 32
1 72 5 88 9 23 6 15 8 -37 9 -52 1 -68 4 -68 15 0 8 5 18 10 21 22 14 -4 26
-43 20 -385 -50 -510 -73 -605 -107 -34 -12 -99 -23 -161 -28 -110 -8 -121
-13 -121 -63 0 -25 2 -27 21 -16 29 15 35 3 31 -60 -3 -40 -8 -51 -21 -51 -46
0 -224 -91 -208 -106 7 -7 51 13 72 33 22 21 106 53 137 53 20 0 25 -19 6 -24
-70 -18 -132 -43 -141 -57 -7 -9 -31 -27 -55 -39 -38 -20 -55 -40 -33 -40 13
0 63 27 70 38 8 13 99 58 134 66 23 6 28 4 25 -10 -2 -10 -14 -18 -29 -20 -43
-4 -95 -30 -137 -68 -22 -20 -46 -36 -54 -36 -19 0 -64 -48 -53 -57 4 -5 10
-2 12 5 3 6 11 12 18 12 8 0 20 6 27 13 15 14 64 37 79 37 17 0 -17 -41 -50
-61 -17 -10 -31 -26 -31 -34 0 -9 5 -13 11 -9 16 9 2 -34 -21 -67 -11 -16 -15
-30 -10 -35 6 -6 3 -38 -6 -79 -9 -39 -18 -81 -20 -94 -8 -38 -22 -13 -33 58
-11 69 -26 96 -37 68 -10 -27 -24 -9 -25 31 0 20 -3 32 -6 25 -3 -8 -8 -9 -16
-3 -7 6 -23 19 -37 29 l-25 20 38 -9 c29 -6 37 -5 37 6 0 12 -51 46 -66 43 -8
-1 -24 22 -24 35 0 5 7 3 15 -4 8 -7 15 -9 15 -5 0 4 11 0 25 -9 24 -16 25
-16 25 4 0 14 -10 24 -29 31 -16 6 -32 17 -35 25 -4 10 -2 12 5 8 7 -4 10 -1
7 7 -3 8 -11 13 -17 11 -6 -1 -11 2 -11 8 0 5 5 10 10 10 19 0 10 32 -10 37
-11 3 -20 9 -20 14 0 5 -9 9 -20 9 -13 0 -24 10 -30 28 -6 15 -15 35 -20 45
-14 24 12 23 35 -2 20 -23 95 -62 95 -50 0 4 -4 18 -9 31 -4 13 -11 37 -15 53
-5 25 -4 27 5 11 10 -16 15 -10 43 51 17 38 38 77 46 87 66 81 86 90 240 106
52 6 102 13 110 16 8 3 53 9 100 14 47 5 135 22 195 39 107 30 157 40 435 81
74 11 145 25 158 30 30 13 32 13 32 -5 0 -26 26 -28 88 -6 48 16 96 21 245 26
l185 7 12 -24 c7 -13 24 -35 38 -51 32 -34 42 -22 42 49 0 48 -2 51 -36 67
-31 15 -35 21 -32 50 3 28 7 32 31 32 21 -1 27 4 27 20 0 12 3 25 6 28 12 12
44 -14 44 -35z m-1299 -158 c11 0 12 -27 1 -34 -5 -3 -57 -12 -117 -21 -59 -9
-124 -22 -144 -30 -20 -7 -85 -16 -144 -20 -98 -5 -108 -4 -105 11 2 9 10 20
18 24 12 7 157 37 210 44 9 1 20 5 26 8 5 4 23 7 40 7 16 0 63 4 104 9 41 5
81 8 88 6 8 -2 18 -4 23 -4z m-7086 -80 c3 -5 22 -10 41 -10 19 0 34 5 34 10
0 6 9 10 20 10 11 0 20 -6 20 -14 0 -7 17 -20 38 -29 35 -14 27 -15 -163 -16
-110 -1 -270 -5 -355 -10 -93 -6 -159 -6 -164 0 -6 6 -4 9 5 9 7 0 100 5 204
10 202 10 287 22 293 39 5 14 19 14 27 1z m5025 -60 c11 -11 23 -20 28 -20 8
0 119 -74 145 -97 9 -9 17 -25 17 -35 0 -19 36 -38 79 -41 23 -2 44 -27 22
-27 -12 0 -54 -81 -46 -88 6 -7 65 58 65 71 0 6 9 2 20 -8 57 -52 -8 -148
-162 -237 -49 -29 -44 -20 -166 -276 -8 -17 -17 -30 -19 -28 -3 2 3 21 13 41
16 34 16 39 2 63 -9 15 -19 42 -23 60 -3 17 -11 32 -15 32 -5 0 -7 7 -4 15 9
21 -13 19 -38 -5 -12 -11 -28 -20 -37 -20 -20 0 24 47 62 67 19 9 27 20 23 29
-4 11 0 15 16 12 26 -4 37 -28 13 -28 -13 0 -15 -3 -7 -12 5 -7 12 -35 14 -61
6 -63 23 -81 33 -35 4 18 16 44 26 57 11 13 19 38 19 55 0 18 5 37 12 44 9 9
8 12 -5 12 -11 0 -17 -8 -17 -22 0 -13 -4 -29 -9 -37 -10 -16 -31 -6 -31 14 0
12 -40 43 -47 36 -2 -1 -19 -9 -40 -17 l-37 -16 28 37 c15 20 26 38 24 40 -1
2 -15 6 -30 10 -23 6 -26 4 -21 -14 4 -16 -7 -32 -43 -66 -43 -39 -54 -45 -88
-43 -24 2 -41 -2 -44 -10 -2 -6 3 -12 12 -12 9 0 16 -4 16 -10 0 -14 -27 -12
-33 3 -3 9 -8 9 -23 0 -106 -69 -221 -133 -240 -133 -13 0 -27 -7 -32 -16 -5
-8 -20 -21 -33 -27 -18 -9 -27 -27 -38 -70 -7 -31 -18 -57 -24 -57 -9 0 -7 26
9 124 l7 39 -89 -6 c-49 -4 -120 -13 -159 -21 -126 -26 -546 -58 -470 -37 17
5 46 9 66 10 20 0 50 8 65 16 16 8 37 15 47 15 10 0 28 6 40 14 12 8 40 16 63
18 22 2 54 14 71 26 18 12 54 24 86 28 31 4 55 10 52 13 -14 24 43 40 365 106
73 15 165 50 194 74 15 13 20 13 24 3 3 -10 13 -6 33 14 31 30 39 22 13 -14
-8 -12 -11 -22 -6 -22 14 0 39 54 41 91 0 11 6 17 11 14 7 -4 9 3 6 20 -4 24
-3 25 11 13 10 -8 14 -8 10 -1 -4 6 -3 14 3 18 6 4 8 10 6 14 -5 8 -2 14 92
151 35 50 62 94 59 96 -2 2 -50 -54 -106 -125 -57 -72 -108 -132 -115 -134 -6
-2 -24 -3 -41 -1 -23 2 -38 -5 -65 -30 -63 -61 -163 -96 -270 -96 -47 0 -66
12 -37 23 6 3 7 6 1 6 -5 1 -20 -8 -32 -19 -12 -12 -22 -18 -22 -15 0 3 -17
-2 -37 -11 -50 -22 -153 -44 -153 -33 0 5 13 9 29 9 15 0 56 15 91 32 134 69
193 153 188 268 -1 33 -5 60 -8 60 -3 0 -16 3 -30 7 -24 6 -24 6 -9 -18 44
-66 29 -107 -68 -189 -19 -15 -20 -14 -20 43 0 33 -10 72 -26 110 l-26 57 -93
1 c-81 1 -87 2 -48 10 82 15 433 68 565 85 72 9 150 20 175 24 88 15 148 12
170 -10z m1214 -117 c57 -25 66 -33 92 -84 25 -48 27 -55 12 -51 -10 2 -18 8
-18 12 0 15 -80 43 -108 37 -25 -5 -34 0 -65 38 -40 47 -44 60 -24 68 25 11
50 6 111 -20z m-2604 -201 c131 -126 172 -172 167 -185 -4 -11 -17 -17 -34
-17 -54 1 -82 23 -337 263 -92 87 -95 107 -18 107 l49 0 173 -168z m2070 158
c0 -5 -5 -10 -11 -10 -8 0 -8 -5 1 -15 8 -10 31 -15 64 -15 28 -1 69 -7 91
-15 57 -21 77 -17 30 6 -22 10 -57 19 -78 19 -31 0 -38 3 -35 18 5 25 50 18
132 -23 38 -19 73 -32 78 -29 4 3 11 -3 15 -13 9 -25 26 -34 35 -20 5 8 8 7 8
-4 0 -9 7 -20 16 -23 8 -3 13 -10 9 -15 -3 -6 -12 -8 -20 -5 -8 4 -13 10 -10
14 6 9 -25 23 -34 15 -11 -11 53 -52 73 -47 15 4 18 1 13 -11 -4 -11 -2 -14 9
-10 8 3 24 -3 34 -12 16 -14 17 -21 8 -32 -9 -11 -7 -19 10 -36 12 -12 22 -16
22 -9 0 7 -4 12 -10 12 -5 0 -10 8 -10 18 0 14 4 12 20 -8 13 -17 15 -27 7
-32 -14 -9 9 -39 26 -32 15 5 72 -99 63 -114 -3 -6 -1 -12 6 -14 8 -3 11 -22
9 -54 -2 -52 8 -92 32 -115 7 -8 17 -39 21 -69 l6 -55 -41 94 c-22 52 -52 111
-65 130 -13 20 -24 44 -24 53 0 10 -4 18 -10 18 -5 0 -25 23 -43 50 -19 28
-55 67 -81 87 -34 26 -43 39 -34 45 10 6 10 10 -2 18 -8 5 -11 10 -6 10 5 0
25 -12 45 -27 l36 -26 -40 41 c-21 23 -47 42 -57 42 -10 0 -18 6 -18 13 0 17
-106 70 -142 71 -14 1 -26 6 -25 11 1 6 -10 11 -25 13 -25 3 -28 0 -28 -26 l0
-29 -100 -6 c-85 -5 -111 -11 -168 -38 -37 -18 -80 -42 -97 -54 -16 -13 -41
-28 -55 -34 l-25 -12 21 18 c12 10 31 25 43 33 18 13 19 16 7 25 -18 14 -8 30
19 30 11 0 20 7 20 15 0 15 60 33 84 25 10 -4 12 3 7 29 -6 30 -4 34 20 40 15
4 41 17 58 30 17 12 39 21 50 18 11 -2 16 0 12 7 -9 14 1 31 20 31 8 0 14 -4
14 -10z m3348 -43 c0 -17 -7 -39 -15 -47 -8 -8 -31 -40 -53 -70 -42 -59 -80
-100 -92 -100 -13 0 -9 28 7 44 15 14 20 36 10 36 -3 0 -28 -11 -55 -25 -53
-27 -70 -31 -70 -15 0 6 6 10 14 10 30 0 216 160 216 186 0 13 20 24 32 17 4
-2 6 -18 6 -36z m-5774 11 c7 -7 84 -80 170 -162 86 -82 156 -156 156 -163 0
-8 -10 -18 -22 -23 l-23 -9 23 0 c12 -1 22 -5 22 -10 0 -10 -74 -21 -139 -21
-56 1 -38 14 34 25 46 7 48 8 22 16 -15 4 -47 24 -70 45 -92 81 -297 288 -297
300 0 25 99 26 124 2z m-156 -70 c111 -101 282 -271 282 -279 0 -28 -15 -39
-51 -39 -35 0 -48 8 -107 62 -64 60 -122 118 -240 242 -29 31 -51 60 -47 66 3
5 26 10 51 10 41 0 50 -5 112 -62z m4896 -279 c-11 -19 77 -89 102 -83 12 3
25 1 29 -6 5 -8 11 -8 19 0 7 5 34 13 60 16 39 6 46 4 46 -11 0 -11 -5 -15
-15 -11 -8 3 -15 2 -15 -3 0 -12 -48 -31 -63 -25 -8 2 -13 -4 -14 -16 -2 -25
13 -25 54 0 18 10 42 21 55 22 13 2 29 7 37 12 7 5 27 10 45 11 17 1 24 0 15
-2 -8 -2 -30 -20 -48 -39 -24 -24 -39 -33 -52 -29 -14 5 -19 1 -19 -10 0 -14
-6 -16 -36 -10 -27 5 -41 2 -55 -11 -15 -13 -30 -16 -71 -11 -28 4 -56 11 -62
17 -5 5 -22 10 -36 10 -50 0 -203 74 -197 95 2 5 20 18 40 28 32 16 40 17 54
5 9 -7 14 -8 10 -2 -9 15 10 30 59 48 48 18 67 19 58 5z m944 -21 c-5 -41 14
-112 34 -135 11 -12 17 -27 13 -33 -4 -6 -1 -17 5 -25 13 -15 4 -39 -11 -30
-15 10 -173 55 -192 55 -10 0 -20 -7 -24 -16 -8 -20 25 -112 48 -138 28 -29
39 -72 25 -91 -10 -14 -17 -8 -53 47 -23 35 -53 75 -68 91 -35 36 -34 104 2
118 29 11 32 49 3 49 -15 0 -20 -7 -20 -25 0 -18 -5 -25 -19 -25 -11 0 -21 -8
-24 -17 -2 -10 -4 4 -4 30 0 39 6 54 28 78 30 32 54 37 63 13 5 -13 9 -14 21
-4 8 7 15 21 15 32 0 19 1 19 26 -1 15 -12 32 -21 38 -21 6 0 22 -9 36 -20 14
-11 28 -20 33 -20 4 0 7 25 7 55 0 31 4 55 10 55 6 0 10 -10 8 -22z m-4026
-139 c24 -10 58 -69 60 -104 2 -21 -30 -125 -38 -125 -10 0 -80 48 -93 64 -7
9 -20 16 -27 16 -23 0 -16 37 12 59 35 28 47 27 83 -9 19 -20 32 -26 37 -19 7
12 -27 48 -62 67 -17 9 -28 5 -63 -24 -24 -19 -48 -34 -52 -34 -25 0 1 34 83
107 17 15 31 16 60 2z m408 -25 c0 -9 8 -23 18 -31 13 -11 14 -15 3 -20 -30
-12 -50 -44 -62 -97 -7 -31 -15 -55 -19 -54 -4 2 -31 31 -59 66 l-52 63 28 44
c28 45 28 45 86 45 46 0 57 -3 57 -16z m-6417 -109 c50 -27 116 -43 362 -86
169 -29 249 -46 230 -48 -5 -1 -71 8 -146 20 l-136 22 -31 -21 c-35 -26 -51
-27 -113 -8 -25 8 -57 12 -72 9 -15 -3 -40 0 -57 7 -28 12 -28 13 -14 36 23
35 13 53 -15 25 -34 -34 -56 -24 -58 27 -1 23 0 42 2 42 2 0 24 -11 48 -25z
m7584 -90 c7 -59 17 -122 23 -138 16 -46 12 -69 -20 -133 l-29 -59 -3 223 c-3
245 9 289 29 107z m-6582 -204 c165 -22 466 -51 640 -62 169 -10 205 -18 205
-41 0 -5 -6 -3 -14 4 -9 10 -74 17 -227 26 -118 7 -328 25 -467 42 -139 16
-261 26 -270 23 -15 -6 -15 -5 -3 10 7 10 22 15 35 12 11 -2 57 -8 101 -14z
m8310 -30 c22 -5 31 -9 21 -10 -11 0 -16 -4 -12 -8 3 -4 -4 -13 -16 -20 -32
-17 -8 -16 47 3 55 18 83 14 34 -6 -19 -7 -56 -23 -84 -36 -95 -41 -220 -95
-265 -114 -25 -10 -88 -36 -140 -58 -147 -61 -628 -252 -634 -252 -4 0 -25 -9
-49 -19 -23 -11 -125 -53 -227 -94 -211 -85 -376 -155 -470 -197 -35 -16 -66
-28 -67 -26 -2 2 -1 10 2 17 5 13 49 33 215 99 60 24 299 124 342 143 18 9 87
36 153 62 66 25 134 52 150 60 17 7 48 20 70 28 87 33 292 116 327 134 21 10
37 24 38 31 0 15 60 43 74 35 5 -4 15 2 22 12 11 14 16 16 28 6 12 -10 23 -8
54 8 22 11 43 17 47 13 5 -4 5 -1 1 6 -5 8 0 12 16 13 16 1 12 4 -12 9 l-35 7
35 2 c19 2 28 5 20 8 -32 13 -39 43 -10 43 11 0 20 -4 20 -10 0 -5 7 -10 16
-10 11 0 13 6 9 19 -3 11 -1 22 5 26 6 3 8 10 5 15 -3 5 12 17 32 26 21 10 40
21 43 24 15 20 122 26 195 11z m-2509 -648 c-3 -3 -12 0 -20 6 -9 8 -16 8 -20
2 -8 -12 24 -30 41 -24 10 4 33 -33 33 -53 0 -10 -18 -2 -39 18 -27 24 -54 15
-59 -20 -3 -22 37 -92 53 -92 6 0 16 -9 23 -20 12 -20 12 -21 -17 -6 -16 9
-32 24 -35 34 -4 10 -20 32 -37 48 -25 24 -39 29 -83 30 -51 1 -116 21 -116
37 0 5 8 6 18 3 66 -21 150 4 186 56 11 15 22 19 40 16 22 -5 26 -1 28 21 1
16 3 11 5 -13 3 -21 2 -40 -1 -43z m-2221 -13 c-19 -9 -19 -9 3 -16 12 -3 22
-11 22 -18 0 -6 4 -5 9 3 6 9 15 -3 30 -43 26 -71 26 -74 -5 -134 -27 -53 -61
-80 -51 -42 3 13 0 20 -9 20 -8 0 -13 -5 -11 -12 1 -6 -7 -13 -18 -15 -15 -3
-17 -2 -6 5 7 6 11 15 7 20 -7 12 -37 4 -48 -12 -5 -7 -8 -6 -8 3 0 8 -8 24
-19 35 -34 38 -35 72 -3 104 18 19 32 45 36 71 6 41 7 41 49 40 33 0 38 -2 22
-9z m1765 -264 c0 -58 -4 -107 -8 -110 -5 -3 -22 -1 -38 4 -16 4 -26 9 -21 9
4 1 1 14 -8 31 -8 16 -15 40 -15 53 0 13 -3 27 -7 31 -4 4 -9 25 -10 47 l-3
39 55 0 55 0 0 -104z m-6504 75 c-12 -13 -14 -21 -6 -26 12 -7 3 -46 -13 -56
-5 -4 -1 -12 11 -18 15 -8 23 -8 28 0 3 6 19 9 35 7 16 -3 30 0 32 5 1 5 18 2
36 -7 26 -14 30 -20 20 -32 -14 -17 2 -20 29 -5 9 5 26 5 37 0 16 -6 14 -8
-14 -8 -24 -1 -32 -5 -28 -15 4 -9 0 -12 -11 -9 -13 3 -21 -7 -31 -41 -15 -52
-28 -59 -90 -51 -90 13 -111 23 -112 58 -2 59 2 92 14 117 14 30 66 100 74
100 4 0 -2 -9 -11 -19z m5751 -257 c-6 -7 -117 -21 -412 -54 -377 -41 -461
-47 -630 -43 -118 3 -206 -1 -288 -11 -115 -16 -246 -21 -235 -11 3 3 50 12
104 20 55 9 113 20 131 26 62 20 308 56 326 47 10 -5 25 -5 36 2 11 5 30 10
43 9 19 -1 17 -3 -9 -10 -35 -10 -54 -29 -29 -29 9 0 16 5 16 10 0 6 7 10 16
10 8 0 12 -4 9 -10 -3 -5 1 -10 9 -10 9 0 16 5 16 11 0 7 23 10 63 9 85 -3
112 -1 103 7 -4 4 -17 8 -29 8 -206 11 -20 21 397 23 203 1 367 -1 363 -4z
m303 -221 c0 -11 -264 -72 -335 -78 -33 -2 -107 -6 -165 -9 -109 -4 -96 2 50
23 41 6 106 19 144 28 112 26 306 49 306 36z m1107 -26 c-5 -16 -112 -79 -172
-101 -60 -22 -219 -34 -229 -17 -4 6 -2 11 3 11 16 0 13 21 -5 41 -14 16 -11
17 59 17 74 1 116 8 210 38 28 10 45 20 41 26 -5 7 0 9 13 6 12 -3 27 -2 34 3
16 10 52 -8 46 -24z"/>
<path d="M9037 5003 c-3 -5 -9 -25 -15 -46 -10 -35 -9 -38 17 -51 15 -8 33
-22 40 -30 11 -13 9 -16 -11 -21 -12 -3 -33 -4 -46 -3 -30 4 -75 -63 -55 -83
15 -15 92 -29 158 -30 71 -1 77 0 71 9 -3 5 6 15 20 23 14 7 35 26 46 41 10
15 28 28 39 28 25 0 24 17 -2 25 -11 4 -53 29 -94 56 -41 27 -78 49 -82 49 -5
0 -19 9 -33 20 -26 21 -46 25 -53 13z"/>
<path d="M6305 4391 c11 -5 98 -16 194 -26 144 -15 178 -22 194 -38 18 -18 24
-19 108 -7 49 7 86 16 84 20 -3 5 -31 11 -62 14 -32 3 -142 15 -245 26 -193
21 -310 25 -273 11z"/>
<path d="M10388 4335 c-45 -16 -88 -44 -88 -57 0 -24 33 -75 58 -90 15 -9 47
-36 73 -61 25 -25 62 -52 82 -61 49 -20 47 -12 -5 20 -24 15 -48 33 -55 40
-16 15 -17 40 -2 50 8 4 8 9 0 17 -15 15 -14 44 1 49 8 3 3 10 -12 18 -45 24
-53 56 -18 69 12 4 17 10 12 13 -5 3 -25 0 -46 -7z"/>
<path d="M7860 4084 c-96 -13 -202 -26 -234 -29 -70 -7 -76 -9 -69 -33 4 -17
0 -18 -61 -9 -59 9 -78 7 -183 -19 -65 -16 -109 -30 -98 -32 11 -1 29 -19 40
-40 12 -22 29 -38 42 -40 12 -2 27 -10 33 -18 14 -16 48 -18 69 -5 19 12 44
-1 206 -110 112 -76 136 -88 161 -83 33 6 61 -16 98 -76 l21 -36 60 12 c33 7
50 12 38 13 -17 1 -23 7 -23 24 0 13 -9 50 -20 83 -27 78 -25 155 7 214 14 26
59 76 108 119 46 41 82 78 79 83 -8 12 -83 8 -274 -18z m-278 -224 c50 -24 49
-24 42 -5 -9 22 6 18 30 -8 64 -70 121 -141 121 -151 0 -27 -37 -13 -101 39
-38 30 -97 68 -131 85 -65 30 -82 47 -38 36 18 -5 25 -2 25 9 0 19 3 19 52 -5z"/>
<path d="M10186 3994 c-9 -8 -16 -22 -16 -30 0 -9 -10 -14 -28 -14 -28 0 -222
-46 -230 -55 -13 -13 9 -11 73 6 79 21 114 28 167 32 23 1 38 7 38 15 0 7 6
15 14 18 15 6 128 -21 158 -37 25 -13 38 -11 38 6 0 8 -7 15 -16 15 -8 0 -13
3 -11 8 3 4 1 16 -3 27 -7 18 -18 21 -88 23 -62 2 -84 -1 -96 -14z"/>
<path d="M9210 3760 c-128 -22 -190 -25 -191 -7 0 6 -6 -1 -13 -17 -8 -17 -15
-24 -18 -16 -3 10 -14 11 -53 2 -105 -23 -173 -34 -370 -59 -33 -5 -60 -12
-60 -17 0 -31 234 -50 402 -33 81 8 81 8 76 -14 -4 -16 -2 -20 8 -17 8 3 14
13 14 24 0 16 10 20 60 25 33 3 51 7 40 8 l-20 2 20 9 c14 6 16 9 5 10 -8 2
30 8 85 16 65 9 104 19 111 29 7 9 27 15 56 15 50 0 63 7 47 26 -7 9 -26 11
-62 7 -48 -6 -51 -5 -38 10 7 10 12 16 10 16 -2 -1 -51 -10 -109 -19z"/>
<path d="M10420 3385 c0 -8 -5 -15 -11 -15 -13 0 -6 -51 17 -118 8 -23 14 -65
14 -92 0 -69 22 -66 60 9 19 39 20 49 10 89 -16 63 -58 142 -75 142 -8 0 -15
-7 -15 -15z"/>
<path d="M10080 3129 c-47 -4 -123 -10 -170 -13 -140 -8 -230 -18 -230 -26 0
-13 143 -18 205 -7 33 5 131 10 218 11 146 1 160 -1 173 -18 16 -22 19 -96 4
-96 -5 0 -10 -4 -10 -10 0 -5 6 -10 13 -10 17 0 42 45 32 59 -3 7 -8 28 -10
48 -2 19 -9 42 -17 49 -18 18 -106 24 -208 13z"/>
<path d="M6799 3225 c-7 -19 -18 -35 -25 -35 -6 0 -15 -7 -18 -16 -3 -9 -12
-14 -19 -11 -15 6 -30 -14 -68 -90 -27 -56 -26 -58 36 -42 22 5 58 15 80 20
22 6 55 24 72 41 31 30 32 33 16 50 -9 10 -22 18 -30 18 -16 0 -16 5 -3 31 10
17 8 18 -15 9 -29 -11 -36 9 -10 30 17 14 20 30 6 30 -5 0 -15 -16 -22 -35z"/>
<path d="M7270 3168 c-87 -11 -83 -11 -100 -4 -11 4 -23 -8 -43 -41 -15 -27
-37 -62 -48 -79 l-19 -31 51 10 c44 9 58 7 105 -13 37 -15 64 -20 82 -15 15 3
37 8 50 9 36 4 64 53 57 101 -7 44 -30 76 -54 74 -9 -1 -45 -6 -81 -11z"/>
<path d="M259 7043 c-13 -9 -30 -25 -37 -35 -7 -10 -27 -25 -43 -34 -25 -13
-28 -18 -18 -30 7 -8 18 -13 25 -10 7 3 16 1 19 -4 4 -6 21 -10 38 -10 42 0
107 -19 107 -30 0 -6 8 -10 18 -10 26 1 -24 40 -60 47 -15 3 -28 12 -28 19 0
21 28 17 47 -6 20 -23 45 -27 37 -5 -4 10 0 15 15 15 12 0 20 -3 19 -7 -3 -15
14 -62 27 -73 24 -20 38 15 32 76 -6 59 -13 76 -25 57 -13 -21 -46 -19 -50 2
-7 37 -21 39 -36 5 -13 -32 -14 -32 -25 -12 -8 14 -8 23 0 27 5 4 8 12 6 18
-5 17 -42 17 -68 0z"/>
<path d="M762 6876 c-7 -23 -6 -50 4 -87 8 -29 14 -61 14 -70 0 -18 36 -69 49
-69 11 0 29 39 36 77 6 29 4 32 -11 26 -12 -4 -15 -3 -10 5 5 8 0 12 -13 12
-25 0 -27 13 -6 34 20 19 19 41 -2 77 -24 40 -50 38 -61 -5z"/>
<path d="M1107 6828 c-15 -11 -16 -18 -6 -46 7 -21 18 -32 30 -32 20 0 26 -24
9 -35 -23 -14 9 -150 34 -142 6 2 14 29 17 61 7 63 10 68 41 73 32 5 34 12 10
29 -12 8 -22 25 -22 38 0 12 -6 30 -13 39 -16 23 -77 32 -100 15z"/>
<path d="M1040 6675 c-10 -12 -10 -18 0 -31 11 -12 10 -18 -5 -32 -14 -14 -18
-14 -22 -3 -5 11 -7 11 -15 0 -7 -10 -8 -6 -4 14 6 27 0 32 -28 21 -14 -5 -14
-8 -1 -27 19 -28 19 -63 0 -71 -23 -8 -18 -46 12 -90 16 -23 30 -43 33 -46 3
-3 22 -40 43 -82 21 -43 42 -78 46 -78 4 0 8 30 8 66 0 36 6 71 12 77 15 15
14 49 -4 132 -8 39 -17 87 -20 107 -7 44 -36 66 -55 43z"/>
<path d="M932 6328 c-1 -57 -7 -130 -12 -163 -13 -78 -13 -197 0 -230 5 -14
13 -51 16 -83 3 -31 8 -60 10 -63 2 -4 -6 -19 -17 -33 -26 -33 -19 -59 12 -48
26 10 48 70 66 177 6 34 6 39 -2 58 -4 10 -3 17 3 17 21 0 42 59 31 87 -7 20
-6 30 6 43 8 9 15 26 15 37 0 11 7 26 15 33 14 12 14 15 0 30 -8 9 -15 25 -15
36 0 11 -12 37 -27 59 -21 30 -28 36 -31 23 -4 -21 -11 -22 -36 -3 -20 15 -14
35 10 35 11 0 13 6 8 23 -8 27 -34 67 -43 67 -3 0 -7 -46 -9 -102z"/>
<path d="M830 6285 c0 -8 -11 -17 -25 -21 -39 -10 -48 -62 -30 -159 15 -75 28
-106 40 -93 12 12 23 114 14 130 -16 29 -10 60 11 65 11 3 20 8 21 12 2 15 7
40 14 60 5 18 2 21 -19 21 -16 0 -26 -6 -26 -15z"/>
<path d="M190 5901 c-13 -9 -56 -16 -106 -19 l-84 -5 0 -793 c0 -444 4 -794 9
-794 4 0 7 35 5 78 -2 51 1 87 10 107 20 43 20 269 0 286 -19 15 -18 73 1 89
12 10 15 32 14 88 -1 53 2 77 12 84 20 13 118 2 138 -16 14 -13 60 -16 287
-18 l269 -3 1 -48 c0 -26 -3 -50 -8 -53 -11 -7 -10 -44 2 -44 9 0 6 -129 -6
-230 -5 -36 -8 -41 -16 -26 -5 9 -7 24 -4 33 4 8 -2 29 -13 47 -10 17 -22 46
-26 64 -6 29 -10 33 -31 28 -18 -5 -31 0 -50 19 -14 14 -31 25 -38 25 -8 0
-16 6 -19 14 -12 31 -112 61 -150 47 -20 -8 -30 -6 -48 10 -12 10 -30 19 -41
19 -10 0 -32 14 -50 30 -17 17 -32 29 -33 28 -2 -2 -5 -54 -9 -116 -4 -62 -9
-118 -12 -125 -3 -8 17 -28 48 -50 29 -20 71 -54 93 -74 49 -45 89 -73 108
-73 7 0 26 -13 42 -30 16 -16 31 -30 35 -30 3 0 4 17 2 37 -4 33 -3 36 11 25
9 -7 30 -15 49 -17 37 -5 61 -31 77 -87 14 -46 25 -48 46 -8 19 37 19 49 -1
71 -19 22 -12 51 11 43 11 -4 15 1 16 17 1 14 3 17 6 9 2 -8 21 -28 41 -43 30
-23 45 -28 82 -25 36 2 46 -1 48 -15 2 -9 8 -17 15 -17 6 0 3 -6 -7 -13 -11
-8 -17 -20 -14 -28 3 -10 12 -5 33 16 18 19 29 26 32 18 3 -7 12 -13 20 -13
13 0 14 8 9 43 -11 69 -14 94 -26 277 -12 163 -14 177 -36 198 -21 20 -22 26
-13 45 7 12 18 26 25 30 19 11 17 37 -6 75 -12 19 -28 32 -40 32 -13 0 -20 7
-20 20 0 11 4 20 9 20 6 0 16 12 23 28 9 19 21 27 38 27 21 0 27 -7 37 -45 6
-25 12 -73 12 -108 1 -35 5 -82 10 -105 21 -95 41 -206 48 -262 4 -36 8 -50
11 -35 4 25 -8 136 -33 315 -8 55 -14 116 -14 135 1 19 -10 76 -24 125 -14 50
-30 122 -37 162 -11 70 -34 114 -56 106 -14 -5 -30 15 -36 47 -13 61 -41 156
-49 166 -5 6 -18 45 -28 85 -17 66 -21 74 -43 75 -13 0 -29 3 -36 8 -9 5 -12
-2 -10 -26 2 -21 10 -37 23 -43 11 -6 21 -20 23 -33 2 -12 21 -40 43 -63 35
-37 54 -89 31 -89 -15 0 -66 44 -171 146 -71 70 -116 105 -140 112 -118 34
-280 40 -321 13z m-10 -60 c26 -14 59 -19 134 -20 54 -1 132 -6 174 -11 42 -4
80 -6 84 -4 12 8 48 -15 48 -30 0 -15 -35 -11 -57 6 -21 16 -39 -35 -22 -60
14 -19 19 -22 40 -22 5 0 7 -4 4 -10 -3 -5 -1 -10 4 -10 6 0 11 5 11 10 0 18
18 10 25 -10 4 -11 10 -18 15 -15 4 2 19 -4 33 -15 31 -25 43 -25 57 -2 10 15
11 15 6 0 -3 -9 -1 -18 4 -20 6 -2 12 -108 14 -240 5 -250 5 -252 -41 -243
-27 6 -326 25 -421 26 -61 1 -87 -2 -100 -13 -20 -18 -113 -29 -136 -16 -9 5
-16 19 -16 32 0 13 -7 29 -15 36 -17 14 -20 87 -4 92 17 6 17 342 0 362 -9 11
-11 31 -7 63 4 27 8 62 9 78 1 17 9 35 17 42 23 19 101 15 140 -6z"/>
<path d="M93 4183 c-71 -5 -86 -26 -32 -43 54 -18 57 -27 12 -47 -63 -29 -73
-41 -73 -94 0 -45 2 -48 28 -51 21 -2 32 4 47 27 22 33 69 44 103 26 14 -7 24
-6 38 4 11 8 33 15 50 15 40 0 48 9 28 32 -14 15 -15 20 -4 34 8 9 22 13 34
10 11 -3 27 0 35 6 13 10 14 10 4 -2 -7 -8 -13 -18 -13 -22 0 -12 28 -10 32 3
3 8 15 8 46 0 45 -13 52 -24 25 -40 -16 -9 -14 -12 14 -23 43 -16 58 -51 37
-83 -15 -23 -22 -25 -95 -25 -72 0 -79 2 -79 20 0 11 -3 20 -7 21 -87 10 -113
8 -123 -10 -5 -11 -7 -27 -4 -35 4 -11 1 -16 -10 -16 -9 0 -16 4 -16 9 0 17
-34 22 -42 6 -6 -9 -23 -15 -46 -15 -70 0 -82 -8 -82 -51 l0 -39 93 0 c50 0
135 6 187 13 103 15 208 14 339 -3 91 -12 263 -4 296 13 11 6 26 10 34 8 16
-3 31 16 31 42 0 14 -10 17 -57 18 -32 0 -73 6 -92 13 l-35 12 24 17 24 17
-37 37 c-41 40 -44 63 -9 78 27 12 28 21 2 35 -30 16 -59 3 -66 -28 -12 -53
-15 -60 -30 -66 -23 -9 -32 1 -40 40 -7 35 -8 36 -46 31 -30 -4 -51 1 -95 25
-47 25 -65 29 -105 26 -34 -4 -51 -1 -60 9 -7 9 -21 12 -34 9 -13 -4 -28 0
-36 7 -22 22 -113 36 -195 30z"/>
<path d="M1050 4032 c0 -4 -45 -8 -100 -8 -102 -1 -128 -9 -117 -38 4 -11 19
-16 42 -16 29 0 35 -4 33 -17 -2 -14 3 -18 26 -16 19 1 40 -7 58 -22 16 -14
41 -28 55 -31 18 -5 23 -12 20 -25 -4 -13 5 -25 28 -39 39 -24 73 -26 102 -5
16 11 34 14 62 9 33 -5 42 -3 47 11 5 11 1 22 -9 30 -18 13 -63 9 -73 -6 -3
-5 -18 -9 -35 -9 -24 0 -29 4 -29 25 0 15 -6 25 -14 25 -15 0 -30 45 -20 61 3
6 22 8 45 4 34 -6 39 -4 39 13 0 30 -26 45 -75 44 -24 -1 -47 2 -50 8 -7 12
-35 14 -35 2z"/>
<path d="M12557 3834 c5 -13 -31 -29 -46 -19 -5 3 -12 1 -16 -5 -8 -13 -48
-13 -61 0 -7 7 -18 5 -35 -8 -19 -15 -38 -19 -87 -17 -47 3 -65 0 -69 -11 -6
-17 -35 -18 -103 -2 -40 9 -56 9 -71 0 -10 -7 -43 -12 -73 -12 -30 0 -56 -5
-58 -10 -2 -6 -45 -12 -98 -14 -93 -4 -129 -11 -141 -29 -3 -4 -39 -13 -80
-19 -41 -5 -87 -12 -104 -15 -56 -9 -206 -6 -217 5 -16 16 -38 3 -38 -22 0
-30 63 -46 183 -46 50 0 135 -5 187 -11 52 -6 111 -12 130 -14 19 -2 139 -11
265 -21 195 -14 232 -19 246 -34 13 -15 39 -19 165 -24 82 -4 197 -9 257 -12
l107 -6 0 182 0 181 -124 -2 c-94 -2 -123 -5 -119 -15z"/>
<path d="M43 3762 l-43 -3 0 -70 0 -69 53 0 c28 0 180 -7 335 -15 317 -15 464
-11 460 13 -2 9 10 19 30 26 32 11 33 12 14 29 -11 10 -35 17 -60 17 -23 0
-71 11 -108 25 -57 21 -84 25 -188 26 -66 0 -195 6 -286 12 -91 7 -184 11
-207 9z"/>
<path d="M11284 3484 c3 -22 9 -63 12 -92 8 -61 7 -60 129 -67 44 -2 121 -9
170 -15 123 -15 246 -12 266 6 14 12 18 12 34 -6 24 -26 49 -25 68 3 l16 22 0
-22 c1 -13 5 -23 10 -23 12 0 21 61 21 141 l0 67 -197 6 c-109 3 -274 9 -367
12 l-169 6 7 -38z"/>
<path d="M12215 2601 c-3 -5 3 -16 12 -23 19 -13 43 -72 43 -102 0 -9 7 -19
15 -22 8 -4 15 -14 15 -24 0 -10 5 -31 12 -47 6 -15 10 -36 9 -46 -1 -9 4 -20
12 -23 9 -3 18 -17 22 -32 19 -81 27 -102 37 -102 14 0 4 148 -11 163 -5 5 -7
15 -5 22 3 6 -2 18 -11 25 -8 7 -15 18 -15 25 0 6 -9 20 -21 31 -14 13 -19 27
-16 47 2 15 0 30 -5 33 -4 3 -8 14 -8 25 0 10 -6 19 -14 19 -7 0 -16 9 -19 20
-5 21 -41 28 -52 11z"/>
<path d="M11736 2588 c-2 -7 -8 -27 -13 -44 -13 -39 -7 -50 34 -59 28 -6 32
-10 27 -30 -4 -17 1 -27 18 -39 l23 -17 -30 -24 c-71 -57 -68 -53 -46 -84 24
-34 77 -59 92 -44 13 13 19 105 7 119 -5 7 -11 35 -15 63 -4 34 -10 51 -20 51
-7 0 -16 7 -19 15 -4 8 -15 15 -25 15 -21 0 -26 29 -9 46 12 12 3 44 -11 44
-5 0 -11 -6 -13 -12z"/>
</g>
</svg>
