<?xml version="1.0" encoding="UTF-8"?>
<svg version="1.1" xmlns="http://www.w3.org/2000/svg" width="27" height="27">
<path d="M0 0 C0.47050781 0.40992187 0.94101563 0.81984375 1.42578125 1.2421875 C2.04839844 1.78101563 2.67101562 2.31984375 3.3125 2.875 C3.92738281 3.40867187 4.54226563 3.94234375 5.17578125 4.4921875 C7.13498212 6.1640447 7.13498212 6.1640447 10 8 C12.64 5.36 15.28 2.72 18 0 C19.32 0.66 20.64 1.32 22 2 C22.33 2.99 22.66 3.98 23 5 C20.36 7.64 17.72 10.28 15 13 C15.94875 14.093125 16.8975 15.18625 17.875 16.3125 C19.76954348 18.49534358 21.3889658 20.5834487 23 23 C22.34 23.99 21.68 24.98 21 26 C15.64847115 25.67566492 12.71719957 22.50295176 9 19 C8.55269531 19.51691406 8.10539063 20.03382812 7.64453125 20.56640625 C5.83906492 22.53355613 4.0971513 24.34481034 2 26 C-0.9375 25.9375 -0.9375 25.9375 -3 25 C-3.33 24.01 -3.66 23.02 -4 22 C-1.36 19.36 1.28 16.72 4 14 C3.05125 12.906875 2.1025 11.81375 1.125 10.6875 C-0.76954348 8.50465642 -2.3889658 6.4165513 -4 4 C-2.68 2.68 -1.36 1.36 0 0 Z " fill="#A1A1A1" transform="translate(4,1)"/>
</svg>
