<?xml version="1.0" encoding="UTF-8"?>
<svg version="1.1" xmlns="http://www.w3.org/2000/svg" width="567" height="406">
<path d="M0 0 C3.52874763 0.88218691 5.47800092 1.82468431 8.5625 3.5625 C15.4535388 6.78200809 21.91317748 6.34088135 29.3359375 6.0859375 C33.31313034 5.95535273 37.05407986 6.31936924 41 6.875 C47.07224592 7.47290657 50.72331525 5.62680208 55.7578125 2.34765625 C58 1 58 1 61 1 C61 4.3 61 7.6 61 11 C69.35143848 12.51844336 73.51747242 11.92271745 80.6875 7.34765625 C83 6 83 6 86 6 C86 8.97 86 11.94 86 15 C96.94631146 16.14554422 103.82408607 13.39274102 113 8 C113.33 11.63 113.66 15.26 114 19 C121.26184626 20.87953668 125.43061128 21.9192802 132.0625 18.0625 C132.94035156 17.47597656 133.81820313 16.88945313 134.72265625 16.28515625 C135.47417969 15.86105469 136.22570312 15.43695313 137 15 C137.99 15.33 138.98 15.66 140 16 C140 18.64 140 21.28 140 24 C149.12735415 25.95703629 154.39229208 24.45519848 162.28515625 19.56640625 C165 18 165 18 168 18 C168 21.3 168 24.6 168 28 C177.55474023 29.86090685 183.1000473 28.69434646 191.3203125 23.46875 C192.20460938 22.9840625 193.08890625 22.499375 194 22 C194.99 22.33 195.98 22.66 197 23 C197 25.97 197 28.94 197 32 C198.44375 32.28875 199.8875 32.5775 201.375 32.875 C205.75 33.75 205.75 33.75 208 36 C208.17553419 39.08524939 208.23122797 42.07964202 208.1953125 45.1640625 C208.19106766 46.52487442 208.19106766 46.52487442 208.18673706 47.91317749 C208.17552153 50.81725123 208.15041463 53.72101912 208.125 56.625 C208.11497197 58.59114139 208.10584581 60.5572876 208.09765625 62.5234375 C208.07557772 67.34907659 208.04103865 72.1744864 208 77 C209.65 77.33 211.3 77.66 213 78 C213 80.31 213 82.62 213 85 C211.35 85.33 209.7 85.66 208 86 C208 97.88 208 109.76 208 122 C209.32 122.66 210.64 123.32 212 124 C211.67 126.31 211.34 128.62 211 131 C210.01 131.33 209.02 131.66 208 132 C208.0928125 133.11117187 208.185625 134.22234375 208.28125 135.3671875 C209.06371135 148.88477703 209.06371135 148.88477703 204.1875 155.0625 C202.04296875 157.41015625 202.04296875 157.41015625 200 159 C199.01 159 198.02 159 197 159 C195.53901155 156.0780231 195.88865099 153.50106525 195.90234375 150.2421875 C195.90446617 149.24761032 195.90446617 149.24761032 195.90663147 148.23294067 C195.91223246 146.11358137 195.924785 143.99432741 195.9375 141.875 C195.94251488 140.43880361 195.94707781 139.00260556 195.95117188 137.56640625 C195.96220218 134.04423655 195.97946741 130.52212855 196 127 C195.08476562 126.79503906 194.16953125 126.59007812 193.2265625 126.37890625 C192.03804688 126.10949219 190.84953125 125.84007812 189.625 125.5625 C188.44164062 125.29566406 187.25828125 125.02882813 186.0390625 124.75390625 C183 124 183 124 181 123 C181.02094727 123.85231201 181.04189453 124.70462402 181.06347656 125.58276367 C181.13185244 128.76029433 181.18189738 131.93744871 181.21972656 135.11547852 C181.2397799 136.48800023 181.26703028 137.86043717 181.30175781 139.23266602 C181.35054552 141.21072044 181.37088876 143.18941119 181.390625 145.16796875 C181.41157227 146.35672607 181.43251953 147.5454834 181.45410156 148.77026367 C180.91167303 152.62821368 179.74797223 154.28811806 177 157 C176.34 157 175.68 157 175 157 C174.67 157.99 174.34 158.98 174 160 C173.34 160 172.68 160 172 160 C170.96494237 151.47823718 170.68723398 142.94750111 170.4375 134.375 C170.39419373 132.97525068 170.35057613 131.57551096 170.30664062 130.17578125 C170.20137682 126.78394746 170.10026623 123.3919852 170 120 C165.38 118.68 160.76 117.36 156 116 C155.67 122.93 155.34 129.86 155 137 C152.36 137 149.72 137 147 137 C146.73628326 129.1753612 146.47532379 121.35063544 146.21769714 113.52579403 C146.09793407 109.89076748 145.97729023 106.255775 145.85449219 102.62084961 C145.73558672 99.10011772 145.61917924 95.57931063 145.50436401 92.05844307 C145.4395522 90.08968267 145.3722821 88.12100368 145.30493164 86.15232849 C145.02330082 77.42974171 144.95124709 68.72604598 145 60 C143.31777344 59.87044922 143.31777344 59.87044922 141.6015625 59.73828125 C133.75212105 58.85715938 126.07166039 56.91613179 118.375 55.1875 C115.68147315 54.58823619 112.98755883 53.99073388 110.29364014 53.39323425 C108.35801241 52.96377884 106.42250934 52.53376127 104.48712158 52.10322571 C92.72800985 49.48895625 80.95715004 46.92861768 69.18682861 44.36538696 C63.28059528 43.07917645 57.37465501 41.79162332 51.46875 40.50390625 C50.44218292 40.28028412 49.41561584 40.05666199 48.35794067 39.82626343 C47.38839447 39.61490753 46.41884827 39.40355164 45.41992188 39.18579102 C44.49945068 38.98680206 43.57897949 38.78781311 42.63061523 38.58279419 C40.92835018 38.20566941 39.22951855 37.81254099 37.53540039 37.40036011 C28.06165548 35.12123049 20.33445378 36.60674217 10.94921875 38.78125 C9.67371155 39.07066467 8.39820435 39.36007935 7.08404541 39.65826416 C3.65623719 40.4363355 0.23064078 41.22375684 -3.19459915 42.01304626 C-6.02226813 42.66319189 -8.85130216 43.30727433 -11.68040371 43.9511528 C-24.19900043 46.80030341 -36.71109 49.67690188 -49.203125 52.640625 C-49.99329514 52.82794189 -50.78346527 53.01525879 -51.59757996 53.20825195 C-55.03863684 54.02569273 -58.47726108 54.85118561 -61.91333008 55.68945312 C-69.56686155 57.53314628 -77.20034559 58.92887227 -85 60 C-84.98839844 60.86681396 -84.97679687 61.73362793 -84.96484375 62.62670898 C-84.86426889 77.08883552 -85.41854564 91.53012644 -85.92712402 105.98101807 C-86.04990632 109.48792322 -86.16932505 112.99494293 -86.2890625 116.50195312 C-86.52282833 123.33474835 -86.76020433 130.1674138 -87 137 C-89.64 137 -92.28 137 -95 137 C-95.495 126.605 -95.495 126.605 -96 116 C-101.94 117.65 -107.88 119.3 -114 121 C-114.13277344 123.49175781 -114.26554687 125.98351562 -114.40234375 128.55078125 C-114.53375279 130.96351635 -114.66658731 133.37616903 -114.79956055 135.78881836 C-114.89122219 137.46582079 -114.98140126 139.14290494 -115.07006836 140.82006836 C-115.1977611 143.23053633 -115.33077972 145.64066029 -115.46484375 148.05078125 C-115.50343002 148.80087967 -115.5420163 149.55097809 -115.58177185 150.32380676 C-115.7586846 153.42462793 -116.01252024 156.03756073 -117 159 C-120 159 -120 159 -121.66918945 157.44824219 C-123.48035449 154.11630988 -123.33946129 151.60951826 -123.29296875 147.828125 C-123.28872391 147.1457074 -123.28447906 146.46328979 -123.28010559 145.76019287 C-123.26336972 143.58971996 -123.22572959 141.42019021 -123.1875 139.25 C-123.17244646 137.77475303 -123.15875922 136.29949145 -123.14648438 134.82421875 C-123.11603956 131.21549393 -123.05731619 127.60879725 -123 124 C-128.28 125.32 -133.56 126.64 -139 128 C-138.979375 129.959375 -138.95875 131.91875 -138.9375 133.9375 C-138.92892311 142.31712467 -139.43337367 150.64226169 -140 159 C-140.99 159.33 -141.98 159.66 -143 160 C-148.38267992 153.9561405 -148.64730936 149.4794536 -148.3125 141.5625 C-148.28994141 140.54478516 -148.26738281 139.52707031 -148.24414062 138.47851562 C-148.18558687 135.98412561 -148.10364308 133.49285517 -148 131 C-148.99 131 -149.98 131 -151 131 C-151.33 128.69 -151.66 126.38 -152 124 C-150.02 123.505 -150.02 123.505 -148 123 C-148 110.46 -148 97.92 -148 85 C-149.65 85 -151.3 85 -153 85 C-153 82.69 -153 80.38 -153 78 C-151.35 78 -149.7 78 -148 78 C-148 64.47 -148 50.94 -148 37 C-142.06 36.505 -142.06 36.505 -136 36 C-136 33.03 -136 30.06 -136 27 C-132.48791723 27.43901035 -130.70593619 28.19419308 -127.6875 30.1875 C-121.39095317 33.58544307 -113.69957075 31.20332096 -107 30 C-107 27.36 -107 24.72 -107 22 C-103.60348096 22.4043475 -101.15195434 22.91741612 -98.125 24.5625 C-92.05371164 27.35529265 -85.42539425 25.91791346 -79 25 C-79 22.36 -79 19.72 -79 17 C-75.84970637 17.97509088 -73.09835379 18.94188185 -70.25 20.625 C-66.21429532 22.33241352 -63.90243049 21.95420924 -59.625 21.1875 C-58.37976563 20.97480469 -57.13453125 20.76210937 -55.8515625 20.54296875 C-54.91054687 20.36378906 -53.96953125 20.18460938 -53 20 C-53 16.7 -53 13.4 -53 10 C-48.75894211 10.33482036 -45.88154112 11.5571982 -42.25 13.625 C-36.73285782 16.55126538 -33.05543428 16.12458065 -27 15 C-26.67 12.03 -26.34 9.06 -26 6 C-22.2515093 6.37484907 -19.57323636 7.16898349 -16.375 9.0625 C-11.14974211 11.87844637 -5.77874764 11.34672486 0 11 C0 7.37 0 3.74 0 0 Z M17.484375 20.25 C16.25090332 20.52481201 15.01743164 20.79962402 13.74658203 21.08276367 C12.41436078 21.38839041 11.08216755 21.69413927 9.75 22 C8.34898101 22.31503481 6.94777196 22.62922538 5.54638672 22.94262695 C2.57586231 23.60812313 -0.39357218 24.27821664 -3.36230469 24.95166016 C-8.06400399 26.01678976 -12.76974768 27.0632075 -17.4765625 28.10546875 C-18.26301147 28.27966339 -19.04946045 28.45385803 -19.85974121 28.6333313 C-21.43200208 28.98156849 -23.00426766 29.32978444 -24.57653809 29.67797852 C-28.21563393 30.48469082 -31.85393424 31.29496627 -35.4921875 32.10546875 C-44.32742612 34.07345905 -53.16364856 36.03701313 -62 38 C-62 38.33 -62 38.66 -62 39 C-54.24868672 38.4410697 -46.73026663 37.33855437 -39.10546875 35.85546875 C-37.99681961 35.64440994 -36.88817047 35.43335114 -35.7459259 35.21589661 C-32.22548373 34.54470889 -28.7064633 33.86639422 -25.1875 33.1875 C-22.87053979 32.74363354 -20.5534831 32.30027046 -18.23632812 31.85742188 C-17.09777374 31.63966095 -15.95921936 31.42190002 -14.78616333 31.19754028 C-12.50362925 30.7620361 -10.22081285 30.32800894 -7.93771362 29.89547729 C-2.55827433 28.87600893 2.81567904 27.83929038 8.18115234 26.74853516 C10.1038022 26.36991935 12.02648901 25.99149118 13.94921875 25.61328125 C15.21509575 25.34453438 15.21509575 25.34453438 16.50654602 25.07035828 C27.78149262 22.895831 38.92214562 25.3493085 50.0859375 27.28515625 C52.07300782 27.62212008 54.06007908 27.95907846 56.04720497 28.29571438 C59.49052527 28.88043009 62.93272388 29.47167358 66.375 30.0625 C70.51185732 30.77242832 74.6488998 31.48112564 78.78726196 32.18223572 C81.35231217 32.61724546 83.91662233 33.05664767 86.48007202 33.50099182 C88.22316147 33.79646156 88.22316147 33.79646156 90.00146484 34.09790039 C91.52602798 34.35984947 91.52602798 34.35984947 93.08139038 34.62709045 C96.08632856 35.01103016 98.97403832 35.06499104 102 35 C99.19704732 33.48124827 96.64910836 32.571646 93.53295898 31.91845703 C92.65361191 31.73131134 91.77426483 31.54416565 90.86827087 31.35134888 C89.92045242 31.15548187 88.97263397 30.95961487 87.99609375 30.7578125 C87.00360123 30.54816864 86.0111087 30.33852478 84.98854065 30.12252808 C81.80592228 29.451515 78.62176757 28.78813789 75.4375 28.125 C73.3521073 27.6867031 71.26681968 27.24790593 69.18164062 26.80859375 C65.08172676 25.94517796 60.98049142 25.08844183 56.87841797 24.23535156 C53.08522078 23.44399138 49.29861108 22.62906062 45.51611328 21.78808594 C44.66146988 21.60051727 43.80682648 21.41294861 42.92628479 21.21969604 C41.35440608 20.87374802 39.78388097 20.52155481 38.2151947 20.16140747 C31.07068958 18.60138007 24.67598808 18.62056552 17.484375 20.25 Z M102 35 C102 35.33 102 35.66 102 36 C103.98 36 105.96 36 108 36 C108 35.67 108 35.34 108 35 C106.02 35 104.04 35 102 35 Z M108 36 C112 37 112 37 112 37 Z M114 37 C118 38 118 38 118 38 Z M-66 39 C-62 40 -62 40 -62 40 Z M-71 40 C-67 41 -67 41 -67 41 Z M-76 41 C-72 42 -72 42 -72 42 Z M-85 43 C-81 44 -81 44 -81 44 Z M148 43 C148 43.66 148 44.32 148 45 C148.99 44.67 149.98 44.34 151 44 C150.01 43.67 149.02 43.34 148 43 Z M-90 44 C-86 45 -86 45 -86 45 Z M154 45 C154 45.33 154 45.66 154 46 C155.65 46 157.3 46 159 46 C159 45.67 159 45.34 159 45 C157.35 45 155.7 45 154 45 Z M160 46 C160 46.33 160 46.66 160 47 C161.65 47 163.3 47 165 47 C165 46.67 165 46.34 165 46 C163.35 46 161.7 46 160 46 Z M181 51 C181 60.57 181 70.14 181 80 C187.435 79.505 187.435 79.505 194 79 C194.02718316 76.14576808 194.04692705 73.29179985 194.0625 70.4375 C194.07087891 69.63763672 194.07925781 68.83777344 194.08789062 68.01367188 C194.10742247 63.22836896 193.80437018 58.71854949 193 54 C188.90729837 52.53832085 185.35806333 51.72634389 181 51 Z M-135 54 C-135.33 62.25 -135.66 70.5 -136 79 C-131.71 79 -127.42 79 -123 79 C-123 70.09 -123 61.18 -123 52 C-127.05517502 52 -131.02357374 53.20471475 -135 54 Z M155 63 C155 69.27 155 75.54 155 82 C159.62 81.67 164.24 81.34 169 81 C169 76.05 169 71.1 169 66 C167.246875 65.505 165.49375 65.01 163.6875 64.5 C162.70136719 64.2215625 161.71523438 63.943125 160.69921875 63.65625 C157.97712797 62.88187804 157.97712797 62.88187804 155 63 Z M-105.1875 64.5 C-107.435625 64.995 -109.68375 65.49 -112 66 C-112 70.62 -112 75.24 -112 80 C-110.30875 80.33 -108.6175 80.66 -106.875 81 C-105.92367187 81.185625 -104.97234375 81.37125 -103.9921875 81.5625 C-100.51452134 82.1446758 -100.51452134 82.1446758 -95 82 C-95 75.73 -95 69.46 -95 63 C-98.57508924 63 -101.69585047 63.73119643 -105.1875 64.5 Z M-136 86 C-137.04942561 90.19770243 -137.34559548 94.20377627 -137.5625 98.5 C-137.6049585 99.29647949 -137.64741699 100.09295898 -137.69116211 100.91357422 C-138.00997733 107.27833192 -138.11245707 113.62743286 -138 120 C-135.87429688 119.52396226 -133.74945573 119.04407402 -131.625 118.5625 C-130.44164062 118.29566406 -129.25828125 118.02882812 -128.0390625 117.75390625 C-125.10505419 117.14365305 -125.10505419 117.14365305 -123 116 C-123 106.43 -123 96.86 -123 87 C-127.29 86.67 -131.58 86.34 -136 86 Z M181 87 C181 96.24 181 105.48 181 115 C187.98755364 117.65187219 187.98755364 117.65187219 195 119 C195.02913072 114.62501407 195.04684286 110.25005326 195.0625 105.875 C195.07087891 104.6375 195.07925781 103.4 195.08789062 102.125 C195.09111328 100.92617187 195.09433594 99.72734375 195.09765625 98.4921875 C195.10289307 97.39245605 195.10812988 96.29272461 195.11352539 95.15966797 C195.0008558 92.02381895 194.58626376 89.07940617 194 86 C189.65386506 86 185.3245659 86.56754341 181 87 Z M-113 88 C-113.68271293 96.35104207 -114.15392039 104.61988971 -114 113 C-112.51937458 112.73725854 -111.04057715 112.46421764 -109.5625 112.1875 C-108.73878906 112.03667969 -107.91507813 111.88585937 -107.06640625 111.73046875 C-102.97103415 110.75488329 -98.99392735 109.33130912 -95 108 C-95 101.73 -95 95.46 -95 89 C-99.41529789 88.26411702 -102.98267011 87.88869633 -107.375 87.9375 C-108.43460938 87.94652344 -109.49421875 87.95554687 -110.5859375 87.96484375 C-111.38257813 87.97644531 -112.17921875 87.98804688 -113 88 Z M155 89 C155 95.27 155 101.54 155 108 C158.155625 108.99 158.155625 108.99 161.375 110 C163.15003906 110.556875 163.15003906 110.556875 164.9609375 111.125 C167.79323439 112.09222606 167.79323439 112.09222606 170 112 C170 104.08 170 96.16 170 88 C161.46579713 87.75340152 161.46579713 87.75340152 155 89 Z " fill="#010100" transform="translate(258,96)"/>
<path d="M0 0 C2.6875 1.875 2.6875 1.875 5 4 C7.31605689 4.88928767 9.57638497 5.42973764 12 6 C12 7.65 12 9.3 12 11 C11.360625 11.2475 10.72125 11.495 10.0625 11.75 C7.81258459 12.81562433 7.81258459 12.81562433 7.25 15.125 C7.1675 15.74375 7.085 16.3625 7 17 C7.66 17 8.32 17 9 17 C8.33989524 19.84550012 7.48275034 22.52325999 6.4375 25.25 C6.16808594 25.95640625 5.89867187 26.6628125 5.62109375 27.390625 C5.41613281 27.92171875 5.21117187 28.4528125 5 29 C4.01 29 3.02 29 2 29 C5.01957741 32.42508421 7.6706485 33.88249359 11.9375 35.4375 C21.84125935 39.42301285 26.25176455 46.70321878 30.421875 56.2578125 C35.96443941 70.30984344 37.42704796 79.75962892 32.58203125 94.15625 C31 97 31 97 28.51171875 98.03125 C26 98 26 98 23 96 C20.48813039 96.34646477 18.32304201 97.24867844 15.9375 98.125 C13 99 13 99 10 98 C8.68 98 7.36 98 6 98 C6 97.34 6 96.68 6 96 C3.69 96 1.38 96 -1 96 C-1 95.34 -1 94.68 -1 94 C-2.32 94 -3.64 94 -5 94 C-5.33 91.03 -5.66 88.06 -6 85 C-6.66 85 -7.32 85 -8 85 C-8 88.96 -8 92.92 -8 97 C-13.94 97 -19.88 97 -26 97 C-26.76896217 85.84035571 -27.35577464 74.70120383 -27.51489258 63.51489258 C-27.54693522 61.7801535 -27.59508939 60.04564537 -27.65844727 58.31176758 C-28.17639929 43.82939633 -28.17639929 43.82939633 -25.28466797 39.33251953 C-23.26215746 37.53879771 -21.38699614 36.25153834 -19 35 C-18.01 34.34 -17.02 33.68 -16 33 C-15.56044807 27.90119765 -16.21442478 23.8311296 -17.54296875 18.9375 C-18.95404115 12.95551784 -17.96110603 8.30956943 -15 3 C-10.83115276 -0.91618983 -5.4199262 -0.83590902 0 0 Z " fill="#F1F4F8" transform="translate(363,150)"/>
<path d="M0 0 C7.68473708 -0.09300645 15.36941521 -0.16391952 23.05458832 -0.20724869 C26.62383519 -0.22805315 30.19269474 -0.25623769 33.76171875 -0.30175781 C37.21120466 -0.345474 40.66031992 -0.36919071 44.11006165 -0.37950897 C46.05539182 -0.39041005 48.00057452 -0.42159466 49.94567871 -0.45318604 C57.12698506 -0.45499311 61.91807581 0.07582402 68 4 C70.15376232 6.20760638 71.3661914 8.34506102 73 11 C74.32 9.68 75.64 8.36 77 7 C84.69078391 20.13643215 91.81962513 33.58069064 99 47 C99.33 46.67 99.66 46.34 100 46 C102.95529504 45.83970312 105.88982457 45.74042672 108.84765625 45.68359375 C109.7340831 45.66281265 110.62050995 45.64203156 111.53379822 45.62062073 C114.376617 45.555026 117.21953117 45.49619448 120.0625 45.4375 C121.98503606 45.3943242 123.90756234 45.35071022 125.83007812 45.30664062 C130.55328668 45.19933457 135.27659153 45.09809549 140 45 C140.59070014 43.05396726 140.59070014 43.05396726 141 41 C139.26043342 39.26043342 136.8063378 39.62809614 134.4375 39.4375 C132.643125 39.293125 130.84875 39.14875 129 39 C129 34.38 129 29.76 129 25 C149.21535042 24.37975629 149.21535042 24.37975629 155.765625 29.3359375 C160.23925395 33.62142318 160.9636768 38.07190509 161.16796875 44.125 C160.86075594 49.38334021 159.48278417 52.51721583 155.6875 56.3125 C149.73803688 60.0482094 144.32606723 60.27709781 137.515625 60.1953125 C136.61882019 60.1924826 135.72201538 60.18965271 134.79803467 60.18673706 C131.94855072 60.17559535 129.09938788 60.15051403 126.25 60.125 C124.319015 60.11496134 122.38802502 60.10583704 120.45703125 60.09765625 C115.63790872 60.07531678 110.81901173 60.03926244 106 60 C105.34 60 104.68 60 104 60 C99 60 94 60 89 60 C87.15984502 56.7121022 85.32904953 53.41908674 83.5 50.125 C82.97535156 49.18785156 82.45070313 48.25070313 81.91015625 47.28515625 C81.16572266 45.94130859 81.16572266 45.94130859 80.40625 44.5703125 C79.94541016 43.74289551 79.48457031 42.91547852 79.00976562 42.06298828 C78 40 78 40 78 38 C77.34 38 76.68 38 76 38 C75.75507813 38.81726563 75.51015625 39.63453125 75.2578125 40.4765625 C73.77452388 44.63161324 71.88199051 48.45321289 69.875 52.375 C69.50246094 53.11105469 69.12992187 53.84710938 68.74609375 54.60546875 C67.8343878 56.40550358 66.91770068 58.20301402 66 60 C60.72 60 55.44 60 50 60 C51.12439789 54.37801055 51.12439789 54.37801055 52.84765625 51.265625 C53.20537109 50.60949219 53.56308594 49.95335937 53.93164062 49.27734375 C54.30482422 48.60832031 54.67800781 47.93929687 55.0625 47.25 C57.68257949 43.2709902 57.68257949 43.2709902 59 39 C49.1 39 39.2 39 29 39 C29 34.38 29 29.76 29 25 C41.375 24.505 41.375 24.505 54 24 C54 21.03 54 18.06 54 15 C52.64841797 15.02731201 51.29683594 15.05462402 49.90429688 15.08276367 C44.86449413 15.1699413 39.82661143 15.18418967 34.78613281 15.17700195 C32.60954795 15.18395538 30.43293115 15.2103933 28.25683594 15.25708008 C9.17928178 15.64543834 9.17928178 15.64543834 4.74609375 11.57666016 C1.89830382 7.76642271 0 4.8183912 0 0 Z M73 14 C71.62567543 17.81756824 72.32024961 21.07255329 73 25 C73.33 25 73.66 25 74 25 C74 21.37 74 17.74 74 14 C73.67 14 73.34 14 73 14 Z M72 25 C73 29 73 29 73 29 Z M100 49 C101 51 101 51 101 51 Z M101 51 C102 53 102 53 102 53 Z M102 53 C103 55 103 55 103 55 Z " fill="#000000" transform="translate(174,188)"/>
<path d="M0 0 C2.6875 1.875 2.6875 1.875 5 4 C7.31605689 4.88928767 9.57638497 5.42973764 12 6 C12 7.65 12 9.3 12 11 C11.360625 11.2475 10.72125 11.495 10.0625 11.75 C7.81258459 12.81562433 7.81258459 12.81562433 7.25 15.125 C7.1675 15.74375 7.085 16.3625 7 17 C7.66 17 8.32 17 9 17 C8.33989524 19.84550012 7.48275034 22.52325999 6.4375 25.25 C6.16808594 25.95640625 5.89867187 26.6628125 5.62109375 27.390625 C5.41613281 27.92171875 5.21117187 28.4528125 5 29 C4.01 29 3.02 29 2 29 C5.01957741 32.42508421 7.6706485 33.88249359 11.9375 35.4375 C21.84125935 39.42301285 26.25176455 46.70321878 30.421875 56.2578125 C35.96443941 70.30984344 37.42704796 79.75962892 32.58203125 94.15625 C31 97 31 97 28.32421875 97.90625 C27.55722656 97.9371875 26.79023438 97.968125 26 98 C27.06028073 94.73759777 28.15606484 91.66986285 29.625 88.5625 C33.81775016 77.21614004 30.7714286 65.5758469 26 55 C25.56171875 53.91203125 25.1234375 52.8240625 24.671875 51.703125 C20.554168 42.99092388 14.90636649 40.30214602 6.25390625 37.109375 C5.18011719 36.74328125 4.10632813 36.3771875 3 36 C2.34 38.64 1.68 41.28 1 44 C-3.95 44.495 -3.95 44.495 -9 45 C-5 42 -5 42 -2.9375 41.75 C-0.53575774 41.07198782 -0.53575774 41.07198782 0.75 37.4375 C1.1625 36.303125 1.575 35.16875 2 34 C1.24074219 34.63808594 0.48148437 35.27617187 -0.30078125 35.93359375 C-1.29464844 36.75988281 -2.28851563 37.58617187 -3.3125 38.4375 C-4.29863281 39.26121094 -5.28476562 40.08492187 -6.30078125 40.93359375 C-9 43 -9 43 -12 44 C-13.485 40.535 -13.485 40.535 -15 37 C-15 38.98 -15 40.96 -15 43 C-15.99 42.67 -16.98 42.34 -18 42 C-18 41.01 -18 40.02 -18 39 C-21.52381687 41.54604597 -21.52381687 41.54604597 -24 45 C-19.05 45.33 -14.1 45.66 -9 46 C-9 53.26 -9 60.52 -9 68 C-10.98 68 -12.96 68 -15 68 C-18.32808239 69.88413915 -18.32808239 69.88413915 -21 72 C-20.50168276 75.68754757 -19.89932357 77.60490662 -17 80 C-17.66 80.99 -18.32 81.98 -19 83 C-19 84.32 -19 85.64 -19 87 C-16.08482708 85.92598892 -14.22189824 85.22189824 -12 83 C-10.68 83.33 -9.36 83.66 -8 84 C-8 88.29 -8 92.58 -8 97 C-13.94 97 -19.88 97 -26 97 C-26.76896217 85.84035571 -27.35577464 74.70120383 -27.51489258 63.51489258 C-27.54693522 61.7801535 -27.59508939 60.04564537 -27.65844727 58.31176758 C-28.17639929 43.82939633 -28.17639929 43.82939633 -25.28466797 39.33251953 C-23.26215746 37.53879771 -21.38699614 36.25153834 -19 35 C-18.01 34.34 -17.02 33.68 -16 33 C-15.56044807 27.90119765 -16.21442478 23.8311296 -17.54296875 18.9375 C-18.95404115 12.95551784 -17.96110603 8.30956943 -15 3 C-10.83115276 -0.91618983 -5.4199262 -0.83590902 0 0 Z " fill="#123890" transform="translate(363,150)"/>
<path d="M0 0 C0 4.95 0 9.9 0 15 C-1.32765381 15.02505615 -2.65530762 15.0501123 -4.02319336 15.07592773 C-8.93019945 15.16981519 -13.83705776 15.27008073 -18.74389648 15.37231445 C-20.87114007 15.41573423 -22.9984201 15.45740393 -25.12573242 15.49731445 C-28.17638151 15.55484707 -31.22684589 15.61858967 -34.27734375 15.68359375 C-35.23462875 15.70030624 -36.19191376 15.71701874 -37.1782074 15.73423767 C-38.05904495 15.75418289 -38.93988251 15.77412811 -39.84741211 15.79467773 C-41.0165641 15.81799416 -41.0165641 15.81799416 -42.20933533 15.84178162 C-44.02293353 15.80889119 -44.02293353 15.80889119 -45 17 C-45.16666667 20.5 -45.16666667 20.5 -45 24 C-43.26043342 25.73956658 -40.8063378 25.37190386 -38.4375 25.5625 C-36.643125 25.706875 -34.84875 25.85125 -33 26 C-33 30.62 -33 35.24 -33 40 C-53.42138328 40.85286519 -53.42138328 40.85286519 -60 36 C-64.37951094 30.98388765 -64.61852496 26.85096231 -64.5 20.5 C-64.51546875 19.67113281 -64.5309375 18.84226563 -64.546875 17.98828125 C-64.51209756 12.51952812 -63.64227847 9.31851032 -60 5 C-54.50433319 1.01564156 -49.37116909 0.82726003 -42.75390625 0.68359375 C-41.54346901 0.6524221 -41.54346901 0.6524221 -40.30857849 0.62062073 C-38.5981047 0.57741971 -36.88757541 0.53637011 -35.17700195 0.49731445 C-32.60288908 0.43842402 -30.02900399 0.37315864 -27.45507812 0.30664062 C-18.3001487 0.07762613 -9.15819878 -0.04745181 0 0 Z " fill="#000000" transform="translate(335,187)"/>
<path d="M0 0 C20.21535042 -0.62024371 20.21535042 -0.62024371 26.765625 4.3359375 C31.23925395 8.62142318 31.9636768 13.07190509 32.16796875 19.125 C31.86075594 24.38334021 30.48278417 27.51721583 26.6875 31.3125 C20.71660672 35.06166555 15.28023014 35.27679697 8.4453125 35.1953125 C7.54376434 35.1924826 6.64221619 35.18965271 5.71334839 35.18673706 C2.85042724 35.17559439 -0.01217434 35.1505008 -2.875 35.125 C-4.82291213 35.11496255 -6.77082919 35.10583804 -8.71875 35.09765625 C-13.4792887 35.07567443 -18.23959027 35.0411855 -23 35 C-24.0076952 33.2335343 -25.00591714 31.46166177 -26 29.6875 C-26.556875 28.70136719 -27.11375 27.71523437 -27.6875 26.69921875 C-29 24 -29 24 -29 21 C-15.8 20.67 -2.6 20.34 11 20 C11.33 18.68 11.66 17.36 12 16 C10.26043342 14.26043342 7.8063378 14.62809614 5.4375 14.4375 C3.643125 14.293125 1.84875 14.14875 0 14 C0 9.38 0 4.76 0 0 Z " fill="#000000" transform="translate(303,213)"/>
<path d="M0 0 C2.89866553 2.54116889 4.43597591 5.39190553 6.22265625 8.78515625 C7.14776001 10.52925781 7.14776001 10.52925781 8.09155273 12.30859375 C8.74869333 13.55981277 9.40567276 14.81111645 10.0625 16.0625 C11.4062323 18.60686063 12.75347749 21.1493496 14.1015625 23.69140625 C14.43431686 24.31991486 14.76707123 24.94842346 15.10990906 25.59597778 C18.34687832 31.69194729 21.72127784 37.70984613 25.20532227 43.66821289 C27.1894095 47.14495537 28 48.89718206 28 53 C23.05 53 18.1 53 13 53 C11.16155559 49.71109457 9.3290654 46.41911532 7.5 43.125 C6.97535156 42.18785156 6.45070313 41.25070313 5.91015625 40.28515625 C5.16572266 38.94130859 5.16572266 38.94130859 4.40625 37.5703125 C3.94541016 36.74289551 3.48457031 35.91547852 3.00976562 35.06298828 C2 33 2 33 2 31 C1.34 31 0.68 31 0 31 C-0.24492187 31.81726563 -0.48984375 32.63453125 -0.7421875 33.4765625 C-2.22547612 37.63161324 -4.11800949 41.45321289 -6.125 45.375 C-6.49753906 46.11105469 -6.87007812 46.84710938 -7.25390625 47.60546875 C-8.1656122 49.40550358 -9.08229932 51.20301402 -10 53 C-15.28 53 -20.56 53 -26 53 C-24.14492647 43.72463236 -19.70020649 34.20521595 -11.6875 28.8125 C-10.86636719 28.34457031 -10.04523438 27.87664062 -9.19921875 27.39453125 C-6.21559491 25.50260637 -4.56985054 23.48545308 -3.3046875 20.1875 C-2.71089718 15.92438998 -3.10331186 11.60216483 -3.2578125 7.3125 C-2.9837254 3.79089607 -2.39858218 2.51160438 0 0 Z " fill="#042C94" transform="translate(250,195)"/>
<path d="M0 0 C6.27 0 12.54 0 19 0 C20.14806378 29.37813212 20.14806378 29.37813212 20 43 C13.73 43 7.46 43 1 43 C-0.24611671 28.66965778 -0.09029036 14.37623165 0 0 Z " fill="#000000" transform="translate(182,205)"/>
<path d="M0 0 C6.83240844 -0.71920089 6.83240844 -0.71920089 10.0546875 1.265625 C12.48814864 3.34567892 14.55846298 5.11692596 16 8 C18.01669827 9.13350534 18.01669827 9.13350534 20 10 C19.60941406 10.53753906 19.21882813 11.07507813 18.81640625 11.62890625 C17.67655796 14.0956806 17.67655796 14.0956806 19.15234375 16.83984375 C19.74144531 17.86207031 20.33054687 18.88429687 20.9375 19.9375 C24.06672297 25.37753378 24.06672297 25.37753378 23.69140625 28.87890625 C23.34916016 29.92884766 23.34916016 29.92884766 23 31 C17.375 33.125 17.375 33.125 14 32 C12.68 32 11.36 32 10 32 C10 31.34 10 30.68 10 30 C7.69 30 5.38 30 3 30 C3 29.34 3 28.68 3 28 C1.68 28 0.36 28 -1 28 C-2.20568053 23.32798795 -2.09382426 18.78503708 -2 14 C-6.14584319 15.67428283 -9.45952838 17.24629985 -13 20 C-13.66 20 -14.32 20 -15 20 C-14.5359375 19.13375 -14.5359375 19.13375 -14.0625 18.25 C-13.07416636 16.15705816 -12.4831387 14.25464725 -12 12 C-13.65 11.01 -15.3 10.02 -17 9 C-16.360625 8.855625 -15.72125 8.71125 -15.0625 8.5625 C-13.02454854 8.18992819 -13.02454854 8.18992819 -12 7 C-12.99 7 -13.98 7 -15 7 C-15 6.34 -15 5.68 -15 5 C-12.09399739 3.74335022 -10.20395416 3 -7 3 C-7 4.32 -7 5.64 -7 7 C-3.85375007 7.26218749 -2.38162983 7.24754367 0.3125 5.5 C0.869375 5.005 1.42625 4.51 2 4 C1.34 4 0.68 4 0 4 C0 2.68 0 1.36 0 0 Z " fill="#093095" transform="translate(359,216)"/>
<path d="M0 0 C5.61 0 11.22 0 17 0 C17 6.6 17 13.2 17 20 C12.545 21.485 12.545 21.485 8 23 C7.34 23.66 6.68 24.32 6 25 C6.22743305 27.95662966 6.61235938 29.55033688 8.5625 31.8125 C9.036875 32.204375 9.51125 32.59625 10 33 C9.34 33.99 8.68 34.98 8 36 C8 37.32 8 38.64 8 40 C10.91517292 38.92598892 12.77810176 38.22189824 15 36 C16.32 36.33 17.64 36.66 19 37 C19 41.29 19 45.58 19 50 C13.06 50 7.12 50 1 50 C0.17991049 38.63497999 -0.12752607 27.39060439 -0.0625 16 C-0.0574649 14.4348973 -0.05290562 12.86979299 -0.04882812 11.3046875 C-0.03886961 7.53638393 -0.01926978 3.76831235 0 0 Z " fill="#032B94" transform="translate(336,197)"/>
<path d="M0 0 C3.125 2 3.125 2 5 4 C3.97386916 6.97577944 3.03368909 7.97754061 0.375 9.75 C-2.66889336 10.87736791 -4.13420239 11.13614613 -7.25 11.0625 C-9.10625 11.0315625 -9.10625 11.0315625 -11 11 C-11.66 11.66 -12.32 12.32 -13 13 C-12.67 13.99 -12.34 14.98 -12 16 C-11.34 16.33 -10.68 16.66 -10 17 C-9.67 15.68 -9.34 14.36 -9 13 C-5.37 13 -1.74 13 2 13 C2.33 13.99 2.66 14.98 3 16 C-1.455 17.485 -1.455 17.485 -6 19 C-4.99163938 20.23267348 -4.99163938 20.23267348 -2.93359375 20.09765625 C-2.10988281 20.08605469 -1.28617187 20.07445312 -0.4375 20.0625 C0.38878906 20.05347656 1.21507812 20.04445312 2.06640625 20.03515625 C2.70449219 20.02355469 3.34257812 20.01195312 4 20 C4.04254356 21.99954746 4.04080783 24.00041636 4 26 C2.26780072 27.73219928 -0.02026808 27.21291761 -2.375 27.25 C-3.35210937 27.27578125 -4.32921875 27.3015625 -5.3359375 27.328125 C-8 27 -8 27 -9.8515625 25.609375 C-11 24 -11 24 -11 22 C-11.598125 21.731875 -12.19625 21.46375 -12.8125 21.1875 C-15.14126747 19.92331195 -16.49243283 19.1859724 -18 17 C-18.62402427 11.59178964 -17.64234037 7.73798963 -15 3 C-10.83511196 -0.91247059 -5.41522394 -0.84335455 0 0 Z " fill="#3154A2" transform="translate(363,150)"/>
<path d="M0 0 C0.66 0.33 1.32 0.66 2 1 C2 4.3 2 7.6 2 11 C5.06186981 9.34872074 5.06186981 9.34872074 5.875 7 C7.40228376 4.28482886 9.14013334 4.0266188 12 3 C12.33 2.34 12.66 1.68 13 1 C14.2052222 3.22109528 15.38887404 5.4497865 16.5625 7.6875 C16.90474609 8.31333984 17.24699219 8.93917969 17.59960938 9.58398438 C19.16044313 12.5952899 20.04450625 14.53847632 19.71484375 17.95703125 C19.47894531 18.63121094 19.24304688 19.30539063 19 20 C13.375 22.125 13.375 22.125 10 21 C8.68 21 7.36 21 6 21 C6 20.34 6 19.68 6 19 C3.69 19 1.38 19 -1 19 C-2.08318169 13.6787385 -3.152874 8.36513131 -4 3 C-3.01 3 -2.02 3 -1 3 C-0.67 2.01 -0.34 1.02 0 0 Z " fill="#0B3598" transform="translate(363,227)"/>
<path d="M0 0 C3.10077202 0.34453022 4.61220157 0.59201249 6.80078125 2.89453125 C9.37565472 5.35964102 11.60243165 6.22207156 14.9375 7.4375 C24.84125935 11.42301285 29.25176455 18.70321878 33.421875 28.2578125 C38.96443941 42.30984344 40.42704796 51.75962892 35.58203125 66.15625 C34 69 34 69 31.32421875 69.90625 C30.55722656 69.9371875 29.79023438 69.968125 29 70 C30.06028073 66.73759777 31.15606484 63.66986285 32.625 60.5625 C36.81775016 49.21614004 33.7714286 37.5758469 29 27 C28.56171875 25.91203125 28.1234375 24.8240625 27.671875 23.703125 C23.554168 14.99092388 17.90636649 12.30214602 9.25390625 9.109375 C8.18011719 8.74328125 7.10632813 8.3771875 6 8 C5.34 10.64 4.68 13.28 4 16 C-0.95 16.495 -0.95 16.495 -6 17 C-2 14 -2 14 0.140625 13.56640625 C2.17887786 13.17871885 2.17887786 13.17871885 3.046875 11.15234375 C3.27890625 10.42144531 3.5109375 9.69054687 3.75 8.9375 C3.99234375 8.20402344 4.2346875 7.47054687 4.484375 6.71484375 C4.65453125 6.14894531 4.8246875 5.58304688 5 5 C4.34 5 3.68 5 3 5 C3 3.68 3 2.36 3 1 C2.01 0.67 1.02 0.34 0 0 Z " fill="#14357F" transform="translate(360,178)"/>
<path d="M0 0 C1 1 1 1 1.0625 3.5625 C1.041875 4.366875 1.02125 5.17125 1 6 C0.38125 6.185625 -0.2375 6.37125 -0.875 6.5625 C-4.05602866 8.71437233 -4.19451947 11.37533763 -5 15 C-8.63 15.33 -12.26 15.66 -16 16 C-16.66 15.01 -17.32 14.02 -18 13 C-14.7 12.34 -11.4 11.68 -8 11 C-8.33 10.34 -8.66 9.68 -9 9 C-11.58605332 8.5316735 -11.58605332 8.5316735 -14.5625 8.375 C-15.57441406 8.30023438 -16.58632813 8.22546875 -17.62890625 8.1484375 C-18.80259766 8.07496094 -18.80259766 8.07496094 -20 8 C-20.33 9.32 -20.66 10.64 -21 12 C-21.99 11.67 -22.98 11.34 -24 11 C-24.6875 8.9375 -24.6875 8.9375 -25 7 C-22.16582753 5.66627178 -20.34885841 4.97674277 -17.1875 5.1875 C-13.73683071 4.98451945 -12.77575121 4.38751082 -10 2.5 C-6.53454604 0.14535374 -4.27739715 -0.62596056 0 0 Z " fill="#052B92" transform="translate(374,155)"/>
<path d="M0 0 C0.33 0 0.66 0 1 0 C1.33 1.65 1.66 3.3 2 5 C2.66 4.34 3.32 3.68 4 3 C5.65 3.66 7.3 4.32 9 5 C8.39593483 8.38276494 7.14257201 10.34321071 5 13 C4.01 14.485 4.01 14.485 3 16 C2.01 16 1.02 16 0 16 C-0.66 14.35 -1.32 12.7 -2 11 C-2 12.98 -2 14.96 -2 17 C-2.99 16.67 -3.98 16.34 -5 16 C-5 15.01 -5 14.02 -5 13 C-8.52381687 15.54604597 -8.52381687 15.54604597 -11 19 C-6.05 19.33 -1.1 19.66 4 20 C4 27.26 4 34.52 4 42 C3.34 41.67 2.68 41.34 2 41 C2.33 34.4 2.66 27.8 3 21 C-2.61 21 -8.22 21 -14 21 C-14 16 -14 16 -12.42578125 14.12109375 C-11.72839844 13.56550781 -11.03101563 13.00992188 -10.3125 12.4375 C-9.58546875 11.84066406 -8.8584375 11.24382812 -8.109375 10.62890625 C-6.44993681 9.3474512 -4.76124173 8.103877 -3.0625 6.875 C-0.61016791 4.64560719 -0.27091875 3.25102503 0 0 Z " fill="#395CA9" transform="translate(350,176)"/>
<path d="M0 0 C-0.165 0.77601563 -0.33 1.55203125 -0.5 2.3515625 C-2.26702918 13.92008165 2.24220214 20.21129561 8.62890625 29.32421875 C10.21636677 31.26444828 11.70266638 32.04937919 14 33 C13.236875 33.20625 12.47375 33.4125 11.6875 33.625 C8.17770897 35.42070704 7.47400219 37.43136312 6 41 C3.9375 38.75 3.9375 38.75 2 36 C2.25 33.6875 2.25 33.6875 3 32 C3.66 32 4.32 32 5 32 C4.67 31.01 4.34 30.02 4 29 C3.195625 28.79375 2.39125 28.5875 1.5625 28.375 C-1 27 -1 27 -1.703125 25.0859375 C-2.03259255 23.49705366 -2.32964712 21.90117865 -2.59765625 20.30078125 C-2.95943693 17.82977022 -2.95943693 17.82977022 -4.125 14.9375 C-5.29440241 11.01164906 -5.33079247 8.10182666 -5 4 C-2.8 0 -2.8 0 0 0 Z " fill="#12358F" transform="translate(376,195)"/>
<path d="M0 0 C3.63 0 7.26 0 11 0 C11.33 0.99 11.66 1.98 12 3 C7.545 4.485 7.545 4.485 3 6 C4.00836062 7.23267348 4.00836062 7.23267348 6.06640625 7.09765625 C6.89011719 7.08605469 7.71382813 7.07445312 8.5625 7.0625 C9.38878906 7.05347656 10.21507812 7.04445312 11.06640625 7.03515625 C12.02353516 7.01775391 12.02353516 7.01775391 13 7 C13.04254356 8.99954746 13.04080783 11.00041636 13 13 C11.26780072 14.73219928 8.97973192 14.21291761 6.625 14.25 C5.64789063 14.27578125 4.67078125 14.3015625 3.6640625 14.328125 C1 14 1 14 -0.8515625 12.609375 C-2 11 -2 11 -2 9 C-2.66 9 -3.32 9 -4 9 C-3.67 7.35 -3.34 5.7 -3 4 C-2.34 4 -1.68 4 -1 4 C-0.67 2.68 -0.34 1.36 0 0 Z " fill="#EEF4F9" transform="translate(354,163)"/>
<path d="M0 0 C0 1.32 0 2.64 0 4 C-0.66 4 -1.32 4 -2 4 C-2 4.66 -2 5.32 -2 6 C-0.02 6 1.96 6 4 6 C2.68 6.33 1.36 6.66 0 7 C0 7.66 0 8.32 0 9 C-0.66 9 -1.32 9 -2 9 C-2 9.66 -2 10.32 -2 11 C-0.88625 10.649375 0.2275 10.29875 1.375 9.9375 C5 9 5 9 7 10 C8.90303246 15.18047725 9.19286332 19.50339543 9 25 C8.01 25 7.02 25 6 25 C4.79431947 20.32798795 4.90617574 15.78503708 5 11 C0.85415681 12.67428283 -2.45952838 14.24629985 -6 17 C-6.66 17 -7.32 17 -8 17 C-7.690625 16.4225 -7.38125 15.845 -7.0625 15.25 C-6.07416636 13.15705816 -5.4831387 11.25464725 -5 9 C-6.65 8.01 -8.3 7.02 -10 6 C-9.360625 5.855625 -8.72125 5.71125 -8.0625 5.5625 C-6.02454854 5.18992819 -6.02454854 5.18992819 -5 4 C-5.99 4 -6.98 4 -8 4 C-8 3.34 -8 2.68 -8 2 C-5.09399739 0.74335022 -3.20395416 0 0 0 Z " fill="#0C2E8B" transform="translate(352,219)"/>
<path d="M0 0 C0.66 0.33 1.32 0.66 2 1 C2 4.3 2 7.6 2 11 C5.24849977 9.27773504 5.24849977 9.27773504 6 6 C6.99 6.33 7.98 6.66 9 7 C8.67 7.99 8.34 8.98 8 10 C8.474375 10.37125 8.94875 10.7425 9.4375 11.125 C11.52205802 13.62646962 11.64621491 15.81593418 12 19 C9 15.25 9 15.25 9 13 C6.03 13.66 3.06 14.32 0 15 C0 15.66 0 16.32 0 17 C-0.66 17 -1.32 17 -2 17 C-2.66 12.38 -3.32 7.76 -4 3 C-3.01 3 -2.02 3 -1 3 C-0.67 2.01 -0.34 1.02 0 0 Z " fill="#C1D2EA" transform="translate(363,227)"/>
<path d="M0 0 C-0.33 1.65 -0.66 3.3 -1 5 C-1.33 3.68 -1.66 2.36 -2 1 C-4.64 1.66 -7.28 2.32 -10 3 C-10 3.66 -10 4.32 -10 5 C-9.01 5 -8.02 5 -7 5 C-7.33 5.66 -7.66 6.32 -8 7 C-8.99 7 -9.98 7 -11 7 C-9.35 7.99 -7.7 8.98 -6 10 C-6.59927826 13.35595828 -7.84622436 15.37801226 -10 18 C-9.154375 17.38125 -8.30875 16.7625 -7.4375 16.125 C-4.08627655 13.86952264 -0.91143146 12.93874355 3 12 C3 13.65 3 15.3 3 17 C2.113125 16.7525 1.22625 16.505 0.3125 16.25 C-3.11259467 15.62744378 -3.11259467 15.62744378 -5.6875 18 C-6.450625 18.66 -7.21375 19.32 -8 20 C-8.99 19.67 -9.98 19.34 -11 19 C-10.47731534 16.23723823 -9.89130413 13.6739124 -9 11 C-10.32 10.01 -11.64 9.02 -13 8 C-12.875 5.75 -12.875 5.75 -12 3 C-7.81501677 -0.69835727 -5.3863809 -1.53896597 0 0 Z " fill="#C0D3EB" transform="translate(354,218)"/>
<path d="M0 0 C1.32 0 2.64 0 4 0 C4.51381802 5.96028903 3.71976376 10.84118101 1.8125 16.5 C1.40644531 17.7065625 1.00039063 18.913125 0.58203125 20.15625 C-1 23 -1 23 -3.67578125 23.90625 C-4.82626953 23.95265625 -4.82626953 23.95265625 -6 24 C-4.22323462 18.53302961 -4.22323462 18.53302961 -3.234375 16.171875 C-1.016908 10.82386636 -0.34239385 5.76166195 0 0 Z " fill="#173988" transform="translate(395,224)"/>
<path d="M0 0 C0.66 0.33 1.32 0.66 2 1 C2 1.99 2 2.98 2 4 C0.06374902 4.98163422 -1.87404539 5.96022454 -3.8125 6.9375 C-4.89144531 7.48277344 -5.97039062 8.02804688 -7.08203125 8.58984375 C-10 10 -10 10 -13 11 C-12.86210108 8.03517326 -12.71055664 5.78765516 -10.66796875 3.5234375 C-4.67716222 -1.46161319 -4.67716222 -1.46161319 0 0 Z " fill="#E3ECF5" transform="translate(360,152)"/>
<path d="M0 0 C6.07402772 7.31724977 9.49487903 18.00570975 8.82421875 27.484375 C8.59720351 29.66643193 8.32637671 31.83085015 8 34 C7.67 34 7.34 34 7 34 C6.91363281 33.15179688 6.82726562 32.30359375 6.73828125 31.4296875 C5.76952762 23.34192787 4.05176456 16.56154963 1.12109375 8.9609375 C-0.60192953 4.4102349 -0.60192953 4.4102349 -1 2 C-0.67 1.34 -0.34 0.68 0 0 Z " fill="#0F327D" transform="translate(389,199)"/>
<path d="M0 0 C2.27246338 2.0913455 3.69102273 4.02258757 5.04296875 6.79296875 C5.39423828 7.50517578 5.74550781 8.21738281 6.10742188 8.95117188 C6.46384766 9.68916016 6.82027344 10.42714844 7.1875 11.1875 C7.55552734 11.93708984 7.92355469 12.68667969 8.30273438 13.45898438 C9.20728218 15.30332212 10.10437576 17.15131245 11 19 C10.01 19 9.02 19 8 19 C7.34 17.35 6.68 15.7 6 14 C5.01 14 4.02 14 3 14 C2.67 11.03 2.34 8.06 2 5 C1.34 5 0.68 5 0 5 C-0.33 5.99 -0.66 6.98 -1 8 C-1.66 7.67 -2.32 7.34 -3 7 C-2.38722388 4.03824877 -1.74627478 2.61941217 0 0 Z " fill="#052A87" transform="translate(250,195)"/>
<path d="M0 0 C2.07277359 2.31193977 3.00978527 4.02935582 4 7 C1.69 7.33 -0.62 7.66 -3 8 C-3 7.34 -3 6.68 -3 6 C-5.31 6 -7.62 6 -10 6 C-9.875 4.125 -9.875 4.125 -9 2 C-5.82254537 0.61849799 -3.46877176 0 0 0 Z " fill="#0D3290" transform="translate(372,240)"/>
<path d="M0 0 C1.65 0 3.3 0 5 0 C5 1.32 5 2.64 5 4 C5.66 4.33 6.32 4.66 7 5 C5.23361856 6.48448016 3.46173862 7.96241965 1.6875 9.4375 C0.70136719 10.26121094 -0.28476562 11.08492187 -1.30078125 11.93359375 C-4 14 -4 14 -7 15 C-7 14.34 -7 13.68 -7 13 C-6.01 12.34 -5.02 11.68 -4 11 C-4.33 10.34 -4.66 9.68 -5 9 C-3.7625 8.1646875 -3.7625 8.1646875 -2.5 7.3125 C0.2745414 5.25072867 0.2745414 5.25072867 0.3125 2.25 C0.209375 1.5075 0.10625 0.765 0 0 Z " fill="#0F3494" transform="translate(358,179)"/>
<path d="M0 0 C0.66 0.33 1.32 0.66 2 1 C1.65066406 1.45890625 1.30132812 1.9178125 0.94140625 2.390625 C0.48636719 3.00421875 0.03132813 3.6178125 -0.4375 4.25 C-0.88996094 4.85328125 -1.34242188 5.4565625 -1.80859375 6.078125 C-3.03900997 8.06292756 -3.56112668 9.71987655 -4 12 C-3.01 12 -2.02 12 -1 12 C-0.67 14.31 -0.34 16.62 0 19 C-3 19 -3 19 -4.6875 17.9375 C-6.74739409 14.89670396 -6.35987555 12.5987555 -6 9 C-4.79830328 4.93712062 -3.6331529 2.42210193 0 0 Z " fill="#365DAA" transform="translate(351,151)"/>
<path d="M0 0 C1.22589844 0.15275391 1.22589844 0.15275391 2.4765625 0.30859375 C3.41628906 0.43427734 3.41628906 0.43427734 4.375 0.5625 C3.76140625 0.81773437 3.1478125 1.07296875 2.515625 1.3359375 C0.09838664 2.72099743 -0.60958231 3.7470516 -1.875 6.1875 C-2.4525 7.30125 -3.03 8.415 -3.625 9.5625 C-5.6875 7.3125 -5.6875 7.3125 -7.625 4.5625 C-7.5 2.3125 -7.5 2.3125 -6.625 0.5625 C-4.10446405 -0.69776798 -2.7707902 -0.35624445 0 0 Z " fill="#082D8B" transform="translate(385.625,226.4375)"/>
<path d="M0 0 C0.33 0 0.66 0 1 0 C1.33 1.65 1.66 3.3 2 5 C2.66 4.34 3.32 3.68 4 3 C6.475 3.99 6.475 3.99 9 5 C8.42655063 7.86724686 8.1385485 8.8614515 6 11 C4.35 11 2.7 11 1 11 C0.67 7.37 0.34 3.74 0 0 Z " fill="#D0DEF2" transform="translate(350,176)"/>
<path d="M0 0 C0.90105469 0.01804688 1.80210937 0.03609375 2.73046875 0.0546875 C3.41753906 0.07789063 4.10460937 0.10109375 4.8125 0.125 C4.8125 0.785 4.8125 1.445 4.8125 2.125 C5.8025 2.455 6.7925 2.785 7.8125 3.125 C3.79445309 3.96598656 0.79446457 4.17904945 -3.1875 3.125 C-3.5175 4.445 -3.8475 5.765 -4.1875 7.125 C-5.1775 6.795 -6.1675 6.465 -7.1875 6.125 C-7.875 4.0625 -7.875 4.0625 -8.1875 2.125 C-4.87379 -0.08414 -3.8428979 -0.09981553 0 0 Z " fill="#284B9B" transform="translate(357.1875,159.875)"/>
<path d="M0 0 C0.66 0.99 1.32 1.98 2 3 C4.55183404 4.20450304 4.55183404 4.20450304 7 5 C7 5.99 7 6.98 7 8 C6.01 8.495 6.01 8.495 5 9 C5.33 10.65 5.66 12.3 6 14 C6.99 14.33 7.98 14.66 9 15 C9 15.99 9 16.98 9 18 C8.01 18.33 7.02 18.66 6 19 C5.27232997 17.76115681 4.56845185 16.50831659 3.875 15.25 C3.48054688 14.55390625 3.08609375 13.8578125 2.6796875 13.140625 C2 11 2 11 2.8828125 8.734375 C3.25148438 8.16203125 3.62015625 7.5896875 4 7 C3.360625 6.731875 2.72125 6.46375 2.0625 6.1875 C0 5 0 5 -1 2 C-0.67 1.34 -0.34 0.68 0 0 Z " fill="#BCD1E9" transform="translate(374,219)"/>
<path d="M0 0 C0.33 0 0.66 0 1 0 C1.33 4.29 1.66 8.58 2 13 C0.68 13 -0.64 13 -2 13 C-2.66 9.7 -3.32 6.4 -4 3 C-3.01 3 -2.02 3 -1 3 C-0.67 2.01 -0.34 1.02 0 0 Z " fill="#EBF2FA" transform="translate(363,227)"/>
<path d="M0 0 C0.66 0.66 1.32 1.32 2 2 C1.01 3.98 0.02 5.96 -1 8 C-5.95 8 -10.9 8 -16 8 C-16 7.34 -16 6.68 -16 6 C-14.86111328 6.05220703 -14.86111328 6.05220703 -13.69921875 6.10546875 C-12.70535156 6.13253906 -11.71148437 6.15960938 -10.6875 6.1875 C-9.70136719 6.22230469 -8.71523437 6.25710937 -7.69921875 6.29296875 C-4.99831664 6.23581131 -4.99831664 6.23581131 -3.26953125 4.67578125 C-2.12109396 3.15984403 -1.05494788 1.58242183 0 0 Z " fill="#082B85" transform="translate(241,240)"/>
<path d="M0 0 C1.32 0 2.64 0 4 0 C4.21755666 5.4389165 4.10428384 9.87080814 2 15 C1.67 14.34 1.34 13.68 1 13 C0.34 13 -0.32 13 -1 13 C-0.67 8.71 -0.34 4.42 0 0 Z " fill="#20458C" transform="translate(395,224)"/>
<path d="M0 0 C1.32 0 2.64 0 4 0 C2.38102741 3.30081791 0.64075691 6.52557433 -1.125 9.75 C-1.66382813 10.73484375 -2.20265625 11.7196875 -2.7578125 12.734375 C-3.37269531 13.85585937 -3.37269531 13.85585937 -4 15 C-4.66 15 -5.32 15 -6 15 C-4.36041242 9.76727367 -2.61047965 4.84803364 0 0 Z " fill="#052B87" transform="translate(249,222)"/>
<path d="M0 0 C4.875 4.75 4.875 4.75 6 7 C5.06421005 9.35981813 4.06652192 11.69631264 3 14 C2.34 14 1.68 14 1 14 C0.67 11.69 0.34 9.38 0 7 C-0.33 7 -0.66 7 -1 7 C-0.67 4.69 -0.34 2.38 0 0 Z " fill="#163A97" transform="translate(340,223)"/>
<path d="M0 0 C0.99 1.485 0.99 1.485 2 3 C2.54269531 3.58265625 3.08539063 4.1653125 3.64453125 4.765625 C5.56083224 7.92448427 5.08638151 10.12380445 4.6875 13.75 C4.50767578 15.50570312 4.50767578 15.50570312 4.32421875 17.296875 C4.21722656 18.18890625 4.11023438 19.0809375 4 20 C0.61282089 13.69529267 -0.30131427 7.08088525 0 0 Z " fill="#052679" transform="translate(346,165)"/>
<path d="M0 0 C0 1.65 0 3.3 0 5 C-0.886875 4.7525 -1.77375 4.505 -2.6875 4.25 C-6.11259467 3.62744378 -6.11259467 3.62744378 -8.6875 6 C-9.450625 6.66 -10.21375 7.32 -11 8 C-11.99 7.67 -12.98 7.34 -14 7 C-13.625 4.5625 -13.625 4.5625 -13 2 C-12.34 1.67 -11.68 1.34 -11 1 C-11.66 2.65 -12.32 4.3 -13 6 C-12.113125 5.38125 -11.22625 4.7625 -10.3125 4.125 C-3.88235294 0 -3.88235294 0 0 0 Z " fill="#D1E1F2" transform="translate(357,230)"/>
<path d="M0 0 C-0.625 3.3125 -0.625 3.3125 -2 7 C-5.23602011 9.13439624 -7.12148627 10 -11 10 C-9.86349426 6.59048278 -8.74186875 5.62363724 -6.0625 3.3125 C-5.35222656 2.68988281 -4.64195312 2.06726563 -3.91015625 1.42578125 C-2 0 -2 0 0 0 Z " fill="#EAF1F6" transform="translate(365,184)"/>
<path d="M0 0 C1.32 0.33 2.64 0.66 4 1 C4 2.65 4 4.3 4 6 C3.38125 6.185625 2.7625 6.37125 2.125 6.5625 C-1.05602866 8.71437233 -1.19451947 11.37533763 -2 15 C-2.99 14.67 -3.98 14.34 -5 14 C-4.34 14 -3.68 14 -3 14 C-3.185625 13.4225 -3.37125 12.845 -3.5625 12.25 C-4.05854852 9.69889332 -4.03285003 8.38350007 -3 6 C-0.9375 4.75 -0.9375 4.75 1 4 C0.67 2.68 0.34 1.36 0 0 Z " fill="#042881" transform="translate(371,155)"/>
<path d="M0 0 C0.66 1.32 1.32 2.64 2 4 C-1.45792689 5.58076658 -4.1831068 6.51579638 -8 6 C-8.66 5.01 -9.32 4.02 -10 3 C-5.05 1.515 -5.05 1.515 0 0 Z " fill="#234395" transform="translate(366,165)"/>
<path d="M0 0 C0.33 0.66 0.66 1.32 1 2 C1.99 2 2.98 2 4 2 C4.33 1.34 4.66 0.68 5 0 C5 0.66 5 1.32 5 2 C5.99 1.67 6.98 1.34 8 1 C7 4 7 4 5.375 5.1875 C2.19617272 6.27499354 -0.66661533 6.1282071 -4 6 C-3.01 5.67 -2.02 5.34 -1 5 C-0.67 3.35 -0.34 1.7 0 0 Z " fill="#DFEAF4" transform="translate(354,218)"/>
<path d="M0 0 C0.33 0.99 0.66 1.98 1 3 C-0.109375 4.82421875 -0.109375 4.82421875 -1.75 6.6875 C-2.28109375 7.31011719 -2.8121875 7.93273437 -3.359375 8.57421875 C-5 10 -5 10 -8 10 C-7.44449305 6.40094092 -6.25112752 5.00090201 -3.4375 2.75 C-2.79683594 2.22921875 -2.15617187 1.7084375 -1.49609375 1.171875 C-1.00238281 0.78515625 -0.50867188 0.3984375 0 0 Z " fill="#092B7A" transform="translate(344,185)"/>
<path d="M0 0 C2.60018816 3.90028225 2.15085514 7.47434569 2 12 C1.01 12 0.02 12 -1 12 C-1.33 9.36 -1.66 6.72 -2 4 C-1.34 4 -0.68 4 0 4 C0 2.68 0 1.36 0 0 Z " fill="#1A3E8E" transform="translate(359,232)"/>
<path d="M0 0 C1.89213369 2.38573379 3.02391783 4.07175348 4 7 C3.34 7 2.68 7 2 7 C2 6.34 2 5.68 2 5 C1.01 5 0.02 5 -1 5 C-1.33 6.32 -1.66 7.64 -2 9 C-2.66 8.67 -3.32 8.34 -4 8 C-4.625 5.9375 -4.625 5.9375 -5 4 C-3.35 3.34 -1.7 2.68 0 2 C0 1.34 0 0.68 0 0 Z " fill="#153B97" transform="translate(375,228)"/>
<path d="M0 0 C0.66 0.66 1.32 1.32 2 2 C1.34 3.98 0.68 5.96 0 8 C-3.3 8.33 -6.6 8.66 -10 9 C-6 6 -6 6 -3.875 5.625 C-3.25625 5.41875 -2.6375 5.2125 -2 5 C-0.70339566 2.50965614 -0.70339566 2.50965614 0 0 Z " fill="#3C5999" transform="translate(364,186)"/>
<path d="M0 0 C0.99 0 1.98 0 3 0 C3 0.66 3 1.32 3 2 C3.66 2 4.32 2 5 2 C4 4 4 4 2 5 C1.01 6.485 1.01 6.485 0 8 C-0.33 7.01 -0.66 6.02 -1 5 C-1.99 4.67 -2.98 4.34 -4 4 C-3.01 4 -2.02 4 -1 4 C-0.67 2.68 -0.34 1.36 0 0 Z " fill="#032A8C" transform="translate(374,233)"/>
<path d="M0 0 C1.65 0.33 3.3 0.66 5 1 C3.68 1.33 2.36 1.66 1 2 C1 2.66 1 3.32 1 4 C1.66 4.33 2.32 4.66 3 5 C2.01 6.32 1.02 7.64 0 9 C-1.32 8.67 -2.64 8.34 -4 8 C-3.34 8 -2.68 8 -2 8 C-1.34 5.36 -0.68 2.72 0 0 Z " fill="#E0EAF6" transform="translate(366,186)"/>
<path d="M0 0 C0.66 0.66 1.32 1.32 2 2 C1.9765625 5.2578125 1.9765625 5.2578125 1.625 9.125 C1.51414062 10.40632812 1.40328125 11.68765625 1.2890625 13.0078125 C1.19367188 13.99523437 1.09828125 14.98265625 1 16 C0.67 16 0.34 16 0 16 C-0.19389096 13.5211787 -0.38040123 11.04219069 -0.5625 8.5625 C-0.61857422 7.85544922 -0.67464844 7.14839844 -0.73242188 6.41992188 C-0.86190993 4.61572163 -0.93521608 2.80768048 -1 1 C-0.67 0.67 -0.34 0.34 0 0 Z " fill="#052673" transform="translate(396,217)"/>
<path d="M0 0 C0.66 0 1.32 0 2 0 C1.33989524 2.84550012 0.48275034 5.52325999 -0.5625 8.25 C-0.83191406 8.95640625 -1.10132813 9.6628125 -1.37890625 10.390625 C-1.68634766 11.18726563 -1.68634766 11.18726563 -2 12 C-2.84062397 8.90226756 -3.08935201 6.21667249 -3 3 C-2.34 3 -1.68 3 -1 3 C-0.67 2.01 -0.34 1.02 0 0 Z " fill="#3B6EB5" transform="translate(370,167)"/>
<path d="M0 0 C2.0625 0.4375 2.0625 0.4375 4 1 C4 2.65 4 4.3 4 6 C3.34 6 2.68 6 2 6 C2 5.01 2 4.02 2 3 C0.35 3.66 -1.3 4.32 -3 5 C-1.125 1.125 -1.125 1.125 0 0 Z " fill="#133590" transform="translate(351,233)"/>
<path d="M0 0 C2.40072955 2.88087546 4.47291037 5.56404834 6 9 C3.5625 8.625 3.5625 8.625 1 8 C0.67 7.34 0.34 6.68 0 6 C-0.99 5.34 -1.98 4.68 -3 4 C-2.01 4 -1.02 4 0 4 C0 2.68 0 1.36 0 0 Z " fill="#1F4198" transform="translate(380,218)"/>
<path d="M0 0 C5 6.59090909 5 6.59090909 5 10 C2 9 2 9 0.25 6.125 C-1 3 -1 3 0 0 Z " fill="#052985" transform="translate(253,225)"/>
<path d="M0 0 C4.34271252 0.48252361 6.1398221 1.7453148 9 5 C9.66 5.66 10.32 6.32 11 7 C7.28400809 7.20086443 6.22791555 7.1519437 3 5 C3 3.68 3 2.36 3 1 C2.01 0.67 1.02 0.34 0 0 Z " fill="#05277E" transform="translate(360,178)"/>
<path d="M0 0 C0.33 0.99 0.66 1.98 1 3 C1.66 3.33 2.32 3.66 3 4 C-1.75 8 -1.75 8 -4 8 C-2.66666667 5.33333333 -1.33333333 2.66666667 0 0 Z " fill="#1A3C8F" transform="translate(348,228)"/>
<path d="M0 0 C-0.33 2.31 -0.66 4.62 -1 7 C-1.99 6.67 -2.98 6.34 -4 6 C-4.6875 3.9375 -4.6875 3.9375 -5 2 C-2 0 -2 0 0 0 Z " fill="#0F328D" transform="translate(354,160)"/>
<path d="M0 0 C-3.83325617 2.70582788 -6.32538149 3.32613618 -11 3 C-7.68381684 -0.31618316 -4.50821267 -1.6697084 0 0 Z " fill="#DBE7F4" transform="translate(365,158)"/>
<path d="M0 0 C0.66 0.33 1.32 0.66 2 1 C2 2.65 2 4.3 2 6 C0.68 6.33 -0.64 6.66 -2 7 C-2.33 5.68 -2.66 4.36 -3 3 C-2.01 3.33 -1.02 3.66 0 4 C0 2.68 0 1.36 0 0 Z " fill="#052987" transform="translate(378,216)"/>
<path d="M0 0 C1.5625 1.8125 1.5625 1.8125 3 4 C2.67 4.99 2.34 5.98 2 7 C1.96125079 8.66621616 1.9549714 10.33394172 2 12 C-0.15229884 8.77155174 -0.60309873 6.81025223 -1 3 C-0.67 2.01 -0.34 1.02 0 0 Z " fill="#2B50A0" transform="translate(351,172)"/>
<path d="M0 0 C1.485 0.99 1.485 0.99 3 2 C2.67 2.66 2.34 3.32 2 4 C3.32 4.33 4.64 4.66 6 5 C4.35 5.66 2.7 6.32 1 7 C0 2.25 0 2.25 0 0 Z " fill="#03288A" transform="translate(375,242)"/>
<path d="M0 0 C0 0.99 0 1.98 0 3 C-2.31 3.33 -4.62 3.66 -7 4 C-7 3.01 -7 2.02 -7 1 C-4.50935112 0.31292445 -2.62113708 0 0 0 Z " fill="#224CA9" transform="translate(376,244)"/>
<path d="M0 0 C0.33 0.99 0.66 1.98 1 3 C-0.9375 6.1875 -0.9375 6.1875 -3 9 C-3.66 8.67 -4.32 8.34 -5 8 C-3.35 5.36 -1.7 2.72 0 0 Z " fill="#052780" transform="translate(231,234)"/>
<path d="M0 0 C0.33 0 0.66 0 1 0 C1 2.31 1 4.62 1 7 C1.66 7 2.32 7 3 7 C2.67 8.32 2.34 9.64 2 11 C1.34 11 0.68 11 0 11 C0 7.37 0 3.74 0 0 Z " fill="#032688" transform="translate(365,227)"/>
<path d="M0 0 C0.66 0.66 1.32 1.32 2 2 C-0.625 6.875 -0.625 6.875 -4 8 C-2.25 2.25 -2.25 2.25 0 0 Z " fill="#022293" transform="translate(234,227)"/>
<path d="M0 0 C0.99 0.33 1.98 0.66 3 1 C2.34 2.32 1.68 3.64 1 5 C0.01 5 -0.98 5 -2 5 C-2 3.68 -2 2.36 -2 1 C-1.34 0.67 -0.68 0.34 0 0 Z " fill="#7390C7" transform="translate(352,187)"/>
<path d="M0 0 C0.66 0.33 1.32 0.66 2 1 C-1.625 5.875 -1.625 5.875 -5 7 C-3.75023244 3.34683329 -3.32901247 2.21934164 0 0 Z " fill="#2D63BD" transform="translate(351,151)"/>
<path d="M0 0 C2.64 0 5.28 0 8 0 C8.33 0.99 8.66 1.98 9 3 C8.0925 2.814375 7.185 2.62875 6.25 2.4375 C3.31685676 2.04265379 1.7355343 2.05308428 -1 3 C-0.67 2.01 -0.34 1.02 0 0 Z " fill="#184497" transform="translate(353,150)"/>
<path d="M0 0 C0.66 0.33 1.32 0.66 2 1 C2.625 3.5625 2.625 3.5625 3 6 C1.68 6 0.36 6 -1 6 C-1.042721 4.33388095 -1.04063832 2.66617115 -1 1 C-0.67 0.67 -0.34 0.34 0 0 Z " fill="#FBFCFB" transform="translate(362,234)"/>
<path d="M0 0 C-0.66 2.31 -1.32 4.62 -2 7 C-3.32 6.01 -4.64 5.02 -6 4 C-2.25 0 -2.25 0 0 0 Z " fill="#D9E6F6" transform="translate(365,184)"/>
</svg>
