<?xml version="1.0" encoding="UTF-8"?>
<svg version="1.1" xmlns="http://www.w3.org/2000/svg" width="50" height="45">
<path d="M0 0 C2.97 0 5.94 0 9 0 C9 0.66 9 1.32 9 2 C9.680625 2.165 10.36125 2.33 11.0625 2.5 C14.71382388 4.36450581 16.56678524 6.77517957 19.15625 9.8984375 C21.43012707 12.49027195 23.93395084 14.6196287 26.6171875 16.7734375 C28.79033674 18.70103316 29.03056463 20.16046431 29.578125 23.03515625 C29.47489025 28.89069178 24.63698083 32.57232115 20.75 36.4375 C19.61304688 37.67790039 19.61304688 37.67790039 18.453125 38.94335938 C15.03303927 42.39479589 12.60659949 44.74010891 7.71289062 45.53173828 C4.75650537 45.53477983 1.92911724 45.38635019 -1 45 C-1 44.34 -1 43.68 -1 43 C-1.66 43 -2.32 43 -3 43 C-3.51138504 39.86776664 -3.65653889 37.11855972 -3 34 C-1.20232646 31.82995122 0.7134034 30.27783677 2.953125 28.57421875 C5.41273973 26.68256849 7.1809234 24.50123033 9 22 C8.443125 21.773125 7.88625 21.54625 7.3125 21.3125 C4.33840412 19.62449964 2.27991135 17.53323483 0 15 C0 14.34 0 13.68 0 13 C-0.99 13 -1.98 13 -3 13 C-3 9.7 -3 6.4 -3 3 C-2.01 2.67 -1.02 2.34 0 2 C0 1.34 0 0.68 0 0 Z " fill="#020202" transform="translate(3,0)"/>
<path d="M0 0 C4.30246865 0.50288595 6.21278486 1.73073249 9.20703125 4.81640625 C9.95791016 5.58017578 10.70878906 6.34394531 11.48242188 7.13085938 C12.25134766 7.93330078 13.02027344 8.73574219 13.8125 9.5625 C14.60076172 10.36880859 15.38902344 11.17511719 16.20117188 12.00585938 C18.14342916 13.99520169 20.07573661 15.99327271 22 18 C18.10109465 22.62015522 14.13351212 27.14697581 9.9375 31.5 C9.43412109 32.04914062 8.93074219 32.59828125 8.41210938 33.1640625 C6.90234375 34.71875 6.90234375 34.71875 4 37 C1.12890625 36.84375 1.12890625 36.84375 -1 36 C-0.69029106 30.61506072 2.35430107 28.17532596 6.0625 24.6875 C6.91424805 23.86282227 6.91424805 23.86282227 7.78320312 23.02148438 C9.17990925 21.67172635 10.58878837 20.33458475 12 19 C10.17744436 14.31658429 6.3630416 11.35128848 2.72460938 8.06640625 C1.23828125 6.65625 1.23828125 6.65625 -1 4 C-0.83203125 1.65625 -0.83203125 1.65625 0 0 Z " fill="#ECECEC" transform="translate(6,5)"/>
</svg>
