<?xml version="1.0" standalone="no"?>
<!DOCTYPE svg PUBLIC "-//W3C//DTD SVG 20010904//EN"
 "http://www.w3.org/TR/2001/REC-SVG-20010904/DTD/svg10.dtd">
<svg version="1.0" xmlns="http://www.w3.org/2000/svg"
 width="739.000000pt" height="1600.000000pt" viewBox="0 0 739.000000 1600.000000"
 preserveAspectRatio="xMidYMid meet">
<metadata>
Created by potrace 1.16, written by Peter Selinger 2001-2019
</metadata>
<g transform="translate(0.000000,1600.000000) scale(0.100000,-0.100000)"
fill="#000000" stroke="none">
<path d="M6981 15933 c4 -38 17 -90 29 -118 22 -47 22 -53 10 -145 -11 -85
-11 -102 5 -158 14 -48 22 -62 33 -57 18 7 41 -22 42 -53 0 -13 4 -20 10 -17
6 4 10 -10 10 -35 0 -27 7 -51 20 -67 19 -25 20 -25 20 -4 0 11 -4 21 -10 21
-5 0 -10 7 -10 15 0 22 9 19 32 -10 11 -14 24 -22 30 -19 6 4 6 10 -1 17 -6 6
-11 17 -11 24 0 16 -7 25 -69 91 -49 53 -71 97 -71 142 0 31 19 60 38 60 15 0
20 47 11 91 -7 31 -6 45 6 62 14 19 19 15 17 -13 0 -3 11 -5 24 -5 21 0 24 4
19 23 -7 30 13 28 25 -2 5 -13 15 -28 23 -33 7 -4 16 -15 19 -24 5 -12 20 -16
65 -15 85 1 94 14 92 118 -1 46 -6 89 -11 96 -7 8 -7 12 1 12 6 0 11 13 11 29
0 33 -17 40 -102 40 -41 0 -48 -3 -48 -19 0 -30 -16 -32 -41 -5 -22 23 -31 25
-124 25 l-101 0 7 -67z"/>
<path d="M5991 15567 c-9 -11 -8 -17 3 -26 11 -9 15 -9 19 1 4 11 6 10 6 0 1
-7 5 -11 9 -8 4 2 4 -35 -1 -84 -7 -81 -6 -93 14 -131 35 -70 43 -74 92 -51
43 21 157 122 157 139 0 19 -76 63 -106 63 -18 0 -38 8 -49 20 -10 11 -24 20
-31 20 -7 0 -14 4 -16 9 -1 5 -10 11 -18 13 -8 2 -23 12 -32 22 -10 10 -18 15
-18 10 0 -5 -4 -3 -9 4 -6 10 -10 10 -20 -1z"/>
<path d="M6525 15560 c-11 -18 16 -50 65 -75 28 -14 50 -30 50 -35 0 -6 34
-10 80 -10 73 0 80 2 80 20 0 20 -49 53 -73 48 -32 -5 -137 34 -137 53 0 12
-57 12 -65 -1z"/>
<path d="M6338 15400 c-49 -31 -73 -62 -64 -85 9 -25 -22 -39 -96 -44 -10 0
-27 -10 -37 -20 -11 -11 -31 -27 -46 -37 -18 -12 -24 -22 -20 -35 4 -13 1 -19
-9 -19 -9 0 -16 -7 -16 -15 0 -12 4 -13 19 -5 28 14 33 13 27 -10 -3 -11 -9
-30 -12 -41 -6 -21 -5 -21 17 -5 37 25 64 19 103 -21 38 -41 92 -157 106 -231
5 -26 14 -60 20 -76 8 -21 8 -32 0 -40 -8 -8 -9 -5 -4 9 5 15 -2 11 -26 -13
-23 -23 -38 -31 -49 -25 -15 7 -81 8 -154 2 -58 -4 -85 9 -112 54 -14 24 -25
56 -25 71 0 47 -18 69 -48 61 -15 -4 -44 -7 -64 -6 -21 1 -55 -7 -77 -19 -22
-11 -51 -20 -65 -20 -31 0 -57 -10 -51 -19 2 -4 -2 -8 -10 -8 -8 0 -15 5 -15
11 0 6 -4 5 -9 -2 -4 -8 -11 -13 -15 -13 -26 4 -46 -1 -41 -9 3 -5 -1 -10 -10
-10 -10 0 -13 5 -9 12 5 8 2 9 -10 5 -9 -4 -15 -3 -12 1 6 10 -21 52 -34 52
-5 0 -10 -10 -12 -22 -2 -13 -9 -22 -16 -20 -8 1 -10 -2 -7 -8 8 -13 -22 -50
-41 -50 -7 0 -18 -8 -23 -17 -7 -12 -10 -14 -11 -4 0 10 -3 11 -13 2 -11 -8
-16 -5 -25 15 -7 14 -12 33 -12 44 0 28 -16 33 -52 16 -18 -8 -64 -16 -103
-19 -58 -4 -72 -9 -85 -28 -27 -41 -81 -89 -99 -89 -10 0 -26 9 -35 19 -17 18
-17 22 3 66 25 56 25 55 7 55 -8 0 -16 -7 -20 -15 -3 -8 -17 -15 -31 -15 -38
0 -86 -24 -119 -59 -28 -29 -76 -43 -76 -22 0 5 -12 23 -26 40 -18 21 -35 31
-54 31 -23 0 -33 8 -51 40 -21 38 -43 51 -51 31 -3 -10 -21 -14 -55 -12 -17 1
-23 7 -23 24 0 12 -5 29 -10 37 -9 13 -13 12 -28 -8 -21 -27 -71 -55 -88 -48
-15 6 -27 -21 -17 -37 3 -6 6 -59 5 -118 -1 -99 1 -109 19 -114 22 -7 24 -18
7 -44 -9 -15 -7 -42 7 -122 9 -57 20 -108 24 -114 3 -5 6 -32 7 -60 3 -72 14
-157 25 -177 6 -10 5 -19 -1 -23 -19 -12 -10 -119 18 -195 3 -8 4 -21 3 -27
-1 -7 3 -13 10 -13 8 0 8 -4 -1 -15 -10 -12 -10 -28 -2 -73 6 -31 11 -109 9
-172 -2 -127 11 -172 73 -250 29 -37 40 -80 20 -80 -5 0 -10 6 -10 14 0 16
-17 31 -46 40 -16 5 -23 0 -32 -19 -6 -14 -9 -31 -6 -38 2 -7 -9 -26 -26 -41
-33 -29 -37 -57 -9 -62 16 -2 30 17 43 59 3 9 15 17 26 17 17 0 20 -5 17 -27
-2 -16 -7 -36 -11 -45 -4 -10 -6 -23 -3 -30 4 -8 8 -5 12 9 9 27 28 35 50 19
15 -11 16 -15 2 -48 -8 -19 -20 -39 -26 -42 -24 -15 -10 -43 34 -65 25 -12 45
-29 45 -36 0 -8 -16 -22 -36 -31 -45 -22 -84 -5 -84 36 0 33 -9 43 -27 29 -9
-9 -17 -8 -27 0 -14 12 -46 5 -46 -10 0 -5 7 -9 15 -9 8 0 15 -8 15 -18 0 -9
10 -22 23 -27 35 -16 34 -51 -2 -70 l-31 -16 0 31 c0 19 -4 29 -11 25 -14 -9
-59 3 -59 16 0 5 10 23 22 39 12 16 18 33 13 37 -4 5 -10 2 -12 -4 -3 -7 -11
-13 -19 -13 -8 0 -14 -4 -14 -9 0 -14 -31 -22 -45 -11 -9 8 -11 4 -8 -14 4
-20 -2 -27 -42 -47 -26 -13 -54 -33 -62 -44 -14 -20 -14 -20 -29 0 -13 17 -16
18 -24 5 -5 -8 -7 -24 -4 -35 9 -28 14 -31 24 -16 4 8 14 11 22 8 8 -3 20 4
26 14 7 10 16 19 21 19 15 0 45 -54 43 -77 -1 -16 3 -20 19 -16 22 6 59 -22
59 -44 0 -7 6 -13 14 -13 8 0 22 -10 30 -22 18 -25 21 -42 7 -34 -5 3 -14 -1
-21 -9 -7 -8 -23 -15 -36 -15 -13 0 -24 -4 -24 -9 0 -5 -3 -16 -6 -25 -4 -11
2 -17 21 -22 22 -5 32 0 61 30 19 20 31 36 27 36 -4 0 2 6 12 14 17 12 18 17
7 40 -16 35 -16 36 8 36 11 0 23 7 26 15 4 9 15 12 33 9 23 -5 29 0 47 33 16
30 26 39 51 41 25 3 33 9 38 31 8 39 49 74 84 74 17 0 30 3 29 6 -2 21 5 32
30 45 51 28 75 37 89 32 20 -8 16 -26 -6 -26 -11 0 -23 -5 -27 -11 -3 -6 -15
-9 -25 -6 -13 4 -23 -3 -32 -23 -19 -37 -9 -50 44 -56 24 -2 67 -9 94 -14 28
-4 74 -11 104 -15 30 -3 63 -11 74 -17 18 -9 17 -11 -12 -29 -18 -11 -30 -23
-27 -27 2 -4 -8 -7 -22 -8 -15 0 -34 -2 -42 -3 -37 -8 -80 0 -80 14 0 22 -69
16 -102 -8 -15 -11 -25 -23 -23 -27 3 -4 25 -10 51 -14 26 -3 54 -11 62 -18 8
-7 45 -13 83 -15 37 -1 72 -3 76 -4 4 -1 22 -1 38 0 l30 1 -32 16 c-43 21 -44
51 -2 46 4 -1 28 21 53 48 26 28 50 50 54 50 4 0 12 10 17 22 6 12 26 30 45
41 19 10 39 25 45 33 5 8 31 17 58 20 39 6 47 4 47 -10 0 -9 6 -16 13 -16 7 0
21 -11 31 -25 10 -13 22 -22 27 -19 5 3 9 0 9 -6 0 -15 -45 -34 -64 -27 -9 4
-13 13 -10 22 9 23 -37 38 -54 17 -7 -9 -31 -24 -54 -33 l-41 -16 32 -16 c26
-13 38 -14 55 -5 25 14 251 20 283 7 14 -5 23 -17 23 -29 0 -22 15 -27 26 -8
4 6 -1 17 -11 24 -10 8 -17 15 -14 16 31 19 56 27 117 38 80 15 97 26 55 36
-15 4 -31 11 -34 16 -9 14 -98 -1 -95 -16 2 -6 1 -8 -1 -3 -3 4 -23 7 -46 8
-23 0 -36 3 -29 6 15 6 16 39 1 49 -24 15 53 36 247 67 12 2 32 11 45 20 13
10 35 17 49 17 15 0 35 7 46 15 10 8 28 15 39 15 11 0 35 9 53 20 55 34 144
80 154 80 11 0 72 42 76 53 2 4 12 7 22 7 10 0 21 7 24 16 3 9 15 14 28 12 16
-2 26 4 33 19 6 13 23 25 45 30 22 6 35 15 35 25 0 9 4 20 8 24 13 14 7 22
-13 17 -11 -3 -20 -8 -20 -12 0 -4 -18 -5 -40 -3 -32 3 -40 1 -40 -12 0 -9 8
-16 18 -17 11 0 8 -4 -9 -10 -15 -6 -29 -19 -32 -29 -3 -11 -13 -20 -22 -20
-12 0 -15 5 -11 16 4 11 -1 18 -15 21 -12 4 -18 11 -15 20 3 8 6 17 6 19 0 2
8 4 18 4 19 1 52 23 52 36 0 5 25 20 56 33 31 13 58 31 61 40 8 21 64 71 81
71 6 0 12 5 12 10 0 21 36 9 52 -17 11 -17 18 -22 18 -13 0 9 -7 26 -16 38
-18 27 -10 62 15 62 10 0 23 11 29 25 6 14 15 24 20 23 8 -3 28 12 62 46 15
15 17 23 8 33 -8 10 -8 17 0 25 9 9 12 8 12 -3 0 -7 12 9 26 36 14 28 39 68
55 90 55 74 79 116 79 135 0 11 7 20 15 20 8 0 15 7 15 15 0 8 8 23 18 33 24
26 42 59 42 77 0 30 -21 13 -61 -50 -22 -36 -51 -73 -63 -83 -12 -9 -35 -36
-51 -60 -18 -27 -33 -41 -42 -37 -8 3 -19 5 -23 5 -5 0 4 24 20 53 16 28 36
68 46 87 9 19 20 42 25 50 5 8 15 31 24 50 8 19 19 42 25 50 10 15 21 38 46
96 27 63 -21 112 -59 60 -10 -14 -25 -26 -33 -26 -8 0 -24 -20 -36 -45 -16
-34 -25 -42 -34 -34 -7 6 -18 8 -23 4 -7 -4 -9 15 -6 56 4 50 9 65 30 81 28
22 33 59 10 78 -17 14 -36 5 -28 -15 3 -9 -1 -15 -10 -15 -11 0 -13 11 -11 50
3 29 0 50 -6 50 -5 0 -10 15 -10 33 1 28 2 30 11 13 9 -14 13 -15 19 -6 5 8 2
23 -7 37 -8 13 -12 23 -7 23 4 0 -1 7 -12 16 -10 8 -12 12 -4 8 13 -7 13 -6 0
10 -13 16 -15 17 -20 1 -5 -15 -8 -14 -24 4 -11 12 -24 21 -30 22 -6 0 -22 14
-36 32 -14 17 -20 28 -15 25 7 -4 10 4 9 20 -1 15 -3 34 -3 43 -1 9 -12 29
-26 45 -13 15 -22 30 -20 33 3 2 0 10 -6 17 -7 8 -7 14 1 19 5 3 10 21 10 40
0 19 5 37 10 40 6 3 10 14 9 23 0 14 -2 13 -9 -3 -8 -19 -9 -19 -9 2 -1 12 -6
25 -13 29 -8 5 -9 2 -5 -10 5 -12 3 -15 -6 -9 -12 7 -17 9 -36 12 -5 0 -12 8
-15 17 -3 8 -2 12 4 9 6 -3 10 -1 10 4 0 6 -7 11 -15 11 -15 0 -18 8 -18 43 0
13 -3 15 -10 8 -13 -13 -20 -54 -8 -47 5 3 7 -3 4 -14 -3 -11 -9 -17 -14 -14
-5 3 -6 10 -3 16 5 8 1 9 -10 5 -13 -5 -17 -3 -13 5 2 7 -2 19 -9 26 -11 10
-14 10 -14 0 0 -9 -3 -9 -10 2 -9 13 -10 13 -11 0 0 -10 -3 -8 -9 5 -5 11 -9
14 -9 7 -1 -7 -6 -10 -11 -7 -6 4 -13 -7 -16 -24 -4 -17 -9 -31 -12 -31 -10 0
-53 56 -58 77 -10 39 2 55 37 48 23 -5 35 -2 48 12 17 17 17 20 -1 63 -14 32
-16 50 -10 65 11 24 14 65 4 65 -4 0 -28 -14 -54 -30z"/>
<path d="M20 15109 c0 -5 -5 -7 -10 -4 -13 8 -11 -168 2 -176 6 -4 5 -14 -3
-26 -7 -11 -9 -28 -5 -38 6 -17 7 -17 21 1 13 17 14 14 15 -35 0 -46 2 -52 15
-41 8 7 12 16 10 21 -3 5 3 14 15 21 24 15 27 30 3 21 -13 -5 -15 -2 -10 11 4
10 7 20 7 22 0 2 11 4 24 4 22 0 23 4 25 55 1 40 -3 55 -12 53 -21 -4 -57 22
-57 41 0 10 -7 24 -16 32 -8 7 -13 21 -11 31 3 10 1 18 -4 18 -5 0 -9 -5 -9
-11z"/>
<path d="M1962 14927 c-7 -18 -12 -48 -12 -65 0 -19 -7 -35 -17 -41 -16 -9
-16 -11 -1 -28 11 -13 13 -24 7 -41 -10 -27 -33 -19 -24 9 4 11 2 19 -6 19 -7
0 -9 -10 -6 -30 5 -24 4 -28 -11 -23 -9 3 -14 3 -10 -2 4 -4 0 -14 -8 -22 -8
-8 -12 -18 -9 -23 9 -14 38 -4 45 15 6 17 7 17 13 1 4 -10 3 -26 -3 -35 -5
-10 -6 -21 -3 -25 3 -3 -1 -6 -11 -6 -9 0 -19 7 -22 15 -13 34 -25 13 -18 -32
4 -27 8 -59 8 -73 1 -32 20 -29 24 4 5 42 29 39 30 -5 1 -21 -2 -39 -7 -39 -5
0 -6 -10 -3 -22 5 -22 5 -22 -12 -5 -10 9 -28 17 -42 17 -13 0 -24 5 -24 10 0
15 -16 12 -34 -5 -18 -18 -27 -19 -21 -2 3 6 -1 30 -9 51 -12 35 -14 37 -20
18 -4 -12 -12 -22 -17 -22 -14 0 -10 -53 6 -74 11 -15 14 -37 10 -89 -4 -51
-2 -67 6 -61 8 5 9 3 4 -7 -5 -7 -8 -26 -7 -41 1 -15 -1 -28 -5 -28 -5 0 -8
-24 -7 -52 0 -32 -4 -58 -13 -66 -15 -16 -17 -32 -3 -32 14 0 13 -43 -2 -58
-9 -9 -9 -15 0 -24 16 -16 15 -31 0 -25 -7 2 -21 -3 -32 -12 -18 -15 -18 -15
-12 14 8 38 -10 71 -18 34 -7 -27 -4 -48 8 -67 12 -19 -5 -32 -32 -25 -16 4
-21 10 -17 22 15 39 16 68 2 79 -11 10 -16 7 -27 -16 -17 -35 -13 -61 14 -92
35 -39 64 -94 62 -121 -1 -32 -33 -37 -46 -7 -10 21 -10 21 -5 -6 5 -23 3 -27
-9 -23 -23 9 -26 -5 -8 -43 12 -25 13 -35 4 -38 -7 -2 -12 -10 -12 -18 0 -8
-4 -14 -10 -14 -5 0 -10 -9 -10 -20 0 -11 -7 -23 -15 -26 -8 -4 -15 -16 -15
-28 -1 -19 -2 -19 -11 -3 -5 9 -8 21 -4 26 3 5 -9 12 -27 16 -59 12 -68 16
-69 33 -2 27 -17 -39 -18 -80 0 -21 4 -38 9 -38 6 0 11 -12 11 -27 1 -17 3
-21 6 -10 5 20 8 20 34 7 16 -9 21 -7 29 12 5 13 9 17 9 11 1 -9 8 -10 27 -3
14 6 30 7 36 4 6 -4 14 0 19 7 6 9 9 -5 9 -38 0 -40 4 -53 15 -53 8 0 15 -5
15 -11 0 -6 -6 -9 -12 -6 -10 3 -13 -16 -12 -79 1 -46 -2 -84 -6 -84 -8 0 7
-75 20 -101 5 -9 4 -22 0 -30 -5 -8 -4 -19 2 -26 5 -7 7 -20 4 -29 -6 -15 -8
-15 -26 1 -11 10 -20 25 -20 33 0 9 -6 12 -16 8 -9 -3 -18 -6 -20 -6 -2 0 -4
-7 -4 -15 0 -8 7 -15 16 -15 10 0 14 -6 11 -15 -4 -8 -2 -17 3 -20 6 -4 11 4
11 17 1 17 3 18 6 6 3 -14 15 -18 50 -18 44 0 45 0 38 -30 -6 -27 -4 -30 17
-30 25 0 24 -6 27 154 0 25 3 27 16 16 13 -10 15 -9 15 7 0 10 -6 25 -12 32
-11 11 -9 13 10 8 26 -6 29 8 4 22 -18 9 -19 18 -14 128 2 32 5 41 16 37 8 -3
12 -12 9 -20 -3 -8 1 -14 10 -14 8 0 17 -10 21 -22 9 -37 7 -51 -8 -45 -19 7
-42 -18 -26 -28 6 -4 17 -2 25 5 18 15 31 -6 15 -25 -11 -14 -4 -23 18 -19 6
1 16 2 22 3 21 2 29 39 21 92 -10 62 -5 82 18 75 14 -5 14 -5 -1 7 -9 7 -19
30 -23 50 -6 32 -5 37 12 37 15 0 23 -11 33 -42 7 -24 23 -54 36 -67 23 -23
26 -22 28 9 1 8 9 14 19 14 13 -1 17 6 17 28 0 30 0 30 25 14 34 -22 44 -20
51 11 11 43 28 70 42 65 6 -2 12 4 12 13 0 9 -4 13 -10 10 -5 -3 -10 3 -10 14
0 29 -17 26 -34 -6 -15 -28 -16 -28 -22 -5 -3 12 -10 22 -15 22 -13 0 -11 20
4 35 8 7 25 11 40 8 37 -7 34 14 -3 22 -31 7 -42 25 -15 25 16 0 22 64 7 74
-14 9 -6 75 12 95 16 18 22 76 9 84 -5 2 -2 2 5 0 8 -2 16 6 19 17 3 11 11 20
19 20 8 0 11 -6 8 -15 -5 -11 1 -15 19 -15 14 0 29 -4 32 -10 9 -15 25 -12 25
5 0 13 -11 19 -31 17 -4 -1 -15 8 -24 18 -10 11 -24 20 -32 20 -7 0 -13 6 -13
13 0 6 -3 22 -6 35 -4 15 -2 22 8 22 15 0 51 54 42 63 -8 8 -35 -4 -58 -25
-26 -24 -36 -23 -36 4 0 21 0 21 -20 -2 -11 -13 -22 -21 -25 -19 -2 3 -1 29 4
57 4 29 5 54 2 56 -3 2 -6 30 -6 63 0 63 18 77 23 17 2 -26 9 -38 23 -41 10
-3 19 -10 19 -17 0 -17 -16 -38 -26 -34 -5 1 -10 -6 -12 -17 -3 -17 -1 -17 7
-5 10 13 12 13 21 0 9 -13 12 -13 24 3 7 9 18 17 23 17 6 0 13 10 17 23 9 32
7 44 -4 27 -8 -13 -11 -13 -26 1 -13 14 -14 20 -2 38 12 21 10 25 -27 57 -46
39 -95 47 -95 15 0 -33 -18 -33 -34 -1 -14 29 -14 31 4 25 10 -3 21 -1 25 5 3
5 0 10 -8 10 -12 0 -13 7 -6 38 12 52 11 54 -11 47 -15 -5 -20 -2 -20 10 0 11
5 15 14 12 8 -3 23 3 34 13 25 24 80 30 92 10 11 -18 23 -8 25 23 1 15 8 22
22 21 29 -1 23 50 -10 80 -26 24 -37 43 -17 31 13 -8 40 48 40 84 0 39 -21 33
-46 -14 -17 -32 -20 -33 -35 -19 -10 9 -23 13 -28 9 -24 -14 -28 7 -5 30 13
13 24 31 24 40 0 12 -4 11 -20 -5 -11 -11 -24 -20 -30 -20 -5 0 -10 -7 -10
-15 0 -17 -26 -20 -35 -4 -4 6 2 13 14 16 12 3 21 13 21 24 0 11 5 19 10 19 6
0 10 8 10 18 0 10 3 22 7 26 11 11 10 39 -2 52 -7 9 -14 6 -23 -10 -10 -16
-12 -16 -8 -3 3 11 3 24 -1 30 -4 7 -10 2 -15 -13 -4 -14 -5 -4 -1 23 6 55 2
60 -15 14z"/>
<path d="M220 14890 c-1 -8 -2 -19 -1 -24 1 -5 -1 -16 -4 -24 -4 -11 -8 -12
-20 -2 -23 19 -29 -10 -18 -95 9 -77 6 -86 -21 -60 -20 21 -23 19 -31 -15 -4
-16 -11 -30 -16 -30 -6 0 -7 -4 -4 -10 3 -5 1 -10 -4 -10 -6 0 -11 -4 -11 -10
0 -5 11 -10 25 -10 15 0 25 -6 25 -14 0 -18 22 -26 51 -19 19 5 21 3 17 -15
-5 -19 -3 -21 20 -16 39 10 39 10 34 46 -5 32 -4 33 15 16 22 -20 43 -23 43
-7 0 5 4 8 9 5 14 -9 2 74 -13 89 -16 17 -46 10 -46 -10 0 -7 -9 -15 -20 -18
-19 -5 -28 7 -12 16 4 3 6 34 5 69 -2 67 -19 173 -23 148z"/>
<path d="M1086 14362 c5 -37 2 -47 -17 -65 -13 -12 -27 -21 -31 -19 -5 1 -7
-1 -6 -5 5 -19 -14 -53 -25 -46 -20 13 -58 10 -53 -4 4 -9 -5 -13 -29 -13 -28
0 -35 -4 -35 -20 0 -13 5 -18 15 -14 8 4 25 4 38 0 17 -4 23 -13 25 -38 1 -18
-1 -28 -5 -23 -13 17 -70 33 -84 24 -25 -16 -49 -10 -49 11 0 17 -7 20 -42 21
-32 0 -38 2 -23 8 23 9 27 49 8 69 -7 7 -13 22 -13 33 0 13 -7 19 -22 19 -30
0 -52 15 -44 29 4 6 3 11 -3 11 -5 0 -9 -13 -9 -30 1 -16 6 -30 11 -30 6 0 2
-7 -9 -15 -16 -12 -17 -14 -3 -15 18 0 36 -30 19 -30 -6 0 -10 5 -10 10 0 6
-9 10 -20 10 -18 0 -19 3 -10 20 13 25 2 50 -12 26 -5 -9 -15 -16 -23 -16 -22
0 -28 -19 -10 -36 20 -21 16 -45 -10 -59 -18 -9 -19 -12 -5 -25 8 -8 28 -14
44 -12 39 5 71 -45 79 -122 3 -26 -30 -46 -43 -26 -5 8 -7 17 -4 21 2 4 -4 10
-15 14 -10 3 -25 22 -34 43 l-15 37 -1 -41 c-1 -33 3 -43 22 -53 19 -10 23
-19 21 -59 -1 -26 2 -83 6 -127 5 -49 4 -87 -2 -98 -9 -18 -10 -18 -25 3 -8
12 -12 24 -9 27 3 4 6 1 6 -5 0 -7 5 -12 10 -12 6 0 10 8 10 18 0 11 -15 23
-47 34 -26 9 -49 16 -50 14 -2 -1 2 -17 8 -35 11 -31 5 -55 -9 -36 -10 15 -94
16 -89 2 2 -6 19 -12 38 -12 l34 -1 -4 -53 c-2 -42 0 -52 10 -49 8 3 14 14 14
25 0 12 3 25 8 29 4 4 7 -2 7 -14 0 -12 5 -22 10 -22 6 0 10 3 10 8 0 4 14 8
30 9 27 2 30 -1 31 -30 3 -58 -3 -102 -15 -109 -8 -6 -8 -8 2 -8 15 0 17 -106
1 -116 -10 -6 -9 -60 3 -94 2 -8 3 -12 1 -7 -7 11 -33 9 -33 -3 0 -5 5 -10 10
-10 6 0 10 -9 10 -20 0 -11 -7 -20 -15 -20 -8 0 -15 6 -15 13 0 23 -21 87 -28
87 -5 0 -5 -25 -2 -55 3 -30 2 -55 -2 -55 -4 0 -8 -5 -8 -11 0 -5 5 -7 10 -4
6 3 10 1 10 -5 0 -6 8 -9 18 -6 13 4 18 0 20 -17 6 -60 7 -62 55 -67 50 -6 85
8 65 28 -8 8 -15 7 -24 -6 -12 -16 -13 -16 -13 3 1 11 5 31 9 45 8 24 8 24 9
3 1 -28 17 -30 24 -3 3 11 10 20 16 20 6 0 8 -7 5 -15 -8 -20 5 -85 16 -85 6
0 10 9 10 19 0 24 16 36 23 19 4 -10 8 -9 16 2 6 9 6 17 0 21 -5 3 -7 14 -3
25 6 16 3 15 -19 -5 l-27 -24 0 31 c0 17 -4 34 -10 37 -15 9 -12 32 5 32 10 0
15 -11 16 -36 0 -20 3 -29 6 -21 3 8 10 17 14 20 15 10 -2 46 -23 47 -37 3
-48 24 -78 140 -4 19 -4 31 1 27 5 -3 9 0 9 5 0 6 5 11 10 11 6 0 8 -11 4 -25
-4 -16 0 -33 14 -50 12 -15 18 -33 15 -42 -4 -11 -2 -14 8 -11 14 5 15 15 4
58 -4 14 5 3 18 -25 19 -37 26 -44 26 -27 1 12 6 22 11 22 6 0 10 6 10 13 0
13 48 42 57 34 2 -3 -3 -12 -12 -20 -19 -19 -19 -25 0 -43 8 -9 15 -27 15 -42
0 -19 -3 -23 -9 -13 -7 10 -11 5 -16 -17 -7 -35 -1 -52 20 -52 7 0 16 -6 18
-12 4 -10 6 -10 6 0 1 17 18 15 25 -4 4 -9 1 -23 -6 -31 -9 -11 -9 -13 2 -11
7 2 15 -3 18 -11 3 -9 0 -12 -10 -8 -15 5 -48 -24 -48 -43 0 -6 12 -10 26 -10
14 0 23 4 20 8 -2 4 -1 14 5 22 6 11 9 8 9 -12 0 -20 5 -28 18 -29 9 0 45 -2
80 -6 42 -3 67 -1 77 7 12 10 15 9 15 -4 0 -9 5 -16 11 -16 5 0 7 5 4 10 -3 6
1 10 9 10 9 0 16 -7 16 -15 0 -8 6 -12 14 -9 11 4 13 12 6 29 -5 13 -6 26 -2
30 3 3 -1 3 -11 -1 -10 -3 -17 -1 -17 5 0 6 3 10 8 10 21 -4 31 3 29 21 -1 22
-13 26 -21 8 -3 -7 -3 5 1 27 7 53 22 80 23 43 0 -16 5 -28 11 -28 7 0 9 10 5
26 -5 17 -3 24 4 19 6 -4 10 -21 9 -39 -2 -40 16 -86 36 -86 8 0 15 -7 15 -16
0 -8 5 -12 10 -9 6 3 13 -2 17 -12 3 -10 14 -26 24 -35 22 -22 87 -24 95 -4 4
11 16 13 42 9 31 -5 35 -3 25 8 -7 7 -13 26 -13 42 0 25 2 28 15 17 8 -7 15
-11 16 -9 0 2 2 13 4 24 1 11 6 27 9 36 5 11 1 18 -13 22 -11 3 -22 0 -25 -7
-3 -8 -7 -8 -13 0 -4 6 -16 13 -25 17 -9 3 -18 18 -20 34 -2 15 -7 26 -13 23
-5 -3 -9 -10 -7 -16 1 -7 -7 -14 -18 -17 -13 -3 -20 -13 -20 -30 0 -34 -13
-40 -33 -16 -9 10 -12 19 -7 19 5 0 7 7 4 15 -4 10 0 15 15 15 18 0 19 3 10
18 -18 28 -39 23 -39 -9 0 -39 -18 -82 -31 -73 -6 3 -9 15 -6 25 3 10 1 22 -4
25 -9 5 -12 -6 -10 -36 0 -8 -6 -1 -13 15 -8 17 -12 33 -10 36 4 8 36 5 52 -5
8 -5 12 0 12 13 0 11 -9 25 -19 30 -29 16 -104 181 -82 181 6 0 11 -5 11 -11
0 -14 61 -75 72 -71 5 1 17 -2 27 -7 15 -9 17 -7 14 14 -3 13 -16 34 -29 46
-29 27 -31 49 -4 49 15 0 20 7 20 25 0 14 -4 25 -8 25 -5 0 -8 15 -7 33 3 50
-6 64 -20 31 -11 -25 -14 -26 -20 -11 -5 12 -18 17 -46 17 -21 0 -39 5 -39 10
0 6 7 10 15 10 21 0 19 16 -6 41 -16 16 -23 18 -35 8 -11 -9 -14 -7 -14 11 0
18 4 22 25 18 17 -4 29 0 35 11 9 15 9 15 10 0 0 -9 6 -19 13 -22 10 -4 12 3
9 24 -5 36 -17 46 -66 52 -44 6 -58 21 -49 56 4 16 2 22 -5 17 -11 -7 -42 19
-42 35 0 5 8 10 18 10 9 1 4 4 -13 8 -21 4 -30 12 -30 25 0 11 -6 21 -13 24
-19 6 -15 42 5 42 15 0 15 1 -2 14 -18 13 -18 13 0 24 17 9 17 12 5 27 -14 16
-15 16 -20 -6 -6 -23 -7 -23 -23 10 -22 43 -22 43 8 35 32 -8 32 3 0 36 -16
17 -23 32 -19 47 l6 21 45 -24 c25 -13 47 -24 49 -24 1 0 5 14 9 30 l7 30 30
-21 c36 -26 55 -15 37 23 -8 19 -8 31 0 47 10 17 9 21 -3 21 -21 0 -42 39 -24
44 39 13 42 14 20 15 -15 1 -26 9 -29 22 -4 13 -8 16 -13 10 -10 -18 -35 -3
-48 27 -10 24 -11 23 -6 -16z m-240 -448 c-3 -8 -1 -14 4 -14 6 0 10 -7 10
-15 0 -8 5 -15 10 -15 6 0 10 -7 10 -16 0 -8 -4 -13 -9 -10 -12 8 -21 -18 -21
-56 0 -41 -11 -30 -12 11 -1 40 -19 51 -73 43 -5 -1 -10 -14 -11 -29 0 -16 -4
-37 -9 -48 -7 -18 -6 -18 14 3 30 31 42 19 39 -39 -3 -48 -20 -66 -32 -33 -4
9 -13 14 -21 10 -8 -3 -28 -3 -44 0 -29 6 -29 7 -24 63 6 66 15 80 39 60 10
-8 15 -9 11 -3 -4 7 0 17 9 24 10 9 13 22 9 42 -7 30 8 39 22 13 7 -12 13 -11
38 9 31 25 50 25 41 0z m224 -403 c0 -10 11 -26 25 -35 14 -9 25 -14 25 -11 0
4 13 -1 29 -11 28 -17 86 -105 97 -149 5 -19 1 -24 -24 -30 -23 -5 -29 -10
-25 -26 3 -10 0 -19 -6 -19 -6 0 -11 11 -11 24 0 13 -6 29 -14 35 -8 7 -17 24
-21 39 -7 28 -21 42 -44 42 -11 0 -11 -4 2 -18 26 -28 21 -61 -9 -72 -31 -12
-37 -12 -30 -1 8 13 -5 71 -15 71 -5 0 -9 -8 -10 -17 0 -10 -5 -5 -10 12 -5
19 -5 31 3 36 6 4 8 15 4 24 -11 30 6 38 20 9 11 -20 11 -30 3 -40 -9 -11 -8
-14 4 -14 30 0 40 26 22 60 -9 17 -22 33 -30 37 -12 4 -15 37 -6 71 1 1 6 2
11 2 6 0 10 -8 10 -19z"/>
<path d="M3341 14356 c-1 -14 -6 -17 -26 -12 -30 8 -31 2 -4 -25 11 -11 18
-26 16 -32 -5 -17 -38 -21 -48 -6 -4 7 -11 10 -15 6 -4 -4 -1 -13 8 -20 21
-16 13 -91 -9 -83 -8 3 -21 -1 -29 -9 -14 -13 -13 -15 7 -15 20 0 21 -4 17
-45 -3 -25 -2 -45 3 -45 12 0 21 37 14 59 -6 21 8 34 40 38 11 1 15 -1 8 -3
-7 -3 -9 -12 -7 -19 6 -15 -36 -98 -45 -90 -2 3 -11 -9 -18 -26 -10 -25 -16
-29 -27 -20 -11 9 -15 8 -20 -5 -9 -22 -8 -24 9 -18 10 4 15 0 15 -15 0 -12
-4 -21 -10 -21 -5 0 -10 -7 -10 -16 0 -13 -3 -14 -14 -5 -20 16 -26 -5 -12
-42 8 -21 8 -30 -1 -35 -16 -10 -43 -75 -43 -103 0 -12 -3 -20 -6 -16 -8 7
-34 -17 -34 -32 0 -6 -4 -11 -9 -11 -5 0 -11 -7 -14 -14 -7 -18 19 -11 46 12
21 18 22 4 2 -22 -8 -11 -15 -27 -14 -35 0 -12 4 -10 16 7 10 14 26 22 44 22
26 0 29 -3 23 -25 -4 -18 -2 -25 8 -25 19 0 62 -38 78 -68 8 -17 18 -22 31
-19 12 3 25 -3 34 -16 12 -17 15 -18 15 -5 0 11 13 21 34 27 19 5 51 21 70 36
30 23 35 31 29 53 -3 15 -14 33 -23 42 -22 19 -16 120 6 120 8 0 14 6 14 13 0
7 5 18 12 25 22 22 18 39 -8 34 -28 -5 -30 5 -8 36 8 12 12 22 8 22 -5 0 -3 5
4 12 7 7 12 21 12 33 0 16 -6 21 -26 20 -40 0 -53 29 -26 58 28 30 28 39 0 35
-21 -3 -33 -31 -40 -96 -2 -23 -65 -81 -76 -70 -10 10 10 62 29 73 12 8 12 75
0 75 -12 0 -11 92 1 107 14 17 28 7 28 -20 0 -17 -2 -19 -10 -7 -14 23 -23 4
-12 -27 6 -15 11 -22 11 -15 1 7 6 10 11 7 6 -3 10 -3 10 2 0 4 13 9 30 10 22
2 28 -1 23 -12 -3 -8 0 -15 7 -15 8 0 10 9 6 25 -5 18 -2 25 9 25 8 0 15 4 15
10 0 5 -7 7 -16 3 -14 -5 -16 -1 -12 26 3 22 0 35 -9 38 -18 7 -16 33 3 33 12
0 11 5 -7 19 -29 24 -39 19 -39 -20 0 -31 -9 -36 -28 -17 -9 9 -12 8 -12 -5 0
-9 -9 -21 -20 -27 -32 -17 -26 22 8 44 15 9 20 15 11 13 -11 -4 -20 3 -28 19
-15 34 -15 52 1 36 7 -7 17 -12 23 -12 6 0 5 3 -2 8 -6 4 -16 23 -21 42 -6 19
-11 27 -11 16z"/>
<path d="M380 14270 c0 -6 5 -10 10 -10 7 0 7 -7 0 -21 -9 -15 -18 -19 -35
-15 -13 3 -33 2 -46 -2 l-22 -9 21 -21 c23 -23 27 -33 15 -31 -23 4 -53 -2
-53 -10 0 -5 20 -6 45 -3 43 4 45 4 45 -22 0 -29 -3 -31 -31 -16 -13 8 -19 7
-19 0 0 -6 8 -14 17 -17 15 -6 15 -7 0 -12 -15 -6 -15 -9 1 -41 9 -19 20 -37
25 -38 4 -2 3 -10 -4 -18 -6 -7 -9 -19 -6 -26 3 -8 9 -2 15 14 12 30 34 47 40
30 2 -6 9 -9 16 -6 17 7 40 -22 32 -41 -3 -8 -12 -15 -21 -15 -8 0 -15 -6 -15
-12 0 -10 -2 -10 -9 0 -12 20 -23 -46 -11 -66 8 -14 10 -14 10 -2 1 10 4 9 10
-5 7 -17 9 -17 9 -2 1 24 17 22 24 -4 6 -22 -13 -35 -38 -25 -9 3 -15 0 -15
-9 0 -21 -27 -19 -39 3 -9 16 -11 15 -30 -5 -12 -12 -21 -26 -21 -31 0 -5 -6
-15 -14 -21 -11 -10 -19 -7 -35 10 -11 13 -23 21 -25 18 -2 -2 -7 -26 -10 -54
-6 -49 5 -87 21 -72 4 5 2 11 -4 15 -8 5 -9 13 -3 22 7 10 10 11 10 3 0 -7 4
-13 9 -13 5 0 8 6 7 14 0 8 3 15 8 16 9 0 16 -17 18 -47 1 -7 5 -10 10 -7 5 4
12 -3 15 -15 5 -18 11 -14 60 36 55 56 62 57 76 18 3 -5 7 -7 11 -4 8 8 -14
59 -26 59 -4 0 -8 3 -8 8 0 4 16 8 35 9 20 2 35 -2 35 -8 0 -5 5 -7 11 -3 8 4
7 9 -2 15 -11 6 -10 9 4 15 9 3 14 10 11 16 -3 5 -13 7 -22 3 -9 -3 -13 -3 -9
1 4 4 0 19 -9 32 -16 24 -16 25 10 20 33 -7 34 11 4 60 -15 25 -18 37 -10 40
25 8 7 71 -28 99 -12 9 -16 8 -22 -5 -4 -12 -6 -8 -5 11 1 19 7 27 20 27 10 0
15 -4 12 -10 -3 -5 0 -10 7 -10 8 0 20 -9 28 -20 8 -11 18 -20 22 -20 13 0 9
28 -5 37 -8 4 -16 16 -20 25 -4 11 -13 16 -24 12 -16 -5 -16 -4 1 10 11 9 14
16 7 16 -7 0 -9 5 -6 10 4 6 11 8 16 5 5 -4 9 -2 9 4 0 5 8 12 18 14 11 3 8 5
-8 6 -15 0 -31 -4 -38 -11 -9 -9 -13 -7 -18 7 -4 10 -16 27 -26 37 -11 11 -17
26 -13 37 3 12 0 21 -10 25 -8 3 -15 1 -15 -4z"/>
<path d="M1145 14100 c3 -5 -2 -10 -12 -11 -10 0 -3 -5 15 -10 34 -10 37 -15
23 -38 -7 -11 -13 -12 -23 -3 -8 6 -24 9 -36 5 -16 -4 -22 -13 -22 -34 0 -19
5 -29 15 -29 8 0 15 5 15 10 0 6 9 10 20 10 11 0 20 -4 20 -9 0 -5 -7 -8 -16
-7 -29 2 -27 -23 4 -52 24 -22 28 -33 24 -60 -2 -20 0 -32 7 -32 6 0 11 10 11
22 0 20 1 20 18 5 12 -11 22 -13 32 -7 12 8 12 10 1 10 -7 0 -11 6 -8 13 4 10
-2 13 -16 10 -17 -3 -26 5 -40 32 -19 39 -14 64 8 45 15 -13 20 -7 30 38 3 18
16 37 26 43 16 8 18 13 8 25 -6 8 -19 12 -28 9 -10 -3 -26 2 -37 10 -22 16
-48 20 -39 5z"/>
<path d="M0 13842 c0 -139 1 -151 19 -157 25 -8 30 -22 22 -70 -6 -34 -3 -43
15 -57 15 -12 20 -25 17 -38 -7 -27 23 -27 32 1 8 25 31 19 27 -7 -2 -10 3
-23 12 -29 9 -7 17 -22 19 -34 2 -12 8 -26 14 -32 16 -16 26 7 13 31 -12 23
-3 51 10 30 5 -8 11 0 19 20 9 28 13 31 26 20 13 -11 14 -10 9 4 -3 9 -15 16
-26 16 -15 0 -19 5 -15 20 3 11 1 23 -4 26 -5 3 -9 0 -9 -6 0 -6 -4 -9 -10 -5
-6 3 -6 15 0 30 6 17 5 25 -5 28 -11 5 -11 13 2 48 13 39 13 62 -3 102 -3 9 3
16 15 20 14 3 21 13 21 29 0 12 8 32 16 43 16 20 16 20 10 -1 -4 -13 -1 -26 9
-34 8 -7 15 -23 15 -36 0 -13 4 -24 8 -24 4 0 6 15 4 34 -2 19 1 37 8 41 7 4
10 1 8 -10 -2 -10 2 -20 8 -22 6 -2 11 2 12 9 1 7 3 29 6 50 4 32 1 37 -20 42
-14 4 -28 4 -33 2 -12 -8 -240 40 -256 54 -13 11 -15 -6 -15 -138z"/>
<path d="M2660 13655 c0 -9 -6 -12 -16 -8 -12 4 -14 0 -8 -21 5 -22 4 -25 -12
-19 -17 6 -17 5 -1 -17 23 -34 21 -41 -9 -30 -33 13 -31 13 -37 -10 -4 -15 0
-20 14 -20 24 0 14 -28 -18 -54 -23 -17 -23 -19 -6 -33 10 -8 13 -12 6 -9 -6
4 -14 2 -17 -3 -3 -5 1 -12 10 -15 11 -4 15 -14 12 -30 -4 -18 0 -26 16 -30
24 -6 59 22 51 42 -4 10 0 12 11 8 8 -3 22 -6 29 -6 8 0 13 -9 12 -20 -1 -13
-6 -19 -15 -15 -16 6 -52 -12 -52 -26 0 -6 8 -9 18 -7 9 2 16 10 15 16 -2 7 2
12 7 12 6 0 13 -14 17 -31 5 -25 8 -28 15 -15 5 9 7 20 3 25 -3 5 -1 12 4 16
7 3 7 15 1 29 -5 13 -6 27 -2 31 4 3 -1 11 -11 16 -9 6 -17 15 -17 22 0 8 3 7
9 -2 8 -12 11 -12 23 0 20 22 21 57 2 86 -16 25 -16 27 2 40 16 12 17 15 4 23
-12 8 -12 10 5 11 11 1 26 2 32 2 7 -1 10 3 7 8 -3 5 -22 8 -42 7 -32 -3 -37
0 -40 20 -4 24 -22 31 -22 7z"/>
<path d="M305 13513 c3 -15 3 -23 0 -17 -7 13 -55 6 -55 -8 0 -5 5 -18 10 -29
8 -14 7 -19 -2 -19 -9 0 -9 -3 2 -10 13 -9 13 -11 0 -20 -12 -7 -12 -12 -2
-22 14 -14 16 -32 3 -23 -17 10 -24 -16 -8 -28 9 -7 17 -23 20 -37 4 -26 5
-24 28 35 l11 30 11 -25 c6 -14 12 -26 13 -28 1 -2 11 1 22 7 13 7 22 7 29 0
7 -7 12 -1 15 20 3 17 1 31 -4 31 -4 0 -8 5 -8 11 0 5 4 7 10 4 22 -14 37 9
28 43 -7 26 -13 32 -28 27 -15 -5 -21 0 -27 26 -8 30 -10 31 -25 15 -23 -23
-30 -20 -26 11 2 15 -2 28 -10 31 -9 3 -11 -4 -7 -25z"/>
<path d="M2930 13305 c0 -8 -7 -11 -21 -8 -16 4 -20 2 -17 -8 2 -8 29 -19 59
-26 70 -14 69 -14 34 -22 -17 -4 -40 -1 -54 6 -19 9 -28 9 -38 1 -11 -9 -11
-13 -1 -19 7 -4 15 -4 18 1 7 11 70 -9 70 -22 0 -4 -8 -12 -17 -18 -13 -8 -14
-13 -5 -16 6 -3 12 -15 12 -26 0 -15 5 -18 20 -13 11 3 20 2 20 -3 0 -6 -11
-13 -25 -16 -35 -9 -31 -26 5 -23 24 2 30 7 31 27 1 14 0 30 -1 35 -5 21 -7
40 -3 27 9 -27 28 -4 28 34 0 21 4 46 9 54 8 13 7 13 -6 2 -19 -16 -64 1 -71
27 -5 20 -47 26 -47 6z"/>
<path d="M0 8499 l0 -4621 33 29 c71 62 294 278 649 628 67 66 118 113 114
106 -6 -9 -4 -12 5 -9 8 3 14 9 14 14 0 15 52 74 64 74 6 0 11 4 11 9 0 5 6
16 14 23 59 56 255 250 272 269 11 13 45 46 75 73 30 27 86 80 126 118 45 43
77 67 84 62 7 -4 9 -3 5 4 -3 6 -2 13 4 17 5 3 10 -3 10 -13 0 -11 9 -26 21
-33 19 -13 15 -19 -104 -139 -68 -69 -131 -131 -138 -138 -8 -7 -38 -36 -68
-65 -29 -28 -97 -95 -151 -147 -319 -312 -892 -875 -960 -944 l-80 -81 0 -228
0 -228 23 5 22 6 -22 -11 -22 -12 -1 -314 c0 -173 3 -325 6 -338 4 -16 11 -21
25 -18 21 6 25 -7 7 -25 -8 -8 -4 -11 18 -9 19 1 29 -3 29 -12 0 -16 -18 -27
-57 -35 l-27 -6 -1 -1055 c-1 -942 1 -1055 15 -1055 8 0 14 5 13 12 -2 6 7 17
20 23 35 19 40 28 10 21 -20 -4 -28 -3 -28 7 0 22 21 37 39 27 13 -6 17 -4 17
9 0 10 -6 18 -13 17 -19 -2 -16 19 4 22 24 5 76 61 92 100 7 16 23 40 36 52
14 13 21 29 18 41 -4 14 0 19 16 19 12 0 21 6 21 15 0 8 9 15 21 15 16 0 19 4
14 21 -5 15 -2 22 14 26 12 3 21 13 21 24 0 12 7 19 20 19 13 0 24 10 30 26 6
14 14 23 19 20 14 -9 41 4 41 20 0 8 8 14 18 14 24 0 42 19 35 36 -3 8 1 14
11 14 9 0 16 5 16 10 0 6 7 10 15 10 8 0 15 4 15 10 0 5 10 18 22 30 26 24 24
27 -27 32 -32 2 -40 0 -40 -14 0 -9 -4 -20 -8 -24 -4 -4 -7 -2 -7 4 0 5 -3 17
-6 25 -3 9 7 28 27 46 17 17 28 31 22 31 -5 0 -14 -5 -21 -12 -15 -15 -28 -2
-14 15 12 14 6 75 -9 93 -5 6 -6 14 -2 17 13 14 23 6 23 -17 0 -42 22 -48 59
-15 19 16 44 29 57 29 21 0 64 31 64 45 0 3 -11 5 -25 5 -19 0 -25 -5 -23 -17
4 -23 -30 -28 -56 -9 -17 14 -16 16 18 47 27 23 36 38 34 57 -4 31 17 41 25
11 6 -21 27 -18 27 4 0 7 21 27 45 46 43 32 56 51 35 51 -7 0 -7 6 -1 18 12
22 25 54 26 67 2 17 26 57 32 51 7 -7 63 55 63 70 0 6 -9 14 -20 17 -21 5 -23
26 -5 39 16 12 25 9 25 -6 0 -25 18 -27 39 -4 26 28 26 38 1 45 -34 9 -17 28
30 33 39 4 45 8 52 37 5 18 13 33 17 33 5 0 7 9 4 20 -7 25 22 60 49 60 20 0
38 35 38 73 0 12 9 28 20 35 12 7 19 16 16 21 -7 11 31 51 49 51 20 0 19 16
-2 24 -10 4 -20 1 -25 -9 -5 -8 -13 -13 -19 -10 -15 10 -10 23 11 30 11 3 20
13 20 21 0 8 15 16 41 20 32 5 38 9 25 16 -20 11 -20 22 0 42 20 21 74 21 74
1 0 -18 -1 -18 38 -4 27 9 36 8 64 -13 18 -12 35 -23 38 -23 3 0 14 -9 26 -21
11 -11 31 -27 43 -36 27 -19 19 -42 -11 -35 -14 4 -18 2 -14 -9 3 -9 -1 -14
-12 -14 -10 0 -27 -7 -39 -15 -25 -17 -37 -65 -17 -65 8 0 14 6 14 13 0 7 15
17 33 22 22 7 33 17 35 33 4 26 8 27 28 7 18 -17 34 -20 34 -5 0 6 -5 10 -12
10 -6 0 -1 11 12 25 13 14 29 25 37 25 21 0 15 -27 -8 -33 -22 -6 -21 -34 1
-29 7 2 28 -4 46 -13 59 -28 111 17 102 89 -2 20 -1 36 3 36 4 0 15 3 24 7 14
5 16 2 10 -17 -5 -15 -4 -20 4 -16 6 4 11 16 11 26 0 10 4 21 9 24 4 3 7 17 6
30 -2 17 4 30 21 41 13 8 24 22 24 30 0 8 10 19 21 26 15 8 19 8 15 0 -9 -13
4 -14 23 -2 8 5 15 19 16 30 2 25 61 107 83 116 9 3 20 -1 25 -11 8 -13 11
-14 18 -3 8 12 11 12 19 -1 5 -8 8 -21 5 -27 -2 -7 0 -13 5 -13 6 0 10 4 10 9
0 5 17 4 40 -1 22 -6 48 -7 57 -3 32 14 47 17 81 16 47 -2 57 8 32 29 l-21 18
25 27 c14 15 27 22 30 16 4 -6 -2 -16 -14 -23 -11 -7 -20 -16 -20 -20 0 -15
18 -8 48 17 19 16 33 21 37 15 3 -5 -2 -13 -12 -17 -20 -8 -43 -28 -43 -38 0
-4 8 -4 18 0 14 5 15 4 5 -6 -19 -19 -16 -29 8 -29 12 0 23 8 26 20 3 11 14
20 24 20 21 0 26 16 8 22 -14 5 -22 58 -9 58 19 0 40 -13 40 -25 0 -8 12 -15
28 -17 15 -2 26 -8 24 -15 -3 -18 3 -16 24 4 17 17 17 17 11 1 -7 -19 7 -33
23 -23 8 5 7 12 -2 23 -11 13 -11 15 3 10 24 -9 78 42 89 83 l9 34 -18 -22
c-21 -25 -41 -30 -41 -11 0 13 58 67 74 69 6 1 17 1 24 0 6 -1 12 3 12 9 0 5
-8 10 -17 10 -13 0 -14 3 -6 11 8 8 17 7 34 -5 13 -9 34 -16 46 -16 13 0 23
-3 24 -7 0 -5 3 -21 5 -37 4 -25 2 -28 -15 -23 -25 6 -38 -8 -15 -17 8 -3 13
-9 11 -13 -3 -5 8 -9 25 -10 27 -2 29 0 24 21 -5 20 -3 22 24 18 21 -3 30 0
30 9 0 19 99 17 110 -2 5 -7 18 -14 30 -16 20 -3 20 -2 6 13 -18 17 -21 28 -6
19 13 -8 13 11 0 36 -9 16 -7 19 9 19 24 0 36 -16 19 -24 -9 -3 -7 -9 6 -20
21 -17 66 -22 66 -8 0 5 14 8 30 7 17 -1 30 2 30 7 0 4 -11 8 -23 8 -24 0 -47
33 -47 65 0 18 17 20 22 3 9 -25 27 4 21 32 -6 31 10 42 21 15 7 -19 36 -20
36 -1 0 8 9 17 20 21 11 3 19 12 17 18 -1 7 4 11 11 9 16 -3 16 35 0 41 -8 2
-9 8 -4 13 5 5 11 4 13 -3 3 -7 11 -13 19 -13 17 0 18 -12 1 -29 -10 -11 -6
-12 18 -7 28 6 30 4 32 -24 2 -21 -1 -28 -9 -24 -7 4 -8 3 -4 -4 11 -18 19
-15 56 18 18 16 38 31 44 34 7 3 7 8 -3 14 -11 8 -11 11 0 18 19 11 108 14
114 3 10 -16 25 -10 25 10 0 11 6 22 12 24 9 4 8 6 -2 6 -9 1 -21 -4 -27 -10
-8 -8 -13 -8 -17 0 -4 6 0 11 8 11 9 0 16 4 16 9 0 5 11 12 25 15 14 4 25 13
25 21 0 20 -41 15 -67 -8 -12 -10 -27 -16 -33 -12 -8 5 -4 12 11 23 22 15 22
16 3 24 -12 5 4 7 43 4 49 -3 61 -1 56 10 -3 7 -20 16 -39 20 -28 5 -32 9 -23
20 6 8 20 14 30 14 11 0 19 7 19 15 0 16 12 20 24 8 4 -5 13 -8 19 -8 7 0 11
-11 10 -23 -2 -19 -1 -21 17 -10 13 8 16 15 8 19 -9 6 -8 11 1 23 16 19 7 34
-27 47 -17 7 -29 6 -36 -1 -18 -18 -46 -12 -46 11 0 16 4 19 20 14 12 -4 20
-2 20 5 0 6 11 15 25 20 14 5 25 16 25 24 0 13 -4 13 -35 0 -20 -8 -41 -12
-47 -8 -7 5 -3 10 11 15 l21 9 -20 20 c-24 24 -36 25 -44 5 -3 -8 -12 -12 -21
-9 -10 4 -15 0 -15 -10 0 -9 -6 -16 -12 -16 -10 0 -10 -2 0 -9 11 -7 10 -10
-3 -15 -9 -3 -21 -4 -26 0 -13 8 -11 38 3 52 16 16 7 23 -19 16 -12 -3 -20
-11 -17 -18 6 -17 -21 -50 -34 -42 -7 4 -12 16 -12 27 0 21 -5 22 -35 9 -11
-5 -14 -9 -7 -9 7 -1 10 -5 7 -11 -3 -5 -29 -10 -56 -10 -31 0 -48 4 -44 10 3
6 1 10 -4 10 -6 0 -11 -11 -11 -25 0 -27 -17 -34 -26 -10 -4 8 -16 15 -28 15
-12 0 -27 5 -33 11 -16 16 -47 3 -39 -16 3 -8 -2 -18 -11 -23 -11 -7 -12 -11
-4 -16 7 -4 18 -2 26 4 8 6 20 9 27 5 7 -4 5 0 -4 8 -22 17 -23 27 -3 27 8 0
25 -16 37 -35 24 -36 48 -46 48 -21 0 8 9 18 20 21 11 3 20 11 20 16 0 5 8 9
17 9 13 0 14 -3 5 -12 -19 -19 -14 -28 14 -28 22 0 24 -3 18 -22 -3 -13 -14
-30 -23 -39 -15 -15 -18 -15 -38 3 -20 18 -23 19 -43 5 -12 -9 -28 -13 -34
-11 -7 3 -22 -9 -34 -26 -13 -16 -29 -30 -38 -30 -8 0 -25 -7 -39 -16 -18 -12
-31 -13 -59 -5 -22 5 -36 6 -36 0 0 -5 -13 -9 -30 -9 -20 0 -30 -5 -30 -15 0
-19 2 -20 -63 15 -31 16 -61 30 -67 30 -18 0 -11 -18 10 -23 31 -8 34 -32 6
-61 -22 -25 -25 -26 -34 -10 -9 16 -11 16 -25 2 -19 -18 -10 -33 10 -17 10 9
13 7 13 -8 0 -27 -19 -43 -52 -43 -24 0 -28 4 -28 29 0 17 -5 33 -11 36 -6 4
-8 13 -5 21 3 8 -1 14 -10 14 -10 0 -14 -6 -10 -15 3 -8 0 -15 -5 -15 -7 0 -9
11 -7 25 3 14 1 25 -3 25 -5 0 -9 -4 -9 -9 0 -5 -8 -12 -18 -15 -19 -6 -25
-56 -9 -73 5 -4 7 1 5 11 -1 10 3 21 11 24 10 3 12 0 8 -12 -4 -10 -1 -16 8
-16 8 0 15 5 15 12 0 6 2 9 5 6 9 -9 -6 -58 -18 -58 -6 0 -21 -10 -34 -22 -22
-20 -23 -21 -24 -2 -1 10 -1 22 0 27 1 6 -12 9 -66 11 -10 1 -21 5 -25 11 -4
5 -14 2 -26 -8 -10 -9 -22 -17 -26 -17 -11 0 -36 -27 -36 -40 0 -6 -5 -8 -11
-5 -7 5 -5 13 5 24 18 19 21 41 7 41 -5 0 -12 -11 -15 -25 -4 -14 -18 -31 -32
-37 -22 -10 -28 -9 -39 5 -7 9 -17 17 -24 17 -6 0 -11 5 -11 11 0 8 -4 8 -14
0 -10 -9 -16 -9 -21 -1 -4 6 -19 16 -33 22 -27 10 -27 10 -5 20 17 8 21 18 19
44 -1 21 2 34 10 34 6 0 17 7 25 16 11 13 10 15 -6 12 -10 -1 -20 3 -22 10 -3
8 7 12 31 12 20 0 36 5 36 10 0 6 9 10 20 10 11 0 20 5 20 10 0 6 -4 10 -10
10 -17 0 -11 21 11 39 20 16 20 18 5 34 -10 9 -14 22 -10 29 5 7 2 9 -9 5 -9
-3 -29 -2 -44 2 -35 10 -85 -5 -63 -19 12 -8 10 -10 -7 -10 -18 0 -23 6 -23
25 0 14 5 25 10 25 6 0 10 5 10 10 0 7 -6 7 -20 0 -14 -8 -20 -8 -20 0 0 14
-79 50 -97 43 -9 -4 -11 0 -7 11 3 9 15 16 26 16 17 0 18 3 8 15 -18 21 -3 58
22 52 17 -5 19 -2 14 18 -3 13 0 27 7 33 13 10 52 10 63 -1 11 -10 24 -8 24 3
0 6 -6 10 -14 10 -11 0 -26 20 -26 35 0 8 63 24 74 19 6 -3 3 1 -7 10 -11 8
-26 12 -35 10 -10 -3 -2 3 16 13 24 14 30 21 21 30 -9 9 -6 10 11 6 19 -5 21
-3 15 16 -4 13 -2 21 6 21 8 0 8 4 -1 15 -11 13 -10 14 3 10 8 -4 18 -17 21
-31 4 -16 14 -24 27 -24 32 0 59 18 52 36 -3 8 3 21 13 30 18 14 18 14 -6 12
-14 -2 -24 -9 -22 -16 1 -9 -2 -11 -10 -5 -7 4 -21 6 -30 5 -10 -2 -18 2 -18
7 0 6 6 11 14 11 8 0 20 17 27 37 6 20 22 46 35 58 13 12 21 25 18 28 -3 3 6
13 20 22 21 14 24 21 15 31 -13 16 11 61 37 71 22 8 16 22 -8 17 -23 -4 -23
-4 0 6 13 5 28 8 33 4 5 -3 9 1 9 8 0 10 2 10 9 -1 5 -7 11 -9 14 -4 9 14 -38
37 -54 28 -8 -6 -10 -4 -4 4 4 7 18 11 31 8 14 -2 27 0 31 6 4 6 1 7 -7 2 -8
-5 -11 -3 -8 6 2 7 18 20 36 28 26 14 30 20 26 44 -3 20 -1 26 7 22 8 -5 9 0
4 16 -5 18 -4 20 4 9 11 -17 16 -14 25 18 6 18 3 22 -13 22 -25 0 -25 0 -6 36
11 23 15 25 20 11 4 -9 4 -21 0 -27 -3 -6 3 -10 16 -10 18 0 19 2 9 15 -10 12
-10 15 4 15 9 0 16 6 16 13 0 8 10 19 23 26 12 6 27 23 34 37 10 21 9 26 -5
32 -19 8 -28 32 -12 32 5 0 10 -4 10 -10 0 -5 7 -10 15 -10 8 0 14 4 13 9 -2
5 2 9 7 9 6 0 9 -4 8 -8 -1 -5 12 -1 30 8 29 16 30 17 10 20 -13 2 -23 6 -23
9 0 12 36 32 58 33 12 0 22 5 22 10 0 6 -4 10 -10 10 -5 0 -10 7 -10 16 0 14
2 14 16 3 9 -7 26 -14 37 -15 12 -2 16 0 10 2 -24 10 -13 24 12 18 15 -4 25
-2 25 5 0 6 -8 11 -19 11 -19 0 -48 26 -39 36 3 3 13 -2 22 -11 12 -12 20 -13
35 -5 11 5 22 10 25 10 12 0 6 -28 -6 -34 -7 -3 0 -2 16 1 22 4 33 1 43 -12 7
-11 13 -13 13 -7 0 15 47 16 56 1 5 -9 -1 -10 -20 -5 -18 4 -25 3 -21 -4 3 -5
-2 -10 -14 -10 -10 0 -22 6 -24 13 -4 9 -6 9 -6 0 -1 -7 -8 -13 -16 -13 -8 0
-15 -5 -15 -10 0 -6 17 -8 43 -4 31 4 38 3 27 -5 -22 -16 -3 -13 36 5 19 9 34
23 34 31 0 8 5 11 10 8 6 -4 8 -11 5 -16 -4 -5 -1 -9 4 -9 6 0 11 5 11 10 0 6
8 5 20 -2 15 -10 22 -10 32 0 6 6 23 12 38 11 25 -1 25 -1 -5 -14 -19 -9 -24
-14 -12 -15 9 0 17 -5 17 -12 0 -6 7 -3 15 8 15 19 15 19 30 0 8 -11 15 -16
15 -12 0 5 7 3 15 -4 16 -13 59 -4 49 11 -4 6 -11 6 -19 -1 -16 -13 -45 12
-45 41 0 10 -5 19 -11 19 -8 0 -7 6 2 17 12 15 12 16 -8 11 -12 -3 -34 2 -51
12 -17 10 -32 16 -35 14 -6 -7 -80 28 -92 44 -14 17 -41 6 -50 -21 l-8 -22 -4
23 c-2 12 -12 22 -21 22 -11 0 -13 -3 -6 -8 16 -10 5 -72 -12 -72 -8 0 -14 7
-14 15 0 8 4 15 9 15 4 0 7 10 7 22 -1 13 4 31 12 41 10 11 11 17 4 17 -7 0
-12 -4 -12 -10 0 -5 -7 -10 -15 -10 -8 0 -15 5 -15 10 0 6 -7 10 -15 10 -8 0
-15 4 -15 9 0 15 22 25 29 13 4 -7 12 -8 21 -2 8 6 31 10 50 10 20 0 42 6 48
12 10 10 15 10 21 -1 6 -9 11 -10 15 -2 4 6 2 11 -3 11 -6 0 -10 3 -10 8 4 21
-3 22 -27 3 -31 -25 -59 -28 -50 -6 3 8 -1 21 -9 29 -21 21 -18 28 5 14 24
-15 37 -4 19 18 -11 14 -10 16 11 12 13 -1 25 3 27 10 3 6 0 12 -6 12 -6 0
-11 5 -11 10 0 6 10 10 23 10 12 0 30 9 40 20 21 25 21 27 0 33 -17 4 -17 5 0
6 9 0 17 8 17 16 0 8 9 19 20 25 11 6 20 19 20 29 0 22 14 34 55 50 l30 11
-30 -5 c-28 -5 -29 -4 -11 10 11 8 16 15 10 15 -5 0 -2 5 6 10 8 5 25 7 37 3
14 -3 23 -1 23 6 0 6 -8 11 -17 11 -15 0 -16 2 -3 9 8 6 18 7 23 4 5 -3 13 1
18 8 7 11 9 11 9 -3 0 -9 -6 -18 -13 -21 -17 -6 2 -24 36 -32 16 -5 27 -3 27
3 0 6 -15 12 -32 14 l-33 4 29 8 c22 7 31 5 37 -7 6 -10 31 -18 66 -23 48 -6
54 -9 40 -19 -25 -18 -21 -22 21 -19 30 1 36 6 34 20 -2 15 -1 16 7 5 5 -8 7
-20 4 -27 -4 -11 1 -12 26 -3 17 6 31 15 31 20 0 13 -14 11 -28 -3 -9 -9 -12
-9 -12 0 0 6 8 16 18 21 16 10 16 10 -1 11 -10 0 -15 5 -12 10 3 6 -1 10 -9
10 -9 0 -16 4 -16 9 0 15 -28 20 -61 11 -25 -7 -37 -6 -49 5 -9 8 -26 15 -38
15 -12 0 -22 5 -22 10 0 6 6 10 13 10 8 0 7 4 -3 10 -23 15 -29 12 -22 -12 5
-20 3 -21 -10 -10 -9 7 -22 11 -29 9 -8 -2 -11 -2 -6 0 4 3 5 9 1 14 -3 5 -2
8 3 7 5 -2 21 7 37 19 21 17 24 23 12 23 -9 0 -19 -7 -22 -15 -4 -8 -13 -15
-22 -15 -8 0 -12 3 -9 7 4 3 1 13 -6 21 -10 13 -9 15 7 9 14 -6 17 -4 12 9 -4
12 -1 14 14 9 22 -7 29 20 8 28 -7 3 -3 6 10 6 13 1 20 -3 17 -9 -3 -6 1 -7
10 -4 14 6 14 8 -2 20 -16 13 -17 15 -2 27 14 10 14 14 3 25 -7 6 -19 12 -26
12 -9 0 -9 3 2 10 21 14 30 12 30 -5 0 -9 6 -12 15 -9 12 5 13 10 4 20 -6 8
-8 15 -3 15 5 1 14 2 19 4 6 1 17 3 25 4 13 1 13 2 0 11 -12 7 -8 10 15 10 21
0 26 3 18 11 -6 6 -9 19 -6 28 3 13 2 12 -7 -2 -11 -17 -30 -15 -30 2 0 15 44
21 52 8 12 -19 10 11 -3 35 -14 25 -6 33 19 17 16 -10 23 -9 43 6 14 10 17 15
7 12 -10 -4 -24 0 -32 8 -8 8 -20 15 -26 15 -6 0 -8 5 -5 10 9 15 -7 12 -31
-4 -13 -9 -25 -11 -34 -6 -12 8 -12 10 0 14 48 15 65 14 88 -5 27 -21 42 -18
23 4 -9 12 -6 13 16 10 22 -4 25 -2 13 6 -12 8 -12 11 -1 11 23 0 -8 30 -33
31 -20 0 -20 1 3 10 l24 9 -27 25 c-23 22 -25 28 -15 47 9 17 14 19 17 8 3 -7
0 -16 -6 -18 -7 -2 -4 -11 8 -24 17 -18 22 -19 37 -7 16 13 17 12 5 -3 -12
-15 -9 -19 20 -34 18 -9 35 -20 38 -24 9 -13 50 -22 50 -11 0 6 -7 11 -15 11
-8 0 -15 4 -15 9 0 5 -9 11 -20 14 -11 3 -20 12 -20 21 0 13 4 15 19 6 11 -5
26 -10 33 -9 7 0 2 6 -12 12 -35 16 -59 54 -26 41 8 -3 17 -1 20 5 4 6 -11 15
-34 21 -22 6 -40 15 -40 19 0 5 -10 11 -21 14 -14 4 -20 11 -16 21 4 9 3 15
-1 15 -20 -3 -33 2 -27 11 10 16 22 12 49 -15 16 -16 26 -20 29 -12 3 8 10 5
20 -8 14 -17 19 -18 37 -7 11 7 25 10 30 7 6 -4 10 0 10 7 0 8 5 6 11 -4 6
-10 22 -18 37 -18 20 0 23 3 13 9 -8 5 -21 7 -29 3 -12 -4 -14 0 -10 16 6 21
-1 26 -29 23 -7 -1 -13 3 -13 9 0 5 5 10 11 10 5 0 7 5 4 10 -3 6 -18 10 -33
10 -21 0 -24 2 -12 10 8 5 27 10 42 10 18 0 29 7 33 20 7 22 20 26 30 10 3 -6
-1 -10 -9 -10 -9 0 -16 -6 -16 -12 0 -7 -3 -22 -6 -34 -5 -19 -2 -20 28 -16
29 5 30 6 10 11 -23 6 -23 7 -5 27 14 16 27 20 63 16 50 -5 52 4 4 12 -17 3
-43 12 -58 20 l-27 14 26 4 c14 3 28 1 31 -3 3 -5 10 -9 15 -9 6 0 8 4 5 9 -3
5 1 14 9 21 19 16 19 26 -1 34 -8 3 -13 2 -10 -2 3 -5 -8 -13 -25 -19 -16 -6
-29 -8 -29 -4 0 4 -13 15 -30 24 -16 10 -30 14 -30 8 0 -5 6 -12 13 -14 7 -3
4 -6 -6 -6 -10 -1 -16 -5 -12 -10 10 -17 -10 -20 -53 -9 -23 6 -39 14 -36 19
3 5 9 7 14 4 5 -3 11 -1 15 5 3 5 2 10 -4 10 -5 0 -18 3 -28 7 -10 3 -14 2
-10 -2 15 -17 -75 -36 -110 -24 -32 10 -45 29 -21 29 6 0 20 8 31 18 15 12 21
14 24 5 6 -16 24 -17 21 -1 -2 6 8 14 22 18 24 6 24 7 4 13 -12 4 -29 5 -38 1
-9 -3 -16 -2 -16 4 0 6 12 15 27 20 l28 10 -29 1 c-23 1 -26 4 -17 14 6 8 8
17 4 20 -3 4 -1 7 5 7 5 0 17 3 26 6 9 3 16 1 16 -5 0 -6 -5 -10 -11 -9 -6 2
-14 -3 -16 -9 -6 -16 19 -17 34 -2 8 8 13 8 17 0 4 -6 3 -11 -3 -11 -6 0 -8
-7 -5 -15 4 -8 10 -15 16 -15 5 0 6 4 3 10 -3 5 3 10 14 10 27 0 27 -17 1 -25
-11 -3 -20 -11 -20 -16 0 -6 9 -7 21 -4 21 7 47 13 62 14 5 1 5 6 1 13 -4 7
-9 22 -10 34 -3 26 32 40 44 18 10 -19 56 -4 65 21 5 13 3 14 -11 6 -12 -7
-22 -5 -34 6 -11 10 -22 12 -35 5 -23 -12 -43 -5 -36 14 3 8 0 14 -6 14 -6 0
-11 5 -11 10 0 18 22 10 27 -10 5 -20 33 -29 33 -11 0 5 8 12 18 14 11 3 7 5
-10 6 -15 0 -30 6 -33 11 -9 14 -42 12 -49 -2 -5 -10 -7 -10 -12 0 -3 6 -15
12 -27 12 -20 1 -20 2 -4 11 9 5 17 17 17 24 0 8 5 15 12 15 6 0 8 3 5 6 -4 4
-13 1 -22 -6 -12 -10 -18 -10 -30 0 -9 8 -15 8 -15 2 0 -6 5 -12 12 -14 17 -6
0 -28 -23 -28 -10 0 -19 -4 -19 -10 0 -5 7 -7 15 -4 8 4 26 -1 40 -10 13 -9
33 -16 44 -16 14 0 19 -6 18 -20 -1 -11 -7 -20 -15 -20 -7 0 -11 -4 -8 -8 7
-12 -25 -8 -51 6 -14 8 -20 18 -16 32 4 16 2 19 -11 14 -11 -4 -15 -13 -11
-25 4 -11 2 -19 -5 -19 -6 0 -8 4 -5 10 4 6 -7 10 -24 10 -17 0 -31 -5 -31
-11 0 -6 7 -9 15 -6 8 4 17 2 20 -3 4 -6 0 -10 -7 -10 -10 0 -9 -3 1 -9 12 -8
12 -12 2 -25 -7 -8 -10 -20 -7 -25 4 -6 -5 -16 -20 -24 -18 -9 -23 -16 -15
-21 16 -10 -26 -47 -45 -39 -8 3 -14 0 -14 -6 0 -6 9 -11 21 -11 28 0 61 -19
54 -31 -10 -15 -45 -10 -45 6 0 8 -7 15 -16 15 -8 0 -12 -4 -9 -10 8 -13 -18
-13 -30 -1 -6 6 -28 6 -55 1 -73 -15 -90 -13 -90 10 0 20 19 25 77 20 18 -1
22 3 17 17 -5 14 -2 14 14 -4 11 -13 27 -23 36 -23 22 0 20 9 -6 31 -15 13
-17 19 -7 19 8 0 21 -6 28 -12 11 -11 13 -7 8 20 -6 30 7 46 16 20 3 -10 10
-10 30 1 32 17 36 41 7 41 -13 0 -20 7 -20 20 0 11 7 20 16 20 8 0 13 4 10 9
-3 5 1 15 10 22 14 12 14 14 -3 20 -10 4 -29 5 -43 2 -23 -5 -23 -4 -7 8 16
13 15 14 -8 15 -15 1 -22 -2 -18 -9 3 -6 1 -7 -5 -3 -15 9 -3 38 14 32 8 -3
14 -1 14 4 0 6 -6 10 -12 10 -18 -1 -48 -25 -48 -39 0 -6 -6 -11 -14 -11 -8 0
-21 -7 -30 -15 -12 -12 -20 -13 -40 -3 -14 6 -26 15 -26 20 0 5 -4 6 -10 3 -5
-3 -10 -2 -10 3 0 6 -7 13 -16 16 -8 3 -12 2 -9 -3 9 -15 -15 -24 -30 -11 -20
17 -61 -7 -88 -50 -13 -22 -16 -30 -6 -23 16 13 62 6 54 -7 -3 -5 -23 -11 -45
-15 -22 -4 -40 -11 -40 -17 0 -6 11 -8 28 -4 46 11 82 28 77 36 -3 5 4 6 15 3
11 -3 20 -10 20 -15 0 -5 -4 -6 -10 -3 -5 3 -15 3 -21 -1 -18 -11 11 -24 56
-24 22 0 47 -5 55 -10 13 -8 12 -10 -4 -10 -16 0 -17 -2 -5 -17 13 -17 13 -17
-7 0 -11 9 -24 14 -28 10 -4 -4 -11 -1 -16 7 -7 10 -10 11 -10 3 0 -7 -9 -13
-20 -13 -11 0 -20 -5 -20 -11 0 -7 14 -8 39 -4 21 3 41 2 45 -3 8 -13 -72 -14
-94 0 -10 7 -23 8 -27 4 -4 -5 -2 -11 5 -13 6 -3 12 -9 12 -14 0 -4 -7 -6 -15
-3 -9 4 -15 0 -15 -10 0 -9 -6 -16 -13 -16 -8 0 -22 -9 -32 -20 -21 -23 -9
-26 19 -5 22 17 76 20 76 5 0 -5 6 -10 13 -10 6 1 1 10 -12 20 -18 16 -20 20
-7 20 10 0 31 -7 48 -16 l30 -16 -24 -12 c-13 -7 -39 -13 -58 -14 -81 -5 -107
-16 -88 -39 14 -18 -4 -45 -22 -33 -13 9 -13 11 0 21 12 8 10 9 -9 4 -17 -5
-21 -4 -16 5 5 9 2 10 -13 6 -21 -7 -99 10 -117 26 -14 13 -25 9 -25 -8 0 -10
-6 -14 -15 -11 -8 4 -17 2 -20 -3 -4 -6 -2 -10 4 -10 6 0 8 -7 5 -15 -9 -22
-24 -8 -24 22 0 15 3 23 7 20 3 -4 17 2 29 14 23 22 57 28 87 15 13 -6 17 -3
17 12 0 15 8 22 27 24 14 2 28 9 31 16 3 11 0 12 -17 3 -17 -10 -21 -9 -21 4
0 8 -4 15 -10 15 -5 0 -10 -6 -10 -12 0 -7 -11 -14 -25 -14 -14 -1 -25 2 -25
7 0 17 -20 9 -20 -8 -1 -20 -50 -61 -50 -42 0 6 8 18 18 25 12 10 13 13 3 14
-9 0 -6 7 9 20 18 16 35 19 86 17 35 -1 64 1 64 4 0 4 12 7 27 7 14 -1 31 6
37 13 12 15 66 22 66 9 0 -5 9 -6 21 -3 16 4 17 8 7 14 -16 11 -85 12 -92 1
-2 -4 -31 -8 -63 -9 -47 -1 -53 0 -29 7 16 5 33 15 37 21 12 19 -2 40 -23 37
-14 -2 -23 5 -29 20 -7 19 -5 22 14 22 18 0 19 -2 7 -10 -12 -8 -9 -10 12 -10
14 0 35 -3 45 -6 15 -5 15 -4 3 5 -12 9 -10 11 13 11 15 0 27 5 27 10 0 6 -29
10 -68 10 -53 0 -69 3 -69 14 0 12 5 13 19 5 16 -9 20 -7 25 10 3 11 14 23 24
26 10 4 19 10 19 14 0 4 13 6 30 5 39 -3 39 15 -1 23 -22 4 -27 8 -17 14 10 7
9 9 -4 9 -10 0 -18 -4 -18 -10 0 -5 -13 -10 -29 -10 -25 0 -29 -3 -26 -25 2
-19 -2 -25 -16 -25 -11 0 -19 -6 -19 -13 0 -14 -37 -21 -44 -8 -7 11 -76 1
-76 -11 0 -7 16 -8 40 -5 22 3 40 2 40 -3 0 -4 12 -11 26 -14 15 -4 24 -10 21
-13 -4 -3 -2 -14 4 -24 6 -13 6 -25 -3 -41 -7 -13 -13 -24 -13 -25 0 -1 -18 2
-38 7 -22 5 -52 4 -70 -1 -22 -6 -33 -5 -38 3 -5 7 -12 9 -16 4 -4 -5 -2 -11
5 -13 20 -8 14 -31 -10 -36 -20 -4 -19 -4 5 -6 31 -1 34 -14 9 -39 -10 -10
-17 -23 -15 -29 2 -6 -1 -14 -6 -18 -6 -3 -11 0 -11 7 0 9 -3 9 -8 2 -4 -6
-25 -13 -47 -16 -31 -4 -47 -1 -64 13 -26 21 -26 21 6 38 22 11 22 12 4 30
-15 15 -28 18 -60 14 -22 -3 -42 -12 -45 -19 -4 -11 1 -13 22 -8 15 4 32 10
37 15 6 4 17 4 24 -1 27 -16 -27 -48 -94 -56 -100 -12 -116 -13 -110 -4 3 6
-1 7 -9 4 -9 -3 -13 -10 -10 -15 3 -5 -23 -10 -58 -11 -84 -2 -111 1 -119 14
-4 6 -18 4 -39 -7 -17 -9 -30 -19 -27 -22 3 -2 16 3 29 11 23 15 38 13 38 -5
0 -4 -14 -10 -31 -14 -20 -5 -28 -10 -21 -17 6 -6 17 -6 30 1 10 6 22 7 26 4
4 -4 26 -6 49 -4 43 3 47 -10 5 -14 -13 -1 -29 -3 -35 -4 -7 0 -13 -6 -13 -12
0 -6 7 -8 16 -5 9 3 21 3 27 -1 16 -10 67 -12 72 -3 3 5 13 6 23 4 30 -7 77
11 77 30 0 14 9 19 36 22 19 1 42 4 50 6 9 2 13 -4 11 -15 -3 -15 1 -17 20
-12 13 4 26 12 29 17 3 5 11 3 17 -5 10 -12 1 -17 -55 -31 -38 -9 -79 -16 -93
-17 -25 -1 -25 -1 4 -14 l29 -12 -24 -13 c-13 -8 -26 -12 -29 -11 -2 1 -6 -2
-8 -8 -5 -14 0 -14 35 0 15 5 24 7 21 3 -11 -10 41 -47 57 -40 8 3 15 10 15
16 0 5 6 10 13 10 7 0 12 -13 12 -32 -1 -18 4 -36 10 -40 13 -9 57 1 70 16 6
6 21 13 35 14 21 4 22 2 11 -12 -8 -9 -19 -15 -25 -15 -17 3 -46 -12 -41 -21
3 -4 -6 -10 -20 -12 -17 -4 -25 -1 -25 8 0 8 -4 14 -10 14 -5 0 -10 -5 -10
-10 0 -6 -16 -10 -35 -8 -19 1 -34 7 -32 13 2 5 13 9 25 7 11 -2 23 1 26 7 3
5 -3 7 -14 4 -12 -3 -22 1 -26 10 -5 14 -10 14 -42 -3 -24 -13 -40 -16 -46
-10 -13 13 -39 13 -31 1 3 -5 19 -13 37 -16 28 -7 30 -8 12 -18 -10 -6 -29
-21 -41 -34 -12 -12 -29 -23 -38 -23 -9 0 -14 -4 -10 -9 3 -5 0 -13 -6 -17 -8
-4 -8 -8 0 -13 5 -4 8 -17 4 -29 -4 -17 -10 -21 -24 -17 -11 4 -19 3 -18 -2 1
-4 -1 -16 -5 -25 -6 -14 -13 -15 -34 -7 -15 6 -35 18 -46 27 -10 9 -26 17 -35
18 -56 4 -57 4 -38 15 9 5 17 17 17 26 0 10 6 13 16 9 9 -3 18 -6 20 -6 2 0 4
-7 4 -15 0 -8 7 -15 15 -15 8 0 15 5 15 10 0 16 -40 51 -50 45 -6 -4 -10 -2
-10 4 0 11 38 26 57 23 6 -2 14 2 18 8 3 5 0 11 -7 11 -34 3 -38 5 -38 14 0 6
8 10 17 10 9 0 18 5 20 12 3 8 -4 11 -19 8 -21 -4 -20 -1 9 24 22 18 33 36 33
54 0 31 -26 37 -45 10 -11 -15 -12 -13 -9 15 3 23 0 32 -11 32 -8 0 -15 5 -15
10 0 7 -6 8 -16 2 -21 -12 -28 -101 -8 -109 20 -8 6 -30 -29 -44 -29 -12 -62
-44 -62 -61 0 -15 -15 -19 -33 -9 -14 7 -18 17 -15 31 6 22 -15 28 -34 9 -6
-6 -17 -9 -25 -6 -9 4 -5 8 10 12 12 4 22 14 22 21 0 8 5 14 10 14 6 0 9 6 8
13 -2 7 10 13 30 15 24 2 32 8 30 20 -2 12 4 17 18 16 16 0 20 4 16 14 -3 9
-1 13 4 9 8 -4 11 32 5 52 0 3 -12 -6 -26 -19 -39 -37 -38 -19 2 23 34 36 34
39 14 44 -11 3 -21 7 -21 9 0 3 14 20 32 39 21 24 37 33 49 30 13 -4 16 -1 13
13 -4 13 18 40 76 95 44 42 85 77 90 77 6 0 10 6 10 14 0 8 6 21 14 28 7 7
174 172 369 366 245 243 362 352 377 352 12 0 28 7 36 15 18 18 11 19 -18 4
-16 -9 -19 -8 -16 3 2 7 14 17 26 23 12 5 22 13 22 18 0 16 28 37 49 37 11 0
38 -6 58 -14 67 -26 327 -106 351 -108 22 -3 24 1 28 72 3 41 9 79 14 84 11
11 91 25 84 15 -3 -5 2 -9 10 -9 23 0 20 27 -4 33 -11 3 -22 2 -25 -3 -8 -13
-65 -18 -65 -6 0 6 7 67 15 136 8 69 15 128 15 132 0 6 108 -19 125 -30 6 -4
14 -7 20 -7 5 0 11 -8 13 -17 2 -10 -1 -18 -7 -18 -6 0 -11 5 -11 12 0 6 -3 8
-6 5 -4 -4 -1 -14 6 -23 12 -13 11 -17 -1 -25 -8 -5 -9 -9 -2 -9 6 0 20 -3 30
-6 11 -4 14 -3 7 3 -18 14 -12 43 10 48 37 8 141 0 153 -11 9 -9 5 -16 -20
-28 l-32 -16 37 3 c20 1 34 5 31 10 -2 4 3 10 11 13 9 3 16 16 15 28 0 11 -3
15 -6 9 -6 -15 -33 -17 -33 -3 0 6 5 10 11 10 5 0 8 4 5 9 -3 5 -15 7 -26 4
-23 -6 -24 -3 -9 68 6 30 12 62 13 72 1 9 11 24 22 32 17 13 17 14 2 15 -10 0
-18 3 -18 8 0 8 97 8 106 -1 9 -9 -17 -81 -35 -94 -11 -8 -12 -12 -3 -13 15 0
16 -40 1 -40 -8 0 -8 -4 -1 -13 8 -9 8 -20 -2 -38 -7 -13 -10 -31 -8 -38 3 -8
-3 -20 -14 -28 -11 -8 -13 -13 -5 -13 9 0 11 -7 6 -22 -9 -29 -25 -107 -28
-130 -1 -10 -5 -18 -9 -18 -3 0 -4 -16 -1 -35 4 -23 2 -35 -6 -35 -6 0 -11 -6
-11 -14 0 -17 -24 -28 -45 -20 -10 4 -15 0 -15 -12 0 -16 -2 -16 -9 -4 -6 8
-7 18 -4 24 3 5 1 6 -5 2 -7 -4 -12 -3 -12 3 0 5 5 13 10 16 6 3 10 13 10 21
0 8 -4 14 -10 14 -5 0 -10 -9 -10 -21 0 -18 -4 -20 -27 -14 -15 3 -31 12 -35
18 -6 9 -8 8 -8 -1 0 -7 -4 -10 -10 -7 -5 3 -7 0 -4 -8 3 -8 14 -12 28 -10 13
3 28 -2 37 -13 13 -16 12 -17 -13 -12 -16 3 -28 1 -28 -3 0 -5 -7 -9 -17 -9
-9 0 -13 -3 -10 -7 11 -10 67 -5 83 8 10 8 14 8 14 0 0 -6 -11 -13 -25 -17
-14 -3 -25 -10 -25 -15 0 -5 -3 -8 -7 -8 -21 3 -26 -2 -13 -12 11 -8 6 -9 -21
-5 -44 8 -72 -2 -65 -20 3 -8 0 -14 -7 -14 -19 0 15 -20 36 -20 9 0 17 7 17
16 0 13 8 15 43 10 107 -16 106 -16 96 18 -6 19 -5 34 2 41 7 7 8 4 3 -10 -7
-18 -6 -18 9 -6 9 7 15 17 12 21 -8 12 11 21 29 14 22 -9 20 -24 -3 -24 -21 0
-37 -17 -26 -28 3 -3 10 0 15 8 5 8 12 11 15 8 10 -10 -4 -28 -21 -28 -8 0
-14 -4 -14 -10 0 -5 6 -10 14 -10 9 0 15 -14 18 -38 3 -36 2 -38 -22 -36 -14
2 -17 1 -7 -2 9 -3 17 -10 17 -16 0 -5 -6 -8 -14 -5 -11 4 -12 -2 -6 -29 7
-29 5 -36 -14 -46 -11 -7 -24 -11 -28 -10 -4 1 -6 -12 -4 -29 6 -48 -4 -70
-38 -86 l-31 -14 32 5 c26 4 31 2 26 -10 -3 -8 -2 -14 3 -13 5 1 17 -1 27 -6
14 -6 15 -10 6 -21 -9 -11 -8 -14 5 -14 10 0 14 -5 11 -10 -4 -6 -11 -8 -16
-5 -13 9 -49 -4 -49 -17 0 -6 6 -6 15 2 19 16 46 -4 38 -28 -4 -13 -3 -14 5
-4 5 7 24 15 43 18 24 3 30 2 19 -5 -12 -8 -12 -13 5 -31 10 -11 19 -33 20
-48 1 -15 5 -34 10 -42 13 -20 16 -43 20 -135 3 -44 5 -80 6 -80 6 0 4 -55 -2
-72 -5 -13 -4 -25 1 -28 6 -4 10 -30 10 -58 0 -37 -3 -48 -10 -37 -15 23 -12
2 5 -29 8 -16 14 -49 13 -75 -1 -45 -1 -46 -34 -46 -19 0 -34 -4 -34 -9 0 -5
-8 -12 -17 -14 -10 -3 5 -5 33 -6 l51 -1 0 -118 c0 -118 8 -227 20 -257 3 -10
0 -21 -8 -26 -12 -7 -12 -12 -1 -29 10 -17 10 -21 -3 -26 -8 -4 -15 -13 -15
-21 0 -8 -9 -17 -20 -20 -27 -7 -21 -24 13 -41 20 -10 27 -21 27 -43 0 -19 5
-29 15 -29 8 0 15 -8 15 -17 0 -14 -2 -15 -9 -5 -7 11 -10 10 -15 -3 -9 -25
-8 -27 17 -20 17 5 19 4 7 -5 -13 -9 -13 -12 4 -25 10 -7 15 -19 11 -25 -4 -6
-1 -9 7 -8 18 4 24 -52 6 -63 -11 -7 -11 -9 0 -9 24 0 38 -24 40 -71 2 -35 -2
-49 -18 -64 -27 -24 -26 -29 15 -91 40 -60 42 -70 16 -98 -26 -29 -52 -142
-50 -218 1 -35 -3 -144 -10 -243 -6 -98 -9 -192 -6 -207 4 -17 2 -28 -4 -28
-8 0 -7 -6 1 -19 8 -14 9 -23 1 -33 -6 -7 -8 -21 -4 -31 13 -36 0 -88 -25 -99
-23 -11 -23 -12 -8 -29 17 -19 8 -42 -82 -225 -8 -17 -15 -49 -16 -72 0 -28
-5 -42 -14 -42 -20 0 -27 19 -13 37 11 13 10 18 -6 30 -11 8 -19 20 -17 28 1
7 -12 18 -29 24 -62 21 -98 7 -39 -16 30 -11 40 -36 19 -48 -16 -10 -59 4 -59
19 0 8 -7 17 -16 20 -11 4 -13 13 -9 27 7 20 5 21 -24 16 -34 -7 -42 6 -13 22
9 6 13 10 7 11 -18 0 -32 -15 -38 -42 -4 -14 -9 -32 -12 -40 -4 -9 2 -14 15
-14 13 0 20 7 20 18 0 23 13 23 34 -1 16 -17 16 -19 -4 -24 -28 -7 -26 -31 3
-24 12 3 31 1 42 -3 17 -7 17 -9 3 -9 -10 -1 -18 -5 -18 -11 0 -5 -6 -7 -14
-4 -8 3 -17 1 -21 -5 -9 -16 -25 -13 -25 4 0 8 -7 15 -16 15 -8 0 -13 4 -10 9
3 5 -15 16 -40 26 -36 14 -48 14 -60 5 -24 -21 -30 -1 -6 23 19 19 24 20 32 7
8 -13 10 -12 10 3 0 9 -6 17 -14 17 -8 0 -21 3 -29 6 -10 4 -16 -5 -21 -31 -6
-31 -11 -36 -29 -32 -42 10 -77 -25 -37 -36 11 -3 18 -1 14 4 -3 5 -1 9 5 9 5
0 11 -6 14 -12 3 -10 8 -10 21 1 12 10 20 11 24 4 4 -5 25 -13 47 -17 37 -7
39 -9 20 -22 -10 -8 -27 -12 -37 -8 -10 3 -18 2 -18 -2 0 -11 42 -44 57 -44 7
0 13 -4 13 -8 0 -14 -55 -7 -61 8 -6 13 -8 12 -14 -2 -10 -25 2 -50 22 -46 16
3 71 -38 62 -46 -2 -2 -18 -7 -36 -10 -25 -6 -32 -4 -36 11 -4 15 -5 14 -6 -3
0 -12 -8 -24 -16 -28 -23 -9 -18 -21 10 -21 14 0 25 3 25 8 0 4 5 7 10 7 6 0
10 -7 10 -15 0 -12 -11 -15 -49 -14 -35 2 -54 -3 -67 -15 -13 -14 -14 -20 -5
-26 10 -5 9 -9 -3 -13 -9 -4 -16 -13 -16 -21 0 -24 -86 -110 -103 -103 -9 3
-17 2 -19 -4 -4 -12 -68 -30 -68 -19 0 5 4 12 10 15 16 10 11 27 -7 23 -9 -2
-20 -14 -23 -28 -3 -14 -12 -25 -20 -26 -8 0 -23 -4 -33 -9 -11 -4 -23 -3 -29
3 -7 7 -20 5 -42 -9 -39 -24 -64 -26 -46 -4 7 8 8 15 2 15 -5 0 -15 -7 -22
-15 -7 -8 -21 -15 -31 -15 -10 0 -21 -5 -24 -11 -8 -13 -6 -15 23 -24 16 -5
22 -3 20 7 -3 15 39 12 59 -4 14 -12 36 -1 27 14 -4 6 3 8 17 6 29 -4 39 -38
12 -39 -10 0 -2 -5 17 -11 24 -7 36 -6 38 1 2 6 9 11 17 11 21 0 105 -51 105
-64 0 -14 37 -19 45 -5 10 15 25 10 25 -7 0 -14 11 -15 86 -10 48 4 90 7 93 8
3 0 15 -1 26 -2 18 -2 -63 -28 -107 -34 -10 -1 -26 -10 -36 -20 -14 -11 -28
-15 -46 -10 -14 3 -45 7 -68 8 -37 1 -47 -3 -74 -33 -18 -19 -29 -41 -26 -49
7 -19 -19 -34 -35 -20 -16 13 -53 -16 -53 -42 0 -10 -6 -33 -14 -51 -12 -28
-16 -31 -21 -16 -9 22 -28 22 -49 -2 -10 -11 -31 -23 -48 -26 -28 -7 -29 -8
-12 -26 16 -18 16 -19 -6 -19 -12 0 -28 7 -35 17 -9 13 -14 13 -20 3 -5 -9 -4
-11 3 -6 7 4 12 5 12 2 0 -3 -20 -14 -44 -25 -24 -10 -49 -28 -55 -39 -6 -11
-24 -27 -40 -35 -28 -14 -31 -14 -45 7 -15 21 -15 21 -17 -9 -1 -16 -1 -33 0
-37 0 -4 -13 -2 -29 3 -16 6 -37 9 -47 6 -14 -4 -14 -5 4 -6 30 -1 37 -17 20
-42 -8 -11 -13 -28 -10 -38 3 -11 -4 -22 -19 -29 l-23 -12 23 6 c21 5 22 4 10
-15 -7 -12 -17 -21 -21 -21 -5 0 -5 -9 -2 -20 4 -12 1 -28 -6 -36 -10 -13 -10
-17 0 -24 8 -4 10 -13 7 -19 -10 -16 -36 -13 -36 4 0 25 -30 17 -42 -13 -7
-15 -24 -37 -38 -49 -18 -16 -21 -22 -9 -23 8 0 26 11 39 25 30 32 50 32 50
-1 0 -16 -4 -23 -12 -18 -6 4 -17 -1 -24 -11 -7 -10 -19 -15 -27 -12 -8 3 -20
1 -28 -4 -11 -6 -11 -11 -1 -21 9 -9 12 -9 12 0 0 8 10 11 28 8 15 -2 31 -5
36 -5 19 -2 -6 -16 -32 -19 -55 -5 -62 -6 -62 -14 0 -5 -20 -17 -45 -28 -25
-11 -45 -24 -45 -30 0 -5 5 -9 11 -8 24 6 19 -22 -5 -33 -28 -13 -35 -39 -11
-39 13 0 14 -4 5 -20 -6 -11 -18 -20 -27 -20 -12 0 -13 -3 -3 -15 13 -16 6
-35 -14 -35 -20 0 -40 -27 -25 -32 7 -2 18 -26 25 -54 11 -42 11 -51 -2 -60
-17 -14 -18 -24 -1 -24 19 0 34 -13 41 -36 5 -16 2 -23 -14 -27 -19 -5 -28
-31 -12 -40 4 -2 24 -7 45 -11 36 -7 37 -6 32 17 -4 14 -2 28 4 31 17 11 13
26 -6 26 -14 0 -14 2 2 20 l19 21 13 -26 c15 -29 45 -34 41 -8 -2 12 4 18 17
18 15 0 20 7 20 28 -1 15 3 27 7 27 4 0 8 -9 8 -20 0 -15 7 -20 25 -20 30 0
34 25 5 33 -12 3 -20 14 -20 27 0 16 4 20 19 15 28 -9 53 4 42 23 -10 17 -79
26 -97 11 -12 -9 -54 -1 -54 11 0 5 15 11 33 15 56 11 67 16 67 29 0 19 63 48
72 33 10 -16 0 -27 -17 -20 -11 4 -15 -3 -15 -26 0 -34 7 -38 35 -17 11 8 25
12 32 9 7 -3 20 0 28 7 9 7 18 10 22 7 8 -9 -48 -52 -67 -52 -24 0 -18 -30 7
-33 27 -4 54 -33 36 -39 -7 -3 -13 -13 -13 -23 0 -21 -47 -34 -52 -14 -5 24
-53 -8 -52 -35 1 -19 -3 -21 -25 -16 -14 4 -27 11 -29 16 -6 15 -22 10 -22 -6
0 -9 7 -18 15 -21 26 -10 17 -22 -20 -26 -24 -3 -35 0 -35 9 0 18 -19 16 -26
-2 -3 -8 2 -22 11 -31 12 -12 13 -19 5 -24 -17 -11 -3 -48 18 -46 11 0 18 -7
20 -22 2 -12 8 -22 13 -22 5 0 8 5 7 12 -2 6 5 13 14 16 14 3 16 -2 11 -35 -3
-21 -12 -42 -20 -46 -15 -9 -17 -27 -3 -27 6 0 15 11 22 25 12 27 28 24 28 -6
0 -10 5 -20 10 -20 6 -1 16 -2 23 -3 6 0 12 -11 13 -22 1 -12 4 -27 8 -33 4
-7 2 -19 -6 -28 -11 -15 -11 -16 6 -10 15 6 17 4 12 -17 -5 -19 -2 -24 10 -22
9 1 20 10 26 19 5 9 16 17 23 17 8 0 15 5 15 10 0 6 -11 10 -25 10 -14 0 -25
5 -25 10 0 6 -7 10 -15 10 -17 0 -20 16 -5 25 5 3 10 15 10 26 0 11 -5 17 -10
14 -5 -3 -10 -1 -10 4 0 6 11 11 25 11 14 0 25 5 25 10 0 6 9 10 19 10 11 0
23 9 26 21 6 19 20 18 20 -1 0 -4 11 -17 25 -29 20 -16 21 -20 8 -21 -9 0 -24
7 -33 16 -15 15 -18 15 -36 -5 -11 -11 -24 -21 -29 -21 -6 0 -10 -4 -10 -10 0
-5 7 -10 15 -10 8 0 28 -14 44 -32 17 -19 32 -28 40 -24 17 11 -5 36 -30 36
-11 0 -19 4 -19 9 0 15 21 25 29 14 21 -32 56 -18 56 21 0 11 6 21 12 23 9 3
13 -7 13 -32 0 -28 -5 -38 -20 -42 -35 -9 -22 -29 16 -24 7 1 14 -5 18 -14 3
-8 12 -15 20 -15 10 0 13 -6 10 -15 -8 -19 -43 -19 -69 0 -17 14 -21 13 -40
-10 l-20 -26 -23 21 c-23 22 -29 12 -12 -21 6 -10 21 -19 34 -19 13 0 29 -7
36 -15 7 -8 16 -12 21 -9 5 3 9 -3 9 -13 0 -15 2 -16 10 -3 5 8 12 11 17 7 4
-4 2 -16 -5 -27 -13 -22 -3 -33 18 -20 8 5 32 7 53 3 35 -5 37 -4 37 21 0 16
-5 26 -15 26 -11 0 -12 6 -6 22 11 31 33 36 30 7 -2 -13 0 -29 4 -35 4 -7 8
-32 8 -58 2 -31 7 -46 16 -46 15 0 17 -16 3 -25 -5 -3 -27 10 -47 30 -34 33
-38 35 -50 19 -7 -10 -13 -12 -13 -6 0 20 -27 13 -33 -8 -3 -11 -13 -20 -22
-20 -13 0 -15 7 -9 38 6 33 5 36 -9 24 -9 -8 -13 -20 -10 -28 3 -8 0 -14 -6
-14 -6 0 -11 5 -11 10 0 6 -4 10 -10 10 -18 0 -11 -18 10 -25 11 -3 20 -10 20
-15 0 -4 -9 -6 -20 -3 -14 4 -20 0 -20 -11 0 -9 -8 -16 -20 -16 -14 0 -18 5
-13 18 4 13 3 14 -6 6 -6 -6 -9 -18 -5 -27 7 -19 40 -23 46 -5 4 12 28 3 28
-12 0 -5 -6 -15 -13 -22 -16 -15 -29 -61 -16 -52 5 3 9 10 9 15 0 16 29 41 40
34 18 -11 11 -35 -10 -35 -11 0 -20 -6 -20 -14 0 -7 -7 -19 -15 -26 -8 -7 -14
-22 -14 -34 1 -15 3 -16 6 -5 2 9 15 19 28 21 14 3 22 1 19 -3 -3 -5 0 -9 5
-9 14 0 14 27 1 35 -18 11 -1 24 24 19 30 -5 75 11 92 34 11 16 14 15 35 -3
18 -15 20 -16 10 -2 -8 10 -9 17 -3 17 6 0 14 9 17 20 8 26 45 27 45 1 0 -10
8 -22 18 -26 15 -6 15 -8 1 -18 -23 -17 -31 -57 -12 -57 9 0 13 6 9 15 -4 11
3 15 27 16 18 1 51 2 75 3 58 3 76 -11 63 -47 -16 -43 -15 -62 4 -47 20 17 45
5 46 -22 1 -19 3 -17 8 7 9 36 -5 69 -25 61 -8 -3 -14 -1 -14 5 0 12 30 44 30
32 0 -4 4 -2 9 6 15 24 42 5 35 -24 -6 -25 8 -35 21 -15 4 7 13 7 26 0 15 -9
21 -7 25 5 8 19 24 20 24 0 0 -9 -11 -21 -25 -27 -14 -6 -25 -15 -25 -19 0 -4
-8 -10 -17 -13 -11 -4 -19 -17 -20 -33 -2 -26 1 -28 37 -28 21 0 42 4 47 9 4
5 -1 7 -14 4 -16 -4 -24 -1 -28 13 -4 10 -3 23 0 29 9 15 42 12 49 -5 8 -23
23 -18 30 10 4 14 11 25 17 25 8 0 8 -4 0 -14 -6 -7 -8 -21 -5 -31 4 -10 1
-21 -7 -25 -25 -16 -4 -19 25 -5 17 9 39 12 55 8 23 -6 25 -5 12 10 -11 13
-11 20 -1 32 6 8 9 19 6 24 -9 15 14 25 27 12 6 -6 10 -29 8 -51 -1 -24 2 -40
8 -40 6 0 11 7 11 15 0 20 10 19 26 -2 11 -14 15 -15 22 -5 6 9 20 11 45 7 28
-6 39 -3 56 14 12 12 21 17 21 12 0 -5 12 -13 28 -19 21 -7 31 -6 41 5 8 9 16
11 20 5 10 -15 51 -33 61 -27 10 6 57 13 133 19 22 2 43 11 51 21 12 16 13 16
29 0 9 -9 17 -21 17 -26 0 -5 13 -9 30 -9 16 0 44 -9 62 -19 17 -11 35 -18 39
-15 25 15 20 -265 -5 -315 -9 -16 -16 -38 -16 -48 0 -10 -7 -31 -15 -47 -8
-15 -15 -32 -15 -37 0 -5 211 -9 488 -9 401 0 492 2 507 14 16 11 17 16 6 29
-10 13 -9 18 10 28 21 11 22 12 5 25 -22 16 -13 34 14 27 11 -3 20 -1 21 3 0
5 2 17 4 26 2 10 -1 18 -6 18 -5 0 -9 16 -9 35 0 19 5 35 10 35 6 0 10 -4 10
-9 0 -12 72 -20 86 -9 6 4 19 6 27 2 28 -10 40 6 21 27 -17 19 -17 20 4 26
l22 5 -24 19 c-32 25 -44 24 -39 -4 3 -14 -2 -29 -11 -36 -11 -9 -16 -10 -16
-2 0 6 -16 11 -35 11 -19 0 -35 4 -35 10 0 5 13 7 30 5 30 -4 44 7 45 35 0 8
10 19 21 24 28 12 30 56 3 56 -11 0 -19 -7 -19 -15 0 -12 -3 -13 -19 -3 -19
11 -18 12 6 25 13 7 34 12 46 10 13 -1 22 4 22 13 0 8 6 25 12 37 12 19 11 21
-10 15 -22 -5 -22 -5 -4 16 18 20 19 20 38 1 22 -22 49 -25 49 -5 0 8 6 21 14
29 18 18 4 42 -20 33 -13 -5 -15 -9 -6 -18 16 -16 15 -28 -2 -28 -17 0 -26 22
-26 65 0 25 5 35 20 40 11 3 20 14 20 23 0 9 5 24 10 32 7 12 12 12 22 2 17
-17 38 -15 38 3 0 8 -12 21 -27 29 -21 12 -24 15 -10 16 16 0 17 5 12 31 -6
28 -5 30 13 25 27 -9 39 12 16 28 -16 12 -16 18 -4 60 7 26 21 51 32 57 15 8
17 14 9 22 -21 21 -13 47 14 47 29 0 32 12 9 31 -14 11 -14 13 0 21 9 5 16 16
16 25 0 13 -2 14 -17 2 -15 -13 -16 -11 -8 16 4 17 8 46 10 65 4 53 43 130 63
123 14 -4 14 -3 3 5 -14 10 -8 76 9 97 5 6 12 26 17 45 6 21 16 35 24 34 11
-1 14 8 11 33 -2 18 1 40 8 48 6 8 13 40 15 72 3 70 7 87 41 180 18 51 32 74
47 79 19 6 19 8 4 19 -18 13 -25 94 -10 109 5 4 9 20 10 34 3 42 23 163 34
202 5 19 11 60 13 91 5 66 25 139 39 139 5 0 6 8 2 18 -14 36 -11 113 5 140
36 59 60 185 38 199 -5 2 -8 13 -8 24 0 10 -5 19 -10 19 -11 0 -8 52 4 80 10
24 14 150 4 156 -14 9 -9 24 10 25 10 0 12 3 5 6 -14 5 -17 31 -7 56 3 9 14
13 27 10 17 -4 19 -2 8 5 -13 9 -13 17 1 59 9 29 13 73 11 109 -3 46 0 66 12
77 19 19 19 28 1 21 -25 -10 -26 65 0 133 12 34 20 64 17 67 -4 3 -2 6 3 6 5
0 10 21 11 46 1 25 7 51 12 58 6 7 13 67 16 135 5 102 9 125 25 141 10 10 26
34 36 52 9 18 21 39 27 46 5 7 10 75 11 155 1 127 4 146 23 181 12 22 26 42
30 45 11 8 53 96 53 110 0 7 5 22 12 34 7 12 13 27 14 32 20 84 36 146 45 170
6 17 23 73 39 125 41 135 61 190 70 190 4 0 7 14 8 32 1 31 22 62 45 64 32 2
75 27 90 53 13 23 17 54 17 138 0 114 21 292 41 356 7 21 23 48 36 60 12 12
23 26 23 30 0 5 9 21 20 37 11 15 17 30 13 34 -3 3 -1 6 5 6 7 0 11 3 10 8 -1
4 4 19 10 34 7 16 13 117 15 246 4 187 7 222 22 245 9 15 21 27 25 27 4 0 20
32 34 72 29 78 25 92 -27 84 -15 -2 -25 0 -21 5 3 5 16 9 29 9 18 0 23 4 18
15 -3 10 -1 15 7 13 7 -2 26 23 42 56 24 45 28 60 17 66 -10 7 -10 11 0 24 10
12 10 19 0 37 -12 22 -12 23 -19 4 -4 -11 -20 -33 -36 -50 -16 -16 -41 -55
-57 -85 -32 -61 -65 -94 -147 -148 -30 -20 -62 -45 -71 -56 -10 -12 -29 -19
-53 -20 -20 -1 -40 -6 -44 -12 -4 -7 -43 -22 -87 -34 -64 -18 -94 -21 -150
-16 -38 3 -119 10 -180 15 -96 9 -312 44 -355 58 -11 4 -8 8 10 15 16 6 20 12
12 15 -7 3 -25 0 -40 -6 -39 -16 -207 10 -462 74 -131 32 -258 83 -392 156
-59 33 -109 59 -113 59 -4 0 -25 13 -48 28 -23 16 -82 50 -132 77 -79 43 -122
71 -204 135 -18 15 -22 22 -13 32 7 9 8 19 1 28 -8 13 -11 12 -24 -4 -13 -17
-16 -16 -67 25 -73 61 -135 118 -173 159 -74 81 -132 147 -147 169 -16 22 -57
27 -49 6 1 -6 7 -9 12 -7 5 1 9 -7 9 -18 0 -23 -12 -25 -42 -9 -14 8 -23 8
-31 0 -8 -8 -6 -11 6 -11 9 0 17 -5 17 -11 0 -6 -9 -8 -20 -4 -11 4 -20 2 -20
-4 0 -6 -4 -11 -9 -11 -10 0 -5 95 9 165 6 28 11 68 12 89 1 32 6 40 31 51 21
9 26 14 16 19 -12 5 -12 7 1 13 23 10 106 91 99 97 -3 3 -34 -21 -69 -54 -35
-33 -64 -59 -66 -57 -1 1 0 22 3 45 5 39 15 52 95 125 91 83 118 119 118 157
0 25 17 27 24 3 14 -46 46 -206 46 -229 0 -24 11 -55 44 -123 l11 -24 5 26 c5
23 7 24 24 12 20 -15 16 -47 -6 -43 -6 2 -14 -5 -16 -14 -2 -12 3 -18 13 -18
32 0 71 -29 93 -70 26 -50 26 -50 6 -50 -20 0 -12 -24 10 -28 25 -5 66 -47 66
-67 0 -13 -6 -16 -24 -11 -14 3 -27 2 -30 -3 -7 -11 28 -43 46 -40 35 6 66
-33 36 -44 -13 -4 9 -29 61 -66 13 -10 20 -21 14 -24 -12 -8 -73 34 -73 50 0
7 -7 16 -16 21 -13 7 -14 13 -5 31 10 17 9 21 -4 21 -8 0 -15 -7 -15 -15 0
-28 -22 -15 -83 48 -33 34 -58 54 -54 45 10 -27 -18 -11 -34 20 -8 15 -16 29
-19 32 -3 3 -19 26 -35 52 -17 27 -33 48 -37 48 -5 0 -8 5 -8 12 0 14 -91 100
-98 93 -3 -2 8 -24 24 -47 16 -24 29 -47 30 -53 2 -26 25 -65 38 -65 7 0 16
-9 19 -20 3 -11 11 -20 19 -20 7 0 19 -12 25 -27 21 -48 50 -93 73 -113 12
-10 19 -24 15 -29 -3 -6 1 -11 9 -11 8 0 13 -6 11 -12 -2 -7 10 -22 27 -33 17
-11 43 -42 57 -70 23 -44 26 -47 29 -26 3 17 6 20 12 11 4 -7 23 -14 42 -14
19 -1 47 -11 62 -23 15 -12 36 -25 46 -28 11 -3 22 -15 25 -26 4 -10 11 -17
16 -13 10 6 124 -44 167 -74 47 -33 92 -36 60 -4 -16 16 2 16 36 0 21 -9 36
-8 77 5 28 9 56 14 62 10 5 -3 7 -1 4 4 -11 17 44 22 83 9 19 -7 55 -25 80
-41 53 -35 121 -67 127 -61 3 2 -8 12 -24 22 -15 10 -43 33 -61 51 -18 18 -50
42 -71 53 -56 28 -159 45 -207 33 -34 -8 -39 -12 -36 -33 4 -28 -5 -22 -22 12
-6 12 -29 29 -51 37 -22 8 -43 19 -46 24 -4 5 -27 12 -53 14 -27 4 -46 11 -46
18 0 7 -6 12 -12 11 -7 0 -15 4 -17 9 -7 16 -29 35 -40 35 -6 0 -8 8 -4 18 3
9 2 14 -2 9 -12 -10 -45 22 -45 44 0 11 -9 24 -20 31 -11 7 -20 18 -20 25 0 7
-4 13 -10 13 -5 0 -10 6 -10 14 0 7 -27 44 -60 81 -60 68 -126 187 -114 206 4
6 15 2 28 -10 12 -11 37 -24 56 -28 19 -3 46 -12 60 -20 14 -7 30 -13 37 -13
6 0 24 -6 40 -14 15 -7 51 -24 78 -37 28 -13 52 -26 55 -30 3 -3 22 -9 44 -12
47 -7 51 -11 38 -33 -12 -21 -4 -54 14 -54 7 0 16 16 20 35 7 41 20 40 86 -2
l38 -23 -3 22 c-2 18 4 24 26 26 16 2 35 -2 43 -9 11 -9 14 -7 14 14 0 14 -6
27 -12 30 -7 2 -9 8 -5 13 4 5 12 2 17 -5 11 -19 41 -6 34 14 -3 8 -12 15 -20
15 -8 0 -14 4 -14 10 0 5 21 2 48 -6 26 -8 61 -17 77 -21 17 -3 32 -9 35 -13
6 -9 95 -40 115 -40 18 0 19 14 4 41 -6 12 -17 18 -25 15 -8 -3 -14 -2 -14 3
0 4 -25 14 -56 21 -31 8 -62 19 -68 25 -6 7 -18 10 -27 8 -9 -3 -26 4 -38 14
-12 10 -36 23 -53 29 -37 12 -49 34 -19 34 12 0 21 -4 21 -9 0 -6 21 -13 46
-17 26 -4 54 -14 64 -24 21 -21 67 -34 74 -21 8 13 108 -26 129 -51 14 -16 20
-18 32 -8 17 14 68 5 85 -15 6 -7 27 -13 47 -13 19 0 38 -4 42 -8 8 -12 29
-18 66 -19 40 -1 97 -25 92 -39 -3 -7 8 -10 32 -9 20 1 45 -2 56 -7 11 -5 43
-12 70 -16 51 -8 61 -10 70 -14 3 -1 8 -3 13 -4 52 -12 67 -39 17 -30 -14 2
-25 0 -25 -6 0 -12 -160 -8 -195 5 -16 6 -17 5 -5 -4 13 -9 11 -11 -7 -11 -12
0 -25 5 -28 10 -4 6 -21 8 -40 4 -23 -4 -52 1 -89 15 -31 11 -61 19 -68 17 -7
-1 -9 -1 -4 2 5 3 -6 11 -24 18 -38 17 -50 17 -50 4 0 -5 7 -10 15 -10 8 0 15
-5 15 -10 0 -19 -346 11 -380 32 -16 10 -24 10 -40 0 -47 -29 -320 -26 -433 5
-36 10 -15 -15 26 -31 59 -22 164 -34 266 -30 150 7 653 -69 678 -102 9 -12
16 -13 31 -5 28 15 133 20 157 7 11 -6 49 -11 85 -12 90 -2 90 -2 90 -17 0
-17 57 -50 72 -41 7 5 4 10 -10 15 -16 6 -20 13 -15 26 6 15 8 16 11 2 2 -9
15 -16 32 -18 17 -1 40 -2 53 -3 12 -1 27 -9 34 -17 7 -9 13 -11 13 -5 0 19
87 25 126 9 35 -14 94 -11 94 6 0 5 9 4 19 -3 15 -9 23 -9 36 2 23 19 85 21
92 4 7 -19 58 -18 87 1 20 13 28 13 55 2 17 -7 28 -16 24 -20 -7 -8 -4 -8 90
-12 46 -2 74 -8 86 -19 27 -24 82 -38 98 -25 10 9 13 8 13 -1 0 -8 3 -10 6 -7
4 4 0 17 -9 30 -9 14 -13 33 -11 44 6 24 -19 53 -46 53 -10 0 -22 5 -25 10 -3
6 -16 10 -27 10 -11 0 -32 12 -45 26 -29 31 -36 79 -13 79 9 0 42 14 75 30 47
24 54 31 36 33 -12 2 -30 -3 -39 -11 -9 -9 -38 -18 -64 -22 -60 -9 -188 12
-188 30 0 14 11 19 67 30 33 7 68 35 42 35 -30 0 11 18 88 39 76 20 91 21 200
11 65 -6 124 -13 131 -15 9 -3 12 19 12 91 0 91 -1 96 -20 91 -11 -3 -18 -1
-14 4 3 5 -8 9 -25 9 -16 0 -32 -4 -35 -8 -8 -14 -55 -6 -76 13 -17 16 -25 16
-64 5 -68 -19 -109 -16 -145 9 -31 22 -61 23 -61 1 0 -8 -11 -9 -29 -5 -16 3
-63 7 -105 7 -44 1 -81 7 -86 13 -5 6 -31 11 -57 10 -26 -1 -61 4 -79 11 -23
10 -34 10 -36 2 -3 -8 -10 -8 -24 0 -11 6 -26 7 -33 3 -16 -11 -78 27 -86 52
-6 17 -8 17 -25 -3 -23 -26 -63 -24 -107 8 -38 27 -54 28 -74 4 -15 -17 -15
-20 0 -30 14 -9 13 -11 -5 -11 -12 -1 -27 6 -34 14 -7 8 -18 15 -25 15 -8 0
-27 11 -43 25 -17 14 -34 25 -40 25 -5 0 -15 7 -22 15 -17 21 -52 19 -73 -5
-9 -11 -28 -20 -41 -20 -27 0 -42 15 -27 25 13 7 3 35 -13 35 -6 0 -28 11 -48
25 -42 29 -58 31 -58 10 0 -11 -11 -15 -36 -15 -19 0 -43 -4 -52 -9 -10 -5
-27 -5 -40 0 -33 13 -27 60 8 69 14 4 39 19 55 34 29 27 29 28 10 42 -26 20
-37 18 -92 -14 -27 -16 -62 -32 -78 -37 -38 -10 -145 -13 -139 -4 2 4 -3 10
-12 13 -9 3 -14 15 -12 28 2 16 25 35 80 65 63 35 75 47 71 63 -7 25 -19 25
-33 0 -12 -22 -68 -55 -87 -52 -7 2 -26 -4 -41 -12 -16 -8 -32 -12 -36 -9 -3
4 -6 2 -6 -3 0 -6 6 -16 12 -22 10 -10 10 -15 -1 -21 -19 -12 -49 -2 -56 20
-4 10 -15 19 -26 19 -10 0 -19 6 -19 14 0 18 -47 56 -70 56 -9 0 -27 9 -40 20
-13 11 -27 20 -31 20 -5 0 -6 7 -3 15 5 11 -1 15 -25 15 -18 0 -31 -5 -31 -12
0 -9 -3 -10 -8 -2 -7 11 -51 26 -85 30 -10 1 -23 6 -30 13 -6 6 -26 11 -43 11
-18 0 -35 4 -38 9 -8 13 19 32 36 26 22 -9 30 21 11 40 -14 15 -17 14 -37 -2
-26 -22 -36 -35 -31 -43 2 -3 -10 -5 -26 -5 -16 -1 -29 4 -29 10 0 9 10 47 58
222 28 104 101 239 152 281 9 8 32 11 62 8 54 -6 58 12 8 31 -38 14 -39 41 -2
49 53 11 54 12 42 34 -6 11 -21 20 -35 20 -31 0 -82 44 -102 89 -63 142 -71
166 -54 173 9 4 26 7 39 7 12 1 22 6 22 12 0 7 10 9 24 5 14 -3 27 -2 30 3 4
5 24 12 46 16 24 4 41 13 45 24 4 13 14 16 43 13 35 -3 36 -2 18 12 -11 9 -23
16 -27 16 -4 0 -23 16 -42 35 -19 19 -44 35 -54 35 -10 0 -23 4 -28 9 -6 5
-46 15 -90 22 -44 7 -85 17 -92 23 -7 6 -17 42 -23 80 -14 86 -23 104 -65 122
-19 7 -36 18 -40 24 -10 15 -35 12 -35 -5 0 -8 -5 -15 -11 -15 -5 0 -7 -5 -3
-11 5 -8 -1 -10 -19 -5 -14 3 -29 1 -32 -4 -10 -17 -25 -1 -25 27 0 16 -7 27
-19 30 -13 3 -28 29 -47 81 -15 43 -47 121 -71 176 -24 54 -43 108 -41 119 2
15 15 25 43 34 22 7 47 16 56 19 11 4 19 23 23 55 9 68 14 77 48 95 25 13 28
19 23 45 -4 16 -13 42 -21 58 -12 25 -12 46 0 162 21 191 63 511 82 626 13 74
17 169 18 388 1 160 6 305 10 323 8 31 11 33 40 28 92 -17 323 -37 403 -34 50
2 94 0 98 -3 3 -4 -1 -24 -9 -44 -9 -20 -14 -47 -11 -59 13 -58 13 -81 0 -114
-8 -19 -15 -36 -15 -37 0 -2 17 2 38 7 20 5 53 12 72 15 l35 5 -29 -31 c-39
-41 -13 -42 38 -2 21 17 43 28 50 25 8 -3 23 9 35 29 25 41 26 47 6 47 -26 0
-48 59 -41 113 6 55 10 62 25 52 6 -3 11 -28 11 -54 0 -40 4 -49 23 -58 23
-11 23 -13 12 -65 -18 -82 -30 -104 -77 -136 -24 -16 -53 -41 -66 -54 -16 -18
-32 -25 -56 -23 -43 1 -56 13 -86 72 -13 26 -25 42 -28 35 -2 -7 -10 -12 -18
-12 -8 0 -14 -5 -14 -11 0 -8 -4 -8 -14 0 -11 9 -19 9 -36 -1 -17 -11 -22 -11
-30 2 -7 12 -10 11 -16 -5 -4 -11 -14 -28 -23 -39 -9 -10 -17 -28 -18 -40 -3
-42 -23 -105 -45 -142 l-21 -37 21 12 c11 6 24 20 27 31 8 24 33 26 42 4 6
-15 8 -15 20 2 7 10 13 14 13 10 0 -5 6 -4 13 2 7 6 25 16 41 22 23 9 27 8 23
-4 -5 -12 1 -12 38 1 31 12 42 21 38 32 -3 12 -2 12 7 -1 14 -23 2 -45 -45
-86 -21 -19 -35 -40 -35 -55 0 -30 -22 -41 -125 -63 -44 -10 -71 -20 -61 -22
24 -5 119 13 209 39 85 25 98 19 20 -10 -77 -28 -184 -52 -211 -46 -12 2 -24
0 -26 -4 -3 -4 2 -56 10 -116 8 -61 17 -139 21 -175 3 -36 10 -70 14 -76 5 -6
6 -21 1 -33 -10 -27 -3 -91 9 -91 5 0 18 -9 30 -21 l20 -20 34 21 c37 23 143
31 225 16 25 -4 50 -8 55 -9 6 -1 9 3 8 8 -1 6 12 9 30 7 26 -3 34 1 42 19 16
37 66 43 180 23 11 -2 47 1 81 8 47 8 82 8 150 -2 49 -7 125 -13 169 -14 76
-1 85 -4 193 -59 63 -31 128 -68 146 -82 46 -35 91 -42 116 -20 11 10 20 22
20 27 0 4 26 43 58 84 31 42 66 88 77 103 11 14 27 32 37 39 10 7 18 18 18 24
0 18 113 122 172 158 32 19 56 40 54 45 -6 16 16 39 39 44 29 5 55 20 55 32 0
6 12 20 26 31 14 11 23 27 20 34 -6 15 -5 15 31 19 35 4 82 47 82 76 1 15 8
32 16 39 8 7 15 19 15 28 0 8 2 13 5 10 8 -8 73 59 80 82 4 11 12 20 19 20 6
0 26 19 44 43 18 23 35 41 38 40 22 -13 24 33 24 512 0 405 -3 515 -12 515 -7
0 -26 11 -43 24 l-30 25 23 16 c35 25 62 57 62 73 0 12 -5 11 -23 -4 -12 -10
-26 -25 -30 -32 -4 -7 -31 -24 -59 -38 -29 -15 -68 -43 -88 -63 -38 -38 -94
-76 -195 -131 -33 -19 -95 -52 -137 -75 -118 -65 -354 -179 -443 -214 -44 -18
-97 -41 -117 -51 -20 -11 -48 -20 -60 -20 -13 0 -30 -6 -36 -12 -7 -7 -39 -18
-70 -25 -31 -6 -77 -16 -102 -22 -25 -6 -74 -15 -110 -21 -36 -5 -130 -21
-210 -34 -447 -76 -828 -72 -1110 12 -57 16 -65 22 -68 45 -3 27 -16 35 -27
17 -10 -17 -23 -11 -31 13 -12 41 -23 47 -54 29 -34 -19 -39 -16 -45 28 -4 32
-18 50 -42 50 -17 0 -9 31 12 46 22 16 49 19 40 4 -3 -5 2 -10 12 -10 10 0 41
-11 68 -25 28 -13 55 -25 62 -25 6 0 13 -6 16 -12 2 -7 8 -10 12 -6 4 4 -2 16
-13 28 -14 15 -27 20 -41 15 -14 -4 -21 -2 -21 7 0 8 -14 19 -30 25 -17 6 -34
22 -39 35 -9 21 -10 21 -11 3 0 -19 -2 -18 -21 5 -11 14 -23 32 -27 40 -6 12
-11 11 -30 -8 -23 -23 -23 -24 -2 -29 16 -4 18 -8 9 -19 -6 -8 -22 -14 -34
-14 -13 0 -31 -3 -39 -6 -15 -6 -15 -8 1 -19 15 -11 15 -17 5 -40 l-12 -27
-46 34 c-26 19 -47 39 -47 44 -2 16 -30 43 -40 37 -4 -3 -18 5 -29 17 -11 11
-31 25 -45 31 -21 8 -24 13 -18 40 5 22 4 29 -4 25 -6 -4 -11 -14 -11 -22 0
-8 -3 -14 -6 -14 -10 0 -73 73 -79 91 -4 10 -15 21 -26 24 -10 4 -19 10 -19
16 0 5 -20 35 -45 68 l-44 58 -83 8 c-46 4 -96 9 -113 11 -16 2 -93 10 -170
18 -77 8 -180 20 -230 27 -49 6 -108 12 -130 13 -22 2 -58 8 -80 14 -22 6 -69
13 -104 17 -35 3 -68 8 -74 12 -6 4 -7 1 -2 -7 6 -10 1 -12 -26 -6 -74 16 -96
18 -149 17 -39 0 -51 2 -40 9 12 8 10 10 -8 10 -16 0 -21 -4 -16 -12 4 -7 -2
-5 -14 6 -16 14 -33 17 -70 15 -28 -2 -48 -1 -46 2 3 6 -91 19 -186 26 -25 1
-64 7 -87 11 -27 6 -46 5 -52 -1 -8 -8 -11 -8 -11 -1 0 6 -6 11 -12 11 -32 1
-140 13 -208 23 -41 6 -102 13 -135 15 -33 2 -100 11 -150 20 -49 9 -126 18
-170 20 -44 2 -112 9 -151 14 -40 6 -123 13 -185 17 -150 7 -154 8 -299 32
-69 11 -170 23 -225 27 -55 3 -118 10 -140 15 -22 4 -80 11 -130 15 -50 4
-115 13 -146 21 -31 8 -78 14 -103 14 l-46 0 0 -4621z m4085 2133 c-4 -4 -11
-8 -16 -8 -5 -1 -12 -2 -15 -3 -4 0 -1 -8 6 -16 19 -23 3 -31 -20 -10 -20 18
-21 18 -35 -1 -8 -10 -12 -26 -9 -35 3 -11 -7 -19 -36 -28 -22 -6 -40 -16 -40
-21 0 -6 7 -7 18 -1 30 15 112 51 117 51 2 0 10 -18 16 -40 7 -22 16 -40 21
-40 4 0 8 -6 8 -14 0 -13 31 -89 70 -171 55 -115 101 -241 94 -253 -8 -11
-348 -172 -365 -172 -3 0 -19 28 -34 63 -15 34 -37 85 -50 112 -97 212 -135
304 -135 331 0 17 9 26 35 35 19 7 35 17 35 21 0 12 -24 10 -38 -4 -14 -14
-21 -9 -24 22 -3 21 2 25 35 31 20 3 49 17 63 30 13 12 37 23 52 24 20 0 28 6
30 23 6 37 169 110 205 90 10 -5 16 -13 12 -16z m295 -728 c15 -39 -17 -147
-46 -158 -17 -7 -76 117 -67 140 7 19 52 43 81 44 15 0 26 -8 32 -26z m-705
-54 c3 -5 1 -10 -4 -10 -12 0 2 -30 28 -62 8 -10 10 -18 6 -18 -5 0 2 -11 15
-24 13 -15 20 -32 17 -40 -4 -10 -1 -16 7 -16 12 0 25 -24 22 -40 -1 -3 14
-25 31 -49 22 -31 30 -48 23 -56 -5 -7 -9 -14 -7 -16 1 -2 -8 7 -20 21 -12 14
-22 28 -23 32 0 4 -7 5 -15 2 -10 -4 -13 0 -10 15 2 12 0 19 -6 16 -5 -4 -9
-1 -9 5 0 6 -4 8 -10 5 -5 -3 -10 -1 -10 5 0 6 -4 8 -10 5 -5 -3 -10 -1 -10 5
0 6 -4 9 -9 6 -8 -5 -15 9 -27 54 -2 8 -6 36 -9 63 -3 26 -10 59 -15 73 -9 22
-8 25 5 20 8 -3 15 -1 15 4 0 13 17 13 25 0z m-202 -30 c17 -13 40 -20 72 -20
l46 0 -6 -42 c-3 -25 1 -77 9 -123 9 -44 16 -98 16 -120 l-1 -40 -26 30 -26
30 22 -38 c12 -22 21 -56 21 -80 0 -23 9 -62 20 -86 25 -55 25 -61 -4 -61 -13
0 -43 -7 -66 -15 -23 -8 -52 -12 -64 -9 -18 4 -21 12 -22 67 -2 59 -31 184
-41 174 -2 -3 0 -22 6 -44 17 -59 17 -59 -59 -60 -68 0 -128 -13 -179 -39 -14
-8 -49 -11 -85 -9 -87 6 -89 6 -105 19 -12 9 -13 8 -6 -4 6 -12 5 -13 -6 -2
-17 15 -43 16 -33 0 5 -7 3 -8 -7 -2 -17 11 -59 13 -59 4 0 -4 -8 -7 -17 -7
-45 0 -53 -4 -53 -23 0 -14 -6 -20 -17 -18 -14 2 -17 -3 -15 -29 3 -29 0 -34
-34 -48 -21 -9 -55 -17 -76 -18 -21 -1 -38 -5 -38 -9 0 -5 -8 -8 -17 -8 -15 0
-14 2 2 14 11 8 24 12 30 9 5 -4 7 -2 2 2 -11 13 -47 13 -40 1 4 -6 -3 -3 -14
7 -18 15 -23 16 -34 4 -8 -7 -20 -12 -28 -9 -8 3 -11 0 -7 -6 3 -6 2 -14 -4
-17 -6 -4 -9 -1 -8 6 2 6 -3 14 -11 17 -10 3 -11 0 -5 -9 6 -11 4 -11 -10 0
-16 13 -18 13 -16 0 4 -28 0 -38 -16 -32 -12 4 -14 0 -9 -19 5 -20 2 -26 -14
-31 -12 -3 -22 -1 -22 4 -1 5 -2 15 -3 22 -4 21 12 42 31 42 14 0 19 10 23 52
3 29 13 60 22 70 61 64 80 94 69 107 -9 11 -8 15 5 20 15 6 15 8 -1 26 -15 17
-31 20 -102 20 -46 0 -94 5 -106 12 -18 9 -44 17 -102 31 -5 1 -15 6 -22 10
-7 4 -16 0 -22 -10 -10 -17 -12 -17 -28 2 -12 14 -29 21 -50 20 -26 -1 -33 4
-38 23 -4 18 -9 21 -19 13 -9 -7 -16 -7 -24 1 -8 8 -13 3 -17 -18 -4 -16 -8
-34 -10 -39 -1 -6 -16 -11 -31 -13 -16 -1 -34 -9 -41 -18 -8 -11 -20 -14 -37
-10 -18 4 -26 2 -30 -11 -13 -40 -208 -79 -269 -54 -18 6 -18 7 0 23 10 9 43
24 75 33 36 10 73 30 101 55 25 22 49 40 54 40 9 0 142 70 236 124 l48 28 162
-4 c130 -4 178 -10 242 -28 107 -31 224 -29 517 6 200 25 230 26 255 14 15 -8
32 -16 36 -18 5 -2 7 4 5 14 -2 12 2 18 10 16 26 -5 1 16 -43 37 -57 27 -99
27 -142 0 -35 -22 -35 -22 -22 -1 16 25 51 42 87 42 15 0 45 7 67 15 60 21
137 19 168 -5z m777 -47 c6 -16 15 -36 20 -45 6 -10 10 -25 10 -33 0 -23 -60
-56 -95 -53 -25 3 -34 11 -52 48 -12 25 -22 50 -23 55 0 10 94 53 118 54 7 1
17 -11 22 -26z m-179 -58 c16 -35 29 -69 29 -75 0 -17 -43 -11 -97 14 -49 23
-73 49 -73 78 0 19 50 47 83 48 25 0 32 -7 58 -65z m555 -67 c11 -46 12 -78 3
-83 -4 -3 -5 -14 -2 -25 4 -13 0 -20 -9 -20 -8 0 -27 -20 -42 -45 -16 -24 -49
-60 -75 -79 -25 -20 -51 -40 -58 -46 -6 -5 -38 -12 -70 -16 -32 -3 -64 -11
-72 -17 -19 -16 -94 -15 -107 2 -12 16 -61 22 -85 10 -9 -5 -21 -3 -29 4 -10
9 -11 9 -6 0 4 -7 5 -13 1 -13 -3 0 -10 11 -15 25 -6 17 -15 23 -30 20 -11 -2
-18 0 -15 6 4 5 -3 9 -13 9 -11 0 -27 10 -36 23 -9 12 -14 16 -10 8 5 -9 3
-12 -4 -7 -7 4 -12 15 -12 24 0 15 -2 15 -10 2 -8 -12 -10 -12 -10 -1 0 8 -3
12 -6 8 -3 -3 -14 2 -25 11 -11 9 -25 17 -32 17 -7 0 -12 5 -12 10 -1 6 -6 20
-13 33 -12 20 -9 26 11 23 4 0 7 6 7 14 0 22 7 19 75 -35 60 -47 99 -68 189
-104 44 -18 112 -11 260 28 101 27 122 46 177 156 52 103 61 110 75 58z
m-3039 -258 c-4 -16 0 -20 19 -20 15 0 24 -6 24 -16 0 -12 9 -15 38 -13 57 3
62 1 62 -26 0 -30 -38 -55 -51 -34 -5 8 -9 19 -9 25 0 14 -20 23 -38 17 -7 -3
-19 -18 -28 -35 -18 -35 -25 -32 -34 19 l-7 38 -14 -32 c-7 -18 -17 -33 -21
-33 -9 0 -17 31 -21 79 -2 29 1 34 20 36 13 1 26 5 30 8 15 16 35 7 30 -13z
m648 -348 c13 -9 41 -74 53 -122 8 -31 7 -36 -9 -37 -11 -1 -19 2 -19 8 0 5
-9 9 -20 9 -20 0 -90 63 -90 80 0 6 -7 10 -15 10 -22 0 -18 25 8 43 23 17 75
22 92 9z m425 -2683 c-74 -72 -295 -290 -491 -485 -254 -253 -362 -354 -378
-354 -12 0 -19 4 -16 10 13 21 -7 31 -26 14 -10 -9 -19 -12 -19 -6 0 6 11 19
25 30 14 11 25 24 25 30 0 6 4 12 9 14 5 2 90 82 189 180 99 97 183 174 186
170 9 -8 7 -24 -2 -18 -4 2 -13 -4 -20 -15 -11 -17 -9 -19 10 -19 21 0 98 71
98 91 0 5 3 9 8 9 4 0 30 21 57 46 28 25 60 53 72 61 13 8 20 19 17 24 -3 5 2
9 10 9 8 0 20 9 26 20 6 11 17 20 24 20 12 0 18 8 28 38 4 13 55 52 68 52 7 0
10 7 7 14 -4 9 -1 13 6 11 7 -2 24 14 39 35 15 22 34 40 42 40 21 0 27 27 8
35 -9 3 -18 1 -20 -4 -2 -6 -10 -11 -17 -11 -7 0 -15 -9 -18 -21 -3 -11 -15
-23 -26 -26 -23 -6 -27 -19 -8 -26 9 -4 9 -6 0 -6 -31 -2 -20 25 34 79 59 60
82 75 64 41 -8 -15 -7 -18 7 -16 30 3 51 16 46 30 -3 7 0 16 7 21 8 4 10 3 5
-4 -4 -7 -3 -12 2 -12 6 0 12 7 16 15 3 8 13 15 23 15 11 0 -32 -49 -117 -131z
m2726 -1230 c8 -6 12 -19 10 -28 -9 -28 122 -101 182 -101 6 0 12 7 12 15 0 8
5 15 10 15 6 0 13 -7 16 -15 9 -22 24 -18 24 5 0 11 7 20 15 20 7 0 18 6 22
13 8 11 47 37 58 37 2 0 2 -7 -1 -15 -4 -9 -1 -15 7 -15 8 0 15 -12 16 -27 0
-16 4 -49 8 -74 7 -43 5 -48 -19 -64 -14 -9 -24 -20 -22 -24 3 -4 -20 -4 -50
-1 -45 5 -60 12 -78 35 -14 17 -29 26 -38 23 -8 -4 -21 -2 -28 2 -11 7 -11 11
-1 24 19 23 6 34 -47 42 -26 3 -54 10 -62 15 -10 6 -6 7 11 3 15 -3 29 -1 33
4 3 5 -9 12 -27 16 -19 4 -33 2 -35 -4 -7 -19 -21 -10 -53 35 -29 41 -69 61
-69 35 0 -5 -4 -10 -10 -10 -20 0 -10 29 17 48 28 20 68 17 99 -9z m-3296 -63
c9 -12 7 -17 -9 -28 -12 -7 -21 -18 -21 -25 0 -7 -6 -13 -12 -13 -7 -1 -34
-31 -60 -68 -27 -37 -64 -84 -83 -104 -19 -20 -35 -41 -35 -46 0 -5 -9 -17
-20 -27 -11 -10 -20 -23 -20 -30 0 -20 -45 -56 -56 -45 -12 12 -46 2 -38 -11
3 -5 1 -9 -5 -9 -5 0 -13 5 -16 10 -3 6 -16 10 -27 10 -32 0 -18 7 27 14 22 4
44 11 49 16 5 5 0 6 -14 3 -14 -4 -21 -2 -17 3 3 6 1 16 -4 24 -8 13 -10 13
-18 0 -7 -10 -6 -17 2 -22 7 -4 -18 -6 -55 -5 -38 1 -68 6 -68 11 0 5 3 7 6 3
4 -3 20 1 36 9 15 8 36 13 45 12 9 -2 18 3 21 11 4 11 -3 12 -29 6 -19 -3 -49
-7 -67 -6 -25 0 -32 -4 -28 -15 6 -15 -3 -18 -28 -8 -10 4 -16 18 -16 36 0 22
-4 29 -14 25 -10 -4 -13 -1 -10 7 6 15 -57 66 -80 66 -8 0 -17 4 -21 10 -3 5
-12 7 -19 4 -8 -3 -17 -1 -21 5 -3 6 -15 11 -26 11 -10 0 -19 6 -19 13 0 16
37 57 50 57 6 0 10 6 10 14 0 7 11 21 25 30 24 16 29 16 57 2 17 -9 38 -16 45
-16 21 0 60 33 56 47 -6 17 14 25 28 10 7 -7 26 -11 43 -9 24 3 28 1 16 -7
-12 -9 -11 -11 8 -11 12 0 22 4 22 9 0 19 43 23 101 11 33 -7 59 -16 59 -21 0
-4 36 -9 80 -11 76 -3 80 -2 78 17 -2 15 4 21 22 23 14 2 29 8 35 13 13 13 21
11 35 -5z m3426 -156 c8 0 24 -16 35 -35 25 -41 50 -50 126 -42 45 5 52 3 43
-8 -8 -10 -8 -14 2 -18 10 -3 8 -9 -5 -25 -11 -11 -25 -18 -32 -16 -7 3 -16 1
-19 -5 -4 -6 -35 -8 -74 -6 -65 4 -70 3 -101 -26 -26 -23 -36 -27 -47 -18 -18
15 -9 28 16 22 11 -3 20 -1 20 4 0 20 40 51 59 46 12 -3 28 -2 37 1 12 5 2 20
-46 67 -44 43 -60 65 -55 77 6 16 7 16 16 0 6 -10 17 -18 25 -18z m-248 -536
c-12 -45 -6 -68 39 -161 26 -52 43 -76 64 -85 16 -7 29 -18 29 -25 0 -6 10
-15 23 -19 27 -9 33 -7 29 12 -4 21 11 17 26 -7 8 -12 19 -18 28 -15 8 3 14 1
14 -4 0 -13 37 -13 45 1 4 5 19 15 33 20 23 9 24 11 10 25 -10 11 -37 16 -82
17 -36 1 -66 5 -66 9 0 4 -22 19 -50 33 -53 27 -91 75 -108 138 -13 46 -1 55
32 22 14 -14 21 -25 16 -25 -20 0 -9 -26 26 -63 31 -33 42 -38 73 -36 20 2 60
0 88 -5 44 -7 52 -11 50 -28 -1 -14 8 -23 36 -33 47 -16 46 -15 49 -45 3 -20
-2 -25 -32 -30 -81 -14 -133 -71 -75 -82 14 -3 28 -1 31 3 7 11 24 12 24 1 0
-5 -11 -14 -25 -20 -31 -14 -67 0 -80 31 -6 12 -21 24 -35 25 -14 2 -32 10
-40 17 -19 16 -60 29 -60 18 0 -4 22 -21 48 -37 54 -33 43 -47 -15 -18 -44 23
-129 95 -144 124 -19 34 -39 127 -39 177 0 34 6 56 21 75 27 34 29 33 17 -10z
m26 -347 c3 3 6 -1 6 -10 0 -32 49 -57 111 -57 33 0 59 -4 59 -10 0 -5 -10
-10 -22 -10 -12 0 -37 -5 -55 -12 -24 -9 -44 -9 -73 -1 -22 5 -40 7 -40 4 1
-15 20 -34 37 -36 10 -1 28 -7 40 -13 12 -7 38 -12 57 -12 46 0 46 -16 1 -24
-35 -7 -91 15 -137 52 -21 18 -33 69 -20 85 7 8 4 24 -9 51 -26 53 -24 57 10
19 15 -18 31 -30 35 -26z m-1234 -732 c0 -8 -9 -15 -19 -15 -24 0 -37 -18 -23
-32 8 -8 15 -8 25 0 15 13 27 6 27 -16 0 -10 -7 -13 -21 -9 -16 4 -23 -1 -32
-21 -8 -18 -18 -26 -29 -24 -20 4 -24 -19 -8 -49 6 -11 7 -19 2 -19 -6 0 -13
-10 -17 -22 -4 -14 -8 -18 -12 -10 -8 20 -23 14 -23 -10 0 -19 -2 -20 -10 -8
-8 12 -11 13 -19 1 -6 -9 -11 -10 -15 -2 -10 15 -26 14 -26 -3 0 -17 -33 -27
-51 -15 -11 6 -11 13 -3 26 13 21 64 36 79 23 7 -6 17 -2 28 11 10 11 21 17
26 14 5 -3 7 4 4 15 -5 20 -23 28 -23 11 0 -5 -18 -13 -40 -19 -22 -5 -38 -6
-35 -2 2 4 -7 12 -22 19 -35 16 -25 23 17 11 36 -10 80 -4 80 12 0 5 5 6 10 3
6 -3 13 1 16 10 8 20 -23 44 -48 37 -10 -2 -18 0 -18 6 0 17 25 31 47 26 14
-4 27 1 39 15 10 11 21 18 26 15 4 -3 8 2 8 11 0 9 4 14 8 11 4 -2 14 -1 22 5
21 13 30 11 30 -6z m990 -90 c15 14 18 14 23 1 4 -9 2 -18 -3 -21 -13 -8 -13
-35 1 -35 5 0 30 -9 54 -20 32 -15 50 -32 65 -61 12 -22 20 -45 19 -52 -3 -24
1 -37 12 -37 6 0 30 -16 52 -36 24 -22 42 -32 46 -26 4 8 24 3 58 -14 29 -13
58 -23 65 -22 7 2 12 -3 10 -10 -1 -8 2 -11 8 -7 6 4 16 2 23 -3 7 -5 41 -13
77 -16 36 -4 78 -8 94 -10 16 -2 34 -10 41 -19 14 -20 35 -22 35 -4 0 8 3 8 9
-2 5 -8 18 -12 30 -8 12 3 21 2 22 -1 5 -37 5 -51 1 -48 -2 3 -23 -3 -45 -13
-23 -9 -62 -18 -87 -20 -25 -1 -58 -7 -73 -13 -21 -8 -35 -8 -54 1 -21 10 -29
9 -43 -4 -9 -8 -23 -15 -30 -15 -21 0 -90 71 -90 92 0 11 -7 18 -19 18 -11 0
-23 5 -27 11 -4 7 3 10 22 7 15 -2 29 2 31 10 3 6 -3 12 -11 12 -9 0 -24 9
-33 20 -10 11 -25 20 -34 20 -9 0 -36 18 -60 40 -24 22 -47 36 -52 31 -18 -18
-29 -90 -30 -206 -2 -87 -7 -130 -19 -155 -9 -19 -20 -66 -24 -105 -8 -62 -12
-70 -32 -73 -12 -2 -20 -7 -17 -12 3 -5 -4 -14 -15 -20 -16 -9 -22 -8 -27 6
-4 10 -2 19 5 22 7 2 11 13 11 25 -1 16 -3 17 -6 5 -6 -24 -64 -21 -71 4 -5
19 -27 24 -37 9 -3 -5 4 -12 15 -16 11 -3 20 -13 20 -21 0 -17 -37 -19 -42 -2
-5 14 -38 4 -38 -12 0 -5 8 -9 18 -8 38 3 52 -3 52 -21 0 -11 -8 -21 -17 -24
-14 -3 -12 -6 11 -16 24 -10 30 -9 42 6 10 14 15 16 25 6 19 -19 37 -16 44 7
3 11 15 20 26 20 24 0 25 -18 2 -37 -13 -10 -15 -16 -5 -19 6 -3 12 -16 12
-30 l0 -24 -36 17 c-27 13 -39 15 -53 6 -20 -12 -57 -7 -80 11 -11 8 -15 8
-18 -1 -5 -15 -59 -18 -68 -4 -3 5 7 11 22 13 23 2 29 8 31 36 2 23 -1 32 -11
32 -8 0 -17 11 -19 25 -4 17 -1 25 8 25 8 0 14 5 14 10 0 6 -7 10 -15 10 -8 0
-15 5 -15 11 0 6 9 9 19 6 12 -3 22 1 25 9 4 11 -1 14 -19 11 -13 -1 -27 -6
-31 -10 -24 -23 -35 67 -11 92 7 8 7 11 1 8 -7 -4 -17 0 -24 8 -18 22 4 45 44
45 18 0 26 4 19 8 -7 4 -16 27 -22 51 -10 46 3 81 37 100 12 7 13 13 5 23 -5
7 -16 41 -22 76 l-12 63 55 88 c31 48 64 108 75 132 24 54 35 66 39 44 3 -15
5 -15 22 0z m-1120 -185 c8 -5 11 -12 8 -15 -4 -4 -3 -18 2 -31 7 -17 6 -24
-3 -25 -6 -1 -16 -2 -22 -4 -5 -1 -20 -3 -32 -3 -13 -1 -23 -7 -23 -13 0 -7
11 -9 31 -5 27 5 30 4 24 -14 -4 -11 -2 -20 4 -20 6 0 11 6 11 14 0 7 9 16 20
19 28 7 25 -9 -6 -30 -21 -13 -25 -22 -20 -45 3 -18 2 -27 -4 -23 -6 3 -10 12
-10 20 0 16 -22 25 -47 19 -17 -5 -21 -19 -14 -53 1 -2 10 4 21 14 26 23 39
11 16 -14 -13 -15 -14 -21 -5 -27 7 -4 15 -2 17 4 2 7 15 12 28 12 13 0 24 5
24 11 0 5 4 8 10 4 6 -3 5 -15 -2 -31 -8 -18 -17 -24 -31 -20 -13 3 -17 0 -13
-10 4 -11 1 -14 -12 -12 -9 2 -16 10 -14 16 1 7 -7 12 -18 12 -13 0 -18 5 -14
15 4 10 0 15 -15 15 -14 0 -19 -5 -15 -15 4 -9 0 -15 -10 -15 -20 0 -20 9 0
31 20 22 12 37 -21 37 -24 0 -25 -3 -20 -34 5 -37 -12 -47 -35 -19 -20 24 3
65 35 65 14 0 25 4 25 9 0 5 10 11 23 15 15 3 23 13 24 28 2 21 1 22 -11 6
-12 -17 -14 -17 -31 2 -16 17 -16 20 -2 20 8 0 17 4 19 10 2 5 13 11 25 13 12
2 26 6 29 10 4 4 16 7 26 7 21 0 21 1 8 34 -10 27 -5 32 20 16z m1106 -755 c8
-8 22 -19 31 -23 26 -15 17 -137 -10 -137 -22 0 -34 -15 -19 -24 10 -6 8 -18
-9 -54 -12 -25 -25 -44 -28 -42 -3 1 -7 -7 -7 -18 -2 -24 -6 -37 -24 -84 -6
-18 -15 -33 -18 -33 -7 0 -32 48 -32 62 0 19 19 6 29 -19 l10 -28 -2 30 c-1
23 -7 31 -25 33 -12 2 -22 9 -21 15 3 17 -11 47 -22 47 -5 0 -9 -7 -9 -15 0
-8 -4 -15 -10 -15 -5 0 -7 7 -4 15 4 9 0 15 -9 15 -19 0 -35 79 -18 90 7 4 2
11 -14 18 -30 14 -33 32 -5 32 21 0 27 15 10 25 -25 15 -5 23 50 18 38 -3 60
-1 60 6 0 6 -7 8 -16 4 -10 -4 -17 1 -21 15 -3 15 -11 19 -28 16 -27 -5 -43
31 -18 40 22 9 53 7 53 -3 0 -11 94 7 98 19 5 14 11 13 28 -5z m-1730 -745
c27 0 56 -15 93 -48 30 -26 45 -24 49 6 2 12 10 22 18 22 9 0 22 7 31 15 8 9
18 13 21 10 3 -3 -4 -14 -16 -25 -12 -12 -22 -29 -22 -38 0 -10 -5 -23 -11
-29 -6 -6 -8 -21 -4 -33 5 -16 10 -19 18 -11 6 6 23 11 38 11 21 0 28 6 33 30
6 31 12 35 34 21 10 -6 6 -15 -17 -39 -16 -18 -34 -32 -39 -32 -6 0 -14 -10
-17 -21 -4 -12 -10 -17 -14 -12 -3 5 -22 13 -41 17 -19 3 -47 18 -62 33 -32
31 -53 36 -81 21 -14 -7 -18 -18 -15 -37 3 -23 1 -27 -14 -23 -13 3 -18 14
-18 38 0 18 -4 35 -10 39 -5 3 -7 12 -3 20 7 19 -2 19 -32 -1 -32 -21 -32 -34
0 -34 35 0 31 -16 -6 -24 -59 -12 -74 -8 -75 19 -1 15 3 25 12 25 8 0 15 -8
15 -17 1 -10 4 -4 8 12 4 17 12 29 18 28 6 -1 26 16 44 38 18 23 35 36 37 30
2 -6 15 -11 28 -11z m1568 -664 c14 3 27 -1 35 -10 8 -9 22 -16 32 -16 9 0 24
-6 31 -13 7 -7 30 -21 51 -30 20 -10 35 -23 31 -28 -3 -6 1 -16 10 -22 8 -7
22 -30 30 -52 12 -34 17 -40 41 -38 23 2 25 0 13 -14 -7 -9 -8 -14 -2 -10 13
7 37 -39 29 -54 -9 -13 -32 -11 -38 4 -4 9 -7 9 -14 0 -11 -15 -62 -7 -84 13
-8 8 -19 11 -22 7 -4 -3 -7 -1 -7 6 0 7 -4 10 -9 7 -13 -8 -42 4 -35 15 3 5 0
9 -6 9 -6 0 -9 4 -5 9 3 6 -8 8 -27 5 -25 -4 -40 1 -61 18 -24 20 -26 27 -18
54 7 25 5 38 -10 60 -10 16 -19 46 -19 67 0 35 1 37 16 23 9 -10 24 -14 38
-10z m-1013 -150 c-9 -10 -9 -20 0 -40 13 -29 29 -35 29 -11 0 8 9 15 20 15
11 0 20 4 20 8 0 5 12 14 26 20 14 7 23 9 21 5 -29 -56 -38 -91 -35 -129 3
-37 0 -44 -14 -44 -10 0 -23 9 -30 19 -9 15 -19 18 -45 14 -29 -5 -33 -3 -33
16 0 15 -6 21 -21 21 -14 0 -19 5 -17 18 3 13 12 16 38 15 30 -2 32 -1 13 7
-26 11 -32 50 -8 50 8 0 15 6 15 14 0 8 6 16 13 19 18 6 21 -1 8 -17z"/>
<path d="M4200 12615 c0 -41 -51 -70 -78 -43 -9 9 -12 8 -12 -5 0 -9 7 -17 15
-17 9 0 24 -20 35 -45 11 -25 23 -45 27 -45 4 0 26 -16 47 -35 41 -36 60 -43
71 -24 4 6 -2 13 -14 16 -25 6 -29 50 -6 60 12 4 10 9 -11 19 -33 17 -34 17
-34 -1 0 -8 -9 -15 -20 -15 -13 0 -18 5 -14 15 4 8 -1 17 -10 21 -19 7 -22 36
-3 33 26 -4 88 32 97 57 6 14 10 27 10 28 0 2 -22 4 -50 4 -45 0 -50 -3 -50
-23z"/>
<path d="M4854 12483 c3 -4 1 -12 -5 -19 -6 -7 -8 -18 -4 -24 8 -13 35 -13 35
0 0 6 5 10 10 10 15 0 12 -26 -5 -40 -12 -10 -15 -10 -15 0 0 10 -3 10 -14 0
-8 -6 -13 -17 -10 -25 4 -10 12 -10 35 -2 22 9 37 8 62 -2 17 -7 39 -13 47
-13 40 2 86 16 93 28 4 8 15 14 22 14 25 0 17 17 -10 24 -14 4 -34 2 -45 -4
-15 -8 -21 -6 -30 10 -9 17 -20 21 -61 19 -28 -2 -54 2 -57 8 -4 5 -18 12 -30
16 -13 3 -21 3 -18 0z"/>
<path d="M6628 10509 c-30 -17 -10 -45 40 -58 26 -6 62 -16 80 -20 18 -5 85
-49 148 -98 121 -92 129 -98 206 -133 62 -28 88 -32 94 -16 6 17 19 15 62 -6
18 -9 40 -14 49 -11 9 4 19 -1 25 -10 4 -9 15 -14 23 -11 8 4 15 1 15 -6 0 -6
-4 -8 -10 -5 -5 3 -10 -2 -11 -12 0 -16 -1 -16 -9 2 l-9 20 0 -20 c-1 -11 -5
-16 -9 -10 -8 11 -54 16 -47 5 13 -22 -585 -10 -628 12 -11 5 -24 5 -35 -1
-14 -8 -10 -13 30 -30 25 -10 63 -22 85 -25 21 -3 56 -9 78 -12 22 -3 65 -16
95 -29 68 -28 190 -65 214 -65 10 0 29 -9 43 -20 14 -11 32 -20 40 -20 22 0
10 -23 -20 -38 -33 -16 -72 -20 -274 -27 -89 -4 -186 -10 -217 -14 -30 -4 -60
-5 -66 -1 -6 4 -30 3 -53 -1 -121 -21 -206 -39 -237 -51 -35 -12 -179 -15
-550 -11 -222 2 -252 4 -261 16 -3 5 -27 9 -53 10 -25 1 -46 5 -46 10 0 4 -9
7 -20 7 -11 0 -20 -7 -20 -15 0 -8 9 -15 20 -15 11 0 20 -5 20 -11 0 -6 8 -8
19 -4 10 3 24 -1 31 -10 7 -8 20 -15 29 -15 15 0 75 -19 96 -31 6 -3 64 -6
130 -8 87 -2 124 -6 136 -17 8 -8 19 -11 22 -7 4 3 142 8 307 9 l301 2 21 27
c19 24 25 26 62 20 49 -8 162 -11 311 -7 115 4 139 2 152 -13 4 -4 2 -5 -4 -1
-8 4 -13 2 -13 -5 0 -9 -3 -9 -14 0 -12 10 -14 9 -12 -6 2 -12 12 -18 33 -19
34 -1 59 -13 47 -23 -16 -11 -40 -45 -26 -37 6 4 12 3 12 -3 0 -6 24 -8 62 -4
44 3 79 0 120 -13 l58 -17 -22 -24 c-12 -12 -27 -23 -33 -23 -7 0 -19 -8 -29
-19 -9 -10 -49 -28 -89 -41 -39 -12 -88 -30 -107 -39 -19 -8 -46 -18 -59 -21
-13 -3 -26 -11 -27 -18 -1 -7 0 -9 2 -4 3 5 16 7 30 4 14 -3 49 0 78 6 210 44
251 49 262 30 18 -28 -95 -99 -286 -178 -30 -13 -64 -32 -76 -42 -11 -10 -26
-18 -32 -18 -7 0 -12 -5 -12 -10 0 -11 36 -5 85 16 17 6 66 12 110 13 44 1 95
4 112 7 18 3 44 3 58 0 22 -6 24 -9 15 -27 -17 -30 -118 -101 -212 -147 -45
-23 -96 -53 -113 -67 l-30 -26 35 7 c19 3 54 13 77 20 64 22 96 23 117 3 17
-17 17 -18 -3 -31 -12 -7 -21 -20 -21 -28 0 -13 -1 -13 -10 0 -8 13 -10 13
-10 -2 0 -25 17 -31 42 -14 13 8 34 17 48 20 14 3 37 9 53 12 24 6 26 4 20
-13 -16 -41 -176 -166 -275 -216 -44 -22 -46 -29 -14 -46 19 -11 29 -10 56 4
27 14 34 14 41 4 7 -11 14 -11 41 0 18 7 39 12 46 12 6 -1 25 -2 41 -3 16 -1
56 13 89 30 34 18 68 32 77 32 13 0 15 79 15 724 l0 724 -27 7 c-16 4 -53 21
-83 39 -30 18 -71 39 -90 46 -19 7 -39 17 -45 20 -9 6 -59 19 -141 35 -11 3
-33 16 -50 30 -41 37 -71 51 -152 74 -38 10 -78 23 -88 29 -33 16 -68 21 -86
11z"/>
<path d="M4948 10274 c-27 -8 -22 -17 20 -37 27 -12 68 -18 152 -20 63 -1 121
-6 128 -10 6 -5 17 -5 22 -2 6 3 10 2 10 -3 0 -5 10 -8 23 -8 12 1 30 -2 41
-7 13 -6 16 -6 12 2 -4 6 -1 11 6 12 7 0 -3 6 -22 13 -22 8 -34 19 -34 30 1 9
-4 16 -12 16 -8 0 -14 -9 -14 -20 0 -29 -25 -25 -48 8 -18 24 -25 27 -64 24
-23 -3 -46 -9 -49 -14 -4 -6 -12 -7 -20 -2 -8 5 -25 10 -39 11 -14 1 -41 4
-60 7 -19 2 -43 2 -52 0z"/>
<path d="M1050 1091 c-31 -16 -37 -17 -57 -4 -19 13 -25 12 -47 -2 -35 -23
-33 -28 9 -21 22 4 35 3 35 -4 0 -5 -7 -10 -15 -10 -8 0 -20 -9 -27 -20 -7
-11 -19 -20 -27 -20 -11 0 -11 3 -1 15 17 20 5 32 -15 15 -13 -11 -18 -10 -29
5 -12 17 -14 17 -27 -11 -12 -24 -20 -29 -49 -27 -19 1 -27 -1 -17 -3 9 -3 17
-9 17 -14 0 -13 38 -18 51 -6 14 12 -8 -20 -28 -42 -7 -7 -13 -19 -13 -25 1
-7 6 -5 13 4 17 22 56 42 71 36 7 -3 30 4 52 14 21 11 31 17 22 14 -24 -6 -23
12 1 25 11 5 23 20 27 32 l7 22 17 -22 c21 -26 15 -63 -12 -69 -21 -6 -24 -19
-5 -25 17 -7 37 2 37 16 0 8 14 13 35 14 37 1 105 31 73 32 -10 0 -18 8 -19
18 0 13 -2 12 -9 -5 -5 -13 -14 -23 -20 -23 -13 0 -13 17 0 25 18 11 11 26 -7
17 -10 -5 -26 -7 -36 -3 -16 6 -14 9 13 29 28 21 39 42 22 42 -4 0 -23 -8 -42
-19z"/>
<path d="M3310 540 c-6 -22 -17 -40 -24 -40 -10 0 -12 7 -8 22 3 14 2 19 -6
14 -7 -4 -12 -13 -12 -21 0 -19 -13 -25 -30 -15 -12 7 -12 11 0 25 12 14 12
18 -1 26 -27 17 -36 9 -35 -30 0 -25 4 -37 12 -34 7 2 12 -6 12 -21 0 -14 -6
-26 -12 -26 -10 0 70 -40 80 -40 2 0 4 7 4 15 0 8 -6 15 -14 15 -15 0 -42 28
-34 35 5 5 73 15 133 19 73 6 71 5 53 19 -9 6 -18 23 -20 36 -4 35 -26 38 -30
4 -2 -17 -9 -28 -18 -28 -10 0 -14 8 -12 26 1 16 -3 29 -13 32 -10 5 -17 -5
-25 -33z"/>
<path d="M3650 441 c0 -12 10 -21 27 -26 20 -5 23 -9 13 -15 -11 -7 -11 -11
-1 -24 10 -12 11 -19 2 -30 -9 -10 -8 -24 3 -57 8 -24 20 -75 26 -114 6 -38
15 -74 20 -80 5 -6 12 -30 16 -53 5 -33 11 -42 27 -42 17 0 19 4 13 33 -4 17
-11 57 -16 87 -4 30 -11 62 -14 70 -3 8 -10 42 -15 75 -16 99 -28 136 -57 166
-32 34 -44 36 -44 10z"/>
</g>
</svg>
