<?xml version="1.0" standalone="no"?>
<!DOCTYPE svg PUBLIC "-//W3C//DTD SVG 20010904//EN"
 "http://www.w3.org/TR/2001/REC-SVG-20010904/DTD/svg10.dtd">
<svg version="1.0" xmlns="http://www.w3.org/2000/svg"
 width="1600.000000pt" height="739.000000pt" viewBox="0 0 1600.000000 739.000000"
 preserveAspectRatio="xMidYMid meet">
<metadata>
Created by potrace 1.16, written by Peter Selinger 2001-2019
</metadata>
<g transform="translate(0.000000,739.000000) scale(0.100000,-0.100000)"
fill="#000000" stroke="none">
<path d="M6994 7375 c-4 -9 -4 -41 -2 -73 3 -47 15 -77 68 -172 35 -63 69
-122 77 -131 11 -13 12 -37 7 -106 -6 -83 -5 -93 15 -120 26 -34 21 -77 -11
-94 -45 -24 -60 -115 -33 -205 9 -33 14 -96 14 -194 0 -80 1 -206 3 -280 3
-126 4 -135 23 -138 18 -2 20 4 23 80 1 45 7 87 13 94 16 19 41 153 35 181 -4
13 0 36 8 51 7 15 19 72 25 127 7 55 15 115 18 133 4 27 3 31 -12 26 -9 -4
-21 -18 -26 -31 -14 -37 -43 -26 -47 18 -2 28 3 42 26 67 26 28 29 36 24 82
-4 45 -2 52 22 71 24 19 26 26 26 104 0 75 3 87 23 107 50 49 152 244 162 310
6 38 10 45 26 41 22 -6 26 16 9 48 -10 18 -24 19 -261 19 -215 0 -250 -2 -255
-15z"/>
<path d="M7855 6511 c-48 -12 -111 -57 -123 -88 -36 -92 -33 -133 9 -133 10 0
20 -9 24 -19 3 -11 12 -22 19 -24 8 -3 19 -21 25 -40 9 -26 22 -38 60 -56 27
-12 55 -20 62 -19 17 4 15 -82 -3 -115 -6 -12 -14 -58 -17 -102 l-6 -80 -49
-24 -48 -24 -54 18 c-59 20 -70 18 -129 -31 -29 -23 -29 -24 -6 -24 20 0 22
-4 17 -24 -5 -19 0 -29 20 -45 34 -27 142 -23 157 6 6 10 15 21 21 25 17 12
74 9 81 -3 4 -6 9 -52 11 -103 3 -76 1 -96 -14 -115 -29 -39 -81 -91 -91 -91
-6 0 -6 -13 0 -35 6 -19 9 -41 8 -47 -1 -7 -1 -22 0 -33 1 -17 3 -18 11 -5 5
8 10 10 10 4 0 -5 -6 -19 -14 -29 -12 -17 -15 -17 -35 -3 -14 10 -18 18 -12
23 19 11 12 25 -12 25 -13 0 -34 -11 -48 -26 -20 -21 -25 -23 -34 -10 -10 12
-14 11 -30 -10 -22 -29 -30 -64 -15 -64 6 0 10 -4 10 -10 0 -13 -46 -13 -71 0
-10 6 -19 19 -19 30 0 19 -25 50 -40 50 -5 0 -7 -6 -4 -14 3 -8 -3 -19 -16
-26 -15 -8 -19 -17 -15 -31 4 -12 1 -21 -10 -25 -10 -4 -13 -13 -10 -25 4 -11
2 -19 -3 -19 -10 0 -22 79 -22 148 0 30 4 42 15 42 9 0 12 6 9 15 -4 9 0 15
10 15 9 0 25 9 36 20 18 18 20 18 29 2 9 -16 11 -16 28 1 22 20 39 11 21 -11
-10 -12 -9 -14 7 -10 15 3 19 11 17 33 -2 29 -2 29 13 11 14 -18 15 -18 15 -2
0 25 24 14 28 -12 5 -34 22 -15 22 25 0 30 -3 35 -20 30 -13 -3 -20 0 -20 8 0
8 -6 18 -13 22 -8 4 -16 16 -20 26 -3 9 -15 17 -26 17 -11 0 -22 6 -24 13 -4
9 -6 9 -6 0 -1 -7 -8 -10 -18 -6 -14 5 -15 1 -10 -25 7 -35 5 -37 -22 -23 -25
14 -26 76 -2 102 19 21 19 23 3 45 -9 13 -25 24 -34 24 -12 0 -18 8 -18 23 0
15 3 18 8 9 7 -9 15 -10 35 -3 39 15 33 27 -13 27 -32 -1 -40 -5 -45 -24 -3
-13 -10 -20 -16 -16 -7 4 -9 -1 -4 -15 4 -15 2 -21 -8 -21 -9 0 -17 -6 -20
-12 -3 -7 -2 6 0 30 5 40 4 42 -20 42 -14 0 -27 -5 -29 -12 -4 -12 -20 -17
-80 -25 -31 -4 -37 -9 -40 -31 -3 -29 -17 -33 -32 -10 -13 21 26 72 42 56 8
-8 14 -4 23 15 7 15 16 27 21 27 5 0 6 -4 3 -10 -3 -5 4 -10 15 -10 19 0 21 4
15 27 -4 16 -8 30 -10 31 -5 5 -92 -55 -100 -68 -12 -19 -33 -10 -39 16 -8 31
-2 41 17 26 8 -7 18 -7 27 -2 8 5 18 6 23 3 5 -3 7 0 5 8 -3 8 -10 13 -16 12
-6 -2 -23 2 -38 7 -24 9 -26 14 -22 60 3 45 1 50 -21 55 -29 7 -43 -10 -37
-44 6 -34 -22 -75 -40 -60 -8 6 -22 7 -36 3 -13 -4 -28 -7 -35 -6 -7 2 -18 -6
-25 -18 -8 -12 -23 -20 -39 -20 -33 0 -47 -36 -17 -43 11 -3 21 0 25 9 3 8 11
14 19 14 8 0 14 9 14 20 0 11 5 20 10 20 6 0 10 -6 10 -14 0 -8 6 -16 14 -19
8 -3 12 -15 9 -29 -4 -21 -1 -23 28 -23 18 0 34 -5 36 -10 5 -17 -149 -14
-166 3 -13 12 -16 12 -28 -4 -18 -25 -16 -35 12 -66 30 -32 32 -41 6 -33 -11
3 -22 2 -25 -4 -8 -13 -77 -10 -73 3 3 6 0 19 -5 29 -13 26 -40 3 -32 -28 3
-13 1 -26 -5 -30 -7 -4 -9 -20 -5 -43 8 -47 15 -57 24 -42 6 9 13 9 31 -2 13
-7 26 -15 29 -18 3 -3 14 -6 25 -7 20 -1 20 -1 1 13 -11 8 -25 14 -32 14 -10
0 -11 7 -3 30 6 17 16 30 23 30 18 0 36 -22 36 -43 0 -13 5 -17 15 -13 10 4
15 -1 16 -17 1 -20 2 -20 6 -2 3 11 10 23 17 27 8 6 8 8 -1 8 -7 0 -12 11 -11
25 2 19 7 23 23 20 11 -3 27 -1 35 5 13 9 13 11 0 21 -13 9 -12 10 2 5 19 -6
43 25 30 39 -4 4 0 6 8 3 23 -7 23 -34 1 -55 -14 -13 -17 -23 -11 -33 5 -8 9
-28 9 -45 l-1 -30 -13 30 c-8 17 -14 25 -15 18 0 -6 -8 -14 -17 -16 -16 -4
-16 -6 2 -12 12 -3 26 -15 33 -25 13 -21 6 -53 -10 -44 -5 3 -20 3 -34 0 -21
-6 -23 -9 -14 -26 14 -26 4 -43 -22 -34 -16 5 -19 2 -16 -13 2 -10 8 -18 13
-18 6 0 16 -4 24 -9 11 -7 13 -5 8 7 -3 10 -2 17 2 17 5 0 16 3 25 6 12 5 16
0 16 -19 0 -16 -7 -28 -19 -32 -10 -3 -26 -14 -36 -25 -25 -28 -48 -26 -40 3
6 21 6 21 -15 -3 -21 -24 -21 -24 -15 -2 4 13 2 22 -4 22 -6 0 -11 -4 -11 -10
0 -5 -18 -19 -40 -30 l-40 -20 0 24 c0 14 5 28 10 31 16 10 12 52 -5 59 -11 4
-17 -2 -21 -22 -4 -22 -12 -27 -37 -29 -41 -3 -70 23 -62 55 5 20 3 23 -15 17
-14 -5 -20 -2 -20 9 0 9 -4 16 -9 16 -12 0 -10 111 2 128 5 7 7 15 4 18 -3 4
3 25 14 47 16 30 19 50 15 81 -5 29 0 59 14 100 11 33 20 68 20 78 0 21 -35
94 -47 100 -8 3 -113 166 -113 175 0 3 -9 18 -21 34 -11 16 -17 34 -13 40 5 8
3 9 -6 4 -8 -5 -17 -2 -24 7 -6 8 -29 23 -51 33 -22 11 -58 34 -79 52 -22 18
-44 33 -50 33 -16 0 -66 66 -66 87 0 54 -74 113 -141 113 -49 0 -97 -42 -105
-90 -4 -22 -10 -40 -15 -40 -15 0 -10 -32 7 -51 14 -15 14 -20 0 -54 -20 -48
-21 -46 15 -38 28 5 30 4 22 -13 -54 -107 -54 -110 -47 -173 3 -34 11 -64 15
-67 5 -3 9 -15 8 -27 -1 -20 -2 -20 -9 3 -7 21 -8 22 -9 5 -1 -12 4 -26 11
-33 12 -12 10 -13 -14 -16 -15 -1 -23 -26 -8 -26 6 0 10 -8 9 -17 -3 -23 11
-54 21 -48 5 3 6 -4 3 -15 -3 -11 0 -20 6 -20 6 0 11 -6 11 -12 1 -30 60 -77
60 -48 0 6 -3 9 -7 9 -20 -3 -27 2 -14 10 9 6 19 3 30 -8 27 -27 29 -44 9 -64
-19 -18 -20 -18 -25 2 -6 23 -22 29 -24 9 -3 -31 4 -55 21 -79 22 -31 18 -88
-10 -129 -9 -14 -22 -39 -28 -57 -6 -17 -30 -60 -54 -95 -24 -35 -54 -87 -68
-116 -20 -46 -22 -55 -10 -64 12 -8 12 -9 -2 -4 -17 5 -22 -3 -19 -30 1 -7 -5
-14 -13 -17 -7 -3 -20 -29 -27 -58 -9 -35 -27 -67 -56 -99 -24 -27 -43 -58
-43 -70 0 -12 -9 -33 -20 -47 -11 -14 -20 -32 -20 -40 0 -7 -12 -18 -27 -24
-54 -22 -73 -32 -73 -41 0 -12 240 1 268 15 18 8 25 8 31 -1 5 -8 19 -10 40
-6 29 6 31 9 26 35 -4 18 -2 29 4 29 6 0 11 -9 11 -20 0 -11 5 -20 10 -20 6 0
10 -6 10 -13 0 -9 10 -12 30 -9 24 3 30 9 30 28 0 13 6 24 13 25 6 0 3 4 -8 9
-12 5 -14 9 -6 9 11 1 10 5 -5 17 -16 13 -16 15 -1 10 9 -3 17 -1 17 4 0 6
-11 10 -25 10 -14 0 -25 6 -25 13 0 7 -9 20 -20 30 -24 21 -25 30 -3 48 15 13
16 11 11 -14 -5 -24 -3 -28 13 -24 14 4 19 0 19 -15 0 -11 4 -16 11 -12 6 3 9
15 6 25 -4 16 -2 17 14 8 15 -7 19 -6 19 6 0 8 -6 15 -14 15 -8 0 -18 5 -22
11 -4 8 3 9 26 4 25 -5 31 -4 28 6 -3 8 -13 14 -24 15 -10 1 -30 4 -43 9 -20
6 -22 12 -17 38 7 34 39 86 100 160 41 49 68 62 59 27 -3 -11 0 -20 6 -20 6 0
9 13 7 30 -2 17 1 30 5 30 5 0 9 6 9 13 0 7 24 36 53 65 50 50 54 52 69 35 9
-10 25 -36 36 -58 11 -22 32 -51 47 -65 41 -38 45 -51 30 -114 -16 -69 -20
-74 -44 -59 -16 10 -20 9 -25 -10 -5 -21 -6 -21 -19 -2 -14 18 -15 18 -21 -1
-3 -10 -3 -32 0 -48 5 -28 4 -28 -31 -22 -27 5 -35 4 -34 -6 2 -7 0 -30 -5
-52 l-7 -38 -20 21 c-11 11 -28 21 -39 21 -17 0 -18 -4 -10 -26 16 -41 12 -47
-15 -17 l-24 28 -1 -33 c0 -20 -4 -31 -10 -27 -6 4 -8 16 -5 28 6 20 5 20 -14
-3 -16 -20 -17 -26 -5 -28 8 -2 12 -8 9 -13 -3 -5 1 -6 9 -3 12 5 16 0 15 -22
-1 -17 -3 -22 -6 -12 -3 14 -7 15 -18 5 -7 -6 -11 -15 -8 -19 2 -5 0 -8 -5 -8
-6 0 -12 -7 -15 -15 -5 -12 10 -14 89 -14 90 0 95 1 89 19 -11 36 7 44 21 10
l14 -32 127 6 c71 4 205 8 298 11 94 3 249 7 346 11 174 7 176 6 182 -15 3
-11 1 -21 -4 -21 -5 0 -9 -18 -9 -40 0 -22 5 -40 10 -40 6 0 10 -5 10 -11 0
-5 -4 -8 -9 -5 -5 3 -11 -10 -13 -29 -2 -22 1 -36 9 -39 7 -3 10 -12 7 -21 -3
-8 -1 -15 5 -15 15 0 14 35 -1 59 -9 15 -8 22 5 36 21 20 21 29 3 48 -8 8 -11
19 -6 27 6 10 9 10 13 -1 3 -8 8 5 12 29 6 34 12 42 29 42 11 0 134 5 271 10
138 5 390 14 560 20 749 25 889 31 894 36 3 3 -1 9 -9 14 -10 6 -11 12 -2 22
7 9 8 19 1 28 -8 13 -10 13 -20 0 -9 -12 -10 -11 -6 8 3 14 0 22 -9 22 -9 0
-13 11 -12 33 1 35 -16 77 -32 77 -6 0 -10 7 -10 15 0 18 16 20 23 3 3 -7 6
-3 6 10 1 15 -5 22 -18 22 -22 0 -71 41 -71 59 0 15 11 14 36 -3 12 -9 26 -11
33 -6 10 6 9 12 -8 29 -21 21 -28 51 -12 51 5 0 11 -6 14 -12 3 -10 9 -9 22 3
24 23 11 87 -21 101 -28 13 -38 36 -23 54 6 7 8 18 5 23 -4 5 -2 12 4 16 14 9
12 25 -3 25 -7 0 -18 14 -24 30 -10 27 -14 29 -36 21 -58 -22 -98 24 -54 60
26 21 16 36 -15 22 -16 -7 -29 -6 -50 6 -15 9 -28 19 -28 22 0 8 38 19 67 19
15 0 21 5 17 14 -3 7 2 16 10 19 21 8 20 27 0 27 -13 0 -15 8 -12 35 5 40 -7
47 -16 10 -6 -23 -26 -36 -26 -16 0 5 -10 9 -23 9 -18 0 -23 -7 -25 -31 -3
-39 -9 -47 -33 -47 -21 0 -24 12 -9 40 7 13 7 21 -1 26 -8 4 -7 9 2 15 11 7
10 10 -6 15 -11 3 -29 19 -39 37 -16 28 -19 30 -25 13 -6 -17 -9 -16 -25 9
-17 26 -18 26 -37 9 -16 -15 -18 -20 -7 -29 7 -5 14 -19 15 -30 1 -11 4 -30 8
-42 5 -15 3 -23 -4 -23 -6 0 -11 9 -11 20 0 11 -4 20 -10 20 -5 0 -13 12 -16
27 l-7 26 -18 -21 c-9 -12 -22 -22 -28 -22 -6 0 -11 -5 -11 -11 0 -6 7 -8 16
-5 12 5 15 2 10 -10 -3 -8 -6 -23 -6 -32 0 -12 -3 -13 -12 -4 -20 20 -29 13
-26 -20 2 -26 -2 -35 -19 -43 -13 -5 -23 -16 -23 -24 0 -11 -3 -11 -16 0 -13
10 -19 8 -42 -16 -22 -24 -27 -26 -30 -12 -4 18 19 47 37 47 6 0 8 7 4 16 -3
10 -8 12 -12 5 -10 -15 -31 182 -37 344 -4 103 -11 157 -26 206 -34 107 -103
187 -178 205 -49 13 -112 91 -139 177 -7 20 -19 37 -27 37 -8 0 -14 5 -14 10
0 11 -21 11 -65 1z m351 -1271 c8 0 14 6 14 13 0 15 20 -13 20 -30 0 -12 -24
-12 -36 0 -17 16 -25 5 -10 -12 14 -15 15 -20 4 -24 -17 -5 41 3 67 10 19 5
20 5 1 -9 -10 -8 -16 -20 -12 -26 10 -17 23 -15 44 8 17 19 20 19 33 4 11 -14
11 -17 -4 -25 -22 -13 -22 -29 0 -29 16 0 16 -1 0 -17 -16 -16 -19 -16 -27 -3
-8 13 -10 12 -10 -2 0 -10 6 -18 13 -18 8 0 7 -4 -3 -11 -12 -9 -11 -10 7 -6
16 3 24 -1 28 -13 3 -10 13 -24 22 -32 14 -11 15 -10 8 11 -5 17 -4 22 6 19
23 -8 16 -42 -11 -55 -30 -15 -74 -18 -50 -3 19 11 11 18 -28 26 -21 4 -32 3
-32 -5 0 -19 -34 -11 -64 15 -21 19 -27 31 -23 51 3 19 0 27 -14 30 -11 3 -19
10 -19 15 0 5 -4 6 -10 3 -13 -8 -13 6 0 39 5 14 17 26 27 26 13 0 15 2 5 8
-14 10 -7 37 17 66 16 18 16 18 19 -3 2 -11 10 -21 18 -21z"/>
<path d="M15932 5937 c-27 -8 -32 -14 -28 -31 6 -25 -10 -46 -36 -46 -11 0
-22 -9 -25 -20 -3 -11 -9 -20 -14 -20 -5 0 -9 -9 -9 -19 0 -11 -8 -22 -17 -24
-17 -4 -17 -5 0 -6 22 -1 22 -14 -3 -36 -11 -10 -20 -24 -20 -30 0 -8 -25 -15
-70 -19 -38 -4 -70 -10 -70 -14 0 -4 9 -14 19 -21 15 -11 17 -19 10 -38 -7
-18 -5 -25 6 -29 11 -5 12 -11 5 -25 -9 -16 -18 -18 -58 -13 -26 4 -51 6 -57
6 -110 -7 -126 -12 -105 -37 18 -22 8 -27 -23 -12 -15 6 -27 19 -27 28 0 9 -7
20 -16 23 -8 3 -13 2 -9 -3 3 -5 0 -11 -6 -13 -9 -3 -9 -9 0 -25 6 -12 7 -24
2 -27 -13 -8 -61 44 -61 66 0 10 -11 24 -25 30 -14 6 -23 16 -20 22 3 6 8 19
11 29 10 29 32 19 36 -15 2 -18 8 -31 13 -28 6 3 9 12 8 20 -3 20 18 61 41 81
16 13 17 18 5 37 -16 25 -36 27 -63 7 -27 -21 -35 -19 -46 10 -11 28 -28 33
-36 10 -3 -8 -14 -17 -23 -20 -10 -3 -17 -15 -17 -30 0 -17 3 -22 10 -15 15
15 36 12 36 -6 0 -11 6 -15 20 -11 30 8 25 -22 -6 -33 -34 -13 -37 -13 -31 4
3 8 -1 17 -10 20 -18 7 -46 -12 -37 -25 3 -5 -2 -10 -10 -10 -36 -3 -39 -4
-43 -15 -2 -7 10 -17 27 -22 22 -8 30 -18 32 -36 0 -15 1 -32 2 -38 2 -20 18
-28 54 -28 18 0 43 -5 54 -11 16 -9 22 -8 29 2 7 11 12 10 26 -5 17 -17 17
-18 -4 -11 -17 5 -23 2 -24 -9 -1 -9 -2 -21 -3 -27 0 -7 -13 -21 -28 -32 l-26
-20 -34 21 c-31 19 -36 20 -62 7 -35 -19 -36 -19 -37 3 0 14 -2 14 -9 -3 -5
-11 -9 -15 -9 -9 -1 6 -13 16 -27 23 -29 13 -27 37 3 33 31 -4 35 23 7 39 -31
16 -57 3 -62 -31 -3 -20 -8 -21 -45 -16 -23 3 -48 2 -56 -3 -10 -6 -25 -5 -43
5 -17 9 -28 10 -29 4 -1 -5 -2 -16 -3 -22 -1 -8 -15 -12 -39 -11 -27 2 -36 -1
-31 -9 12 -19 14 -58 2 -58 -5 0 -12 9 -15 20 -7 26 -17 25 -30 -2 -13 -30 -6
-48 20 -49 17 -1 18 -2 5 -6 -10 -2 -18 -12 -18 -22 0 -10 -11 -28 -25 -41
-14 -13 -25 -27 -25 -31 0 -13 32 -19 46 -9 7 6 21 10 31 8 9 -2 18 2 18 7 0
6 9 20 20 32 13 16 22 19 31 12 9 -7 20 -5 39 7 18 12 29 14 37 6 7 -7 -3 -23
-33 -51 l-42 -42 16 -34 c16 -33 26 -40 55 -36 29 4 9 -26 -29 -42 -23 -10
-43 -27 -46 -37 -3 -11 -12 -20 -19 -20 -8 0 -14 -7 -14 -15 0 -21 10 -19 53
10 20 14 42 23 48 19 6 -3 21 4 35 17 13 12 26 20 28 18 3 -2 -9 -36 -25 -74
-16 -38 -29 -78 -29 -88 0 -9 -7 -20 -15 -23 -8 -4 -15 -12 -15 -20 0 -8 -6
-14 -14 -14 -8 0 -16 -7 -19 -15 -9 -23 -84 -56 -111 -49 -16 4 -23 11 -19 20
4 12 -10 13 -83 10 -49 -2 -98 1 -108 7 -16 8 -24 4 -43 -19 -13 -16 -23 -23
-23 -16 0 7 -5 10 -10 7 -16 -10 -1 -25 26 -25 14 0 24 -6 24 -15 0 -18 -31
-35 -62 -35 -13 0 -28 -4 -34 -10 -5 -5 -24 -6 -47 0 -33 7 -38 6 -33 -7 4
-11 2 -13 -9 -9 -8 3 -22 9 -30 12 -12 5 -14 0 -8 -26 6 -32 6 -32 -28 -27
-33 6 -34 6 -6 -5 44 -19 34 -37 -15 -28 -23 5 -58 7 -77 5 -19 -2 -42 2 -53
8 -14 9 -23 9 -38 -1 -11 -6 -31 -12 -44 -12 -16 0 -27 -7 -31 -20 -7 -21 -39
-27 -50 -10 -3 6 -15 10 -25 10 -13 0 -17 5 -14 15 4 10 0 15 -13 15 -26 0
-35 10 -23 25 8 9 5 15 -7 19 -11 5 -22 1 -29 -9 -7 -9 -19 -15 -27 -13 -24 5
-18 -31 10 -64 13 -14 12 -20 -8 -47 -24 -33 -34 -37 -45 -20 -4 8 -9 7 -15
-2 -13 -21 -11 -39 5 -39 15 0 66 -48 66 -61 0 -5 -13 -9 -30 -9 -23 0 -30 4
-30 20 0 11 -4 20 -10 20 -5 0 -10 -4 -10 -10 0 -20 -27 -9 -38 15 -15 33 -16
32 11 39 l22 6 -25 13 c-15 8 -28 9 -31 4 -10 -14 -20 9 -13 27 4 11 0 16 -12
16 -12 0 -15 3 -8 8 10 6 27 52 28 76 1 5 -8 10 -19 11 -11 2 -28 6 -38 10
-14 6 -20 2 -24 -13 -7 -27 -43 -36 -59 -14 -6 9 -9 22 -6 30 4 11 0 13 -16 8
-26 -9 -40 13 -19 29 18 13 24 30 7 20 -5 -3 -20 0 -32 7 -13 6 -30 13 -38 14
-31 5 -90 28 -90 35 0 4 7 9 15 13 8 3 15 15 15 27 0 16 4 20 18 15 10 -4 8 1
-7 13 -28 21 -11 34 27 20 19 -7 22 -5 22 17 0 17 -7 28 -20 31 -11 3 -20 12
-20 21 0 12 -3 13 -12 4 -8 -8 -8 -15 2 -27 17 -21 -7 -21 -31 1 -16 14 -19
13 -35 -15 -25 -42 -40 -39 -41 7 -2 43 22 102 42 102 7 0 20 3 29 6 10 4 16
1 16 -9 0 -8 -6 -18 -12 -20 -8 -4 -7 -6 3 -6 9 -1 19 9 23 22 8 30 7 39 -1
34 -13 -7 -46 30 -34 38 6 3 11 1 11 -6 0 -10 3 -10 11 -2 6 6 19 9 28 6 13
-4 13 -3 2 5 -7 5 -10 15 -7 21 11 17 23 13 29 -8 3 -14 11 -17 31 -14 32 6
45 23 18 23 -14 0 -21 9 -25 30 -4 18 -13 30 -22 30 -8 0 -14 5 -13 11 5 21
-19 20 -25 -1 -6 -24 -29 -26 -47 -5 -7 8 -19 15 -27 15 -7 0 -16 6 -19 14 -8
21 -56 -24 -74 -69 -8 -19 -18 -35 -22 -35 -13 0 -22 31 -12 39 11 7 12 26 2
37 -5 4 -8 0 -8 -9 0 -13 -9 -17 -37 -17 -28 0 -34 3 -23 10 8 5 10 10 4 10
-18 0 -49 -40 -49 -63 0 -29 -29 -33 -61 -8 -38 30 -70 28 -77 -5 -4 -24 -3
-25 27 -20 39 7 67 -7 49 -25 -10 -10 -9 -17 4 -31 9 -10 11 -18 5 -18 -6 0
-14 5 -17 10 -11 17 -24 11 -39 -17 l-15 -28 -1 29 0 28 -19 -23 c-17 -21 -20
-22 -35 -7 -15 15 -18 15 -40 -5 -25 -22 -25 -37 -1 -37 21 0 28 -19 15 -35
-17 -20 -32 -19 -28 2 2 10 -2 18 -9 18 -7 0 -18 6 -25 13 -11 11 -10 15 4 23
43 24 65 69 33 69 -8 0 -15 5 -15 10 0 6 9 10 20 10 11 0 20 5 20 10 0 6 11
10 25 10 33 0 32 18 -1 26 -18 5 -23 11 -18 23 12 30 9 45 -11 48 -11 1 -14 0
-7 -3 6 -3 12 -14 12 -25 0 -15 -7 -19 -35 -19 -34 0 -40 -7 -36 -39 2 -7 -1
-12 -6 -10 -56 24 -93 46 -93 57 0 20 -35 9 -35 -11 0 -9 -4 -17 -10 -17 -5 0
-10 7 -10 15 0 8 -10 22 -22 30 -19 13 -22 13 -27 -1 -4 -9 -1 -23 5 -30 9
-11 6 -16 -12 -23 -28 -10 -39 -6 -39 15 0 23 -18 16 -22 -8 -2 -15 -11 -24
-25 -26 -24 -4 -31 -26 -12 -37 13 -9 -35 -35 -65 -35 -11 0 -28 -4 -36 -10
-12 -7 -12 -13 -1 -33 7 -14 10 -30 7 -36 -4 -6 -1 -11 6 -12 7 0 -2 -7 -19
-15 -36 -15 -40 -29 -18 -58 8 -11 15 -26 15 -33 0 -18 -27 -16 -34 2 -6 16
-46 21 -46 6 0 -16 50 -41 95 -48 25 -3 48 -10 51 -14 3 -5 0 -9 -5 -9 -18 0
-12 -39 7 -49 17 -9 24 -11 42 -11 17 0 11 -14 -21 -49 -25 -27 -33 -31 -40
-20 -5 8 -8 21 -8 29 3 37 -2 50 -20 50 -10 0 -21 9 -24 20 -3 12 -14 20 -27
20 -15 0 -20 -5 -17 -14 3 -8 1 -17 -6 -19 -9 -3 -9 -8 1 -19 9 -11 10 -18 2
-23 -6 -3 -8 -10 -5 -15 2 -4 -4 -19 -15 -33 -11 -14 -20 -30 -20 -36 0 -20
45 -41 87 -41 24 0 43 -4 43 -9 0 -5 11 -8 25 -8 14 0 25 4 25 9 0 6 8 7 18 3
9 -4 25 -7 35 -7 10 0 17 -7 17 -18 0 -10 -8 -21 -17 -25 -17 -6 -17 -7 0 -19
9 -7 17 -25 17 -40 0 -24 -3 -26 -42 -27 -24 -1 -64 -2 -91 -2 -34 -1 -46 -5
-43 -14 9 -21 -39 -26 -77 -8 -27 13 -40 14 -56 6 -11 -6 -29 -11 -40 -11 -11
0 -22 -9 -26 -21 -6 -17 -13 -20 -35 -16 -25 5 -28 3 -32 -23 -3 -17 -1 -30 4
-30 5 0 4 -9 -2 -19 -5 -11 -10 -29 -10 -40 0 -19 -6 -21 -75 -21 -78 0 -90 6
-54 28 20 13 19 14 -23 41 -36 23 -45 25 -56 14 -7 -7 -16 -13 -20 -13 -3 0
-1 5 5 11 7 7 9 25 6 40 -5 27 -4 29 28 29 47 0 69 15 38 25 -13 5 -29 15 -36
24 -9 13 -6 19 15 33 l27 18 -37 0 -36 0 -2 78 c-3 141 -5 161 -18 174 -9 9
-12 -1 -13 -48 -2 -53 -3 -50 -10 31 -5 50 -12 106 -15 125 -7 34 -8 34 -15
-19 -14 -100 -14 -390 -1 -403 20 -20 13 -27 -23 -21 -40 6 -45 -4 -13 -31 16
-14 25 -16 38 -8 14 8 20 4 34 -20 22 -36 14 -46 -24 -31 -19 7 -28 8 -24 1 4
-6 -2 -8 -12 -6 -11 2 -18 10 -17 19 3 14 -7 17 -67 22 -14 1 -28 9 -32 17 -5
12 -7 11 -7 -3 -1 -16 -3 -17 -16 -3 -8 8 -15 21 -15 28 -1 9 -3 9 -10 -2 -10
-17 -19 -389 -9 -387 7 2 59 -58 59 -67 0 -4 -10 -1 -22 5 -13 7 -34 14 -47
15 -13 2 -28 9 -32 16 -6 9 -10 8 -15 -6 -4 -10 -10 -14 -13 -9 -8 12 -101 33
-154 35 -40 1 -40 2 13 9 30 4 -368 5 -885 3 -517 -3 -956 -7 -975 -9 -19 -2
-81 -5 -137 -6 -59 -1 -100 -6 -97 -11 4 -6 -97 -8 -250 -5 -140 2 -253 1
-251 -3 2 -4 -21 -3 -51 2 -31 5 -102 6 -158 3 -170 -10 -836 -14 -831 -5 5 9
-282 16 -525 13 -69 -1 -446 -2 -838 -3 l-713 -3 1 -41 c3 -69 1 -76 -19 -76
-27 0 -33 13 -32 75 0 47 -3 55 -21 61 -13 4 -24 2 -26 -5 -5 -16 -22 -14 -22
4 0 22 -14 18 -51 -15 l-34 -31 -780 5 c-711 4 -1212 15 -1451 31 -87 6 -91 6
-106 -17 -22 -33 -12 -83 18 -97 15 -6 53 -8 97 -5 39 3 572 0 1182 -7 611 -7
1148 -12 1195 -10 47 1 226 -1 398 -5 l313 -6 -5 -74 c-3 -41 -9 -108 -12
-150 l-6 -76 -241 6 c-861 23 -2305 57 -3559 84 -168 4 -309 9 -312 12 -2 3 6
52 20 109 30 126 30 131 2 131 -43 0 -68 -12 -72 -34 -3 -11 -15 -63 -27 -115
l-22 -94 -266 6 c-146 4 -405 10 -574 14 -222 4 -310 9 -313 18 -5 12 2 46 32
153 l18 62 63 0 c56 0 91 12 62 22 -7 2 -13 16 -15 31 -2 21 2 28 21 33 24 6
39 29 29 45 -10 17 -43 9 -55 -13 -20 -37 -41 -47 -94 -48 -78 0 -76 -3 -66
156 10 143 33 427 52 638 10 116 6 147 -19 132 -6 -3 -13 -53 -17 -111 -7
-104 -16 -130 -32 -100 -5 8 -23 26 -42 39 -28 21 -37 23 -64 14 -18 -6 -36
-14 -42 -18 -27 -19 -66 -17 -93 7 -33 29 -56 26 -61 -7 -4 -31 -17 -40 -59
-40 -33 0 -112 -34 -112 -48 0 -4 8 -12 19 -19 10 -6 29 -26 42 -44 18 -26 20
-31 6 -26 -11 4 -17 1 -17 -8 0 -19 21 -19 46 0 10 8 26 14 34 14 9 0 6 -5 -8
-11 -12 -6 -25 -23 -29 -37 -9 -38 -13 -43 -28 -31 -7 6 -21 7 -31 3 -17 -6
-17 -5 -5 10 7 9 17 14 22 11 5 -3 9 -3 9 1 0 3 -11 10 -25 15 -14 5 -25 15
-25 22 0 10 2 10 9 0 6 -10 10 -8 14 10 9 33 9 35 -8 35 -8 0 -15 -5 -15 -10
0 -5 -11 -7 -25 -5 -13 3 -22 1 -19 -3 3 -5 -6 -13 -20 -19 -14 -5 -26 -14
-26 -19 0 -4 -15 -16 -32 -25 l-33 -16 55 4 c30 3 49 2 43 -1 -21 -8 -15 -22
7 -16 11 3 20 1 20 -5 0 -17 -26 -31 -48 -25 -15 3 -24 0 -28 -11 -8 -20 -24
-21 -24 -1 0 17 -19 21 -21 5 -1 -5 -2 -16 -3 -22 0 -7 -13 -18 -27 -25 -33
-16 -45 -56 -25 -84 13 -20 10 -58 -11 -109 -8 -18 -10 -27 -12 -40 0 -5 -8
-10 -17 -10 -8 0 -13 -4 -9 -9 3 -6 -2 -14 -12 -19 -14 -8 -15 -13 -5 -25 11
-13 8 -17 -16 -29 -41 -21 -74 -4 -70 35 2 16 0 29 -4 28 -5 -1 -14 -1 -20 -1
-9 0 -9 -3 -2 -8 14 -9 12 -51 -4 -79 -6 -12 -12 -29 -12 -37 0 -9 -5 -16 -11
-16 -7 0 -9 -12 -7 -31 4 -24 -1 -34 -24 -50 -15 -11 -28 -28 -28 -36 0 -14 3
-14 20 2 12 10 20 13 20 6 0 -6 -8 -18 -19 -27 -16 -14 -17 -21 -8 -52 9 -27
9 -36 -1 -40 -9 -3 -12 -128 -12 -547 0 -509 1 -544 18 -548 16 -4 16 -5 0 -6
-17 -1 -18 -70 -18 -1296 l0 -1295 4335 0 c4059 0 4335 1 4335 17 0 9 -9 50
-21 90 -11 41 -18 84 -16 96 3 16 6 9 12 -21 8 -45 25 -67 25 -33 0 10 3 26 6
35 5 14 9 13 31 -4 20 -16 41 -20 97 -20 72 0 101 -9 101 -32 1 -21 -34 -41
-61 -35 -18 3 -24 1 -20 -9 4 -11 -10 -14 -69 -14 -68 0 -75 -2 -75 -20 0 -12
7 -20 16 -20 10 0 14 -6 10 -15 -5 -13 346 -15 3119 -15 l3124 0 52 55 c29 31
79 73 110 94 68 46 188 97 244 105 38 5 37 5 -10 -10 -124 -38 -219 -91 -303
-168 -90 -82 -128 -76 448 -76 l510 0 0 1035 0 1035 -52 1 c-29 0 -60 2 -68 3
-8 2 -73 6 -145 10 -151 8 -373 21 -705 41 -129 8 -345 22 -480 30 -1003 62
-1608 99 -1965 120 -137 8 -387 24 -555 34 -168 11 -417 27 -555 36 -137 9
-323 22 -413 30 -89 8 -168 15 -176 15 -7 0 -25 11 -40 25 l-27 25 6 162 c3
90 8 182 11 205 l5 42 142 -5 c78 -2 250 -9 382 -14 1343 -56 1337 -56 1385
-80 47 -24 110 -26 152 -4 28 15 75 14 577 -5 300 -12 627 -25 726 -31 99 -6
304 -15 455 -20 349 -13 495 -19 750 -30 113 -5 292 -12 398 -16 l192 -7 0
122 c0 66 -1 121 -2 121 -2 0 -154 5 -338 10 -543 16 -1575 49 -1855 60 -143
5 -424 15 -625 20 -1257 35 -2273 71 -2300 81 l-25 9 7 138 c10 205 10 202 33
207 11 3 85 6 165 8 l145 3 -161 2 c-116 1 -164 6 -171 15 -11 15 -2 332 10
344 5 4 243 10 530 13 287 3 512 9 501 13 -12 4 -28 6 -35 5 -9 -2 -15 8 -17
24 -3 21 0 27 12 22 21 -8 40 30 22 45 -10 8 -16 9 -21 1 -3 -5 -11 -10 -17
-10 -7 0 -6 6 2 15 7 8 9 15 4 15 -5 0 -2 5 6 10 13 8 12 10 -4 10 -17 0 -17
1 -2 25 9 13 16 30 16 37 0 9 -3 9 -10 -2 -6 -9 -10 -10 -10 -3 0 6 5 15 11
19 8 4 7 9 -2 15 -10 6 -7 8 11 7 17 -2 25 3 28 16 3 15 -1 18 -22 14 -22 -4
-26 -2 -26 18 0 12 -4 25 -9 28 -5 3 -11 21 -13 40 -4 36 -5 36 69 27 7 0 10
-8 6 -18 -5 -14 -1 -15 25 -10 18 4 34 2 38 -4 3 -6 12 -8 19 -5 7 2 25 -8 40
-24 18 -19 33 -26 47 -22 14 3 19 1 14 -6 -5 -8 1 -12 16 -13 13 -1 30 -2 38
-3 8 -2 32 -3 53 -4 l38 -2 -3 -137 c-2 -102 0 -137 10 -140 12 -5 19 104 13
200 -2 32 1 37 18 37 20 0 21 -5 21 -120 0 -115 1 -120 21 -120 19 0 21 5 17
49 l-3 49 48 4 c57 4 67 -7 60 -64 -5 -31 -3 -38 11 -38 14 0 17 7 14 35 -2
19 1 33 7 32 5 -1 8 -17 6 -35 l-3 -33 406 1 c238 1 406 5 406 11 0 5 6 9 13
9 17 0 58 46 49 55 -4 4 4 5 18 3 17 -2 25 -10 26 -24 2 -45 44 -65 44 -21 1
21 1 21 15 3 8 -11 22 -17 33 -14 10 3 27 -1 37 -8 28 -20 1250 -21 1262 -1 4
8 21 17 36 21 26 6 28 5 22 -14 -5 -16 -2 -20 14 -20 15 0 19 5 15 18 -5 16
-5 16 9 0 13 -17 53 -18 566 -18 l551 0 0 575 c0 567 0 575 -20 575 -15 0 -19
6 -18 27 2 15 10 28 20 31 17 4 18 32 18 453 0 293 -3 449 -10 449 -5 0 -10 7
-10 16 0 9 5 12 11 8 7 -4 10 -1 7 7 -6 18 -25 20 -66 6z m-14988 -1484 c-15
-134 -34 -365 -35 -412 0 -31 -3 -64 -7 -73 -7 -16 -9 -16 -34 5 -29 24 -158
182 -158 193 0 4 -11 21 -23 38 -28 37 -50 117 -41 151 5 22 11 25 53 25 25 0
63 5 85 11 32 9 44 8 72 -7 45 -25 64 -9 46 38 -10 27 -9 35 5 50 27 30 42 22
37 -19z m10865 -322 c-1 -42 -4 -123 -8 -179 -5 -86 -3 -105 9 -114 12 -8 11
-8 -3 -4 -10 3 -25 6 -33 6 -9 0 -13 4 -10 9 4 5 -3 7 -14 4 -24 -6 -27 22 -5
51 20 27 19 46 -2 46 -11 0 -24 -15 -35 -40 -9 -22 -22 -40 -28 -40 -8 0 -9 7
-5 18 4 9 6 83 5 164 l-1 147 43 3 c98 7 88 15 87 -71z m-11195 -58 c37 -53
160 -163 229 -203 67 -40 67 -43 35 -165 -14 -55 -27 -85 -37 -87 -9 -2 -66
-2 -128 0 l-112 4 -5 26 c-4 15 -2 54 4 87 19 116 10 136 -66 138 -19 1 -34 2
-34 2 0 1 8 17 17 35 9 19 20 50 24 69 21 95 31 131 38 131 5 0 20 -17 35 -37z
m14064 -79 c19 -3 32 -1 32 6 0 19 28 10 33 -11 3 -11 12 -19 19 -17 27 6 17
-17 -15 -34 -87 -44 -116 -55 -142 -54 -29 1 -49 26 -21 26 10 0 17 9 18 25 0
14 1 31 2 38 1 6 -4 12 -11 12 -7 0 -18 6 -25 13 -13 13 -1 13 110 -4z m-4743
-218 c38 -20 95 -21 121 -1 16 12 72 14 323 15 l304 0 -7 -152 c-4 -84 -9
-165 -12 -180 l-6 -28 -156 0 c-228 0 -2947 48 -3141 56 l-163 6 6 62 c4 33
11 103 18 155 l11 94 1336 -6 c1194 -5 1339 -7 1366 -21z m-2988 0 c1 -1 -6
-69 -14 -152 l-16 -151 -206 4 c-113 2 -217 6 -230 9 l-24 5 7 112 c4 62 9
129 13 149 l5 37 232 -6 c127 -3 232 -6 233 -7z m-6405 -198 c29 -9 41 -9 50
0 18 18 244 16 251 -1 4 -11 -3 -45 -38 -192 -2 -6 -61 -8 -166 -5 l-164 5 -3
103 c-3 114 -4 112 70 90z m538 -8 c-25 -3 189 -5 475 -3 286 3 526 1 532 -4
20 -14 -28 -227 -52 -231 -9 -2 -140 1 -289 7 -149 6 -383 16 -521 22 -137 5
-255 12 -262 14 -9 3 -9 13 -2 37 6 18 16 55 24 83 17 62 44 85 99 83 l41 -1
-45 -7z m2545 -35 c1180 -26 1578 -34 2120 -45 292 -6 539 -13 551 -15 20 -4
20 -10 17 -117 -2 -62 -6 -128 -9 -147 l-5 -34 -187 7 c-103 4 -295 12 -427
17 -132 6 -249 10 -260 9 -11 0 -211 7 -445 15 -1428 51 -1762 63 -2160 75
-417 13 -596 21 -608 29 -11 7 18 161 39 205 l14 29 345 -7 c190 -3 647 -13
1015 -21z m3312 -79 c4 -4 -36 -288 -41 -293 -3 -3 -103 -2 -223 3 l-218 9 2
80 c2 44 8 111 14 149 l11 69 227 -8 c124 -4 227 -8 228 -9z m1583 -6 c283 -5
835 -14 1225 -20 391 -6 757 -13 814 -16 l103 -6 -7 -172 c-4 -94 -9 -175 -12
-179 -3 -4 -75 -5 -161 -2 -475 17 -1357 46 -2017 65 -192 6 -478 14 -635 19
-157 5 -298 9 -315 8 -16 -1 -117 2 -224 7 l-194 9 7 136 c4 75 10 144 13 155
6 20 8 20 1403 -4z m-7787 -210 l39 1 -7 -48 c-3 -26 -14 -88 -24 -138 -17
-89 -18 -90 -47 -89 -182 8 -314 18 -314 23 0 4 18 64 41 135 l41 128 116 -6
c64 -3 134 -6 155 -6z m256 -48 c48 4 82 -62 87 -167 l3 -77 -124 3 c-68 2
-127 7 -130 11 -8 7 21 185 35 224 8 19 13 20 66 13 32 -4 60 -8 63 -7z m551
-2 c-15 -5 17 -8 85 -7 101 0 105 1 40 7 -47 4 -5 7 133 8 155 2 204 -1 207
-11 3 -7 -6 -62 -21 -122 -14 -61 -28 -125 -31 -143 l-5 -34 -57 6 c-31 3
-153 11 -271 16 -118 6 -264 15 -325 20 -60 6 -116 10 -123 10 -7 0 -10 5 -7
10 3 6 1 10 -4 10 -6 0 -11 5 -11 10 0 6 7 10 15 10 9 0 12 6 8 16 -15 39 53
115 127 140 30 10 57 22 58 27 2 4 15 7 28 7 16 0 23 4 18 11 -4 8 5 9 33 5
21 -4 50 -3 63 3 14 5 34 10 45 9 16 0 15 -2 -5 -8z m1175 -26 c474 -15 502
-17 535 -36 19 -12 49 -22 66 -23 17 -1 36 -5 44 -10 9 -5 11 -4 6 3 -5 8 4
12 28 12 19 0 38 5 41 10 8 12 194 13 500 0 127 -5 374 -14 550 -20 176 -6
491 -17 700 -25 209 -8 448 -17 530 -20 427 -15 455 -17 480 -37 14 -11 41
-22 61 -25 l36 -6 -7 -161 c-4 -89 -9 -165 -12 -170 -3 -5 -47 -6 -97 -2 -50
3 -134 9 -186 11 -52 3 -169 10 -260 15 -141 9 -859 48 -1190 65 -58 3 -262
14 -455 25 -192 11 -437 24 -542 30 -499 26 -608 32 -888 50 -165 10 -365 22
-445 25 -178 7 -194 10 -185 33 4 9 18 62 31 116 14 54 32 115 40 134 l14 35
53 -7 c28 -3 277 -13 552 -22z m4203 -159 c5 -4 -18 -378 -22 -383 -4 -4 -411
17 -451 23 l-30 5 7 142 c4 79 10 163 13 187 l7 44 236 -7 c130 -4 238 -9 240
-11z m467 -15 c131 -7 168 -12 203 -30 29 -14 50 -19 65 -13 12 4 25 7 29 8 3
0 10 3 14 8 10 10 285 8 534 -3 113 -5 390 -17 615 -26 226 -9 411 -17 413
-19 6 -6 -20 -49 -39 -65 -11 -8 -20 -25 -22 -36 -1 -12 -12 -41 -24 -65 -31
-64 -73 -181 -80 -223 l-6 -37 -43 7 c-34 5 -45 3 -49 -8 -5 -13 -23 -16 -60
-9 -5 1 1 7 15 13 25 11 25 11 3 15 -13 3 -23 10 -23 18 0 18 -60 39 -74 25
-13 -13 -56 -13 -56 0 0 5 -7 7 -15 4 -8 -4 -15 -1 -15 5 0 6 -4 11 -10 11
-13 0 -13 -37 -1 -45 5 -3 12 -1 16 5 10 17 25 11 25 -10 0 -11 -7 -20 -15
-20 -16 0 -67 -48 -61 -58 2 -4 -7 -8 -20 -8 -13 -1 -44 -16 -70 -32 -25 -17
-52 -28 -60 -25 -30 11 -6 -25 64 -94 35 -36 49 -43 81 -43 42 0 96 16 120 36
97 79 116 93 120 88 6 -6 -80 -93 -92 -94 -5 0 -21 -8 -35 -19 -48 -32 -135
-54 -205 -49 -51 3 -64 1 -60 -10 3 -7 12 -11 19 -8 8 3 30 -4 49 -16 40 -23
101 -20 142 8 20 12 22 12 17 -1 -4 -8 -10 -15 -14 -15 -15 0 -59 -76 -64
-110 -11 -78 -18 -116 -23 -130 -4 -8 -5 -18 -5 -22 5 -22 -108 10 -143 40
-52 44 -75 83 -75 127 0 56 11 83 48 123 l30 31 -24 33 c-31 41 -31 74 -1 82
18 5 19 8 7 15 -8 5 -18 7 -22 5 -10 -6 -4 26 19 104 10 31 12 56 7 61 -5 4
-110 13 -234 20 -124 7 -335 18 -470 26 -615 37 -754 45 -782 45 l-31 0 7 128
c4 70 9 157 13 195 l6 67 91 0 c50 -1 163 -5 251 -10z m2690 -105 c187 -8 391
-18 453 -21 l114 -7 -6 -51 c-3 -28 -8 -129 -12 -224 -4 -95 -9 -174 -13 -176
-7 -5 -602 27 -816 44 -162 12 -427 29 -468 30 -27 0 -28 2 -22 38 11 63 11
63 48 47 58 -24 72 -16 75 44 2 29 -3 74 -11 100 -7 26 -10 56 -7 67 4 10 4
24 -1 30 -15 19 -38 92 -31 99 7 7 127 4 697 -20z m-1064 -687 c0 -10 2 -10 6
0 10 24 23 0 23 -43 0 -90 -68 -181 -172 -228 -44 -21 -73 -22 -35 -1 15 8 27
21 27 28 0 8 13 26 30 39 28 24 29 26 10 32 -12 4 -20 15 -20 27 l0 21 -23
-21 c-13 -12 -31 -22 -40 -22 -9 0 -17 -4 -17 -10 0 -5 -9 -14 -20 -20 -35
-19 -37 16 -4 46 48 42 154 114 168 114 7 0 16 3 20 8 4 4 13 7 19 7 7 0 11 8
9 18 -2 9 2 17 8 17 5 0 10 -6 11 -12z m21 -580 c-92 -35 -302 -78 -382 -78
-34 0 -50 5 -54 15 -7 20 -7 20 144 38 69 9 166 27 215 40 67 18 94 21 107 13
15 -9 10 -13 -30 -28z m891 -509 c65 -33 97 -67 97 -106 0 -24 -7 -37 -25 -49
-55 -36 -213 7 -280 76 -22 23 -24 30 -14 58 6 18 21 35 37 41 39 15 135 5
185 -20z m-9006 -191 c-3 -13 -9 -35 -12 -50 -6 -25 -4 -28 17 -28 13 0 31 9
41 20 16 19 16 23 2 50 -13 25 -13 30 -2 30 8 0 18 -10 24 -22 l10 -23 12 23
c8 15 21 22 40 22 24 0 30 -6 40 -40 6 -22 16 -40 20 -40 12 0 21 26 21 56 0
13 5 24 10 24 19 0 10 -47 -19 -92 -33 -51 -66 -78 -96 -78 -15 1 -13 4 10 14
51 22 56 35 39 94 -17 57 -33 65 -58 27 -15 -23 -15 -28 -1 -55 13 -26 14 -30
1 -30 -8 0 -18 9 -21 20 -8 25 -17 25 -32 1 -12 -18 -63 -24 -79 -9 -3 4 -16
2 -27 -4 -44 -23 -59 51 -20 95 10 10 30 17 51 17 30 0 34 -2 29 -22z m8366
-704 c9 -3 15 -10 12 -15 -4 -5 3 -9 14 -9 14 0 21 -6 21 -19 0 -28 -59 -45
-130 -38 -73 8 -90 15 -90 38 0 12 5 16 15 13 8 -4 15 -2 15 4 0 5 -7 12 -15
16 -20 7 -19 24 3 28 18 4 125 -9 155 -18z"/>
<path d="M9958 5893 c-10 -2 -18 -12 -18 -21 -1 -22 -30 -62 -30 -41 -1 8 -10
2 -24 -15 -14 -16 -22 -36 -18 -44 4 -11 1 -14 -9 -10 -8 3 -23 2 -34 -3 -18
-7 -18 -8 -2 -8 12 -1 17 -7 15 -18 -2 -10 -11 -17 -19 -15 -11 3 -12 1 -1 -9
17 -18 15 -39 -3 -39 -8 0 -15 7 -15 15 0 9 -10 20 -22 25 -13 5 -17 9 -10 9
15 1 16 47 1 56 -15 10 -21 1 -24 -37 -2 -18 -5 -34 -6 -35 -1 -2 -2 -8 -3
-13 0 -6 -6 -14 -12 -18 -13 -8 -26 -54 -13 -46 5 3 9 -1 9 -8 0 -20 -43 -17
-57 3 -9 11 -20 15 -35 11 -21 -5 -21 -6 -2 -13 13 -5 14 -8 4 -8 -16 -1 18
-25 53 -37 12 -4 17 -13 14 -25 -3 -11 1 -20 12 -24 9 -3 17 -15 18 -27 2 -21
22 -43 46 -51 17 -5 10 -152 -8 -187 -12 -24 -13 -33 -3 -49 13 -22 15 -18
-51 -88 -26 -27 -28 -33 -16 -43 8 -7 15 -18 15 -24 0 -13 -28 -39 -54 -49
-15 -6 -16 -2 -11 37 5 28 3 46 -4 50 -16 11 -25 -22 -11 -39 9 -10 9 -15 1
-15 -6 0 -11 5 -11 10 0 6 -12 10 -27 10 -14 0 -23 3 -19 8 4 4 13 7 19 7 7 0
12 11 13 25 2 43 4 50 13 50 5 0 12 -8 14 -17 4 -17 5 -17 6 -1 0 10 -8 22
-19 28 -14 7 -20 7 -20 0 0 -22 -25 -8 -26 15 -1 14 2 25 8 25 5 0 6 -4 3 -10
-3 -5 -3 -10 2 -10 18 0 28 17 29 45 1 17 -1 24 -3 18 -3 -8 -20 -13 -41 -12
-31 1 -33 2 -13 8 22 6 23 8 8 23 -10 9 -17 32 -17 50 l0 33 -19 -24 c-13 -17
-24 -22 -36 -17 -16 6 -17 2 -11 -36 4 -26 3 -38 -3 -29 -13 19 -23 -3 -15
-34 4 -18 2 -25 -8 -25 -22 0 -67 -52 -78 -90 -5 -19 -8 -35 -6 -38 5 -4 48
19 57 31 10 14 29 -19 31 -56 2 -20 8 -37 14 -37 15 0 48 -71 45 -97 -2 -15 3
-23 13 -23 9 0 16 -5 16 -11 0 -6 -9 -9 -20 -6 -11 3 -18 1 -14 -4 3 -5 15 -9
26 -9 12 0 19 -3 15 -6 -3 -3 6 -19 21 -35 24 -28 31 -30 92 -28 36 1 68 4 72
6 4 2 84 6 177 8 159 4 172 6 192 26 l22 22 -21 -5 c-12 -4 -25 -2 -28 4 -3 5
-11 2 -18 -8 -9 -12 -15 -14 -20 -6 -9 15 1 32 19 32 7 0 22 18 32 40 20 44
33 51 33 19 0 -14 5 -19 14 -16 17 7 26 -13 26 -60 0 -20 3 -33 7 -30 5 6 9
25 27 122 2 11 4 20 5 20 1 0 3 36 5 80 3 77 3 78 -6 25 -17 -101 -18 -103
-32 -91 -7 6 -11 23 -9 39 3 20 2 23 -6 12 -5 -8 -7 -18 -5 -22 3 -5 -2 -11
-11 -14 -9 -4 -14 -13 -11 -20 3 -8 -1 -14 -8 -14 -8 0 -21 -10 -30 -22 -16
-23 -17 -22 -12 17 5 31 4 35 -4 18 -11 -26 -32 -30 -49 -9 -9 11 -17 9 -42
-15 -16 -15 -39 -31 -50 -34 -10 -4 -19 -13 -19 -21 0 -11 -8 -14 -27 -12 -37
4 -45 43 -12 53 20 7 21 8 5 17 -13 7 -23 5 -37 -8 -18 -16 -19 -16 -19 9 0
27 37 49 49 29 9 -14 21 -5 54 39 28 37 35 55 17 44 -6 -3 -7 1 -4 9 3 9 10
14 14 11 4 -2 15 4 25 15 20 22 45 26 45 8 0 -8 7 -5 15 6 13 17 15 18 15 3 0
-20 21 -22 38 -5 8 8 15 8 27 -2 12 -10 15 -10 15 3 0 11 7 14 25 11 14 -2 25
0 25 6 0 5 -5 10 -11 10 -6 0 -8 9 -3 22 6 20 5 21 -9 9 -9 -7 -14 -17 -11
-23 3 -5 -5 -6 -20 -2 -16 4 -26 2 -26 -5 0 -6 -7 -11 -17 -11 -9 0 -13 3 -10
7 4 3 2 12 -4 20 -14 17 5 43 32 43 13 0 17 5 12 17 -5 12 -2 15 10 10 21 -8
49 2 41 14 -3 5 -11 6 -17 3 -7 -4 0 5 16 20 15 15 27 31 27 37 0 6 5 7 12 3
8 -5 9 4 5 32 -4 21 -7 66 -7 98 l0 59 -23 -27 c-21 -24 -27 -26 -52 -16 -22
8 -30 8 -36 -2 -5 -8 -11 -3 -19 17 -8 21 -8 31 -1 33 6 2 9 8 6 12 -3 5 -14
2 -25 -7 -18 -15 -18 -19 -4 -34 14 -15 13 -17 -11 -23 -39 -10 -31 -47 13
-60 17 -5 32 -15 32 -23 0 -27 25 -7 29 23 3 26 4 27 11 9 8 -18 9 -18 9 -2 1
24 21 11 21 -14 0 -12 -7 -19 -19 -19 -23 0 -34 -24 -32 -70 l2 -35 -21 24
c-18 21 -24 22 -45 13 -17 -8 -25 -20 -26 -39 -1 -17 -3 -21 -6 -10 -2 9 -10
17 -16 17 -8 0 -7 4 1 12 15 15 16 32 2 23 -5 -3 -10 -1 -10 5 0 6 8 10 18 8
11 -2 16 3 14 15 -2 9 2 17 8 17 6 0 8 -4 5 -10 -3 -5 -1 -10 4 -10 15 0 14
27 -1 33 -7 3 -2 6 12 7 l25 1 -23 10 c-30 11 -57 -2 -74 -39 -8 -15 -21 -27
-32 -27 -11 0 -21 -5 -23 -12 -3 -7 3 -9 16 -6 12 3 21 3 21 0 0 -6 -59 -37
-70 -37 -11 0 7 74 18 78 6 2 8 11 5 21 -2 10 5 34 16 54 11 21 17 37 13 37
-14 0 -31 -22 -26 -35 3 -7 1 -16 -5 -20 -6 -3 -11 -16 -11 -28 -1 -19 -3 -18
-15 8 l-13 30 -1 -32 c-1 -17 4 -33 11 -35 8 -3 7 -11 -5 -28 l-16 -24 0 30
c0 16 -3 46 -7 67 -5 30 -3 37 10 37 10 0 13 6 10 15 -5 11 -2 13 10 9 12 -5
15 -2 10 10 -3 9 -10 13 -15 10 -5 -3 -9 0 -9 5 0 6 7 11 15 11 8 0 15 -4 15
-10 0 -17 20 -11 55 16 20 15 39 23 46 18 8 -4 9 -3 5 4 -4 7 -14 12 -22 12
-18 0 -18 14 1 30 13 11 19 8 39 -15 l23 -27 22 27 c26 34 27 52 1 60 -11 3
-20 11 -20 17 0 6 9 8 20 5 11 -3 20 -1 20 4 0 5 -11 9 -25 9 -25 0 -25 2 -23
53 2 28 6 54 9 57 7 5 12 43 10 68 -1 8 -9 10 -25 6 -19 -4 -24 -2 -23 13 1
10 -3 17 -9 16 -13 -3 -29 42 -25 70 1 9 1 16 -1 16 -2 -1 -11 -3 -20 -6z"/>
<path d="M10255 5638 c-9 -11 -17 -39 -19 -63 -1 -24 -9 -51 -17 -61 -12 -15
-12 -16 9 -10 16 6 22 3 22 -8 0 -9 7 -16 15 -16 8 0 15 -4 15 -10 0 -5 -8
-10 -17 -10 -13 0 -14 -3 -5 -12 9 -9 17 -7 33 11 12 12 24 20 27 16 4 -3 2
-9 -3 -13 -6 -4 -15 -18 -21 -32 -10 -23 -9 -27 12 -37 27 -13 41 -1 20 16
-11 10 -11 18 1 54 8 23 21 49 29 58 15 17 19 69 6 69 -10 0 -42 -33 -42 -44
0 -9 -26 -36 -35 -36 -3 0 -3 9 0 20 4 11 2 20 -4 20 -6 0 -11 10 -11 22 l0
21 20 -23 19 -22 13 27 c9 21 9 28 -1 35 -8 4 -11 12 -8 17 3 4 -5 13 -18 19
-19 9 -26 8 -40 -8z"/>
<path d="M9514 5593 c-11 -45 -35 -75 -56 -70 -11 3 -18 0 -18 -10 0 -8 5 -11
10 -8 14 9 12 -5 -5 -39 -8 -15 -12 -33 -8 -40 4 -6 6 -19 4 -30 -1 -10 2 -16
8 -12 6 4 13 -8 16 -28 5 -25 13 -35 30 -39 22 -4 24 -1 21 42 -1 26 -5 52
-10 59 -4 6 -3 12 3 12 5 0 13 -10 16 -21 6 -17 9 -19 16 -8 5 8 9 9 9 4 0 -6
-5 -16 -12 -23 -9 -9 -8 -12 5 -12 10 0 20 7 23 15 4 8 12 15 20 15 8 0 14 5
14 10 0 6 -5 10 -12 10 -6 0 -3 7 8 15 11 8 14 15 7 15 -20 0 -15 19 12 44 23
21 33 46 19 46 -10 0 -34 -28 -34 -39 0 -10 -11 -14 -27 -8 -4 1 -6 9 -5 18 2
9 -4 19 -13 22 -10 4 -15 20 -15 47 0 46 -16 54 -26 13z"/>
<path d="M10556 5555 c-3 -8 -14 -15 -24 -15 -10 0 -23 -5 -30 -12 -9 -9 -13
-8 -17 5 -6 14 -10 13 -41 -5 -19 -11 -34 -28 -34 -38 0 -11 -5 -22 -10 -25
-6 -3 -7 -17 -4 -31 6 -23 5 -24 -20 -15 -28 11 -39 3 -26 -19 4 -7 6 -19 3
-27 -3 -7 2 -13 11 -13 9 0 16 -4 16 -10 0 -5 -7 -10 -16 -10 -8 0 -12 -5 -9
-10 3 -6 -1 -17 -10 -26 -23 -23 -9 -31 15 -9 26 23 26 11 0 -17 -15 -16 -17
-24 -8 -30 10 -5 8 -11 -7 -22 -16 -12 -18 -17 -7 -27 9 -10 12 -10 12 -1 0 7
5 12 10 12 16 0 11 -28 -7 -42 -19 -14 -30 -68 -14 -68 5 0 12 4 16 10 9 14
37 0 31 -16 -3 -8 -3 -21 0 -29 5 -12 10 -12 27 -3 12 6 29 19 38 30 9 10 21
18 26 18 6 0 17 10 25 21 12 19 16 20 36 8 32 -20 36 -41 11 -60 -16 -12 -19
-20 -12 -35 5 -10 8 -25 7 -31 -1 -7 -2 -22 -3 -33 -1 -13 -14 -25 -36 -34
-31 -13 -34 -18 -26 -38 23 -58 37 -78 54 -78 10 0 15 -4 12 -10 -4 -6 28 -10
89 -10 77 0 97 3 104 16 8 15 10 15 15 0 7 -16 35 -20 75 -10 15 5 22 14 23
33 0 23 1 23 8 6 7 -18 8 -17 14 7 5 19 12 25 25 21 10 -2 24 3 31 11 8 9 17
16 22 16 11 0 12 -37 2 -43 -5 -2 -2 -2 6 0 9 2 12 -3 8 -16 -7 -28 13 -32
114 -25 67 5 89 10 89 21 0 8 5 11 10 8 6 -4 8 -10 6 -14 -3 -4 13 -7 35 -6
34 0 38 2 33 20 -4 11 -15 29 -25 41 -11 11 -19 26 -19 33 0 8 -6 11 -16 7 -9
-3 -21 -3 -27 1 -7 4 -28 8 -46 8 -29 0 -36 4 -41 25 l-6 25 -7 -27 c-12 -44
-35 -35 -39 15 l-2 25 -33 -29 c-19 -16 -36 -29 -39 -29 -15 0 12 118 34 142
10 12 12 22 5 30 -5 7 -10 29 -12 48 -2 44 -15 58 -40 43 -21 -13 -31 -8 -31
19 0 21 -29 58 -46 58 -7 0 -15 -13 -19 -28 -5 -24 -11 -29 -36 -29 -26 0 -30
4 -28 26 4 48 -1 61 -20 61 -10 0 -24 7 -31 15 -7 8 -27 15 -44 15 l-31 1 25
20 c14 11 35 27 47 37 24 18 31 52 11 52 -30 0 -58 -13 -58 -26 0 -8 -4 -14
-10 -14 -5 0 -10 11 -10 23 0 36 -12 40 -35 13 -11 -13 -30 -26 -40 -28 -29
-5 -32 35 -5 60 23 21 20 42 -6 42 -11 0 -13 6 -9 20 7 23 0 27 -9 5z"/>
<path d="M9274 5036 c-3 -9 -23 -24 -43 -33 -26 -13 -31 -19 -18 -21 9 -2 17
-12 17 -23 0 -24 -9 -24 -25 -2 -12 16 -12 14 -8 -10 8 -40 -5 -33 -27 16 -11
23 -20 36 -20 30 0 -21 -21 -15 -27 7 -3 11 -12 20 -20 20 -11 0 -14 -9 -11
-35 3 -27 1 -34 -11 -32 -19 3 -64 -80 -56 -102 5 -12 8 -13 14 -2 6 10 10 10
16 1 5 -8 11 -6 20 7 12 15 12 20 -1 29 -13 10 -12 13 3 19 26 11 103 14 97 3
-3 -4 -1 -8 4 -8 5 0 9 -8 9 -17 -1 -10 1 -36 2 -58 2 -32 4 -36 11 -20 7 19
8 19 15 2 7 -16 9 -16 27 5 11 12 15 24 10 26 -14 4 -1 52 14 52 8 0 14 -7 14
-15 0 -8 5 -15 11 -15 6 0 17 -6 25 -14 12 -13 12 -16 -3 -25 -17 -10 -17 -10
0 -11 19 0 23 -15 7 -25 -16 -10 -1 -25 25 -25 28 0 41 16 27 33 -5 7 -12 25
-16 40 -4 16 -11 25 -17 21 -6 -3 -10 2 -9 12 5 49 1 56 -30 49 -37 -8 -38 -1
-4 30 26 24 27 58 2 51 -7 -1 -10 -1 -5 1 10 7 9 41 -3 48 -6 3 -13 -1 -16 -9z"/>
<path d="M9903 4473 l-42 -4 -6 -57 c-4 -31 -8 -62 -10 -68 -6 -19 -68 -23
-475 -34 -217 -5 -467 -12 -555 -15 -88 -3 -462 -8 -832 -11 -648 -6 -671 -6
-682 12 -6 11 -18 28 -26 39 -14 17 -17 18 -25 5 -14 -21 -12 -57 3 -63 6 -3
1 -5 -13 -5 -14 0 -194 0 -400 -1 -206 0 -393 1 -415 3 -22 2 -114 9 -205 15
-91 6 -190 13 -220 15 -30 3 -114 23 -186 45 -87 27 -150 41 -186 41 l-55 0
-2 -42 c-2 -24 -3 -55 -3 -70 -1 -26 -2 -26 -97 -32 -200 -13 -1423 -11 -1436
2 -8 8 -9 8 -255 17 -145 5 -216 13 -332 36 -192 38 -205 38 -223 -3 -30 -74
-27 -80 50 -99 64 -15 112 -16 545 -9 261 5 558 12 660 15 102 3 427 8 723 11
296 3 721 9 945 14 224 5 659 14 967 20 692 13 1397 28 1910 40 662 16 856 15
893 -4 17 -9 42 -16 55 -16 40 0 87 12 82 21 -3 4 4 13 15 19 22 12 27 57 11
88 -5 9 -12 25 -15 35 -10 32 -22 17 -18 -24 3 -29 1 -40 -7 -35 -6 4 -11 27
-11 50 0 46 -15 58 -65 54 -11 -1 -39 -3 -62 -5z"/>
<path d="M10178 4347 c-3 -17 0 -28 9 -31 8 -3 130 -2 271 4 141 5 381 13 532
17 l275 8 -360 6 c-198 3 -441 10 -541 14 l-181 8 -5 -26z"/>
<path d="M11932 4115 c-7 -9 -8 -15 -2 -15 6 0 10 -54 10 -155 0 -145 1 -155
19 -155 23 0 42 53 41 118 0 12 5 22 11 22 8 0 7 5 -2 16 -10 13 -10 17 0 24
9 5 10 9 2 14 -17 11 -4 25 18 19 22 -6 38 14 23 29 -8 8 -18 6 -35 -5 -25
-16 -25 -16 -22 18 2 22 -1 35 -11 39 -8 3 -14 15 -14 26 0 23 -19 26 -38 5z"/>
</g>
</svg>
