<?xml version="1.0" standalone="no"?>
<!DOCTYPE svg PUBLIC "-//W3C//DTD SVG 20010904//EN"
 "http://www.w3.org/TR/2001/REC-SVG-20010904/DTD/svg10.dtd">
<svg version="1.0" xmlns="http://www.w3.org/2000/svg"
 width="1600.000000pt" height="739.000000pt" viewBox="0 0 1600.000000 739.000000"
 preserveAspectRatio="xMidYMid meet">
<metadata>
Created by potrace 1.16, written by Peter Selinger 2001-2019
</metadata>
<g transform="translate(0.000000,739.000000) scale(0.100000,-0.100000)"
fill="#000000" stroke="none">
<path d="M15676 7215 c-3 -8 -16 -15 -28 -15 -27 0 -118 -79 -118 -102 0 -9
-10 -18 -22 -22 -35 -9 -38 -8 -38 13 0 11 -4 23 -10 26 -5 3 -10 -2 -10 -11
0 -14 -3 -15 -12 -6 -7 7 -21 12 -31 12 -16 0 -17 -3 -7 -15 7 -8 19 -15 26
-15 8 0 14 -4 14 -10 0 -5 -20 -10 -43 -10 -51 0 -99 32 -79 52 8 8 6 16 -10
30 -26 22 -29 22 -22 3 4 -9 0 -15 -9 -15 -20 0 -31 17 -15 22 6 2 8 10 4 16
-9 15 -46 16 -46 2 0 -5 -15 -10 -32 -11 -18 0 -27 -3 -20 -6 14 -6 16 -33 2
-33 -22 0 -8 -19 19 -25 33 -7 51 -35 23 -35 -10 0 -23 5 -29 11 -7 7 -21 6
-46 -4 -30 -13 -41 -13 -74 -2 l-38 13 -9 -31 c-12 -40 -18 -44 -88 -58 -59
-12 -66 -17 -47 -36 11 -11 -17 -34 -58 -47 -12 -4 -20 -13 -17 -20 3 -7 -4
-21 -16 -31 -11 -10 -20 -24 -20 -32 0 -9 -17 -13 -65 -13 -36 0 -65 -4 -65
-9 0 -5 -9 -7 -20 -4 -14 4 -22 -1 -29 -20 -5 -14 -15 -28 -20 -32 -6 -3 -11
-17 -11 -30 0 -18 -4 -22 -21 -18 -11 3 -35 -3 -54 -13 -33 -17 -35 -17 -54 1
-12 10 -21 24 -21 32 0 7 -9 13 -20 13 -12 0 -34 7 -50 15 -27 14 -33 14 -67
-5 -22 -12 -30 -20 -20 -20 11 0 17 -6 15 -17 -2 -13 3 -17 16 -15 16 3 18 -1
13 -26 -3 -16 -1 -34 6 -41 8 -8 7 -11 -7 -11 -10 0 -14 5 -10 11 4 8 0 9 -15
4 -15 -5 -21 -2 -21 9 0 20 -11 20 -56 1 -29 -12 -34 -18 -29 -38 5 -19 -1
-28 -32 -50 -21 -14 -57 -29 -81 -33 -36 -6 -43 -10 -39 -25 4 -14 0 -19 -13
-19 -11 0 -22 5 -25 10 -3 6 -22 10 -41 10 -32 0 -35 -2 -29 -22 6 -16 4 -20
-7 -16 -9 4 -23 -8 -38 -29 -22 -32 -23 -36 -7 -44 9 -6 17 -14 17 -19 0 -10
-62 -42 -76 -39 -5 1 -17 -1 -27 -6 -23 -10 -55 19 -59 54 l-3 26 -28 -27
c-24 -24 -29 -26 -34 -11 -4 10 -1 19 6 21 8 3 6 9 -8 18 -17 12 -24 12 -40 2
-16 -10 -23 -10 -33 0 -20 20 -54 15 -54 -8 0 -14 7 -20 23 -20 13 0 23 -4 23
-9 0 -16 -25 -30 -55 -30 -46 0 -69 -5 -77 -16 -4 -5 -8 0 -8 11 0 26 -27 39
-46 23 -11 -9 -14 -8 -14 4 0 9 -12 16 -30 19 -22 3 -30 0 -30 -10 0 -10 -4
-12 -12 -5 -9 7 -22 6 -41 -1 -32 -14 -25 -28 9 -20 26 7 31 -5 12 -24 -6 -6
-9 -15 -5 -19 4 -4 13 -1 19 5 15 15 68 16 68 2 0 -5 -6 -10 -14 -10 -16 0
-29 -27 -17 -34 4 -3 20 -3 34 0 19 3 27 0 27 -10 0 -8 -5 -18 -10 -21 -8 -5
-7 -12 1 -22 11 -13 14 -13 26 3 11 16 13 16 19 1 3 -10 4 -24 0 -32 -3 -10 1
-15 12 -15 18 -1 52 -23 52 -34 0 -3 -6 -6 -14 -6 -17 0 -28 -38 -13 -47 10
-6 -19 -22 -52 -29 -27 -5 -45 -32 -33 -47 9 -11 3 -17 -31 -31 -23 -10 -47
-25 -54 -33 -9 -11 -16 -12 -33 -3 -18 10 -22 8 -31 -20 -9 -24 -14 -28 -25
-19 -7 6 -17 8 -23 5 -14 -9 -42 4 -34 17 3 5 -2 16 -12 23 -13 9 -16 21 -12
41 8 41 -22 78 -56 69 -19 -4 -29 -1 -36 11 -5 10 -12 17 -15 16 -20 -9 -27 1
-24 34 2 28 -1 38 -12 39 -32 2 -33 5 -11 28 15 16 19 26 11 31 -6 4 -18 -1
-26 -11 -11 -13 -14 -14 -11 -4 2 8 13 19 25 25 25 11 31 55 8 55 -23 0 -29
20 -12 39 22 24 21 27 -13 44 -21 11 -32 12 -40 4 -8 -8 -14 -8 -23 1 -19 19
-41 15 -35 -8 3 -13 -3 -24 -19 -35 -24 -16 -32 -40 -15 -47 5 -1 12 -19 16
-40 6 -30 4 -37 -12 -41 -16 -4 -16 -5 2 -6 17 -1 18 -3 5 -11 -12 -8 -11 -10
8 -10 12 0 22 -4 22 -9 0 -15 -69 -43 -90 -36 -17 5 -17 3 -7 -18 10 -22 13
-23 24 -8 11 15 12 15 13 -1 0 -9 -5 -20 -11 -23 -6 -4 -8 -14 -5 -22 4 -9 -1
-21 -11 -28 -14 -10 -21 -10 -40 2 -13 9 -26 13 -29 10 -3 -3 -21 1 -40 9 -32
13 -34 13 -34 -5 0 -11 6 -21 13 -24 6 -2 -4 -9 -23 -14 -24 -6 -36 -16 -40
-33 -4 -17 -13 -25 -30 -26 -144 -11 -167 -11 -185 2 -10 8 -13 14 -7 14 7 0
12 5 12 10 0 6 -7 10 -15 10 -8 0 -15 -4 -15 -10 0 -14 -11 -12 -33 4 -14 11
-16 19 -7 40 11 29 2 33 -31 15 -15 -7 -24 -7 -35 2 -33 27 -64 -57 -32 -89
19 -19 0 -27 -20 -9 -23 21 -41 21 -67 1 -14 -11 -16 -18 -7 -21 6 -3 12 -11
12 -19 0 -8 9 -14 20 -14 11 0 20 -7 20 -15 0 -8 4 -15 9 -15 5 0 7 -9 4 -19
-3 -13 1 -21 14 -24 16 -4 16 -6 -4 -12 -13 -4 -23 -12 -23 -17 0 -5 -20 -28
-44 -52 -30 -28 -47 -54 -51 -78 -6 -31 -14 -40 -53 -58 -25 -12 -56 -20 -69
-17 -13 2 -22 2 -19 0 2 -2 -7 -15 -21 -29 -14 -14 -22 -28 -18 -32 4 -4 14 3
24 14 23 29 61 41 61 20 0 -9 8 -16 18 -17 13 0 14 -2 2 -6 -36 -11 -60 -27
-60 -40 0 -7 7 -13 15 -13 8 0 15 4 15 9 0 5 9 11 19 14 23 6 61 -41 61 -74 0
-18 2 -19 15 -9 9 7 17 11 20 9 9 -9 -21 -80 -36 -84 -9 -3 -21 -20 -26 -38
-7 -25 -14 -31 -32 -29 -20 2 -22 -1 -17 -23 5 -21 3 -25 -15 -25 -26 0 -21
-21 9 -35 36 -16 25 -24 -35 -27 -57 -3 -58 -3 -58 -33 1 -22 8 -33 25 -41 28
-13 616 -39 643 -28 29 11 18 -14 -15 -35 -28 -17 -187 -175 -367 -364 -25
-27 -79 -73 -118 -103 -78 -59 -153 -138 -153 -160 0 -8 0 -17 0 -21 0 -5 15
-9 35 -11 24 -2 52 7 92 30 61 35 193 152 193 173 0 7 39 48 86 91 133 123
210 198 220 214 5 8 39 44 75 78 62 59 68 63 90 51 13 -7 31 -15 39 -19 8 -4
16 -16 18 -27 4 -27 31 -50 62 -55 19 -2 24 -8 22 -23 -1 -12 7 -31 19 -44 17
-18 28 -22 51 -17 24 5 29 3 26 -11 -2 -9 -10 -20 -18 -24 -22 -12 -459 -223
-565 -272 -49 -23 -137 -65 -195 -94 l-105 -51 75 -3 c41 -1 118 -3 170 -4 52
-2 172 -6 265 -9 94 -3 323 -11 510 -17 186 -6 343 -12 347 -15 4 -2 -6 -30
-21 -62 -16 -31 -34 -75 -41 -97 -7 -22 -23 -64 -37 -93 -18 -41 -24 -68 -22
-115 2 -67 -9 -166 -21 -182 -15 -21 -32 -106 -27 -132 3 -16 -2 -41 -11 -58
-8 -16 -17 -57 -19 -90 -5 -112 -16 -190 -28 -201 -6 -7 -19 -37 -29 -67 -16
-51 -16 -58 -1 -93 9 -21 12 -40 7 -42 -5 -1 -7 -15 -5 -30 2 -15 -2 -37 -9
-48 -7 -12 -26 -43 -42 -69 -23 -37 -29 -60 -31 -109 -1 -52 1 -63 14 -62 22
1 19 -84 -4 -96 -24 -14 -64 -60 -78 -91 -9 -21 -19 -27 -44 -27 -23 0 -33 -5
-33 -15 0 -8 4 -15 10 -15 5 0 7 -7 4 -15 -5 -11 -10 -13 -19 -5 -6 5 -16 6
-20 2 -5 -4 -6 0 -3 9 5 12 1 15 -17 12 -22 -5 -22 -6 -7 -36 41 -82 38 -79
55 -62 17 16 57 21 57 6 0 -5 8 -12 18 -14 16 -4 16 -5 0 -6 -22 -1 -23 -17
-2 -25 8 -3 12 -10 9 -16 -4 -6 -10 -8 -15 -5 -4 3 -7 -8 -6 -25 1 -16 -3 -31
-10 -34 -13 -5 -77 -106 -68 -106 4 0 2 -6 -3 -12 -5 -7 -8 -34 -5 -59 3 -38
9 -49 28 -58 14 -6 31 -11 39 -11 19 0 -3 -70 -25 -78 -26 -9 -90 -80 -106
-117 -17 -42 -18 -127 -2 -143 7 -7 22 -12 34 -12 29 0 33 -8 22 -47 -5 -19
-24 -44 -46 -60 -51 -38 -70 -61 -92 -110 -36 -81 -26 -153 23 -153 17 0 19
-4 13 -42 -4 -24 -11 -47 -16 -52 -8 -8 -147 -4 -850 25 -135 5 -308 12 -385
15 -77 3 -248 9 -380 15 -313 13 -752 27 -1095 35 -211 5 -278 9 -289 20 -12
11 -15 86 -17 441 -2 235 -8 552 -14 703 -19 536 -26 838 -34 1556 -1 138 -5
255 -8 260 -3 5 -6 29 -6 53 -1 24 -5 48 -10 53 -14 14 -54 0 -45 -15 4 -7 9
-19 10 -27 5 -26 22 -535 27 -850 4 -168 11 -422 16 -565 6 -143 11 -296 11
-340 0 -44 4 -177 9 -295 5 -118 12 -388 15 -599 l5 -384 -188 6 c-194 7 -980
29 -1637 47 -209 5 -544 12 -745 15 -201 3 -538 10 -750 15 -451 11 -856 14
-869 5 -6 -3 -45 -67 -87 -143 -43 -75 -93 -162 -112 -192 -19 -30 -62 -104
-94 -164 -33 -61 -72 -126 -87 -145 -16 -20 -38 -54 -50 -76 -40 -73 -62 -110
-75 -120 -7 -5 -16 -23 -19 -40 -4 -16 -9 -40 -13 -53 -6 -22 -5 -22 87 -21
52 0 150 4 217 8 139 8 192 4 192 -13 0 -6 11 -33 24 -61 16 -32 21 -51 14
-54 -6 -2 -16 3 -22 11 -6 8 -22 14 -36 13 -19 -1 -26 -8 -28 -28 -2 -15 -6
-27 -10 -27 -4 0 -7 -17 -6 -37 l1 -38 67 -2 c65 -1 68 0 62 20 -3 12 -6 28
-6 35 0 6 -4 12 -10 12 -5 0 -10 -12 -10 -26 0 -14 -5 -24 -11 -22 -6 2 -10 7
-10 11 1 4 1 18 1 31 0 18 5 23 23 22 27 -1 38 -15 31 -38 -4 -12 -1 -16 8
-13 18 7 40 -47 32 -79 -4 -16 -19 -33 -38 -43 -69 -35 -95 -69 -50 -64 6 1
10 -9 9 -21 -1 -19 -8 -23 -41 -26 -62 -4 -84 -11 -84 -27 0 -13 45 -15 345
-15 339 1 345 1 345 21 0 12 4 17 11 14 6 -4 8 -13 5 -21 -5 -12 29 -14 209
-14 118 0 215 2 215 5 0 10 -78 55 -123 70 -52 18 -67 14 -67 -16 0 -11 -4
-18 -10 -14 -6 4 -5 16 1 33 6 15 11 86 11 157 -1 72 3 137 7 144 7 11 13 -6
62 -170 6 -20 8 -45 5 -56 -5 -14 4 -30 30 -57 32 -33 54 -39 54 -15 0 6 -4 7
-10 4 -10 -6 -14 13 -11 47 1 10 -2 18 -8 18 -5 0 -17 26 -25 58 -9 31 -25 85
-36 118 -11 34 -20 71 -20 83 0 12 -9 29 -20 38 -11 10 -20 23 -20 30 0 20 30
15 30 -4 1 -16 2 -16 13 -3 9 12 32 16 90 16 l77 1 0 -189 c0 -160 -2 -188
-15 -188 -18 0 -20 -21 -4 -37 8 -8 5 -13 -10 -18 -27 -8 -27 -29 0 -22 15 4
23 0 26 -14 4 -14 14 -19 39 -19 29 0 34 3 34 24 0 14 5 28 11 32 8 4 9 -3 4
-25 -6 -28 -4 -31 19 -31 21 0 26 5 26 25 0 14 5 25 10 25 6 0 10 11 10 24 0
14 4 27 9 30 13 8 20 -16 11 -34 -12 -22 0 -70 16 -70 19 0 17 20 -3 35 -14
11 -15 16 -4 28 7 9 26 19 42 22 39 9 39 34 -1 29 -33 -4 -40 9 -12 25 12 7
13 10 3 11 -10 0 -12 9 -8 35 6 39 1 44 -19 18 -10 -15 -11 -11 -1 24 12 47 8
58 -21 49 -14 -5 -22 -19 -26 -49 -4 -23 -12 -59 -18 -80 -10 -33 -15 -38 -37
-35 -20 2 -29 12 -38 38 -14 40 -18 300 -4 300 16 0 101 -90 107 -115 3 -14
12 -25 20 -25 7 0 20 -11 29 -23 8 -13 26 -29 40 -35 17 -8 25 -20 25 -37 0
-15 -4 -24 -9 -21 -8 5 -5 -53 3 -61 2 -2 29 -7 60 -10 45 -5 56 -9 56 -24 0
-15 -4 -17 -22 -10 -22 8 -95 -8 -97 -21 -3 -22 0 -45 9 -58 9 -13 11 -13 20
0 9 13 11 13 19 1 8 -12 14 -13 35 -3 14 6 26 8 26 3 0 -11 178 -13 218 -2 19
6 32 6 32 0 0 -5 9 -9 21 -9 17 0 20 4 15 24 -8 32 2 37 39 21 l30 -13 -27 -1
c-18 -1 -28 -6 -28 -16 0 -11 11 -15 40 -15 37 0 40 2 41 28 1 20 2 22 6 7 6
-24 23 -44 23 -27 0 7 7 12 15 12 8 0 15 -4 15 -10 0 -11 91 -14 127 -4 19 5
20 9 10 28 -7 11 -15 23 -18 26 -11 9 -21 112 -9 105 5 -3 10 -13 10 -21 0
-16 21 -19 36 -4 7 7 9 -9 6 -50 -3 -38 -1 -60 6 -60 6 0 10 12 10 28 -2 76 2
89 28 100 20 10 24 17 19 35 -4 14 -3 18 3 9 10 -14 42 -6 42 12 0 7 3 6 9 -2
5 -9 10 -1 14 25 4 22 2 39 -3 41 -6 2 -16 9 -23 15 -7 7 -19 13 -27 15 -21 5
-35 20 -26 29 4 4 11 2 15 -6 6 -10 10 -9 15 4 3 9 10 14 16 10 5 -3 2 7 -7
24 -10 16 -21 27 -25 25 -3 -2 -10 5 -13 17 -4 12 -12 18 -21 15 -18 -7 -27 9
-19 34 4 12 15 20 29 20 12 0 26 4 32 9 5 5 40 11 77 14 l69 5 -5 -109 c-3
-86 -9 -115 -25 -143 -21 -36 -20 -66 2 -66 6 0 36 41 66 91 55 91 75 109 75
67 0 -14 -5 -22 -14 -20 -13 3 -12 -11 4 -51 5 -12 -4 -28 -34 -58 -23 -23
-41 -47 -41 -55 0 -7 -4 -16 -10 -19 -6 -4 -10 5 -10 19 0 14 5 26 10 26 6 0
10 8 10 18 0 14 -4 12 -21 -8 -14 -17 -18 -35 -15 -57 3 -21 -1 -36 -12 -45
-14 -11 -15 -10 -9 7 5 14 0 11 -18 -10 -31 -36 -55 -77 -34 -57 23 21 32 13
15 -13 l-16 -25 57 2 c43 1 48 2 20 5 -37 4 -43 23 -6 23 14 0 19 7 19 29 0
17 5 33 10 36 6 3 10 -2 10 -13 0 -38 31 -52 113 -52 62 0 77 -3 77 -15 0 -8
7 -15 16 -15 14 0 15 24 8 228 -4 125 -8 241 -8 257 l-1 30 83 3 c65 2 83 0
80 -10 -3 -7 -14 -14 -25 -16 -21 -3 -33 -36 -33 -88 0 -48 38 -16 73 61 9 18
10 17 17 -10 5 -16 11 -87 15 -157 5 -90 11 -131 21 -139 19 -16 18 -59 -1
-59 -10 0 -14 -7 -11 -22 3 -13 5 -35 5 -50 1 -23 6 -28 25 -28 13 0 27 6 29
13 4 10 6 10 6 0 1 -7 9 -13 20 -13 17 0 14 19 -41 237 -32 130 -58 246 -56
257 2 12 12 22 24 24 18 3 20 -1 16 -28 -2 -16 -1 -56 4 -88 l7 -57 9 40 c4
22 8 61 8 88 l0 47 146 0 146 0 -4 -162 c-2 -116 -7 -163 -16 -166 -6 -2 -12
-10 -12 -18 0 -21 -43 -17 -74 7 -14 11 -26 27 -26 35 0 8 -10 14 -25 14 -26
0 -35 -24 -12 -33 6 -3 3 -6 -9 -6 -27 -1 -36 9 -23 25 12 15 3 37 -12 29 -5
-4 -12 1 -15 9 -3 9 -15 16 -25 16 -14 0 -19 -7 -19 -29 0 -17 5 -33 10 -36 6
-4 8 -10 6 -14 -5 -7 8 -67 21 -101 4 -11 8 -8 13 10 8 24 8 23 9 -7 1 -17 -5
-33 -11 -36 -9 -3 -6 -12 10 -28 12 -13 22 -18 22 -12 0 6 6 13 14 16 10 4 12
0 9 -14 -5 -19 0 -20 161 -19 163 2 166 2 166 23 0 44 -27 109 -49 121 -20 11
-21 14 -7 25 9 8 16 21 16 31 0 20 -37 34 -43 16 -10 -26 -18 6 -12 46 l7 44
59 2 c66 3 89 -10 89 -51 0 -31 -10 -40 -29 -25 -13 10 -14 10 -4 -2 10 -10 9
-20 -5 -44 -9 -17 -20 -33 -24 -34 -10 -4 -10 -34 -2 -57 5 -13 9 -14 15 -4 6
10 12 4 23 -21 l14 -35 11 27 c13 34 31 36 31 4 0 -24 26 -54 37 -42 3 3 1 6
-5 6 -7 0 -12 15 -11 38 1 27 3 31 7 16 9 -26 57 -84 71 -84 6 0 8 6 5 14 -3
9 1 13 13 13 12 -1 19 6 21 20 2 13 8 23 14 23 6 0 8 -10 4 -25 -4 -14 -2 -25
3 -25 5 0 11 9 14 19 6 26 -3 72 -14 65 -5 -3 -9 0 -9 5 0 6 5 11 10 11 6 0
10 17 10 38 0 36 1 37 13 12 7 -14 9 -26 5 -28 -12 -6 -9 -30 5 -35 8 -4 9 -8
1 -14 -6 -4 -7 -19 -4 -33 l7 -25 11 25 c7 17 11 20 11 8 1 -10 -9 -26 -21
-38 -12 -11 -18 -23 -15 -27 4 -3 7 -1 7 6 0 9 5 9 21 0 20 -10 21 -9 16 10
-3 11 -1 21 4 21 5 0 12 0 16 0 4 0 8 -8 8 -17 0 -10 7 -19 15 -21 20 -3 46
76 31 91 -6 6 -10 22 -10 37 2 23 2 23 6 3 8 -43 26 -25 43 42 4 17 11 38 15
48 5 13 2 17 -15 17 -26 0 -17 18 15 30 18 7 28 26 46 85 15 51 25 73 32 66 7
-7 7 -23 -1 -49 -15 -48 -16 -102 -2 -102 6 0 10 -7 10 -15 0 -8 -4 -15 -10
-15 -5 0 -11 -8 -11 -17 -1 -10 -5 -2 -8 17 l-7 35 -18 -55 c-9 -30 -21 -64
-26 -75 -22 -50 -21 -63 5 -89 14 -14 25 -32 25 -41 0 -10 9 -15 26 -15 23 0
25 3 19 22 -10 31 -22 167 -14 162 4 -2 9 -29 11 -61 3 -31 10 -59 16 -61 7
-2 12 -17 12 -33 0 -28 2 -30 40 -27 34 2 41 6 51 32 10 28 12 29 18 11 8 -19
8 -19 20 2 9 19 8 26 -7 41 -18 18 -19 18 -31 -10 -7 -16 -15 -27 -18 -25 -6
6 34 84 47 92 5 3 7 0 5 -7 -3 -8 1 -22 9 -33 15 -19 15 -19 16 -1 0 15 3 16
15 6 9 -8 13 -21 9 -35 -4 -16 0 -26 13 -34 10 -6 12 -11 6 -11 -18 0 -16 -20
2 -20 8 0 15 6 15 13 0 6 5 4 11 -5 11 -20 59 -25 59 -6 0 9 3 9 12 0 20 -20
66 -15 73 8 3 11 10 20 15 20 4 0 6 9 3 20 -6 22 -22 27 -24 8 -1 -7 -5 5 -10
26 -7 28 -6 43 2 50 9 8 10 8 5 -2 -13 -22 4 -52 30 -52 13 0 24 1 24 3 0 1
-4 17 -9 35 -6 20 -6 32 0 32 13 0 19 -101 7 -137 -7 -21 -4 -23 24 -23 l31 0
-7 93 c-17 253 -19 327 -7 327 10 0 14 -24 15 -101 0 -23 4 -25 33 -24 18 1
40 8 48 15 21 17 19 4 -3 -18 -10 -10 -23 -17 -29 -15 -6 2 -14 -1 -18 -7 -10
-17 -13 -90 -3 -96 4 -3 5 -16 2 -30 -4 -14 -2 -24 5 -24 15 0 62 52 74 80 4
12 6 11 6 -2 1 -28 49 -24 54 4 3 15 5 10 6 -14 0 -20 7 -39 14 -41 6 -3 2 -6
-11 -6 -12 -1 -21 4 -20 11 4 15 -43 19 -59 6 -8 -6 -11 -21 -7 -37 3 -14 6
-34 7 -44 1 -17 11 -17 132 -11 71 4 133 8 138 11 4 2 7 0 7 -6 0 -5 -8 -12
-17 -14 -11 -3 -7 -5 10 -6 15 0 38 6 51 14 22 15 89 23 334 44 50 4 95 10 98
13 3 3 -24 3 -60 1 -46 -4 -66 -2 -66 6 0 6 8 11 18 11 14 1 13 4 -7 20 -24
21 -71 27 -71 10 0 -5 9 -10 19 -10 33 0 33 -17 0 -31 -27 -11 -33 -10 -40 4
-9 14 -14 14 -60 1 -50 -15 -79 -13 -79 4 0 5 15 14 33 20 25 8 -11 11 -163
13 -107 1 -176 4 -152 6 34 3 42 8 42 24 0 18 9 19 198 20 108 1 238 1 287 0
50 -1 111 2 138 7 52 10 59 7 50 -27 -5 -19 -12 -22 -47 -20 -71 3 -107 -1
-101 -11 3 -5 39 -10 80 -10 57 0 74 -3 79 -16 8 -22 7 -74 -1 -74 -5 0 -98
-7 -208 -15 -110 -8 -276 -20 -370 -25 -93 -5 -198 -13 -231 -16 l-61 -6 -1
28 c0 16 5 32 11 35 6 5 4 15 -5 28 -14 19 -17 20 -28 6 -11 -13 -15 -13 -22
-3 -6 8 -7 -5 -3 -34 4 -31 2 -48 -4 -48 -6 0 -11 -4 -11 -10 0 -7 184 -10
531 -10 365 0 528 3 524 10 -4 6 -15 8 -26 5 -11 -4 -19 -2 -19 4 0 6 10 11
23 11 13 0 32 7 43 15 10 8 37 15 59 15 77 1 70 17 -10 25 -43 4 -80 3 -84 -2
-3 -5 -15 -9 -26 -8 -17 0 -20 7 -20 45 l0 45 200 1 c110 0 278 4 373 8 171 8
173 8 179 -13 6 -23 23 -27 40 -10 8 8 13 8 17 0 9 -14 83 -14 91 -1 4 7 12 7
25 0 26 -14 88 -12 93 3 3 9 9 9 29 -2 16 -8 37 -11 55 -7 26 6 29 11 25 33
-4 24 -7 25 -46 18 -22 -4 -50 -7 -61 -6 -11 1 -36 1 -55 0 -19 -1 -44 -1 -55
-1 -98 4 -559 1 -711 -4 l-191 -7 -5 32 c-3 18 -2 34 2 36 4 2 57 5 118 7 78
2 115 -1 124 -10 6 -6 36 -12 65 -12 39 0 51 -3 47 -13 -4 -11 10 -12 73 -5
43 4 128 12 188 18 154 16 185 21 185 30 0 13 -28 19 -92 21 -32 1 -58 6 -58
9 0 4 -11 6 -25 5 -37 -5 -20 13 21 21 19 3 42 13 50 22 14 13 26 10 112 -34
80 -39 107 -48 154 -49 50 -1 59 2 64 19 7 20 7 20 15 -3 l9 -23 237 2 c131 1
245 1 254 1 26 -2 30 -26 12 -70 -9 -23 -14 -43 -11 -46 11 -11 654 -6 686 6
18 6 36 9 39 5 4 -3 -1 -6 -10 -6 -9 0 -19 -5 -22 -10 -5 -8 60 -10 205 -9
172 2 214 -1 221 -12 13 -20 11 -29 -6 -29 -8 0 -15 -3 -15 -7 0 -5 -24 -9
-53 -10 -57 -2 -124 -21 -79 -22 12 -1 22 -4 22 -8 0 -5 31 -7 70 -5 58 2 70
0 70 -13 0 -11 11 -15 40 -15 29 0 40 4 40 15 0 8 9 15 20 15 11 0 20 -7 20
-15 0 -8 9 -15 19 -15 10 0 21 7 25 15 7 18 20 19 38 3 15 -15 69 -24 67 -11
-3 19 4 20 59 7 87 -21 216 -18 261 5 20 10 62 31 93 46 54 26 58 27 74 10 17
-17 17 -18 -1 -31 -10 -8 -15 -14 -9 -14 5 -1 -2 -7 -16 -15 -22 -13 49 -14
572 -15 556 0 598 1 607 17 9 17 10 17 28 0 16 -14 39 -17 130 -17 l111 0 -44
67 c-24 37 -44 79 -44 93 0 18 -7 30 -23 37 -30 14 -65 79 -51 93 6 6 17 8 25
5 17 -7 49 -60 49 -83 0 -9 14 -26 30 -37 16 -11 30 -24 30 -29 0 -5 14 -31
30 -58 17 -26 30 -57 30 -68 0 -16 7 -20 31 -20 l30 0 -19 28 c-33 48 -82 141
-82 156 0 8 -12 16 -27 18 -14 2 -29 9 -31 17 -3 10 0 12 12 8 23 -9 20 11 -8
57 -14 24 -26 34 -30 27 -4 -6 -11 -11 -17 -11 -14 0 -11 27 4 34 8 3 6 9 -7
20 -19 15 -21 14 -30 -9 -10 -24 -12 -25 -33 -10 -26 18 -89 119 -98 157 -4
16 -13 28 -19 28 -17 0 -56 55 -56 80 0 35 29 22 52 -24 12 -25 28 -47 37 -50
9 -3 26 -13 39 -22 21 -16 22 -15 22 4 0 28 -56 137 -83 162 -21 20 -21 20
-31 -5 l-11 -25 -28 25 c-31 30 -87 135 -87 165 0 27 25 26 45 -2 13 -19 17
-21 25 -8 5 8 8 17 6 20 -39 85 -81 157 -92 157 -8 0 -14 -6 -14 -13 0 -70
-104 60 -125 155 -5 22 -10 29 -15 21 -12 -19 -37 -5 -55 30 -19 36 -13 50 20
50 13 0 27 5 31 11 9 15 53 -40 54 -68 0 -32 10 -53 26 -53 19 0 18 4 -24 90
-22 44 -44 76 -54 78 -11 2 -18 -3 -18 -12 0 -58 -76 44 -110 147 -9 30 -15
36 -25 27 -10 -8 -18 -4 -35 20 -24 33 -20 66 6 56 9 -4 23 -1 31 5 18 16 45
-17 39 -48 -2 -13 0 -23 5 -23 4 0 11 -9 14 -20 3 -11 15 -20 25 -20 22 0 19
18 -10 60 -10 14 -21 36 -25 50 -13 45 -55 79 -55 45 0 -57 -76 44 -106 140
-6 22 -17 39 -24 37 -17 -4 -40 17 -40 38 0 9 11 22 25 28 24 11 27 9 56 -42
27 -49 59 -88 59 -72 0 3 -18 44 -40 91 -38 80 -60 105 -60 70 0 -13 -4 -14
-20 -5 -30 16 -72 84 -85 138 -10 38 -17 48 -36 51 -35 5 -43 25 -13 33 35 9
50 2 64 -32 13 -31 40 -60 40 -42 0 10 -57 143 -65 151 -3 2 -11 -1 -18 -7
-24 -20 -75 52 -101 142 -11 39 -33 53 -48 32 -9 -14 -40 13 -36 32 2 10 15
16 35 17 28 1 37 -5 59 -38 37 -56 42 -37 9 33 -23 47 -33 59 -46 55 -24 -8
-71 57 -89 120 -14 50 -26 63 -43 46 -6 -6 -17 -11 -24 -11 -15 0 -45 56 -41
76 3 12 7 12 30 0 15 -8 29 -12 32 -9 3 3 19 -9 37 -26 17 -18 33 -30 35 -28
3 2 -4 25 -15 51 -14 31 -29 50 -47 56 -19 8 -35 30 -62 90 -33 73 -62 103
-62 64 0 -26 -32 -12 -53 24 -10 18 -16 39 -13 48 5 13 9 13 33 1 16 -8 34
-12 41 -10 6 3 12 -2 12 -11 0 -8 9 -20 20 -26 42 -22 15 37 -42 92 -17 16
-30 22 -36 16 -6 -6 -16 -1 -26 13 -19 27 -21 56 -4 61 8 3 8 12 1 34 -10 31
-43 46 -43 20 0 -24 -16 -19 -39 10 -21 26 -29 74 -13 74 5 0 17 -6 27 -14 11
-8 25 -12 32 -9 7 3 13 -2 13 -10 0 -16 18 -33 26 -24 8 8 -16 60 -40 83 -20
20 -46 80 -84 189 -15 44 -77 182 -89 197 -5 7 -16 36 -23 63 -23 93 -53 170
-71 186 -9 9 -22 36 -29 60 -26 103 -55 181 -68 186 -19 8 -34 49 -38 102 -2
24 -14 66 -27 93 -13 26 -22 48 -20 48 1 0 20 -15 40 -33 l38 -34 529 -12
c290 -7 530 -11 532 -9 2 2 -6 53 -17 113 -11 61 -31 171 -44 245 -13 74 -31
171 -39 215 -113 610 -148 815 -142 832 4 9 24 13 61 13 65 0 68 -5 84 -122
11 -78 58 -335 66 -355 3 -10 40 -13 137 -13 73 0 205 -5 293 -10 88 -5 270
-14 405 -20 135 -5 291 -12 347 -16 l103 -6 0 1026 0 1027 -21 -6 c-14 -5 -25
-1 -35 12 -14 17 -15 17 -30 -4 -13 -19 -19 -20 -40 -11 -13 6 -24 17 -24 25
0 7 -4 13 -10 13 -5 0 -10 -6 -10 -13 0 -18 -112 -17 -118 1 -5 17 -29 15 -36
-3z m-2939 -2154 c16 -28 19 -29 122 -35 58 -3 191 -9 294 -12 103 -4 190 -10
192 -14 2 -4 -75 -45 -171 -91 -171 -81 -175 -84 -155 -100 12 -10 21 -29 21
-43 0 -14 5 -26 10 -26 6 0 10 -9 10 -20 0 -30 -13 -25 -48 19 -36 44 -39 53
-17 45 22 -9 18 14 -4 26 -27 14 -41 13 -41 -5 0 -8 -3 -15 -6 -15 -14 0 -84
82 -78 91 4 8 10 7 17 0 18 -18 28 -12 17 9 -11 20 -50 28 -50 10 0 -21 -27
-8 -65 30 -34 35 -36 40 -20 46 12 5 22 1 31 -11 11 -14 14 -15 14 -4 0 33
-63 56 -72 27 -3 -9 -15 -4 -36 14 -17 14 -28 29 -24 32 3 4 0 11 -8 16 -12 7
-12 12 -3 21 9 9 16 9 29 -2 16 -12 17 -12 11 4 -10 28 13 19 30 -12z m864
-923 c10 -21 19 -54 19 -75 0 -22 11 -58 24 -83 45 -83 59 -115 73 -175 8 -33
20 -70 28 -82 8 -12 15 -27 15 -33 0 -6 11 -35 24 -63 13 -29 29 -68 36 -87
45 -128 60 -163 82 -192 24 -33 46 -90 69 -180 7 -28 23 -58 40 -75 39 -37 60
-87 52 -123 -7 -39 37 -134 83 -176 l34 -31 -5 -79 c-2 -44 -1 -71 3 -62 6 15
10 12 21 -15 18 -42 40 -67 69 -78 28 -11 46 -53 32 -79 -16 -29 -12 -51 16
-105 29 -54 62 -90 92 -99 11 -4 24 -18 30 -32 10 -20 9 -26 -3 -30 -21 -8
-19 -60 4 -110 25 -55 50 -83 87 -98 34 -15 68 -76 46 -84 -47 -15 34 -187 98
-207 25 -8 43 -56 35 -97 -9 -47 44 -162 85 -183 40 -20 74 -79 65 -112 -3
-15 1 -45 11 -74 10 -27 15 -51 12 -54 -3 -4 -145 -1 -314 5 -170 6 -462 15
-649 20 -187 5 -478 15 -648 22 -304 12 -307 12 -322 35 -9 13 -24 23 -34 23
-28 0 -30 8 -12 54 9 25 38 64 67 92 41 39 56 62 74 117 20 63 21 69 6 92 -11
16 -26 25 -42 25 -25 0 -26 2 -20 38 4 20 15 44 26 52 10 8 34 28 54 43 52 40
89 127 82 190 -4 38 -2 47 11 47 11 0 14 -6 9 -25 -6 -24 3 -33 18 -17 4 4 13
7 19 7 7 0 13 10 15 23 2 12 8 22 13 22 14 0 11 27 -6 43 -8 8 -12 17 -9 19 2
3 -2 11 -10 17 -12 10 -14 9 -9 -8 3 -12 1 -21 -6 -21 -6 0 -11 6 -11 14 0 8
-7 16 -15 20 -20 7 -19 18 3 42 31 36 51 79 58 131 7 59 -5 88 -38 88 -13 1
-22 6 -20 13 1 7 3 20 5 30 1 9 7 24 12 32 7 12 10 10 16 -10 6 -23 7 -23 8 7
1 33 29 59 54 50 7 -2 2 -9 -11 -16 -17 -9 -22 -20 -22 -49 0 -20 5 -44 11
-52 8 -11 9 -7 5 17 -7 39 1 63 20 63 9 0 14 11 14 30 0 22 -4 28 -15 24 -13
-5 -13 -1 2 27 10 19 20 36 23 39 5 5 6 11 9 63 1 24 4 29 11 17 5 -8 10 -10
10 -4 0 14 -46 64 -58 64 -6 0 -6 16 0 41 8 28 13 37 19 27 7 -11 9 -10 9 1 0
8 14 36 30 62 38 59 54 142 35 182 -17 35 -6 113 22 153 34 49 58 152 40 180
-3 6 0 33 7 61 8 31 10 55 5 60 -6 6 -3 22 6 40 18 36 38 153 40 243 1 36 5
81 9 100 3 19 7 46 9 60 2 14 9 36 16 48 18 33 26 125 13 149 -8 14 -8 30 0
57 l11 36 25 -22 c13 -13 33 -40 43 -60z m-4855 -3635 c14 -19 19 -75 7 -87
-4 -4 -6 -25 -4 -46 2 -37 1 -39 -26 -39 -15 0 -56 -2 -90 -5 l-63 -7 0 54 c0
30 -3 75 -6 101 l-7 46 88 0 c72 0 90 -3 101 -17z m-1707 -110 c-1 -59 -4 -99
-6 -89 -7 28 -35 54 -41 38 -2 -6 -8 -12 -14 -12 -6 0 -8 7 -4 15 3 9 0 15
-10 15 -8 0 -17 -13 -20 -30 -6 -26 -10 -29 -33 -24 -14 4 -30 10 -36 14 -5 4
-22 10 -37 14 -24 5 -28 3 -28 -14 0 -11 -4 -20 -9 -20 -12 0 -41 46 -41 65 0
9 -6 15 -13 13 -15 -4 -67 36 -67 51 0 6 -6 11 -13 11 -16 0 -59 39 -53 48 2
4 99 8 215 10 l211 3 -1 -108z m-790 88 c8 -5 10 -14 6 -22 -6 -9 -3 -11 10
-5 11 4 22 2 27 -6 12 -20 10 -296 -3 -319 -8 -17 -7 -23 8 -34 17 -13 17 -14
-2 -14 -11 0 -39 -2 -63 -5 -29 -3 -47 1 -58 11 -8 8 -21 12 -29 9 -9 -3 -12
0 -8 10 6 17 -8 18 -26 1 -11 -10 -13 -6 -8 19 5 26 2 33 -13 37 -15 4 -20 14
-20 36 0 18 -5 31 -12 31 -9 0 -8 3 2 10 10 6 14 29 15 84 0 54 4 76 13 76 6
0 12 5 12 10 0 9 -35 14 -77 13 -8 -1 -13 11 -13 28 0 16 5 29 11 29 5 0 8 -4
5 -9 -8 -13 16 -19 39 -10 16 6 17 8 3 8 -9 1 -19 5 -22 10 -7 11 185 14 203
2z"/>
<path d="M5190 7200 c-8 -6 -41 -10 -72 -8 -32 1 -61 -1 -64 -5 -6 -5 -12
-125 -18 -312 -1 -33 -3 -85 -4 -115 l-2 -56 -103 -32 c-56 -18 -111 -32 -121
-32 -10 0 -16 -6 -14 -12 7 -20 111 -21 198 -4 91 19 103 19 95 5 -5 -7 8 -8
41 -3 64 9 75 16 39 25 -21 6 -32 4 -42 -9 -8 -9 -12 -11 -8 -4 4 7 -1 12 -12
12 -17 1 -17 1 0 11 9 6 15 14 12 20 -3 5 0 6 8 3 9 -3 22 5 32 18 12 16 19
19 22 10 4 -10 8 -10 17 2 6 9 30 16 54 18 23 1 42 6 42 10 0 5 9 4 19 -1 14
-8 20 -7 25 5 3 8 2 12 -4 9 -6 -3 -20 1 -32 10 -14 10 -17 16 -8 14 44 -5 53
10 20 38 -24 20 -26 38 -5 29 9 -3 15 0 15 9 0 8 7 15 15 15 21 0 19 9 -6 31
-14 12 -19 25 -15 35 5 13 4 14 -7 6 -10 -9 -12 -4 -9 22 5 45 -24 90 -63 95
-33 3 -100 35 -127 59 -10 8 -18 26 -18 39 0 32 27 30 73 -8 20 -17 37 -25 37
-19 0 6 6 10 12 8 7 -3 13 -15 13 -28 0 -17 8 -26 28 -31 37 -10 52 -4 66 27
14 32 14 32 -6 37 -14 4 -12 5 5 6 29 1 28 25 -3 45 -27 18 -102 21 -125 6z"/>
<path d="M5755 7020 c-3 -5 4 -36 15 -71 11 -35 24 -93 28 -128 l7 -65 55 -28
c30 -15 61 -28 68 -28 7 0 15 -6 18 -14 5 -12 9 -12 26 2 11 9 26 29 34 44 18
35 18 121 -1 157 -16 32 -71 78 -125 106 -39 21 -118 36 -125 25z"/>
<path d="M5595 6545 c-112 -20 -294 -64 -375 -90 -121 -39 -182 -47 -288 -40
-53 3 -126 8 -162 10 -78 5 -180 26 -180 37 0 17 -20 7 -65 -32 -26 -22 -62
-47 -81 -55 -21 -8 -40 -27 -50 -47 -26 -56 -7 -102 76 -182 38 -37 70 -71 70
-75 0 -4 -19 -20 -42 -37 -56 -38 -165 -149 -206 -208 -18 -26 -36 -62 -39
-81 -3 -19 -14 -42 -24 -51 -11 -9 -19 -23 -19 -30 0 -7 -13 -29 -30 -47 -16
-19 -30 -44 -30 -55 0 -11 -30 -49 -70 -88 -38 -38 -70 -76 -70 -85 0 -9 -8
-27 -19 -40 -10 -13 -29 -44 -41 -69 -13 -25 -33 -58 -45 -75 -25 -33 -55 -98
-75 -159 -16 -50 -7 -142 17 -174 19 -25 131 -71 188 -78 17 -1 92 -19 168
-38 77 -20 151 -36 165 -36 52 0 58 -13 30 -67 l-26 -48 -73 -6 c-41 -3 -101
-14 -132 -23 -38 -11 -74 -15 -100 -11 -23 4 -64 1 -90 -5 -39 -8 -58 -7 -100
5 -88 27 -297 65 -407 75 -58 5 -265 14 -460 20 -195 6 -452 15 -570 20 -443
19 -890 32 -949 28 -36 -2 -68 -11 -78 -20 -115 -104 -133 -137 -133 -238 0
-62 3 -75 22 -91 11 -11 28 -19 35 -19 20 0 73 -32 73 -43 0 -19 -92 -96 -157
-132 -37 -21 -75 -43 -83 -50 -8 -7 -40 -25 -70 -41 -30 -16 -57 -32 -60 -35
-3 -3 -75 -45 -160 -94 -85 -48 -157 -91 -160 -95 -3 -3 -21 -14 -41 -23 -21
-9 -60 -32 -88 -49 -139 -90 -174 -111 -268 -158 -56 -28 -107 -58 -114 -66
-6 -8 -17 -14 -24 -14 -11 0 -68 -39 -105 -73 -8 -8 -30 -24 -47 -37 -26 -19
-33 -31 -33 -57 0 -18 3 -33 8 -33 15 0 148 32 167 41 26 11 197 55 255 64 24
4 51 11 60 16 13 8 67 23 215 61 22 5 49 13 60 18 11 5 70 25 130 45 61 21
122 43 137 51 32 17 38 17 38 3 0 -12 -34 -56 -149 -194 -89 -107 -106 -137
-121 -216 -6 -28 -21 -73 -35 -101 -15 -29 -30 -84 -36 -127 -16 -119 -27
-157 -66 -239 -48 -101 -67 -189 -48 -218 8 -12 26 -25 42 -28 15 -4 45 -21
65 -37 51 -40 112 -65 183 -73 94 -12 105 -16 119 -50 15 -33 38 -60 81 -95
34 -26 30 -40 -42 -127 -64 -78 -103 -139 -103 -162 0 -23 -23 -55 -88 -120
-49 -50 -53 -58 -48 -88 5 -23 1 -42 -14 -66 -11 -18 -20 -40 -20 -48 0 -8
-24 -39 -52 -69 l-52 -53 -125 6 c-69 3 -224 9 -344 12 l-217 6 0 -776 0 -776
197 0 198 0 37 42 c20 23 40 53 43 67 4 14 20 56 36 93 30 68 39 151 20 186
-8 16 -1 17 77 16 48 0 93 -1 100 -2 17 -3 16 -52 -2 -52 -17 0 -29 -27 -16
-35 5 -3 14 3 19 13 9 17 25 19 148 21 75 1 140 4 144 7 4 2 17 0 30 -4 22 -9
22 -9 -9 -23 -19 -8 -28 -17 -22 -24 4 -5 9 -19 11 -29 2 -11 12 -20 22 -22
14 -2 17 3 15 20 -1 13 3 31 11 40 7 8 19 33 26 53 l13 38 102 3 102 3 -2 -28
c-1 -15 -1 -37 0 -48 l1 -20 9 20 c5 11 9 32 9 47 1 17 8 28 19 31 39 10 412
8 412 -3 0 -14 27 -13 33 3 3 9 8 9 16 1 14 -13 185 -9 316 6 44 6 97 10 118
10 34 0 38 -2 32 -20 -4 -11 -2 -20 4 -20 6 0 11 9 11 20 0 18 7 20 70 20 68
0 69 0 61 -22 -5 -13 -15 -70 -21 -128 -11 -100 -24 -192 -36 -253 l-6 -27 61
0 c49 0 61 3 61 16 0 26 51 408 55 412 2 2 40 6 85 9 77 6 82 5 77 -13 -3 -10
-9 -50 -12 -89 -4 -38 -15 -127 -26 -197 -10 -70 -19 -129 -19 -132 0 -3 29
-6 64 -6 l64 0 6 73 c12 134 37 322 47 347 6 18 7 10 3 -30 -21 -189 -40 -386
-37 -389 9 -12 14 20 33 180 33 283 25 256 77 263 80 11 75 16 70 -86 -3 -51
-12 -142 -21 -203 -24 -164 -26 -155 38 -155 l54 0 11 93 c6 50 16 142 21 202
17 169 6 153 106 154 l86 0 -6 -37 c-3 -20 -8 -75 -12 -122 -8 -105 -15 -168
-29 -247 l-8 -43 71 0 c89 0 102 5 102 41 0 21 -4 27 -15 23 -20 -8 -19 35 3
226 l17 145 40 6 c22 4 226 10 452 14 371 7 413 6 419 -8 3 -9 -1 -57 -10
-108 -9 -51 -16 -120 -16 -155 0 -72 -10 -80 -67 -60 -82 28 -106 28 -139 -2
-41 -35 -56 -66 -48 -97 l6 -25 209 0 c192 0 209 1 209 18 1 16 1 16 14 0 24
-32 52 -21 108 45 57 64 199 248 239 309 33 49 150 221 196 288 41 60 70 106
170 270 36 58 77 122 91 144 14 21 31 46 37 56 9 17 69 118 106 178 44 75 77
147 71 156 -4 7 -8 4 -10 -6 -3 -16 -19 -23 -44 -20 -27 4 -331 3 -335 -1 -2
-3 -9 -70 -14 -149 -5 -78 -16 -199 -23 -268 -8 -69 -18 -150 -21 -181 -3 -30
-13 -69 -21 -85 -9 -16 -24 -49 -33 -74 -27 -71 -88 -158 -123 -176 -41 -21
-181 -21 -230 1 -20 8 -24 41 -7 47 6 2 12 21 12 43 2 41 22 48 22 8 1 -33 19
-46 46 -37 13 4 27 8 31 9 15 1 20 16 22 59 2 53 -18 63 -35 19 -8 -21 -12
-24 -19 -13 -5 8 -5 19 0 26 6 6 7 13 4 17 -3 3 -1 14 5 25 7 13 7 22 -1 30
-13 13 -1 35 14 26 7 -4 8 -2 4 4 -4 7 -2 12 4 12 7 0 8 6 1 19 -6 10 -7 21
-3 25 3 4 -1 4 -10 1 -13 -5 -15 -1 -13 22 5 44 13 74 26 89 9 11 9 14 -1 14
-10 0 -10 3 0 15 6 8 8 20 4 26 -4 7 -3 9 3 6 7 -4 12 8 15 32 2 22 0 37 -4
35 -5 -3 -8 10 -8 28 0 19 -4 38 -9 43 -15 15 -31 99 -22 108 5 5 2 34 -7 64
-14 51 -14 56 1 65 10 5 15 14 12 19 -4 5 -11 6 -17 3 -6 -4 -6 1 1 14 8 15 8
23 0 28 -6 3 -9 17 -6 30 2 13 0 21 -4 18 -17 -10 -9 16 12 37 15 15 18 24 9
34 -8 10 -8 15 1 21 8 4 9 3 5 -4 -4 -7 -5 -12 -2 -12 13 0 36 59 25 65 -7 5
-7 11 1 20 9 11 6 13 -14 11 -32 -4 -55 9 -40 24 12 12 142 30 162 23 6 -3 12
-15 12 -27 0 -39 13 -38 32 3 15 33 25 41 54 47 23 4 49 1 75 -9 24 -10 41
-12 45 -5 3 5 12 7 18 5 7 -3 21 7 32 21 10 14 26 33 34 42 11 11 13 27 9 58
-4 33 -2 42 8 38 9 -4 13 4 13 24 0 20 9 36 33 54 17 14 26 26 20 26 -7 0 -13
5 -13 11 0 6 10 9 23 7 35 -5 45 32 35 127 -4 44 -5 99 -2 122 6 38 3 46 -24
73 -18 17 -41 30 -55 30 -14 0 -27 7 -31 15 -3 10 -19 15 -45 15 -34 0 -38 2
-34 20 4 16 2 19 -13 14 -18 -5 -18 -5 -1 6 10 6 24 9 32 6 9 -3 12 0 8 10 -3
8 1 14 8 14 8 0 2 11 -13 24 -32 26 -35 36 -13 36 8 0 15 -6 15 -14 0 -8 7
-17 16 -20 10 -4 14 -14 11 -26 -3 -11 0 -23 5 -27 6 -3 8 -2 5 4 -4 6 0 19 8
29 13 17 14 17 15 2 0 -12 5 -15 17 -11 24 9 73 54 73 66 0 6 -3 7 -7 4 -3 -4
-13 -1 -21 6 -12 9 -16 9 -19 0 -3 -8 -21 -13 -46 -12 -38 0 -40 1 -17 10 15
6 20 13 13 17 -6 4 -13 25 -14 47 -3 36 -2 40 19 37 19 -3 22 1 22 33 0 25 -4
34 -12 29 -8 -5 -9 2 -5 26 4 18 7 39 7 46 0 8 9 14 21 14 30 0 19 22 -22 42
-26 13 -30 17 -14 19 11 1 26 0 34 -1 28 -3 29 23 2 46 l-26 23 27 -5 c39 -6
44 13 9 34 -17 10 -28 22 -24 26 8 8 -55 -1 -69 -10 -4 -3 -5 2 -2 10 3 9 10
13 15 10 5 -3 9 0 9 6 0 8 9 10 25 6 14 -4 25 -2 25 2 0 5 16 8 35 7 39 -3 43
2 18 21 -23 17 -57 18 -47 2 4 -6 -4 -3 -18 8 -19 14 -25 27 -24 48 3 37 27
49 79 41 39 -6 41 -6 26 9 -12 13 -35 17 -102 17 -48 0 -87 5 -87 10 0 5 6 9
13 9 7 0 20 9 29 19 14 17 28 19 103 17 90 -3 115 6 68 26 -32 13 -344 16
-408 4 -22 -4 -36 -4 -32 0 21 21 146 47 271 57 40 3 57 19 35 33 -8 4 -9 3
-5 -4 5 -8 2 -10 -8 -6 -9 3 -14 11 -13 17 1 7 -4 11 -12 9 -9 -2 -12 4 -9 16
4 14 0 19 -16 19 -48 1 -51 3 -21 23 48 32 149 50 243 43 45 -3 82 -3 82 -1 0
16 -107 39 -149 33 -44 -6 -170 -40 -201 -54 -8 -4 -34 -6 -57 -6 -23 1 -40
-1 -38 -5 6 -10 -102 -7 -111 3 -5 4 -2 12 6 18 11 7 7 8 -12 3 -18 -4 -28 -2
-28 5 0 6 -14 25 -30 43 -31 32 -38 44 -19 32 6 -3 16 0 21 7 7 11 11 11 15 2
2 -7 9 -13 14 -13 6 0 8 4 4 9 -3 6 11 13 32 17 21 3 54 10 73 14 32 7 31 8
-20 9 -90 2 -130 12 -142 35 -11 21 -11 21 10 2 17 -15 40 -19 114 -21 51 -1
69 0 41 2 -38 3 -53 8 -53 18 0 8 -4 15 -10 15 -5 0 -10 -7 -10 -15 0 -17 -9
-19 -28 -6 -22 13 9 30 69 37 30 3 56 8 58 10 5 5 -111 9 -179 6 -51 -2 -163
8 -157 14 2 2 68 6 147 9 80 3 146 8 149 10 2 3 -10 5 -28 5 -19 0 -30 4 -26
10 4 6 -25 10 -79 10 -55 0 -86 4 -86 11 0 7 21 9 63 5 34 -4 78 -2 97 2 32 8
28 9 -40 16 -228 21 -227 31 5 31 96 -1 175 2 175 5 0 4 -6 7 -12 8 -100 12
-196 40 -143 43 11 0 -2 7 -30 14 l-50 13 50 1 c62 2 89 15 54 27 -13 4 -55
10 -94 13 -38 3 -69 11 -68 16 3 19 -20 35 -51 36 -27 2 -28 2 -6 6 14 3 33
12 43 21 16 14 20 14 47 -6 34 -25 92 -29 110 -7 16 20 39 19 62 -2 17 -15 20
-15 41 7 19 21 22 22 25 7 4 -19 22 -24 22 -5 0 6 7 4 18 -5 12 -11 36 -17 71
-17 35 0 62 -6 79 -19 16 -10 54 -21 92 -24 107 -11 133 -18 153 -40 15 -18
20 -19 27 -7 7 12 17 10 62 -10 55 -26 118 -75 118 -92 0 -5 10 -18 22 -28 20
-16 25 -16 45 -3 13 9 23 23 23 33 0 17 28 36 37 26 8 -8 -8 -27 -18 -21 -5 4
-9 2 -9 -4 0 -5 6 -12 13 -14 9 -4 9 -6 0 -6 -7 -1 -10 -8 -7 -18 5 -14 4 -15
-4 -4 -8 11 -17 7 -48 -23 -20 -20 -33 -36 -28 -36 5 0 19 11 32 25 19 19 26
22 36 12 11 -10 10 -16 -2 -36 -10 -15 -18 -19 -20 -11 -3 7 2 16 9 21 7 4 11
11 7 14 -9 10 -41 -42 -33 -55 10 -16 -6 -35 -17 -19 -7 10 -8 8 -4 -7 4 -11
-1 -29 -9 -40 -8 -10 -15 -41 -15 -67 0 -27 -5 -57 -10 -68 -12 -22 -3 -92 11
-83 12 7 11 -10 -1 -22 -14 -14 -30 -164 -21 -184 5 -8 6 -45 3 -82 -3 -54 -8
-67 -23 -71 -10 -3 -19 -11 -19 -17 0 -7 7 -10 16 -6 10 4 14 1 11 -6 -2 -7
-13 -12 -24 -10 -17 2 -20 -1 -15 -25 2 -15 9 -34 15 -41 5 -7 7 -15 3 -19 -3
-4 -13 2 -22 13 -14 18 -15 18 -6 0 6 -11 6 -34 0 -59 -7 -30 -6 -42 4 -48 10
-7 10 -9 -1 -9 -10 0 -8 -7 9 -25 12 -13 27 -22 33 -18 6 3 7 1 3 -5 -11 -18
-26 -14 -46 10 -10 13 -22 20 -26 15 -4 -4 2 -15 15 -23 l22 -16 -22 -24 c-12
-13 -29 -24 -37 -24 -13 0 -12 -3 1 -18 10 -10 17 -35 17 -55 0 -30 -4 -37
-20 -37 -15 0 -20 7 -21 28 l-1 27 -10 -29 c-8 -21 -7 -30 1 -36 7 -4 10 -22
8 -43 -4 -37 -23 -70 -37 -62 -4 2 -18 -4 -30 -15 -15 -13 -18 -20 -9 -20 8 0
10 -3 4 -8 -6 -4 -10 -55 -11 -114 -1 -106 0 -106 23 -104 13 2 26 6 31 11 4
4 2 5 -5 1 -6 -3 -14 -3 -17 2 -2 4 7 9 21 10 14 1 33 8 41 15 13 10 14 9 7
-3 -5 -8 -11 -24 -12 -35 -3 -17 3 -20 39 -23 26 -1 56 5 76 15 31 17 38 37
14 39 -7 1 -15 3 -19 4 -5 2 -14 4 -22 4 -8 1 -16 8 -18 16 -3 10 -2 11 4 4
10 -15 57 2 48 16 -5 8 -11 8 -19 1 -10 -8 -12 -4 -11 17 1 15 7 26 13 25 7
-2 12 4 12 12 0 11 -5 12 -22 6 -23 -9 -23 -9 -18 77 5 85 5 86 32 87 34 2 49
-7 50 -31 2 -16 8 -19 40 -16 29 3 38 8 38 23 0 15 7 19 40 19 29 0 40 4 40
15 0 8 9 15 20 15 21 0 27 -15 10 -25 -6 -3 -10 -15 -10 -26 0 -10 -4 -19 -10
-19 -5 0 -10 -13 -10 -30 0 -28 2 -30 39 -30 37 0 61 -14 48 -27 -3 -3 -42 -2
-86 2 -74 6 -81 9 -81 29 0 15 -3 17 -9 7 -5 -8 -11 -9 -15 -3 -3 5 -17 7 -31
4 -20 -3 -25 -10 -25 -34 0 -29 1 -30 40 -26 22 2 40 0 40 -4 0 -5 20 -8 45
-8 37 0 43 -3 38 -17 -4 -11 -3 -14 5 -9 8 4 16 -2 21 -16 9 -22 10 -22 10 -2
1 12 8 28 17 35 15 12 16 11 9 -11 -13 -42 -48 -121 -52 -117 -2 2 1 16 6 30
6 15 7 29 2 31 -4 3 -8 0 -9 -7 -1 -7 -3 -30 -5 -52 -4 -43 -40 -119 -51 -108
-4 4 -4 0 -1 -8 7 -19 -19 -72 -30 -61 -5 4 -5 1 -1 -5 7 -12 -11 -55 -75
-187 -16 -33 -29 -65 -29 -72 0 -6 -7 -14 -15 -18 -8 -3 -15 -12 -15 -19 0 -8
-18 -48 -40 -90 -39 -74 -49 -104 -31 -92 11 6 61 109 61 124 0 6 4 11 8 11 9
0 44 75 57 120 4 14 20 43 35 65 14 22 32 56 39 75 7 19 28 67 47 106 81 172
114 246 114 253 0 5 14 41 31 82 17 41 44 110 59 154 16 44 43 118 59 165 17
47 31 91 31 98 0 8 6 28 14 45 8 18 23 68 34 112 117 475 212 829 233 867 5
10 9 25 9 33 0 14 81 268 175 550 19 55 39 120 45 145 6 25 13 52 17 60 3 8 7
32 8 53 2 21 9 60 16 87 10 39 10 68 1 132 l-11 83 27 23 c15 12 41 34 58 48
31 27 72 129 61 156 -3 7 -6 3 -6 -9 -1 -27 -17 -38 -25 -18 -3 8 0 17 6 21 8
5 6 10 -4 18 -8 6 -17 22 -21 36 -5 23 -5 23 8 7 18 -25 29 -5 21 38 -6 32
-36 71 -36 46 0 -6 5 -11 10 -11 6 0 10 -12 10 -26 0 -14 -4 -23 -10 -19 -6 4
-8 10 -5 15 3 4 -2 13 -11 20 -8 7 -12 20 -9 28 3 8 -2 16 -12 18 -14 4 -50
54 -38 54 20 0 79 -37 99 -62 27 -35 34 -32 14 5 -21 40 -71 73 -120 79 -14 2
-33 10 -42 17 -15 13 -15 15 0 32 16 18 16 19 -7 19 -23 1 -23 1 -5 15 18 13
15 19 -6 16 -4 0 -5 6 -2 13 3 9 -3 17 -15 21 -12 3 -21 11 -21 17 0 6 -9 -1
-20 -15 -22 -28 -27 -67 -8 -67 6 0 8 -3 5 -6 -4 -4 -13 -1 -22 6 -9 7 -18 10
-22 7 -3 -4 -17 3 -31 13 -13 11 -31 20 -38 20 -8 0 -14 4 -14 10 0 6 9 6 26
-1 36 -13 38 -8 12 32 -15 22 -49 47 -100 74 -73 38 -78 42 -86 82 -11 52 -57
108 -94 116 -22 5 -28 12 -28 32 0 15 -4 24 -9 20 -5 -3 -12 3 -16 14 -3 11
-12 22 -20 25 -18 7 -20 33 -2 39 6 2 -7 13 -30 23 -34 15 -42 23 -38 39 3 11
2 14 -1 8 -4 -9 -16 -2 -37 21 -18 18 -38 35 -46 37 -11 4 -12 9 -2 28 16 29
-1 51 -37 51 -14 0 -37 11 -51 23 -15 13 -47 32 -73 41 -27 10 -48 21 -48 26
0 19 13 40 21 34 5 -3 6 3 2 12 -5 13 -3 15 8 9 8 -5 5 2 -6 15 -11 13 -14 20
-7 16 8 -5 12 0 12 16 0 18 -2 20 -10 8 -6 -10 -10 -11 -10 -2 0 23 -21 12
-31 -18 -6 -16 -15 -28 -19 -25 -4 3 -10 -2 -14 -10 -6 -17 22 -35 44 -27 8 2
12 2 8 -2 -14 -16 -45 -12 -88 9 -25 12 -58 25 -74 29 -17 4 -42 16 -57 27
-15 10 -32 19 -37 19 -6 0 -13 4 -16 9 -3 5 31 14 77 21 92 13 146 37 196 83
37 35 91 105 91 119 0 11 -60 8 -145 -7z m-431 -696 c-27 -18 -62 -36 -79 -42
-24 -8 -60 -29 -94 -53 -1 -2 1 -8 5 -15 4 -8 9 -28 11 -47 3 -31 2 -33 -24
-30 -22 2 -29 9 -33 33 -4 20 -8 26 -13 18 -5 -7 -15 -13 -24 -13 -8 0 -28 -9
-44 -21 -17 -12 -29 -15 -29 -9 0 7 9 14 20 17 11 3 20 10 20 17 0 6 13 22 29
35 25 21 27 27 20 60 -12 52 -12 53 19 49 19 -2 28 -9 30 -25 4 -30 16 -29 60
6 37 29 93 48 146 50 28 1 27 -1 -20 -30z m756 -705 c25 -4 73 -24 110 -47 36
-22 85 -50 110 -63 25 -14 54 -35 65 -47 69 -79 209 -138 283 -120 l40 10 6
-36 c16 -99 -4 -319 -34 -368 -8 -15 -9 -13 -4 10 9 40 -17 56 -93 57 -67 0
-81 -8 -109 -62 -19 -37 -28 -31 -14 8 10 27 9 28 -5 9 -9 -11 -14 -29 -11
-41 4 -14 -3 -29 -19 -44 -14 -13 -25 -32 -25 -43 0 -10 -9 -31 -21 -45 -11
-15 -43 -58 -70 -96 -101 -142 -192 -247 -202 -234 -6 9 -7 8 -3 -5 6 -19 -87
-151 -98 -140 -3 4 -6 0 -6 -8 0 -8 -13 -31 -29 -52 -23 -30 -30 -34 -35 -21
-8 22 1 34 21 27 13 -5 13 -3 -2 20 -17 27 -9 37 12 16 9 -9 10 -7 6 10 -4 17
0 22 25 27 33 7 34 30 2 30 -14 0 -19 -5 -15 -15 5 -12 3 -12 -12 0 -11 9 -14
10 -9 2 8 -15 3 -16 -68 -13 -39 1 -48 -1 -43 -13 6 -16 -33 -19 -45 -3 -9 13
18 37 34 31 9 -4 13 5 14 27 1 25 -1 29 -10 17 -6 -8 -24 -25 -40 -37 -23 -17
-31 -20 -38 -10 -4 7 -8 8 -8 3 0 -13 -76 -13 -87 -1 -4 5 0 6 9 3 15 -5 17 0
15 43 -2 30 0 47 7 43 5 -4 7 1 3 11 -4 10 -7 24 -7 32 0 8 -9 23 -20 34 -14
14 -22 40 -27 80 -5 51 -11 65 -41 95 -32 32 -33 35 -14 35 12 0 22 -4 22 -10
0 -5 5 -10 10 -10 17 0 70 -42 70 -55 0 -18 37 -48 44 -37 3 6 0 13 -6 15 -8
3 -6 6 5 6 10 1 21 -9 26 -21 5 -13 12 -22 17 -20 5 1 9 -4 9 -10 0 -19 -31
-21 -49 -3 -20 20 -21 6 -2 -21 8 -10 12 -29 9 -42 -5 -22 13 -56 26 -48 4 3
12 1 19 -3 16 -10 3 -54 -14 -47 -8 3 -14 2 -14 -3 0 -5 12 -11 26 -14 20 -4
28 0 32 15 4 15 7 17 14 6 5 -8 6 1 2 24 -4 28 0 48 19 86 47 94 63 172 66
323 1 31 7 40 47 68 25 18 57 44 72 58 34 31 19 43 -59 43 -31 0 -58 2 -60 5
-3 2 3 57 13 122 9 65 17 147 17 183 1 36 10 116 22 178 21 113 21 113 48 108
14 -3 46 -8 71 -12z m517 -780 c0 -15 6 -30 12 -33 7 -5 2 -34 -15 -91 -36
-122 -68 -204 -72 -186 -2 9 -8 16 -13 16 -11 0 -11 -4 1 -32 8 -18 4 -41 -14
-98 -14 -41 -30 -74 -36 -72 -6 1 -9 -2 -5 -7 9 -15 -6 -62 -17 -55 -5 3 -7
12 -4 20 8 20 -4 44 -21 44 -9 0 -32 -17 -51 -37 l-36 -38 36 -3 c33 -3 58
-26 43 -40 -3 -3 -5 0 -5 6 0 7 -16 12 -40 12 -22 0 -40 5 -40 10 0 6 -13 10
-30 10 -28 0 -30 -2 -30 -40 0 -22 -4 -40 -10 -40 -5 0 -10 -9 -10 -20 0 -22
-6 -23 -98 -14 -44 5 -62 11 -66 23 -3 9 -3 -4 0 -29 l5 -45 -15 29 c-20 35
-20 41 0 61 12 12 19 13 24 5 5 -8 9 -7 13 4 4 9 1 16 -5 16 -7 0 -3 7 8 16
10 8 13 13 7 9 -9 -4 -11 -1 -7 9 4 10 1 16 -9 16 -13 0 -11 5 6 23 12 13 44
54 71 91 37 51 51 65 58 54 7 -9 8 -7 3 8 -3 12 0 28 7 35 8 8 24 29 38 48 21
31 24 32 32 15 7 -17 8 -16 4 3 -2 12 3 31 13 42 9 12 39 52 66 90 28 39 53
70 58 70 10 1 -22 -49 -43 -69 -25 -23 -63 -90 -51 -90 6 0 16 8 22 18 14 22
59 18 59 -4 0 -17 -37 -19 -43 -1 -2 6 -3 -6 -2 -28 3 -45 -3 -67 -15 -60 -5
3 -12 0 -16 -6 -4 -8 -3 -9 5 -5 11 7 15 1 25 -46 4 -19 13 -28 26 -28 16 0
20 7 20 35 0 25 5 38 18 42 24 9 33 25 26 47 -4 11 -2 16 4 12 5 -3 12 1 16 9
9 23 25 18 20 -7 -2 -13 2 -7 9 12 6 19 16 41 21 49 5 8 10 37 11 65 1 39 -4
55 -18 68 -15 14 -17 22 -9 45 5 17 15 27 24 25 9 -1 18 7 21 18 7 27 12 25
14 -6z m-2017 -2205 c0 7 4 10 9 7 5 -3 1 -22 -9 -41 -14 -28 -16 -43 -9 -68
11 -39 11 -39 0 -33 -4 3 -7 -15 -6 -40 1 -31 -4 -53 -17 -69 -14 -18 -18 -39
-16 -92 2 -82 -28 -152 -65 -153 -12 0 -1 214 12 218 5 2 8 9 5 16 -5 13 9 74
46 194 18 60 25 71 36 61 11 -9 14 -9 14 0z m-15 -1565 c15 -4 30 -20 40 -42
9 -21 20 -44 25 -53 5 -10 4 -25 -4 -41 -7 -13 -16 -46 -19 -72 -9 -64 -14
-69 -46 -50 -34 20 -61 63 -61 98 0 25 22 36 34 17 9 -14 54 -19 65 -8 17 17
13 29 -8 22 -11 -3 -23 0 -27 6 -4 7 -3 9 3 6 6 -4 19 3 29 15 17 20 18 21 1
15 -15 -6 -16 -4 -6 14 8 15 8 24 0 32 -6 6 -11 8 -11 4 0 -4 -8 1 -18 11 -10
9 -27 23 -38 30 -18 12 -18 13 -1 7 11 -3 29 -8 42 -11z"/>
<path d="M9751 5271 c-28 -49 -51 -96 -51 -105 0 -13 11 -16 61 -16 l62 0 -6
101 c-2 55 -7 102 -9 105 -3 2 -28 -36 -57 -85z"/>
<path d="M10247 5261 c-37 -51 -67 -100 -65 -109 3 -14 18 -18 76 -20 l72 -3
-1 48 c-1 26 -4 77 -8 113 l-6 64 -68 -93z"/>
<path d="M0 4470 l0 -280 25 0 c23 0 25 4 25 41 l0 41 38 -4 c20 -3 44 -8 53
-12 11 -5 18 -1 22 11 4 10 12 25 18 34 23 31 4 49 -51 49 -37 0 -50 4 -50 14
0 8 -8 17 -17 19 -10 3 8 5 40 6 44 1 57 -2 57 -14 0 -8 9 -15 19 -15 21 0 37
17 26 28 -3 3 -10 0 -15 -8 -9 -14 -15 -6 -11 14 1 5 -3 13 -10 17 -23 14 -1
39 36 39 21 0 35 5 35 13 1 6 9 2 19 -10 24 -28 36 -29 38 -3 1 11 -2 20 -5
20 -4 0 -8 9 -9 20 -1 14 4 20 18 20 12 0 19 -7 19 -18 0 -15 6 -17 35 -14 21
3 34 9 32 16 -2 6 -13 10 -23 9 -16 -2 -19 5 -18 40 1 40 1 40 -3 5 -5 -43 -5
-44 -38 -22 -23 15 -27 15 -50 0 -14 -9 -23 -21 -20 -26 4 -6 -12 -10 -37 -10
-29 0 -38 3 -29 9 8 5 23 8 33 6 15 -3 18 3 18 40 l0 45 47 -2 c29 -2 48 2 51
10 2 7 21 12 41 12 l38 0 -3 -52 c-1 -29 0 -41 2 -25 3 15 9 27 14 27 12 0 18
-58 6 -70 -15 -15 12 -31 40 -24 29 7 34 -3 27 -54 -4 -30 -10 -42 -21 -40 -8
2 -17 -3 -19 -9 -3 -8 5 -13 21 -13 24 0 26 4 26 40 0 29 4 40 15 40 11 0 15
11 15 40 0 22 5 40 10 40 6 0 10 18 10 40 0 38 -2 40 -30 40 -16 0 -30 -4 -30
-10 0 -16 -47 -11 -54 5 -4 11 3 17 24 22 43 8 37 23 -10 23 -33 0 -40 3 -40
20 0 12 -7 20 -17 21 -10 0 -13 3 -6 5 6 3 25 -2 42 -10 34 -18 61 -21 61 -6
0 6 -12 11 -27 12 -18 0 -12 3 17 7 25 4 52 4 60 0 8 -3 38 -3 65 1 l50 7 -42
2 c-31 1 -43 5 -43 16 0 8 -4 15 -10 15 -5 0 -10 -4 -10 -10 0 -5 -7 -10 -16
-10 -8 0 -13 4 -9 9 9 16 -31 22 -137 22 -57 -1 -137 3 -178 8 -41 6 -103 10
-137 10 l-63 1 0 -280z"/>
<path d="M652 4675 c-7 -9 -30 -15 -52 -15 -38 0 -40 -2 -40 -30 0 -28 2 -30
40 -30 29 0 40 -4 40 -15 0 -11 -11 -15 -40 -15 -35 0 -40 -3 -40 -23 0 -12
-9 -47 -20 -77 -21 -58 -26 -120 -10 -120 6 0 10 18 10 40 0 33 3 40 20 40 16
0 19 5 14 24 -6 26 14 40 42 29 11 -4 14 -13 10 -29 -4 -14 -2 -24 4 -24 5 0
10 9 10 20 0 11 5 20 10 20 6 0 10 -9 10 -20 0 -13 7 -20 20 -20 13 0 20 7 20
20 0 11 5 20 10 20 6 0 10 27 10 60 l0 60 40 0 c39 0 52 12 29 26 -6 3 -9 17
-6 30 3 16 0 24 -10 24 -9 0 -12 -7 -7 -25 4 -18 1 -27 -11 -31 -19 -8 -36 12
-28 32 2 7 0 21 -6 31 -6 10 -11 12 -11 6 0 -7 -9 -13 -21 -13 -11 0 -17 5
-14 10 9 15 -8 11 -23 -5z"/>
<path d="M7680 4440 c0 -5 -11 -10 -25 -10 -21 0 -25 -5 -25 -30 0 -20 5 -30
15 -30 8 0 15 -4 15 -9 0 -6 9 -9 20 -8 13 1 16 5 10 11 -19 19 -10 26 30 26
22 0 40 -4 40 -9 0 -6 19 -12 43 -14 l42 -4 -42 -1 c-24 -1 -43 -6 -43 -12 0
-5 -18 -10 -40 -10 -29 0 -40 -4 -40 -15 0 -11 11 -15 40 -15 33 0 40 -3 40
-20 0 -13 -7 -20 -20 -20 -17 0 -20 -7 -20 -40 0 -33 -3 -40 -20 -40 -11 0
-20 5 -20 10 0 6 -18 10 -40 10 -22 0 -40 -4 -40 -10 0 -5 18 -10 40 -10 33 0
40 -3 40 -20 0 -17 7 -20 40 -20 33 0 40 3 40 20 0 17 7 20 40 20 29 0 40 -4
40 -15 0 -8 7 -15 15 -15 8 0 15 -4 15 -10 0 -5 -7 -10 -15 -10 -27 0 -18 -49
10 -60 14 -5 25 -12 25 -16 0 -17 -40 -33 -82 -34 l-48 0 0 -37 c0 -29 -8 -44
-41 -77 -23 -22 -37 -42 -30 -44 14 -5 15 -82 1 -82 -5 0 -10 -18 -10 -40 l0
-40 40 0 40 0 0 40 c0 22 -4 40 -10 40 -5 0 -10 18 -10 40 0 71 17 42 27 -47
9 -84 8 -116 -6 -95 -3 5 -41 13 -83 17 l-78 7 0 -41 c0 -37 -2 -41 -25 -41
-22 0 -25 -4 -25 -40 l0 -40 83 -1 c45 -1 74 -3 65 -6 -12 -3 -18 -14 -18 -33
0 -19 6 -30 18 -33 9 -3 -45 -5 -120 -6 -135 -1 -138 -1 -138 21 0 12 -7 30
-17 40 -15 17 -15 18 0 18 13 0 17 9 17 40 l0 40 -40 0 -40 0 0 -40 c0 -22 -4
-40 -10 -40 -5 0 -10 18 -10 40 0 22 5 40 10 40 6 0 10 18 10 40 0 22 5 40 10
40 6 0 10 33 10 80 l0 80 30 0 c17 0 30 5 30 10 0 6 -18 10 -40 10 -38 0 -40
2 -40 30 0 28 -2 30 -40 30 -36 0 -40 -2 -40 -25 0 -25 -1 -25 -80 -25 -64 0
-80 -3 -80 -15 0 -8 -7 -15 -15 -15 -12 0 -15 -13 -15 -59 0 -32 -3 -86 -6
-120 -6 -50 -10 -61 -25 -61 -14 0 -19 -7 -19 -30 0 -31 -1 -31 -48 -29 -27 1
-53 -1 -59 -4 -6 -4 -21 5 -32 20 -11 16 -21 22 -21 16 0 -8 -15 -13 -40 -13
-31 0 -40 -4 -41 -17 -1 -12 -4 -9 -8 7 -9 34 -36 32 -37 -2 -1 -23 3 -28 22
-28 14 0 24 -6 24 -14 0 -17 69 -43 79 -30 12 18 73 44 101 44 18 0 35 -9 48
-24 13 -17 32 -26 58 -29 l39 -4 -38 -1 c-42 -2 -72 -24 -63 -47 4 -13 9 -13
24 -4 27 17 54 4 50 -23 -2 -15 -11 -24 -25 -26 -13 -2 -23 -8 -23 -13 0 -12
-35 -11 -95 5 -43 11 -50 17 -53 40 -3 21 -7 25 -26 20 -12 -3 -34 0 -49 5
-24 9 -27 8 -27 -12 0 -15 10 -26 29 -35 25 -11 30 -19 33 -59 3 -41 0 -50
-29 -81 -18 -19 -33 -30 -33 -23 0 6 -17 11 -40 11 -22 0 -40 -4 -40 -10 0 -5
-7 -10 -15 -10 -11 0 -15 -11 -15 -40 0 -22 -4 -40 -10 -40 -5 0 -10 18 -10
40 0 29 -4 40 -15 40 -8 0 -15 9 -15 20 0 17 7 20 40 20 33 0 40 3 40 20 0 17
-7 20 -40 20 -28 0 -40 4 -40 15 0 8 -8 19 -19 24 -31 17 -34 41 -6 41 18 0
24 -6 27 -27 l3 -28 25 25 25 25 -27 3 c-16 2 -28 8 -28 13 0 6 -13 24 -29 40
-22 21 -30 40 -33 74 -2 31 1 45 9 45 9 0 13 -16 13 -45 0 -57 18 -59 22 -2 3
41 4 42 36 39 31 -3 32 -3 32 37 0 30 4 41 15 41 8 0 15 9 15 20 0 17 7 20 40
20 l40 0 -4 58 c-2 31 -1 40 1 20 3 -25 9 -38 19 -38 18 0 17 15 -4 67 -17 42
-17 42 -46 28 -15 -8 -39 -15 -52 -15 -21 0 -24 5 -24 40 0 36 -2 40 -25 40
-22 0 -25 4 -25 40 l0 40 -60 0 c-55 0 -79 12 -47 23 7 3 -1 16 -22 36 -41 36
-53 30 -44 -23 4 -24 9 -33 14 -25 4 8 11 10 15 7 3 -4 -1 -14 -10 -23 -9 -9
-16 -15 -16 -13 0 2 -7 21 -15 43 l-16 40 7 -59 c4 -42 3 -56 -6 -51 -6 4 -10
14 -9 23 3 33 -1 37 -15 12 -11 -22 -11 -27 8 -42 11 -9 18 -20 14 -24 -4 -4
-14 -2 -21 4 -20 17 -25 7 -20 -37 3 -23 0 -42 -7 -46 -7 -5 -9 2 -4 22 4 19
3 25 -3 18 -15 -14 -27 -89 -14 -80 6 3 11 -1 11 -9 0 -18 -20 -32 -21 -14 0
7 -7 -5 -15 -26 -10 -29 -11 -42 -3 -47 6 -4 8 -12 5 -18 -4 -6 -11 -9 -16 -6
-5 3 -7 -7 -4 -22 3 -15 10 -31 17 -35 6 -4 8 -10 5 -14 -4 -4 -2 -16 3 -27 9
-16 6 -24 -15 -44 -14 -13 -26 -30 -26 -38 0 -9 -8 -12 -21 -10 -15 3 -19 0
-15 -11 3 -9 6 -22 6 -30 0 -9 5 -12 10 -9 12 8 13 -5 1 -23 -6 -10 -10 -7
-15 12 -4 15 -11 24 -16 21 -6 -4 -8 -11 -4 -16 3 -5 1 -16 -6 -24 -6 -7 -12
-32 -13 -54 -1 -23 -4 -41 -8 -41 -4 0 -10 -15 -14 -32 -4 -18 -9 -41 -12 -52
-3 -12 -1 -16 6 -12 6 4 11 18 11 32 0 16 6 24 17 24 13 0 14 -3 5 -12 -8 -8
-8 -17 -1 -31 8 -14 8 -18 0 -13 -7 5 -17 -5 -25 -25 -8 -20 -15 -27 -18 -18
-3 8 -9 -7 -13 -34 -4 -26 -11 -50 -16 -53 -14 -8 -10 -24 6 -24 21 0 19 -17
-3 -23 -20 -5 -37 -60 -25 -80 3 -5 2 -7 -4 -4 -5 3 -17 -28 -28 -71 -10 -42
-22 -81 -27 -86 -4 -6 -8 -21 -8 -35 0 -15 -9 -50 -21 -80 -18 -49 -18 -53 -3
-40 16 12 17 12 11 -4 -4 -10 -7 -23 -7 -29 0 -6 -6 -8 -14 -5 -14 6 -33 -39
-21 -51 3 -3 5 1 5 8 0 7 3 10 7 7 3 -4 -4 -18 -16 -31 -12 -13 -24 -38 -26
-57 -3 -18 -9 -35 -13 -38 -5 -3 -12 -17 -16 -31 -6 -21 -5 -22 4 -7 12 19 30
23 30 6 0 -5 -4 -7 -10 -4 -13 8 -13 -44 1 -84 10 -28 15 -31 50 -31 39 0 43
5 42 48 -1 9 29 12 118 12 73 0 119 4 119 10 0 6 18 10 40 10 22 0 40 5 40 10
0 6 27 10 63 10 62 0 62 -1 39 -18 l-23 -18 26 -12 c14 -7 50 -12 80 -12 48 0
55 2 55 20 0 16 -7 20 -36 20 -19 0 -42 6 -50 14 -16 16 -19 86 -4 86 6 0 10
-18 10 -40 l0 -40 70 0 70 0 0 120 0 120 -70 0 -70 0 0 40 0 40 40 0 c22 0 40
5 40 10 0 6 18 10 40 10 39 0 40 -1 40 -35 0 -34 1 -35 40 -35 l40 0 0 -55 c0
-48 2 -55 20 -55 17 0 20 7 20 40 0 31 4 40 18 40 9 0 25 7 36 15 16 12 21 12
42 -3 13 -9 24 -25 24 -34 0 -13 8 -18 30 -18 23 0 30 -4 30 -20 0 -16 -7 -20
-30 -20 -19 0 -30 -5 -30 -14 0 -18 152 -34 158 -17 5 14 82 15 82 1 0 -6 33
-10 80 -10 l80 0 0 -30 c0 -28 -2 -30 -40 -30 -33 0 -40 -3 -40 -20 0 -17 7
-20 40 -20 29 0 40 -4 40 -15 0 -16 44 -20 88 -9 18 5 22 13 22 45 0 35 3 39
25 39 23 0 25 -4 25 -40 l0 -40 40 0 c29 0 40 -4 40 -15 0 -11 12 -15 44 -15
39 0 44 -3 48 -25 3 -14 1 -25 -3 -25 -5 0 -9 -18 -9 -40 0 -33 3 -40 20 -40
17 0 20 -7 20 -40 0 -33 3 -40 20 -40 17 0 20 -7 20 -45 0 -43 1 -45 28 -44
16 1 20 3 10 6 -24 6 -23 30 2 43 11 6 20 17 20 25 0 8 5 15 10 15 6 0 10 18
10 40 0 33 3 38 18 33 16 -6 16 -5 -1 14 -18 21 -18 22 4 44 15 15 18 24 11
27 -14 4 -16 82 -2 82 16 0 11 26 -11 54 -17 21 -18 26 -5 26 13 0 16 14 16
76 0 54 4 80 15 90 8 9 15 28 15 44 0 16 5 30 11 32 5 2 10 31 10 66 0 34 5
64 10 67 11 7 12 59 2 69 -5 4 -8 31 -8 59 0 40 5 58 23 77 16 18 22 36 21 65
0 22 1 76 4 120 2 44 0 88 -5 98 -7 13 -5 17 12 17 13 0 20 7 20 20 0 22 -16
25 -54 10 -20 -7 -26 -6 -26 4 0 8 8 16 18 20 9 3 25 11 34 18 13 10 22 9 43
-2 21 -11 30 -12 46 -2 11 7 19 8 19 2 0 -5 18 -10 39 -10 23 0 41 -5 44 -12
3 -10 13 -9 40 4 l37 18 -20 20 c-22 22 -24 29 -11 49 7 11 2 22 -16 39 -20
18 -24 29 -19 53 3 16 1 29 -4 29 -6 0 -10 9 -10 20 0 11 5 20 10 20 6 0 10 5
10 10 0 6 -12 10 -26 10 -16 0 -24 5 -21 13 2 6 16 11 30 9 25 -2 26 -1 22 40
-2 24 -6 53 -10 64 -4 12 -2 25 4 28 6 4 11 25 11 47 0 21 5 39 10 39 6 0 10
39 10 98 0 122 5 142 36 142 17 0 25 -7 30 -24 5 -20 12 -24 45 -24 22 -1 37
3 34 9 -4 5 -14 9 -24 9 -10 0 -24 7 -31 15 -10 12 -10 15 4 15 9 0 16 7 16
15 0 11 -11 15 -40 15 -36 0 -40 3 -40 25 0 17 -6 25 -17 25 -13 0 -18 9 -20
35 -2 41 7 44 38 11 21 -22 24 -23 36 -8 11 15 12 14 13 -8 1 -23 2 -23 10 -5
15 34 11 53 -12 60 -52 15 -108 46 -108 60 0 8 -9 15 -20 15 -14 0 -20 7 -20
24 0 19 -4 23 -20 19 -14 -4 -22 1 -29 18 l-10 24 0 -22 c-1 -20 -6 -23 -41
-23 -22 0 -40 5 -40 10 0 6 -9 10 -20 10 -10 0 -23 7 -28 15 -4 9 -24 17 -43
19 -19 2 -24 1 -11 -1 12 -2 22 -11 22 -20 0 -13 -12 -14 -80 -8 -56 5 -80 4
-80 -4 0 -6 -17 -11 -40 -11 -45 0 -58 26 -17 34 12 3 31 7 42 9 11 3 1 5 -22
6 -24 0 -43 -3 -43 -9z m160 -1225 c0 -11 11 -15 40 -15 22 0 40 -4 40 -10 0
-5 -18 -10 -40 -10 -29 0 -40 -4 -40 -15 0 -11 11 -15 40 -15 l40 0 0 -40 c0
-33 -3 -40 -20 -40 -16 0 -20 -7 -20 -37 0 -22 -9 -49 -20 -63 -11 -14 -20
-33 -20 -42 0 -11 -8 -18 -20 -18 -16 0 -20 7 -20 38 0 39 -25 86 -40 77 -5
-3 -20 5 -32 17 l-23 23 24 3 c13 2 27 -2 31 -8 5 -9 9 -9 14 -1 4 6 2 11 -3
11 -6 0 -11 18 -11 40 0 22 -4 40 -10 40 -5 0 -10 18 -10 40 l0 40 50 0 c38 0
50 -4 50 -15z m-140 -345 c0 -38 2 -40 30 -40 l30 0 0 -66 c0 -66 0 -66 -19
-43 -10 12 -28 23 -40 24 -20 2 -22 -1 -16 -37 6 -33 4 -38 -13 -38 -18 0 -21
-9 -27 -82 -5 -57 -12 -87 -24 -96 -9 -7 -10 -10 -2 -6 7 3 17 0 23 -7 7 -11
8 -9 6 6 -3 18 3 20 55 23 l57 3 0 -101 c0 -93 -10 -126 -25 -80 -4 13 -15 20
-31 20 -18 0 -24 5 -24 21 0 16 -4 19 -22 14 -13 -4 -27 -11 -32 -16 -14 -13
-26 -11 -26 4 0 7 18 21 40 31 33 15 38 20 30 35 -5 10 -6 22 -2 26 4 5 2 5
-5 1 -7 -4 -10 -13 -6 -22 4 -11 -2 -14 -26 -12 -19 1 -30 7 -27 14 2 6 -3 22
-11 35 -9 12 -11 19 -5 15 7 -4 12 -2 12 3 0 11 -11 13 -58 14 -15 0 -21 4
-18 13 6 15 -15 24 -55 24 -29 0 -29 0 -29 60 l0 60 39 0 c22 0 43 5 47 12 5
7 3 8 -7 2 -9 -5 -8 2 5 20 10 16 13 25 7 22 -6 -4 -11 0 -11 8 0 13 13 16 70
16 l70 0 0 40 c0 22 5 40 10 40 6 0 10 7 10 15 0 11 -11 15 -40 15 -22 0 -40
5 -40 10 0 6 18 10 40 10 29 0 40 4 40 15 0 8 5 15 10 15 6 0 10 -18 10 -40z
m-539 -280 c27 0 29 3 31 43 l1 42 4 -42 c3 -35 8 -43 24 -43 16 0 19 -7 19
-40 0 -33 -3 -40 -20 -40 -13 0 -20 7 -20 20 0 17 -7 20 -40 20 -33 0 -40 -3
-40 -20 0 -17 -7 -20 -40 -20 -33 0 -40 3 -40 20 0 11 -4 20 -10 20 -15 0 -12
29 4 46 8 8 31 14 50 14 34 0 36 2 38 33 1 26 2 24 5 -10 4 -40 6 -43 34 -43z"/>
<path d="M8525 4437 c-6 -7 -17 -26 -24 -44 -11 -27 -10 -35 4 -57 10 -14 24
-26 33 -26 9 0 28 -12 43 -26 30 -29 56 -25 39 6 -14 25 -13 27 11 33 19 5 21
2 15 -24 -4 -22 -2 -29 9 -29 8 0 15 5 15 10 0 6 6 10 13 10 9 0 14 -13 15
-35 1 -20 13 -51 28 -73 19 -27 25 -31 21 -14 -6 27 9 29 36 5 19 -17 20 -17
14 0 -4 11 -3 16 4 12 5 -4 7 -16 3 -27 -3 -11 -2 -18 2 -16 5 3 24 11 42 18
17 8 32 20 32 27 0 7 10 13 23 13 18 0 19 -2 7 -10 -13 -9 -12 -12 4 -25 22
-17 42 -10 27 9 -6 7 -8 16 -4 19 12 13 23 7 23 -13 0 -14 7 -20 23 -20 12 0
33 -3 46 -7 22 -5 23 -3 19 20 -3 15 -1 24 3 21 5 -3 9 1 9 10 0 17 -49 78
-59 72 -3 -2 -15 14 -26 37 l-20 41 -6 -44 -6 -45 -1 44 c-2 42 -3 43 -17 25
-14 -18 -14 -18 -15 4 0 31 38 46 63 24 9 -8 17 -19 17 -25 0 -10 58 -67 69
-67 3 0 11 15 17 34 8 26 7 38 -3 52 -7 10 -13 31 -13 46 l0 29 -128 -2 c-71
-1 -134 1 -140 5 -6 3 -13 2 -17 -4 -4 -6 -11 -7 -17 -4 -5 4 -33 8 -62 10
-28 2 -76 6 -106 8 -35 3 -59 0 -65 -7z"/>
<path d="M9090 4415 c0 -38 31 -128 50 -143 25 -20 42 -86 27 -101 -10 -10 1
-16 24 -13 4 1 4 -8 1 -20 -4 -17 -2 -20 11 -15 9 3 18 1 21 -6 3 -9 8 -8 16
3 9 11 13 12 17 3 2 -7 9 -13 15 -13 7 0 8 15 4 40 -4 25 -2 40 4 40 5 0 10
-9 10 -20 0 -11 5 -20 10 -20 6 0 10 15 10 34 0 36 16 57 26 33 2 -7 6 -34 7
-58 1 -24 7 -47 12 -51 6 -4 2 -8 -7 -8 -22 0 -23 -16 -2 -24 13 -5 14 -9 5
-20 -7 -8 -9 -25 -6 -38 5 -20 11 -24 34 -20 24 3 29 0 35 -23 4 -15 4 -36 1
-48 -6 -20 -5 -21 8 -4 8 9 19 17 25 17 5 0 13 7 16 16 5 13 9 14 21 4 9 -7
28 -13 43 -14 22 -1 28 -6 30 -28 2 -16 7 -28 11 -28 11 0 21 78 14 112 -4 21
-2 28 10 28 8 0 17 -5 19 -10 2 -6 4 7 4 30 2 45 -2 50 -16 18 -7 -17 -8 -10
-4 26 6 46 6 48 -15 41 -28 -9 -27 2 4 31 19 18 23 29 19 52 -3 16 -1 39 6 51
13 25 4 81 -12 81 -6 0 -17 -8 -24 -17 -13 -17 -13 -17 -14 0 0 9 4 17 8 17 5
0 17 7 28 16 18 15 18 15 -3 9 -14 -4 -23 -2 -23 5 0 6 -5 8 -11 4 -8 -4 -7
-9 2 -16 9 -5 4 -6 -14 -2 -16 4 -33 1 -42 -6 -9 -8 -42 -10 -99 -7 -69 4 -86
2 -86 -9 0 -8 -4 -14 -10 -14 -5 0 -10 5 -10 10 0 6 -6 10 -13 10 -9 0 -12
-21 -10 -77 l1 -78 -8 78 c-8 82 -17 105 -27 69 -3 -12 -10 -19 -15 -16 -5 3
-7 12 -4 20 3 8 -1 14 -9 14 -24 0 -25 -16 -1 -51 20 -29 21 -36 10 -47 -11
-10 -14 -10 -14 2 0 18 -27 29 -36 14 -11 -18 -23 13 -17 47 3 18 0 35 -6 39
-7 5 -7 13 2 27 10 16 9 21 -3 29 -23 15 -60 12 -60 -5z"/>
<path d="M9820 4406 c0 -9 6 -16 13 -16 8 0 7 -4 -3 -10 -13 -9 -13 -12 3 -24
13 -10 15 -15 5 -19 -7 -2 -10 -7 -6 -11 3 -4 15 -3 27 3 18 10 19 9 14 -24
-5 -33 10 -51 20 -22 2 6 3 4 1 -7 -1 -10 3 -27 9 -37 10 -16 9 -21 -3 -29
-26 -16 -39 -11 -46 18 -3 15 -8 36 -12 47 -5 18 -6 18 -12 -5 -4 -14 -3 -33
2 -42 4 -9 8 -29 7 -45 -1 -28 -1 -28 -8 -3 -7 24 -7 24 -14 -9 -5 -22 -3 -37
4 -42 16 -10 1 -89 -17 -89 -17 0 -30 46 -16 63 12 15 13 107 1 107 -5 0 -5
10 1 24 5 14 6 41 3 60 -3 21 -1 42 6 50 15 18 -1 63 -23 63 -11 0 -16 -9 -15
-26 0 -22 1 -23 8 -7 10 27 25 3 16 -25 -6 -17 -9 -19 -16 -8 -14 22 -10 -5 5
-43 19 -44 11 -82 -15 -75 -13 4 -19 0 -20 -11 0 -14 -2 -13 -9 3 -5 13 -8
-12 -8 -72 0 -51 4 -93 9 -93 5 0 9 -5 9 -11 0 -6 -7 -8 -16 -5 -14 5 -15 4
-4 -9 7 -8 16 -12 21 -9 12 7 11 41 -1 49 -16 10 -12 45 6 45 12 0 15 6 11 23
-4 12 -2 29 3 37 5 8 10 12 11 8 4 -28 2 -66 -4 -75 -11 -17 -4 -79 11 -92 9
-9 12 -8 12 4 0 8 6 15 14 15 18 0 29 -46 17 -68 -8 -13 -11 -9 -11 23 -1 22
-4 34 -7 27 -10 -27 8 -102 27 -112 18 -10 19 -8 10 15 -14 36 -13 36 15 23
18 -8 24 -17 19 -27 -3 -9 -8 -25 -10 -36 -4 -17 -3 -17 7 3 7 12 18 22 24 22
7 0 16 8 19 17 6 15 8 15 16 3 8 -13 10 -12 10 3 0 10 5 15 10 12 7 -4 9 2 4
19 -5 22 -3 26 16 26 19 0 21 2 10 15 -7 9 -13 33 -12 53 1 27 -1 33 -8 22 -5
-8 -10 -23 -10 -33 0 -10 -4 -16 -9 -13 -5 3 -16 -6 -26 -20 -13 -20 -19 -23
-31 -13 -8 6 -14 20 -14 29 0 10 -8 21 -17 23 -13 3 -14 5 -3 6 15 1 19 9 56
102 12 32 23 45 34 42 11 -3 15 5 17 37 0 22 6 47 12 54 6 7 9 21 5 30 -11 28
-20 18 -21 -24 -2 -44 -9 -60 -25 -60 -12 0 -1 99 14 118 7 8 7 12 0 12 -5 0
-12 9 -15 20 -3 12 -14 21 -29 21 -12 1 -30 2 -38 3 -8 1 -21 5 -27 9 -9 5
-13 3 -13 -7z"/>
<path d="M15550 3960 c-8 -5 -34 -10 -56 -10 -43 0 -54 -11 -54 -50 0 -13 5
-17 20 -13 11 3 20 0 20 -6 0 -6 13 -11 29 -11 22 0 30 -6 35 -25 4 -14 11
-25 16 -25 5 0 12 11 16 25 6 25 13 29 46 26 32 -4 50 59 24 85 -17 16 -74 19
-96 4z"/>
<path d="M14638 3862 c-2 -20 -8 -37 -15 -37 -6 0 -15 -3 -19 -7 -4 -4 -13 -3
-21 3 -7 6 -13 8 -13 3 0 -5 -5 -2 -10 6 -8 13 -10 12 -10 -3 0 -10 -4 -16 -9
-12 -6 3 -8 -4 -6 -15 3 -13 -1 -20 -12 -20 -9 0 -22 -8 -29 -17 -15 -21 -18
-53 -5 -53 14 0 31 -60 25 -86 -5 -18 -2 -24 10 -24 9 0 16 7 16 15 0 8 5 15
10 15 6 0 10 -9 10 -20 0 -11 -4 -20 -10 -20 -5 0 -10 -9 -10 -21 0 -14 -10
-24 -30 -32 -30 -11 -43 -47 -17 -47 8 0 24 -9 36 -19 13 -11 29 -17 37 -14 8
3 39 2 69 -2 52 -6 54 -8 44 -27 -11 -20 -10 -21 34 -15 46 6 73 -7 48 -23 -9
-5 -8 -11 4 -24 9 -9 20 -16 25 -16 4 0 10 -9 13 -20 4 -14 14 -20 35 -20 26
0 31 4 37 36 3 20 13 44 21 52 8 8 18 27 21 43 5 28 6 28 22 8 15 -19 21 -19
86 -9 71 11 95 22 76 34 -16 10 -13 43 4 50 8 3 15 0 15 -6 0 -9 3 -9 12 0 17
17 26 15 33 -8 6 -18 25 -19 25 -2 0 12 -47 62 -58 62 -6 0 -18 12 -26 28
l-14 27 -7 -27 c-4 -16 -11 -25 -16 -22 -12 7 -11 54 1 54 6 0 10 7 10 15 0
11 -11 15 -40 15 -22 0 -48 4 -58 9 -9 4 -37 15 -62 22 -43 13 -45 16 -48 56
-3 42 -27 64 -52 48 -6 -4 -17 -1 -25 5 -8 7 -24 9 -36 5 -18 -6 -21 -4 -17
12 3 11 1 28 -4 37 -9 16 -11 16 -24 -1 -13 -17 -14 -17 -7 1 4 13 3 17 -5 12
-7 -4 -12 -3 -12 2 0 5 -11 14 -24 20 -24 11 -25 9 -28 -26z"/>
<path d="M9731 3789 c-1 -9 6 -19 14 -23 8 -3 15 -11 15 -17 0 -8 -4 -8 -15 1
-14 11 -14 10 -7 -11 5 -13 6 -35 2 -49 -8 -32 -1 -60 15 -60 10 0 11 -8 3
-35 -6 -19 -15 -32 -20 -29 -5 3 -6 -25 -4 -63 2 -37 5 -99 5 -136 1 -46 5
-66 12 -62 6 4 8 14 5 22 -3 8 -1 11 5 8 5 -4 7 -16 3 -28 -5 -18 -4 -20 7
-10 15 15 19 61 7 85 -5 11 -3 22 7 31 12 13 13 24 1 81 -8 36 -12 80 -10 98
10 75 10 118 2 118 -4 0 -8 -4 -8 -10 0 -5 -4 -10 -10 -10 -16 0 -12 17 6 24
9 4 22 2 29 -4 9 -8 14 -6 19 5 3 9 -1 18 -9 21 -8 4 -12 10 -9 15 3 5 -4 9
-14 9 -11 0 -27 10 -35 23 -13 17 -16 18 -16 6z"/>
<path d="M15250 3770 c-27 -20 -32 -40 -15 -53 5 -5 -3 -6 -20 -4 -27 5 -28 4
-10 -9 10 -8 30 -14 44 -14 19 0 22 -3 13 -12 -7 -7 -12 -20 -12 -30 0 -10 -7
-18 -16 -18 -10 0 -14 6 -11 15 8 19 -13 31 -24 14 -6 -11 -9 -10 -15 4 -9 24
-23 21 -34 -8 -5 -14 -14 -25 -20 -25 -6 0 -2 -13 10 -30 25 -35 60 -41 60
-10 0 11 -4 20 -10 20 -5 0 -10 5 -10 11 0 6 8 9 17 7 10 -2 22 -19 29 -43 8
-30 16 -39 29 -37 10 2 21 -2 25 -8 6 -9 13 -9 28 -1 11 6 41 11 66 11 48 0
52 4 47 58 -1 16 4 22 19 22 22 0 26 10 8 28 -8 8 -8 15 1 26 9 11 10 20 2 33
-6 10 -11 12 -11 6 0 -7 -4 -13 -9 -13 -4 0 -6 11 -4 24 6 31 -13 42 -27 16
-12 -23 -54 -27 -95 -8 l-26 12 23 18 23 18 -25 0 c-14 0 -36 -9 -50 -20z"/>
<path d="M9983 3718 c-6 -7 -13 -29 -16 -48 -6 -31 -5 -33 7 -17 7 9 16 17 20
17 4 0 6 -8 5 -17 -3 -33 1 -43 15 -43 8 0 18 -5 21 -11 5 -7 -3 -9 -23 -6
-38 6 -54 16 -47 28 4 5 -12 8 -35 7 -35 -1 -41 -4 -37 -20 3 -11 0 -18 -9
-18 -8 0 -14 -5 -14 -11 0 -7 -7 -17 -17 -24 -22 -16 -29 -112 -13 -183 10
-46 14 -52 22 -38 7 13 7 21 -1 26 -8 4 -10 17 -6 33 8 30 25 27 25 -4 0 -10
5 -19 10 -19 6 0 10 9 10 20 0 17 3 18 26 10 44 -17 67 -13 61 11 -7 25 2 51
14 44 4 -3 6 -12 2 -20 -3 -8 0 -15 7 -15 7 0 10 -7 6 -15 -3 -8 0 -15 7 -15
7 0 23 -3 37 -5 24 -5 24 -5 3 4 -28 13 -30 31 -3 31 11 0 20 -4 20 -10 0 -5
6 -9 13 -7 7 1 11 -6 9 -19 -1 -11 2 -34 8 -50 l12 -29 15 35 c8 19 15 50 14
68 0 21 3 30 10 26 6 -4 8 -20 5 -39 -5 -22 -2 -35 6 -38 10 -4 10 -6 1 -6
-20 -1 -15 -46 7 -66 11 -10 20 -13 20 -7 0 7 9 12 20 12 11 0 20 -3 20 -7 0
-5 15 -8 33 -8 31 0 32 1 32 45 0 37 4 44 18 42 9 -2 17 2 17 8 0 5 -4 10 -10
10 -5 0 -10 7 -10 15 0 8 -6 15 -13 15 -7 0 -21 6 -31 13 -17 13 -16 15 14 34
20 13 28 23 21 27 -6 4 -11 16 -11 27 0 11 -7 19 -16 19 -11 0 -15 -6 -11 -19
6 -26 -7 -45 -27 -38 -20 8 -20 21 -1 41 19 19 19 31 0 60 -15 23 -15 23 10
19 20 -4 25 -1 25 15 0 11 -9 30 -20 43 -16 20 -19 21 -20 6 0 -14 -5 -16 -27
-11 -38 9 -38 10 -12 25 22 12 22 12 -21 25 -25 8 -53 14 -63 14 -16 0 -16 -2
-2 -30 9 -16 22 -30 30 -30 10 0 15 -10 15 -31 0 -17 -4 -28 -10 -24 -5 3 -10
13 -10 21 0 8 -9 14 -19 14 -10 0 -21 7 -25 15 -4 12 -11 13 -31 5 -33 -12
-35 -12 -35 0 0 5 11 12 25 16 38 9 30 32 -12 40 -21 4 -41 11 -44 16 -3 5
-10 3 -16 -4z"/>
<path d="M9368 3658 c-27 -34 -46 -96 -31 -107 12 -9 10 -55 -4 -64 -14 -9 -6
-37 10 -37 5 0 25 -11 42 -24 18 -14 44 -28 59 -32 27 -7 34 -20 14 -26 -10
-4 -10 -11 -2 -29 l11 -24 7 23 c6 16 14 22 29 20 12 -2 22 -10 22 -18 0 -8
-6 -14 -12 -12 -7 1 -13 -3 -13 -8 0 -5 -8 -10 -18 -10 -12 0 -18 -9 -20 -27
-2 -27 -2 -27 13 -6 8 11 25 23 37 26 13 4 28 16 33 28 15 33 43 48 55 29 7
-11 10 -2 10 33 0 36 -4 47 -15 47 -12 0 -13 4 -5 19 8 16 6 21 -10 26 -15 5
-19 12 -15 25 3 10 0 24 -8 32 -7 7 -12 19 -9 26 5 16 -22 26 -54 18 -21 -6
-25 -11 -20 -31 8 -33 -5 -37 -39 -15 -25 16 -26 20 -12 26 10 3 17 17 17 31
0 13 -4 22 -9 19 -5 -3 -14 0 -20 8 -9 11 -8 15 6 20 13 6 14 9 4 15 -7 5 -12
12 -11 17 4 21 -18 12 -42 -18z"/>
<path d="M15935 3290 c-11 -12 -16 -29 -13 -44 3 -15 1 -23 -5 -19 -5 3 -7 -3
-3 -14 3 -11 -1 -28 -9 -39 -14 -18 -16 -18 -26 -1 -13 23 -31 22 -47 -3 -7
-11 -18 -20 -26 -20 -7 0 -16 -9 -19 -20 -7 -26 -36 -37 -48 -19 -13 22 -11
37 8 41 15 3 15 4 0 17 -14 11 -18 11 -24 -5 -3 -11 -19 -34 -35 -52 -28 -32
-38 -72 -18 -72 6 0 10 -9 10 -19 0 -11 -4 -23 -10 -26 -5 -3 -10 -19 -10 -35
0 -16 -4 -32 -10 -35 -5 -3 -10 -19 -10 -34 0 -15 -7 -36 -15 -47 -14 -18 -15
-18 -26 -1 -8 14 -14 15 -24 7 -10 -8 -10 -20 -2 -53 6 -23 15 -45 21 -49 6
-4 8 -9 5 -12 -10 -10 -58 19 -70 42 -15 26 -27 28 -36 6 -4 -10 1 -22 11 -29
15 -11 14 -13 -7 -17 -14 -3 -32 1 -42 8 -22 16 -40 8 -25 -11 16 -19 -16 -35
-80 -38 -44 -3 -50 -1 -45 14 7 20 -18 32 -34 16 -14 -14 -14 -32 1 -57 10
-16 8 -22 -15 -40 -31 -24 -33 -35 -13 -76 28 -57 25 -69 -17 -69 -22 0 -37
-5 -37 -12 0 -35 -68 -18 -90 23 -9 16 -25 31 -35 33 -34 6 -68 47 -62 73 8
31 -2 68 -19 68 -18 0 -32 -29 -26 -53 4 -17 3 -18 -18 -7 -12 7 -35 9 -51 6
-23 -4 -29 -2 -29 13 0 19 -29 51 -47 51 -6 0 -14 6 -17 13 -2 6 -4 3 -4 -8 2
-47 -3 -65 -18 -65 -9 0 -22 7 -29 16 -10 14 -15 14 -34 4 -24 -12 -71 -6 -71
9 0 5 11 12 25 15 23 6 24 9 12 29 -27 48 -39 57 -84 57 -33 0 -43 4 -43 16 0
9 9 18 20 21 19 5 18 8 -12 42 -37 42 -73 50 -82 18 -7 -27 -7 -87 1 -69 7 19
23 14 23 -7 0 -13 9 -20 30 -24 18 -4 30 -13 30 -22 0 -17 -25 -21 -35 -5 -4
6 -18 10 -33 9 -15 -1 -40 5 -56 14 -16 8 -35 13 -42 10 -8 -3 -14 1 -14 9 0
7 -9 19 -20 25 -17 11 -18 10 -13 -5 7 -20 54 -66 75 -75 11 -4 14 -18 10 -59
-4 -53 -3 -55 42 -101 26 -25 62 -52 81 -58 19 -7 35 -19 35 -27 0 -9 -5 -10
-17 -4 -11 6 -25 6 -39 0 -21 -10 -21 -11 -6 -42 l16 -31 7 25 7 25 1 -27 c1
-15 5 -29 10 -33 5 -3 8 -25 5 -49 -3 -38 -1 -46 17 -51 12 -4 18 -13 15 -20
-3 -8 4 -24 15 -37 11 -13 18 -18 15 -12 -3 7 1 14 8 17 29 11 60 -58 34 -75
-8 -5 -9 -8 -2 -8 7 0 9 -11 7 -27 -4 -22 -2 -25 6 -13 10 13 12 13 21 0 8
-12 10 -13 10 -1 0 24 9 8 15 -29 7 -40 7 -41 32 -44 12 -2 17 -10 15 -23 -1
-11 2 -30 8 -44 10 -22 10 -22 6 -1 -2 12 0 20 5 16 5 -3 9 -13 9 -23 0 -10 3
-21 8 -25 7 -8 8 -13 11 -42 0 -8 5 -13 10 -10 5 4 22 -9 37 -26 15 -18 25
-26 22 -18 -3 8 -1 25 3 38 7 17 6 21 -4 16 -6 -4 -4 2 7 14 10 12 22 19 26
17 5 -3 7 3 5 12 -2 10 -4 22 -4 26 -1 5 -5 5 -11 2 -5 -3 -18 -1 -27 5 -17
11 -17 11 1 6 12 -4 17 -2 13 7 -3 8 4 13 22 14 23 2 24 1 6 -7 -18 -8 -18 -9
-2 -9 10 -1 20 6 23 14 5 12 10 13 19 5 10 -9 17 -6 26 12 7 13 12 29 11 36
-2 6 4 12 13 12 9 0 14 4 11 9 -4 5 0 12 6 14 24 10 -40 7 -65 -2 -21 -8 -26
-6 -30 10 -3 10 -1 17 4 13 5 -3 9 1 9 9 0 16 73 30 78 15 2 -4 10 -8 17 -8 8
0 11 -7 8 -21 -4 -16 -2 -20 8 -17 8 3 13 12 11 22 -2 10 4 16 18 16 17 0 20
6 20 50 0 49 0 50 25 38 20 -9 25 -18 25 -50 0 -22 5 -38 11 -38 7 0 18 -8 26
-17 8 -10 12 -13 9 -6 -10 19 17 22 38 4 14 -11 17 -12 11 -2 -6 11 -4 13 9 8
10 -4 15 -3 11 3 -3 6 1 10 9 10 9 0 16 5 16 11 0 5 4 8 9 4 6 -3 8 -14 6 -25
-2 -12 0 -18 4 -15 5 2 12 -5 16 -18 8 -22 8 -22 12 3 3 22 9 25 41 24 48 -1
81 -19 78 -41 -2 -14 -12 -18 -42 -17 -34 2 -36 0 -16 -9 12 -5 22 -16 22 -22
0 -13 28 -30 43 -26 5 1 6 -3 3 -8 -4 -5 -2 -12 3 -15 11 -7 24 41 15 56 -4 7
-3 8 4 4 7 -4 12 -14 12 -22 0 -11 6 -13 20 -9 16 5 20 2 20 -14 0 -13 6 -21
16 -21 13 0 14 3 4 15 -7 9 -9 26 -5 47 7 29 9 30 21 14 10 -14 20 -16 46 -11
50 11 58 21 54 76 -2 27 0 52 5 54 4 3 7 35 6 71 -2 64 -1 66 26 71 15 3 27 9
27 14 0 5 9 9 19 9 11 0 27 9 35 21 8 12 19 18 25 15 7 -4 9 -1 5 8 -8 21 18
14 44 -12 12 -12 25 -22 30 -23 4 0 15 -2 24 -4 10 -2 28 6 40 17 13 11 17 17
11 13 -14 -7 -18 11 -5 19 5 3 9 21 10 41 1 26 -2 34 -11 29 -9 -5 -9 -4 1 7
9 10 12 112 12 441 l0 428 -23 0 c-13 0 -32 -9 -42 -20z"/>
<path d="M12057 3164 c-17 -38 -17 -39 3 -53 11 -7 20 -20 20 -27 0 -8 9 -14
20 -14 11 0 20 -4 20 -9 0 -5 3 -17 7 -27 5 -14 2 -16 -20 -12 -19 4 -27 1
-27 -8 0 -8 5 -14 11 -14 5 0 7 -5 4 -10 -4 -6 -13 -7 -23 -1 -15 8 -17 4 -13
-32 6 -67 24 -73 50 -16 21 46 51 66 51 34 0 -11 11 -15 40 -15 39 0 40 1 37
28 -4 29 -37 45 -37 18 0 -9 -4 -16 -10 -16 -5 0 -10 9 -10 19 0 10 -7 21 -15
25 -8 3 -15 12 -15 21 0 8 7 15 15 15 8 0 15 -4 15 -10 0 -5 5 -10 10 -10 18
0 10 19 -11 25 -19 7 -20 8 -3 26 9 11 14 22 10 26 -4 5 -12 0 -17 -10 -11
-19 -29 -14 -29 9 0 18 -38 56 -50 49 -4 -3 -10 2 -12 11 -2 10 -9 2 -21 -22z"/>
<path d="M10308 3137 c-3 -33 -12 -64 -21 -75 -19 -21 -13 -32 15 -32 26 0 22
-17 -6 -22 -33 -7 -61 9 -46 27 8 9 8 15 0 20 -5 3 -10 1 -10 -6 0 -7 -7 -20
-16 -30 -15 -17 -15 -19 0 -34 18 -18 19 -25 8 -43 -5 -7 -16 -10 -25 -6 -12
4 -17 1 -17 -11 0 -15 10 -17 97 -14 94 4 97 3 102 -19 7 -28 26 -29 25 -2 0
11 3 20 8 20 4 0 8 -8 8 -17 0 -10 4 -25 10 -33 7 -12 12 -12 34 0 14 7 26 22
26 32 0 10 4 18 8 18 4 0 8 -16 8 -35 0 -44 10 -54 29 -29 8 10 15 14 15 7 0
-6 8 -9 19 -6 24 6 51 -31 52 -72 0 -21 2 -25 7 -13 5 12 12 14 21 9 7 -5 11
-13 7 -19 -9 -15 24 -24 40 -11 11 9 14 7 14 -13 0 -22 4 -25 28 -20 15 2 33
11 39 20 18 22 24 11 27 -47 2 -54 8 -67 26 -56 8 5 7 13 -3 29 -9 12 -13 34
-10 49 6 30 23 27 23 -4 0 -11 9 -30 20 -41 l20 -22 -6 31 c-5 24 -1 39 15 59
20 25 21 25 21 5 0 -11 4 -21 8 -21 18 0 62 26 62 37 0 16 21 28 29 17 3 -5
18 -15 33 -23 36 -19 56 -3 50 39 -5 36 -26 35 -27 -1 0 -43 -30 -29 -34 16
-3 32 -5 35 -10 17 l-6 -23 -22 20 c-12 12 -27 21 -33 21 -6 0 -10 8 -8 17 2
10 12 18 23 18 14 0 21 8 23 28 3 23 0 27 -22 27 -32 0 -34 16 -4 23 17 5 19
9 9 21 -10 11 -9 16 4 24 15 8 14 11 -9 30 l-27 20 -24 -24 c-32 -32 -55 -31
-55 1 0 22 -3 25 -25 19 -18 -4 -26 -2 -30 10 -3 9 -7 22 -9 30 -3 10 -13 12
-28 8 -12 -3 -17 -7 -10 -10 14 -4 17 -62 3 -62 -5 0 -12 14 -16 31 -4 17 -14
33 -23 36 -10 4 -20 11 -24 17 -6 8 -11 6 -17 -4 -7 -9 -6 -19 1 -28 9 -10 8
-16 -3 -23 -17 -11 -21 -11 -38 0 -7 5 -10 14 -7 20 4 6 0 11 -8 11 -10 0 -16
-9 -16 -25 0 -32 -15 -32 -35 -1 -9 13 -22 27 -30 29 -19 8 -56 -4 -49 -15 3
-5 -3 -12 -15 -15 -21 -5 -31 -25 -10 -20 6 1 13 -3 16 -10 2 -6 -4 -13 -14
-15 -20 -5 -73 18 -73 31 0 5 -6 11 -14 14 -10 4 -12 0 -9 -14 4 -14 0 -19
-15 -19 -14 0 -22 8 -24 23 -2 15 -9 21 -20 19 -23 -4 -23 16 -1 40 15 17 15
19 -1 37 -11 12 -13 20 -6 23 7 2 6 9 -3 22 -13 18 -15 14 -19 -37z"/>
<path d="M12258 2988 c0 -18 0 -45 1 -60 1 -16 -3 -28 -8 -28 -6 0 -11 9 -11
19 0 15 -9 20 -46 23 -43 3 -45 2 -41 -19 2 -13 0 -23 -4 -23 -5 0 -9 -9 -9
-20 0 -13 -5 -18 -15 -14 -23 9 -18 -19 6 -40 15 -12 18 -21 11 -28 -12 -12
-32 -2 -32 17 0 23 -29 25 -51 2 l-21 -22 4 24 c2 17 -3 26 -19 32 -14 5 -23
5 -23 -1 0 -6 -18 -10 -40 -10 -22 0 -40 -5 -40 -11 0 -6 12 -9 28 -6 15 2 21
2 14 0 -10 -4 -10 -8 -2 -18 6 -8 18 -11 26 -8 8 3 21 0 29 -7 8 -6 18 -9 23
-6 5 3 23 -1 39 -9 17 -8 52 -18 79 -22 27 -3 52 -11 56 -16 3 -6 26 -10 51
-9 37 2 50 -3 77 -28 18 -16 38 -30 46 -30 19 0 18 -6 -8 -40 -18 -24 -19 -33
-9 -43 10 -9 15 -9 24 4 10 14 14 14 25 3 10 -11 8 -16 -10 -26 -13 -7 -26
-11 -30 -10 -3 1 -12 -5 -18 -13 -10 -12 -8 -17 11 -24 20 -8 28 -5 44 15 12
13 31 24 44 24 19 0 23 -4 19 -25 -4 -17 -1 -25 8 -25 8 0 14 4 14 9 0 4 14
22 30 39 19 21 30 26 30 17 0 -19 14 -19 34 0 8 8 22 15 30 15 9 0 16 6 16 14
0 23 20 29 39 12 13 -12 20 -13 28 -5 13 13 43 5 43 -11 0 -5 -7 -10 -17 -10
-24 0 -93 -79 -93 -107 0 -19 5 -23 32 -23 17 0 46 5 64 12 27 9 37 9 58 -5
14 -9 27 -17 29 -17 7 0 -6 60 -14 66 -16 10 -9 43 10 54 14 7 27 7 46 -2 22
-10 28 -9 35 3 8 11 2 15 -25 17 -31 3 -33 5 -22 23 9 15 9 23 -1 39 -17 28
-15 40 8 40 13 0 20 7 20 20 0 13 -7 20 -19 20 -11 0 -21 4 -23 10 -1 5 -21
11 -43 13 -22 2 -30 2 -17 0 12 -2 22 -9 22 -14 0 -5 9 -9 20 -9 14 0 20 -7
20 -21 0 -19 -4 -21 -31 -15 -17 3 -44 6 -60 6 -23 0 -29 5 -29 20 0 21 -46
69 -66 70 -7 0 -12 -19 -12 -46 -2 -59 -7 -64 -27 -25 -9 19 -23 31 -35 31
-22 0 -27 15 -8 26 6 4 17 -1 25 -12 12 -16 15 -17 23 -4 14 21 3 61 -21 78
-10 7 -19 18 -19 23 0 21 -27 36 -72 41 -37 4 -45 2 -41 -8 5 -13 23 -18 51
-15 6 1 12 -2 12 -7 0 -5 -16 -8 -35 -7 -25 2 -35 -1 -35 -11 0 -8 -8 -18 -17
-21 -10 -4 -26 -16 -35 -28 -16 -20 -17 -19 -32 18 -11 25 -23 37 -36 37 -11
0 -20 -4 -20 -10 0 -5 -11 -10 -25 -10 -14 0 -25 4 -25 9 0 5 -3 17 -7 27 -7
18 -7 18 45 -3 8 -3 2 7 -12 22 -29 32 -35 82 -10 92 8 3 20 1 27 -6 14 -14
84 -15 92 -1 4 6 -12 10 -39 10 -34 0 -46 4 -46 15 0 10 -10 15 -30 15 -27 0
-30 -3 -32 -32z"/>
<path d="M15200 1161 c0 -7 -22 -11 -57 -11 -73 0 -94 -11 -71 -37 8 -10 25
-36 36 -59 11 -22 32 -45 45 -51 34 -16 78 -93 82 -143 1 -22 7 -46 12 -53 5
-6 16 -28 23 -47 8 -19 32 -52 53 -75 55 -55 87 -109 87 -144 0 -17 15 -51 35
-81 19 -29 35 -58 35 -65 0 -7 7 -19 17 -26 37 -31 93 -119 93 -147 0 -17 11
-41 25 -58 14 -16 42 -59 63 -96 l36 -66 143 -1 143 -2 0 560 0 561 -22 4
c-13 3 -129 7 -258 10 -335 8 -493 17 -507 29 -9 6 -13 6 -13 -2z"/>
<path d="M8136 399 c-13 -38 -24 -213 -15 -230 9 -18 5 -23 -13 -20 -5 0 -8
-16 -8 -37 0 -20 -3 -54 -6 -75 l-7 -37 37 0 c33 0 41 7 37 32 0 4 -4 90 -7
190 -4 101 -8 185 -10 187 -2 2 -6 -2 -8 -10z"/>
<path d="M8302 392 l-44 -3 4 -45 c2 -34 0 -44 -12 -44 -13 0 -13 -1 0 -10 17
-12 165 -4 226 11 37 10 40 13 36 40 -2 16 -9 29 -14 29 -5 0 -6 -9 -3 -20 7
-22 -20 -29 -28 -7 -4 10 -6 10 -6 0 -1 -7 -5 -13 -11 -13 -14 0 0 33 23 51
19 15 18 16 -14 14 -19 0 -43 -6 -55 -13 -16 -8 -25 -8 -40 1 -10 7 -39 11
-62 9z"/>
<path d="M5280 304 c-47 -24 -91 -42 -97 -39 -7 2 -13 -3 -13 -11 0 -8 -6 -22
-14 -30 -23 -22 0 -72 37 -80 22 -5 28 -10 24 -25 -10 -37 36 -19 48 19 6 22
11 23 51 17 50 -7 53 -4 23 24 -13 12 -17 21 -10 26 6 3 11 17 11 31 0 13 4
24 9 24 7 0 24 81 18 86 -1 1 -40 -18 -87 -42z"/>
<path d="M11016 142 c-9 -8 -77 -14 -160 -13 -115 1 -102 -14 26 -29 80 -9
125 -8 258 5 88 9 168 14 177 11 25 -10 83 5 83 20 0 10 -8 13 -22 10 -50 -11
-227 -15 -291 -8 -37 5 -69 6 -71 4z"/>
<path d="M11107 84 c-102 -17 -114 -22 -51 -23 28 -1 73 -4 100 -8 l49 -7 -35
-8 c-37 -7 253 -3 555 8 172 7 182 6 222 -15 36 -18 67 -22 188 -27 97 -4 145
-3 145 4 0 18 -21 20 -155 15 -129 -5 -130 -5 -140 18 -11 27 -6 27 -363 13
-112 -4 -157 -2 -168 6 -10 9 -14 9 -14 1 0 -7 -30 -11 -91 -11 -85 0 -93 2
-115 25 -13 14 -29 24 -36 24 -7 -1 -48 -7 -91 -15z"/>
</g>
</svg>
