<?xml version="1.0" standalone="no"?>
<!DOCTYPE svg PUBLIC "-//W3C//DTD SVG 20010904//EN"
 "http://www.w3.org/TR/2001/REC-SVG-20010904/DTD/svg10.dtd">
<svg version="1.0" xmlns="http://www.w3.org/2000/svg"
 width="1600.000000pt" height="739.000000pt" viewBox="0 0 1600.000000 739.000000"
 preserveAspectRatio="xMidYMid meet">
<metadata>
Created by potrace 1.16, written by Peter Selinger 2001-2019
</metadata>
<g transform="translate(0.000000,739.000000) scale(0.100000,-0.100000)"
fill="#000000" stroke="none">
<path d="M10198 7377 c-7 -7 -53 -46 -103 -87 -49 -41 -107 -91 -128 -110 -22
-19 -49 -35 -61 -35 -13 0 -22 -7 -24 -20 -2 -11 -30 -42 -63 -70 -67 -56 -79
-63 -79 -42 0 22 -21 58 -51 88 -14 14 -28 29 -30 35 -2 5 -17 20 -33 34 -30
26 -31 25 -9 -27 3 -8 -3 -13 -16 -13 -12 0 -21 5 -21 11 0 8 -4 8 -14 0 -19
-16 -31 4 -27 41 2 27 0 28 -41 29 -100 3 -144 -3 -185 -27 -23 -13 -48 -24
-57 -24 -8 0 -21 -6 -28 -12 -15 -15 -53 -34 -86 -43 -14 -4 -20 -11 -15 -18
4 -7 0 -6 -10 2 -21 17 -51 7 -43 -15 4 -9 2 -13 -5 -8 -6 4 -15 1 -19 -7 -11
-16 -111 -41 -164 -39 -21 0 -51 7 -67 16 -31 16 -42 15 -249 -12 -108 -15
-208 -39 -324 -79 -67 -23 -187 -86 -343 -181 -40 -24 -76 -44 -80 -44 -7 0
-135 -81 -143 -91 -3 -3 -24 -16 -47 -28 -23 -11 -93 -54 -156 -95 -153 -99
-282 -226 -333 -327 -20 -41 -55 -103 -78 -139 -24 -36 -52 -82 -64 -102 l-21
-37 25 -15 c21 -14 23 -21 18 -64 -3 -26 -12 -78 -21 -115 -10 -44 -14 -94
-11 -139 6 -72 3 -87 -31 -202 -14 -48 -31 -79 -54 -103 -40 -39 -77 -140 -77
-206 0 -37 -6 -49 -38 -80 -21 -20 -46 -37 -55 -37 -9 0 -17 -7 -17 -16 0 -8
5 -12 10 -9 10 6 -87 -165 -99 -175 -6 -5 -20 -29 -63 -110 -42 -79 -53 -94
-71 -108 -10 -8 -17 -21 -16 -30 3 -32 -1 -41 -21 -47 -11 -3 -20 -15 -20 -26
0 -10 -4 -19 -10 -19 -5 0 -10 -6 -10 -12 0 -18 -40 -81 -47 -75 -3 3 5 23 17
44 41 68 5 21 -71 -92 -86 -129 -81 -121 -156 -248 -115 -194 -134 -219 -172
-224 -19 -2 -51 -8 -71 -13 -23 -6 -48 -6 -73 1 -20 5 -41 8 -46 5 -4 -3 -41
15 -80 39 -40 25 -75 45 -78 45 -2 0 -37 21 -76 47 -40 26 -90 56 -112 68 -65
36 -105 59 -203 119 -51 31 -94 56 -96 56 -2 0 -7 -29 -11 -65 -3 -36 -10 -65
-13 -65 -4 0 -20 9 -36 19 -22 15 -42 18 -95 15 -243 -12 -781 -31 -1133 -40
-148 -4 -268 -10 -268 -15 0 -20 79 -32 187 -26 97 5 113 3 113 -10 0 -33 -32
-228 -38 -235 -8 -7 -298 -19 -572 -23 -330 -5 -511 -15 -534 -30 -15 -9 -87
-15 -266 -20 -135 -4 -248 -9 -251 -11 -3 -2 -96 -4 -205 -5 -109 -1 -282 -5
-384 -10 -102 -5 -234 -11 -295 -13 -60 -3 -204 -8 -320 -11 -116 -3 -329 -10
-475 -15 -146 -6 -331 -10 -412 -10 l-148 0 0 -200 0 -201 58 6 c31 3 233 10
447 15 533 14 1296 36 2055 60 349 11 799 24 1000 30 371 11 1191 35 1490 45
91 2 253 7 360 10 107 3 230 8 273 11 43 3 82 2 87 -1 5 -3 -27 -64 -71 -137
-43 -72 -79 -136 -79 -143 0 -8 -4 -15 -9 -17 -10 -4 -101 -149 -101 -162 0
-5 -9 -19 -19 -30 -10 -12 -45 -66 -76 -121 -32 -55 -71 -120 -89 -144 l-31
-44 -75 2 c-41 1 -98 -3 -125 -8 -66 -13 -577 -27 -725 -21 -215 9 -633 5
-702 -8 -113 -21 -1909 -44 -2367 -31 -97 3 -195 -1 -265 -9 -145 -18 -661
-20 -731 -4 -48 12 -175 16 -260 9 l-40 -3 -3 -1247 -2 -1247 8000 0 8000 0 0
1373 0 1373 -312 -3 c-657 -7 -745 -7 -808 2 -104 15 -676 2 -875 -19 -172
-19 -309 -27 -660 -37 -318 -9 -444 -9 -560 0 -114 9 -206 9 -380 1 -520 -25
-642 -31 -685 -34 -112 -7 -553 -19 -845 -22 -344 -3 -739 -9 -1280 -19 -187
-4 -404 -6 -483 -5 -78 0 -147 -2 -152 -5 -18 -11 -690 -20 -845 -11 -44 2
-88 7 -98 11 -12 5 -22 1 -32 -11 -15 -21 5 -20 -345 -29 -179 -4 -288 -3
-335 5 -93 15 -638 15 -685 0 -69 -23 -731 -28 -865 -7 -44 6 -132 12 -195 11
-72 0 -118 3 -122 10 -5 7 -8 3 -8 -8 0 -14 -3 -17 -10 -10 -13 13 7 59 80
189 80 143 162 307 156 313 -7 7 -35 -28 -36 -44 0 -6 -7 -11 -15 -11 -13 0
-13 2 0 17 8 9 15 21 15 27 0 10 59 104 71 113 3 3 16 25 28 48 12 24 25 42
27 39 3 -3 1 -13 -4 -24 -5 -10 -16 -31 -23 -48 -8 -16 -18 -33 -24 -37 -6 -5
-6 -8 2 -8 6 0 25 25 42 55 17 30 45 80 62 110 17 30 35 57 40 60 5 4 147 8
317 10 169 3 348 7 398 11 81 5 93 8 102 27 l11 22 0 -22 c1 -15 7 -21 19 -20
14 1 17 7 14 25 l-5 23 39 -26 c32 -22 46 -25 89 -21 27 3 199 8 380 11 646
10 901 15 1010 21 249 13 263 13 269 -3 6 -14 28 -15 169 -9 300 11 532 25
612 36 44 6 100 10 125 10 68 -2 90 8 90 39 -1 24 -2 25 -14 8 -12 -15 -14
-10 -20 40 -3 32 -1 76 5 98 12 47 13 54 10 80 -1 19 -3 19 -15 3 -11 -15 -12
-8 -9 40 2 31 7 68 10 82 5 23 6 24 13 5 12 -29 11 -42 -1 -25 -9 12 -10 12
-5 -3 3 -10 6 -24 6 -30 0 -7 4 -6 10 3 9 13 10 13 11 0 4 -31 5 -35 17 -57 7
-12 19 -52 27 -90 17 -76 43 -175 47 -178 2 0 98 2 213 6 297 10 565 18 820
24 213 5 389 10 715 20 143 5 629 17 1185 30 127 3 291 7 365 10 74 3 243 7
375 10 132 3 312 7 400 10 185 6 806 22 1240 31 165 3 325 8 355 9 30 1 192 6
360 10 168 4 319 9 335 10 17 2 38 3 48 4 16 1 17 20 17 262 l0 262 -127 -7
c-71 -3 -166 -8 -213 -11 -47 -2 -175 -7 -285 -10 -110 -4 -222 -8 -250 -10
-27 -2 -142 -7 -255 -10 -113 -3 -234 -8 -270 -10 -36 -2 -128 -6 -205 -9 -77
-4 -192 -8 -255 -11 -333 -14 -605 -25 -775 -31 -104 -3 -206 -7 -225 -9 -19
-2 -116 -6 -215 -9 -99 -4 -389 -15 -645 -26 -846 -36 -943 -40 -1247 -50
-166 -6 -308 -12 -315 -14 -7 -3 -161 -10 -342 -17 -276 -10 -330 -9 -337 2
-7 11 -9 9 -10 -6 -1 -14 -4 -10 -9 10 -7 28 -8 28 -9 5 -1 -20 -3 -22 -11
-10 -6 10 -10 11 -10 3 0 -7 -5 -13 -11 -13 -5 0 -7 4 -4 10 3 6 1 10 -5 10
-7 0 -9 8 -5 19 3 11 1 22 -5 26 -6 4 -10 -7 -10 -28 0 -37 -26 -59 -41 -35
-7 10 -12 11 -29 1 -26 -17 -90 -17 -91 0 -1 6 -1 18 0 26 2 7 -2 10 -8 6 -6
-3 -11 -14 -11 -25 0 -14 -7 -18 -35 -17 -22 1 -36 7 -38 16 -4 13 -5 12 -6
-1 -1 -23 -10 -23 -27 0 -13 16 -13 16 -14 0 0 -15 -9 -18 -50 -18 -41 0 -50
3 -50 18 -1 16 -2 15 -15 -2 -12 -16 -17 -17 -30 -6 -12 10 -15 10 -15 -4 0
-9 -8 -16 -18 -16 -12 0 -22 13 -31 44 l-12 43 -102 13 c-212 25 -195 26 -202
-3 -8 -29 -35 -58 -35 -37 0 7 -24 53 -52 102 -29 49 -62 105 -73 123 -11 19
-30 52 -42 74 -44 79 -48 86 -56 92 -4 3 -74 -4 -155 -16 l-147 -21 2 -45 c1
-24 4 -71 6 -104 1 -33 4 -83 5 -111 2 -41 9 -60 42 -104 22 -29 40 -58 40
-63 0 -5 -30 -8 -67 -6 -38 1 -81 -3 -96 -9 -37 -15 -47 -15 -47 1 0 8 -9 22
-19 31 -18 17 -19 17 -25 -2 -5 -14 -13 -18 -31 -14 -18 3 -25 0 -25 -12 0
-12 -10 -16 -37 -16 -21 0 -84 -3 -140 -7 -94 -5 -101 -4 -99 13 2 10 9 20 17
22 28 9 52 38 80 96 16 33 29 69 29 81 0 27 -42 70 -93 96 -21 11 -41 27 -44
36 -6 16 73 187 135 294 18 32 49 106 69 166 32 97 36 122 40 248 l5 140 106
0 107 0 7 -50 c20 -131 78 -215 189 -275 69 -37 168 -72 181 -64 19 12 5 43
-38 84 -38 36 -46 41 -41 23 6 -27 -1 -28 -48 -9 -87 37 -166 129 -196 230
-21 69 -17 76 44 76 30 0 39 -5 46 -23 5 -13 16 -29 25 -36 13 -11 17 -11 22
2 3 9 3 21 -1 26 -3 7 3 10 17 10 13 -1 28 -1 33 1 6 1 16 2 24 1 11 -1 11 -4
1 -17 -11 -12 -11 -15 1 -12 8 2 13 -3 11 -10 -1 -8 2 -11 7 -8 5 4 8 17 6 29
-4 19 -1 22 23 21 15 -1 32 3 39 8 7 5 17 7 22 4 5 -4 13 -1 16 5 5 8 -9 9
-49 4 -36 -5 -56 -4 -56 3 0 6 25 32 55 57 l55 47 32 -32 c48 -46 140 -106
195 -125 68 -24 112 -47 131 -69 17 -18 19 -56 10 -196 -3 -45 -3 -45 30 -46
18 -1 35 -4 38 -7 3 -3 17 -2 30 4 21 7 26 5 34 -16 8 -21 14 -24 37 -19 16 3
37 17 48 30 27 31 51 31 59 0 8 -32 45 -45 62 -21 9 12 20 16 39 11 18 -5 27
-2 31 9 11 27 24 16 24 -20 0 -20 -6 -46 -14 -58 -11 -18 -12 -33 -3 -79 10
-53 27 -79 27 -43 0 8 5 15 10 15 14 0 12 28 -2 33 -9 3 -4 11 12 25 14 12 19
21 13 22 -18 0 -16 40 2 40 28 0 73 124 53 147 -8 10 -4 12 23 7 62 -12 79
-47 37 -78 -21 -15 -21 -16 -3 -14 11 2 26 16 33 31 12 25 11 30 -25 72 -34
41 -38 43 -45 25 -11 -30 -17 -24 -13 15 2 19 -1 35 -6 35 -5 0 -9 -5 -9 -12
0 -9 -3 -9 -11 -1 -13 13 -3 36 12 28 5 -4 9 -2 9 3 0 6 -8 13 -17 16 -22 9
-69 -42 -53 -58 21 -21 9 -25 -27 -9 -46 21 -83 52 -83 70 0 7 -4 13 -8 13
-11 0 -32 46 -32 70 0 11 -7 20 -16 20 -9 0 -12 5 -8 11 4 7 1 10 -7 7 -8 -3
-26 4 -41 14 -16 11 -28 16 -28 13 0 -4 -7 1 -16 9 -8 9 -20 13 -26 10 -7 -4
-8 -2 -4 4 3 6 -3 16 -14 22 -30 16 -27 65 5 86 14 9 25 22 25 29 0 6 -23 44
-51 84 -54 78 -113 197 -103 212 3 5 33 33 67 61 34 28 91 77 127 108 92 82
426 370 545 470 55 47 141 121 190 165 50 44 119 105 155 135 35 30 83 71 105
91 22 20 54 47 70 61 57 48 133 113 176 151 42 35 44 36 47 16 2 -13 -3 -26
-13 -31 -10 -6 -14 -17 -10 -28 3 -10 1 -21 -4 -24 -12 -8 3 -65 23 -84 9 -9
24 -12 40 -8 34 8 35 50 2 98 -21 32 -22 39 -13 86 6 28 17 54 25 57 8 3 27
-6 44 -20 47 -40 74 -33 68 18 -1 16 1 16 19 5 35 -22 47 1 33 64 -8 36 -9 64
-2 88 5 19 8 42 7 50 -2 15 46 62 168 165 55 47 83 71 165 144 l35 30 -530 0
-530 0 -46 -42 c-134 -124 -140 -128 -173 -121 -17 3 -33 8 -36 11 -3 3 17 24
45 46 84 71 121 106 108 107 -6 0 -18 -6 -25 -13z m-2849 -2915 c11 -44 27
-94 36 -110 16 -26 16 -47 7 -233 -5 -112 -13 -211 -16 -220 -10 -24 -49 -39
-70 -27 -14 8 -18 6 -22 -9 -6 -21 -9 -21 -178 -22 -54 0 -104 -5 -110 -10 -7
-6 -39 -13 -71 -16 -53 -6 -63 -4 -83 15 l-23 22 -6 -21 c-7 -26 -15 -27 -31
0 -11 18 -8 33 24 112 34 82 45 99 108 157 130 121 192 185 255 265 77 97 154
185 158 182 1 -2 11 -40 22 -85z m-6434 -3554 c-4 -18 -9 -41 -11 -50 -7 -25
28 -23 51 3 16 17 17 25 8 50 -9 23 -9 29 2 29 8 0 18 -8 24 -17 9 -17 10 -17
16 0 5 11 18 17 41 17 30 0 34 -4 45 -40 7 -22 15 -40 19 -40 11 0 21 46 14
64 -4 11 -1 16 10 16 10 0 16 -8 16 -22 0 -30 -55 -124 -79 -138 -25 -13 -61
-13 -61 0 0 6 11 10 23 10 13 0 31 8 40 18 16 17 16 22 1 65 -9 26 -19 49 -23
52 -5 2 -18 -7 -31 -20 -22 -23 -22 -26 -6 -49 20 -31 20 -36 1 -36 -9 0 -19
9 -23 21 l-8 20 -18 -20 c-21 -23 -86 -30 -86 -9 0 9 -3 9 -12 0 -32 -32 -67
2 -54 53 9 36 34 55 73 55 34 0 34 -1 28 -32z m484 -320 c12 -40 14 -41 28
-23 8 11 12 30 10 43 -3 14 1 22 9 22 22 0 16 -31 -16 -87 -34 -59 -71 -89
-97 -78 -14 5 -11 9 17 18 20 7 36 20 38 31 6 28 -19 106 -33 106 -17 0 -30
-81 -14 -90 8 -6 8 -9 -1 -15 -6 -4 -17 -2 -22 3 -8 8 -17 8 -30 1 -39 -21
-62 26 -37 74 17 32 28 37 85 37 l51 0 12 -42z m8851 -312 c141 -7 210 -10
376 -21 45 -3 169 -7 275 -11 107 -3 214 -9 239 -14 25 -5 124 -11 220 -15 96
-3 194 -8 217 -11 l42 -5 3 -47 c3 -40 6 -47 26 -50 14 -2 22 -10 22 -24 0
-23 19 -23 -485 2 -104 5 -296 14 -425 20 -212 10 -407 23 -515 36 -22 2 -60
6 -85 9 -47 4 -79 10 -111 20 -11 4 -26 1 -34 -5 -16 -14 -20 -3 -6 19 5 8 14
10 21 6 9 -5 11 -4 6 3 -5 8 3 11 24 8 17 -2 33 1 36 5 6 11 -6 15 -63 23 -38
6 -43 4 -43 -14 0 -28 -20 -25 -21 3 l-2 22 -4 -22 c-4 -23 -27 -31 -37 -14
-3 5 -29 7 -57 5 -38 -2 -48 0 -41 9 5 7 6 21 1 32 -4 11 -8 14 -8 8 -1 -16
-21 -17 -21 -1 0 6 8 18 17 27 14 14 36 15 152 10 75 -4 201 -10 281 -13z"/>
<path d="M15810 7373 c0 -14 2 -15 9 -4 6 9 9 5 9 -15 0 -32 8 -74 17 -82 3
-3 5 2 5 12 0 9 4 14 10 11 6 -4 4 -19 -5 -42 -17 -40 -19 -57 -6 -49 4 3 7
-7 5 -22 -1 -14 3 -33 9 -41 7 -8 7 -12 2 -9 -7 4 -11 -7 -11 -27 0 -18 4 -31
8 -29 5 3 5 10 2 16 -4 7 -2 8 5 4 6 -4 9 -11 6 -16 -3 -5 0 -12 7 -17 7 -4
14 -24 14 -43 3 -87 13 -152 25 -167 10 -12 10 -15 2 -9 -17 10 -17 -24 -1
-60 10 -22 10 -28 0 -32 -9 -3 -9 -9 0 -25 15 -28 17 -146 3 -141 -11 4 -11
59 -1 102 3 13 1 20 -5 17 -5 -4 -9 -3 -8 2 1 4 0 13 -1 18 -3 11 -7 56 -11
125 -1 25 -4 37 -7 27 -2 -9 -7 -15 -11 -13 -4 3 -8 -1 -8 -9 0 -8 4 -12 9 -9
8 5 10 -9 11 -111 0 -33 2 -54 4 -47 3 6 9 10 13 7 5 -3 7 -12 4 -20 -4 -8 -9
-13 -13 -11 -4 3 -7 -6 -7 -19 0 -13 4 -21 8 -19 4 3 8 -2 8 -11 0 -10 -5 -13
-12 -9 -8 5 -7 0 2 -11 8 -10 15 -31 15 -46 0 -16 8 -34 19 -42 12 -9 19 -25
18 -46 -1 -28 7 -36 31 -32 5 1 6 -3 2 -9 -3 -6 -10 -8 -15 -5 -5 3 -7 -7 -4
-22 4 -26 3 -27 -11 -9 -8 10 -12 23 -8 29 3 6 1 7 -6 3 -9 -6 -8 -14 3 -32
21 -31 20 -40 -1 -23 -15 11 -16 11 -5 -1 14 -16 16 -34 3 -25 -5 3 -13 0 -17
-6 -4 -8 -3 -9 4 -5 7 4 12 3 12 -3 0 -12 -14 -21 -41 -26 -12 -3 -30 -12 -40
-21 -11 -10 -19 -14 -19 -10 0 3 -13 0 -30 -9 -16 -9 -30 -18 -30 -21 0 -3 4
-2 10 1 6 3 7 -1 4 -9 -8 -20 -12 -20 -32 2 -10 10 -13 13 -9 6 4 -7 6 -18 5
-25 -2 -8 3 -13 10 -12 6 2 12 0 12 -5 -1 -11 -49 -44 -58 -38 -10 6 -9 -110
1 -120 4 -5 16 -3 27 4 10 6 21 8 24 3 7 -10 -18 -33 -30 -29 -5 1 -19 -3 -31
-10 -18 -10 -23 -10 -23 -1 0 20 -37 -20 -59 -62 -12 -22 -18 -39 -15 -39 4 0
1 -7 -6 -15 -7 -8 -9 -15 -5 -15 4 0 0 -12 -10 -26 -12 -19 -14 -29 -6 -37 6
-6 11 -7 11 -3 0 5 6 3 14 -3 10 -8 16 -9 21 -1 3 6 10 8 15 5 5 -3 14 4 20
15 24 45 75 9 66 -47 -2 -16 -5 -32 -5 -36 -1 -5 -5 -6 -10 -3 -5 4 -7 -3 -4
-14 4 -15 -2 -22 -22 -30 -27 -10 -27 -11 -10 -30 15 -17 35 -19 35 -4 0 3 -5
2 -12 -2 -7 -4 -8 -3 -4 5 4 6 12 9 17 6 12 -8 12 -42 -1 -50 -13 -8 -13 -35
1 -35 5 0 7 5 3 12 -4 6 -3 9 2 7 5 -3 21 -11 36 -18 20 -10 52 -12 132 -6
l106 7 0 793 c-1 614 -3 795 -13 799 -9 5 -9 7 1 12 8 4 12 35 12 105 l0 99
-95 0 c-84 0 -95 -2 -95 -17z"/>
<path d="M13038 6684 c-3 -2 -75 -11 -159 -19 -85 -8 -253 -26 -374 -40 -121
-14 -263 -30 -315 -35 -52 -6 -133 -15 -180 -20 -47 -6 -148 -17 -225 -25
-113 -12 -191 -21 -212 -25 -2 0 -3 -9 -3 -19 0 -24 17 -36 33 -23 16 12 85
24 167 27 36 2 79 9 95 15 36 14 164 29 295 36 52 3 136 9 185 15 222 24 293
30 331 24 31 -4 46 -1 66 14 19 16 28 17 37 8 10 -9 15 -8 25 6 18 23 26 22
26 -5 0 -17 3 -19 11 -11 7 7 25 9 43 6 38 -7 58 -22 31 -24 -46 -3 -102 -9
-135 -14 -19 -3 -100 -12 -180 -20 -227 -24 -238 -25 -360 -40 -63 -8 -151
-17 -195 -20 -44 -3 -116 -10 -160 -15 -44 -5 -133 -15 -198 -21 -106 -11
-118 -14 -121 -33 -7 -37 -36 -340 -36 -373 0 -18 3 -33 6 -33 4 0 33 12 66
27 51 22 61 24 73 12 10 -10 17 -97 29 -344 9 -181 19 -351 22 -377 l6 -48
101 6 c56 4 129 9 162 13 l60 6 -2 85 c-2 47 -10 207 -17 355 -8 149 -18 352
-21 451 l-5 182 57 6 c32 4 114 13 183 22 69 8 166 18 216 22 l91 8 0 -51 c0
-62 21 -435 29 -492 l5 -41 82 5 c136 8 136 8 164 88 13 39 41 120 63 180 21
61 66 187 99 281 41 114 61 186 61 217 0 42 -10 64 -22 51z"/>
<path d="M375 6084 c-27 -15 -70 -44 -94 -65 -24 -22 -47 -39 -52 -39 -4 0
-13 -16 -19 -35 -12 -38 -13 -37 51 -152 l24 -42 -23 -23 c-30 -33 -28 -57 9
-95 27 -30 36 -33 92 -34 34 -1 79 -1 100 0 29 2 45 -4 63 -23 23 -22 24 -28
15 -64 -10 -35 -8 -46 15 -91 25 -48 26 -54 15 -109 -6 -32 -8 -73 -5 -90 5
-27 1 -37 -25 -64 -29 -30 -44 -88 -23 -88 4 0 14 -15 20 -34 17 -48 -3 -94
-57 -132 -23 -16 -61 -44 -84 -61 -32 -25 -52 -33 -84 -33 -26 0 -45 -5 -50
-14 -6 -10 -46 -18 -135 -27 l-128 -12 0 -69 c0 -37 3 -68 8 -68 4 1 18 7 32
15 14 8 39 14 56 15 17 0 48 7 67 15 48 20 52 19 65 -10 6 -14 19 -25 27 -25
9 0 14 4 10 9 -3 5 0 13 6 17 7 4 9 3 5 -4 -3 -6 -2 -13 4 -17 5 -3 10 2 10
11 0 16 1 16 15 -2 11 -14 14 -15 9 -3 -6 19 11 35 21 19 5 -8 11 -8 20 0 9 8
15 8 20 0 3 -5 11 -10 16 -10 6 0 7 5 4 10 -10 16 0 12 25 -10 24 -21 21 -50
-5 -50 -24 0 -17 -15 12 -26 26 -9 168 -1 478 25 66 6 183 13 260 15 77 3 199
9 270 15 72 5 214 13 318 17 l187 7 0 53 c0 29 7 65 15 81 8 15 31 66 51 113
42 96 60 124 91 141 31 17 82 129 93 206 6 44 18 78 37 106 25 35 28 48 26
106 -5 134 -78 261 -198 343 -175 120 -345 178 -685 233 -85 14 -189 31 -230
38 -41 6 -151 12 -245 12 -159 -1 -173 -2 -217 -24 l-47 -24 -42 34 c-35 28
-52 34 -103 37 -51 3 -69 -1 -111 -24z m1081 -893 c5 -5 25 -11 44 -13 42 -4
49 -24 26 -73 -9 -18 -16 -41 -16 -52 1 -16 3 -16 19 5 19 21 41 30 41 15 0
-35 42 -316 50 -337 14 -37 -8 -44 -63 -19 -23 11 -77 33 -120 49 l-78 29 6
40 c3 22 8 108 11 190 3 83 7 156 9 163 5 14 57 16 71 3z"/>
<path d="M14997 5819 c-8 -13 -18 -17 -35 -12 -13 3 -27 1 -31 -4 -10 -17 -52
-26 -49 -11 5 23 -45 15 -58 -9 -6 -13 -14 -20 -19 -15 -5 4 -5 1 -1 -6 4 -6
2 -28 -5 -47 -10 -27 -16 -32 -26 -23 -10 8 -13 7 -13 -5 0 -8 -13 -21 -30
-28 -16 -8 -35 -26 -41 -42 -7 -17 -15 -24 -19 -17 -5 8 -11 6 -19 -4 -11 -13
-10 -23 6 -56 18 -40 18 -40 73 -39 132 2 339 21 388 35 32 10 58 12 65 7 7
-5 70 -6 147 -2 117 6 136 9 150 27 12 14 21 17 33 11 10 -6 18 -5 23 2 5 8 3
9 -6 4 -10 -6 -12 -4 -7 8 3 9 3 16 -1 16 -28 -4 -44 3 -38 17 3 8 2 12 -3 9
-6 -3 -11 9 -13 27 -2 25 -7 32 -21 30 -9 -2 -17 1 -16 5 3 19 -3 22 -28 12
-26 -10 -26 -9 -10 9 16 17 16 21 2 32 -8 7 -12 16 -9 21 3 5 -1 9 -10 9 -8 0
-17 -6 -20 -12 -3 -7 -4 -2 -3 12 1 19 -3 26 -21 28 -12 2 -20 8 -17 13 9 13
-19 11 -33 -3 -8 -8 -15 -8 -27 2 -11 9 -22 11 -33 4 -20 -11 -111 -9 -170 4
-37 8 -45 7 -55 -9z"/>
<path d="M3740 5050 c0 -5 -5 -10 -11 -10 -6 0 -20 -11 -31 -25 -11 -14 -26
-25 -34 -25 -8 0 -13 -4 -10 -9 4 -5 -4 -41 -16 -80 -22 -65 -25 -69 -48 -64
-24 5 -24 5 -5 -10 14 -11 26 -12 44 -6 13 6 37 7 53 4 23 -5 27 -4 22 9 -4
10 -1 16 9 16 16 0 20 13 37 120 12 81 12 90 0 90 -5 0 -10 -4 -10 -10z"/>
<path d="M5880 5023 c-111 -4 -122 -9 -90 -34 21 -16 40 -19 120 -18 159 1
157 1 193 -31 65 -56 62 -30 -3 30 -56 52 -69 60 -100 58 -19 -1 -73 -3 -120
-5z"/>
<path d="M8996 4621 c-20 -22 -20 -50 -2 -76 7 -11 16 -36 20 -55 8 -49 31
-60 100 -51 42 6 59 4 67 -6 12 -14 47 -17 65 -5 6 4 10 17 9 30 -2 30 26 26
40 -6 13 -29 23 -28 37 4 10 22 9 28 -13 47 -34 31 -96 77 -104 77 -4 0 -14 7
-22 16 -16 16 -60 15 -109 -1 -16 -5 -22 -2 -26 13 -7 26 -43 34 -62 13z"/>
</g>
</svg>
