<?xml version="1.0" standalone="no"?>
<!DOCTYPE svg PUBLIC "-//W3C//DTD SVG 20010904//EN"
 "http://www.w3.org/TR/2001/REC-SVG-20010904/DTD/svg10.dtd">
<svg version="1.0" xmlns="http://www.w3.org/2000/svg"
 width="739.000000pt" height="1600.000000pt" viewBox="0 0 739.000000 1600.000000"
 preserveAspectRatio="xMidYMid meet">
<metadata>
Created by potrace 1.16, written by Peter Selinger 2001-2019
</metadata>
<g transform="translate(0.000000,1600.000000) scale(0.100000,-0.100000)"
fill="#000000" stroke="none">
<path d="M6580 15990 c-11 -7 -15 -29 -15 -93 0 -79 1 -83 23 -85 18 -1 22 3
22 28 0 17 4 30 10 30 16 0 49 33 43 43 -3 5 -10 3 -15 -4 -8 -11 -9 -11 -5 1
2 8 10 15 18 15 13 0 15 5 18 48 0 9 6 17 12 17 6 0 9 -12 7 -27 -2 -14 2 -28
8 -30 5 -2 10 12 11 32 l1 35 -61 0 c-34 0 -69 -5 -77 -10z"/>
<path d="M6735 15953 c-10 -77 -14 -91 -33 -109 -9 -10 -17 -23 -17 -30 0 -14
-45 -58 -75 -74 -16 -9 -22 -6 -34 17 -17 32 -22 10 -7 -31 7 -18 6 -28 -4
-36 -18 -15 -9 -38 18 -42 30 -4 35 -43 8 -51 -28 -7 -26 -22 9 -111 27 -67
31 -92 35 -199 3 -67 11 -160 19 -207 8 -47 20 -128 26 -180 36 -303 38 -310
99 -310 20 0 54 -5 76 -11 43 -11 68 -16 239 -48 60 -11 145 -29 189 -41 45
-11 87 -20 94 -20 19 0 19 789 1 809 -10 10 -10 15 -1 18 9 3 12 91 13 354 l0
349 -73 0 c-68 0 -73 -1 -74 -22 -1 -13 -9 -28 -17 -34 -16 -11 -40 -64 -33
-71 3 -2 10 10 17 27 7 16 16 30 21 30 11 0 -8 -61 -25 -78 -13 -13 -17 -13
-29 -1 -33 33 -48 117 -19 112 6 -2 12 2 12 7 0 6 10 15 23 20 14 5 -63 9
-215 9 l-237 1 -6 -47z"/>
<path d="M5811 15660 c-4 -70 -13 -102 -30 -108 -10 -3 -12 0 -8 12 4 9 3 16
-1 17 -13 1 -186 10 -230 12 -23 1 -42 -1 -42 -5 0 -13 -35 -9 -49 5 -8 6 -11
7 -8 1 4 -7 -2 -9 -19 -6 -18 3 -22 7 -13 13 8 4 10 11 6 15 -3 4 -13 2 -20
-4 -8 -7 -17 -9 -21 -5 -17 17 -55 12 -121 -18 -37 -17 -120 -39 -146 -39 -14
0 -34 9 -44 20 -22 25 -29 25 -83 0 -23 -10 -46 -20 -50 -20 -4 -1 -16 -10
-28 -21 -17 -16 -26 -18 -48 -9 -15 5 -51 10 -79 9 -41 -1 -47 -3 -27 -9 25
-8 24 -8 -5 -9 -21 -1 -26 -4 -16 -10 11 -7 11 -9 0 -14 -23 -9 41 -7 121 3
180 24 901 43 947 25 26 -10 1 -35 -36 -35 -24 0 -31 -3 -22 -9 7 -5 22 -6 33
-3 29 7 38 -14 38 -90 0 -76 6 -99 25 -92 14 6 39 -29 28 -39 -8 -9 6 -57 17
-57 6 0 10 13 10 28 0 33 27 62 58 62 11 0 23 4 26 9 3 4 19 11 36 14 17 4 30
13 30 21 0 21 -56 35 -132 32 -65 -2 -68 -1 -68 21 0 13 6 23 13 22 25 -3 38
1 32 11 -4 6 -16 10 -28 8 -19 -3 -22 2 -23 37 -1 22 -5 55 -9 74 -7 31 -6 33
14 26 28 -8 29 20 1 35 -15 8 -20 23 -23 68 l-3 57 -3 -55z"/>
<path d="M6040 15528 c-93 -38 -117 -48 -135 -51 -11 -2 12 -7 50 -10 250 -24
460 -79 608 -158 42 -22 51 -8 17 29 -22 23 -27 37 -9 26 7 -4 10 -1 7 6 -2 7
-15 15 -28 17 -29 4 -35 9 -35 31 0 19 -42 25 -63 8 -10 -7 -16 -6 -22 4 -4 7
-15 10 -24 7 -9 -4 -16 -2 -16 2 0 18 -66 49 -115 54 -44 5 -158 29 -197 41
-7 3 -24 0 -38 -6z"/>
<path d="M4019 15413 c-14 -16 -39 -34 -55 -42 -16 -7 -37 -18 -47 -23 -80
-41 -96 -51 -101 -64 -4 -12 1 -11 32 2 48 21 303 104 318 104 6 0 27 7 45 16
l34 15 -33 -5 c-20 -4 -31 -2 -27 4 3 6 -4 10 -17 10 -13 0 -45 2 -73 5 -45 5
-53 3 -76 -22z"/>
<path d="M6059 15286 c-12 -14 -26 -23 -33 -22 -6 2 -8 1 -3 -1 11 -7 8 -31
-4 -35 -7 -2 -13 -22 -15 -43 -5 -70 -5 -71 -11 -57 -5 14 -23 16 -23 3 0 -5
8 -12 19 -16 10 -3 27 -24 37 -47 10 -22 32 -49 49 -59 31 -20 103 -24 140
-10 11 5 28 3 38 -3 13 -8 24 -7 46 6 32 18 48 13 30 -9 -9 -10 -6 -13 14 -13
26 0 45 34 25 46 -7 4 -7 9 0 13 12 7 -7 81 -20 81 -5 0 -8 7 -8 15 0 20 -53
20 -70 0 -7 -8 -16 -12 -21 -9 -5 3 -9 -1 -10 -8 0 -7 -4 -4 -9 7 -6 14 -9 16
-9 4 -1 -8 -8 -24 -16 -35 -13 -17 -14 -15 -8 28 4 32 1 53 -7 63 -7 8 -9 15
-4 16 23 2 -35 18 -67 18 -42 1 -56 21 -36 51 16 26 27 25 60 -6 36 -33 46
-24 17 15 -27 39 -71 42 -101 7z"/>
<path d="M5443 15188 c-61 -20 -74 -33 -53 -54 8 -8 7 -14 -3 -22 -11 -10 -20
-7 -40 13 -19 20 -34 25 -63 24 -22 -1 -65 1 -96 4 -61 7 -108 -6 -108 -30 0
-7 4 -13 9 -13 5 0 7 -9 4 -20 -6 -22 -16 -25 -42 -11 -13 7 -22 5 -34 -10 -9
-10 -12 -19 -6 -19 5 0 7 -4 4 -10 -3 -5 1 -10 10 -10 12 0 15 -6 11 -22 -3
-13 -3 -17 0 -10 3 6 19 12 35 12 17 0 28 -4 25 -9 -7 -10 30 -22 39 -12 11
10 49 8 57 -4 5 -6 8 -6 8 3 0 6 9 12 21 12 11 0 18 -4 15 -9 -4 -6 5 -6 21
-2 16 5 27 13 26 20 -2 6 4 11 13 11 8 0 12 5 9 10 -3 6 -2 10 3 10 6 0 12 -7
15 -15 6 -14 44 -17 95 -8 18 3 23 9 20 29 -3 22 3 28 35 39 21 7 44 21 51 30
11 16 19 13 83 -29 39 -25 78 -46 86 -46 8 0 20 -7 27 -15 6 -7 32 -17 57 -21
38 -6 47 -11 59 -38 l13 -31 1 33 c0 20 4 31 10 27 20 -13 20 23 0 58 -15 26
-19 45 -15 69 3 18 2 44 -4 58 -8 20 -10 11 -10 -47 -1 -40 -4 -73 -9 -73 -4
0 -15 8 -24 18 -33 35 -102 75 -112 65 -3 -3 -6 -2 -6 4 0 13 -55 27 -94 24
-18 -2 -35 5 -47 18 -24 25 -19 25 -96 -1z"/>
<path d="M4514 14994 c-25 -13 -53 -20 -68 -17 -27 6 -60 -13 -50 -28 3 -5 9
-7 14 -4 5 3 11 1 15 -5 4 -7 13 -6 27 1 16 9 19 8 13 -3 -6 -10 -5 -11 5 -1
9 9 17 9 26 3 6 -6 42 -12 80 -14 38 -2 69 -5 69 -6 0 -1 11 -3 25 -4 14 0 31
-5 38 -9 6 -5 12 -5 12 0 0 4 5 0 11 -9 13 -23 26 -23 33 0 6 18 36 27 36 10
0 -15 28 -8 34 8 5 12 2 15 -11 10 -11 -5 -14 -4 -8 2 6 5 28 14 50 20 29 8
41 17 42 32 1 14 -5 20 -20 21 -12 0 -31 3 -42 6 -11 3 -80 6 -154 7 -119 2
-139 -1 -177 -20z"/>
<path d="M3953 14963 c-9 -24 -28 -38 -85 -64 -54 -25 -53 -43 1 -35 20 3 42
5 49 6 8 0 10 5 6 13 -6 10 -4 10 7 0 7 -7 21 -13 31 -13 11 0 15 -5 12 -15
-4 -9 -1 -15 7 -15 7 0 21 -8 32 -17 11 -10 17 -13 14 -7 -8 14 19 39 27 25 7
-10 56 9 56 22 0 10 -14 9 -27 -4 -8 -8 -13 -7 -18 2 -5 8 -4 10 3 5 8 -5 12
1 13 16 0 13 3 17 6 11 9 -23 29 -13 46 23 10 19 13 33 7 29 -5 -3 -10 -2 -10
2 0 5 -9 14 -21 21 -16 10 -24 10 -35 1 -7 -6 -19 -9 -26 -6 -23 8 -33 6 -30
-8 1 -7 -2 -16 -8 -20 -6 -4 -10 -3 -9 2 5 27 -3 43 -21 43 -11 0 -24 -8 -27
-17z"/>
<path d="M5955 14805 c-11 -18 -76 -28 -185 -29 -85 0 -124 9 -100 24 13 9 13
10 0 10 -8 0 -21 -9 -27 -19 -11 -18 -25 -20 -160 -20 -81 -1 -168 -3 -193 -6
-25 -2 -94 -9 -155 -15 -60 -6 -146 -15 -190 -20 -44 -5 -118 -12 -165 -15
-47 -4 -89 -11 -95 -17 -7 -7 2 -8 30 -4 107 16 914 58 1105 58 197 0 248 -3
303 -16 34 -8 96 -17 137 -21 63 -5 168 -25 218 -40 6 -3 12 -2 12 1 0 9 -55
27 -135 44 l-80 17 50 7 c66 8 129 1 157 -18 12 -9 29 -16 38 -16 14 1 -44 34
-130 76 -47 23 -216 41 -240 26 -13 -8 -21 -7 -29 1 -8 8 -17 8 -29 1 -9 -5
-30 -7 -47 -3 -51 11 -80 10 -90 -6z"/>
<path d="M5795 14180 c-44 -5 -138 -13 -208 -19 -71 -7 -150 -16 -175 -22
-148 -31 -249 -31 -462 0 -211 31 -281 35 -403 23 -284 -29 -616 -114 -1112
-286 -55 -19 -120 -40 -145 -46 -25 -7 -52 -18 -60 -25 -8 -7 -28 -15 -45 -19
-95 -21 -194 -55 -217 -73 -7 -6 -24 -13 -38 -16 -126 -28 -232 -68 -198 -75
10 -2 32 4 50 12 17 9 34 16 38 16 8 0 111 -60 133 -78 7 -5 33 -17 60 -27 46
-17 56 -28 38 -39 -5 -3 -12 1 -15 10 -8 21 -29 6 -23 -17 3 -10 -3 -25 -14
-35 -22 -20 -24 -34 -5 -34 9 0 13 -14 13 -50 -1 -27 -3 -50 -5 -50 -2 0 -10
7 -18 15 -9 8 -12 15 -8 15 3 0 1 7 -7 16 -10 13 -10 17 2 25 11 7 11 9 -3 9
-13 0 -18 -8 -18 -25 0 -14 -6 -25 -13 -25 -7 0 -13 -9 -14 -20 -1 -11 4 -20
13 -20 8 0 14 -9 14 -20 0 -11 -4 -20 -8 -20 -4 0 -16 -22 -27 -50 -11 -27
-22 -50 -25 -50 -8 0 -5 -41 5 -64 10 -23 -10 -106 -29 -121 -16 -13 -38 -74
-30 -86 3 -5 -2 -12 -10 -15 -26 -10 -18 -22 10 -16 25 4 25 3 19 -34 -4 -22
-13 -49 -21 -60 -7 -12 -11 -32 -8 -45 4 -21 3 -22 -7 -7 -12 15 -16 13 -41
-15 -15 -18 -28 -44 -28 -59 0 -15 -4 -29 -8 -32 -13 -8 -52 5 -46 15 3 5 -4
9 -15 9 -12 0 -22 7 -22 15 -3 28 -4 33 -11 41 -5 4 -8 -7 -8 -24 0 -37 -3
-38 -38 -14 -15 11 -50 23 -79 29 -49 9 -51 9 -56 -14 -2 -12 -1 -23 4 -23 9
0 39 -58 39 -74 -1 -6 -12 3 -26 19 l-25 30 11 -28 c13 -36 13 -37 -3 -37 -16
0 -42 41 -38 63 1 9 -3 17 -8 17 -18 0 -52 40 -45 51 4 7 16 0 30 -17 l23 -29
2 30 c1 17 1 36 0 43 -1 8 6 20 16 28 22 17 1 19 -29 3 -31 -17 -128 6 -128
30 0 13 8 16 40 14 31 -1 40 2 45 17 3 10 15 22 26 25 32 11 19 36 -24 42 -17
3 -22 -11 -19 -51 2 -12 -3 -16 -13 -13 -8 4 -17 1 -21 -5 -9 -14 -74 60 -68
77 3 7 1 16 -5 20 -19 11 -12 21 28 43 l38 22 0 -25 c1 -28 19 -55 39 -55 10
0 11 6 4 26 -13 34 -14 33 18 31 19 -1 26 2 24 14 -1 8 6 24 16 35 17 19 19
54 2 54 -18 0 -65 -22 -72 -33 -6 -9 -8 -9 -8 0 0 6 -20 15 -45 19 -25 3 -45
10 -45 14 0 4 -11 11 -25 14 -26 7 -34 37 -16 65 7 11 14 10 37 -6 44 -30 61
-34 70 -15 4 9 7 20 6 24 -2 9 28 -1 45 -15 26 -20 29 49 3 70 -12 10 -12 12
-1 13 10 0 12 8 8 29 -3 15 -1 33 6 40 8 8 6 11 -11 12 -12 1 -30 2 -39 3 -10
0 -24 12 -31 26 l-12 25 4 -30 c3 -24 -4 -38 -35 -72 l-39 -43 0 32 c0 37 -16
27 -22 -12 -2 -17 -8 -24 -20 -22 -21 3 -81 -30 -76 -43 1 -5 7 -9 12 -7 21 7
55 -9 61 -28 10 -30 -2 -41 -30 -28 -18 8 -32 8 -49 0 -18 -8 -28 -8 -42 2 -9
7 -14 17 -11 22 3 6 2 16 -3 24 -7 11 -11 8 -21 -13 -12 -27 -51 -38 -64 -17
-3 6 -19 10 -36 10 -31 0 -36 9 -17 28 15 15 58 16 58 2 0 -5 8 -10 19 -10 13
0 20 9 23 30 5 31 -10 44 -37 34 -20 -8 -19 16 2 31 14 11 12 13 -16 17 -17 3
-34 1 -37 -4 -3 -4 -14 -8 -25 -8 -10 0 -19 -4 -19 -9 0 -5 -12 -12 -26 -15
-25 -7 -26 -8 -9 -27 14 -14 16 -25 9 -42 -14 -34 -6 -167 10 -167 10 0 13
-20 14 -77 0 -69 -2 -75 -14 -58 -8 11 -12 25 -10 31 2 6 -3 11 -12 10 -14 -1
-16 7 -14 51 3 42 0 52 -15 57 -10 4 -26 13 -36 20 -16 12 -16 16 -2 42 9 18
23 29 37 29 11 0 23 6 25 13 3 7 -4 12 -16 12 -12 0 -21 5 -21 10 0 6 -15 8
-38 5 -20 -3 -46 -7 -57 -7 -11 -1 -23 -6 -26 -11 -4 -5 -12 -6 -19 -2 -9 6
-9 9 1 16 11 7 10 9 -3 9 -10 0 -18 7 -18 16 0 11 -6 15 -20 11 -10 -3 -21 0
-24 7 -3 7 -8 6 -15 -4 -14 -20 -92 -16 -108 6 -11 16 -13 13 -13 -18 0 -52 9
-68 36 -68 14 0 27 -7 31 -17 5 -14 8 -13 15 7 7 19 13 21 41 15 17 -4 47 -7
65 -6 l34 2 -3 -63 c-1 -35 3 -76 10 -92 8 -20 9 -32 1 -40 -7 -7 -10 -6 -10
2 0 20 -27 14 -42 -10 l-15 -22 -112 18 c-62 10 -123 15 -137 12 -20 -5 -24
-3 -24 14 0 14 -6 21 -18 19 -50 -5 -53 6 -16 51 15 17 23 34 19 38 -3 4 -13
-2 -20 -13 -8 -11 -19 -25 -24 -31 -5 -6 -11 -20 -13 -30 -5 -18 -5 -18 -13 1
-5 11 -15 26 -22 33 -13 13 -7 42 11 54 8 5 7 11 -2 20 -15 15 -16 100 -1 115
8 8 7 17 -3 32 -14 23 -38 27 -55 10 -14 -14 -63 1 -94 30 -18 17 -20 23 -9
36 7 8 20 15 30 15 13 0 16 6 12 25 -2 15 0 25 7 25 6 0 11 7 11 15 0 18 -17
20 -23 3 -8 -24 -39 13 -32 39 8 34 -9 28 -26 -8 -19 -44 -32 -41 -37 6 -2 22
-10 47 -18 56 -8 8 -14 19 -14 24 0 15 -41 95 -49 95 -15 0 -32 -48 -29 -81 2
-23 9 -35 21 -37 10 -2 17 3 17 12 0 9 7 16 15 16 17 0 20 -16 5 -25 -6 -3
-10 -12 -10 -18 0 -7 4 -6 10 3 8 13 10 12 10 -3 0 -29 -72 -20 -85 11 -14 31
-25 27 -25 -9 0 -36 -19 -35 -37 2 -10 18 -13 20 -13 7 0 -10 -4 -18 -10 -18
-5 0 -10 -15 -10 -32 0 -24 -3 -29 -10 -18 -5 8 -10 12 -12 10 -21 -33 -26
-54 -21 -86 4 -26 3 -35 -5 -30 -6 4 -22 2 -34 -5 -19 -10 -25 -8 -44 15 -23
25 -41 36 -29 16 4 -6 -4 -19 -17 -30 -19 -16 -20 -21 -9 -29 11 -7 10 -11 -8
-20 -11 -7 -21 -18 -21 -26 0 -21 -35 -18 -51 4 -16 22 -59 38 -59 22 0 -6 5
-11 10 -11 20 0 11 -72 -11 -91 -19 -17 -24 -17 -50 -3 -16 8 -29 20 -29 27 0
8 -4 7 -10 -3 -7 -11 -10 -11 -10 -2 0 7 -10 16 -22 21 -18 7 -25 4 -30 -10
-4 -11 -14 -19 -23 -19 -22 0 -18 -27 5 -33 20 -5 28 -27 10 -27 -5 0 -10 -9
-10 -20 0 -27 -14 -25 -28 3 -10 21 -11 20 -11 -11 -1 -29 -3 -32 -20 -22 -11
5 -23 19 -26 31 -5 16 -13 20 -33 16 -15 -3 -39 1 -55 10 -20 10 -32 11 -41 4
-7 -6 -16 -8 -19 -5 -3 3 -16 -1 -29 -10 -17 -12 -19 -16 -6 -16 9 0 18 5 20
10 4 14 83 -26 83 -43 1 -6 6 -25 13 -40 15 -35 15 -32 -5 -34 -40 -3 -56 -11
-59 -27 -3 -23 -4 -23 -34 -28 -22 -3 -25 0 -22 24 2 19 -3 30 -17 38 -21 11
-21 10 -21 -207 0 -193 2 -215 15 -197 13 18 14 17 15 -18 0 -39 -15 -52 -23
-20 -3 9 -5 0 -6 -20 0 -21 4 -38 9 -38 6 0 10 8 11 18 0 13 2 12 9 -5 7 -18
17 -23 45 -23 19 0 38 0 43 0 4 -1 8 7 10 17 3 18 43 43 68 43 7 0 16 -5 20
-12 5 -8 0 -9 -15 -5 -14 3 -24 -1 -31 -13 -15 -29 -12 -37 17 -45 40 -10 193
-16 193 -7 0 4 -11 16 -25 26 -30 23 -31 29 -3 61 22 26 42 24 34 -3 -3 -10
-1 -24 4 -32 6 -10 10 -11 10 -3 0 7 6 12 12 10 8 -1 13 11 14 33 2 57 3 60
19 60 8 0 15 7 15 16 0 9 9 18 20 21 12 3 20 14 20 27 0 18 3 16 21 -11 12
-18 22 -33 24 -33 2 0 1 16 -2 37 -4 26 -3 34 5 29 8 -5 12 1 13 16 0 17 8 8
27 -32 19 -39 34 -56 50 -58 14 -2 22 -10 22 -22 0 -10 5 -22 10 -25 13 -8 13
-25 0 -25 -6 0 -14 8 -18 18 -4 9 -18 18 -32 20 -22 2 -20 -2 20 -38 45 -39
55 -74 26 -92 -7 -5 -7 -8 3 -8 9 0 7 -6 -7 -19 -22 -18 -22 -18 26 -24 26 -3
61 -9 78 -12 28 -6 32 -4 38 18 3 15 15 27 29 31 13 3 28 16 34 29 11 23 10
24 -33 19 -51 -5 -54 3 -24 63 11 21 23 54 26 72 3 18 11 36 17 40 6 4 8 -3 3
-21 -4 -15 -2 -26 4 -26 5 0 10 8 10 18 0 14 2 15 10 2 15 -23 12 -67 -5 -74
-23 -9 -18 -26 9 -26 15 0 26 -7 29 -20 3 -11 1 -20 -4 -20 -5 0 -9 -12 -9
-26 0 -14 -4 -23 -9 -19 -5 3 -16 -4 -25 -16 -8 -12 -19 -18 -25 -14 -11 6
-28 -21 -19 -31 6 -5 210 -33 246 -34 20 0 22 4 22 60 0 45 4 62 15 66 28 11
15 24 -20 21 -27 -1 -35 -6 -32 -17 2 -10 -3 -16 -14 -17 -13 -1 -17 4 -14 25
2 15 4 34 4 43 1 9 7 17 14 16 34 -1 44 6 57 38 14 35 42 47 56 24 4 -8 9 -7
16 2 7 10 8 5 4 -13 -4 -18 -2 -28 5 -28 15 0 6 -143 -10 -148 -16 -5 -13 -58
5 -76 19 -19 130 -23 118 -4 -5 7 0 9 14 6 25 -7 50 16 31 27 -6 4 -15 2 -19
-5 -11 -18 -30 -3 -30 23 0 33 -17 54 -31 40 -13 -13 -3 -37 12 -28 5 4 9 -6
9 -20 0 -22 -3 -25 -22 -20 -21 5 -21 5 2 -9 24 -15 24 -15 4 -16 -30 0 -35
17 -40 162 l-4 128 27 0 c25 0 25 1 9 13 -17 12 -17 14 -2 20 10 4 16 18 17
39 0 30 1 31 9 10 5 -12 7 -29 4 -37 -10 -25 6 -105 20 -105 8 0 21 -10 29
-22 13 -19 16 -20 16 -5 1 9 5 17 10 17 5 0 9 -6 8 -12 0 -7 1 -29 2 -48 1
-30 3 -32 12 -17 6 10 8 25 5 33 -12 32 16 11 31 -23 19 -44 23 -73 11 -73 -4
0 -8 5 -8 10 0 18 -18 11 -25 -10 -4 -13 2 -28 18 -46 15 -16 23 -35 21 -48
-4 -20 -4 -20 5 -1 8 18 9 19 16 3 9 -21 21 -16 28 12 4 16 1 20 -16 18 -12
-2 -24 2 -25 7 -2 6 -8 16 -14 23 -7 8 -7 12 0 12 6 0 15 -7 20 -16 6 -11 11
-13 16 -5 10 16 26 14 26 -4 0 -12 28 -35 44 -35 2 0 6 15 9 33 l3 32 13 -33
c12 -30 16 -32 43 -26 21 4 28 3 24 -5 -4 -6 -16 -11 -27 -11 -21 0 -23 -8 -9
-30 8 -13 10 -12 10 3 0 14 6 18 24 15 16 -2 33 7 55 31 17 18 31 34 31 35 0
1 -9 2 -19 3 -11 1 -22 -6 -24 -15 -3 -11 -5 -7 -6 9 0 14 4 30 9 35 12 12
-16 104 -31 104 -5 0 -9 -4 -9 -10 0 -5 -4 -10 -10 -10 -5 0 -10 11 -10 25 0
17 -4 23 -15 19 -8 -4 -12 -10 -9 -15 3 -5 1 -9 -4 -9 -6 0 -12 7 -16 15 -3
10 3 17 20 21 16 4 23 12 20 20 -3 9 2 14 14 14 21 0 27 24 11 48 -6 10 -10 9
-14 -7 -3 -12 -11 -20 -19 -19 -8 2 -12 -5 -11 -19 2 -18 -2 -23 -22 -23 -14
0 -29 -8 -35 -20 -6 -11 -7 -20 -2 -20 5 0 7 -11 4 -25 -2 -14 -8 -25 -13 -25
-5 0 -9 -7 -9 -15 0 -8 -4 -15 -10 -15 -5 0 -10 9 -10 20 0 12 7 20 16 20 11
0 14 5 10 16 -3 9 -6 18 -6 20 0 2 -7 4 -15 4 -8 0 -15 7 -15 15 0 8 -6 12
-14 9 -12 -5 -15 5 -14 46 0 41 3 50 14 46 8 -3 17 1 21 10 3 8 13 14 22 13
29 -4 71 13 87 35 l16 21 -6 -21 c-6 -19 -3 -21 19 -16 23 4 24 6 9 17 -11 8
-13 14 -6 19 6 3 16 -2 21 -13 15 -28 14 -31 -11 -31 -20 -1 -21 -2 -7 -13 9
-7 19 -22 23 -34 6 -17 13 -20 39 -16 18 2 50 17 72 32 22 15 50 28 63 29 21
1 23 -2 17 -30 -5 -21 -4 -28 4 -24 7 5 11 -4 11 -25 0 -26 -3 -31 -20 -26
-13 3 -20 0 -20 -9 0 -8 8 -14 19 -14 10 0 21 -8 23 -18 6 -22 -9 -65 -20 -58
-5 3 -7 -6 -4 -19 3 -18 0 -25 -12 -25 -9 0 -16 3 -16 8 0 4 -20 7 -45 7 -42
1 -56 -7 -37 -19 5 -3 7 -31 4 -63 -4 -56 8 -69 16 -16 4 36 19 61 42 73 23
12 26 1 9 -32 -7 -13 -7 -18 -1 -14 18 11 41 -22 48 -69 4 -28 11 -45 20 -45
8 0 14 5 14 10 0 6 5 10 10 10 6 0 10 -6 10 -14 0 -10 16 -17 44 -21 53 -8 66
-2 59 26 -4 16 -2 20 8 17 8 -2 15 -15 17 -27 4 -28 7 -29 117 -39 99 -10 116
-7 108 14 -9 23 12 16 22 -8 8 -19 21 -24 70 -30 33 -4 121 -14 195 -22 157
-18 173 -19 166 -7 -7 11 34 64 42 56 4 -3 0 -10 -8 -15 -7 -4 -15 -18 -17
-29 -2 -17 2 -21 23 -21 22 0 24 2 14 15 -12 15 -6 35 11 35 5 0 9 -7 9 -15 0
-8 4 -15 10 -15 5 0 7 -7 4 -15 -4 -9 -1 -15 7 -15 8 0 24 -3 37 -6 16 -5 22
-2 22 10 0 9 5 16 11 16 5 0 8 3 6 8 -2 4 9 17 24 30 l29 24 0 -23 c0 -22 0
-22 15 -3 17 22 20 54 4 54 -5 0 -7 -4 -4 -10 7 -11 -8 -14 -18 -4 -7 8 17 34
32 34 6 0 11 9 11 20 0 11 -7 20 -16 20 -8 0 -12 5 -9 10 11 19 25 10 39 -25
17 -41 44 -39 42 3 -1 21 4 27 19 27 11 0 21 8 23 18 3 15 0 17 -15 9 -16 -9
-18 -5 -21 30 -1 22 -4 45 -5 51 -3 16 41 21 59 7 11 -10 17 -10 29 0 10 9 15
9 15 1 0 -6 9 -11 21 -11 13 0 18 -4 13 -12 -4 -6 -3 -8 4 -5 9 6 9 27 2 47
-1 3 -2 9 -1 14 1 4 -4 14 -10 22 -9 11 -9 14 1 14 6 0 14 -9 17 -20 3 -11 17
-23 32 -26 14 -3 31 -7 38 -9 7 -2 15 0 18 5 3 5 -3 11 -14 15 -25 8 -16 45
11 45 15 0 19 5 15 20 -3 11 -2 20 3 20 11 0 21 -30 14 -41 -3 -5 2 -9 10 -9
19 0 20 13 5 41 -9 19 -9 19 10 10 26 -15 28 -14 26 9 -1 21 -15 41 -15 22 0
-7 -6 -12 -14 -12 -17 0 -27 47 -12 54 6 3 4 5 -4 5 -31 -2 -40 1 -40 15 0 8
-7 17 -16 20 -9 4 -14 9 -11 12 3 4 22 -3 42 -14 39 -24 71 -20 56 6 -5 9 -5
27 1 44 8 23 7 33 -7 47 -11 13 -13 21 -6 26 6 3 11 15 11 27 0 21 38 98 54
110 6 4 35 4 65 2 51 -5 54 -4 36 9 -11 8 -31 17 -44 19 -16 2 -31 16 -43 40
l-20 37 31 33 c17 18 31 36 31 41 0 15 -46 6 -63 -13 -20 -23 -37 -26 -37 -6
0 9 -7 12 -20 9 -16 -4 -20 0 -20 21 0 16 5 26 15 26 8 0 15 5 15 10 0 6 5 10
11 10 6 0 9 -7 5 -15 -8 -22 28 -2 48 27 22 31 20 47 -5 41 -19 -5 -20 -3 -14
29 9 46 -22 78 -73 78 -29 0 -34 3 -29 20 7 27 1 25 -28 -7 -13 -16 -27 -24
-32 -19 -4 5 -2 11 5 13 6 3 12 17 12 33 0 16 6 30 13 33 9 3 9 7 0 18 -9 11
-8 18 2 33 13 17 19 17 85 5 60 -10 69 -15 65 -30 -3 -9 -1 -20 5 -24 8 -5 7
-12 -3 -23 -19 -23 -28 -50 -17 -57 4 -3 18 7 29 22 12 16 18 20 15 11 -3 -10
-1 -18 4 -18 20 0 24 41 6 61 -13 14 -15 22 -7 30 8 8 33 4 90 -15 43 -15 147
-41 231 -58 152 -31 152 -31 152 -59 0 -15 4 -39 10 -53 6 -16 6 -27 -1 -31
-6 -4 -1 -20 12 -41 19 -31 21 -44 15 -112 -11 -134 6 -220 68 -336 30 -55 66
-132 82 -171 15 -38 38 -87 51 -107 24 -39 23 -41 -14 -38 -15 1 -23 -4 -23
-14 0 -9 -4 -16 -10 -16 -21 0 -9 -20 16 -26 22 -6 24 -8 10 -16 -9 -5 -21 -6
-26 -3 -6 3 -10 2 -10 -2 0 -5 9 -14 20 -21 24 -15 21 -58 -4 -56 -16 2 -16 1
0 -17 14 -15 14 -21 4 -34 -8 -10 -9 -15 -1 -15 6 0 11 5 11 10 0 6 7 10 15
10 8 0 15 -4 15 -10 0 -5 5 -10 11 -10 8 0 8 4 0 14 -8 9 -8 16 -2 20 5 4 13
2 16 -4 5 -8 11 -8 20 0 10 8 14 7 17 -7 2 -10 -2 -23 -10 -28 -8 -7 -12 -25
-10 -49 l3 -38 23 20 c23 20 29 47 12 57 -6 4 -8 10 -5 15 8 13 -5 61 -15 55
-11 -7 -19 32 -16 73 1 17 -1 32 -6 32 -4 0 -8 5 -8 11 0 23 27 -11 40 -51 7
-22 17 -40 22 -40 4 0 8 -10 8 -21 0 -52 60 -136 203 -282 30 -31 36 -52 12
-43 -18 6 -138 22 -281 36 -104 10 -297 32 -649 75 -184 22 -438 49 -588 61
-27 2 -51 6 -55 8 -4 2 -48 7 -97 11 -50 4 -106 10 -125 15 -19 4 -80 13 -135
19 -55 6 -142 15 -192 21 -51 5 -135 15 -185 20 -254 28 -383 41 -483 50 -60
5 -171 18 -245 28 -74 11 -178 25 -230 31 -376 44 -621 74 -720 86 -63 8 -144
17 -180 20 -36 4 -108 13 -160 21 -52 8 -103 14 -112 14 -17 0 -18 -224 -18
-4571 0 -2514 4 -4569 8 -4567 12 4 107 80 222 176 55 45 104 82 109 82 9 0
68 49 137 115 18 17 39 35 47 40 8 6 52 40 98 77 46 37 89 68 96 68 7 0 17 9
23 20 6 11 30 34 53 51 23 17 58 45 77 63 19 17 63 51 96 74 34 24 84 64 111
90 27 26 85 74 128 107 43 33 117 94 165 135 48 41 125 105 171 141 46 37 98
78 114 92 42 37 189 155 249 201 28 21 58 46 67 55 8 9 37 32 63 51 27 19 62
49 78 65 19 19 32 25 35 18 2 -7 11 -9 19 -6 20 8 17 23 -3 17 -18 -5 25 36
80 79 16 12 34 27 40 32 7 6 26 20 43 33 17 12 45 34 62 50 17 16 45 35 62 42
16 7 30 18 30 24 1 13 82 76 99 76 8 0 10 -7 6 -20 -9 -30 4 -24 16 7 7 20 6
28 -3 35 -7 4 1 5 20 2 22 -5 32 -3 32 6 0 7 -7 10 -16 6 -10 -4 -14 -1 -11 6
2 7 17 13 34 14 17 0 45 12 64 27 41 32 33 35 -17 7 -23 -13 -34 -16 -32 -8 2
7 17 20 34 28 16 9 41 28 57 43 15 16 32 25 39 21 6 -4 8 -3 4 4 -3 6 12 24
36 41 24 16 58 44 77 61 18 16 41 30 50 31 9 1 23 2 31 3 8 2 29 4 45 5 17 1
24 5 18 8 -15 5 -18 33 -4 33 5 0 11 10 13 23 2 12 9 21 15 20 7 -2 10 4 7 12
-4 8 -1 15 5 15 12 0 45 25 74 58 11 12 26 22 32 22 6 0 24 14 41 31 16 17 58
54 94 82 36 29 67 55 68 59 2 5 8 8 12 8 5 0 19 10 32 22 13 13 36 32 51 43
16 11 38 28 50 39 12 10 38 30 57 45 19 14 37 28 40 31 3 3 19 16 37 28 31 22
32 22 38 2 4 -11 10 -18 15 -15 5 3 4 20 -1 38 -6 17 -12 40 -14 50 -2 10 -7
26 -10 36 -3 9 3 26 14 37 10 11 22 31 26 45 11 34 74 159 98 193 l20 28 18
-68 c10 -38 18 -83 18 -101 1 -17 6 -44 13 -60 11 -27 14 -38 20 -77 5 -31
-21 -30 -28 1 -3 15 -13 38 -21 51 -8 13 -12 29 -10 37 3 7 -8 28 -24 46 -23
25 -29 29 -26 14 9 -37 32 -90 45 -103 6 -7 12 -22 12 -32 0 -10 4 -21 9 -24
9 -6 27 -83 23 -98 -2 -10 27 -91 36 -98 19 -14 33 -53 23 -63 -13 -13 4 -47
25 -47 10 0 14 -6 10 -15 -3 -9 0 -15 9 -15 10 0 15 -10 15 -29 0 -35 50 -89
90 -97 25 -5 70 -58 70 -81 0 -6 7 -13 15 -17 8 -3 25 -26 37 -51 23 -47 40
-60 31 -24 l-6 22 30 -23 c17 -12 46 -42 64 -66 17 -24 35 -41 39 -39 3 2 30
-14 58 -36 29 -21 56 -39 61 -39 5 0 14 -7 21 -15 7 -8 20 -15 30 -15 13 0 16
6 12 27 -4 21 -2 25 11 20 9 -3 24 1 33 10 15 16 20 15 68 -10 28 -15 63 -38
78 -52 15 -14 34 -25 42 -25 8 0 16 -6 19 -12 2 -7 7 -10 11 -7 4 4 -8 22 -26
42 -18 19 -31 42 -29 52 2 13 -1 16 -13 12 -9 -4 -34 6 -60 23 -24 17 -84 50
-133 74 -48 24 -106 60 -128 80 -22 20 -52 41 -67 48 -16 7 -28 19 -28 25 0 7
-5 13 -11 13 -5 0 -8 4 -5 9 10 15 -5 42 -23 40 -9 -1 -22 -1 -30 0 -21 2
-135 124 -150 160 -7 17 -20 36 -28 42 -25 21 -52 85 -49 115 2 21 -4 36 -25
55 -29 27 -38 62 -19 74 6 4 8 11 5 16 -14 21 33 7 65 -21 19 -16 39 -29 43
-30 5 0 15 -6 22 -12 29 -26 40 -34 58 -41 14 -5 16 -11 7 -26 -13 -26 -13
-31 5 -31 7 0 18 7 23 16 8 14 11 14 26 -7 9 -13 16 -31 16 -40 0 -25 96 -75
154 -82 34 -3 88 -25 170 -67 67 -35 124 -67 127 -72 3 -4 21 -16 40 -26 189
-101 179 -93 178 -137 -1 -22 0 -47 2 -55 5 -16 18 -24 21 -12 1 4 8 13 15 20
7 7 13 22 13 33 0 29 12 23 55 -27 22 -25 49 -50 60 -55 29 -13 58 -32 75 -49
16 -16 50 -30 145 -63 33 -11 67 -25 75 -31 58 -43 109 -57 128 -33 17 21 -47
77 -84 74 -16 -1 -44 6 -64 15 -19 10 -42 18 -52 18 -9 0 -19 4 -22 9 -3 4
-21 11 -40 14 -43 7 -136 75 -136 99 0 11 -7 18 -21 18 -11 0 -34 13 -52 30
-18 16 -35 30 -39 30 -5 0 -8 11 -8 25 0 14 -4 25 -10 25 -5 0 -10 -4 -10 -9
0 -12 -227 105 -257 132 -13 11 -21 22 -19 24 2 2 43 -1 92 -7 122 -15 277
-70 336 -118 10 -8 25 -12 34 -8 9 3 22 2 29 -4 11 -10 82 -38 208 -82 33 -12
57 -27 57 -35 0 -10 6 -12 21 -8 15 5 19 4 15 -4 -4 -6 0 -14 8 -17 9 -3 16
-15 16 -25 0 -10 5 -19 10 -19 6 0 10 6 10 14 0 26 38 26 55 0 8 -13 21 -24
28 -24 6 0 25 -7 41 -15 20 -11 46 -14 83 -11 38 4 53 2 53 -7 0 -8 3 -8 9 2
11 17 41 7 41 -13 0 -24 35 -39 50 -21 9 11 16 12 25 5 9 -8 14 -6 18 4 5 12
12 12 42 3 26 -8 38 -8 47 1 9 9 8 12 -6 12 -15 0 -16 3 -7 14 7 8 20 12 30 9
10 -3 22 0 25 6 12 19 34 12 42 -11 7 -23 7 -22 16 5 9 26 12 27 59 21 32 -4
49 -3 49 4 0 13 118 4 199 -14 23 -5 23 -5 5 -26 -16 -17 -28 -20 -74 -16 -30
3 -66 2 -80 -2 -14 -4 -33 -3 -43 2 -14 7 -25 5 -40 -10 -12 -11 -32 -23 -44
-26 -11 -4 -26 -13 -33 -20 -19 -24 45 -37 166 -33 79 3 112 0 122 -9 7 -8 27
-11 50 -8 20 3 94 6 165 8 81 1 132 7 139 14 7 7 24 12 38 12 14 0 30 4 36 10
5 5 26 10 47 12 41 2 43 6 24 31 -11 15 -21 16 -78 8 -67 -9 -159 -4 -159 9 0
11 -54 20 -60 10 -3 -5 -30 -1 -59 9 -44 14 -55 22 -56 40 -1 13 -8 27 -16 32
-8 5 -28 18 -45 29 -32 21 -52 60 -30 60 6 0 35 -6 64 -14 55 -14 187 -6 264
16 30 9 76 6 225 -15 104 -14 232 -29 286 -32 l97 -7 0 55 c0 48 -3 55 -22 61
-13 3 -27 1 -32 -4 -11 -11 -95 -13 -121 -4 -9 4 -29 32 -45 63 -17 35 -47 72
-76 96 -53 44 -80 70 -174 175 -87 97 -124 136 -119 124 31 -65 49 -107 49
-115 0 -5 6 -9 13 -9 6 0 18 -12 24 -27 12 -28 70 -90 172 -187 60 -57 70 -97
24 -94 -16 2 -43 13 -62 25 -19 13 -40 23 -47 23 -7 0 -14 3 -16 8 -5 12 -80
60 -120 77 -21 8 -38 20 -38 26 0 7 -7 8 -17 4 -10 -4 -29 -8 -43 -10 -21 -2
-22 -1 -7 10 15 11 15 14 3 24 -8 7 -23 13 -35 14 -11 0 -19 5 -18 10 2 9 -15
15 -55 19 -9 1 -15 5 -12 9 7 13 -70 42 -118 45 -26 2 -58 10 -70 18 -13 9
-54 17 -95 19 -39 2 -78 8 -85 13 -7 6 -32 10 -55 9 -23 -1 -40 2 -37 7 3 4 1
8 -5 8 -5 0 -11 -6 -14 -12 -3 -10 -7 -10 -19 -1 -8 7 -45 15 -82 18 -37 3
-76 9 -86 15 -10 5 -26 10 -35 10 -8 0 -32 11 -53 24 -26 16 -43 21 -57 15
-19 -7 -19 -8 3 -8 12 -1 22 -4 22 -9 0 -9 -63 -11 -70 -1 -9 12 -80 18 -80 6
0 -5 -8 -3 -17 5 -18 16 -50 28 -67 27 -5 0 -12 3 -15 8 -15 20 -52 32 -84 26
-31 -5 -39 -1 -70 31 -20 20 -44 36 -54 36 -31 0 -123 49 -123 65 0 18 -27 20
-32 3 -3 -8 -25 -2 -69 20 -40 20 -77 31 -99 30 -50 -2 -75 14 -156 98 -39 41
-74 74 -77 74 -15 0 -6 -26 13 -38 23 -14 18 -32 -7 -32 -9 0 -42 10 -74 23
-45 17 -59 27 -59 42 0 12 -19 37 -45 59 -25 20 -43 41 -40 46 3 5 -1 20 -10
34 -18 27 -47 43 -39 21 3 -7 12 -16 20 -19 19 -7 18 -26 -1 -26 -22 0 -18
-16 13 -47 23 -23 24 -28 10 -31 -41 -8 -177 98 -178 139 0 22 20 39 50 40 14
1 -1 7 -34 14 -32 7 -62 18 -66 25 -5 8 -19 11 -38 7 -17 -4 -37 -1 -49 8 -10
7 -32 15 -48 17 -35 4 -46 35 -31 90 5 21 7 41 3 44 -8 9 -57 -16 -57 -28 0
-5 5 -6 10 -3 6 4 10 -7 10 -25 0 -18 -6 -33 -15 -36 -8 -4 -15 -17 -15 -31 0
-20 -4 -24 -22 -21 -12 2 -27 13 -33 24 -6 12 -17 29 -24 38 -7 9 -11 25 -8
36 5 19 -14 45 -25 34 -9 -9 -108 49 -108 63 0 7 -13 22 -30 35 -16 12 -30 27
-30 34 0 16 -53 54 -75 54 -9 0 -23 7 -31 15 -17 16 -74 21 -74 6 0 -5 -9 -7
-21 -4 -12 4 -18 11 -15 20 4 8 -3 17 -17 22 -18 7 -23 4 -29 -13 -10 -34 -9
72 2 140 12 73 43 171 76 239 28 57 109 155 129 155 7 0 15 5 17 10 4 13 74
39 107 40 47 0 134 -49 172 -99 21 -27 45 -47 57 -48 20 -2 21 0 7 20 -8 13
-16 33 -18 45 -2 12 -6 25 -10 28 -4 4 -7 14 -7 21 0 19 -41 73 -52 67 -4 -3
-8 3 -8 14 0 10 -7 33 -16 51 -14 28 -14 34 -1 49 14 16 14 26 0 62 -4 8 -7
18 -7 22 -3 18 -16 18 -16 0 0 -15 -5 -20 -15 -16 -8 4 -15 12 -15 20 0 8 -4
14 -8 14 -10 0 4 148 19 210 7 25 36 92 65 149 30 58 54 117 54 131 0 15 7 44
15 63 19 47 19 58 -3 50 -24 -9 -33 -25 -25 -48 5 -17 4 -18 -10 -7 -9 8 -19
22 -22 31 -8 27 -51 47 -68 33 -8 -7 -16 -9 -20 -6 -10 10 -47 -7 -47 -21 0
-26 -20 -26 -51 2 -37 34 -71 49 -63 28 3 -7 12 -16 20 -19 8 -3 14 -12 14
-20 0 -8 6 -17 13 -19 6 -3 1 -6 -12 -6 -27 -1 -199 65 -220 85 -19 18 -6 31
14 14 12 -10 15 -10 15 1 0 19 -40 83 -47 75 -7 -7 -33 13 -33 25 0 5 7 9 15
9 10 0 8 7 -9 25 -13 13 -31 55 -41 92 -10 38 -40 141 -66 231 -27 89 -49 165
-49 167 0 9 51 5 70 -5 10 -5 20 -20 24 -34 6 -25 36 -38 96 -42 236 -13 333
-12 348 2 8 9 24 13 36 10 12 -3 39 -1 61 5 22 6 67 13 100 16 33 3 68 9 77
14 9 5 25 9 36 9 15 0 22 12 33 53 14 50 14 57 -18 182 -18 72 -33 140 -33
152 0 13 11 60 24 106 14 46 30 122 37 168 6 47 22 105 36 132 16 32 26 74 30
120 6 80 21 106 57 100 38 -8 156 14 221 40 59 24 143 47 100 28 -11 -5 -28
-12 -38 -15 -10 -3 -15 -11 -12 -16 4 -7 11 -7 18 -2 7 5 29 13 51 16 31 6 38
5 33 -6 -4 -11 4 -14 29 -12 38 3 52 -10 33 -32 -10 -13 -10 -17 0 -24 7 -4
21 -6 30 -5 9 1 10 0 4 -2 -17 -6 -16 -13 5 -29 16 -13 16 -14 -5 -20 -15 -4
-23 -14 -23 -27 0 -16 3 -18 12 -9 7 7 20 12 29 12 10 0 20 6 22 13 4 7 6 8 6
1 1 -6 -6 -17 -14 -24 -15 -13 -21 -51 -7 -49 20 3 30 -3 35 -21 6 -23 27 -27
27 -5 0 8 5 15 10 15 6 0 10 -9 10 -20 0 -20 14 -21 68 -4 6 2 12 -1 12 -6 0
-21 20 -9 26 15 7 30 24 33 24 5 0 -11 5 -20 10 -20 6 0 10 5 10 10 0 6 6 10
14 10 8 0 16 5 18 10 4 13 86 42 98 35 15 -9 -2 -45 -22 -45 -14 0 -18 5 -14
16 3 9 2 12 -5 9 -6 -4 -8 -13 -5 -21 6 -16 -62 -86 -75 -78 -5 3 -9 1 -9 -5
0 -6 -11 -23 -26 -38 -14 -15 -35 -44 -47 -63 -13 -19 -32 -36 -42 -38 -11 -2
-27 -10 -35 -17 -11 -9 -44 -12 -120 -10 -58 2 -115 4 -127 4 -19 1 -21 4 -12
34 4 17 10 53 11 79 2 27 6 48 11 48 9 0 47 38 47 48 0 14 -126 8 -143 -7 -21
-17 -22 -31 -2 -31 8 0 15 -4 15 -9 0 -5 3 -16 6 -25 4 -10 -1 -18 -12 -23
-11 -4 -25 -14 -31 -24 -7 -9 -31 -20 -52 -24 -48 -8 -75 -35 -69 -69 3 -14 2
-24 -1 -23 -3 1 -24 -3 -46 -10 -22 -7 -58 -15 -80 -20 -39 -7 -40 -7 -9 -11
22 -2 34 -10 37 -23 5 -19 6 -19 54 0 26 10 68 21 93 24 25 3 77 12 115 21 58
12 94 13 205 6 74 -6 156 -14 181 -18 25 -5 65 -7 89 -6 37 2 48 -3 78 -32 19
-19 42 -34 51 -34 9 0 53 -36 99 -80 45 -44 85 -80 90 -80 4 0 24 21 43 48 36
47 143 166 209 232 19 19 48 53 65 75 16 22 70 81 120 131 49 49 113 116 140
148 28 32 115 125 195 206 259 263 395 404 420 435 227 277 350 399 519 510
37 25 89 54 114 65 l47 21 0 63 0 62 -134 1 c-94 1 -152 7 -193 18 -63 19
-260 104 -277 120 -6 5 -32 27 -58 48 -63 51 -100 106 -128 195 -20 65 -23 93
-23 250 0 97 6 211 12 252 22 134 42 223 66 300 37 120 65 264 65 338 0 161
-38 254 -145 358 -41 39 -75 74 -75 78 0 3 11 4 25 0 13 -3 39 -8 57 -10 75
-8 109 -14 119 -20 6 -3 28 -9 48 -11 20 -3 40 -9 46 -14 5 -5 18 -9 30 -9 12
0 27 -6 34 -12 11 -11 12 -10 6 1 -5 9 -4 12 3 7 7 -4 12 -14 12 -22 0 -8 7
-14 15 -14 8 0 23 -9 32 -20 18 -20 50 -29 38 -10 -3 6 -1 10 5 10 6 0 8 5 5
10 -3 6 -1 10 4 10 6 0 11 8 11 18 1 16 1 16 11 0 5 -10 15 -18 22 -18 9 0 9
2 0 8 -9 6 -7 11 7 20 17 10 18 9 13 -6 -13 -39 25 24 42 71 10 26 20 47 24
47 3 0 24 -34 46 -75 l40 -75 58 0 c32 0 74 -7 94 -15 19 -8 37 -15 39 -15 2
0 4 110 4 245 0 135 -2 245 -5 245 -3 0 -23 -9 -43 -19 -27 -14 -69 -21 -143
-26 -211 -12 -289 -13 -295 -4 -3 5 -25 9 -49 9 -37 0 -43 -3 -38 -17 5 -13 2
-15 -11 -10 -10 4 -22 7 -26 7 -5 0 -20 11 -34 25 -14 14 -30 25 -35 25 -11 0
-84 31 -133 57 -15 7 -58 14 -95 15 -44 1 -61 4 -48 9 11 4 -2 5 -29 2 -36 -5
-47 -3 -42 5 5 8 -1 12 -18 12 -14 0 -74 10 -133 21 -59 12 -142 25 -183 29
l-75 7 58 2 c85 2 61 18 -29 19 -42 1 -83 3 -92 5 -10 2 -53 1 -97 -3z m-3045
-1685 c-10 -12 -10 -19 1 -32 11 -13 11 -17 2 -20 -19 -7 -16 -23 3 -23 12 0
15 -6 11 -20 -3 -12 -1 -35 4 -52 9 -34 15 -126 8 -132 -2 -2 -17 -6 -33 -10
-25 -6 -28 -5 -24 12 4 15 1 18 -13 15 -15 -4 -18 -1 -13 11 3 9 10 16 15 16
5 0 8 15 8 33 -1 17 -3 24 -6 15 -6 -24 -15 -23 -49 7 -16 14 -31 25 -34 25
-3 0 -11 4 -19 9 -12 8 -12 12 2 26 15 14 19 14 44 1 20 -11 23 -15 11 -16
-22 0 -23 -13 -3 -30 12 -10 16 -7 25 16 9 23 8 31 -6 41 -9 7 -21 10 -25 7
-5 -3 -9 3 -9 13 0 10 -3 28 -6 41 -5 16 -2 22 10 22 10 0 16 9 16 24 0 13 7
26 15 30 10 3 15 -1 15 -13 0 -11 -5 -21 -12 -23 -9 -3 -9 -12 0 -39 l11 -34
-3 33 c-1 17 1 32 6 32 4 0 8 11 8 24 0 18 6 25 23 28 25 3 34 -16 17 -37z
m1840 -986 c0 -9 12 -43 27 -75 23 -51 25 -63 16 -105 -5 -27 -6 -54 -2 -61
16 -30 39 -173 39 -248 0 -67 -3 -83 -20 -100 -40 -40 -16 -127 62 -215 22
-25 57 -54 77 -65 45 -23 66 -45 51 -55 -19 -12 -10 -26 15 -23 13 2 25 -1 25
-7 1 -5 -32 -18 -72 -29 -40 -10 -97 -32 -127 -48 -44 -24 -71 -31 -141 -35
-80 -5 -87 -4 -92 13 -3 11 -1 28 3 39 4 11 8 35 8 53 1 18 7 43 15 55 14 23
28 79 33 132 1 17 7 90 13 164 10 129 12 137 55 224 45 89 45 90 35 148 -6 33
-8 74 -5 92 4 21 -1 52 -13 87 -11 30 -23 69 -27 85 -6 29 -6 29 9 10 8 -11
16 -27 16 -36z m1221 -1279 c10 -1 8 -5 -6 -15 -60 -46 -135 -119 -161 -157
-16 -24 -32 -44 -36 -46 -5 -2 -8 -10 -8 -17 0 -7 -7 -15 -15 -19 -9 -3 -15 0
-15 9 0 8 -6 15 -12 15 -7 0 -19 4 -26 9 -12 7 -12 12 -1 30 16 25 59 29 59 5
0 -13 3 -14 15 -4 11 9 12 17 4 31 -5 11 -7 24 -3 30 3 6 0 9 -8 7 -16 -4 -78
39 -78 54 0 11 38 48 50 48 4 0 17 9 30 20 27 24 68 26 77 5 5 -14 8 -14 24 1
10 9 27 14 39 11 11 -3 20 0 20 5 0 6 8 4 18 -5 10 -10 25 -17 33 -17z m-2469
-721 c23 -45 23 -44 -17 -63 -28 -14 -34 -21 -30 -39 3 -12 21 -103 41 -202
20 -99 42 -211 50 -249 15 -76 9 -96 -30 -96 -28 0 -230 -51 -234 -59 -1 -4
-19 -5 -40 -3 -28 2 -33 1 -22 -7 18 -12 19 -12 -46 -15 -52 -3 -52 -3 -62 33
-16 55 -33 123 -37 151 -9 65 -18 106 -25 115 -4 6 -17 39 -29 75 -27 82 -41
105 -37 65 1 -17 6 -36 10 -44 7 -10 5 -12 -3 -7 -8 5 -12 3 -10 -5 3 -24 -1
-39 -10 -39 -4 0 -11 24 -14 53 -3 28 -11 90 -16 137 -6 47 -8 93 -5 102 6 19
125 59 180 61 19 1 34 5 34 9 0 4 5 8 11 8 5 0 7 -5 3 -12 -5 -8 -2 -9 12 -4
10 4 48 15 84 23 36 9 97 24 135 33 39 10 75 17 80 16 6 -1 18 -18 27 -37z
m-858 -20 c61 -16 127 -32 146 -35 84 -13 76 -1 84 -136 4 -68 9 -139 12 -158
l5 -35 -61 -19 c-54 -16 -61 -21 -56 -40 10 -40 -69 -60 -113 -29 -14 9 -21
12 -18 6 4 -6 -1 -17 -11 -24 -9 -7 -14 -9 -10 -5 4 5 0 15 -10 23 -16 12 -16
13 3 7 18 -5 18 -4 2 6 -9 6 -22 8 -27 5 -6 -3 -10 -1 -10 5 0 6 -4 8 -10 5
-5 -3 -10 -1 -10 5 0 8 -6 8 -20 0 -16 -9 -20 -8 -20 5 0 13 -4 14 -20 5 -11
-6 -20 -8 -20 -4 0 10 82 116 105 136 20 17 20 17 -2 18 -28 0 -30 16 -3 25
11 3 20 10 20 15 0 17 -34 27 -105 33 -87 8 -93 9 -132 30 -18 9 -39 17 -47
17 -8 0 -24 9 -34 20 -19 20 -44 22 -71 6 -9 -6 -18 -4 -26 7 -16 23 -49 14
-84 -22 -17 -17 -36 -31 -43 -31 -7 0 -22 -7 -32 -15 -11 -8 -29 -12 -42 -9
-14 4 -25 0 -31 -11 -18 -32 -244 -29 -243 3 1 22 23 31 90 37 122 10 125 11
138 19 7 4 11 15 10 23 -2 11 8 19 32 25 52 14 149 53 202 83 39 22 63 27 139
31 51 2 95 7 98 10 10 10 108 -6 225 -37z m279 -681 c-15 -19 -24 -78 -13 -78
6 0 9 -3 8 -7 0 -5 6 -24 15 -43 8 -19 13 -38 10 -43 -10 -17 8 -56 29 -63 12
-3 52 -28 88 -55 38 -27 103 -62 149 -79 75 -27 93 -30 199 -30 90 1 125 5
153 18 48 23 129 89 162 131 62 80 68 86 74 73 4 -10 9 -9 20 5 13 16 13 16 3
-5 -7 -13 -9 -35 -6 -48 4 -14 2 -24 -4 -24 -5 0 -10 -7 -10 -15 0 -8 -15 -21
-33 -30 -18 -8 -48 -30 -67 -47 -51 -46 -136 -98 -160 -98 -12 0 -19 -4 -16
-9 3 -4 -8 -7 -25 -5 -16 2 -28 0 -25 -4 3 -5 -1 -9 -9 -9 -8 0 -12 4 -9 9 7
12 -8 10 -54 -6 -22 -8 -42 -13 -44 -11 -2 2 -23 5 -46 6 -23 2 -42 7 -42 13
0 5 -8 2 -18 -7 -11 -11 -22 -13 -32 -7 -9 6 -20 4 -29 -3 -11 -9 -13 -9 -8 0
7 11 -28 30 -45 25 -5 -1 -8 3 -8 9 0 5 -6 7 -12 3 -9 -5 -8 -2 1 9 12 15 12
17 0 12 -8 -3 -24 2 -34 12 -24 21 -92 62 -117 70 -10 3 -20 14 -23 24 -4 11
-15 24 -26 29 -10 6 -19 16 -19 23 0 7 -10 18 -21 26 -18 10 -19 15 -8 22 12
7 12 9 -1 10 -8 1 -18 1 -22 0 -8 -1 -12 15 -9 32 1 4 2 32 2 61 2 64 4 68 49
94 42 25 45 26 33 10z m695 -83 c2 -17 -4 -46 -12 -66 -17 -40 -64 -91 -80
-86 -6 2 -17 32 -25 66 -20 95 -1 121 84 117 26 -1 30 -5 33 -31z m-389 -54
c12 -8 41 -106 41 -143 0 -26 -40 -23 -85 8 -51 34 -63 47 -70 75 -8 34 7 51
51 59 22 4 41 8 44 9 3 0 11 -3 19 -8z m225 -28 c14 -51 17 -105 6 -117 -6 -8
-34 -20 -61 -26 -59 -15 -67 -10 -86 53 -21 70 -20 73 55 90 37 8 70 15 74 16
4 1 9 -7 12 -16z m146 -2503 c0 -5 -16 -22 -35 -37 -19 -15 -35 -34 -35 -41 0
-7 -4 -10 -10 -7 -5 3 -10 1 -10 -4 0 -14 6 -14 32 0 17 9 18 13 7 21 -12 8
-11 9 1 5 8 -2 24 5 35 15 13 13 21 15 24 7 2 -6 -12 -23 -30 -38 -19 -14 -41
-33 -49 -41 -8 -8 -44 -37 -80 -65 -36 -27 -72 -57 -80 -65 -40 -40 -180 -138
-185 -129 -4 5 -12 9 -18 8 -9 0 -9 -2 1 -6 22 -9 13 -29 -30 -61 -24 -17 -61
-46 -83 -62 -22 -17 -53 -41 -69 -53 -33 -25 -39 -30 -84 -71 -49 -46 -38 -21
13 27 25 24 45 46 45 49 0 3 -11 6 -24 6 -17 0 -23 -5 -19 -14 4 -10 0 -12
-11 -8 -9 3 -16 1 -16 -5 0 -6 -5 -11 -11 -11 -7 0 -22 -11 -35 -25 -13 -14
-25 -21 -28 -16 -6 9 32 46 84 82 19 13 45 34 58 46 12 12 49 41 81 63 33 22
61 43 63 48 1 5 34 33 73 63 38 30 119 94 180 142 60 49 117 94 125 100 8 7
35 29 59 50 45 37 61 45 61 27z m3160 -276 c48 -15 78 -29 74 -35 -3 -6 -17
-8 -30 -5 -12 3 -45 -1 -71 -10 -62 -21 -231 -14 -249 11 -9 12 -22 14 -53 9
-33 -5 -40 -4 -36 8 3 7 20 15 38 16 17 1 46 7 62 12 17 5 47 9 68 8 21 0 41
3 44 6 13 13 76 5 153 -20z"/>
<path d="M1166 14099 c-2 -8 -9 -40 -16 -71 -8 -41 -17 -59 -31 -63 -12 -4
-19 -15 -19 -30 0 -13 -4 -27 -10 -30 -17 -10 -11 -22 13 -29 15 -4 27 0 39
14 9 11 19 20 22 20 7 0 21 -70 18 -90 -3 -13 -2 -13 7 0 10 13 11 13 11 0 1
-11 4 -10 16 5 9 12 18 16 22 10 4 -6 20 -11 35 -12 34 -1 33 0 40 -40 6 -30
3 -35 -19 -32 -4 0 -11 -5 -16 -13 -7 -10 -8 -10 -6 2 2 8 -2 17 -7 19 -6 2
-15 11 -21 19 -8 10 -13 12 -18 4 -4 -6 -14 -8 -22 -5 -9 3 -20 0 -25 -8 -8
-12 -11 -12 -20 1 -7 11 -12 12 -15 3 -3 -7 -12 -9 -20 -6 -8 3 -14 2 -13 -3
3 -19 -1 -34 -11 -34 -5 0 -10 7 -10 15 0 8 -4 15 -10 15 -5 0 -10 -9 -10 -20
0 -12 -7 -20 -17 -20 -15 0 -16 -2 -3 -10 10 -6 17 -5 23 5 4 8 15 11 24 8 9
-4 19 1 25 10 5 10 13 17 17 17 13 0 19 -46 8 -66 -8 -14 -7 -16 5 -11 19 7
38 -11 38 -34 0 -10 5 -21 12 -25 7 -5 9 -2 5 8 -3 9 -3 19 1 23 4 4 7 21 7
38 0 22 5 33 18 35 12 2 17 -3 17 -17 0 -22 14 -28 25 -11 5 8 11 8 20 0 9 -8
11 -5 7 15 -3 19 0 25 14 25 11 0 24 -10 29 -22 13 -29 35 -35 35 -9 0 12 5
21 11 21 7 0 8 -7 4 -17 -4 -10 -7 -26 -7 -35 0 -10 -6 -18 -13 -18 -11 0 -13
-8 -8 -32 8 -43 11 -45 19 -14 3 14 10 26 16 26 13 0 2 -61 -14 -71 -7 -5 -11
-22 -10 -42 2 -19 -1 -38 -7 -42 -16 -9 -13 -35 4 -35 9 0 15 -10 16 -27 l1
-28 7 25 c5 17 14 25 29 24 12 -1 19 2 17 6 -3 5 1 10 7 13 10 4 11 7 1 18
-10 10 -13 10 -13 1 0 -8 -7 -6 -20 6 -15 14 -18 26 -13 53 3 18 7 55 8 81 0
26 4 51 9 55 8 9 30 -24 31 -47 0 -8 10 -15 21 -16 17 -1 23 6 27 33 4 20 4
47 1 62 -3 15 -1 45 5 65 10 38 -1 76 -23 76 -6 0 -5 -5 2 -12 15 -15 15 -48
-1 -69 -10 -14 -16 -15 -30 -4 -9 7 -17 22 -17 34 0 12 -6 21 -15 21 -10 0
-15 10 -15 33 -1 29 -2 30 -14 15 -17 -24 -26 -23 -26 3 0 11 -3 18 -7 16 -5
-3 -9 6 -10 21 0 14 -8 29 -17 34 -9 5 -16 16 -16 25 0 12 -3 13 -14 4 -21
-18 -59 35 -52 70 3 17 0 32 -9 39 -8 7 -15 19 -15 27 0 13 -3 13 -15 3 -12
-10 -18 -10 -30 0 -12 10 -16 10 -19 -1z"/>
<path d="M0 13313 c0 -70 2 -80 22 -92 19 -12 20 -15 7 -25 -9 -6 -15 -26 -14
-46 0 -19 -4 -38 -8 -41 -14 -10 5 -39 25 -39 13 0 18 5 15 14 -5 12 1 13 29
9 32 -5 47 8 25 21 -5 3 -12 21 -15 41 -4 19 -18 48 -33 65 -29 35 -22 53 21
53 27 0 34 15 14 35 -9 9 -7 13 5 18 9 3 17 9 17 13 0 12 -64 9 -72 -3 -10
-14 -28 12 -21 30 2 6 0 15 -6 19 -8 4 -11 -19 -11 -72z"/>
<path d="M7193 13156 c-10 -7 -25 -12 -33 -11 -8 1 -26 -4 -40 -11 -15 -7 -33
-8 -45 -3 -28 11 -37 11 -30 -1 3 -5 2 -10 -3 -10 -16 0 -52 -41 -46 -53 3 -7
-1 -4 -9 6 -13 16 -15 16 -21 2 -3 -9 -2 -13 4 -10 6 3 7 -1 4 -10 -6 -14 -7
-14 -18 0 -8 12 -20 14 -39 10 -15 -4 -28 -10 -28 -14 -7 -39 -7 -71 -1 -75 5
-3 7 10 6 29 -2 19 0 36 4 39 4 2 7 -14 6 -37 0 -23 -4 -40 -9 -37 -4 3 -12
-5 -16 -18 -7 -19 -12 -21 -28 -13 -14 8 -22 6 -36 -9 -10 -11 -15 -20 -11
-20 4 0 0 -7 -8 -15 -16 -17 -17 -78 -1 -92 4 -5 6 -3 2 2 -9 18 7 35 36 37
15 1 27 6 27 11 0 5 8 3 18 -4 9 -7 14 -10 10 -5 -8 9 67 86 83 86 6 0 7 6 3
13 -4 7 -3 9 2 4 5 -5 9 -14 9 -20 1 -7 6 -11 13 -10 6 2 9 -4 5 -13 -4 -11
-8 -12 -13 -4 -5 8 -9 6 -14 -6 -4 -10 -4 -15 0 -11 4 4 16 -1 27 -10 11 -10
17 -12 13 -5 -4 7 -1 12 9 12 9 0 13 5 10 10 -9 14 8 12 25 -2 8 -7 6 -2 -5
12 -11 14 -16 22 -11 18 5 -5 24 3 42 17 18 14 40 25 48 25 9 0 15 3 15 8 -1
4 -1 12 0 19 1 14 73 87 108 110 24 16 31 47 11 59 -20 12 -56 12 -75 0z"/>
<path d="M3879 12718 c-15 -16 -23 -19 -26 -10 -3 6 -10 12 -16 12 -6 0 -1
-10 11 -23 25 -26 30 -46 7 -27 -12 10 -16 8 -24 -11 -5 -14 -5 -31 1 -41 9
-18 1 -23 -28 -19 -7 1 -14 -8 -17 -19 -3 -13 0 -20 9 -20 20 0 17 -24 -5 -44
-15 -14 -24 -15 -40 -7 -25 14 -51 14 -51 1 0 -5 9 -10 19 -10 15 0 21 -8 23
-32 2 -24 7 -32 18 -29 60 15 63 15 50 -9 -7 -12 -14 -32 -16 -44 -1 -11 -4
-30 -6 -40 -2 -10 3 -21 10 -23 7 -3 12 4 12 15 0 25 36 59 42 40 9 -26 37 11
33 43 -2 16 0 29 6 29 5 0 16 15 24 33 11 27 11 33 -1 40 -19 11 -18 27 4 43
10 8 12 13 5 14 -15 0 -18 30 -3 30 14 0 12 27 -2 33 -8 3 -7 6 4 6 9 1 20 6
23 11 4 6 -6 9 -27 8 -27 -3 -34 1 -36 18 -3 18 1 20 30 17 18 -1 27 0 21 3
-7 3 -13 12 -13 20 0 20 -16 17 -41 -8z"/>
<path d="M6770 10272 c-27 -22 -50 -139 -50 -261 0 -47 -7 -123 -16 -170 -18
-94 -15 -201 7 -227 19 -23 29 -101 13 -101 -7 0 -11 4 -8 9 3 4 1 8 -5 8 -6
0 -13 11 -17 25 -11 46 -24 15 -24 -58 0 -40 7 -99 15 -132 18 -76 18 -80 -1
-99 -17 -18 -39 -22 -29 -6 3 6 4 10 0 10 -3 0 -10 -11 -15 -24 -5 -14 -25
-32 -44 -41 -32 -15 -40 -16 -83 -2 -47 15 -198 31 -257 28 -31 -2 -56 -17
-56 -33 0 -6 7 -8 14 -5 13 5 49 -7 98 -34 10 -5 24 -9 31 -9 10 0 13 -8 9
-25 -5 -26 -2 -28 53 -29 25 -1 31 -6 33 -28 4 -30 -14 -38 -35 -17 -6 6 -25
13 -42 15 -19 2 -45 18 -66 39 -20 19 -39 35 -43 35 -12 0 -136 102 -217 179
-92 86 -106 97 -200 157 -95 61 -279 132 -290 114 -7 -11 23 -31 95 -63 94
-42 104 -46 156 -80 89 -56 179 -143 194 -186 7 -22 19 -42 27 -46 9 -3 13
-12 9 -20 -3 -10 13 -27 50 -51 86 -57 75 -68 -76 -74 -69 -3 -115 -7 -103 -8
12 -1 23 -6 25 -12 2 -5 39 -15 83 -21 51 -7 87 -18 101 -30 11 -11 28 -19 37
-19 9 0 17 -4 17 -9 0 -5 19 -16 42 -26 32 -12 39 -19 27 -26 -7 -5 -24 -9
-36 -9 -12 0 -34 -5 -50 -12 l-28 -11 46 -8 c26 -4 62 -14 80 -22 19 -9 66
-25 104 -37 119 -35 193 -82 175 -110 -8 -13 -39 -15 -187 -13 -98 1 -187 6
-198 12 -11 5 -60 14 -110 21 -107 14 -244 38 -256 46 -15 9 -62 17 -101 17
-21 0 -36 2 -34 6 2 3 -15 7 -37 7 -106 3 -161 16 -206 50 -24 19 -59 39 -78
46 -18 7 -33 16 -33 20 0 4 -6 8 -14 8 -7 0 -24 8 -37 19 -13 10 -30 16 -37
14 -7 -3 -19 1 -28 7 -8 7 -17 10 -21 6 -10 -10 55 -64 106 -87 25 -12 69 -32
97 -45 28 -13 58 -24 67 -24 9 0 20 -6 24 -14 13 -22 53 -38 81 -31 20 4 40
-2 72 -23 59 -37 217 -92 243 -84 5 1 29 -4 55 -11 26 -7 58 -12 72 -11 25 3
110 -24 120 -37 3 -3 15 -9 28 -13 12 -4 20 -11 17 -16 -3 -5 0 -12 6 -16 8
-4 9 -3 5 4 -10 17 -2 15 36 -8 19 -11 44 -21 56 -23 12 -2 25 -7 29 -12 5 -4
3 -5 -3 -2 -7 4 -18 -1 -25 -10 -12 -14 -12 -16 2 -11 8 3 26 0 40 -8 13 -7
36 -13 51 -14 26 0 54 -30 41 -44 -3 -3 3 -6 14 -6 11 0 26 -7 33 -15 9 -11
33 -15 84 -15 41 0 77 -5 84 -12 21 -21 34 42 39 197 3 83 10 158 15 168 5 10
8 73 7 140 -2 187 0 201 31 271 17 36 30 75 30 86 0 11 4 20 8 20 5 0 28 28
53 63 33 46 55 93 84 182 21 66 42 127 46 135 4 8 16 38 27 66 l20 51 -24 -5
c-15 -3 -25 -13 -29 -33 -4 -15 -14 -31 -24 -34 -10 -3 -24 -24 -31 -48 -8
-23 -20 -51 -27 -62 -20 -30 -17 0 12 95 28 95 30 109 13 145 -11 24 -12 25
-31 8 -19 -17 -20 -17 -14 -1 4 13 2 15 -10 11 -14 -6 -16 4 -10 85 5 74 3 92
-8 92 -27 0 -29 49 -5 155 8 33 22 69 32 79 31 34 23 47 -12 18z"/>
<path d="M5074 8729 c-3 -5 -10 -6 -16 -3 -7 4 -8 2 -4 -4 4 -7 13 -12 20 -12
8 0 19 -7 26 -15 7 -8 16 -12 21 -9 5 2 52 -9 106 -26 53 -16 108 -30 121 -30
18 0 22 -4 17 -19 -3 -11 -1 -22 5 -26 7 -4 14 2 17 13 5 23 -4 24 173 -36
152 -53 199 -66 206 -60 9 10 -55 49 -114 69 -31 11 -72 27 -91 36 -100 46
-300 96 -428 106 -11 1 -19 5 -17 8 2 4 -5 9 -16 12 -11 3 -23 1 -26 -4z"/>
<path d="M6565 8271 c-6 -5 -44 -16 -85 -25 -173 -40 -203 -48 -233 -67 -31
-19 -32 -19 -7 -20 60 -2 335 3 339 6 2 3 7 23 11 46 11 58 0 84 -25 60z"/>
<path d="M6535 8053 c-77 -28 -200 -74 -250 -95 -103 -43 -107 -45 -95 -53 16
-10 107 -8 145 4 17 4 39 5 50 1 11 -3 43 -5 70 -3 28 2 69 4 92 5 39 2 41 4
47 38 9 55 7 85 -6 102 -12 13 -18 13 -53 1z"/>
<path d="M6499 7759 c-112 -31 -326 -105 -349 -120 l-21 -14 25 -1 c16 -1 23
2 19 9 -3 6 -1 7 5 3 7 -4 67 -2 134 5 68 6 146 11 173 11 28 -1 55 2 61 6 9
6 30 124 22 121 -2 -1 -33 -9 -69 -20z"/>
<path d="M6507 7433 c-4 -3 -48 -20 -99 -37 -60 -20 -92 -36 -90 -44 1 -8 -1
-11 -5 -9 -5 2 -17 1 -27 -2 -26 -10 106 -34 159 -29 31 2 41 8 43 23 2 11 10
37 19 58 15 35 15 56 0 40z"/>
<path d="M6820 6981 c0 -10 32 -35 151 -121 77 -55 178 -139 299 -251 71 -65
90 -76 90 -51 0 21 -144 172 -200 211 -19 14 -51 38 -70 53 -50 41 -47 39
-135 93 -44 27 -82 52 -85 56 -9 12 -50 21 -50 10z"/>
<path d="M6920 6414 c0 -34 190 -247 332 -371 54 -47 142 -59 91 -12 -32 29
-133 138 -133 143 0 2 -28 31 -62 63 -34 32 -82 77 -107 101 -25 23 -51 42
-57 42 -6 0 -19 9 -29 20 -17 19 -35 26 -35 14z"/>
<path d="M3743 6058 c-2 -5 4 -8 14 -8 39 0 42 -11 28 -89 -19 -95 -24 -113
-36 -105 -5 3 -22 -5 -37 -17 l-27 -21 38 4 c20 2 37 1 37 -3 0 -12 -29 -31
-39 -25 -5 3 -7 -2 -5 -11 5 -18 -33 -43 -63 -43 -7 0 -13 -9 -13 -20 0 -12 7
-20 18 -20 13 0 14 2 4 9 -11 7 -11 9 2 14 10 4 16 1 16 -7 0 -9 7 -12 19 -9
10 3 22 0 25 -6 4 -6 0 -11 -10 -11 -10 0 -25 -7 -35 -16 -10 -9 -24 -14 -31
-11 -8 3 -4 9 12 15 24 10 23 11 -12 11 -21 1 -38 -3 -38 -9 0 -5 -5 -10 -11
-10 -6 0 -9 6 -6 14 3 8 -1 17 -10 20 -11 4 -14 2 -9 -9 3 -8 4 -15 3 -15 -1
0 -16 4 -33 9 -25 7 -30 6 -31 -10 -1 -13 5 -18 25 -17 38 1 88 -9 109 -21 17
-10 16 -10 -3 -11 -12 0 -25 -8 -28 -17 -6 -15 -9 -15 -16 -3 -5 8 -6 18 -4
22 3 4 1 8 -5 8 -5 0 -13 -10 -16 -21 -4 -12 -10 -17 -14 -11 -10 16 -46 19
-43 4 1 -8 -2 -11 -8 -7 -6 3 -8 11 -5 16 4 5 -7 9 -24 9 -16 0 -33 -4 -36
-10 -4 -6 5 -10 19 -10 14 0 26 -4 26 -9 0 -5 10 -12 23 -16 13 -4 17 -8 10
-11 -7 -3 -23 2 -35 10 -26 19 -64 21 -74 5 -5 -9 1 -10 21 -5 25 6 27 5 15
-9 -7 -9 -19 -14 -27 -11 -7 3 -13 -1 -13 -11 0 -12 -3 -13 -14 -4 -11 10 -17
8 -25 -6 -6 -10 -11 -13 -11 -6 0 8 -13 8 -49 -2 -28 -7 -52 -11 -54 -8 -3 2
-21 -5 -41 -17 -39 -22 -61 -26 -51 -10 11 18 -37 11 -51 -7 -13 -17 -13 -17
-14 0 0 10 -4 16 -9 13 -5 -4 -12 0 -15 6 -3 7 -3 2 0 -12 4 -14 3 -22 -1 -18
-4 4 -12 2 -19 -3 -6 -5 -19 -15 -29 -22 -17 -12 -17 -14 7 -42 27 -31 26 -31
30 18 1 14 62 47 85 46 9 -1 5 -4 -9 -8 -18 -5 -25 -14 -27 -35 -1 -16 -11
-35 -22 -43 -12 -8 -21 -20 -21 -28 0 -17 -31 -35 -59 -35 -11 0 -23 -5 -27
-12 -5 -8 0 -9 14 -6 29 8 28 -8 0 -16 -21 -6 -19 -8 17 -21 22 -8 42 -15 44
-15 2 0 -2 -7 -9 -15 -17 -21 -6 -30 13 -10 11 11 26 13 54 9 64 -10 75 -26
16 -21 -29 2 -55 2 -58 -1 -3 -3 -19 -7 -36 -8 -29 -2 -30 -1 -15 15 28 30 17
34 -18 7 -19 -14 -37 -26 -39 -26 -9 0 -2 35 8 42 6 5 5 8 -3 8 -7 0 -20 -9
-29 -20 -10 -11 -25 -20 -35 -20 -9 0 -21 -6 -25 -14 -13 -22 -47 -36 -64 -25
-7 5 -11 9 -6 10 4 1 12 3 17 4 6 1 18 3 27 4 9 0 13 4 9 8 -13 13 -40 9 -56
-8 -25 -26 -84 -53 -88 -40 -2 6 -8 11 -13 11 -6 0 -7 -4 -4 -10 3 -5 0 -10
-8 -10 -14 0 -47 -30 -47 -43 0 -4 5 -7 11 -7 5 0 7 4 4 10 -3 5 6 12 20 16
14 3 25 10 25 15 0 6 9 5 20 -1 15 -8 20 -8 20 1 0 6 7 8 16 5 8 -3 12 -2 9 3
-3 5 5 13 17 17 13 4 24 2 26 -5 2 -7 10 -6 25 4 12 8 29 15 38 15 9 0 22 7
29 15 7 8 16 13 20 10 5 -3 11 1 13 7 3 8 6 6 6 -4 1 -10 -6 -18 -14 -18 -9 0
-18 -7 -21 -15 -4 -8 -13 -15 -21 -15 -8 0 -11 -5 -8 -11 5 -7 16 -2 31 12 13
12 27 19 31 16 3 -4 3 -7 0 -7 -4 0 3 -10 14 -21 15 -15 24 -18 28 -10 5 7 15
9 26 5 13 -5 16 -4 11 4 -4 7 -1 12 7 12 8 0 19 -10 26 -22 6 -13 10 -16 7 -7
-5 17 50 44 60 28 3 -5 1 -9 -5 -9 -6 0 -8 -6 -5 -13 5 -15 -23 -44 -33 -34
-3 4 0 13 7 22 7 8 9 15 5 15 -4 0 -14 -8 -22 -17 -10 -13 -16 -15 -19 -6 -4
10 -12 9 -35 -2 -16 -9 -29 -11 -29 -6 0 5 -9 7 -20 4 -11 -3 -20 -9 -20 -13
0 -5 10 -6 23 -2 22 5 22 5 3 -16 -22 -26 -36 -28 -36 -7 0 8 -5 15 -12 15 -6
0 -3 9 7 20 18 19 17 20 -4 20 -12 0 -20 -4 -17 -9 9 -15 -22 -33 -44 -26 -13
4 -20 2 -21 -7 -1 -7 -5 -2 -9 12 l-8 25 -2 -25 c-1 -23 -2 -23 -10 -5 -6 14
-9 15 -10 5 -1 -9 -5 -6 -10 8 -11 25 -38 29 -46 7 -4 -8 -11 -15 -18 -15 -6
0 -12 -9 -12 -20 0 -11 6 -20 13 -20 7 0 13 -4 13 -10 0 -5 5 -10 11 -10 5 0
9 8 8 18 -3 35 1 62 10 62 6 0 7 -16 4 -34 -4 -25 -1 -40 11 -51 15 -15 16
-15 16 2 1 17 1 17 11 0 6 -9 15 -15 20 -12 5 4 7 11 4 16 -7 11 23 44 32 35
4 -3 -2 -13 -13 -21 -18 -14 -18 -14 4 -15 12 0 22 -4 22 -10 0 -5 -9 -10 -19
-10 -37 0 -31 -17 10 -29 30 -9 39 -16 35 -28 -5 -12 -3 -13 6 -6 8 6 22 7 33
2 l20 -8 -20 -1 c-23 -1 -55 -23 -55 -38 0 -5 -6 -12 -14 -15 -16 -6 -16 14 1
34 10 13 14 49 6 49 -12 0 -34 -32 -36 -50 -1 -14 -6 -18 -19 -14 -12 3 -18 0
-18 -10 0 -9 -4 -16 -10 -16 -5 0 -10 -8 -11 -17 0 -11 -3 -13 -6 -5 -9 23
-33 12 -39 -18 -4 -17 -13 -30 -21 -30 -8 0 -11 -5 -8 -10 4 -6 16 -8 26 -5
19 6 19 5 7 -15 -10 -18 -10 -24 0 -27 6 -3 12 -11 12 -19 0 -10 -6 -8 -21 7
-17 17 -23 19 -30 8 -6 -10 -9 -8 -9 9 0 13 -4 21 -9 18 -5 -4 -12 0 -14 6 -3
8 -6 6 -6 -4 -1 -11 -6 -15 -16 -12 -11 5 -13 2 -9 -10 8 -20 1 -20 -34 -2
-28 14 -82 11 -82 -5 0 -5 10 -7 23 -4 12 3 35 2 52 -3 l29 -8 -32 -16 c-31
-16 -31 -16 -22 3 8 14 7 19 -2 18 -15 -1 -56 -17 -45 -18 4 -1 -2 -10 -14
-22 -11 -11 -27 -18 -35 -15 -18 7 -74 -47 -74 -72 0 -12 -2 -14 -8 -4 -7 9
-13 8 -27 -8 -13 -14 -22 -17 -30 -10 -10 8 -13 6 -11 -6 0 -9 -5 -19 -12 -21
-7 -3 -10 1 -6 11 3 9 1 16 -5 16 -6 0 -11 -8 -10 -17 1 -22 17 -63 18 -45 1
6 8 12 16 12 8 0 15 6 15 14 0 15 21 26 51 26 10 0 19 6 19 14 0 8 7 13 15 12
21 -3 31 -16 12 -16 -9 0 -17 -5 -17 -10 0 -6 -12 -22 -27 -36 -16 -14 -22
-23 -15 -19 7 4 12 0 12 -9 0 -9 -6 -16 -13 -16 -7 0 -20 -9 -29 -19 -16 -18
-15 -20 2 -18 10 1 16 5 14 9 -3 4 6 8 20 8 19 0 24 4 20 15 -5 11 -2 13 9 9
21 -8 10 -34 -14 -34 -10 0 -19 -4 -19 -9 0 -8 -71 -26 -97 -24 -7 0 -13 -5
-13 -12 0 -7 -6 -16 -12 -19 -7 -4 -3 -4 10 -2 12 2 22 0 22 -5 0 -5 -8 -9
-19 -9 -10 0 -24 -7 -31 -15 -12 -15 0 -22 13 -8 4 3 24 8 44 10 21 2 34 0 29
-4 -4 -4 -11 -8 -14 -9 -21 -2 -70 -17 -89 -26 -25 -13 -32 -34 -8 -24 9 3 15
0 15 -10 0 -12 -6 -15 -25 -10 -28 7 -70 -15 -57 -30 4 -4 -1 -2 -12 6 -16 13
-20 12 -31 -3 -7 -9 -17 -17 -23 -17 -7 0 -9 -7 -5 -17 5 -12 2 -15 -10 -10
-9 3 -17 2 -17 -3 0 -6 -8 -10 -17 -10 -14 0 -15 -2 -4 -9 11 -7 11 -9 0 -14
-8 -3 -5 -6 8 -6 14 -1 21 -6 17 -14 -5 -15 -70 -50 -94 -51 -8 -1 -16 -7 -16
-13 -2 -22 -3 -23 -27 -14 -26 10 -40 4 -45 -19 -3 -12 -1 -13 9 -2 17 16 29
15 29 -3 0 -8 -6 -15 -13 -15 -8 0 -19 -12 -25 -26 -7 -14 -17 -22 -22 -19 -5
3 -20 -1 -32 -9 -18 -13 -19 -16 -6 -16 9 0 19 4 23 10 3 5 12 7 20 4 8 -4 17
0 20 8 3 8 14 14 25 15 16 1 17 -1 9 -16 -6 -9 -20 -18 -32 -18 -11 -1 -25 -7
-31 -13 -8 -8 -6 -9 7 -5 23 10 22 -7 -3 -23 -11 -7 -20 -8 -20 -3 0 12 -36
21 -47 11 -4 -4 -33 -12 -63 -19 -57 -12 -88 -26 -79 -35 3 -3 18 1 34 10 15
8 33 13 39 10 6 -2 5 -5 -3 -5 -11 -1 -11 -4 -1 -16 17 -21 30 -19 30 5 0 11
5 20 10 20 6 0 10 -4 10 -10 0 -5 5 -10 12 -10 6 0 8 3 5 7 -12 12 27 32 40
21 17 -14 16 -26 -2 -44 -8 -9 -15 -12 -15 -7 0 5 5 14 12 21 6 6 9 15 5 18
-4 4 -14 -2 -24 -14 -10 -11 -42 -33 -70 -47 -29 -15 -50 -32 -47 -37 4 -6 10
-5 15 3 6 11 9 9 9 -7 0 -11 -6 -21 -12 -21 -7 0 -17 -2 -23 -4 -13 -5 -14 10
-1 43 6 15 17 29 26 32 8 3 2 4 -15 3 -26 -2 -30 -5 -27 -29 2 -16 -1 -28 -8
-28 -6 0 -9 4 -6 8 3 5 -8 9 -24 9 -35 0 -37 -5 -12 -23 10 -8 12 -13 5 -14
-7 0 -17 -10 -24 -21 -10 -20 -9 -21 15 -17 26 5 26 5 9 -12 -15 -14 -19 -15
-26 -4 -12 21 -27 17 -27 -7 0 -12 -8 -28 -17 -35 -21 -16 -5 -18 32 -4 24 9
26 8 20 -12 -6 -21 -5 -22 8 -5 8 9 19 17 26 17 6 0 11 5 11 11 0 6 -7 9 -15
5 -24 -9 -17 9 15 37 16 15 38 27 47 27 13 0 11 -5 -9 -18 -27 -16 -38 -42
-19 -42 5 0 7 -9 4 -21 -3 -11 -11 -18 -18 -15 -7 2 -20 -5 -29 -15 -16 -19
-17 -19 -34 -3 -15 15 -17 16 -20 2 -2 -10 -13 -15 -31 -14 -24 1 -26 4 -17
18 5 9 7 21 2 25 -4 4 -12 0 -17 -10 -6 -9 -15 -17 -22 -17 -7 0 -6 4 3 10 10
7 11 10 2 10 -7 0 -17 -12 -22 -26 -14 -35 -13 -44 6 -44 13 0 11 -7 -9 -34
-15 -18 -24 -36 -21 -39 3 -2 -10 -3 -28 -1 -38 5 -56 19 -33 28 9 3 13 2 10
-4 -7 -12 15 -13 32 -2 8 5 2 12 -19 21 -17 8 -33 10 -37 5 -3 -5 -18 -15 -33
-23 -15 -8 -37 -22 -47 -33 -11 -10 -27 -18 -36 -18 -8 0 -15 -5 -15 -11 0
-13 38 -2 60 16 15 13 34 18 58 16 21 -2 13 -19 -13 -25 -13 -3 -36 -18 -51
-32 -21 -19 -23 -23 -8 -18 10 4 25 12 32 17 7 5 15 8 17 5 3 -3 -8 -15 -24
-27 -16 -13 -27 -29 -24 -36 3 -9 -7 -16 -31 -21 -20 -3 -36 -11 -36 -16 0 -6
7 -8 15 -4 19 7 19 -1 0 -21 -21 -20 -43 -2 -39 32 2 25 -9 34 -21 15 -3 -5
-1 -10 5 -10 7 0 9 -8 5 -20 -4 -11 -2 -20 4 -20 23 0 9 -16 -30 -35 -23 -10
-36 -21 -31 -23 6 -2 8 -10 5 -19 -5 -13 -2 -15 14 -11 28 7 45 -5 37 -25 -8
-21 -28 -22 -48 -1 -9 8 -16 12 -16 8 0 -4 -6 1 -14 11 -8 11 -12 24 -8 30 3
5 -2 4 -11 -4 -9 -7 -14 -17 -11 -22 3 -5 1 -9 -5 -9 -6 0 -8 -7 -4 -16 4 -11
15 -15 34 -12 25 4 39 -6 39 -28 0 -10 -39 -3 -43 9 -3 9 -8 9 -21 -3 -17 -13
-17 -14 1 -21 21 -8 10 -14 -47 -23 -19 -4 -40 -10 -47 -14 -17 -11 -20 -44
-3 -50 8 -3 12 -1 8 3 -11 11 10 45 27 45 8 0 15 -4 15 -10 0 -5 8 -10 18 -10
14 0 15 2 2 10 -12 8 -9 10 13 10 15 0 30 7 33 15 4 8 10 15 15 15 6 0 5 -8
-1 -19 -13 -26 -13 -34 3 -28 7 3 22 -2 32 -10 19 -15 19 -15 -3 -8 -17 5 -30
1 -48 -16 -27 -25 -33 -16 -7 13 20 23 2 24 -32 2 -35 -23 -91 -34 -104 -21
-8 8 -14 8 -23 -1 -9 -9 -8 -12 5 -12 9 0 17 -4 17 -9 0 -5 10 -7 22 -3 14 3
19 2 14 -6 -4 -7 -12 -12 -18 -12 -6 0 -33 -16 -60 -36 -47 -35 -74 -40 -48
-9 8 9 8 15 2 15 -18 0 -26 -23 -27 -78 -1 -58 -16 -82 -38 -64 -10 9 -19 7
-37 -5 -44 -31 -63 -55 -51 -63 16 -9 -13 -34 -31 -27 -8 4 -7 6 5 6 20 1 23
17 5 24 -9 3 -6 11 10 24 12 11 22 27 22 36 0 10 14 17 44 21 44 7 57 20 61
59 1 9 -2 17 -6 17 -5 0 -9 7 -9 15 0 8 -4 15 -10 15 -5 0 -7 -7 -4 -15 4 -9
-1 -18 -11 -22 -17 -6 -17 -7 -1 -18 15 -12 15 -13 0 -19 -23 -9 -33 1 -29 26
4 17 2 19 -7 10 -18 -18 -27 -14 -20 10 4 18 3 20 -9 10 -8 -7 -23 -20 -34
-28 -20 -15 -20 -15 1 -9 26 7 56 -4 48 -17 -4 -6 -9 -5 -14 2 -6 10 -15 6
-33 -13 -14 -14 -32 -27 -39 -30 -7 -3 1 -6 17 -7 29 -2 29 -2 5 -9 -14 -5
-31 -3 -38 2 -15 12 -32 -6 -32 -35 0 -10 -3 -18 -8 -18 -4 0 -13 -9 -20 -20
-14 -23 0 -27 22 -5 8 8 24 15 35 15 14 0 19 5 15 15 -4 9 0 15 8 15 24 0 15
-45 -10 -48 -22 -3 -22 -4 6 -31 15 -15 34 -30 42 -34 9 -3 4 -6 -12 -6 -18
-1 -29 5 -33 18 -7 23 -26 32 -54 24 -33 -9 -25 -26 9 -19 17 3 30 2 30 -2 0
-12 -59 -31 -66 -21 -3 5 -19 0 -35 -11 -16 -12 -45 -24 -64 -27 -20 -3 -38
-10 -42 -16 -4 -7 7 -8 30 -4 28 4 37 2 37 -8 0 -10 10 -8 36 10 20 14 44 25
53 25 10 0 22 5 29 12 7 7 12 8 12 2 0 -5 -5 -15 -12 -22 -14 -14 0 -16 21 -3
8 5 11 16 8 25 -5 13 -2 13 19 4 29 -14 27 -30 -7 -39 -13 -3 -23 -12 -21 -19
2 -8 -3 -10 -13 -6 -9 3 -21 6 -26 6 -6 0 -8 4 -4 9 7 13 -16 26 -24 14 -3 -6
-16 -15 -29 -22 -25 -13 -21 -33 6 -25 11 4 8 -2 -8 -15 -21 -18 -23 -22 -10
-31 13 -9 13 -11 0 -20 -19 -13 -33 -13 -25 0 8 13 -11 13 -37 -1 -18 -10 -19
-8 -13 11 5 16 3 21 -6 18 -8 -3 -15 -10 -15 -16 -1 -7 -2 -17 -3 -22 0 -6
-13 -16 -29 -22 -15 -7 -35 -21 -44 -32 -14 -17 -18 -18 -18 -5 0 12 -7 15
-25 11 -24 -4 -25 -6 -10 -22 15 -16 14 -18 -2 -25 -16 -7 -15 -9 7 -15 25 -8
25 -8 -4 -9 -23 -1 -26 -4 -17 -15 9 -11 9 -16 0 -22 -7 -4 -15 -2 -17 4 -2 7
-8 12 -14 12 -5 0 -7 -8 -3 -19 3 -10 -1 -24 -10 -31 -19 -16 -20 -34 -1 -27
8 3 17 0 19 -8 7 -17 -35 -29 -45 -12 -4 6 -11 8 -15 3 -4 -5 -2 -11 5 -13 6
-3 12 -11 12 -18 0 -18 -65 -28 -90 -15 -17 9 -21 8 -19 -2 2 -7 0 -26 -4 -41
-6 -21 -12 -27 -26 -22 -24 7 -66 -33 -69 -67 l-2 -27 33 32 c18 18 47 40 65
50 27 15 31 16 26 2 -4 -8 -2 -21 4 -28 16 -19 -4 -59 -28 -55 -14 2 -25 -5
-33 -21 -12 -25 -37 -40 -37 -23 0 5 11 21 25 36 28 31 32 46 10 46 -8 0 -15
-4 -15 -9 0 -6 -11 -22 -25 -37 -26 -28 -35 -71 -12 -58 9 6 9 4 1 -7 -6 -8
-11 -57 -11 -109 -1 -52 1 -87 4 -78 5 21 10 22 27 6 10 -10 8 -16 -11 -34
-21 -19 -23 -30 -23 -118 0 -77 3 -96 14 -96 8 0 18 5 21 10 8 13 25 13 25 1
0 -5 -14 -12 -30 -16 -29 -6 -30 -8 -30 -63 1 -48 3 -54 13 -40 12 15 14 15
24 -1 10 -15 7 -21 -12 -31 -23 -12 -23 -14 -7 -27 16 -14 16 -14 0 -9 -14 4
-18 0 -17 -22 0 -15 3 -21 6 -14 2 6 11 12 19 12 8 0 17 6 20 14 3 8 13 17 22
21 10 4 4 -7 -13 -26 -20 -21 -26 -33 -17 -36 24 -9 13 -30 -13 -25 l-25 4 1
-226 c1 -127 5 -223 10 -220 5 3 9 1 9 -5 0 -5 -6 -11 -12 -14 -10 -3 -10 -7
0 -20 11 -13 11 -19 0 -37 -11 -17 -11 -22 2 -30 10 -7 11 -10 2 -10 -10 0
-12 -83 -10 -397 l3 -398 127 -1 c70 -1 125 3 122 7 -2 5 9 15 26 24 16 8 30
20 30 25 0 13 -21 24 -29 14 -8 -12 -48 -34 -61 -34 -5 0 -10 9 -10 20 0 13
-5 18 -15 14 -11 -5 -13 -2 -9 10 3 9 10 16 15 16 5 0 9 7 9 15 0 8 5 15 11
15 7 0 9 -9 5 -24 -6 -23 -5 -24 32 -15 20 5 40 9 43 9 3 0 11 11 17 24 6 13
20 27 31 31 12 3 21 11 21 16 0 6 -4 8 -9 5 -30 -19 -54 26 -28 53 10 11 7 12
-18 7 -18 -4 -25 -3 -17 2 8 6 11 20 8 38 -4 16 -3 23 0 17 10 -22 34 -14 44
13 9 21 15 25 38 22 15 -3 36 -9 46 -13 12 -6 17 -5 13 2 -4 6 3 8 18 5 18 -3
25 0 25 12 0 24 52 21 67 -4 10 -15 10 -22 -3 -35 -9 -9 -14 -19 -10 -22 3 -4
12 -1 18 5 7 7 21 12 32 12 21 0 71 49 61 59 -3 3 -17 -8 -30 -23 -22 -26 -30
-27 -26 -3 0 4 -8 7 -19 7 -12 0 -22 9 -26 24 -4 17 -11 22 -25 19 -23 -6 -26
15 -3 24 10 4 20 0 26 -10 7 -13 14 -14 35 -6 17 6 30 6 38 -1 7 -6 16 -7 18
-3 9 15 -7 28 -32 28 -25 0 -44 25 -19 25 7 1 24 10 37 21 21 17 22 22 10 30
-12 8 -12 10 1 19 13 8 13 10 -1 10 -9 0 -19 -6 -22 -14 -3 -8 -24 -17 -46
-21 -23 -4 -41 -11 -41 -16 0 -5 -4 -9 -10 -9 -5 0 -10 6 -10 14 0 16 34 31
50 21 5 -3 10 -1 10 4 0 6 -3 11 -7 12 -49 5 -71 13 -85 30 -23 28 -23 46 5
99 15 32 28 45 41 43 11 -1 26 6 34 15 13 16 13 16 8 -1 -3 -9 0 -28 6 -42 8
-18 8 -35 1 -60 -12 -37 -3 -45 27 -25 13 9 13 11 0 20 -11 7 -12 10 -2 10 10
0 12 8 7 29 -7 33 9 73 28 69 16 -4 89 47 80 56 -4 4 0 4 10 0 9 -3 14 -10 11
-15 -3 -5 2 -9 10 -9 17 0 40 36 31 49 -3 5 -13 8 -23 6 -9 -1 -11 0 -4 2 14
5 14 10 2 38 -7 16 -9 17 -9 3 -1 -21 -41 -35 -51 -18 -11 17 -19 -1 -16 -33
4 -36 -17 -53 -48 -39 -13 6 -35 9 -50 8 -28 -3 -29 -1 -16 29 6 14 9 15 9 5
1 -9 10 -16 21 -16 13 0 18 6 17 21 -1 13 3 19 13 17 11 -2 11 1 -2 11 -20 15
-24 37 -8 37 6 0 10 16 10 35 0 19 5 35 11 35 6 0 9 7 5 15 -3 9 0 15 9 15 7
0 15 7 17 17 2 10 14 16 34 17 21 1 30 -3 27 -11 -9 -24 17 -13 28 11 7 15 19
24 31 23 17 -1 18 -7 13 -62 -6 -53 -5 -58 8 -41 8 11 12 28 9 38 -2 10 1 18
7 18 7 0 9 -5 6 -10 -8 -14 5 -12 35 4 17 10 30 11 42 5 13 -7 23 -4 39 12
l22 22 -32 -6 c-24 -5 -31 -3 -28 6 2 6 12 13 23 13 20 2 86 34 70 34 -6 0 6
11 25 25 19 14 34 31 34 37 0 6 9 14 20 19 17 6 17 8 3 8 -10 1 -29 -12 -44
-28 -14 -16 -36 -31 -50 -34 -33 -6 -30 9 5 24 17 7 32 21 34 31 3 10 14 18
24 18 11 0 23 3 27 7 4 4 16 8 28 8 14 0 22 8 24 23 3 19 1 22 -21 16 -19 -5
-25 -2 -25 10 0 20 -14 20 -34 0 -15 -14 -16 -14 -16 4 0 23 25 46 39 38 6 -4
15 3 21 15 9 15 15 18 23 10 7 -7 7 -14 -2 -24 -9 -12 -7 -13 14 -9 29 5 44
22 21 22 -9 0 -16 6 -16 14 0 11 11 14 42 13 22 -1 43 3 45 9 4 12 -70 12 -99
-1 -11 -4 -18 -3 -18 3 0 16 18 24 55 25 19 1 32 3 30 6 -3 2 1 11 8 19 10 13
7 15 -27 9 -35 -6 -37 -5 -20 8 11 8 27 15 37 15 18 0 34 26 23 37 -3 4 -12 1
-18 -5 -21 -21 -26 -13 -14 23 15 44 26 55 26 27 0 -27 14 -28 39 -3 21 21 33
18 24 -5 -3 -8 -2 -14 3 -13 24 4 40 -3 52 -21 19 -31 3 -47 -19 -19 l-18 24
2 -32 c2 -28 5 -32 22 -27 30 10 47 26 41 41 -3 8 2 13 15 13 15 0 19 5 15 18
-4 13 2 21 25 29 17 7 28 16 25 21 -3 5 6 14 19 20 32 15 32 26 -2 39 l-28 11
31 1 c18 1 42 10 55 21 23 19 23 19 3 20 -11 0 -25 -5 -31 -11 -7 -7 -13 -7
-17 -1 -8 13 12 26 38 27 11 0 26 13 35 32 9 18 24 33 34 33 24 0 22 -17 -4
-25 -15 -5 -18 -10 -9 -20 6 -7 10 -22 8 -31 -2 -14 5 -19 31 -21 19 -2 40 -8
47 -14 13 -11 38 -4 30 9 -2 4 9 17 24 29 24 20 29 21 54 8 15 -8 24 -10 21
-6 -2 5 4 11 16 14 16 4 19 2 14 -13 -3 -10 -1 -21 5 -25 16 -10 12 -22 -10
-28 -33 -9 -23 -28 13 -25 17 2 33 -1 34 -7 2 -5 -12 -10 -29 -11 -17 0 -34
-6 -36 -13 -3 -9 0 -11 8 -6 7 4 16 2 20 -6 7 -10 12 -10 26 2 9 8 20 13 23
12 3 -1 14 7 24 18 14 15 15 19 3 19 -18 0 -30 16 -21 29 3 6 17 4 33 -5 25
-13 28 -12 36 6 9 20 36 28 36 11 0 -21 -13 -41 -26 -41 -8 0 -14 -4 -14 -10
0 -13 6 -13 30 3 21 12 29 7 44 -28 3 -5 13 1 24 15 16 20 23 22 35 12 12 -10
16 -9 21 3 3 9 11 13 16 10 8 -5 6 -15 -5 -32 -16 -24 -16 -25 4 -18 18 6 19
3 10 -27 -11 -41 -11 -48 1 -48 6 0 10 8 10 17 0 9 7 25 17 35 13 15 14 23 5
43 -10 22 -9 25 9 25 15 0 19 -5 15 -15 -3 -8 -1 -15 5 -15 16 0 -1 -43 -24
-62 -12 -9 -19 -20 -15 -24 4 -4 14 -1 23 6 13 11 19 10 35 -5 10 -9 24 -14
30 -10 6 4 17 1 25 -5 17 -15 36 -5 28 15 -3 8 0 15 5 15 7 0 8 11 1 32 -14
49 -12 56 16 50 14 -2 25 0 25 7 0 5 7 8 15 5 21 -9 19 -30 -6 -48 -12 -8 -18
-19 -14 -25 3 -6 1 -11 -4 -11 -6 0 -11 -7 -11 -15 0 -19 19 -19 26 0 8 20 21
19 21 -2 0 -10 -11 -28 -23 -42 -19 -20 -26 -22 -37 -12 -10 7 -18 8 -21 2 -8
-12 55 -26 63 -14 3 6 42 27 85 48 l79 38 -23 19 c-15 12 -20 22 -13 26 6 4
13 17 17 30 4 13 12 19 18 16 7 -5 9 -1 5 9 -5 12 -1 17 13 17 10 0 24 8 30
18 11 16 11 16 6 0 -3 -10 5 -30 19 -46 25 -30 25 -58 -2 -97 -15 -22 -18 -69
-4 -61 5 3 12 -1 15 -10 3 -8 2 -12 -4 -9 -6 3 -9 -2 -8 -12 3 -38 -3 -53 -20
-53 -23 0 -42 -32 -35 -59 4 -15 1 -21 -10 -21 -9 0 -21 -9 -27 -20 -9 -16 -8
-20 5 -20 8 0 15 -8 15 -18 0 -26 20 -42 53 -42 22 0 28 4 23 16 -3 9 -6 18
-6 20 0 2 -13 4 -29 4 -42 0 -44 23 -6 64 28 31 37 35 64 30 24 -5 31 -3 31
10 0 9 -8 16 -19 16 -26 0 -38 38 -19 57 11 10 24 12 54 5 39 -9 49 -5 68 25
4 8 1 13 -8 13 -9 0 -16 -8 -16 -17 0 -13 -5 -12 -26 8 l-25 24 21 17 c25 20
40 23 40 7 0 -6 -9 -13 -20 -16 -23 -6 -27 -23 -6 -23 23 0 63 38 49 48 -9 5
-6 11 8 21 13 8 18 8 14 1 -11 -18 4 -60 22 -60 9 0 26 9 38 20 19 18 21 18
22 2 4 -60 13 -76 28 -52 10 16 38 12 32 -4 -4 -10 -1 -13 9 -9 7 3 14 9 14
15 0 5 5 6 11 3 6 -4 7 -19 4 -36 -7 -29 -1 -34 35 -29 18 2 42 21 36 27 -2 2
-13 -1 -25 -8 -25 -17 -36 -7 -20 18 8 13 21 18 43 17 17 -2 23 -1 14 2 -19 6
-25 34 -8 34 6 0 10 9 10 20 0 22 15 27 26 8 4 -6 2 -14 -4 -16 -7 -2 -12 -8
-12 -13 0 -15 22 -10 34 7 10 13 16 13 41 3 17 -7 34 -11 39 -10 5 1 6 -4 3
-12 -4 -10 7 -14 44 -15 27 0 49 3 49 9 0 5 5 9 10 9 6 0 10 -7 10 -16 0 -10
5 -14 15 -10 10 4 20 -3 27 -19 11 -25 28 -34 28 -15 0 6 -4 10 -10 10 -5 0
-10 6 -10 13 0 7 14 12 35 13 27 0 35 -4 35 -17 0 -33 19 -30 60 11 22 22 45
40 50 40 4 0 17 3 27 7 15 6 16 5 5 -9 -9 -12 -10 -18 -2 -23 6 -4 17 1 25 11
7 11 17 15 21 11 5 -4 2 -12 -6 -17 -8 -5 -11 -12 -7 -16 4 -4 2 -13 -3 -19
-15 -18 -1 -45 22 -45 10 0 16 -5 13 -10 -4 -6 -11 -8 -16 -5 -5 4 -17 1 -26
-5 -17 -10 -16 -10 2 -8 11 1 26 -1 33 -5 17 -11 35 39 28 80 -2 18 -3 33 -1
33 10 0 34 -58 27 -65 -4 -5 -1 -5 6 -1 8 5 16 -2 22 -19 7 -19 15 -25 26 -21
9 3 18 6 22 6 3 0 -2 8 -11 18 -38 41 -57 62 -57 65 0 1 16 2 35 3 23 0 35 -4
35 -13 0 -7 -5 -13 -11 -13 -5 0 -8 -4 -4 -10 8 -13 43 22 37 38 -2 6 -10 12
-18 12 -16 0 -18 9 -4 30 8 13 10 13 10 -2 0 -14 6 -16 33 -11 39 8 60 32 45
51 -6 7 -8 15 -4 19 3 3 6 1 6 -5 0 -9 6 -9 24 -1 20 10 22 14 12 35 -13 29
-30 32 -21 4 3 -11 2 -20 -3 -20 -15 0 -21 37 -9 49 6 6 17 11 25 11 9 0 12 6
8 15 -3 9 3 20 14 27 28 18 25 26 -12 36 -21 6 -32 14 -29 23 1 8 4 23 5 34 1
17 7 20 33 17 23 -3 34 1 42 16 6 11 7 22 3 26 -3 4 1 4 10 1 9 -4 19 -13 22
-21 3 -7 12 -11 21 -8 12 5 11 10 -9 25 -45 35 -101 45 -90 15 6 -17 -36 -15
-54 2 -7 6 -26 12 -41 12 -34 0 -66 22 -58 41 4 10 6 9 6 -4 1 -10 6 -15 11
-12 6 4 8 11 5 16 -8 11 35 12 54 0 8 -5 10 -14 6 -21 -5 -8 -3 -11 6 -8 8 3
13 11 11 18 -2 7 6 19 18 27 33 23 23 34 -17 18 -30 -13 -41 -13 -65 -3 -15 7
-28 16 -28 20 0 11 18 10 25 -2 11 -17 25 -11 25 11 0 14 -5 19 -14 16 -10 -4
-16 2 -18 16 -2 15 -11 23 -28 25 -14 2 -31 9 -37 14 -16 13 -17 -4 -1 -20 9
-9 9 -15 0 -24 -9 -9 -12 -8 -12 5 0 9 -6 17 -14 17 -8 0 -13 -8 -12 -17 2
-24 -30 -28 -36 -5 -4 12 -17 21 -36 24 -21 3 -29 1 -25 -8 2 -7 11 -10 19 -7
8 3 14 0 14 -6 0 -6 -10 -11 -22 -10 -13 0 -35 -3 -50 -7 -18 -4 -28 -2 -28 5
0 6 6 10 13 8 6 -1 11 3 10 10 -2 8 4 10 15 6 15 -6 15 -5 4 10 -19 22 -5 40
24 33 13 -4 24 -2 24 3 0 16 -43 20 -70 6 -15 -8 -30 -12 -33 -9 -3 4 -15 0
-26 -8 -12 -8 -18 -18 -14 -21 3 -4 -3 -7 -14 -7 -29 0 -35 -11 -15 -26 16
-12 15 -13 -5 -14 -13 0 -23 4 -23 9 0 5 -9 13 -20 16 -11 4 -19 12 -18 18 4
18 -34 77 -49 77 -7 0 -13 5 -13 11 0 7 -9 0 -20 -14 -22 -28 -25 -37 -11 -37
5 0 11 9 14 21 l6 20 20 -20 c25 -25 27 -33 6 -25 -21 9 -19 -6 5 -26 12 -10
17 -20 13 -23 -15 -9 -63 5 -63 19 0 13 -19 19 -50 14 -10 -1 -7 6 9 24 14 14
19 26 13 26 -7 0 -17 -9 -24 -20 -14 -22 -38 -27 -38 -8 0 6 -3 8 -6 5 -10
-10 17 -38 28 -30 6 3 8 0 6 -8 -3 -8 -15 -13 -26 -11 -12 2 -22 -2 -22 -7 0
-6 6 -11 14 -11 8 0 16 -7 20 -15 4 -12 0 -14 -22 -9 -15 4 -39 15 -54 26 -16
11 -29 15 -33 8 -10 -16 -35 -12 -35 6 0 8 -5 12 -10 9 -6 -4 -8 -10 -5 -15
10 -16 -29 -21 -41 -6 -12 17 -34 22 -34 7 0 -5 6 -14 14 -20 8 -7 12 -19 9
-29 -3 -14 -13 -16 -49 -14 -27 3 -44 0 -44 -7 0 -6 -12 -11 -26 -11 -21 0
-24 3 -19 21 5 16 3 20 -6 16 -8 -2 -13 -10 -11 -16 1 -7 -3 -18 -10 -25 -17
-16 -88 -28 -88 -15 0 6 5 7 10 4 6 -3 10 -1 10 4 0 6 -7 11 -15 11 -9 0 -15
-9 -15 -25 0 -20 -5 -25 -25 -25 -31 0 -32 13 -2 33 17 12 19 18 10 28 -10 10
-15 10 -28 -1 -12 -10 -15 -10 -15 4 0 17 -26 21 -49 7 -19 -12 -3 -33 20 -26
24 8 24 1 2 -25 -20 -23 -53 -27 -53 -5 0 9 -6 12 -15 9 -9 -4 -15 0 -15 10 0
9 -4 16 -10 16 -5 0 -10 -7 -10 -15 0 -8 5 -15 10 -15 6 0 10 -7 10 -15 0 -20
-27 -19 -38 1 -6 11 -17 15 -31 11 -11 -3 -24 -1 -27 4 -5 9 16 13 44 10 21
-3 13 16 -9 22 -13 4 -19 11 -16 19 4 11 -4 14 -29 12 -24 -2 -34 1 -34 11 0
9 10 15 23 16 l22 0 -22 9 c-28 11 -31 34 -4 25 13 -4 20 0 24 16 4 16 3 19
-6 10 -14 -14 -30 -15 -22 -1 11 17 -8 11 -30 -10 -19 -17 -26 -19 -50 -10
-16 6 -42 8 -59 6 -30 -6 -30 -5 4 8 24 9 39 10 47 3 18 -14 16 1 -2 20 -9 8
-22 12 -30 9 -17 -6 -19 2 -6 23 7 12 15 12 38 2 33 -13 75 -10 81 8 3 8 -10
11 -45 9 -49 -3 -52 0 -42 42 3 10 -3 14 -16 13 -11 -1 -22 3 -26 8 -3 6 -11
4 -18 -4 -9 -12 -9 -15 1 -14 31 1 48 -4 48 -13 0 -5 -13 -10 -30 -10 -16 0
-33 -6 -37 -14 -14 -24 -73 -25 -73 -1 0 17 -9 19 -30 5 -8 -5 -11 -12 -7 -17
5 -4 12 -2 16 6 6 10 10 9 15 -4 3 -9 4 -21 0 -26 -3 -5 2 -9 10 -9 9 0 16 -7
16 -15 0 -19 -4 -19 -40 0 -34 17 -43 2 -13 -21 17 -12 16 -13 -4 -14 -12 0
-25 -4 -28 -10 -11 -18 -25 -11 -26 13 0 12 -3 16 -6 9 -2 -6 -9 -9 -14 -6 -6
3 -5 11 2 20 14 17 2 19 -15 1 -7 -7 -11 -18 -8 -25 5 -16 -15 -16 -21 1 -7
18 -42 -6 -42 -29 0 -21 -14 -36 -27 -28 -15 10 -8 33 20 61 16 15 35 28 43
28 26 0 15 28 -13 32 -21 3 -27 -1 -30 -19 -2 -18 -9 -22 -30 -20 -21 2 -27
-2 -31 -20 -2 -13 -5 -2 -6 25 0 27 3 47 10 47 6 0 8 -9 4 -20 -5 -15 -3 -19
10 -14 9 4 14 13 11 20 -3 7 1 20 9 28 8 7 11 16 8 20 -4 3 6 6 21 6 16 0 25
-4 21 -10 -3 -5 -1 -10 5 -10 23 0 3 25 -23 28 -15 2 -27 9 -27 16 0 20 12 27
27 15 9 -8 13 -8 13 -1 0 6 10 13 23 15 19 4 18 4 -6 6 -25 1 -27 3 -17 22 7
12 18 18 26 15 8 -3 17 1 21 9 3 9 13 13 22 10 10 -3 21 3 29 15 7 12 8 20 2
20 -5 0 -10 -4 -10 -9 0 -5 -8 -8 -17 -6 -62 12 -73 17 -68 25 3 5 12 7 19 4
9 -3 18 6 24 25 6 17 16 31 22 31 7 0 10 -6 7 -12 -2 -7 5 -21 16 -31 22 -19
24 -19 52 -7 17 7 17 9 3 9 -19 1 -25 21 -7 21 6 0 9 7 5 15 -3 9 0 15 9 15 8
0 15 5 15 10 0 13 -57 13 -65 0 -8 -14 -37 0 -31 16 3 7 -3 15 -12 17 -10 3
-6 5 10 6 20 1 29 7 34 25 4 18 14 25 40 28 19 2 34 0 34 -4 0 -4 -8 -8 -17
-8 -13 0 -14 -3 -6 -11 8 -8 17 -7 34 5 21 14 24 14 41 -1 18 -16 18 -16 12 2
-6 13 -4 16 6 10 8 -5 11 -3 8 6 -2 7 6 23 19 35 13 12 23 26 23 33 0 6 5 11
11 11 5 0 8 4 5 9 -3 5 5 12 18 15 13 3 26 13 30 21 3 9 2 13 -4 10 -6 -3 -10
-2 -10 3 0 5 10 13 23 19 17 8 28 7 42 -3 25 -18 41 -18 49 2 3 8 2 12 -4 9
-6 -4 -20 -3 -33 1 -21 7 -21 7 -2 15 l20 8 -20 0 c-11 0 -27 -3 -35 -9 -9 -5
-19 -5 -27 2 -24 19 -13 27 32 23 53 -5 61 11 10 21 -26 5 -41 2 -54 -10 -23
-21 -37 -21 -20 1 12 14 12 16 0 9 -9 -6 -12 -4 -9 5 5 15 94 20 113 7 6 -4
25 6 44 22 18 16 41 32 52 35 21 7 25 20 9 30 -5 3 -10 -1 -10 -9 0 -9 -4 -16
-10 -16 -5 0 -10 4 -10 10 0 5 -7 7 -15 4 -8 -4 -15 -15 -15 -25 0 -10 -7 -19
-15 -19 -8 0 -15 7 -15 16 0 12 -7 15 -25 12 -14 -3 -28 -1 -32 5 -3 6 8 8 31
5 25 -3 36 0 36 9 0 7 9 13 20 13 11 0 20 5 20 10 0 6 11 8 25 4 15 -4 25 -2
25 5 0 6 -10 12 -22 12 -17 1 -19 2 -5 6 18 5 23 18 9 27 -11 7 -74 -22 -68
-32 2 -4 1 -14 -4 -22 -7 -12 -13 -13 -27 -3 -10 6 -17 16 -16 22 2 6 -2 11
-8 11 -8 0 -8 5 1 15 17 21 34 19 26 -2 -6 -17 -5 -17 7 -1 8 10 25 19 38 21
18 3 23 10 21 26 -2 15 1 19 12 15 9 -3 16 -1 16 5 0 6 7 11 16 11 9 0 14 -7
12 -17 -2 -11 -11 -17 -21 -15 -24 4 -21 -15 3 -21 25 -7 42 21 29 46 -6 9
-22 17 -37 17 -23 1 -25 2 -9 11 9 5 22 7 28 3 6 -3 17 3 25 15 8 12 19 21 24
21 11 0 5 -61 -7 -69 -4 -3 -9 -14 -9 -23 -1 -14 2 -16 17 -7 11 5 16 15 13
21 -4 7 -3 8 4 4 7 -4 17 -4 23 0 8 5 8 9 -1 14 -7 4 -9 13 -6 19 4 6 12 9 17
6 5 -4 14 -3 21 1 7 4 23 9 36 10 13 2 34 10 47 18 13 9 35 13 51 10 22 -3 25
-2 14 5 -18 12 -79 11 -86 -1 -10 -16 -34 -8 -34 13 0 18 5 20 26 16 14 -2 41
0 60 6 32 10 33 11 17 29 -9 10 -22 18 -30 18 -7 0 -13 5 -13 10 0 6 14 10 31
10 18 0 28 4 24 10 -4 6 -10 8 -15 5 -12 -7 -33 23 -27 39 3 8 1 17 -6 20 -7
2 -4 5 6 5 21 1 23 21 2 21 -19 0 -19 11 0 36 9 12 14 14 15 5 0 -7 6 -11 15
-7 8 3 15 1 15 -4 0 -6 -4 -10 -10 -10 -5 0 -10 -7 -10 -16 0 -12 4 -14 13 -6
13 11 77 4 77 -8 0 -13 -36 -18 -54 -8 -11 6 -16 5 -16 -3 0 -7 -3 -9 -7 -6
-8 9 -33 -12 -33 -27 0 -6 9 -12 19 -12 15 0 17 3 9 13 -19 24 4 13 28 -12 13
-14 29 -25 36 -25 7 1 2 10 -11 21 -30 25 -20 37 13 15 26 -17 40 -9 30 18 -5
12 -2 15 12 10 18 -5 18 -5 0 10 -17 13 -17 16 -4 16 9 0 20 9 23 20 7 22 40
44 54 36 5 -3 8 9 6 26 -3 36 16 61 57 77 19 7 26 15 21 26 -4 11 -9 13 -16 6
-5 -5 -23 -7 -38 -4 -17 3 -35 0 -44 -7 -8 -7 -22 -9 -31 -6 -13 5 -14 9 -4
21 10 12 8 16 -11 23 -14 6 -18 11 -11 16 6 4 8 14 5 23 -6 15 -5 16 9 3 8 -8
13 -21 11 -27 -6 -16 9 -17 25 -1 7 7 12 8 12 2 0 -6 -5 -15 -11 -21 -9 -9 -4
-12 20 -11 17 1 34 5 37 10 3 4 10 6 15 2 5 -3 9 -2 8 3 -3 12 13 47 25 55 6
4 18 8 26 8 11 0 11 -3 2 -12 -14 -14 -16 -38 -3 -38 5 0 13 9 16 20 4 11 10
18 15 15 4 -3 6 4 3 15 -3 11 -13 20 -22 21 -12 0 -11 2 4 9 17 7 15 9 -12 9
-44 1 -80 39 -53 56 6 3 10 1 10 -5 0 -6 8 -10 17 -8 10 2 18 -3 18 -12 0 -8
11 -16 23 -18 20 -3 23 0 18 16 -7 21 8 39 18 23 4 -5 17 -8 31 -6 14 1 23 0
20 -3 -5 -6 25 -31 39 -32 4 0 6 6 3 13 -3 7 1 21 9 32 8 10 14 25 14 32 0 21
-18 15 -26 -9 -7 -20 -9 -18 -15 17 -8 44 -4 54 12 38 25 -25 141 9 138 41 0
6 -3 6 -6 -1 -2 -7 -17 -13 -31 -13 l-27 0 25 21 c16 14 19 19 8 15 -10 -3
-18 0 -18 5 0 7 11 9 25 7 17 -4 25 -1 25 9 0 8 -4 11 -10 8 -5 -3 -10 1 -10
9 0 8 -8 20 -17 25 -17 10 -17 10 0 11 10 0 20 6 23 14 3 8 17 22 31 31 23 15
26 15 38 -1 12 -17 13 -16 24 3 8 16 8 23 -2 27 -6 3 0 3 16 0 20 -5 27 -2 27
10 0 10 8 16 21 16 19 0 20 2 8 17 -12 15 -12 16 3 10 15 -5 16 2 14 63 -1 38
2 67 6 64 4 -3 8 -1 8 4 0 6 9 8 20 5 11 -3 18 -9 15 -13 -6 -10 14 -26 45
-35 21 -7 23 -6 13 7 -10 11 -10 17 -1 26 9 9 8 12 -5 12 -9 0 -17 -4 -17 -10
0 -18 -17 -11 -23 9 -6 26 3 37 33 38 24 1 24 0 -5 -13 l-30 -14 35 3 c28 1
35 6 35 23 1 31 49 86 64 71 8 -8 14 -8 23 1 9 9 8 12 -5 12 -9 0 -17 5 -17
10 0 9 8 12 26 9 10 -1 23 24 18 33 -3 4 -23 12 -44 18 -22 6 -40 15 -40 20 0
15 -17 12 -35 -6 -18 -18 -28 -15 -16 4 4 7 25 15 47 18 29 4 35 3 24 -5 -13
-9 -13 -11 2 -11 9 0 19 6 22 13 3 8 9 7 20 -7 13 -16 19 -17 45 -6 17 7 28
17 25 22 -4 6 3 8 17 3 19 -5 21 -4 9 4 -23 16 -53 14 -47 -3 3 -8 0 -16 -7
-19 -18 -7 -49 20 -43 38 5 11 0 15 -19 15 -14 0 -32 7 -40 15 -14 13 -13 15
2 15 10 0 14 3 11 7 -4 3 -1 13 6 22 10 14 10 14 -5 3 -10 -8 -19 -9 -22 -3
-4 5 3 12 14 16 44 14 5 39 -67 44 l-42 2 9 -32 c5 -17 7 -36 4 -40 -3 -5 11
-9 30 -9 20 0 36 -5 36 -11 0 -6 -7 -9 -15 -5 -8 3 -15 1 -15 -5 0 -14 -30
-43 -37 -36 -3 4 -15 0 -27 -8 -26 -19 -42 -19 -27 -1 10 11 4 13 -36 11 -27
-2 -42 -1 -35 2 6 3 12 9 12 14 0 15 -70 10 -86 -6 -18 -17 -54 -20 -54 -4 0
5 4 8 9 5 14 -9 41 4 41 20 0 9 -8 12 -22 10 -13 -3 -26 -5 -30 -5 -5 -1 -8
-10 -8 -20 0 -14 -5 -18 -20 -14 -23 6 -27 23 -5 23 8 0 12 6 9 15 -5 11 -10
12 -24 3 -10 -7 -17 -15 -15 -18 2 -4 -2 -7 -10 -7 -18 0 -29 27 -12 28 7 1
15 1 18 1 4 -1 7 10 7 24 0 21 -2 22 -12 8 -8 -10 -22 -14 -37 -12 l-24 5 25
11 c18 8 20 11 8 11 -10 1 -18 6 -18 11 0 6 -13 10 -30 10 -16 0 -30 4 -30 9
0 10 64 6 82 -5 6 -4 39 -8 72 -10 66 -3 99 -8 161 -23 53 -14 58 -14 51 4 -3
8 -1 15 4 15 6 0 10 7 10 16 0 8 -4 13 -8 10 -5 -3 -9 1 -9 9 0 13 16 20 39
16 3 0 32 -4 63 -9 42 -7 55 -6 51 3 -2 6 0 18 4 26 6 8 4 16 -3 21 -7 5 -3 8
13 8 19 0 21 -3 12 -12 -18 -18 -14 -28 11 -28 13 0 27 -4 32 -8 6 -5 21 -6
35 -1 16 4 19 7 8 8 -10 1 -18 5 -18 11 0 5 15 8 33 6 17 -3 35 -5 40 -5 17
-2 5 -20 -15 -24 l-23 -4 23 -2 c34 -2 26 -19 -10 -24 -32 -4 -32 -4 5 -5 34
-2 37 -4 37 -32 0 -22 -4 -28 -15 -24 -8 4 -15 1 -15 -5 0 -6 9 -11 19 -11 10
0 22 -7 25 -16 9 -23 8 -27 -9 -20 -8 3 -15 1 -15 -5 0 -5 7 -12 16 -16 8 -3
14 -15 13 -27 -1 -11 0 -28 3 -36 16 -48 25 -106 18 -120 -4 -8 -6 -28 -3 -43
3 -15 0 -33 -6 -41 -9 -10 -9 -20 0 -40 16 -35 8 -40 -32 -20 -71 36 -69 36
-69 13 0 -11 5 -17 10 -14 6 3 17 -1 26 -10 9 -9 29 -19 45 -22 25 -5 29 -10
29 -39 0 -20 -5 -34 -12 -34 -7 0 -5 -5 6 -11 15 -9 16 -13 5 -20 -11 -7 -11
-9 -1 -9 7 0 10 -5 7 -10 -4 -6 -6 -35 -6 -65 0 -50 -3 -55 -22 -55 -12 0 -29
-5 -37 -11 -12 -8 -9 -9 12 -5 37 8 58 -16 58 -66 0 -29 -6 -46 -22 -59 l-21
-19 21 0 c13 0 22 -6 22 -15 0 -8 -5 -15 -12 -15 -9 0 -9 -3 0 -12 7 -7 12
-31 12 -55 0 -42 0 -42 -32 -36 -22 4 -29 3 -24 -6 4 -6 11 -9 16 -6 4 3 10
-2 14 -10 3 -8 1 -15 -5 -15 -5 0 -3 -10 5 -22 7 -13 16 -52 19 -87 4 -50 12
-73 39 -112 18 -27 36 -49 41 -49 4 0 7 -12 7 -26 0 -15 -4 -23 -11 -19 -16
10 13 -37 36 -58 16 -15 19 -29 17 -90 -2 -40 -7 -76 -12 -81 -11 -11 3 -41
36 -77 14 -14 33 -48 43 -76 19 -52 17 -95 -10 -178 -5 -16 -7 -125 -5 -246 3
-119 1 -232 -3 -250 -4 -19 -4 -49 0 -67 8 -37 -5 -50 -29 -30 -24 21 -78 22
-86 2 -4 -11 -1 -14 13 -9 27 8 54 -4 41 -20 -10 -12 -4 -25 12 -25 5 0 6 5 2
11 -4 7 2 9 17 7 23 -3 24 -7 23 -72 0 -44 -5 -71 -12 -74 -7 -2 -12 -8 -12
-14 0 -6 7 -8 15 -4 11 4 15 -1 15 -19 0 -25 -14 -33 -25 -16 -3 6 -19 16 -35
25 -27 13 -32 13 -45 -1 -20 -19 -14 -39 11 -36 10 1 26 0 34 -3 13 -4 13 -6
0 -15 -11 -8 -8 -8 10 -3 14 4 30 9 37 11 13 5 12 -59 -2 -111 -8 -29 -38 -66
-54 -66 -5 0 -12 -11 -15 -25 -4 -15 -14 -25 -24 -25 -14 0 -15 -2 -2 -10 9
-5 19 -5 25 0 6 5 26 8 43 7 23 -1 32 -7 32 -19 0 -10 -4 -18 -10 -18 -5 0
-10 -12 -10 -26 0 -21 -4 -24 -20 -19 -13 4 -22 1 -26 -8 -3 -8 -13 -13 -23
-10 -15 4 -43 -23 -66 -64 -3 -7 -45 11 -45 19 0 5 5 6 11 3 13 -9 38 25 32
43 -3 7 -16 18 -29 23 -13 4 -24 15 -24 24 0 8 -4 15 -10 15 -5 0 -10 -7 -10
-15 0 -9 -6 -12 -15 -9 -9 4 -15 0 -15 -10 0 -9 5 -16 10 -16 6 0 10 -6 10
-14 0 -15 35 -16 57 -3 6 4 14 3 17 -2 7 -11 -9 -16 -71 -26 -24 -4 -45 -11
-49 -16 -12 -19 -24 -8 -13 12 9 18 8 20 -9 15 -15 -5 -22 -2 -25 11 -4 17 -4
17 -12 -1 -12 -28 -45 -59 -45 -43 -1 6 -7 -3 -15 -21 -14 -32 -45 -45 -45
-18 0 8 -4 17 -9 20 -5 4 -8 -2 -7 -11 2 -9 11 -22 22 -27 10 -6 26 -19 35
-29 9 -9 26 -17 38 -17 11 0 21 -4 21 -10 0 -5 -6 -10 -14 -10 -9 0 -12 -8 -8
-25 3 -16 0 -25 -8 -25 -7 0 -10 -7 -7 -14 4 -10 1 -13 -8 -9 -10 3 -13 14 -9
32 5 22 3 24 -8 11 -7 -9 -24 -15 -38 -14 -50 3 -110 -36 -110 -70 0 -13 3
-16 8 -10 7 12 62 16 62 5 -1 -13 -69 -38 -74 -27 -3 6 -4 2 -3 -9 1 -14 -3
-19 -15 -17 -11 2 -18 -5 -20 -20 -2 -13 -13 -27 -25 -33 -25 -11 -32 -50 -10
-58 9 -3 9 -7 0 -17 -12 -13 -37 -4 -28 11 8 12 -6 11 -25 -1 -13 -9 -12 -12
4 -21 15 -9 16 -13 5 -21 -10 -7 -7 -8 11 -4 21 4 28 0 38 -24 12 -26 16 -28
38 -20 44 17 47 13 41 -40 -6 -50 -6 -51 20 -48 29 3 38 -9 23 -32 -7 -10 -13
-11 -17 -5 -5 6 -20 11 -35 10 -20 0 -24 -3 -16 -12 8 -9 4 -15 -13 -21 -15
-6 -18 -11 -11 -16 7 -4 12 -16 12 -27 0 -15 -7 -19 -31 -19 -17 0 -37 7 -45
15 -13 13 -13 17 2 40 9 13 20 22 26 19 5 -3 4 -12 -3 -20 -13 -16 -6 -30 10
-19 6 3 11 17 11 30 0 13 6 30 14 37 21 21 30 58 14 58 -10 0 -9 3 2 10 8 5
11 13 6 17 -12 12 -36 -27 -36 -58 0 -31 -11 -42 -33 -33 -13 5 -13 9 0 35 8
16 13 36 11 45 -5 26 -39 -7 -47 -46 -3 -18 -11 -35 -17 -37 -15 -5 -25 35
-10 41 7 3 7 5 -1 5 -19 1 -16 28 4 35 12 5 13 10 5 18 -6 6 -9 16 -8 22 2 6
1 8 -1 4 -2 -4 -11 -4 -19 -1 -13 5 -13 7 -2 14 11 7 10 11 -2 19 -11 7 -17 5
-23 -8 -6 -14 -17 -17 -50 -13 -38 3 -40 2 -28 -13 8 -9 20 -15 29 -14 8 2 17
-3 20 -11 3 -10 -2 -12 -22 -7 -18 4 -26 2 -26 -6 1 -16 30 -56 30 -42 0 13
34 12 38 -1 1 -6 -4 -10 -10 -10 -7 0 -16 -8 -20 -18 -9 -21 -28 -23 -28 -2 0
19 -19 19 -44 0 -11 -8 -29 -15 -40 -15 -16 0 -18 -2 -7 -9 20 -13 6 -41 -20
-41 -19 0 -21 4 -16 36 l6 37 -26 -24 c-21 -20 -25 -21 -20 -6 4 10 7 25 7 33
0 8 9 14 20 14 15 0 21 9 26 40 5 30 11 40 25 40 11 0 28 9 39 20 16 16 17 20
4 20 -9 0 -14 6 -11 13 2 6 10 11 17 9 18 -4 50 28 50 51 0 17 -2 18 -16 6
-21 -17 -31 0 -40 64 -6 43 -25 69 -40 55 -6 -6 17 -60 28 -69 5 -3 -1 -15
-12 -27 -11 -11 -20 -24 -20 -27 0 -12 -45 -44 -61 -45 -24 0 -41 -24 -28 -37
8 -8 7 -13 -1 -18 -7 -4 -16 -1 -21 6 -7 11 -13 9 -29 -11 l-19 -25 24 -3 c30
-4 49 -35 39 -65 -5 -12 -7 -24 -7 -27 2 -7 -36 -9 -64 -4 -15 3 -23 12 -23
24 0 10 -5 22 -12 26 -7 5 -9 2 -5 -9 4 -10 0 -17 -11 -20 -16 -4 -15 -5 1 -6
24 -1 21 -34 -6 -60 -27 -24 -57 -20 -57 9 0 26 -26 45 -34 25 -7 -20 -26 -19
-26 2 0 16 -1 16 -16 1 -13 -13 -14 -20 -4 -38 6 -12 9 -24 6 -28 -3 -3 -6 1
-6 8 0 11 -3 11 -12 2 -7 -7 -18 -12 -25 -12 -20 0 -15 38 6 49 12 7 17 18 14
34 -4 22 -6 22 -43 -16 -28 -27 -45 -37 -58 -33 -24 8 -50 -19 -27 -28 8 -3
15 -17 15 -31 0 -18 5 -25 20 -25 11 0 20 -5 20 -11 0 -7 -11 -9 -26 -6 -17 3
-28 0 -31 -10 -6 -15 -51 -38 -68 -34 -33 9 -45 9 -50 0 -4 -5 -19 -9 -36 -9
-32 0 -40 -19 -11 -27 10 -2 24 -13 31 -25 11 -18 10 -19 -11 -13 -13 4 -25
12 -26 16 -5 14 -22 0 -22 -18 0 -10 6 -13 16 -9 8 3 13 2 9 -3 -3 -5 -19 -12
-35 -16 -50 -11 -34 -39 27 -50 36 -6 43 -4 53 15 6 12 9 28 6 36 -6 16 10 19
19 4 4 -6 1 -17 -5 -25 -9 -11 -9 -18 4 -30 15 -15 16 -15 16 2 0 11 5 24 12
31 15 15 38 16 38 2 0 -5 -7 -10 -15 -10 -8 0 -16 -7 -16 -15 -1 -8 -3 -19 -4
-25 -1 -5 -3 -14 -4 -19 0 -5 -13 -12 -28 -16 -38 -9 -53 -23 -46 -42 4 -9 -1
-21 -12 -29 -10 -8 -16 -16 -13 -19 3 -3 16 4 31 15 28 22 48 25 64 9 8 -8 13
-8 17 0 9 13 26 14 26 2 0 -15 -58 -40 -80 -34 -26 7 -70 -4 -70 -18 0 -11
113 -8 160 5 21 5 22 5 5 -3 -17 -8 -14 -10 16 -10 27 -1 41 5 55 24 10 14 25
25 32 25 9 0 11 7 7 20 -6 18 -3 20 19 14 19 -5 31 0 50 21 14 15 30 24 35 20
17 -10 71 23 65 40 -8 19 25 33 36 15 6 -9 9 -9 15 0 4 6 14 9 23 5 8 -3 18
-1 22 5 4 6 16 13 26 14 10 2 18 8 18 12 -1 5 -5 23 -8 40 -5 24 -3 33 9 38
12 4 19 0 22 -14 6 -23 23 -27 23 -6 0 8 5 18 11 22 8 4 9 -3 4 -25 -9 -42 1
-55 28 -36 12 8 32 15 45 15 13 0 30 7 38 15 9 8 20 15 25 15 14 0 11 -34 -7
-56 -15 -19 -15 -18 -9 3 5 18 2 20 -14 16 -12 -3 -19 -9 -16 -13 2 -4 -14
-12 -36 -19 -22 -7 -42 -18 -45 -25 -3 -8 -14 -12 -26 -8 -13 3 -19 1 -15 -5
4 -6 -1 -14 -10 -17 -14 -6 -15 -9 -4 -15 7 -5 11 -15 9 -22 -3 -9 -10 -3 -21
16 -9 17 -16 25 -17 19 0 -11 -5 -13 -59 -17 -20 -1 -36 -8 -39 -17 -7 -21
-55 -69 -69 -70 -14 0 -16 -10 -7 -34 6 -14 65 -16 569 -16 l562 0 -4 98 c-5
94 -4 99 29 162 18 35 38 66 43 67 6 2 16 -11 24 -28 11 -26 11 -32 -3 -48 -9
-10 -16 -25 -16 -33 0 -19 37 -31 44 -14 2 6 5 -6 5 -27 1 -23 -3 -36 -9 -32
-13 8 -13 -16 0 -50 8 -22 13 -24 30 -15 19 10 19 10 2 -22 -9 -18 -20 -34
-24 -36 -42 -19 77 -22 757 -22 553 0 765 3 765 11 0 7 7 8 18 4 43 -17 45
-16 15 12 -38 35 -38 29 -17 100 16 54 16 54 29 30 7 -14 16 -41 20 -59 10
-42 33 -78 52 -78 8 0 12 4 8 10 -3 5 7 5 25 -2 17 -5 33 -8 36 -5 8 8 -55 39
-65 32 -10 -6 -51 73 -51 99 0 9 -9 35 -21 58 -39 77 -51 145 -44 255 5 84 11
115 35 169 17 36 30 76 30 88 0 12 7 32 16 45 9 13 18 37 20 55 3 31 4 41 23
146 6 30 13 92 16 137 3 47 14 102 25 127 10 25 24 81 30 124 6 44 15 94 20
112 5 18 7 36 5 40 -6 9 50 196 63 213 5 7 13 27 17 46 4 19 16 50 26 68 11
19 19 42 19 53 0 10 11 31 24 47 29 35 116 200 122 233 3 13 9 29 13 35 4 5 8
23 9 39 4 59 21 146 36 178 11 27 116 310 131 356 3 6 10 12 17 12 8 0 13 14
14 36 0 20 5 39 10 42 6 4 16 31 22 61 7 30 24 69 37 87 14 18 25 36 25 39 0
4 9 18 19 32 11 13 25 48 32 78 7 33 18 55 27 57 9 2 16 18 19 43 2 22 13 55
23 73 11 17 15 32 11 32 -19 0 1 103 26 131 11 14 12 18 1 21 -10 4 -10 8 -2
19 6 8 17 35 24 62 7 26 17 47 22 47 6 0 8 7 4 15 -3 10 1 15 12 15 14 0 14 2
3 9 -12 7 -9 16 15 48 39 51 76 110 98 156 9 20 24 37 33 37 12 0 13 3 4 14
-10 12 -9 20 3 38 8 13 20 59 25 103 6 44 15 107 21 140 5 33 15 105 21 160 6
55 13 120 16 144 3 28 13 52 29 68 13 13 24 27 24 31 0 4 9 14 20 22 11 8 20
19 20 24 0 5 15 27 33 50 19 23 47 69 63 103 16 34 35 62 42 62 13 1 17 21 4
21 -5 0 -19 -9 -32 -20 -13 -11 -26 -18 -28 -15 -3 3 1 11 9 18 27 21 51 68
46 88 -3 11 1 23 10 28 13 7 14 19 9 64 -11 84 -26 88 -68 20 -19 -32 -42 -77
-52 -100 -10 -23 -24 -44 -31 -47 -14 -5 -45 -62 -45 -82 0 -7 -5 -25 -12 -39
-14 -31 -53 -34 -77 -4 -17 21 -18 21 -44 4 -15 -9 -25 -21 -22 -25 9 -14
-140 -66 -210 -73 -11 -1 -31 -10 -45 -19 -37 -25 -106 -34 -123 -16 -19 19
-91 12 -83 -8 3 -8 3 -14 0 -14 -3 0 -39 -7 -81 -16 -89 -18 -125 -15 -273 25
-58 16 -130 34 -160 41 -76 17 -287 83 -392 122 -35 13 -36 28 -3 28 14 0 25
4 25 9 0 14 -23 19 -45 10 -29 -11 -95 -11 -95 1 0 6 -10 10 -23 10 -75 0
-450 154 -557 228 -86 59 -580 558 -649 655 -11 15 -11 23 -1 43 16 29 6 43
-19 27 -15 -10 -24 -5 -55 33 -21 24 -57 74 -82 111 -38 57 -49 66 -75 67 -17
1 -33 -2 -36 -6z m-909 -2043 l24 -16 -24 -49 c-26 -54 -35 -63 -27 -27 l5 22
-20 -22 c-11 -13 -31 -27 -44 -32 -23 -10 -23 -10 4 -10 15 -1 30 -6 34 -12 5
-8 9 -7 15 4 9 16 49 12 49 -4 0 -5 5 -9 11 -9 14 0 39 25 39 39 0 6 6 11 14
11 11 0 12 -5 3 -25 -7 -14 -18 -25 -24 -25 -7 0 -13 -4 -13 -10 0 -5 -7 -10
-15 -10 -8 0 -15 5 -15 10 0 17 -19 11 -43 -11 -12 -12 -16 -19 -9 -15 18 10
15 -10 -5 -29 -14 -14 -14 -18 -2 -26 16 -9 27 10 28 49 1 12 5 22 9 22 10 0
8 -33 -3 -68 -6 -17 -12 -21 -29 -16 -11 4 -22 11 -24 15 -2 5 -10 9 -18 9
-19 0 -18 19 1 26 17 7 21 54 5 54 -5 0 -10 -4 -10 -10 0 -5 -4 -10 -10 -10
-5 0 -10 6 -10 14 0 18 -23 27 -40 16 -10 -6 -11 -12 -2 -22 8 -11 6 -17 -9
-27 -19 -11 -20 -10 -13 11 6 21 5 21 -10 9 -11 -9 -20 -11 -26 -5 -7 7 4 19
30 34 22 14 40 33 40 42 0 10 10 27 23 39 12 12 16 19 10 15 -7 -4 -13 -3 -13
2 0 6 7 13 16 16 23 9 27 8 20 -9 -3 -10 1 -15 14 -15 10 0 25 7 34 15 8 8 20
15 26 15 7 0 2 9 -11 20 -29 23 -18 26 15 5z m147 -82 c1 -10 1 -21 0 -25 0
-5 10 -8 23 -8 14 0 28 -4 31 -10 11 -17 44 -11 55 10 13 24 26 26 33 6 4 -11
1 -13 -11 -9 -9 3 -14 3 -10 -1 14 -16 -22 -61 -59 -73 -28 -9 -31 -12 -10 -9
15 2 27 -1 27 -5 0 -19 -2 -24 -11 -22 -5 2 -6 -12 -3 -31 3 -21 0 -37 -7 -41
-8 -5 -9 -1 -5 13 9 27 -12 39 -29 16 -9 -11 -14 -14 -15 -6 0 6 -6 12 -14 12
-8 0 -17 6 -20 13 -4 6 -4 2 -2 -10 3 -15 -1 -23 -10 -23 -18 0 -18 11 -1 35
10 12 16 14 21 7 4 -7 14 -12 22 -12 9 0 12 5 8 12 -5 8 0 9 14 6 35 -10 25
10 -13 26 -35 15 -50 40 -17 30 14 -5 15 -4 2 5 -12 8 -20 5 -36 -14 -25 -29
-36 -32 -27 -7 5 14 3 15 -8 5 -7 -7 -17 -13 -22 -13 -13 0 2 19 25 31 15 8
19 8 14 0 -4 -6 -3 -11 3 -11 6 0 15 9 21 20 7 14 17 19 29 15 10 -3 24 1 31
10 12 14 10 15 -15 9 -17 -4 -26 -3 -22 3 3 5 2 15 -4 23 -6 11 -9 12 -9 2 0
-7 -4 -10 -10 -7 -6 4 -5 13 3 25 15 25 27 26 28 3z m-559 -676 c-2 -11 4 -17
16 -17 12 0 22 -9 25 -21 4 -13 10 -19 19 -14 7 3 3 -2 -10 -13 -13 -12 -20
-26 -16 -36 3 -9 1 -16 -5 -16 -6 0 -10 -5 -8 -11 2 -11 -83 -42 -92 -34 -8 9
22 35 40 35 11 0 19 5 19 10 0 20 -36 10 -67 -19 -31 -28 -31 -29 -10 -39 21
-10 21 -11 -5 -11 -17 -1 -28 -7 -28 -15 0 -8 -8 -13 -17 -12 -10 0 -23 -11
-31 -28 -11 -22 -16 -25 -23 -15 -7 11 -9 10 -9 -3 0 -11 -8 -18 -20 -18 -20
0 -20 1 -3 25 10 13 23 25 29 25 7 0 11 8 10 18 0 11 6 17 19 17 25 1 45 13
45 27 0 7 -5 6 -14 -1 -10 -8 -16 -9 -21 -1 -3 5 -1 10 5 10 6 0 29 12 52 28
l42 27 -30 6 c-28 5 -28 5 -6 13 16 5 22 15 22 37 0 19 5 29 14 29 19 0 30
-17 14 -22 -9 -3 -8 -9 5 -22 9 -10 17 -16 18 -14 6 28 2 75 -7 71 -6 -2 -14
5 -16 15 -5 17 -2 19 21 12 17 -4 25 -13 23 -23z m2077 -123 c21 -19 31 -39
31 -58 0 -20 4 -27 14 -23 10 4 13 0 11 -15 -4 -16 0 -19 18 -15 20 5 20 5 5
-7 -16 -12 -14 -16 22 -44 21 -18 46 -32 54 -32 8 0 18 -4 21 -10 3 -5 13 -10
22 -10 12 0 14 7 10 30 -7 32 -7 33 17 24 9 -3 14 -10 11 -15 -3 -4 4 -13 15
-19 16 -9 22 -8 26 5 4 9 13 13 24 10 11 -3 20 0 24 10 3 8 17 15 31 15 14 0
25 5 25 10 0 6 7 10 15 10 18 0 19 -12 3 -28 -9 -9 -7 -12 10 -12 17 0 21 -6
21 -27 -1 -16 4 -48 10 -73 20 -78 19 -103 -5 -122 -12 -10 -34 -18 -48 -18
-14 0 -26 -4 -26 -10 0 -5 9 -10 20 -10 11 0 20 -7 20 -15 0 -8 -9 -15 -20
-15 -12 0 -17 -5 -14 -13 13 -36 -51 -117 -91 -116 -15 1 -16 2 -3 6 22 6 32
33 12 33 -8 0 -24 -5 -34 -10 -12 -6 -28 -7 -43 -1 -21 8 -25 6 -37 -25 -8
-19 -17 -34 -22 -34 -4 0 -8 -5 -8 -10 0 -17 31 -24 40 -10 7 11 12 11 23 2 8
-7 23 -10 33 -6 14 4 13 1 -6 -15 -14 -11 -38 -21 -55 -21 -22 0 -26 -3 -17
-12 7 -7 8 -17 1 -30 -8 -15 -5 -20 16 -28 36 -14 38 -13 32 9 -5 20 16 36 33
26 11 -7 0 -45 -12 -45 -6 0 -8 -6 -5 -14 9 -24 -23 -27 -50 -6 -14 11 -32 20
-39 20 -15 0 -17 -6 -18 -60 -1 -28 -5 -36 -23 -38 -20 -3 -23 1 -23 28 0 17
7 42 16 55 15 24 15 25 -9 34 -31 12 -40 36 -24 62 10 17 9 22 -5 30 -10 6
-18 17 -18 26 0 10 6 14 18 10 9 -2 23 -6 31 -8 10 -3 17 9 24 39 10 50 4 61
-20 40 -10 -8 -26 -18 -35 -21 -26 -9 -23 20 3 33 19 11 20 13 4 30 -10 11
-12 20 -6 24 5 4 14 -1 19 -10 12 -21 33 -9 25 12 -5 14 -3 15 16 5 12 -7 19
-16 16 -22 -4 -5 9 -9 27 -9 l33 0 -27 25 c-15 14 -38 30 -50 35 l-23 9 23 0
c29 1 28 6 -12 55 -31 38 -40 61 -37 92 0 6 24 14 51 18 44 6 49 9 41 24 -5 9
-29 23 -53 30 -44 13 -85 45 -125 95 -12 16 -23 27 -25 26 -2 -1 -14 2 -28 6
-22 7 -23 9 -7 14 29 10 20 25 -15 25 -26 1 -33 6 -39 30 -12 44 5 59 62 54
35 -4 56 -13 78 -34z m-108 -133 c7 12 9 12 9 0 0 -10 3 -11 14 -2 8 7 16 8
19 4 7 -11 -11 -53 -22 -53 -5 0 -8 -12 -6 -27 2 -16 4 -32 4 -36 1 -5 26 -34
57 -64 30 -30 53 -58 49 -61 -3 -3 -26 9 -50 26 -25 18 -48 32 -51 32 -3 0 -4
-17 -2 -37 3 -32 6 -38 25 -36 11 1 24 -4 27 -12 3 -9 -1 -15 -10 -15 -8 0
-13 -4 -10 -9 3 -5 15 -7 25 -4 21 5 37 -12 21 -22 -17 -11 -53 2 -82 30 -22
20 -28 35 -28 66 0 39 -23 99 -38 99 -4 0 -8 37 -9 82 l-1 83 25 -29 c20 -23
27 -26 34 -15z m-13 -830 c-2 -9 -13 -17 -25 -19 -11 -2 -23 -11 -26 -20 -3
-9 -8 -26 -13 -36 -5 -13 -4 -17 3 -13 6 4 21 -5 32 -20 20 -27 20 -27 21 -5
0 29 13 28 29 -2 10 -18 10 -29 1 -47 -10 -21 -9 -22 3 -7 10 13 16 15 25 6 7
-7 12 -17 12 -24 0 -6 7 -17 15 -24 9 -7 15 -20 13 -29 -1 -9 1 -22 6 -29 15
-24 -3 -25 -32 -1 -16 13 -35 36 -41 52 -7 15 -17 27 -22 27 -16 0 -10 -26 11
-45 11 -10 22 -25 25 -35 3 -9 17 -22 31 -28 31 -15 88 -16 79 -2 -14 23 26
20 52 -4 27 -25 27 -26 5 -26 -13 0 -22 -6 -22 -15 0 -20 16 -19 38 3 16 16
22 17 36 7 14 -11 15 -13 1 -19 -24 -9 -17 -24 13 -28 21 -2 26 -8 24 -24 -2
-12 7 -39 19 -60 31 -55 40 -99 24 -121 -12 -16 -16 -16 -63 -1 -49 15 -50 15
-55 -4 -4 -15 -11 -18 -26 -13 -12 4 -21 2 -21 -4 0 -6 7 -11 15 -11 17 0 20
-25 5 -35 -5 -3 -10 -10 -10 -16 0 -14 26 -11 40 6 20 24 33 18 27 -14 -4 -19
-2 -31 6 -34 9 -3 6 -15 -9 -43 -12 -21 -25 -52 -28 -68 -4 -16 -23 -45 -41
-65 l-34 -34 -40 18 c-22 9 -42 24 -46 32 -5 13 -8 13 -29 0 -21 -14 -27 -14
-64 4 -22 11 -65 47 -96 79 -47 49 -56 64 -57 97 -1 55 -8 102 -18 121 -8 16
0 96 11 107 2 3 19 8 36 11 30 6 32 5 32 -23 0 -17 9 -38 20 -48 15 -14 19
-26 15 -46 -8 -37 12 -66 60 -88 22 -10 66 -30 98 -45 58 -26 147 -36 147 -16
0 6 -13 10 -29 10 -16 0 -42 10 -58 23 -15 13 -49 36 -75 51 -27 15 -48 30
-48 34 0 4 -21 29 -45 56 -53 58 -94 140 -105 210 -5 28 -13 69 -19 91 -12 49
2 178 24 212 9 13 24 23 35 23 11 0 20 6 20 14 0 8 12 16 28 18 41 5 63 -3 60
-21z m-2924 -219 c-6 -4 -11 -14 -11 -22 0 -8 -4 -23 -8 -32 -4 -11 0 -20 14
-27 16 -9 21 -8 26 7 5 18 44 42 65 42 11 0 1 -32 -14 -42 -6 -4 -16 -2 -23 4
-10 8 -13 5 -13 -15 0 -34 -41 -81 -72 -82 -14 -1 -44 -11 -68 -24 -23 -12
-45 -20 -47 -17 -3 3 10 21 30 39 19 19 38 45 42 58 4 13 13 31 20 39 22 26
25 61 7 68 -12 5 -7 8 18 12 38 6 51 3 34 -8z m-474 -667 c0 -8 -11 -22 -24
-31 -29 -18 -35 -38 -25 -76 5 -19 3 -28 -7 -32 -8 -3 -14 -12 -14 -20 0 -19
-37 -27 -51 -10 -11 14 -10 15 13 18 6 0 13 7 16 15 6 18 -39 4 -54 -17 -8
-12 -15 -12 -30 -4 -18 11 -18 12 4 18 28 8 29 24 1 24 -15 0 -19 5 -15 15 8
22 -28 14 -59 -13 -37 -32 -66 -30 -31 3 26 24 36 42 16 30 -5 -3 -10 0 -10 8
0 8 6 17 14 20 9 4 12 14 9 26 -6 23 -18 27 -26 11 -3 -6 -4 -5 -3 2 2 7 16
13 32 12 16 0 28 -6 26 -12 -1 -7 4 -12 10 -13 7 0 3 -4 -9 -9 -14 -6 -23 -18
-23 -30 0 -17 3 -19 18 -11 25 13 64 10 58 -5 -5 -13 16 -26 46 -29 9 -1 20 5
23 13 5 13 7 13 19 -3 11 -15 13 -16 13 -1 0 9 -4 16 -9 16 -4 0 -8 8 -9 18 0
13 -3 12 -11 -5 -6 -13 -15 -23 -20 -23 -10 0 12 41 32 57 8 7 23 13 33 13 10
0 17 8 17 20 0 11 7 20 15 20 8 0 15 -7 15 -15z m2826 -270 c-3 -8 -9 -21 -12
-29 -3 -9 3 -17 15 -21 20 -6 28 -25 15 -38 -4 -3 -16 0 -28 8 -19 14 -56 21
-56 11 0 -21 14 -33 32 -28 18 4 20 2 15 -17 -5 -20 -2 -22 16 -17 11 3 26 1
32 -4 7 -6 11 -1 10 17 0 14 6 28 14 31 10 3 13 -2 9 -21 -6 -32 8 -59 20 -39
5 7 19 11 33 10 34 -4 54 -67 27 -86 -10 -7 -23 -10 -28 -7 -6 3 -10 -3 -10
-15 0 -13 4 -19 11 -14 7 4 10 1 7 -7 -7 -21 -31 -17 -34 5 -1 10 -8 22 -14
26 -7 4 -8 18 -5 33 10 39 -1 49 -36 32 -19 -11 -29 -12 -29 -4 0 7 -12 10
-30 7 -20 -3 -30 0 -30 9 0 7 5 13 11 13 6 0 -3 14 -21 30 -30 28 -34 29 -50
15 -9 -8 -20 -12 -23 -8 -4 4 13 18 38 33 25 15 42 30 38 34 -5 5 3 5 15 1 21
-6 23 -4 17 14 -8 25 1 41 22 41 9 0 13 -6 9 -15z m-3197 -51 c13 -11 12 -14
-3 -20 -11 -4 -22 0 -32 12 -14 18 -15 18 -9 -3 4 -15 2 -23 -7 -24 -7 -1 -22
-2 -33 -3 -16 -1 -20 -8 -20 -41 0 -31 4 -41 18 -43 23 -5 51 29 34 40 -17 11
10 27 34 21 20 -6 26 -23 8 -23 -5 0 -8 -4 -4 -10 3 -5 0 -18 -7 -30 -16 -24
-79 -28 -98 -5 -7 8 -19 15 -27 15 -8 0 -11 5 -8 10 11 18 -14 10 -61 -20 -36
-22 -51 -27 -61 -19 -9 8 -13 8 -13 0 0 -6 -15 -11 -32 -11 -34 -1 -73 -22
-61 -33 3 -4 -6 -7 -21 -7 -16 0 -25 4 -21 10 3 6 1 10 -4 10 -6 0 -11 -4 -11
-10 0 -5 -7 -10 -15 -10 -38 0 -6 34 41 44 18 4 37 17 44 31 7 14 22 25 32 25
20 0 25 -16 6 -22 -7 -3 -8 -9 -3 -18 6 -10 10 -10 20 4 7 9 17 16 21 15 21
-4 32 2 36 19 4 14 16 17 61 16 45 0 57 3 57 15 0 21 42 80 60 84 23 6 63 -4
79 -19z m3136 -84 c3 -5 0 -10 -7 -10 -7 0 -19 -13 -26 -28 -12 -29 -13 -82
-1 -82 16 0 39 13 39 21 0 4 -7 6 -15 3 -8 -4 -15 -1 -15 5 0 6 7 11 15 11 8
0 15 4 15 8 0 11 44 10 51 -1 4 -5 15 -4 28 2 27 15 27 0 0 -18 -17 -10 -23
-10 -29 0 -9 13 -40 5 -40 -11 0 -5 8 -10 18 -10 16 -1 16 -2 -1 -15 -14 -10
-17 -20 -12 -36 7 -20 9 -21 19 -7 6 8 21 18 34 22 12 4 22 12 22 17 0 11 27
12 33 2 2 -5 7 -21 11 -36 6 -26 5 -28 -15 -22 -19 6 -21 4 -16 -14 4 -18 2
-19 -13 -11 -27 15 -32 12 -26 -12 3 -13 3 -17 0 -10 -9 19 -23 14 -36 -13 -6
-14 -18 -25 -27 -25 -12 0 -12 3 -3 12 15 15 16 64 2 73 -6 4 -8 15 -5 26 5
14 2 17 -9 13 -8 -3 -23 -1 -34 5 -18 10 -22 6 -35 -32 l-14 -42 0 42 c0 33 4
44 18 48 17 6 18 8 3 22 -17 17 -15 59 3 56 6 -1 9 6 6 16 -6 24 49 52 62 31z"/>
<path d="M4246 1455 c4 -8 15 -15 25 -15 10 0 19 -6 19 -13 0 -25 58 -70 92
-72 18 -2 51 -6 73 -9 94 -16 95 -16 95 -1 0 10 -10 15 -26 15 -22 0 -24 2
-14 15 10 12 8 16 -14 25 -15 5 -39 13 -54 16 -15 4 -54 14 -87 24 -100 30
-115 32 -109 15z"/>
<path d="M541 3257 c-6 -8 -30 -20 -53 -27 -24 -8 -51 -20 -60 -28 -10 -8 -30
-13 -46 -10 -24 3 -28 1 -24 -14 6 -23 -7 -23 -23 -1 -8 11 -17 13 -26 7 -8
-5 -31 -9 -51 -10 -42 0 -57 -9 -41 -25 8 -8 13 -8 17 0 9 13 36 15 36 2 0 -5
-8 -12 -17 -14 -14 -4 -12 -5 5 -6 12 0 22 -5 22 -11 0 -11 32 -1 43 14 5 7
10 6 17 -4 9 -13 12 -13 23 0 13 17 57 24 57 9 0 -13 37 -11 46 3 5 7 2 9 -9
5 -8 -3 -20 0 -26 7 -13 16 -4 27 15 19 8 -3 14 0 14 6 0 8 5 9 17 3 17 -10
26 -5 68 36 12 12 27 22 34 22 6 0 11 7 11 15 0 19 -34 20 -49 2z"/>
<path d="M2123 1003 c-7 -2 -13 -11 -13 -19 0 -8 -3 -14 -7 -15 -66 -7 -93
-17 -93 -35 0 -8 -8 -22 -18 -32 -10 -10 -19 -25 -19 -33 0 -8 -3 -26 -6 -40
-6 -22 -2 -28 21 -38 15 -7 24 -9 20 -5 -5 4 1 13 12 21 11 8 20 20 20 27 0 8
10 16 22 19 28 8 22 12 -22 21 -24 4 -30 3 -20 -3 8 -6 11 -13 8 -17 -4 -3
-14 0 -22 9 -14 13 -14 16 -1 21 8 3 15 12 15 20 0 7 12 21 26 31 22 14 28 15
35 4 5 -8 9 -18 9 -24 0 -5 -4 -4 -9 4 -5 8 -11 9 -15 3 -3 -5 1 -13 10 -16
13 -5 15 -14 9 -42 -5 -28 -3 -35 7 -31 7 2 12 10 10 16 -1 7 2 21 8 31 7 14
7 20 0 20 -5 0 -10 7 -10 15 0 20 37 34 78 28 19 -3 32 -1 32 5 0 6 10 20 22
32 l22 20 -23 0 c-14 0 -25 -7 -28 -20 -3 -11 -9 -20 -13 -20 -5 0 -6 9 -3 20
4 14 0 20 -10 20 -8 0 -21 2 -29 4 -7 3 -19 2 -25 -1z"/>
</g>
</svg>
