<?xml version="1.0" encoding="UTF-8"?>
<svg version="1.1" xmlns="http://www.w3.org/2000/svg" width="1280" height="720">
<path d="M0 0 C422.4 0 844.8 0 1280 0 C1280 237.6 1280 475.2 1280 720 C857.6 720 435.2 720 0 720 C0 482.4 0 244.8 0 0 Z " fill="#879DF2" transform="translate(0,0)"/>
<path d="M0 0 C168.96 0 337.92 0 512 0 C512 237.6 512 475.2 512 720 C343.04 720 174.08 720 0 720 C0 482.4 0 244.8 0 0 Z " fill="#8E9ABA" transform="translate(768,0)"/>
<path d="M0 0 C84.48 0 168.96 0 256 0 C256 237.6 256 475.2 256 720 C171.52 720 87.04 720 0 720 C0 482.4 0 244.8 0 0 Z " fill="#7582AB" transform="translate(768,0)"/>
<path d="M0 0 C84.48 0 168.96 0 256 0 C256 237.6 256 475.2 256 720 C171.52 720 87.04 720 0 720 C0 482.4 0 244.8 0 0 Z " fill="#15388B" transform="translate(512,0)"/>
<path d="M0 0 C84.48 0 168.96 0 256 0 C256 237.6 256 475.2 256 720 C171.52 720 87.04 720 0 720 C0 482.4 0 244.8 0 0 Z " fill="#102C94" transform="translate(0,0)"/>
</svg>
