<?xml version="1.0" encoding="UTF-8"?>
<svg version="1.1" xmlns="http://www.w3.org/2000/svg" width="50" height="45">
<path d="M0 0 C2.97 0 5.94 0 9 0 C9 0.66 9 1.32 9 2 C9.99 2.33 10.98 2.66 12 3 C12 6.3 12 9.6 12 13 C11.01 13 10.02 13 9 13 C8.773125 13.556875 8.54625 14.11375 8.3125 14.6875 C6.62449964 17.66159588 4.53323483 19.72008865 2 22 C1.34 22 0.68 22 0 22 C4.49648009 27.47819004 4.49648009 27.47819004 9.9375 31.9375 C12.4544419 34.4544419 12.30174846 35.29337917 12.3125 38.75 C12.23243845 40.16823316 12.13595863 41.58603027 12 43 C11.34 43 10.68 43 10 43 C10 43.66 10 44.32 10 45 C4.74679754 45.69289673 0.01554505 46.18529044 -4.67773438 43.42529297 C-7.21013734 41.22088196 -9.4816894 38.912196 -11.75 36.4375 C-12.554375 35.63763672 -13.35875 34.83777344 -14.1875 34.01367188 C-17.67180593 30.38418653 -19.79825405 28.16238509 -20.671875 23.12890625 C-20.01907043 20.08881054 -19.6144884 18.70446663 -17.5 16.5 C-16.95601562 15.92636719 -16.41203125 15.35273438 -15.8515625 14.76171875 C-13.24629646 12.28286858 -10.57165881 9.90279869 -7.828125 7.578125 C-5.85154029 5.91764787 -5.85154029 5.91764787 -3.625 3.5625 C-2 2 -2 2 0 2 C0 1.34 0 0.68 0 0 Z " fill="#030303" transform="translate(38,0)"/>
<path d="M0 0 C0.70253906 0.2784375 1.40507813 0.556875 2.12890625 0.84375 C1.17012095 6.17065254 -2.89644985 8.94608526 -6.7421875 12.421875 C-8.59392826 14.12070962 -8.59392826 14.12070962 -10.87109375 16.84375 C-10.78744348 18.92593724 -10.78744348 18.92593724 -9.87109375 20.84375 C-8.2281418 22.20619796 -6.56285038 23.54239875 -4.87109375 24.84375 C-4.87109375 25.50375 -4.87109375 26.16375 -4.87109375 26.84375 C-4.27296875 27.111875 -3.67484375 27.38 -3.05859375 27.65625 C-0.79536014 28.88486253 0.64431202 29.73406346 2.12890625 31.84375 C1.81640625 34.53125 1.81640625 34.53125 1.12890625 36.84375 C-3.1735624 36.34086405 -5.08387861 35.11301751 -8.078125 32.02734375 C-8.82900391 31.26357422 -9.57988281 30.49980469 -10.35351562 29.71289062 C-11.12244141 28.91044922 -11.89136719 28.10800781 -12.68359375 27.28125 C-13.47185547 26.47494141 -14.26011719 25.66863281 -15.07226562 24.83789062 C-17.01452291 22.84854831 -18.94683036 20.85047729 -20.87109375 18.84375 C-16.9721884 14.22359478 -13.00460587 9.69677419 -8.80859375 5.34375 C-8.30521484 4.79460938 -7.80183594 4.24546875 -7.28320312 3.6796875 C-3.5236176 -0.1917615 -3.5236176 -0.1917615 0 0 Z " fill="#EDEDED" transform="translate(42.87109375,5.15625)"/>
</svg>
