<?xml version="1.0" standalone="no"?>
<!DOCTYPE svg PUBLIC "-//W3C//DTD SVG 20010904//EN"
 "http://www.w3.org/TR/2001/REC-SVG-20010904/DTD/svg10.dtd">
<svg version="1.0" xmlns="http://www.w3.org/2000/svg"
 width="1600.000000pt" height="739.000000pt" viewBox="0 0 1600.000000 739.000000"
 preserveAspectRatio="xMidYMid meet">
<metadata>
Created by potrace 1.16, written by Peter Selinger 2001-2019
</metadata>
<g transform="translate(0.000000,739.000000) scale(0.100000,-0.100000)"
fill="#000000" stroke="none">
<path d="M10559 7382 c-1 -4 -1 -11 0 -16 1 -4 -4 -14 -10 -22 -7 -8 -9 -18
-5 -22 4 -4 13 1 20 11 7 9 18 17 25 17 6 0 11 7 11 15 0 8 5 15 10 15 14 0
12 -27 -2 -33 -10 -4 -9 -8 2 -16 8 -6 10 -11 5 -11 -6 0 -11 -10 -12 -21 -2
-29 -12 -37 -23 -19 -6 8 -10 13 -11 10 -12 -67 -11 -66 -35 -43 -17 17 -17
17 -11 1 4 -11 2 -18 -5 -18 -7 0 -7 -4 1 -13 14 -18 2 -30 -15 -16 -16 13
-35 3 -28 -15 3 -7 -2 -18 -10 -25 -12 -10 -14 -8 -12 14 4 28 -9 43 -17 21
-4 -9 -16 -12 -34 -9 -27 4 -27 4 -9 -11 11 -9 20 -26 21 -38 1 -15 9 -24 23
-26 14 -2 26 -15 33 -37 11 -28 16 -32 31 -24 11 6 18 6 18 0 0 -10 -24 -21
-45 -21 -8 0 -12 8 -9 23 2 12 1 16 -2 9 -5 -10 -9 -10 -20 -1 -9 8 -14 8 -14
1 0 -6 5 -14 10 -17 16 -10 12 -35 -4 -29 -8 3 -18 19 -21 36 -5 20 -10 26
-15 18 -5 -9 -13 -9 -25 -3 -12 7 -14 13 -6 17 16 10 14 26 -4 26 -8 0 -15 -4
-15 -8 0 -4 -18 -8 -40 -9 -31 -2 -40 2 -41 15 0 14 -3 13 -16 -5 -17 -25 -39
-30 -46 -10 -2 6 -6 -7 -8 -29 -4 -39 -3 -41 17 -34 13 5 26 4 32 -2 8 -8 15
-8 27 2 13 11 15 8 15 -19 0 -19 6 -34 15 -37 17 -7 21 -34 5 -34 -5 0 -10 -8
-11 -17 0 -11 -3 -13 -6 -5 -7 17 -23 15 -23 -4 0 -8 -5 -12 -10 -9 -6 3 -13
-1 -16 -9 -5 -14 -8 -14 -22 0 -14 14 -17 15 -27 1 -7 -9 -20 -13 -36 -10 -34
6 -58 -21 -41 -48 7 -11 10 -30 6 -44 -6 -25 10 -36 19 -12 4 8 6 7 6 -3 1
-15 14 -16 114 -11 17 0 26 5 22 11 -4 6 -15 8 -25 5 -21 -7 -33 7 -24 29 5
13 9 12 27 -4 12 -12 35 -20 54 -20 18 0 33 -4 33 -10 0 -5 11 -10 25 -10 16
0 25 -6 25 -15 0 -8 -5 -15 -10 -15 -6 0 -17 -15 -25 -32 -11 -27 -15 -30 -20
-16 -4 10 -12 15 -18 11 -6 -4 -8 2 -5 15 5 17 2 22 -13 22 -11 0 -19 -7 -20
-17 0 -15 -2 -15 -8 2 -5 11 -7 23 -4 28 9 15 -18 6 -36 -12 -11 -11 -22 -17
-25 -14 -3 4 -6 -10 -6 -30 0 -21 -3 -37 -6 -37 -9 0 -29 24 -30 38 -2 27 -4
32 -14 32 -6 0 -10 -6 -9 -12 3 -25 -1 -38 -12 -38 -6 0 -8 8 -4 19 5 15 1 18
-21 13 -17 -3 -22 -7 -14 -12 7 -4 13 -25 14 -46 1 -34 -2 -39 -20 -37 -22 2
-83 -52 -71 -64 4 -3 14 2 22 13 14 18 14 18 15 -6 0 -31 -15 -57 -24 -42 -4
6 -13 9 -20 6 -7 -3 -16 2 -20 12 -5 13 -9 14 -21 4 -13 -11 -14 -10 -8 5 5
14 3 17 -10 12 -11 -4 -17 0 -19 15 -2 12 -10 24 -18 26 -8 3 -12 1 -8 -3 4
-5 3 -14 -3 -22 -9 -9 -8 -13 0 -13 6 0 11 -7 11 -15 0 -8 9 -19 21 -25 16 -9
19 -18 14 -37 -5 -21 -3 -24 15 -18 16 5 20 2 20 -14 0 -12 -7 -21 -15 -21 -8
0 -15 5 -15 12 0 6 -3 8 -6 5 -4 -3 -16 0 -27 8 -12 8 -31 12 -44 9 -19 -5
-23 -2 -23 17 -1 22 -2 22 -11 6 -9 -15 -13 -16 -25 -6 -12 10 -19 8 -36 -8
-21 -22 -17 -43 8 -43 13 0 13 -3 -2 -17 -16 -17 -16 -18 -1 -21 9 -2 17 -7
17 -12 0 -4 10 -10 21 -13 16 -4 20 -11 15 -23 -4 -10 -1 -21 6 -26 10 -6 10
-8 1 -8 -7 0 -13 -7 -13 -15 0 -18 12 -19 27 -4 7 7 12 4 16 -10 3 -12 1 -24
-4 -27 -18 -11 -8 -21 19 -17 57 7 -88 -41 -203 -68 -22 -5 -69 -18 -105 -28
-72 -21 -172 -48 -300 -81 -47 -12 -92 -25 -100 -28 -8 -3 -19 -6 -25 -7 -5 0
-17 -4 -25 -7 -8 -4 -35 -11 -60 -16 -25 -5 -88 -22 -140 -37 -52 -14 -131
-36 -175 -48 l-80 -22 -3 -37 c-2 -21 1 -38 7 -38 5 0 16 -6 23 -12 7 -7 64
-38 127 -69 l113 -57 -56 -16 c-30 -9 -79 -21 -107 -26 -29 -6 -71 -15 -93
-21 -23 -6 -113 -27 -201 -46 -88 -19 -183 -39 -212 -45 -45 -10 -54 -9 -68 6
-22 22 -61 17 -58 -7 0 -12 -4 -16 -13 -13 -8 3 -14 1 -14 -4 0 -6 -5 -10 -11
-10 -11 0 -82 -50 -87 -62 -6 -13 -30 -9 -35 5 -4 8 -6 7 -6 -3 -1 -8 -17 -26
-37 -39 -30 -21 -37 -22 -45 -10 -7 10 -8 4 -4 -18 6 -30 4 -33 -17 -33 -21 0
-26 8 -38 50 -8 30 -20 52 -31 55 -10 3 -19 18 -21 33 l-4 27 -12 -27 c-9 -21
-18 -28 -39 -28 -20 0 -24 3 -14 9 11 7 11 14 -3 41 -12 25 -13 36 -5 46 15
19 -1 18 -46 0 -19 -8 -35 -22 -35 -30 0 -23 -39 -44 -97 -52 -37 -4 -58 -3
-68 6 -21 17 -19 30 4 30 31 0 34 17 10 60 -30 53 -19 60 23 15 33 -35 102
-62 113 -45 3 5 -7 18 -21 29 -22 17 -46 49 -88 119 -4 6 9 2 29 -9 20 -12 41
-33 46 -46 5 -13 13 -22 18 -19 5 4 11 3 14 -1 2 -5 2 -2 1 5 -2 6 1 12 7 12
6 0 8 4 4 9 -3 5 -1 12 5 16 6 4 8 10 5 15 -3 5 3 28 15 52 24 50 19 74 -18
81 -15 2 -84 16 -154 31 -146 30 -176 32 -184 12 -7 -18 -27 -27 -83 -36 l-44
-7 38 33 c38 32 38 33 14 38 -207 43 -348 82 -418 116 -43 21 -81 36 -84 34
-11 -11 25 -140 46 -162 151 -164 152 -165 193 -158 22 4 75 10 119 13 56 4
72 8 55 13 -23 7 -23 8 -6 15 13 6 23 3 31 -8 18 -25 52 -21 113 14 30 16 50
24 46 17 -21 -36 -77 -97 -85 -92 -5 3 -6 -1 -3 -9 3 -9 -10 -27 -33 -46 -21
-17 -33 -31 -27 -31 12 0 55 34 101 80 22 21 24 22 15 4 -20 -38 -90 -93 -134
-105 -24 -6 -62 -17 -85 -24 -40 -13 -55 -11 -133 11 -32 9 -49 27 -133 139
-78 104 -97 155 -97 267 0 76 -1 78 -30 93 -34 17 -37 14 -42 -40 -2 -19 -11
-34 -26 -41 -12 -6 -26 -15 -30 -19 -4 -5 -1 -5 7 0 10 6 12 4 7 -4 -5 -7 -14
-10 -22 -7 -8 3 -14 0 -14 -7 0 -11 -46 -60 -129 -140 -134 -129 -138 -133
-165 -208 -16 -41 -34 -88 -41 -104 -17 -37 -36 -118 -30 -124 7 -6 32 57 52
130 29 107 81 183 153 223 l34 20 -38 -47 c-40 -49 -45 -71 -10 -39 11 9 30
26 43 37 l24 20 -11 -22 c-7 -12 -15 -23 -20 -25 -4 -1 -18 -19 -30 -39 -20
-33 -21 -38 -6 -50 13 -11 17 -11 24 1 18 31 39 55 44 50 2 -3 -8 -26 -24 -52
-25 -40 -29 -56 -28 -118 0 -41 6 -84 14 -99 12 -22 12 -26 -1 -29 -11 -3 -6
-11 16 -31 27 -25 29 -29 13 -35 -15 -6 -16 -9 -5 -15 8 -5 14 -19 15 -32 1
-15 10 -28 24 -34 17 -8 22 -18 22 -48 0 -22 6 -51 14 -65 8 -15 25 -49 38
-77 13 -27 32 -58 43 -68 14 -12 15 -17 5 -15 -8 3 -30 26 -47 54 -18 27 -36
54 -41 59 -4 6 -13 21 -20 35 -12 24 -12 23 -8 -15 2 -22 1 -49 -3 -59 -7 -19
-8 -19 -15 0 -7 17 -9 16 -24 -11 l-17 -30 -3 33 c-3 29 -6 32 -35 32 l-32 -1
24 -19 23 -20 -28 -1 -29 0 25 -12 c40 -19 49 -31 33 -45 -7 -7 -10 -18 -7
-24 10 -16 5 -112 -6 -116 -11 -4 11 -52 33 -74 15 -14 6 -58 -12 -58 -5 0
-12 -11 -15 -25 -4 -14 -10 -23 -15 -20 -9 5 -41 -37 -46 -59 -1 -6 -5 -18 -8
-26 -19 -51 -16 -60 16 -59 24 1 26 3 10 6 -23 4 -31 27 -13 38 5 3 18 2 28
-4 17 -9 110 5 122 18 3 4 16 7 30 8 l25 3 -25 -20 c-14 -11 -46 -30 -72 -41
-27 -12 -48 -25 -48 -30 0 -5 -19 -10 -42 -10 -70 -2 -102 -12 -107 -34 -2
-15 0 -17 10 -9 9 6 40 8 79 5 46 -5 59 -9 44 -14 -25 -9 -70 -54 -62 -63 3
-3 31 11 62 31 32 20 53 29 50 21 -3 -9 -14 -18 -24 -21 -16 -5 -90 -71 -90
-80 0 -11 50 13 75 37 16 15 34 28 39 28 5 0 -3 -9 -18 -21 -37 -29 -32 -41 9
-23 19 8 35 12 35 9 0 -7 -70 -35 -89 -35 -10 0 -26 -7 -37 -16 -18 -14 -16
-15 31 -11 28 3 42 3 32 0 -9 -2 -14 -9 -10 -15 4 -7 0 -9 -10 -5 -23 9 -22
-19 1 -29 9 -4 20 -6 25 -6 10 3 9 -6 -2 -27 -10 -19 5 -101 19 -101 4 0 13 7
21 16 9 12 10 20 2 33 -7 11 -8 23 -2 32 7 11 9 11 9 -3 0 -10 5 -18 10 -18 6
0 10 8 11 18 0 14 2 14 9 -3 4 -12 6 -36 4 -54 -2 -18 1 -42 7 -52 6 -11 11
-32 13 -47 1 -19 7 -26 19 -24 10 2 17 -4 17 -12 0 -18 29 -35 49 -28 8 3 11
0 7 -7 -4 -6 -2 -11 3 -11 6 0 11 -7 11 -15 0 -12 -6 -11 -31 7 -24 18 -32 20
-38 9 -6 -9 -11 -10 -15 -2 -4 6 -4 11 1 11 4 1 -4 8 -19 16 -16 8 -29 20 -30
27 -2 21 -5 31 -11 50 -4 9 -9 24 -12 32 -2 8 -9 15 -15 15 -7 0 -7 -6 0 -21
7 -11 9 -23 7 -26 -9 -8 -53 70 -60 105 -6 30 -43 93 -59 100 -4 2 -17 18 -28
37 -19 31 -21 69 -5 95 3 5 0 7 -9 4 -8 -3 -17 -13 -19 -22 -3 -13 -7 -10 -15
11 -16 37 -15 74 2 128 26 83 40 187 28 211 -10 22 -11 21 -12 -12 0 -19 -6
-64 -13 -100 l-12 -65 -14 93 -13 93 -38 -3 c-25 -1 -44 4 -56 16 -14 15 -19
16 -22 5 -2 -8 -8 -23 -13 -34 -5 -11 -20 -51 -32 -89 -22 -65 -47 -98 -47
-62 0 13 -7 12 -39 -9 -36 -22 -41 -23 -55 -9 -33 32 -30 61 10 115 78 102
171 152 211 112 11 -11 18 -25 17 -31 -1 -7 0 -8 3 -2 2 5 12 10 21 10 13 0
11 5 -9 23 -28 23 -43 63 -28 73 5 3 9 18 9 33 0 17 8 34 20 42 20 14 20 18 9
164 -15 203 -15 204 -22 212 -4 3 -7 1 -7 -5 0 -7 -4 -12 -9 -12 -5 0 -7 9 -4
19 4 16 1 19 -16 14 -12 -3 -21 -9 -21 -14 0 -5 -4 -9 -10 -9 -17 0 1 30 19
30 9 0 25 7 36 16 20 15 20 15 0 13 -44 -4 -57 0 -50 20 3 11 1 22 -5 26 -6 3
-8 10 -5 16 3 5 3 25 -1 44 -5 30 -10 35 -26 29 -12 -4 -24 -1 -29 7 -8 12
-11 11 -19 -1 -7 -11 -8 -6 -4 17 6 29 4 31 -15 26 -17 -4 -20 -2 -15 11 5 12
0 19 -15 23 -12 3 -24 16 -27 29 -3 13 -10 21 -15 18 -5 -3 -9 2 -9 10 0 9 -5
16 -11 16 -6 0 -9 7 -5 15 3 9 0 15 -10 15 -8 0 -13 4 -9 9 3 5 -2 16 -10 24
-11 12 -12 17 -2 20 9 4 9 6 -1 6 -7 1 -15 -6 -18 -14 -4 -8 -12 -15 -19 -15
-7 0 -15 -12 -18 -27 -6 -34 -2 -40 18 -23 12 10 15 10 15 -1 0 -14 -47 -59
-62 -59 -5 0 -2 8 8 17 16 17 16 18 -7 23 -24 6 -79 -24 -79 -43 0 -5 -11 -7
-23 -5 -23 4 -23 4 -10 -24 9 -16 23 -28 34 -28 13 0 19 -7 19 -21 0 -11 -4
-17 -10 -14 -5 3 -10 1 -10 -4 0 -6 7 -11 15 -11 8 0 15 5 15 11 0 19 18 -1
22 -26 4 -17 1 -25 -8 -25 -8 0 -14 5 -14 10 0 6 -8 10 -17 10 -14 0 -15 -2
-4 -9 11 -7 11 -9 0 -13 -22 -8 -59 13 -59 33 0 29 -11 49 -29 49 -14 0 -14 2
-1 10 12 8 11 10 -6 10 -11 0 -29 -9 -39 -20 -10 -11 -15 -20 -12 -20 4 0 -1
-8 -10 -18 -12 -12 -22 -16 -30 -10 -7 6 -13 3 -16 -9 -4 -15 -5 -15 -6 3 -1
17 -6 20 -31 16 -23 -3 -30 0 -30 12 0 18 26 22 32 5 2 -7 9 -5 17 5 12 14 12
16 -3 10 -9 -3 -16 -2 -16 4 0 5 -13 12 -29 14 -23 3 -30 0 -39 -24 -9 -25 -8
-28 11 -29 17 -1 18 -2 5 -6 -10 -2 -18 -11 -18 -19 0 -8 -7 -14 -15 -14 -8 0
-15 5 -15 10 0 7 -6 7 -20 0 -12 -7 -17 -16 -13 -27 5 -12 2 -15 -10 -10 -20
7 -21 3 -7 -23 7 -13 7 -21 0 -25 -6 -4 -7 -11 -4 -17 5 -8 1 -9 -10 -5 -10 4
-20 7 -22 7 -12 0 -1 19 14 24 9 2 4 4 -13 4 -49 -2 -65 1 -65 12 0 6 6 10 14
10 8 0 16 8 18 18 4 21 -21 52 -37 46 -6 -3 -12 2 -12 11 0 8 5 15 11 15 6 0
5 4 -3 9 -7 5 -22 6 -32 4 -15 -4 -18 -1 -13 11 7 17 -5 20 -43 10 -13 -4 -23
-11 -23 -16 0 -6 8 -7 18 -4 12 4 10 0 -6 -14 -14 -11 -20 -24 -16 -31 5 -9 2
-10 -9 -6 -9 3 -19 2 -22 -3 -4 -6 -1 -10 5 -10 7 0 10 -14 8 -35 -2 -19 0
-34 5 -35 13 0 44 -35 39 -44 -3 -5 4 -7 16 -4 14 4 22 0 25 -13 4 -15 0 -19
-20 -19 -13 0 -22 -4 -18 -9 3 -5 0 -13 -6 -17 -7 -4 -9 -3 -5 4 3 6 2 13 -4
17 -5 3 -10 15 -10 26 0 11 -7 19 -16 19 -13 0 -14 -3 -5 -14 10 -12 9 -14 -7
-9 -18 4 -40 -23 -27 -35 3 -3 5 0 5 6 0 7 5 12 11 12 6 0 8 -7 5 -16 -4 -9
-1 -23 6 -32 12 -13 8 -14 -27 -7 -22 5 -50 9 -62 9 -26 1 -32 16 -7 16 13 0
13 2 2 13 -38 36 -47 39 -61 25 -7 -7 -12 -19 -9 -26 2 -7 -6 -12 -22 -12 -24
0 -24 1 -10 28 15 30 19 97 5 88 -25 -16 -64 30 -39 46 10 7 9 11 -3 21 -14
11 -15 15 -4 31 10 14 21 16 44 11 30 -6 31 -6 31 29 0 25 4 36 15 36 17 0 19
9 7 28 -6 9 -14 6 -32 -13 -13 -14 -34 -25 -46 -25 -14 0 -25 -8 -29 -21 -6
-19 -7 -19 -20 -3 -10 15 -16 16 -28 6 -12 -11 -18 -8 -35 12 -14 19 -22 22
-31 13 -8 -8 -11 -7 -11 4 0 13 -39 45 -50 40 -3 -1 -7 7 -10 19 -5 23 -27 27
-22 4 3 -16 -14 -19 -24 -3 -3 6 -14 9 -24 6 -12 -3 -20 2 -23 14 -6 21 -37
26 -37 6 0 -20 43 -52 68 -48 12 1 22 -2 22 -8 0 -6 -8 -11 -17 -12 -12 -1 -9
-4 7 -8 14 -5 29 -4 35 1 15 13 55 9 61 -7 10 -24 -6 -38 -21 -18 -13 17 -15
17 -32 -7 -10 -14 -18 -27 -18 -30 0 -3 -6 -14 -13 -25 -7 -13 -14 -16 -19 -9
-5 5 -19 10 -32 10 -21 0 -22 -1 -6 -11 9 -5 27 -18 39 -27 18 -15 19 -19 6
-28 -18 -12 -1 -13 18 -1 8 4 12 16 10 26 -2 10 3 20 9 22 9 3 12 -5 9 -24 -2
-22 1 -29 16 -30 21 -2 24 15 4 23 -19 7 -8 44 13 45 10 0 11 2 4 6 -22 8 -14
25 8 18 14 -5 25 -2 31 6 6 9 7 5 3 -12 -6 -24 -4 -26 22 -26 57 0 71 -3 78
-20 3 -10 1 -19 -4 -21 -6 -2 -11 -12 -11 -23 0 -10 -4 -19 -10 -19 -5 0 -10
-4 -10 -10 0 -5 7 -10 15 -10 8 0 15 -4 15 -10 0 -5 -9 -10 -20 -10 -13 0 -26
-14 -39 -43 -14 -32 -26 -43 -40 -42 -38 3 -52 28 -42 74 1 2 8 -3 18 -10 14
-12 15 -12 10 1 -4 8 -10 22 -13 31 -3 9 -18 15 -40 15 -40 0 -41 -5 -13 -37
12 -14 19 -34 17 -50 -3 -28 16 -59 37 -59 15 0 27 -38 15 -45 -5 -3 -15 1
-23 9 -8 8 -23 15 -33 15 -24 -1 -86 9 -91 14 -2 2 0 14 5 26 7 20 9 21 21 7
17 -20 31 -21 31 -2 0 7 -8 16 -18 18 -24 7 -28 55 -4 60 21 5 -54 42 -80 39
-9 -1 -19 3 -23 9 -8 13 -25 13 -25 -1 0 -5 5 -7 11 -3 7 4 10 1 7 -7 -2 -8
-19 -19 -36 -24 l-32 -11 22 -22 22 -22 -22 0 c-12 0 -22 4 -22 9 0 12 -56 31
-91 31 -16 0 -37 -9 -49 -22 -17 -18 -20 -19 -20 -5 0 9 -4 17 -10 17 -5 0
-10 8 -10 19 0 14 6 17 27 13 l28 -5 -19 22 c-13 15 -23 18 -30 11 -5 -5 -24
-10 -41 -9 l-30 1 28 11 c29 12 31 30 4 35 -12 2 -15 -1 -11 -12 4 -10 0 -13
-13 -11 -10 2 -20 4 -23 4 -2 1 1 6 7 12 15 15 5 39 -14 39 -9 0 -13 -6 -9
-15 7 -18 -15 -20 -32 -3 -9 9 -12 8 -12 -5 0 -9 -4 -17 -10 -17 -5 0 -10 -7
-10 -15 0 -8 -7 -15 -15 -15 -8 0 -15 5 -15 10 0 6 6 10 13 10 8 0 7 3 -3 10
-12 7 -12 12 -2 22 6 6 12 17 12 23 0 5 -7 1 -15 -9 -13 -17 -15 -17 -21 -3
-3 9 1 24 11 33 9 9 13 19 10 22 -3 4 -9 2 -13 -4 -4 -5 -17 -11 -29 -11 -17
-1 -23 4 -23 18 0 16 5 18 26 13 l26 -7 -17 27 c-10 15 -13 26 -6 26 5 0 8 8
5 18 -5 14 -4 14 5 2 5 -8 13 -12 16 -8 10 10 -5 49 -16 43 -5 -4 -9 1 -9 10
0 9 5 13 10 10 6 -3 10 0 10 7 0 9 3 9 10 -2 8 -13 10 -12 10 3 0 9 -5 17 -11
17 -8 0 -7 5 1 15 16 19 -2 65 -25 65 -14 0 -20 -16 -17 -52 1 -9 -7 -20 -18
-23 -11 -4 -18 -11 -15 -16 4 -5 0 -12 -9 -15 -8 -3 -12 -12 -9 -21 3 -8 0
-19 -8 -24 -12 -8 -12 -10 0 -18 15 -10 5 -35 -10 -26 -5 4 -9 -1 -9 -9 0 -9
5 -16 10 -16 6 0 10 -6 10 -14 0 -8 7 -16 14 -19 8 -3 18 -22 22 -41 5 -32 9
-35 30 -30 21 5 24 3 24 -20 0 -19 -5 -26 -20 -26 -11 0 -20 -5 -20 -11 0 -5
-4 -7 -10 -4 -5 3 -10 2 -10 -3 0 -6 7 -13 16 -16 8 -3 13 -10 10 -14 -3 -5 4
-16 14 -25 11 -9 17 -23 14 -32 -4 -11 -2 -13 9 -9 18 7 29 -9 21 -29 -4 -11
-17 -15 -42 -13 -29 1 -37 6 -37 21 0 14 -7 20 -23 19 -16 0 -21 4 -17 14 3
10 0 12 -10 9 -19 -8 -30 11 -27 44 3 28 -63 136 -80 131 -6 -2 -8 6 -5 18 3
11 1 20 -4 20 -5 0 -11 -11 -15 -25 -9 -37 -30 -31 -30 10 0 29 2 32 15 22 12
-10 12 -9 0 11 -14 23 -39 30 -39 11 0 -5 -5 -7 -11 -4 -6 4 -8 13 -5 21 9 24
-14 26 -33 3 l-18 -22 -22 22 c-29 29 -46 17 -19 -14 12 -13 25 -22 30 -19 13
9 9 -15 -8 -41 -9 -14 -20 -22 -25 -19 -5 3 -9 0 -9 -6 0 -6 11 -15 24 -20 13
-5 27 -13 30 -19 4 -6 13 -8 21 -4 11 4 15 -2 15 -19 0 -23 4 -25 56 -27 54
-2 56 -1 51 21 -4 13 -2 29 2 37 7 10 13 8 30 -10 23 -25 29 -48 7 -30 -19 16
-27 0 -16 -35 4 -16 9 -23 9 -16 1 10 4 10 16 -2 19 -19 19 -26 0 -26 -8 0
-15 -7 -15 -15 0 -16 -21 -20 -34 -8 -4 5 -26 9 -48 10 -22 1 -42 4 -45 7 -3
2 -16 1 -29 -4 -19 -7 -24 -6 -24 5 0 10 -10 15 -28 15 -15 0 -33 5 -39 11 -8
8 -13 6 -17 -8 -3 -10 -16 -23 -28 -28 -29 -13 -34 -47 -13 -91 12 -26 20 -33
29 -25 19 16 86 12 123 -7 26 -13 35 -14 45 -4 9 9 9 12 -1 12 -11 0 -11 3 -1
15 15 18 -1 20 -18 3 -9 -9 -12 -8 -12 4 0 16 -33 18 -78 4 -14 -5 -22 -3 -22
4 0 6 -4 9 -9 6 -5 -3 -15 2 -22 11 -12 15 -12 16 8 11 12 -3 24 -1 27 6 3 7
9 5 16 -6 14 -22 32 -24 24 -3 -5 12 1 15 27 13 18 -1 34 3 36 9 5 14 47 -1
72 -25 8 -7 17 -9 20 -5 9 13 41 24 41 14 0 -5 -7 -11 -15 -15 -13 -5 -12 -9
5 -26 11 -11 25 -20 31 -20 17 0 5 -34 -14 -38 -11 -2 -20 6 -27 23 -8 22 -13
24 -30 15 -26 -14 -26 -24 0 -17 11 3 20 0 20 -5 0 -6 -12 -8 -28 -5 -32 7
-62 -6 -42 -18 6 -4 9 -14 6 -22 -4 -8 4 -22 16 -33 l23 -18 -28 5 c-28 6 -61
-12 -51 -28 3 -5 -2 -6 -10 -3 -10 4 -20 -3 -27 -19 -13 -29 -39 -44 -39 -23
0 8 -7 12 -17 10 -10 -2 -24 0 -32 5 -12 7 -11 12 1 29 14 21 14 21 26 1 12
-18 57 -25 50 -7 -2 4 6 14 17 23 17 14 17 16 3 11 -12 -3 -18 0 -18 10 0 9
-14 21 -30 27 -17 6 -30 17 -30 24 0 6 -4 15 -10 18 -6 3 -7 -1 -4 -9 3 -9 1
-16 -5 -16 -6 0 -11 4 -11 9 0 5 -18 4 -41 -1 -28 -8 -37 -14 -30 -21 19 -19
12 -27 -20 -27 -25 0 -33 -6 -42 -30 -6 -16 -16 -30 -22 -30 -6 0 -16 -9 -23
-20 -15 -24 -35 -25 -68 -4 -13 9 -27 14 -30 11 -3 -3 4 -10 15 -17 12 -6 21
-15 21 -20 0 -16 -14 -12 -38 10 -22 21 -26 19 -23 -12 1 -10 -3 -18 -8 -18
-6 0 -11 6 -11 14 0 11 -9 13 -38 9 -45 -7 -49 -10 -34 -25 7 -7 12 -20 12
-29 0 -10 11 -27 25 -37 15 -12 21 -23 15 -27 -6 -4 -5 -12 5 -21 20 -21 19
-43 -2 -39 -10 1 -17 8 -15 14 2 9 -3 9 -19 0 -15 -7 -19 -8 -15 0 4 6 2 19
-3 28 -9 16 -10 16 -11 1 0 -23 -22 -28 -37 -9 -11 14 -13 14 -27 -4 -14 -18
-15 -18 -16 -2 0 9 -7 17 -16 17 -8 0 -13 -4 -10 -8 6 -9 -13 -32 -58 -70 -29
-24 -48 -23 -27 1 6 8 9 21 5 30 -3 10 5 21 25 33 31 18 40 34 21 34 -6 0 -13
-7 -16 -15 -13 -33 -83 -6 -72 27 3 8 11 5 23 -10 18 -20 20 -20 37 -5 10 9
18 25 18 35 0 11 4 17 9 14 5 -3 17 6 26 20 19 29 9 44 -28 44 -10 0 -16 4
-12 10 3 5 13 6 21 3 14 -5 14 -3 3 16 -8 11 -17 21 -22 21 -4 0 -3 9 3 19 13
26 13 31 -5 31 -8 0 -15 7 -15 15 0 8 -4 15 -10 15 -5 0 -10 -5 -10 -11 0 -6
-6 -9 -14 -6 -7 3 -19 0 -25 -6 -16 -16 -13 4 4 27 11 14 29 19 84 21 64 2 70
0 74 -19 3 -12 4 -5 4 14 -1 19 2 45 6 57 7 18 5 21 -13 16 -22 -6 -26 7 -8
25 9 9 8 12 -5 12 -13 0 -17 7 -15 27 2 20 -3 30 -22 40 -18 9 -20 13 -7 13 9
0 17 5 17 10 0 11 -11 13 -34 4 -9 -3 -13 -10 -10 -16 3 -5 -3 -12 -15 -15
-12 -3 -21 -9 -21 -14 0 -5 -7 -9 -16 -9 -11 0 -14 6 -9 20 4 12 2 20 -4 20
-6 0 -21 11 -33 25 -26 31 -34 31 -41 4 -5 -20 29 -80 58 -101 6 -5 5 -11 -4
-17 -8 -5 -11 -16 -8 -25 4 -10 1 -16 -8 -16 -7 0 -16 13 -20 30 -4 17 -11 30
-17 30 -6 0 -8 9 -5 20 7 26 -15 42 -47 34 -20 -5 -26 -2 -26 10 0 9 6 16 14
16 7 0 16 9 19 19 4 16 -2 21 -25 26 -35 8 -40 4 -44 -30 -1 -16 3 -28 12 -32
12 -4 11 -8 -6 -20 -24 -17 -47 -8 -30 12 6 7 7 16 2 19 -9 6 -42 -28 -42 -44
0 -6 6 -10 14 -10 8 0 16 -6 19 -14 11 -29 -6 -24 -45 12 -22 20 -48 45 -59
54 -22 21 -36 6 -14 -15 8 -9 15 -20 15 -25 0 -5 7 -15 15 -22 22 -18 18 -39
-5 -37 -22 1 -62 37 -42 37 7 0 12 5 12 10 0 7 -6 7 -19 0 -25 -13 -31 -13
-31 0 0 6 9 14 21 18 20 8 19 9 -6 20 -24 11 -27 11 -21 -4 5 -13 2 -15 -14
-11 -16 4 -22 -1 -26 -21 -4 -15 -11 -33 -17 -39 -5 -7 -6 -13 -3 -13 4 0 2
-9 -4 -21 -9 -16 -18 -19 -36 -15 -19 5 -24 3 -24 -14 0 -22 -7 -25 -29 -11
-9 6 -20 3 -32 -7 -18 -16 -18 -17 4 -29 29 -16 58 -16 81 2 26 19 42 19 26 0
-7 -8 -19 -15 -26 -15 -8 0 -11 -6 -8 -15 4 -10 0 -15 -16 -15 -11 0 -19 -4
-15 -9 11 -20 -31 -15 -50 5 -23 23 -55 38 -55 25 0 -5 5 -11 11 -13 7 -2 0
-12 -14 -21 -24 -16 -27 -16 -43 0 -25 26 -54 27 -54 3 0 -15 7 -20 25 -20 17
0 25 -5 25 -18 0 -10 6 -27 14 -38 11 -14 12 -22 3 -33 -10 -11 -8 -13 13 -7
23 6 23 6 8 -7 -10 -8 -18 -22 -18 -31 0 -22 -57 -22 -81 0 -17 15 -17 19 -3
45 8 16 19 29 25 29 8 0 7 6 -2 16 -12 14 -14 14 -25 0 -9 -13 -17 -14 -38 -6
-14 5 -25 15 -24 22 2 6 -9 13 -25 14 -21 2 -27 -1 -23 -11 2 -7 -2 -16 -10
-19 -10 -4 -14 2 -14 18 0 13 -7 26 -15 30 -8 3 -15 10 -15 17 0 6 7 9 15 6 8
-4 17 -1 21 5 4 7 9 6 15 -3 7 -12 9 -12 9 0 0 8 -8 23 -17 33 -13 14 -14 21
-4 31 9 9 13 7 17 -11 7 -26 30 -28 56 -5 14 13 21 14 30 5 7 -7 21 -12 32
-11 12 0 15 3 9 6 -7 2 -13 10 -13 17 0 18 62 8 77 -12 17 -21 30 -6 16 17
-11 17 -7 19 40 26 29 4 46 9 40 12 -26 9 -13 33 17 33 22 0 30 5 30 18 0 14
-2 14 -9 3 -7 -12 -13 -12 -24 -3 -7 7 -17 9 -20 5 -4 -3 -7 3 -7 14 0 25 -16
39 -53 48 -21 6 -27 4 -27 -9 0 -18 -54 -23 -65 -6 -3 6 -10 10 -15 10 -16 0
-16 -35 -1 -60 15 -23 15 -24 -4 -15 -11 5 -32 9 -47 9 -16 1 -28 7 -28 14 0
6 -8 12 -18 12 -10 0 -23 5 -30 12 -15 15 -16 3 -2 -23 8 -15 7 -19 -4 -19 -8
0 -16 6 -18 14 -2 10 -9 11 -25 5 -29 -10 -30 -36 -2 -44 23 -8 20 -31 -4 -27
-11 2 -15 -2 -11 -12 4 -11 0 -13 -14 -9 -23 6 -59 -36 -41 -48 6 -3 8 -16 5
-27 -5 -13 -1 -22 11 -26 14 -6 15 -9 4 -15 -11 -7 -9 -13 8 -30 12 -12 19
-25 17 -30 -8 -12 -86 -10 -86 2 0 6 -3 8 -6 4 -3 -3 3 -19 15 -35 11 -16 25
-41 31 -56 5 -14 15 -26 21 -26 8 0 8 -4 -1 -15 -9 -10 -9 -15 -1 -16 6 -1 14
-2 19 -3 4 -1 24 -5 44 -9 21 -5 37 -13 35 -20 -1 -7 6 -11 16 -11 9 1 17 -2
17 -6 0 -15 -28 -30 -44 -24 -15 6 -21 -4 -17 -33 1 -8 -9 -13 -25 -13 -15 0
-36 -8 -47 -17 -19 -18 -20 -17 -13 10 7 30 -9 37 -33 15 -11 -11 -12 -8 -6
12 4 14 12 27 16 28 15 6 10 22 -6 22 -8 0 -14 -6 -13 -12 2 -7 -6 -13 -16
-13 -11 0 -20 8 -22 18 -1 9 3 17 9 17 6 0 2 6 -8 14 -13 9 -20 28 -22 57 -2
23 -5 44 -7 46 -2 3 -18 -9 -34 -26 -16 -17 -32 -31 -36 -31 -13 0 -5 28 9 34
24 9 17 86 -7 86 -10 0 -23 10 -28 23 -8 17 -9 15 -4 -13 4 -19 12 -39 18 -43
7 -6 5 -7 -6 -4 -9 3 -19 1 -22 -6 -3 -9 -7 -9 -14 1 -15 22 -78 32 -101 16
-16 -11 -25 -12 -48 -2 -27 11 -27 12 -6 15 13 3 23 8 23 13 0 12 -39 19 -46
8 -3 -5 -14 -8 -24 -5 -21 5 -52 -11 -45 -24 4 -5 -7 -8 -26 -7 -38 4 -47 -14
-22 -39 10 -10 19 -28 19 -38 1 -11 4 -28 8 -37 7 -15 4 -16 -26 -8 -18 6 -34
10 -35 10 -6 0 12 -36 21 -43 6 -4 -2 -5 -19 -1 -38 9 -43 13 -26 23 18 11 5
31 -20 31 -11 0 -22 7 -25 15 -8 21 -43 19 -51 -2 -4 -10 -11 -21 -17 -25 -18
-12 8 -29 52 -35 29 -4 39 -9 35 -19 -3 -8 0 -14 6 -14 6 0 11 -6 11 -14 0
-14 36 -46 52 -46 5 0 8 6 8 14 0 9 7 12 19 9 24 -6 17 -27 -13 -41 -17 -7
-23 -17 -21 -35 3 -22 0 -25 -23 -21 -42 8 -56 -2 -32 -26 11 -11 20 -27 20
-35 0 -8 9 -15 21 -15 11 0 17 -4 14 -10 -3 -5 -17 -10 -30 -10 -18 0 -26 7
-31 25 -7 28 -8 29 -35 15 -25 -14 -24 -26 3 -33 12 -4 19 -9 16 -13 -11 -11
-46 6 -51 25 -3 13 -18 21 -45 26 -22 3 -43 12 -46 20 -7 19 5 27 20 14 19
-16 114 -23 114 -9 0 6 -6 10 -12 7 -16 -5 -48 10 -48 23 0 6 7 10 15 10 8 0
15 5 15 10 0 6 -9 10 -20 10 -11 0 -23 6 -26 14 -3 8 -12 12 -20 9 -16 -6 -19
13 -3 22 6 4 20 -2 32 -13 13 -11 40 -22 64 -24 36 -3 43 -1 43 14 0 10 -9 27
-20 38 -11 11 -20 24 -20 29 0 5 -13 12 -29 16 -27 6 -71 45 -71 63 0 5 -16 8
-36 7 -19 0 -40 5 -46 12 -15 18 -28 16 -28 -4 -1 -16 -3 -15 -19 4 -19 22
-19 22 -43 3 -19 -15 -24 -27 -22 -57 1 -21 5 -46 9 -57 5 -10 4 -21 -1 -25
-5 -3 -10 -19 -11 -34 -2 -24 0 -27 13 -17 17 15 18 6 4 -21 -6 -10 -17 -19
-24 -19 -8 0 -19 -7 -26 -15 -10 -12 -9 -15 4 -15 13 0 16 -5 11 -21 -6 -19
-4 -21 18 -15 34 8 84 -21 96 -56 7 -18 17 -28 30 -28 11 0 31 -11 44 -24 26
-25 26 -39 1 -29 -8 3 -14 -1 -14 -7 0 -10 -4 -9 -17 1 -10 9 -36 15 -60 14
-50 -1 -57 10 -13 20 30 7 38 19 20 30 -5 3 -10 15 -10 26 0 24 -20 26 -21 2
0 -10 -6 -4 -12 14 -9 25 -15 30 -27 23 -8 -5 -27 -10 -42 -10 -20 0 -26 -4
-22 -15 7 -17 -11 -21 -21 -5 -13 20 -27 10 -21 -15 5 -21 3 -25 -15 -25 -14
0 -19 -5 -16 -14 7 -17 -34 -27 -56 -14 -9 5 -18 4 -22 -2 -3 -6 -18 -8 -33
-5 -15 3 -21 2 -14 -1 24 -11 12 -24 -23 -24 -19 0 -35 -3 -35 -8 0 -12 -59
-34 -71 -26 -8 4 -9 0 -4 -15 4 -15 2 -21 -9 -21 -19 0 -30 17 -14 23 9 3 7
10 -7 21 -23 17 -39 21 -30 6 3 -5 -1 -10 -11 -10 -13 0 -12 -4 8 -19 16 -13
23 -28 23 -48 -1 -24 -6 -28 -32 -31 -23 -2 -35 3 -47 20 l-16 22 -22 -22
c-22 -22 -22 -22 -2 -22 30 0 36 -11 18 -32 -14 -14 -14 -20 -4 -33 17 -20 6
-44 -19 -42 -24 2 -28 15 -6 23 8 4 12 10 9 15 -8 14 -51 10 -68 -6 -8 -8 -19
-15 -25 -15 -6 0 -11 -4 -11 -8 0 -5 15 -7 32 -5 31 3 32 3 10 -9 -15 -8 -22
-18 -19 -30 3 -10 1 -18 -4 -18 -5 0 -9 5 -9 10 0 6 -8 10 -19 10 -22 0 -34
-33 -18 -49 17 -17 -1 -25 -28 -13 -28 13 -33 32 -9 32 14 0 14 3 4 15 -7 8
-18 15 -25 15 -7 0 -15 7 -19 15 -6 18 -26 20 -26 3 0 -6 7 -20 17 -30 14 -16
14 -18 0 -18 -8 0 -17 -4 -19 -10 -2 -5 -19 -7 -41 -3 -27 4 -35 9 -28 17 16
19 -24 38 -65 30 -28 -5 -32 -9 -23 -20 11 -14 10 -15 -21 -19 -26 -3 -80 -27
-80 -35 0 -17 73 -42 106 -37 22 4 39 1 47 -8 9 -8 19 -10 27 -5 8 5 18 6 23
3 9 -5 0 -62 -13 -78 -5 -6 3 -9 23 -8 18 1 38 2 46 2 8 1 11 7 7 17 -5 13 -1
15 20 10 39 -10 114 4 114 20 0 8 5 14 12 14 6 0 20 8 30 17 14 13 21 14 30 5
9 -9 8 -12 -5 -12 -9 0 -17 -4 -17 -9 0 -15 22 -25 55 -26 20 0 31 -6 33 -18
3 -12 -3 -17 -20 -17 -25 0 -54 -35 -38 -45 6 -3 10 1 10 9 0 20 29 21 36 1 7
-17 44 -21 44 -4 0 7 15 10 40 7 41 -4 41 -4 18 14 -13 10 -26 18 -30 18 -5 0
-8 5 -8 11 0 6 7 8 15 5 9 -3 18 1 21 9 7 16 44 21 44 6 0 -5 12 -11 27 -13
14 -2 28 -9 31 -17 3 -10 -2 -11 -19 -6 -23 7 -23 7 -6 -11 17 -18 18 -18 37
6 l19 25 -3 -30 c-3 -32 -20 -43 -39 -27 -15 13 -42 -1 -33 -17 4 -6 13 -11
19 -11 7 0 21 -10 31 -22 12 -14 14 -19 4 -16 -7 3 -24 -3 -37 -13 -18 -15
-19 -19 -7 -19 33 0 15 -20 -24 -26 -23 -4 -37 -11 -33 -17 4 -6 -4 -8 -22 -4
-37 6 -55 -1 -55 -22 0 -9 -5 -22 -12 -29 -18 -18 -6 -23 76 -29 65 -5 76 -4
76 10 0 11 9 15 30 15 19 -1 30 -6 30 -16 0 -9 -6 -12 -16 -8 -9 3 -12 2 -8
-5 3 -6 17 -8 30 -5 15 4 24 2 24 -5 0 -6 6 -9 14 -6 7 3 30 2 50 -3 20 -4 39
-4 42 1 3 5 13 9 22 9 15 0 15 -2 2 -10 -11 -7 -7 -10 19 -10 19 0 84 -7 145
-15 61 -8 199 -24 306 -35 107 -11 231 -25 275 -31 54 -6 81 -6 83 1 5 13 72
13 72 0 0 -13 27 -13 32 -1 2 5 41 12 88 15 81 6 172 24 185 38 4 4 -27 6 -69
5 -44 -1 -76 -6 -76 -12 0 -6 -9 -11 -21 -11 -18 0 -20 5 -14 33 4 24 1 38
-10 49 -26 27 -16 36 15 12 17 -12 30 -25 30 -29 0 -4 17 -5 37 -3 85 10 114
10 124 -2 14 -17 129 -15 129 2 0 8 -6 11 -15 8 -8 -4 -15 -1 -15 7 0 7 3 9 7
6 3 -4 12 -2 19 4 17 14 54 -9 46 -29 -4 -13 3 -14 47 -9 92 11 237 41 218 45
-14 3 -17 9 -12 25 3 12 7 28 7 35 1 9 6 8 18 -3 9 -8 20 -12 23 -8 4 3 7 1 7
-5 0 -7 -4 -12 -10 -12 -5 0 -10 -7 -10 -15 0 -12 8 -14 42 -9 24 4 48 13 55
22 8 10 22 13 43 9 26 -6 32 -3 42 18 12 28 36 33 44 11 3 -8 12 -12 20 -9 8
3 14 0 14 -6 0 -18 30 -13 37 7 13 35 53 44 53 11 0 -15 5 -19 18 -15 9 3 35
8 56 12 34 6 38 5 33 -10 -5 -13 1 -16 43 -16 49 0 49 1 59 38 5 20 12 54 16
75 l6 37 -43 1 c-32 0 -38 2 -23 8 25 11 52 7 327 -40 58 -9 85 -8 199 11 119
19 194 38 162 39 -21 1 -14 21 7 21 13 0 18 -5 14 -15 -5 -12 0 -14 22 -10 16
3 85 14 154 25 169 28 170 28 170 45 0 8 5 15 10 15 6 0 10 -7 10 -15 0 -11 7
-14 23 -10 12 2 103 18 202 35 237 39 249 41 235 50 -9 6 -9 13 -1 28 9 17 7
21 -12 27 -14 4 -17 8 -9 12 17 7 52 -25 46 -42 -9 -23 16 -27 102 -14 57 8
84 16 84 26 0 7 5 13 11 13 5 0 7 -5 4 -10 -8 -13 24 -13 78 0 23 5 116 21
207 35 270 42 305 48 310 55 3 4 14 12 25 19 18 11 16 12 -16 7 -34 -4 -59 7
-59 26 0 4 6 8 14 8 8 0 16 7 20 15 4 11 -3 15 -27 16 -25 1 -27 3 -9 6 17 3
22 9 17 21 -15 36 -17 52 -6 52 8 0 9 5 1 19 -13 25 -13 31 0 31 5 0 9 -3 9
-7 -3 -21 2 -33 16 -33 9 0 12 -6 9 -15 -4 -10 0 -15 12 -15 18 -1 18 -1 2
-14 -15 -11 -16 -15 -4 -32 8 -10 18 -16 22 -11 4 4 2 7 -4 7 -7 0 -12 5 -12
10 0 16 14 12 38 -10 12 -12 22 -17 22 -13 0 4 4 4 8 -2 4 -5 17 -16 30 -23
26 -14 31 2 5 17 -15 9 -16 12 -3 20 8 5 18 7 22 5 4 -3 8 0 8 5 0 6 9 11 19
11 11 0 22 6 24 13 4 9 6 9 6 0 1 -7 -8 -17 -19 -23 -11 -6 -18 -16 -14 -22 4
-5 0 -14 -7 -19 -12 -7 -11 -9 1 -9 8 0 27 -6 42 -14 23 -12 37 -12 95 0 92
19 113 18 113 -5 0 -16 -23 -22 -202 -50 -112 -18 -239 -39 -283 -46 -44 -8
-152 -26 -240 -40 -337 -53 -723 -115 -805 -130 -47 -8 -101 -17 -120 -20 -55
-9 -257 -45 -340 -60 -41 -8 -97 -17 -125 -20 -27 -4 -66 -10 -85 -14 l-35 -7
35 -7 c19 -4 105 -18 190 -31 85 -14 209 -34 275 -46 66 -12 215 -36 330 -55
116 -19 233 -39 260 -44 28 -6 87 -16 133 -22 45 -7 82 -16 82 -21 0 -4 -6 -8
-13 -8 -7 0 -67 -7 -132 -15 -299 -37 -377 -46 -475 -55 -58 -5 -179 -18 -270
-30 -91 -11 -268 -32 -395 -46 -226 -25 -232 -26 -325 -9 -81 14 -281 42 -316
44 -8 1 -12 56 -4 56 1 0 4 15 6 33 8 50 -8 38 -42 -33 l-31 -64 -21 20 c-12
11 -22 28 -22 39 0 14 -5 18 -16 13 -9 -3 -19 0 -24 7 -8 13 -4 105 5 121 4 5
40 9 81 9 67 0 74 2 74 20 0 23 -21 25 -85 10 -40 -9 -868 -151 -1021 -174
-44 -7 -85 -16 -91 -19 -9 -5 -28 -137 -38 -262 -1 -16 -8 -31 -14 -33 -9 -3
-11 6 -7 29 9 52 26 210 26 244 l0 31 -112 11 c-62 7 -331 35 -598 63 -267 28
-555 57 -640 66 -85 8 -195 19 -245 24 -49 5 -114 10 -142 10 l-53 0 0 -265
c0 -246 1 -265 18 -265 9 0 91 -7 182 -15 91 -8 244 -17 341 -20 97 -3 195
-11 220 -18 l44 -13 -90 -12 c-205 -28 -233 -30 -238 -12 -4 14 -33 18 -198
29 -107 6 -213 14 -237 18 l-42 5 2 -703 3 -703 25 -7 25 -7 -27 -1 c-31 -1
-38 -17 -10 -24 16 -4 16 -5 0 -6 -11 -1 -18 -9 -18 -20 0 -15 11 -21 48 -29
76 -17 180 -24 187 -12 3 5 20 10 36 10 27 0 29 -3 24 -22 -6 -17 -4 -20 9
-15 22 9 276 -24 276 -35 0 -4 -3 -8 -8 -8 -4 0 -8 -20 -8 -44 -2 -61 -28 -86
-86 -81 -87 8 -142 18 -173 31 -18 7 -35 10 -39 7 -10 -10 -36 -12 -36 -3 0 5
-13 5 -30 0 -18 -5 -32 -5 -35 1 -4 5 -14 8 -23 8 -15 -1 -15 -2 1 -6 9 -2 17
-14 17 -25 0 -18 -4 -20 -32 -14 -39 8 -47 15 -28 26 22 13 7 22 -49 27 l-51
5 0 -100 c0 -99 0 -101 31 -132 30 -29 31 -33 16 -48 -16 -15 -18 -15 -32 3
-13 19 -14 17 -14 -20 0 -32 2 -36 10 -22 5 9 14 17 19 17 17 0 11 -36 -10
-55 -19 -18 -20 -31 -20 -512 l0 -493 750 0 c638 0 749 2 744 14 -3 8 -1 17 5
21 7 3 11 -2 11 -14 l0 -21 3955 0 3954 0 4 122 3 123 2 -122 2 -123 181 0
c99 0 179 3 177 8 -33 63 -41 97 -46 184 -5 111 -20 94 113 124 135 30 125 31
125 -10 0 -21 -4 -35 -9 -32 -5 4 -4 -5 2 -19 l12 -25 5 28 c11 54 22 1 15
-69 -5 -49 -4 -69 4 -69 8 0 8 -6 -1 -23 -10 -18 -37 -86 -38 -94 0 -2 65 -3
144 -3 l144 0 6 25 c8 32 26 32 26 0 l0 -25 258 0 c152 0 262 4 268 10 5 5 26
11 47 14 21 3 44 10 52 16 8 7 27 9 47 5 26 -5 38 -2 52 14 19 21 46 18 46 -5
0 -12 -14 -18 -63 -26 -10 -2 -19 -7 -20 -13 -1 -6 58 -11 158 -13 140 -2 167
0 215 18 30 11 66 21 80 24 14 2 41 10 60 18 19 8 52 18 73 22 21 4 44 9 51
12 8 3 17 -14 25 -46 l13 -51 51 3 c48 3 52 5 59 33 4 17 12 50 19 75 l11 46
76 23 c95 29 361 83 373 75 5 -3 9 -40 9 -83 0 -43 3 -99 6 -125 6 -40 10 -46
31 -46 l24 0 -3 165 c-2 125 -6 166 -16 170 -9 3 -11 13 -7 26 6 18 4 20 -17
15 -12 -4 -39 -11 -58 -16 -58 -14 -149 -38 -261 -69 -70 -19 -125 -28 -163
-27 -42 2 -56 -1 -56 -12 0 -9 -9 -12 -27 -10 -24 3 -28 8 -31 41 -4 41 -22
52 -22 13 0 -13 -6 -27 -12 -29 -10 -4 -10 -6 0 -6 6 -1 12 -11 12 -24 0 -23
-16 -29 -150 -53 -8 -2 -49 -12 -90 -23 -41 -11 -95 -23 -120 -26 -39 -5 -42
-4 -25 7 11 7 24 13 30 13 5 0 12 14 16 30 10 43 47 144 66 181 9 17 29 35 44
41 26 10 30 9 50 -23 23 -37 57 -45 80 -18 12 14 10 16 -16 12 -24 -2 -33 3
-52 31 -31 46 -31 72 0 43 25 -23 47 -29 47 -12 0 6 -4 10 -10 10 -24 0 -7 18
22 24 22 4 34 2 40 -8 6 -11 16 -12 49 -3 33 8 43 7 51 -4 7 -10 8 -9 3 6 -4
11 -8 36 -10 55 -1 19 -1 28 2 19 2 -9 16 -27 31 -40 15 -13 21 -17 15 -9 -22
24 -15 40 17 40 22 0 30 5 31 18 1 9 6 2 11 -15 12 -37 11 -36 55 -24 30 9 33
7 52 -25 20 -33 44 -44 56 -24 3 6 -1 10 -10 10 -16 0 -55 55 -55 79 0 10 8 7
26 -10 l26 -24 -6 23 c-7 19 -4 22 23 22 21 0 31 -5 31 -15 0 -8 4 -15 8 -15
10 0 58 -94 67 -133 15 -57 22 -31 34 116 10 138 14 154 34 169 81 62 76 57
66 87 -6 16 -23 53 -38 82 -32 62 -49 68 -141 50 -30 -6 -104 -18 -165 -27
-60 -8 -159 -23 -220 -32 l-110 -18 -24 -74 c-23 -73 -37 -111 -50 -139 -8
-17 -158 -80 -191 -81 -23 0 -25 -4 -25 -47 0 -41 -3 -48 -21 -51 -16 -2 -24
4 -32 27 -6 17 -16 31 -21 31 -14 0 -14 -6 0 -32 7 -13 7 -18 1 -14 -6 3 -13
2 -16 -3 -4 -5 2 -12 11 -14 15 -4 15 -6 -4 -12 -13 -4 -23 -10 -23 -14 0 -3
10 -11 23 -16 12 -6 22 -19 23 -31 1 -11 9 -32 18 -46 13 -20 15 -38 10 -81
-4 -30 -10 -61 -14 -67 -24 -39 -78 48 -60 96 6 15 8 29 5 32 -3 3 -5 0 -5 -6
0 -6 -7 -9 -15 -6 -17 7 -21 34 -5 34 6 0 10 7 10 15 0 8 -4 15 -10 15 -5 0
-10 14 -10 30 0 25 -4 30 -25 30 -14 0 -25 4 -25 9 0 5 -3 16 -6 24 -4 12 0
14 15 10 24 -6 28 9 8 29 -22 22 -26 43 -12 62 11 14 11 25 -2 64 -9 26 -23
58 -33 72 -9 14 -27 47 -41 74 -13 26 -30 50 -37 53 -14 6 -188 -14 -495 -58
-115 -17 -270 -36 -345 -44 -126 -12 -335 -40 -389 -51 -25 -5 -35 -24 -82
-165 l-32 -94 -62 -29 c-34 -16 -81 -36 -104 -44 -49 -19 -53 -27 -18 -36 34
-9 32 -28 -2 -20 -52 11 -53 12 -52 56 1 24 6 48 11 55 5 7 7 17 4 22 -4 5 -2
12 4 16 5 3 10 11 10 17 0 7 -4 7 -12 0 -13 -10 -14 15 -8 133 3 50 -7 76 -28
73 -9 -2 -18 5 -20 15 -3 13 3 17 23 17 14 0 24 -4 21 -8 -6 -9 11 -39 18 -32
2 3 6 18 8 33 2 15 14 34 26 43 28 19 22 29 -17 32 -21 2 -34 -3 -37 -13 -8
-19 -38 -19 -54 0 -7 8 -16 12 -21 9 -5 -3 -35 0 -66 5 -87 15 -278 40 -363
46 -101 8 -171 16 -860 91 -74 8 -202 21 -285 29 -82 8 -190 19 -240 24 -94
11 -425 45 -855 87 -386 37 -453 43 -482 44 -16 0 -28 5 -28 12 0 13 176 7
585 -17 274 -17 511 -19 520 -6 3 5 -5 11 -17 13 -20 3 -18 6 17 24 22 12 42
29 43 39 4 16 -1 17 -44 10 -27 -4 -64 -13 -84 -20 -99 -37 -151 -48 -175 -37
-15 7 -34 8 -47 3 -29 -11 -153 -5 -175 8 -16 9 -16 10 5 11 12 0 22 4 22 9 0
15 -43 26 -48 12 -3 -8 -9 -8 -25 1 -21 11 -21 11 -2 19 11 4 43 8 70 9 38 1
45 4 30 10 -11 5 -33 9 -48 9 -15 1 -30 8 -33 16 -4 10 -14 13 -30 9 -40 -10
-29 23 19 53 23 15 44 31 47 34 3 3 15 9 27 13 13 4 30 14 38 23 12 12 19 13
30 3 8 -7 15 -9 15 -4 0 17 -15 32 -34 35 -30 6 -29 22 4 44 16 11 26 23 22
26 -14 14 -49 14 -66 0 -26 -22 -30 -5 -6 28 21 31 40 40 40 21 0 -5 18 -10
41 -10 43 0 99 -26 99 -46 0 -6 9 -19 20 -29 16 -14 41 -19 108 -22 132 -6
153 -17 42 -23 -86 -4 -93 -6 -72 -18 13 -8 58 -16 99 -19 l75 -6 29 -61 c16
-34 29 -70 29 -82 0 -19 7 -22 78 -27 129 -10 551 -46 852 -72 157 -14 366
-32 465 -40 99 -8 223 -19 275 -24 52 -6 169 -15 260 -21 143 -10 370 -32 717
-70 115 -13 140 -13 128 -1 -6 5 -72 15 -147 22 -76 6 -138 15 -138 20 0 16
-100 42 -210 55 -63 8 -140 18 -170 23 -30 5 -81 10 -113 10 -32 1 -56 5 -53
10 4 5 2 11 -4 13 -15 4 235 1 437 -7 106 -4 172 -2 175 4 5 16 257 41 395 40
72 -1 147 4 172 11 32 8 113 10 305 4 388 -12 691 -10 781 3 68 10 73 11 30
11 -27 0 -93 5 -145 11 -52 6 -128 11 -168 11 -85 0 -88 14 -5 23 32 4 110 13
173 22 63 8 149 16 190 17 55 1 62 2 25 5 -27 2 -135 10 -240 18 -104 8 -237
17 -295 20 -58 3 -159 10 -225 15 -66 5 -190 14 -275 20 -420 27 -477 32 -510
40 -19 5 -152 16 -295 25 -642 38 -1075 65 -1135 70 -36 3 -159 9 -275 15
-115 6 -266 15 -335 20 -69 5 -185 12 -258 16 -73 4 -135 10 -137 14 -3 4 1
43 9 86 7 44 12 82 9 87 -2 4 -23 7 -46 7 -31 0 -38 3 -27 10 8 5 23 10 33 10
30 0 47 23 32 43 -11 15 -13 16 -19 2 -9 -25 -24 -17 -18 10 4 24 37 52 55 47
13 -4 8 19 -8 34 -8 9 -15 26 -15 39 0 12 7 25 15 29 8 3 15 12 15 20 0 20 15
23 95 21 258 -8 317 -7 325 1 5 5 10 50 11 99 1 50 3 93 5 96 2 3 16 4 31 2
l28 -5 -2 -91 c0 -51 3 -99 8 -107 5 -10 9 11 9 58 0 52 5 80 17 99 17 26 17
27 0 20 -9 -3 -17 -2 -17 2 0 5 7 12 16 15 28 11 54 6 54 -9 0 -8 5 -15 10
-15 6 0 10 -6 10 -14 0 -7 7 -19 15 -26 8 -7 15 -22 15 -33 0 -11 3 -18 6 -14
3 3 1 29 -6 57 -12 51 -7 77 10 50 6 -8 8 -21 5 -27 -2 -7 2 -13 9 -13 13 0
46 -31 46 -43 0 -4 -12 -5 -27 -2 -23 5 -25 4 -11 -5 9 -6 15 -17 12 -24 -3
-8 -1 -17 5 -21 7 -3 8 0 5 9 -3 9 -1 16 5 16 5 0 9 -13 8 -30 -2 -31 -12 -39
-20 -17 -4 9 -6 9 -6 -1 -1 -7 4 -23 10 -34 7 -13 8 -23 1 -30 -7 -7 -14 9
-23 48 -7 33 -14 50 -16 39 -5 -26 21 -151 30 -147 4 1 26 3 50 3 23 1 34 3
25 6 -24 6 -23 23 2 23 13 0 20 -7 20 -20 0 -18 7 -19 88 -19 48 1 94 0 102
-2 10 -3 16 5 18 24 l3 28 122 -6 c67 -3 129 -6 137 -6 17 0 471 -24 730 -39
91 -5 245 -12 343 -16 l177 -7 0 68 c0 60 2 66 16 55 12 -11 18 -11 31 3 23
22 10 71 -17 64 -18 -5 -20 0 -20 44 l0 49 50 0 c43 0 50 -3 50 -20 0 -11 12
-26 29 -35 17 -8 31 -25 33 -37 2 -12 12 -25 23 -28 30 -8 65 -33 65 -47 0 -7
11 -23 24 -36 20 -20 24 -32 20 -67 -4 -40 11 -70 34 -70 18 0 20 -55 5 -113
-16 -64 -13 -77 14 -56 11 9 14 10 9 2 -4 -7 -2 -13 3 -13 6 0 11 5 11 10 0 6
5 10 11 10 6 0 8 -7 5 -16 -5 -14 -4 -15 9 -4 10 8 15 9 15 1 0 -6 9 -11 20
-11 24 0 26 17 3 42 -16 18 -8 23 21 12 9 -3 16 -12 16 -20 0 -14 12 -18 39
-14 13 1 13 -1 2 -14 -11 -14 -11 -16 3 -16 9 0 17 7 17 15 1 14 3 20 8 43 2
4 6 -2 10 -13 5 -11 4 -25 -1 -33 -8 -9 -5 -12 10 -12 11 0 22 7 26 15 9 23
26 18 26 -9 0 -17 -5 -23 -17 -22 -10 0 -17 -4 -16 -10 1 -7 -13 -11 -35 -10
-57 3 -65 -10 -31 -47 22 -23 32 -28 40 -20 9 9 17 8 35 -4 13 -8 29 -11 36
-7 6 4 21 8 32 9 12 1 26 3 31 5 26 7 54 -1 49 -14 -4 -12 2 -13 36 -5 23 5
45 7 50 4 5 -3 11 4 15 14 4 12 12 18 21 14 9 -3 14 2 14 16 0 12 5 21 11 21
5 0 7 -4 4 -10 -10 -16 14 -50 35 -50 14 0 20 7 20 24 0 20 4 24 27 21 26 -3
26 -2 8 11 -46 32 -64 50 -65 62 0 7 -5 10 -10 7 -6 -4 -8 -11 -4 -16 3 -6 -3
-5 -15 3 -12 7 -21 18 -21 25 0 20 -18 15 -25 -7 -7 -22 -5 -22 -60 -25 -22
-1 -48 -6 -57 -10 -10 -4 -18 -3 -18 2 0 12 59 33 76 26 8 -3 14 0 14 7 0 8
-9 10 -27 6 -92 -21 -127 -16 -107 15 4 8 9 7 15 -2 6 -10 9 -11 9 -1 0 6 5
12 10 12 6 0 10 -7 10 -15 0 -20 16 -19 24 1 3 9 13 14 21 10 8 -3 17 -1 20 4
3 5 -5 10 -17 12 -14 2 -24 13 -30 33 -9 34 4 54 24 38 14 -11 47 -11 65 0 6
4 14 3 18 -3 9 -15 25 -12 25 5 0 8 4 15 10 15 5 0 7 7 4 15 -10 25 7 17 57
-25 26 -22 52 -40 58 -40 14 0 30 -62 24 -93 -6 -30 10 -42 37 -27 21 11 23
36 4 57 -16 17 -5 76 13 69 8 -3 19 -6 24 -6 5 0 9 -12 10 -27 0 -16 3 -22 6
-15 2 6 14 12 25 12 17 0 20 -5 16 -32 -8 -50 11 -108 34 -108 14 0 18 5 15
15 -7 17 12 32 22 18 11 -18 70 -26 86 -13 17 14 20 56 5 65 -6 3 -6 15 0 29
5 15 5 27 -3 35 -8 8 -8 11 1 12 7 1 17 3 22 4 6 1 13 3 18 4 4 1 -12 10 -36
21 -45 21 -49 46 -6 37 17 -3 24 1 26 12 0 9 2 22 2 29 1 7 7 17 15 21 11 7
11 15 3 40 -6 18 -9 45 -5 61 4 22 1 31 -11 36 -9 3 -16 17 -16 30 0 19 -5 24
-24 24 -13 0 -29 7 -36 15 -9 11 -16 13 -24 5 -14 -14 -27 -13 -23 2 1 8 -9
11 -31 9 -18 -1 -40 3 -48 9 -11 10 -14 9 -14 -6 -1 -18 -1 -18 -11 -2 -28 49
-100 -82 -91 -164 2 -21 -23 -24 -35 -5 -4 6 -9 21 -10 32 -1 11 -4 46 -6 78
-3 32 -11 72 -17 88 -24 58 -14 62 130 56 72 -4 157 -11 189 -18 51 -10 64 -9
92 5 34 17 57 20 82 10 12 -4 14 -22 12 -89 -2 -46 -9 -94 -16 -107 -7 -13
-13 -48 -13 -78 -1 -30 -5 -61 -9 -67 -5 -8 -3 -13 3 -13 7 0 9 -8 5 -20 -5
-16 -2 -20 19 -20 16 0 26 -6 26 -15 0 -8 6 -16 13 -16 6 -1 22 -3 35 -4 16
-2 20 1 12 10 -7 9 -6 16 5 25 12 10 16 9 21 -4 8 -20 34 -21 34 -1 0 21 47
19 59 -3 6 -9 11 -11 11 -5 0 7 9 24 21 37 18 20 27 23 58 19 20 -4 39 -10 42
-14 7 -12 46 -13 87 -4 21 5 32 4 32 -4 0 -6 14 -11 30 -11 28 0 41 -10 77
-54 10 -11 17 -12 37 -3 13 6 22 17 19 23 -6 16 52 23 80 10 20 -11 23 -21 28
-116 3 -58 2 -115 -2 -127 -6 -16 -4 -25 6 -30 13 -8 21 -45 29 -153 3 -32 8
-46 20 -48 19 -4 19 2 5 123 -9 86 -9 91 12 108 28 22 39 22 39 -4 0 -16 4
-19 20 -14 14 5 32 -1 53 -18 18 -13 47 -32 65 -41 26 -14 32 -22 32 -50 0
-18 -7 -52 -15 -75 l-14 -41 29 0 c27 0 29 4 40 55 6 30 14 55 18 55 4 -1 41
-9 82 -18 l75 -17 14 -48 c10 -34 19 -47 30 -45 12 3 16 15 15 48 -2 74 -23
229 -33 248 -15 25 -51 207 -51 252 0 21 5 51 11 67 11 30 39 156 35 160 -1 2
-15 -18 -32 -44 l-29 -46 -15 81 c-8 44 -18 84 -22 88 -12 11 -21 -25 -11 -39
5 -6 10 -33 11 -59 1 -46 0 -48 -26 -50 -15 -1 -36 -1 -47 0 -11 1 -49 2 -85
2 -64 1 -120 22 -120 46 0 16 69 34 129 34 42 0 57 5 77 25 l24 25 -27 6 c-16
3 -33 13 -40 21 -10 13 -27 19 -55 22 -5 1 -8 8 -8 16 0 8 -5 15 -11 15 -6 0
-9 -7 -5 -15 3 -9 0 -15 -9 -15 -18 0 -32 23 -17 28 7 2 12 10 12 18 0 8 6 11
15 8 8 -3 19 -2 26 2 13 8 -25 33 -51 34 -8 0 -22 5 -30 10 -13 9 -13 11 0 20
12 8 13 13 2 27 -24 35 -23 42 9 72 30 29 31 32 16 49 -10 10 -17 27 -17 37 0
31 23 85 37 85 7 0 10 -6 7 -14 -10 -26 17 -28 41 -2 13 14 20 26 16 26 -5 0
-11 7 -14 15 -5 11 0 13 22 9 16 -3 31 -1 35 4 3 6 15 8 25 5 21 -5 47 29 36
48 -4 5 -1 16 5 24 7 9 13 34 14 58 1 23 5 47 9 53 3 6 -1 37 -9 68 -8 32 -13
61 -10 64 4 3 -1 13 -10 23 -21 23 -11 37 31 45 19 3 35 11 35 16 0 7 4 7 13
1 6 -6 24 -13 40 -17 32 -8 34 -17 7 -41 -11 -10 -20 -25 -20 -34 0 -9 9 -33
20 -54 21 -39 27 -113 9 -119 -17 -6 16 -58 50 -79 17 -10 45 -19 61 -19 21 0
30 -5 30 -17 0 -9 3 -14 6 -10 9 9 39 -24 39 -42 0 -9 10 -17 24 -19 15 -2 21
0 17 7 -4 6 -3 11 2 11 5 0 12 13 15 29 3 15 14 31 24 34 37 13 83 49 83 66 0
15 11 14 31 -5 10 -9 15 -22 12 -30 -3 -8 0 -14 6 -14 6 0 20 -9 31 -20 24
-24 58 -19 85 14 15 19 24 23 35 16 21 -14 28 -12 33 8 4 15 5 15 6 -2 1 -14
7 -17 26 -14 21 4 24 2 20 -12 -9 -28 21 -46 57 -32 26 9 29 9 24 -5 -4 -8 -1
-23 6 -31 10 -12 10 -14 1 -8 -8 4 -13 2 -13 -7 0 -8 9 -17 20 -20 26 -7 26
-23 0 -30 -22 -6 -23 -23 -3 -44 13 -15 27 -17 18 -4 -3 5 2 16 10 24 18 18
20 78 3 95 -17 17 0 28 22 14 16 -10 22 -7 41 16 14 17 23 23 26 15 8 -22 25
-14 18 7 -5 15 -3 18 9 14 9 -3 16 -10 16 -16 0 -5 5 -6 11 -3 7 5 4 14 -7 26
-19 21 -18 24 12 33 17 5 23 2 28 -19 6 -22 26 -36 26 -17 -1 20 -27 81 -33
75 -4 -3 -19 -8 -34 -9 -61 -6 -93 -16 -94 -27 0 -7 -5 -1 -10 12 -5 14 -15
21 -23 18 -18 -7 -28 17 -20 50 5 18 9 21 15 12 9 -15 6 -17 83 56 23 21 35
39 29 43 -5 4 -12 26 -15 49 -5 35 -2 47 18 70 21 24 26 26 44 15 11 -6 29
-12 39 -12 11 0 23 -5 27 -11 10 -18 13 -99 3 -99 -14 0 -11 -20 6 -36 9 -9
15 -34 15 -61 0 -40 -2 -45 -19 -40 -15 3 -18 1 -14 -11 5 -11 2 -14 -8 -10
-20 8 -22 -27 -3 -43 8 -6 14 -18 14 -25 0 -8 7 -14 15 -14 9 0 33 -11 55 -25
34 -22 56 -53 73 -107 4 -12 12 -15 29 -10 18 5 20 7 6 10 -10 2 -18 8 -18 14
0 6 11 8 25 6 28 -6 59 30 49 56 -4 11 0 13 17 9 12 -3 24 -14 26 -25 7 -23 8
-23 44 3 19 13 36 18 49 14 12 -4 28 -1 36 6 12 10 18 8 30 -10 8 -11 33 -30
55 -42 35 -17 45 -19 77 -8 20 6 43 16 51 22 7 6 23 16 35 22 17 9 21 20 21
60 0 28 4 51 9 52 5 1 13 7 17 15 6 9 9 4 9 -14 0 -16 5 -28 11 -28 8 0 10 19
5 63 -6 58 -5 61 9 42 9 -11 23 -19 32 -17 12 3 14 -2 10 -20 -6 -24 4 -51 19
-48 5 1 14 -16 21 -37 11 -37 11 -37 12 -8 0 17 -6 48 -14 70 -8 22 -15 43
-15 46 0 12 55 17 61 7 9 -15 64 42 89 92 12 23 28 40 38 40 14 0 15 2 2 10
-8 5 -11 12 -7 16 4 4 0 15 -8 24 -14 15 -12 18 24 30 42 13 111 7 111 -11 0
-6 -9 -7 -21 -4 -16 5 -20 3 -17 -6 3 -8 10 -14 16 -14 21 0 25 -16 6 -29 -18
-14 -18 -15 -1 -21 12 -5 16 -14 12 -26 -4 -12 -1 -21 9 -25 9 -3 27 -31 41
-61 24 -50 25 -58 15 -109 -12 -55 -6 -114 11 -114 5 0 9 -6 9 -14 0 -7 7 -27
15 -42 12 -23 22 -29 52 -31 21 -1 62 -5 91 -9 35 -4 52 -2 52 5 0 6 7 11 16
11 8 0 12 4 9 10 -3 5 0 7 8 4 9 -3 13 -13 10 -25 -6 -21 7 -25 25 -7 22 22
76 28 77 8 0 -9 10 -15 25 -16 14 -1 37 -6 52 -12 16 -6 30 -7 33 -2 3 5 27 7
55 5 39 -3 48 -1 43 11 -3 8 1 14 11 14 9 0 16 -4 16 -10 0 -5 9 -10 19 -10
11 0 29 -13 41 -30 15 -22 30 -30 51 -30 34 0 36 8 9 38 -11 12 -20 26 -20 32
0 5 -7 10 -15 10 -8 0 -15 4 -15 9 0 13 28 22 35 11 3 -5 26 -9 50 -8 24 1 42
4 40 6 -13 13 31 32 83 37 51 5 62 3 72 -12 10 -16 10 -16 5 4 -5 18 -2 21 17
17 13 -2 17 -2 11 2 -19 8 -16 54 2 54 8 0 15 2 15 5 0 8 -49 53 -53 49 -2 -2
-4 3 -4 11 0 8 4 15 9 15 4 0 8 7 8 15 0 8 9 15 20 15 30 0 21 34 -10 40 -28
6 -41 40 -16 40 20 0 21 16 1 24 -15 5 -21 36 -7 36 4 0 20 -12 35 -26 37 -34
45 -24 17 21 -12 20 -20 39 -16 42 3 3 8 -2 12 -11 12 -32 34 -18 34 24 0 22
-5 40 -11 40 -6 0 -8 -9 -4 -20 5 -16 2 -20 -18 -18 -22 2 -24 5 -16 26 5 13
9 39 9 59 0 27 5 36 20 40 20 5 21 12 20 419 -1 309 -4 414 -13 418 -9 5 -9 7
1 12 9 4 12 71 12 284 0 255 -1 280 -17 289 -17 9 -17 10 0 16 20 8 23 31 5
38 -10 4 -10 7 0 18 9 10 12 220 12 979 l0 966 -27 -1 c-21 0 -28 6 -34 29
-11 39 -4 44 20 15 22 -28 32 -24 20 8 -6 16 -22 27 -54 35 -47 13 -58 31 -27
47 14 7 21 5 30 -10 16 -25 38 -24 38 1 0 14 -6 20 -17 18 -9 -2 -26 8 -38 22
-17 21 -20 22 -21 8 0 -10 -5 -18 -11 -18 -5 0 -8 -4 -5 -9 3 -5 -1 -14 -9
-21 -18 -15 -4 -39 24 -41 9 -1 -2 -5 -24 -8 -34 -5 -41 -3 -45 13 -5 18 -7
18 -22 3 -16 -17 -48 -14 -48 5 0 5 5 6 10 3 14 -9 34 45 21 58 -13 13 -31 0
-24 -18 3 -8 0 -15 -6 -15 -6 0 -11 7 -11 15 0 12 -7 14 -27 9 -16 -4 -34 -11
-41 -17 -7 -5 -16 -7 -19 -3 -4 4 -1 11 6 15 7 5 10 14 6 21 -4 7 1 14 15 17
18 5 21 11 18 35 -6 36 6 44 36 24 22 -14 25 -13 41 4 14 15 21 17 41 8 13 -6
24 -15 24 -19 0 -12 52 -21 63 -10 14 14 27 14 27 0 0 -18 28 -39 43 -33 26
10 38 127 15 138 -10 5 -10 7 0 12 6 3 12 23 12 44 0 21 -6 41 -12 43 -10 4
-10 6 0 6 15 1 18 211 2 211 -5 0 -10 7 -10 15 0 8 5 15 10 15 6 0 10 5 10 12
0 9 -3 9 -12 0 -15 -15 -48 -16 -48 -2 0 6 7 10 15 10 8 0 15 9 15 20 0 11 6
20 13 20 7 0 14 14 15 31 2 24 -2 32 -18 36 -11 3 -17 9 -14 14 3 5 9 7 14 4
5 -3 11 -1 15 5 3 5 -1 10 -9 10 -16 0 -31 18 -22 27 3 3 12 0 21 -7 13 -11
15 1 15 104 l0 116 -66 0 c-51 0 -73 -5 -96 -21 -17 -12 -33 -18 -37 -13 -9
13 -54 37 -47 26 7 -11 -35 -41 -65 -47 -10 -2 -19 0 -19 6 0 5 5 9 10 9 6 0
10 9 10 20 0 23 -25 27 -34 5 -3 -8 -10 -15 -16 -15 -5 0 -10 7 -10 15 0 23
-87 21 -93 -2 -4 -17 -5 -17 -6 -1 -1 17 -29 18 -421 18 -231 0 -420 -4 -419
-8 0 -4 4 -16 8 -26 10 -25 73 -27 124 -3 21 10 42 15 46 12 5 -3 12 1 14 7 3
7 3 -2 0 -19 -3 -19 0 -39 6 -47 9 -10 9 -16 1 -21 -6 -4 -14 -4 -17 -1 -4 3
-14 -1 -24 -10 -16 -15 -19 -14 -33 13 -14 26 -15 27 -16 5 0 -12 -7 -25 -15
-28 -10 -4 -13 -13 -10 -25 4 -11 2 -19 -4 -19 -6 0 -11 4 -11 9 0 5 -8 11
-17 15 -10 3 -24 9 -32 12 -11 5 -12 1 -7 -19 7 -29 -14 -48 -45 -40 -11 3
-19 0 -19 -6 0 -6 -4 -11 -9 -11 -5 0 -8 12 -8 26 0 23 2 25 28 20 28 -5 41 8
17 17 -10 4 -10 7 0 18 16 18 15 29 -3 29 -8 0 -15 -5 -15 -11 0 -5 -5 -7 -11
-4 -6 4 -8 13 -5 21 3 8 1 14 -4 14 -6 0 -10 -9 -10 -19 0 -14 -5 -18 -20 -14
-11 3 -20 9 -20 14 0 5 -9 9 -20 9 -11 0 -20 5 -20 10 0 6 7 10 15 10 19 0 19
14 0 34 -25 25 -83 36 -187 36 -87 0 -98 -2 -98 -17 -1 -17 -1 -17 -10 -1 -10
16 -56 17 -600 17 -492 0 -590 -2 -590 -14 0 -7 15 -17 33 -21 17 -4 26 -9 19
-11 -6 -3 -9 -10 -5 -16 4 -7 0 -8 -12 -3 -13 5 -25 -1 -42 -21 l-24 -28 7 25
c4 14 14 31 23 38 9 8 12 11 6 9 -17 -8 -55 11 -55 28 0 11 -11 15 -41 15 -51
0 -80 -15 -72 -37 4 -11 2 -14 -8 -11 -8 2 -15 14 -17 26 -3 21 -6 21 -279 22
-250 0 -278 -1 -296 -17 -19 -17 -20 -17 -14 0 6 16 -23 17 -516 17 -365 0
-526 -3 -534 -11 -8 -8 -17 -8 -33 1 -19 10 -21 10 -16 -7 5 -15 0 -19 -22
-20 -15 -1 -21 1 -14 4 14 6 16 33 2 33 -5 0 -10 -4 -10 -10 0 -5 -11 -10 -25
-10 -14 0 -25 5 -25 10 0 6 -5 10 -11 10 -6 0 -9 -7 -5 -15 3 -8 1 -15 -4 -15
-6 0 -10 5 -10 10 0 6 -9 10 -20 10 -11 0 -20 -4 -20 -10 0 -5 -4 -10 -10 -10
-5 0 -10 7 -10 15 0 12 -13 15 -55 15 -30 0 -55 -4 -55 -10 0 -5 -5 -10 -11
-10 -5 0 -7 5 -3 12 5 8 2 9 -10 5 -10 -4 -24 -7 -32 -7 -8 0 -14 -5 -14 -11
0 -5 5 -7 10 -4 6 3 10 2 10 -3 0 -6 -7 -12 -15 -16 -10 -3 -14 -16 -11 -36 5
-43 -9 -46 -22 -5 -5 19 -6 33 -1 29 5 -3 9 2 9 10 0 8 -10 18 -22 22 -13 4
-26 12 -30 18 -5 6 -8 2 -8 -11 0 -15 6 -23 18 -24 11 0 6 -5 -13 -14 -31 -13
-50 -10 -26 4 10 7 10 12 1 27 -10 16 -26 19 -91 21 -43 2 -80 -1 -80 -5z
m5039 -67 c12 -4 22 -11 22 -14 0 -4 7 -8 15 -8 8 0 15 7 15 14 0 8 5 11 10 8
6 -4 8 -11 5 -16 -4 -5 0 -9 8 -9 10 0 13 -7 10 -20 -3 -12 0 -20 7 -20 12 0
40 -24 40 -35 0 -4 6 -12 13 -19 12 -12 72 -7 69 7 -1 4 1 6 6 5 4 -2 6 -6 5
-10 -2 -5 8 -8 22 -8 19 0 25 -5 25 -21 0 -15 -5 -19 -15 -15 -8 3 -15 1 -15
-4 0 -6 7 -10 15 -10 8 0 15 -4 15 -10 0 -5 6 -10 14 -10 21 0 31 -21 15 -31
-10 -6 -7 -9 12 -9 25 0 49 -16 49 -33 0 -4 -5 -5 -10 -2 -17 11 -49 -5 -43
-21 4 -10 -2 -14 -21 -14 -29 0 -33 9 -13 29 10 11 8 12 -10 6 -25 -7 -30 4
-12 22 6 6 8 16 4 23 -5 8 -11 6 -20 -6 -7 -10 -19 -15 -29 -11 -21 8 -21 27
0 27 14 0 13 5 -5 32 -21 35 -45 51 -35 24 3 -9 1 -23 -6 -31 -6 -8 -9 -19 -5
-25 11 -19 -25 -23 -51 -5 -30 20 -43 12 -26 -15 12 -20 7 -50 -9 -50 -5 0 -8
-3 -8 -7 3 -20 -2 -23 -16 -9 -8 8 -13 20 -10 28 8 20 -60 62 -89 54 -21 -5
-25 -2 -31 24 -4 16 -4 34 0 40 3 5 0 10 -9 10 -8 0 -21 3 -30 6 -11 4 -16 1
-16 -10 0 -9 8 -16 17 -16 15 0 14 -2 -4 -15 -12 -8 -32 -14 -45 -13 -20 3
-23 -1 -21 -27 1 -16 0 -24 -3 -17 -3 6 -12 12 -20 12 -9 0 -12 5 -9 10 7 11
0 12 -33 3 -17 -4 -22 -11 -19 -24 3 -11 -2 -23 -10 -28 -13 -7 -11 -11 12
-22 38 -18 42 -35 10 -41 -27 -6 -32 1 -13 20 9 9 6 12 -15 12 -17 0 -27 5
-27 15 0 21 -30 18 -57 -4 -28 -23 -31 -53 -5 -44 9 3 14 3 11 -1 -4 -4 -18
-9 -33 -12 -19 -3 -26 0 -26 12 0 12 -6 14 -28 10 -24 -6 -29 -3 -39 24 -15
41 -15 45 1 45 8 0 18 3 22 7 3 4 15 3 25 -3 15 -7 19 -6 19 6 0 9 9 15 21 15
29 0 51 24 36 39 -8 8 -9 14 -1 19 6 4 16 16 22 27 10 19 11 18 23 -8 9 -20
15 -24 21 -15 6 10 10 10 18 -2 7 -11 12 -12 20 -4 8 8 7 15 -4 27 -17 16 -9
27 28 41 14 5 17 3 12 -10 -5 -12 -2 -15 10 -10 8 3 20 6 24 6 5 0 12 16 16
35 6 36 15 40 63 36 21 -2 23 0 11 14 -28 34 40 53 108 30z m-2642 -757 c-2
-10 0 -16 4 -13 5 3 15 -4 24 -16 16 -23 10 -41 -27 -83 -17 -20 -17 -20 -32
0 -8 10 -15 27 -15 36 0 18 -20 36 -20 19 0 -17 -37 -13 -44 4 -3 8 -13 15
-21 15 -22 0 -8 19 21 30 20 8 23 14 18 35 -5 20 -3 24 9 19 8 -3 18 -1 22 5
10 17 67 -30 61 -51z m-1611 -4 c38 -30 71 -52 74 -47 13 18 28 11 24 -11 -4
-19 12 -37 90 -102 51 -43 146 -124 210 -179 114 -98 117 -101 117 -142 0 -23
-4 -44 -8 -47 -5 -3 -24 10 -43 29 -19 19 -38 35 -42 35 -5 0 -6 -44 -3 -97 3
-54 10 -332 17 -618 12 -558 12 -556 65 -598 23 -18 24 -23 24 -155 0 -75 4
-141 8 -147 4 -5 62 -47 128 -92 84 -57 125 -78 132 -71 14 14 35 0 28 -18 -4
-10 10 -24 40 -42 25 -15 83 -54 130 -87 92 -66 168 -115 178 -115 8 0 6 112
-3 178 -6 39 -4 52 5 52 20 0 24 -14 31 -97 3 -43 11 -81 17 -85 8 -6 7 -10
-2 -17 -13 -8 -13 -54 3 -291 12 -184 17 -520 7 -520 -16 0 -22 27 -23 108 0
42 -3 94 -7 115 -8 43 12 29 -237 161 -204 109 -351 189 -377 207 l-27 19 6
-145 6 -146 -29 3 c-16 1 -35 -1 -42 -6 -19 -11 -83 16 -80 34 4 17 -2 21
-159 91 -65 29 -123 57 -129 61 -7 5 -14 39 -16 77 -2 40 -10 76 -18 87 -13
16 -90 54 -330 167 -41 19 -142 67 -223 106 -82 39 -150 71 -153 71 -2 0 -4
-33 -4 -72 0 -73 -11 -111 -24 -89 -4 6 -15 11 -25 11 -15 0 -19 11 -25 63 -3
34 -6 459 -6 945 -1 486 -3 889 -7 897 -7 21 -43 19 -162 -10 -57 -14 -106
-23 -108 -21 -6 6 50 22 174 48 l102 21 35 -24 36 -24 0 -322 0 -322 118 -77
c64 -43 187 -124 273 -181 86 -56 163 -103 171 -103 9 0 21 7 28 15 7 8 24 15
39 15 14 0 37 3 50 7 l24 6 -7 411 c-3 226 -9 529 -12 673 l-7 262 -68 53
c-67 52 -69 54 -69 101 0 26 4 47 9 47 5 0 39 -25 76 -56z m1045 -180 c0 -20
4 -24 19 -19 11 3 22 1 26 -5 4 -6 15 -8 25 -5 12 4 19 -1 23 -15 3 -11 12
-20 19 -20 8 0 20 -12 27 -27 11 -23 10 -29 -6 -40 -15 -11 -18 -11 -23 2 -5
14 -8 14 -28 0 -23 -17 -29 -35 -11 -35 5 0 7 6 3 12 -5 7 4 3 20 -9 15 -12
34 -19 42 -16 13 5 13 7 2 14 -9 6 -4 8 15 7 18 -2 26 -7 23 -15 -3 -7 -1 -13
4 -13 6 0 10 3 10 8 0 4 5 14 10 22 8 13 11 12 23 -5 16 -21 12 -45 -8 -45
-17 0 -28 -31 -16 -43 6 -6 15 3 26 23 13 25 19 30 28 20 9 -9 7 -15 -7 -26
-16 -11 -17 -17 -8 -26 16 -16 15 -48 0 -49 -10 0 -10 -2 0 -6 6 -2 12 -11 12
-19 0 -8 7 -17 15 -20 20 -8 19 -24 -1 -24 -8 0 -12 -4 -9 -10 9 -14 -8 -12
-24 3 -11 10 -13 8 -8 -10 7 -29 -9 -30 -16 -2 -3 11 -15 23 -26 26 -11 3 -18
9 -15 14 9 15 -13 10 -30 -6 -16 -17 -41 -21 -31 -5 3 5 -3 15 -15 22 -11 7
-20 17 -20 22 0 4 6 3 13 -3 17 -14 27 -4 27 26 0 13 7 26 15 29 22 9 18 27
-5 21 -21 -5 -28 7 -10 18 15 9 12 32 -6 39 -12 4 -14 1 -9 -14 7 -21 -10 -28
-18 -7 -3 9 -10 9 -28 -2 -23 -13 -24 -13 -6 6 22 25 22 33 -3 33 -11 0 -20 5
-20 11 0 6 7 9 15 5 8 -3 15 -1 15 4 0 6 -7 10 -15 10 -26 0 -16 20 15 34 30
12 33 30 3 19 -9 -4 -16 2 -20 16 -8 31 -21 25 -29 -13 -3 -19 -13 -37 -21
-41 -19 -7 -32 3 -18 13 6 4 11 15 12 25 1 15 -4 17 -23 13 -17 -5 -24 -2 -24
8 0 8 -6 17 -12 19 -9 4 0 18 24 41 45 43 58 45 58 10z m605 -14 c3 -5 15 -10
26 -10 12 0 19 -7 19 -20 0 -11 4 -20 9 -20 5 0 11 -9 14 -20 3 -12 14 -20 27
-20 18 0 21 -4 17 -21 -3 -13 1 -28 9 -37 8 -8 13 -21 10 -28 -3 -9 2 -14 13
-14 13 0 20 -9 23 -29 4 -26 2 -28 -17 -21 -16 6 -25 3 -35 -10 -12 -17 -16
-17 -34 -4 -29 20 -38 17 -24 -6 7 -11 18 -20 25 -20 7 0 13 -7 13 -16 0 -10
-5 -14 -15 -10 -8 3 -22 9 -30 12 -10 4 -18 -2 -23 -17 -6 -16 -11 -19 -16
-10 -5 7 -1 20 8 30 17 18 21 41 9 40 -5 0 -18 -13 -30 -28 -20 -25 -21 -30
-8 -41 12 -10 13 -16 4 -26 -9 -11 -15 -11 -25 -3 -10 8 -14 8 -14 1 0 -6 7
-15 16 -20 13 -7 14 -11 4 -17 -8 -5 -20 1 -31 16 -24 30 -23 36 0 44 11 3 18
12 15 20 -3 7 -1 16 5 20 6 3 11 15 11 26 0 10 7 19 15 19 8 0 12 6 9 14 -7
19 16 32 27 15 7 -11 9 -10 9 4 0 10 5 15 10 12 6 -3 10 4 10 16 0 18 -3 20
-12 11 -16 -16 -30 -15 -54 4 -13 10 -14 14 -4 11 9 -3 24 1 35 9 10 8 14 14
8 14 -6 0 -13 7 -17 15 -3 9 0 15 10 15 8 0 13 -4 10 -9 -3 -5 3 -11 14 -14
11 -3 20 -1 20 5 0 5 5 6 10 3 6 -3 10 -1 10 5 0 7 -7 10 -15 7 -8 -4 -17 -2
-20 2 -8 14 -59 20 -79 9 -14 -8 -21 -8 -24 0 -2 6 -10 8 -18 5 -10 -4 -12 0
-8 10 4 12 14 15 34 11 15 -4 31 -1 34 5 4 6 0 11 -8 11 -21 0 -20 10 2 26 16
13 16 13 -1 14 -18 0 -15 20 3 20 5 0 12 -4 15 -10z m1653 -320 c5 -66 -16
-160 -45 -202 -32 -47 -53 -49 -54 -5 0 17 -2 48 -4 68 -3 30 0 39 18 48 l22
11 -22 -6 c-22 -5 -23 -3 -23 61 l0 67 29 -7 c17 -4 32 -2 36 5 4 6 14 10 23
8 12 -2 18 -16 20 -48z m-1564 -51 c34 -30 118 -34 160 -8 33 20 71 26 61 9
-3 -5 -1 -10 4 -10 6 0 11 5 11 10 0 6 5 10 10 10 6 0 10 -7 10 -15 0 -8 5
-15 11 -15 8 0 8 -5 -1 -15 -7 -8 -18 -15 -25 -15 -7 0 -18 -7 -25 -15 -9 -11
-15 -13 -20 -5 -4 7 -18 10 -31 7 l-24 -4 23 -8 c33 -11 27 -25 -7 -15 -18 5
-31 5 -33 -1 -2 -6 -23 -12 -47 -14 -38 -3 -42 -2 -38 15 3 13 0 17 -9 13 -8
-3 -14 -11 -14 -19 0 -8 -6 -14 -12 -14 -8 0 -5 -7 6 -15 21 -16 18 -19 -8 -9
-9 3 -16 15 -16 25 0 16 -3 18 -19 9 -26 -13 -31 -13 -31 5 0 8 -4 15 -10 15
-5 0 -10 4 -10 9 0 5 21 7 46 5 39 -2 44 -1 33 12 -7 9 -23 14 -36 11 -25 -5
-26 -2 -13 28 5 11 9 14 9 8 1 -7 9 -13 19 -12 10 0 12 3 5 6 -12 4 -19 33 -8
33 3 0 16 -10 29 -21z m1643 -109 c0 -8 -16 -32 -35 -52 -20 -21 -32 -38 -27
-38 17 1 45 27 37 35 -4 4 2 6 13 4 14 -3 22 -16 28 -47 5 -26 14 -42 23 -42
19 0 18 -29 -2 -37 -9 -3 -20 0 -25 8 -7 11 -9 11 -9 -2 0 -23 -32 -49 -37
-31 -3 6 -18 12 -35 12 -27 0 -30 2 -24 25 4 16 2 25 -5 25 -7 0 -8 7 -4 18 7
19 9 28 20 89 7 42 17 50 61 49 11 -1 21 -8 21 -16z m-8853 -390 c6 0 11 -16
11 -37 0 -43 21 -71 49 -65 16 4 18 0 14 -27 -4 -25 -1 -31 11 -30 29 2 41 -1
41 -11 0 -5 -7 -10 -15 -10 -8 0 -15 -7 -15 -15 0 -8 7 -15 15 -15 9 0 25 -8
36 -19 20 -18 20 -18 -5 -34 -30 -20 -26 -58 6 -49 13 3 26 -1 34 -13 12 -16
10 -20 -13 -32 -33 -17 -53 -10 -53 17 0 11 -6 23 -14 26 -10 4 -14 17 -11 40
1 19 -1 34 -7 34 -5 0 -7 4 -3 9 3 5 1 12 -5 16 -6 4 -8 10 -5 15 3 5 -3 13
-13 19 -10 5 -24 21 -31 35 -8 14 -18 23 -22 20 -4 -2 -10 0 -14 6 -3 5 0 10
7 10 8 1 4 9 -9 19 -27 23 -29 31 -7 31 8 0 12 5 9 10 -4 7 -12 7 -18 2 -7 -4
-22 -7 -34 -6 -13 1 -20 -3 -16 -11 2 -7 0 -16 -6 -20 -6 -3 -11 1 -11 10 0
12 -6 15 -20 10 -14 -4 -20 -2 -20 9 0 9 12 16 33 18 27 3 32 6 29 27 -3 22
-1 23 28 17 18 -3 38 -6 44 -6z m1746 -58 c0 -26 -7 -45 -19 -56 -15 -13 -18
-26 -14 -56 4 -27 -2 -59 -18 -102 -22 -59 -49 -103 -49 -79 0 10 -28 -18 -90
-92 -13 -15 -30 -25 -37 -23 -7 3 -12 0 -10 -7 1 -7 -4 -11 -11 -9 -6 1 -11
-1 -10 -5 2 -5 -1 -10 -7 -13 -5 -3 -11 8 -13 24 -3 22 0 27 11 23 9 -3 18 1
21 9 4 10 2 12 -6 8 -7 -5 -8 -3 -4 5 5 7 14 10 22 7 8 -3 11 0 7 10 -3 7 -1
14 3 14 5 0 19 8 32 18 31 24 21 55 -14 42 -29 -11 -29 -8 -7 28 26 40 37 49
51 44 7 -2 31 15 53 37 21 23 39 37 39 32 0 -5 -4 -13 -10 -16 -5 -3 -10 -14
-10 -23 1 -28 22 15 30 60 8 44 7 45 -21 19 -22 -20 -64 -32 -85 -24 -20 7
-27 42 -13 59 6 8 28 21 48 30 77 34 86 39 101 56 23 27 30 22 30 -20z m-2430
-395 c0 -9 -3 -9 -8 1 -12 19 -39 4 -45 -24 -5 -26 5 -36 39 -40 17 -2 21 2
16 18 -4 16 -2 19 8 13 10 -6 12 -4 7 8 -7 19 8 23 19 6 3 -6 1 -15 -6 -19 -8
-5 -15 -18 -17 -30 -3 -19 0 -22 23 -17 20 3 28 0 31 -14 3 -11 10 -19 15 -19
5 0 7 -4 4 -9 -3 -5 -15 -7 -25 -4 -10 3 -22 0 -26 -6 -3 -6 -3 -10 2 -9 4 2
9 0 11 -4 1 -5 0 -8 -3 -8 -3 0 -14 0 -25 0 -13 0 -20 7 -20 20 0 15 -7 20
-25 20 -14 0 -28 7 -32 16 -3 8 -12 13 -20 9 -11 -4 -13 -1 -9 11 4 9 1 23 -5
30 -12 15 -50 20 -48 7 5 -34 -24 -12 -36 26 -6 20 -4 22 14 16 23 -7 28 4 9
23 -19 19 8 15 38 -5 20 -13 27 -14 33 -4 5 7 12 11 17 9 5 -1 10 7 12 18 3
22 3 22 28 -2 13 -14 24 -30 24 -37z m-1136 38 c-4 -8 -1 -15 5 -15 6 0 11 5
11 10 0 6 5 10 10 10 6 0 10 -7 10 -15 0 -10 11 -15 35 -15 32 0 35 -2 35 -30
0 -24 4 -30 21 -30 17 0 19 -3 10 -14 -8 -10 -9 -16 -1 -21 22 -14 8 -22 -42
-23 -130 -2 -150 -4 -155 -18 -4 -11 -9 -10 -29 3 -32 21 -31 42 1 35 14 -2
25 0 25 4 0 5 20 8 45 6 25 -2 42 -8 39 -13 -3 -5 2 -6 10 -3 25 10 8 24 -30
24 -19 0 -34 5 -34 10 0 6 11 10 24 10 13 0 27 7 30 16 3 8 10 12 16 9 6 -4 8
-10 5 -15 -3 -5 0 -12 6 -16 8 -4 9 -3 5 4 -4 7 -2 12 6 12 8 0 7 5 -4 17 -14
14 -22 15 -43 5 -30 -14 -47 -8 -38 13 3 8 0 15 -6 15 -6 0 -11 9 -11 20 0 15
7 20 25 20 18 0 23 -4 19 -15z m3396 -92 c-31 -67 -40 -99 -50 -173 -4 -36
-15 -110 -24 -164 -13 -76 -14 -101 -5 -107 7 -4 13 -31 13 -63 1 -53 2 -55
26 -52 14 2 35 9 47 17 20 12 25 11 43 -6 19 -19 44 -98 55 -169 3 -17 11 -61
18 -97 7 -36 11 -83 9 -103 -4 -32 -6 -35 -20 -24 -14 12 -14 8 -8 -32 4 -25
9 -56 12 -70 4 -18 3 -21 -4 -10 -5 8 -13 35 -17 60 -11 69 -44 160 -71 195
-29 38 -30 47 -6 44 25 -3 52 11 52 27 0 10 -7 10 -37 -2 -29 -13 -45 -13 -79
-5 -66 17 -70 14 -27 -18 45 -32 107 -102 128 -143 20 -41 3 -34 -20 8 -24 45
-42 66 -78 89 l-28 18 37 -62 c20 -34 34 -64 31 -67 -3 -3 -13 10 -22 29 -16
34 -55 78 -55 63 0 -4 9 -19 20 -33 29 -37 16 -41 -17 -6 -43 46 -105 83 -154
91 -35 6 -45 12 -47 30 -3 19 1 22 27 22 20 0 34 7 41 19 15 30 13 33 -22 26
l-33 -6 30 17 c40 22 40 21 25 39 -8 10 -9 15 -1 15 6 0 11 6 11 13 0 7 10 24
22 37 l22 24 6 -25 c5 -17 12 -23 26 -21 31 6 37 18 29 67 -5 35 -12 49 -26
52 -15 4 -17 11 -13 32 4 14 11 34 15 43 14 26 11 38 -8 31 -12 -5 -15 -2 -11
8 3 8 11 32 18 54 7 22 19 54 27 72 7 17 10 39 6 49 -4 12 -3 15 5 10 8 -5 12
1 12 18 0 24 6 42 41 121 7 17 15 35 18 40 2 6 -5 2 -16 -7 -11 -10 -24 -18
-29 -18 -4 0 3 8 16 17 14 10 27 16 30 15 2 -2 8 7 13 20 5 13 11 18 14 11 2
-7 -5 -34 -17 -60z m-3709 -185 c0 -13 3 -17 6 -10 8 20 20 14 25 -12 6 -29
-8 -47 -29 -39 -13 5 -13 2 -4 -15 8 -15 8 -22 -2 -25 -9 -4 -9 -7 0 -14 10
-7 8 -13 -7 -26 -11 -9 -24 -16 -28 -16 -4 1 -21 -4 -38 -10 -34 -13 -50 -47
-32 -68 8 -10 6 -13 -6 -13 -10 0 -14 5 -11 10 10 16 -11 12 -25 -5 -11 -13
-14 -13 -27 0 -8 9 -18 13 -23 10 -4 -3 -11 3 -14 12 -5 12 -9 14 -18 5 -14
-14 -48 -16 -48 -3 0 5 10 11 22 14 27 8 23 12 -19 20 -26 5 -33 3 -33 -9 0
-8 -4 -13 -9 -10 -5 3 -11 -4 -14 -15 -3 -12 -10 -18 -15 -15 -5 3 -18 -1 -28
-9 -22 -17 -44 -19 -44 -5 0 6 6 10 13 10 19 0 62 39 53 48 -4 4 -13 -1 -20
-11 -7 -9 -18 -17 -25 -17 -18 0 -13 28 7 33 13 3 10 6 -10 11 -16 5 -28 12
-28 16 0 8 49 22 66 19 5 -1 27 -1 48 0 37 1 38 2 23 19 -18 20 -23 57 -7 47
6 -3 10 -1 10 5 0 15 39 3 64 -19 18 -15 18 -15 11 7 -6 22 -5 23 14 13 12 -7
21 -16 21 -20 0 -13 43 -21 55 -11 7 6 15 7 18 3 4 -3 7 -1 7 5 0 7 12 12 28
12 17 0 32 8 40 20 15 24 7 42 -16 38 -27 -5 -20 25 8 33 39 11 40 10 41 -13z
m9457 -195 c12 -13 22 -28 22 -34 0 -5 5 -9 10 -9 6 0 10 -4 10 -10 0 -15 -26
-12 -40 5 -9 11 -16 13 -23 6 -7 -7 -15 -7 -24 0 -10 9 -13 7 -13 -8 0 -15
-13 -25 -45 -37 -24 -10 -49 -15 -55 -11 -5 3 -10 4 -10 1 0 -8 63 -35 90 -38
17 -2 25 -9 25 -22 0 -16 -8 -20 -37 -21 -21 -1 -38 2 -38 7 0 4 10 8 23 9
l22 0 -22 9 c-13 5 -23 13 -23 19 0 5 -16 12 -35 15 -31 6 -50 26 -25 26 22 0
8 19 -27 36 l-38 19 43 3 c44 3 56 24 30 50 -9 9 -9 12 3 12 8 0 22 -8 31 -17
37 -39 50 -47 58 -33 4 7 12 10 18 6 5 -3 13 1 16 9 3 9 -1 18 -9 21 -8 4 -15
10 -15 15 0 16 54 -3 78 -28z m-7874 1 c6 2 7 1 3 -2 -5 -2 2 -10 15 -16 13
-7 26 -24 29 -41 4 -17 7 -22 8 -12 0 9 6 17 11 17 6 0 10 5 10 10 0 6 -8 10
-17 10 -13 0 -14 3 -5 12 9 9 15 8 25 -7 8 -10 19 -15 26 -11 9 6 9 11 1 21
-15 18 33 29 61 14 11 -6 27 -8 34 -5 19 7 27 -5 14 -21 -9 -10 -7 -13 10 -13
20 0 29 -14 14 -23 -5 -2 -2 -2 5 -1 6 2 12 -1 12 -6 0 -4 13 -11 30 -15 35
-8 46 -21 25 -29 -8 -3 -21 1 -29 10 -23 22 -28 -1 -6 -26 23 -27 25 -36 8
-43 -8 -3 -6 -6 5 -6 11 -1 17 -9 17 -26 0 -22 -3 -24 -19 -16 -10 6 -24 25
-30 42 -9 27 -9 30 6 25 13 -5 14 -4 4 8 -7 8 -20 12 -29 9 -14 -4 -14 -3 -3
5 12 9 12 12 0 25 -18 17 -56 12 -81 -10 -17 -15 -18 -15 -12 14 5 27 3 31
-23 36 -38 7 -41 1 -12 -24 l24 -20 -25 3 c-14 2 -31 7 -38 12 -7 4 -16 5 -19
2 -3 -3 -13 4 -23 16 -21 27 -50 32 -51 10 0 -11 -2 -12 -6 -4 -2 6 -9 10 -14
6 -5 -3 -9 1 -9 9 0 8 12 18 26 21 26 7 29 26 4 34 -7 3 -10 0 -6 -7 4 -6 2
-11 -3 -11 -12 0 -15 23 -4 34 4 3 11 2 16 -3 5 -5 15 -8 21 -7z m-52 -109
c21 -10 38 -37 21 -34 -20 4 -34 -2 -28 -11 4 -6 10 -8 15 -5 4 3 10 1 12 -4
1 -5 19 -11 38 -12 29 -3 34 -1 32 14 -3 18 14 22 37 8 11 -7 10 -11 -5 -20
-11 -6 -14 -11 -7 -11 6 0 15 5 18 11 4 5 12 8 18 6 7 -2 20 0 30 5 24 12 58
1 37 -12 -11 -7 -9 -11 12 -19 43 -16 27 -45 -27 -49 -24 -1 -46 2 -50 8 -5 8
-11 7 -22 -1 -11 -10 -16 -10 -22 0 -6 9 -11 8 -22 -5 -9 -12 -10 -15 -1 -10
7 4 12 1 12 -8 0 -9 0 -19 0 -23 0 -5 -3 -8 -7 -8 -5 0 -13 -3 -18 -7 -6 -4
-12 2 -12 14 -3 28 -6 30 -37 18 -21 -8 -28 -7 -32 5 -4 8 -10 12 -15 9 -5 -3
-9 10 -9 30 0 19 -6 36 -12 39 -10 3 -10 7 -1 18 14 17 6 33 -22 42 -20 7 -20
7 -1 -8 22 -17 23 -16 -23 -38 -37 -19 -55 -22 -31 -7 13 8 13 10 -2 10 -9 0
-20 -4 -23 -10 -3 -5 -13 -10 -21 -10 -8 0 -14 5 -14 10 0 6 7 10 16 10 8 0
13 4 10 9 -3 5 -16 7 -29 4 -12 -3 -19 -3 -15 1 3 4 -2 16 -13 27 -10 10 -19
24 -19 29 0 15 28 12 37 -4 4 -7 18 -18 30 -25 17 -9 25 -8 38 5 8 9 33 18 55
21 22 3 41 11 41 17 1 6 3 4 5 -4 3 -9 14 -20 26 -25z m1414 -305 c18 -25 36
-57 39 -72 4 -16 10 -28 15 -28 4 0 6 -9 3 -19 -4 -16 -1 -19 17 -14 20 5 21
4 11 -15 -8 -15 -8 -21 2 -25 16 -6 8 -13 -27 -21 -24 -6 -28 -4 -22 10 7 19
-9 34 -37 34 -11 0 -15 -4 -11 -12 5 -8 0 -9 -14 -6 -12 4 -20 3 -17 -2 3 -4
-10 -19 -28 -32 -36 -28 -84 -47 -73 -29 4 6 13 11 20 11 7 0 23 12 37 26 l24
27 -24 -13 c-21 -11 -23 -10 -18 4 4 11 1 16 -11 16 -12 1 -5 11 22 34 27 23
37 39 33 50 -6 16 -37 23 -37 9 -1 -19 -18 -33 -34 -27 -16 6 -16 8 1 23 22
20 58 37 98 47 l30 7 -30 7 c-26 7 -27 8 -6 9 13 0 22 4 18 7 -3 4 -23 3 -43
-1 -29 -5 -34 -9 -23 -17 11 -8 10 -9 -4 -4 -10 3 -26 6 -35 7 -10 0 -5 5 11
11 38 14 34 29 -5 17 -51 -14 -57 -9 -13 11 64 29 93 23 131 -30z m-3751 -103
c18 3 17 23 -2 24 -10 0 -13 3 -5 6 14 6 16 33 2 33 -5 0 -10 6 -10 14 0 13 4
13 27 1 15 -8 30 -12 34 -9 4 2 5 -4 2 -15 -3 -13 2 -20 21 -25 14 -3 26 -11
26 -16 0 -6 7 -10 16 -10 9 0 22 -7 29 -16 6 -9 23 -16 38 -16 29 0 40 -17 26
-39 -6 -10 -9 -10 -9 -1 0 6 -9 12 -20 12 -22 0 -27 -16 -8 -22 20 -7 0 -38
-24 -38 -16 0 -19 3 -10 8 10 7 10 14 0 39 -10 22 -16 27 -24 19 -6 -6 -8 -18
-6 -26 3 -8 -5 -4 -17 9 -11 13 -21 28 -21 33 0 4 -6 8 -13 8 -7 0 -13 -8 -13
-19 0 -11 5 -17 13 -14 7 3 13 0 13 -6 0 -6 -9 -11 -19 -11 -11 0 -21 -4 -23
-10 -1 -5 -13 -7 -26 -4 -25 7 -41 49 -24 66 14 14 -45 61 -65 54 -19 -8 -16
11 3 22 9 5 15 13 15 18 -1 5 3 9 8 9 5 0 13 4 17 8 5 5 15 -13 24 -40 8 -26
19 -47 25 -46z m-320 24 c-6 -10 11 -24 34 -28 8 -1 17 -6 20 -11 3 -6 17 -12
31 -13 14 -2 26 -11 26 -19 1 -8 2 -21 3 -27 1 -16 41 -17 41 -1 0 6 3 9 6 5
3 -3 0 -20 -7 -37 -12 -26 -18 -30 -41 -24 -23 4 -27 3 -22 -10 3 -9 10 -13
15 -11 4 3 16 -2 26 -12 12 -12 29 -17 51 -15 27 3 32 0 32 -17 0 -12 5 -21
12 -21 6 0 9 -2 6 -5 -2 -3 -19 2 -37 11 -25 13 -35 13 -47 4 -19 -17 -14 -40
16 -68 18 -16 21 -25 13 -30 -15 -9 -10 -95 6 -100 21 -7 11 -19 -13 -15 -24
5 -42 48 -25 59 5 3 9 16 9 28 0 19 -5 23 -29 22 -31 0 -60 22 -53 42 2 6 12
12 22 12 17 0 34 35 24 51 -3 5 -20 -1 -39 -11 -24 -14 -35 -16 -35 -7 0 7 -9
18 -20 25 -29 18 -26 -4 5 -31 18 -17 23 -29 19 -49 -5 -22 -11 -26 -35 -26
-36 1 -37 11 -1 28 l27 12 -25 11 c-14 5 -32 10 -40 11 -9 1 -16 13 -18 29 -4
32 -13 34 -29 7 -8 -12 -9 -21 -3 -25 6 -3 15 -15 20 -26 10 -18 9 -19 -14
-13 -25 6 -102 -13 -92 -23 8 -8 -21 -33 -38 -33 -9 0 -16 7 -16 16 0 9 -5 13
-12 9 -7 -4 -6 -1 3 7 9 7 14 18 12 24 -2 6 3 14 12 17 8 4 15 2 15 -2 0 -5 7
-12 15 -15 10 -3 15 -1 13 7 -2 6 17 31 42 54 25 23 39 43 32 43 -7 0 -24 -11
-38 -25 -30 -30 -53 -24 -46 12 3 15 -1 29 -9 34 -10 6 -8 9 9 9 37 0 25 16
-13 17 -28 1 -34 -2 -25 -12 8 -9 6 -14 -7 -19 -15 -6 -15 -8 -3 -16 20 -12 6
-23 -19 -15 -17 5 -19 10 -11 26 10 17 7 19 -24 19 -26 0 -34 4 -30 14 3 8 -2
16 -13 20 -10 3 1 3 25 1 37 -4 44 -2 51 18 8 20 10 20 16 5 9 -22 45 -24 45
-3 0 8 -4 15 -10 15 -5 0 -10 7 -10 15 0 20 7 19 37 -5 14 -11 39 -20 54 -20
33 0 32 0 19 -34 -13 -35 16 -36 32 -1 14 30 28 32 51 5 17 -21 47 -17 47 5 0
23 21 28 35 9 13 -17 14 -17 15 -2 0 9 -6 19 -12 21 -10 4 -9 8 2 16 19 14 0
14 -34 1 -22 -8 -28 -6 -42 15 -9 14 -22 25 -30 25 -22 0 -28 22 -9 37 22 15
39 17 30 4z m-1871 -112 c-3 -5 2 -9 12 -9 14 0 14 3 4 15 -7 9 -10 18 -7 22
8 8 37 -16 37 -31 0 -6 15 -18 32 -26 42 -20 48 -40 13 -40 -24 0 -26 -2 -14
-17 13 -15 12 -16 -9 -10 -18 4 -22 2 -18 -9 7 -17 -15 -19 -32 -2 -8 8 -12 9
-12 1 0 -6 -3 -18 -6 -27 -3 -9 -1 -16 6 -16 6 0 8 5 5 10 -7 12 -3 12 19 4
21 -8 10 -24 -15 -24 -21 0 -52 24 -43 33 3 3 -2 17 -11 31 -9 14 -13 31 -9
38 5 10 4 11 -7 1 -21 -20 -45 -15 -63 12 -31 47 -13 62 27 21 17 -17 28 -21
40 -14 11 6 25 3 44 -9 15 -10 24 -13 20 -6 -4 6 -1 14 5 16 7 3 3 6 -9 6 -13
1 -23 7 -23 16 0 10 -10 15 -32 15 -34 0 -29 15 7 22 23 5 48 -10 39 -23z
m4701 -110 c121 -22 267 -49 325 -59 206 -37 210 -38 210 -68 0 -15 3 -49 6
-77 5 -46 4 -51 -18 -60 -27 -12 -34 -42 -18 -90 14 -43 27 -44 100 -7 62 30
78 46 86 82 5 23 52 87 58 79 5 -8 36 -255 36 -290 0 -44 36 -168 56 -190 8
-8 14 -33 14 -54 0 -21 7 -62 17 -91 19 -61 17 -75 -91 -717 -36 -214 -66
-393 -66 -399 0 -8 -51 -9 -174 -5 l-174 6 -8 -42 c-4 -23 -7 -51 -5 -63 1
-11 -7 -60 -18 -109 -11 -49 -17 -93 -14 -98 3 -4 -3 -51 -13 -102 -10 -52
-14 -98 -10 -102 7 -7 355 -31 474 -32 29 -1 51 -5 48 -9 -3 -5 -38 -7 -78 -5
-385 19 -580 31 -584 36 -4 3 3 50 15 103 15 69 18 99 11 104 -8 5 -5 32 9 92
12 47 21 101 21 119 0 19 4 51 9 72 7 30 5 52 -9 95 -20 61 -49 92 -84 92 -18
0 -16 3 12 20 61 37 66 107 10 129 -49 19 -91 -49 -69 -111 10 -29 10 -29 -22
-23 -45 10 -67 23 -67 41 0 27 -30 74 -44 68 -7 -3 -25 -26 -39 -52 -14 -26
-39 -57 -55 -69 -17 -12 -51 -49 -77 -83 l-48 -60 -73 0 c-40 0 -75 4 -78 8
-3 5 1 92 9 193 8 101 26 342 40 534 14 193 34 458 45 590 10 132 24 319 30
415 6 96 13 186 16 199 5 23 4 23 -38 17 -28 -5 -40 -4 -33 3 12 12 71 20 105
14 14 -3 124 -23 245 -44z m1615 -104 c15 -13 20 -13 49 1 26 13 38 14 57 5
33 -15 24 -27 -27 -35 -46 -7 -86 -30 -70 -40 5 -4 24 -32 42 -64 42 -74 110
-162 126 -162 15 0 47 -64 41 -82 -3 -8 -14 2 -28 23 -22 33 -26 35 -51 25
-35 -13 -51 1 -24 20 18 14 18 15 -15 44 -19 16 -40 29 -47 30 -7 0 -10 7 -7
15 4 10 0 15 -13 15 -11 0 -23 3 -27 7 -13 13 -36 11 -36 -3 0 -8 6 -11 15 -8
8 4 15 3 15 -1 0 -10 -27 -35 -32 -30 -2 3 -19 1 -36 -4 -25 -8 -32 -7 -32 5
0 8 7 14 15 14 28 0 16 35 -16 47 -25 10 -29 15 -21 30 12 21 4 74 -12 86 -6
5 0 5 13 2 19 -6 23 -4 18 8 -6 17 16 41 53 56 33 13 31 13 50 -4z m4447 -164
c10 -11 27 -21 38 -24 11 -2 2 -3 -20 0 -37 4 -44 -8 -7 -13 9 -2 31 -5 47 -8
17 -3 37 -1 45 5 13 9 12 10 -2 5 -10 -3 -20 -1 -23 4 -7 11 93 18 115 8 75
-33 119 -45 128 -36 15 15 19 -22 32 -317 26 -589 35 -708 52 -718 13 -8 14
-16 6 -40 -15 -41 3 -77 34 -70 13 3 31 13 41 21 22 19 27 14 30 -33 2 -33 -1
-39 -21 -44 -13 -3 -24 -10 -24 -16 0 -5 -8 -21 -17 -34 -12 -18 -12 -26 -3
-29 6 -2 12 -11 12 -20 0 -14 -2 -14 -9 -3 -5 8 -15 12 -23 9 -10 -4 -14 3
-13 25 0 17 -5 32 -11 34 -11 4 -10 -149 1 -168 4 -5 24 -9 47 -9 40 0 40 1
35 30 -5 22 -3 28 7 24 8 -3 17 -1 21 5 3 6 17 11 30 11 13 0 27 5 30 10 11
17 21 11 23 -15 1 -14 -3 -25 -8 -25 -17 0 -33 -41 -21 -53 13 -13 15 -57 2
-57 -5 0 -12 8 -14 18 -3 12 -5 10 -6 -7 -1 -17 -5 -21 -17 -17 -11 4 -18 -1
-21 -15 -5 -19 -10 -20 -92 -14 -47 4 -124 13 -171 20 -101 16 -184 25 -288
31 -42 2 -79 7 -83 11 -4 5 -9 32 -11 61 l-3 53 61 -7 c42 -4 64 -2 69 5 7 12
-6 525 -26 1058 -10 261 -10 295 4 316 12 18 13 27 4 36 -6 6 -8 11 -4 11 3 0
14 -9 24 -19z m-4068 -42 c11 -25 13 -64 8 -178 -7 -178 -30 -319 -62 -386
-13 -27 -32 -79 -42 -114 l-17 -65 -8 35 c-5 18 -11 45 -14 59 -3 14 -12 33
-21 42 -14 16 -13 17 13 12 24 -3 26 -2 12 6 -10 6 -18 23 -18 37 0 21 -2 24
-15 13 -12 -10 -15 -10 -15 3 0 9 9 19 20 22 11 4 17 11 14 17 -4 6 -10 5 -15
-3 -6 -10 -9 -5 -9 16 0 20 3 26 9 17 6 -10 10 -6 14 15 3 15 1 32 -4 37 -12
13 -12 79 0 91 5 6 13 35 19 65 6 30 18 82 26 115 9 33 16 74 16 92 0 17 5 35
10 38 6 3 10 1 10 -4 0 -21 15 -11 28 19 17 38 24 38 41 -1z m-305 -128 c22
-23 27 -36 22 -55 -6 -24 -4 -26 25 -26 18 0 38 8 46 18 13 15 14 15 9 0 -3
-10 4 -22 20 -32 13 -9 24 -23 24 -32 0 -13 -3 -13 -19 -2 -11 8 -37 12 -66
10 l-47 -4 27 -28 c29 -31 20 -50 -11 -22 -165 147 -180 164 -160 181 11 9 18
8 29 -4 15 -14 17 -14 27 5 15 28 42 25 74 -9z m-221 -53 c14 -60 18 -217 7
-273 -6 -33 -13 -115 -15 -182 -3 -98 -7 -129 -24 -162 -24 -47 -35 -46 -74 8
-20 30 -36 41 -65 46 -42 8 -114 45 -119 61 -7 21 25 23 76 3 55 -20 87 -24
95 -11 6 10 -15 74 -31 93 -6 8 -19 30 -28 49 -10 19 -25 41 -34 47 -13 10
-13 14 -3 21 13 9 37 49 66 110 9 19 27 47 41 64 14 16 25 36 25 44 0 8 10 14
25 14 27 0 32 18 14 52 -9 16 -8 23 2 29 23 14 37 10 42 -13z m-3948 -113 c83
-12 143 -23 135 -24 -37 -3 -281 -32 -332 -39 -32 -5 -58 -5 -58 -1 0 4 10 9
23 11 18 2 23 10 25 47 3 41 4 43 30 36 15 -3 95 -17 177 -30z m5205 -45 c-12
-8 -9 -10 13 -10 15 0 27 -6 27 -12 0 -10 3 -9 9 1 5 7 14 10 20 7 6 -4 11 -2
11 5 0 8 4 8 15 -1 17 -14 20 -46 5 -55 -5 -3 -10 0 -10 9 0 8 -6 16 -12 18
-14 5 -38 -15 -38 -32 0 -6 -7 -13 -15 -16 -8 -4 -12 -10 -9 -15 7 -13 44 -11
44 2 0 6 7 3 16 -5 8 -9 21 -16 27 -16 7 0 6 4 -2 9 -12 8 -13 12 -2 25 10 12
17 13 27 5 9 -7 18 -7 33 0 25 14 42 14 19 0 -10 -5 -18 -19 -18 -29 0 -11 -5
-17 -12 -15 -8 3 -14 -5 -15 -21 0 -16 2 -22 7 -15 5 9 9 6 13 -8 4 -18 2 -20
-18 -15 -12 3 -26 1 -29 -5 -9 -14 -26 -14 -26 -1 0 6 7 10 16 10 8 0 12 5 9
10 -4 6 -16 3 -32 -10 -26 -20 -92 -27 -139 -14 -19 5 -21 11 -18 52 3 25 10
50 17 54 9 6 9 8 0 8 -8 0 -13 13 -13 29 0 28 17 43 43 37 6 -1 9 -1 5 1 -18
10 -6 23 20 23 21 0 24 -2 12 -10z m-1290 -715 c7 -44 23 -123 36 -175 13 -52
24 -103 24 -112 0 -10 5 -18 11 -18 8 0 8 -4 1 -12 -6 -8 -12 -112 -15 -248
-5 -267 -12 -305 -58 -315 -17 -4 -35 -2 -44 5 -9 8 -15 8 -20 0 -3 -6 -10 -8
-15 -5 -4 3 -10 -2 -14 -10 -3 -8 -15 -15 -26 -15 -13 0 -20 -7 -20 -19 0 -12
-17 -29 -47 -47 -27 -15 -71 -45 -99 -66 -28 -21 -60 -38 -72 -38 -11 0 -23
-4 -26 -8 -6 -10 -101 5 -135 21 -25 12 -111 110 -111 126 0 16 39 19 57 5 10
-7 33 -14 51 -14 44 0 115 -37 108 -56 -8 -21 11 -17 47 10 18 13 48 31 67 39
39 18 70 43 86 72 6 11 25 24 42 30 24 7 32 15 32 33 0 14 17 41 45 69 72 73
61 97 -50 106 -79 6 -125 26 -153 64 -11 15 -31 27 -46 29 -60 6 -99 53 -110
132 -7 53 17 59 35 7 10 -28 21 -37 58 -50 51 -17 97 -20 106 -5 3 5 -1 23
-10 39 -20 40 -19 43 8 36 21 -6 21 -5 2 6 -29 17 -45 40 -45 65 0 12 -9 33
-21 48 -11 14 -19 34 -16 44 4 15 5 15 13 -3 5 -11 16 -21 24 -21 37 -3 56
-10 70 -25 16 -17 40 -15 40 3 0 6 -8 17 -17 24 -12 9 -14 16 -8 21 20 15 50
68 50 88 0 13 8 21 23 23 22 3 30 26 12 37 -18 11 -10 23 16 23 17 0 24 -5 20
-14 -6 -16 20 -19 29 -4 3 6 2 10 -3 10 -4 0 -8 22 -8 50 1 35 5 50 14 50 8 0
19 13 25 30 6 16 14 26 18 22 3 -4 12 -43 19 -87z m-3874 -147 c4 -6 -2 -8
-14 -4 -19 7 -20 3 -18 -101 3 -149 -10 -162 -87 -88 -63 60 -87 102 -87 151
l0 41 83 9 c87 10 113 8 123 -8z m-420 -354 c-3 -9 -6 -22 -6 -30 0 -10 -6
-11 -25 -4 -14 5 -26 6 -26 2 -1 -4 -2 -35 -3 -69 -1 -44 3 -63 12 -63 22 0
14 -56 -10 -68 -18 -8 -19 -11 -5 -11 9 -1 17 -8 17 -16 0 -8 6 -15 14 -15 7
0 19 -7 27 -16 11 -14 -1 -15 -119 -12 -97 2 -132 6 -132 16 0 8 16 12 45 12
l45 0 1 38 c1 62 8 104 24 135 19 37 20 34 -12 42 -24 6 -26 8 -12 18 9 7 19
22 23 35 7 20 14 22 78 22 60 0 69 -2 64 -16z m9418 -160 c9 -3 16 -12 16 -20
0 -10 6 -8 20 6 15 15 25 17 47 10 15 -4 44 -11 63 -15 45 -7 72 -31 99 -83
25 -49 26 -62 5 -62 -9 0 -12 5 -8 12 4 6 3 8 -3 5 -13 -8 -172 11 -195 24
-24 12 -46 11 -50 -2 -3 -9 -9 -9 -25 0 -28 14 -76 14 -91 -1 -16 -16 -28 -2
-13 16 9 11 9 15 -1 19 -18 8 12 29 31 22 8 -3 11 0 8 9 -9 24 5 27 21 5 12
-17 16 -18 23 -8 7 11 9 11 9 1 0 -7 5 -10 11 -6 7 4 9 21 6 40 -6 34 -1 39
27 28z m-10690 -164 c100 -6 233 -15 296 -20 63 -5 221 -14 350 -20 129 -6
325 -18 436 -25 224 -17 315 -19 313 -7 -1 4 -1 17 0 30 1 20 6 23 34 20 24
-2 32 -8 32 -23 0 -11 -4 -26 -9 -32 -4 -7 -17 -48 -27 -90 l-19 -78 6 65 c3
36 8 76 10 90 l6 25 -19 -23 c-18 -22 -19 -22 -158 -12 -77 5 -223 14 -325 20
-102 6 -261 15 -355 21 -93 5 -318 18 -500 29 -181 11 -350 23 -375 27 l-45 8
70 5 c39 4 76 5 84 3 8 -2 95 -8 195 -13z m11358 -14 c13 -18 9 -32 -17 -62
-27 -32 -30 -40 -15 -49 16 -10 12 -55 -14 -135 -26 -82 -45 -96 -91 -66 -13
9 -36 16 -50 16 -36 0 -31 17 18 64 37 35 48 55 71 131 16 50 35 98 43 107 15
17 42 14 55 -6z m-232 -56 c6 -11 17 -20 25 -20 28 0 16 -48 -20 -85 -20 -19
-41 -35 -47 -35 -7 0 -22 -10 -35 -22 -13 -12 -23 -17 -23 -12 -1 5 -5 40 -10
79 -10 83 -1 110 36 101 14 -4 24 -2 24 4 0 18 39 10 50 -10z m314 -170 c11
-81 24 -190 21 -190 -14 2 -120 51 -127 58 -10 10 49 214 64 220 5 2 8 11 8
20 0 10 3 12 9 7 6 -6 17 -57 25 -115z m-11606 -97 c21 -5 23 -10 18 -36 -3
-16 -6 -39 -6 -51 0 -44 -12 -49 -100 -41 l-83 7 7 60 c3 33 9 64 12 70 6 10
97 5 152 -9z m1125 -123 c14 -13 -3 -141 -20 -147 -8 -3 -60 0 -114 7 -111 14
-105 6 -92 109 l6 53 106 -7 c58 -4 110 -10 114 -15z m3810 -27 c73 -13 -12
-18 -335 -18 -364 0 -395 9 -83 24 172 8 358 6 418 -6z m-2444 -118 c82 -10
130 -20 141 -30 12 -11 20 -13 25 -6 3 6 15 11 25 11 18 0 19 -6 13 -82 -3
-46 -9 -87 -13 -91 -4 -5 -24 -5 -44 -2 -31 6 -36 11 -36 36 0 15 -4 31 -10
34 -5 3 -10 -2 -10 -13 0 -10 -8 -26 -18 -35 -16 -15 -28 -15 -118 -4 l-99 13
3 49 c2 52 12 135 15 135 1 0 58 -7 126 -15z m505 -81 l45 -6 -3 -45 c-2 -43
-16 -63 -43 -63 -7 0 -13 -7 -13 -15 0 -8 -4 -15 -10 -15 -5 0 -10 6 -10 14 0
23 -38 27 -43 4 -4 -14 -12 -18 -31 -15 -14 1 -28 5 -31 8 -3 4 -2 39 1 78 l7
73 44 -6 c23 -3 63 -9 87 -12z m-3231 -124 c-6 -56 3 -63 40 -30 18 18 20 24
10 50 -13 34 1 41 23 13 13 -17 15 -17 25 0 5 9 22 17 38 17 24 0 30 -6 40
-40 6 -22 16 -40 20 -40 12 0 21 26 21 56 0 13 5 24 10 24 17 0 11 -40 -12
-84 -34 -63 -58 -86 -90 -86 -30 0 -40 20 -10 20 25 1 52 24 52 46 0 37 -21
94 -34 94 -8 0 -20 -10 -29 -23 -13 -20 -13 -27 -1 -48 18 -33 17 -39 -6 -39
-11 0 -20 7 -20 15 0 8 -5 15 -10 15 -6 0 -13 -7 -16 -15 -8 -19 -84 -21 -85
-2 0 10 -2 10 -6 0 -8 -21 -51 -15 -58 7 -15 47 22 100 71 100 l33 0 -6 -50z
m4884 -51 c24 -10 47 -19 52 -19 5 0 14 -7 21 -15 11 -13 15 -13 33 0 30 21
37 19 37 -10 0 -20 5 -25 25 -25 14 0 25 4 25 9 0 22 34 41 73 41 69 0 70 -3
62 -124 -4 -58 -10 -108 -14 -110 -7 -5 -149 15 -241 34 -30 6 -92 13 -137 15
-46 2 -88 7 -94 10 -8 5 -9 38 -4 109 4 55 9 103 10 106 7 12 113 -3 152 -21z
m1603 -99 c67 -7 119 -17 125 -24 6 -7 35 -16 65 -20 30 -3 98 -13 150 -21 52
-8 178 -24 280 -35 102 -12 249 -30 328 -41 134 -19 145 -19 169 -4 22 15 35
15 112 5 47 -7 91 -16 96 -20 6 -4 60 -11 120 -15 61 -4 116 -12 123 -18 19
-15 295 -29 328 -17 31 12 29 13 38 -23 l7 -27 -33 13 c-22 9 -90 14 -202 15
-93 1 -212 9 -265 16 -53 8 -125 18 -161 22 -55 7 -60 9 -35 15 24 5 18 7 -27
8 -31 0 -60 5 -63 11 -4 6 -13 5 -24 -2 -14 -8 -87 -3 -317 26 -164 20 -411
50 -548 67 -137 16 -253 32 -258 35 -6 4 -42 9 -82 11 -39 3 -98 8 -131 12
-55 7 -58 9 -35 19 26 12 51 11 240 -8z m-931 -6 c2 -2 4 -18 3 -36 -1 -23 2
-28 8 -18 6 8 10 25 10 38 0 12 5 22 10 22 6 0 10 -11 10 -24 0 -13 3 -38 7
-56 5 -28 4 -32 -10 -27 -9 3 -19 2 -22 -2 -2 -5 7 -11 21 -14 l26 -5 -6 59
c-7 55 -6 58 14 56 20 -1 21 -5 15 -45 -4 -25 -9 -51 -12 -58 -4 -10 3 -14 22
-14 15 0 24 4 20 10 -4 6 -11 8 -16 5 -13 -9 -10 34 6 75 l13 35 7 -43 c5 -28
11 -39 16 -31 4 7 5 26 2 41 -4 23 -3 27 10 22 22 -8 20 -111 -3 -118 -9 -2
-6 -4 8 -5 18 -1 22 4 23 32 1 17 5 46 9 62 6 23 8 15 9 -36 l1 -67 -35 -6
c-19 -4 -39 -14 -44 -24 -8 -15 -11 -15 -28 4 -10 12 -37 27 -60 34 -26 8 -43
19 -44 29 0 10 -2 12 -6 4 -2 -7 -16 -13 -29 -13 -38 0 -28 -16 13 -18 45 -3
55 -9 51 -30 -3 -13 -12 -16 -43 -13 -43 3 -55 13 -55 49 0 15 6 22 20 22 15
0 20 6 19 28 0 26 -1 26 -9 5 -15 -36 -20 -27 -20 33 l0 56 33 -7 c17 -4 34
-9 36 -11z m-5590 -86 c-5 -18 -9 -39 -9 -45 0 -20 24 -15 38 7 8 13 23 20 41
20 35 0 46 -13 32 -39 -9 -16 -6 -20 29 -29 36 -9 40 -8 46 12 11 36 35 56 70
56 31 0 33 -2 28 -27 -10 -53 -9 -68 6 -68 10 0 19 21 29 63 13 55 13 65 0 73
-10 6 -6 9 17 9 28 0 31 -2 26 -26 -3 -18 -1 -25 6 -20 40 25 58 -51 22 -97
-22 -28 -20 -31 23 -41 26 -6 28 -10 25 -44 -2 -35 -1 -37 26 -34 16 2 32 -2
36 -9 6 -9 33 -9 116 0 79 8 120 8 148 0 59 -16 28 -26 -88 -28 -55 -1 -148
-8 -205 -16 -58 -8 -108 -15 -113 -15 -4 0 -8 -7 -8 -15 0 -8 8 -15 17 -15 16
0 16 -1 1 -16 -14 -15 -19 -15 -31 -3 -7 8 -12 20 -9 27 7 21 -24 13 -50 -13
-14 -14 -32 -23 -39 -20 -8 3 -18 -4 -24 -17 -6 -13 -19 -23 -30 -23 -13 0
-19 -6 -17 -17 4 -29 -21 -26 -145 16 -121 40 -169 66 -127 66 16 1 16 3 -6
15 -14 8 -36 14 -49 15 -23 0 -24 1 -7 13 17 13 16 14 -13 27 -19 8 -50 11
-79 7 -53 -6 -102 1 -102 15 0 5 15 6 35 2 21 -4 35 -2 35 4 0 5 -23 12 -50
16 -28 4 -57 9 -65 12 -23 9 -7 24 26 24 22 0 29 5 29 20 0 16 -7 20 -30 20
-16 0 -30 3 -30 6 0 4 20 29 45 55 25 26 45 55 45 63 0 25 -20 29 -42 9 -20
-18 -20 -18 -17 2 3 15 13 21 42 23 35 3 37 2 37 -26 0 -22 -11 -39 -40 -66
-37 -33 -41 -42 -15 -36 6 1 25 2 43 2 29 0 32 3 32 32 0 44 34 96 63 96 28 0
47 -17 47 -43 0 -13 5 -17 18 -13 9 2 43 7 75 11 59 7 85 28 56 46 -10 6 -7 9
13 9 25 0 26 -2 17 -32z"/>
<path d="M4250 5583 c0 -15 -2 -16 -10 -3 -8 12 -10 11 -10 -7 0 -12 8 -27 18
-32 9 -6 12 -11 7 -11 -6 0 -16 5 -23 12 -9 9 -12 8 -12 -6 0 -9 -4 -14 -10
-11 -16 10 -52 -32 -52 -59 0 -15 -6 -26 -14 -26 -18 0 -26 -17 -19 -41 5 -13
12 -18 25 -14 19 6 35 -19 24 -37 -5 -7 2 -9 20 -6 18 4 33 -2 52 -18 29 -28
44 -30 44 -8 0 12 6 15 25 10 14 -4 25 -2 25 4 0 5 9 10 20 10 25 0 26 -17 3
-23 -15 -3 -13 -6 7 -14 14 -6 27 -7 28 -2 2 5 10 9 18 9 8 0 14 5 14 11 0 6
10 23 22 37 11 15 18 19 15 10 -4 -12 3 -24 23 -38 25 -18 30 -19 30 -6 0 9
-6 16 -13 16 -15 0 -20 37 -6 45 16 11 10 55 -7 55 -9 0 -27 12 -40 26 -18 19
-22 32 -17 52 5 24 4 25 -9 14 -13 -11 -17 -9 -22 13 -4 16 -11 23 -18 19 -9
-6 -9 -9 0 -12 21 -7 14 -31 -8 -25 -14 4 -20 0 -20 -11 0 -20 -7 -20 -27 -1
-8 9 -12 22 -9 31 3 8 2 12 -4 9 -6 -3 -10 1 -10 11 0 11 -6 15 -20 11 -13 -3
-20 0 -20 9 0 8 -4 14 -10 14 -5 0 -10 -8 -10 -17z"/>
<path d="M123 4259 c-4 -14 -11 -18 -22 -13 -9 3 -24 7 -33 8 -10 1 -21 5 -24
9 -4 4 -16 -7 -26 -23 -25 -43 -26 -160 0 -160 16 -1 16 -1 0 -11 -11 -6 -18
-22 -18 -39 0 -25 4 -30 25 -30 14 0 25 5 25 10 0 6 -4 10 -10 10 -5 0 -10 9
-10 20 0 23 15 27 24 5 7 -19 45 -19 69 -1 16 13 15 15 -20 24 -34 9 -36 11
-15 17 12 4 22 11 22 15 0 12 49 5 62 -8 7 -7 23 -11 38 -11 14 1 18 3 10 5
-21 6 -42 52 -26 57 6 3 -1 10 -16 16 -15 6 -34 8 -42 5 -8 -3 -17 -1 -20 5
-4 6 4 13 18 17 34 8 52 30 31 38 -8 3 -15 10 -15 16 0 7 6 8 19 0 11 -5 28
-10 38 -10 16 1 16 3 -4 19 -12 10 -19 21 -16 25 4 3 -8 6 -26 6 -25 0 -34 -5
-38 -21z"/>
<path d="M224 3714 c-19 -19 -34 -29 -34 -23 0 8 -5 7 -15 -1 -12 -10 -18 -10
-30 0 -12 10 -15 9 -15 -6 0 -13 -6 -7 -18 16 -21 38 -42 51 -42 25 0 -10 4
-13 13 -8 6 4 4 -5 -6 -20 -18 -27 -15 -53 4 -41 5 3 21 -1 34 -10 30 -20 42
-20 60 -2 9 8 28 12 52 9 54 -6 67 -23 18 -23 -40 0 -87 -18 -55 -21 8 -1 21
-1 29 0 7 2 11 -1 8 -6 -3 -5 12 -9 34 -9 34 -1 39 1 34 17 -4 13 -1 19 9 19
9 0 16 5 16 11 0 6 9 8 20 4 15 -5 20 -2 20 11 0 14 3 15 12 6 28 -28 32 -4
12 71 -6 21 -44 23 -44 2 0 -8 -7 -15 -15 -15 -7 0 -18 -7 -23 -16 -9 -16 -11
-16 -32 -1 -21 14 -21 17 -7 23 9 3 24 4 32 1 8 -4 17 -2 20 2 2 5 -9 11 -26
13 -25 4 -37 -2 -65 -28z"/>
<path d="M13391 2272 c-7 -13 -6 -23 2 -31 9 -9 7 -13 -10 -17 -12 -4 -29 -17
-38 -30 -13 -21 -18 -22 -36 -11 -13 8 -22 9 -27 2 -15 -21 -67 -40 -109 -40
-31 0 -43 -4 -43 -15 0 -12 -2 -12 -9 -1 -7 11 -13 11 -32 0 -26 -14 -67 -13
-85 2 -8 6 -14 4 -18 -7 -7 -19 3 -41 13 -25 4 5 17 8 29 4 17 -4 22 -13 22
-40 0 -31 2 -35 22 -30 12 4 29 1 37 -6 8 -7 12 -7 9 -2 -4 6 -3 17 2 25 7 12
13 11 33 -8 13 -12 28 -22 33 -22 6 0 25 -11 44 -25 34 -25 35 -25 42 -5 4 11
16 20 28 20 38 0 100 -25 101 -40 0 -10 2 -11 6 -2 2 6 9 10 14 6 5 -3 9 1 9
8 0 8 5 6 11 -4 10 -19 39 -25 39 -9 0 5 9 7 20 4 11 -3 20 0 20 6 0 7 8 8 24
1 35 -13 63 -2 74 29 11 31 6 51 -13 51 -8 0 -17 9 -20 20 -3 11 -11 20 -16
20 -5 0 -2 16 6 36 19 47 20 47 -11 41 -31 -6 -64 18 -64 46 0 16 -3 17 -15 7
-11 -9 -15 -9 -15 -1 0 6 7 14 15 17 23 9 6 26 -20 20 -14 -4 -28 0 -35 9 -16
20 -27 19 -39 -3z"/>
<path d="M12657 2167 c-14 -23 -21 -27 -29 -19 -18 18 -24 15 -39 -20 -7 -18
-17 -36 -22 -39 -16 -11 2 -29 28 -29 13 0 27 -4 30 -10 3 -5 15 -10 26 -10
11 0 22 -7 25 -15 9 -22 27 -18 54 10 23 24 23 25 6 77 -9 29 -27 60 -39 69
-22 16 -24 16 -40 -14z"/>
<path d="M14428 2015 c-3 -16 -9 -18 -128 -29 -14 -2 -32 -4 -40 -4 -8 -1 1
-13 23 -27 28 -20 37 -32 37 -55 0 -15 3 -37 7 -47 3 -10 3 -15 -2 -11 -4 4
-14 3 -21 -2 -9 -9 -9 -22 1 -68 8 -31 12 -58 11 -60 -2 -1 -23 9 -48 23 l-45
25 3 -45 c3 -28 0 -45 -7 -45 -6 0 -8 8 -4 20 4 12 2 20 -5 20 -7 0 -14 -8
-17 -18 -7 -28 -79 -29 -93 -2 -6 11 -16 20 -23 20 -7 0 -26 13 -43 28 -34 33
-126 92 -142 92 -7 0 -12 4 -12 9 0 5 -12 12 -27 15 -31 8 -46 -9 -32 -36 17
-31 0 -56 -64 -95 -34 -21 -85 -62 -114 -91 -29 -30 -57 -51 -63 -47 -6 4 -17
1 -25 -5 -11 -9 -15 -9 -15 -1 0 6 -13 11 -30 11 -23 0 -30 5 -30 19 0 14 -5
18 -20 14 -11 -3 -20 -8 -20 -12 0 -4 -8 -7 -17 -7 -10 0 -37 -4 -60 -8 -34
-6 -43 -5 -43 7 0 16 31 47 48 47 7 0 12 4 12 10 0 12 55 41 63 33 3 -3 23 9
44 26 36 30 38 30 45 11 9 -23 48 -27 48 -5 0 8 5 15 10 15 6 0 10 5 10 11 0
7 -10 9 -24 5 -14 -3 -28 -2 -31 4 -4 6 6 10 22 10 16 0 34 5 41 12 9 9 12 7
12 -10 0 -13 6 -22 15 -22 8 0 15 4 15 8 0 8 47 31 94 47 18 5 17 7 -9 21 -25
13 -30 13 -44 0 -10 -9 -22 -12 -30 -7 -8 5 -25 6 -40 2 -43 -11 -71 -2 -71
23 0 12 6 28 12 34 10 10 7 17 -17 36 -27 22 -30 22 -68 8 -21 -9 -46 -26 -54
-39 -8 -13 -22 -23 -31 -23 -8 0 -23 -6 -31 -13 -9 -8 -31 -19 -49 -27 -39
-15 -53 -6 -82 54 -11 23 -18 31 -16 19 6 -31 -6 -35 -49 -17 -20 8 -45 12
-56 9 -15 -5 -19 -2 -19 14 0 12 -5 21 -10 21 -6 0 -8 -11 -4 -25 6 -26 6 -26
-43 -9 -39 14 -88 13 -110 -2 -18 -11 -23 -24 -23 -60 0 -25 5 -54 10 -65 7
-13 7 -19 0 -20 -25 -3 -29 -4 -35 -10 -3 -4 3 -22 15 -41 18 -31 18 -37 5
-54 -20 -26 -19 -44 4 -44 10 0 24 -7 32 -16 12 -14 14 -14 27 3 14 17 14 17
8 0 -3 -10 -6 -23 -6 -28 0 -4 -6 -6 -14 -3 -11 4 -13 0 -9 -16 3 -12 13 -24
22 -28 24 -8 26 -16 23 -70 -4 -51 -4 -51 -40 -54 -34 -3 -37 -6 -43 -41 -5
-33 -3 -40 25 -61 18 -13 40 -25 50 -27 10 -2 24 -13 30 -24 6 -11 15 -23 19
-26 5 -3 39 -34 75 -68 37 -34 75 -68 85 -76 22 -19 22 -36 0 -28 -14 5 -15 1
-11 -34 6 -42 -11 -74 -44 -86 -15 -5 -18 -1 -18 23 0 31 -20 43 -21 13 0 -15
-2 -15 -9 2 -4 11 -14 41 -20 68 -13 47 -13 47 -55 47 -24 0 -78 -7 -121 -15
-44 -8 -144 -22 -223 -30 -80 -8 -148 -20 -152 -26 -4 -7 -12 -38 -19 -69
l-12 -58 -79 -23 c-59 -18 -78 -28 -74 -39 2 -8 11 -75 20 -149 8 -74 17 -137
20 -139 5 -6 7 1 26 83 12 50 18 61 37 63 19 3 22 -1 22 -30 0 -30 19 -129 36
-185 5 -18 2 -23 -13 -23 -21 0 -22 -19 -9 -155 3 -27 5 -66 6 -85 0 -29 2
-32 11 -18 9 16 86 58 105 58 4 0 16 -8 27 -18 15 -13 21 -14 24 -4 6 16 32
42 42 42 10 0 21 -74 21 -135 l0 -43 162 -18 c93 -11 167 -24 174 -31 7 -7 20
-13 28 -13 13 0 15 11 9 78 -4 50 -11 81 -21 88 -23 17 2 27 40 15 110 -33
305 -117 361 -155 l38 -26 212 3 c129 1 203 6 190 11 -32 12 -29 25 5 21 18
-2 27 -8 26 -19 -2 -15 11 -16 115 -14 l116 3 3 28 c3 27 16 35 27 17 15 -25
35 -9 35 28 0 20 5 55 10 76 5 22 5 47 1 55 -5 9 -11 32 -15 51 -4 26 -3 31 5
20 8 -11 9 -3 6 32 -2 26 -1 46 3 43 11 -7 21 -67 26 -149 2 -38 6 -71 9 -74
15 -16 21 22 15 93 -15 157 -19 261 -11 230 5 -16 9 -52 10 -78 0 -27 5 -46 9
-43 4 2 3 43 -2 90 -7 70 -12 84 -23 75 -10 -9 -13 -7 -13 10 0 12 5 19 10 16
6 -4 10 9 10 33 0 27 4 39 15 39 8 0 12 -4 9 -9 -3 -4 0 -8 5 -8 6 0 12 -17
12 -37 1 -21 3 -30 6 -20 6 23 19 22 37 -4 l14 -21 4 23 c2 12 11 23 21 25 16
2 18 -2 11 -24 -10 -33 -6 -195 6 -202 4 -3 9 -14 11 -25 3 -11 12 -21 21 -23
12 -2 16 5 16 30 0 18 4 56 9 84 11 60 -5 104 -37 104 -11 0 -20 5 -20 10 0 6
5 10 11 10 7 0 9 18 7 48 -3 43 -1 47 20 50 17 3 22 8 17 20 -3 9 -9 31 -11
47 -5 29 -5 29 10 10 8 -11 19 -24 24 -30 4 -5 11 -18 15 -28 3 -9 11 -17 17
-17 6 0 10 8 9 17 -3 39 1 68 9 55 5 -7 14 19 22 67 7 44 16 84 19 89 10 15
61 24 61 10 0 -9 3 -9 12 0 18 18 31 14 25 -8 -3 -13 0 -20 9 -20 8 0 14 4 14
8 0 5 16 27 35 49 19 22 31 43 28 47 -3 3 -1 6 4 6 6 0 13 -6 15 -12 3 -7 13
-13 24 -13 12 0 20 -8 22 -22 3 -20 9 -23 53 -23 46 0 50 -2 47 -22 -2 -18
-13 -25 -58 -35 -45 -10 -56 -10 -63 2 -11 21 -65 16 -73 -7 -5 -17 -14 -19
-65 -16 -32 1 -59 0 -59 -4 0 -7 24 -12 43 -9 4 0 7 -4 7 -10 0 -6 -7 -9 -15
-5 -8 3 -15 1 -15 -4 0 -13 37 -13 45 0 3 6 13 10 21 10 8 0 12 -4 9 -10 -3
-5 -1 -10 4 -10 6 0 11 -9 11 -20 0 -13 -7 -20 -20 -20 -11 0 -20 5 -20 11 0
5 -4 7 -10 4 -17 -11 -11 -45 8 -46 10 0 6 -5 -11 -11 l-29 -10 28 -29 c15
-16 32 -29 37 -29 4 0 16 -7 25 -16 11 -12 17 -13 20 -5 3 9 11 8 28 -4 14 -9
43 -15 71 -14 27 1 62 -4 78 -11 17 -7 50 -14 75 -17 25 -3 47 -7 49 -9 2 -2
12 7 22 21 11 13 35 29 54 35 32 10 48 30 26 30 -13 0 -21 27 -14 46 4 11 13
14 29 10 30 -8 31 6 2 28 -26 19 -37 94 -16 107 8 5 6 12 -5 24 -19 18 -22 35
-7 35 6 0 10 -4 10 -9 0 -4 11 -20 25 -35 14 -15 25 -38 25 -52 0 -29 9 -30
62 -3 46 24 64 15 54 -25 -8 -32 -23 -34 -29 -3 -4 20 -4 21 -6 1 -1 -15 -12
-25 -41 -34 -38 -13 -56 -40 -26 -40 23 0 82 -42 105 -76 24 -34 27 -69 8 -77
-7 -2 -22 -23 -32 -45 -11 -23 -30 -46 -43 -51 -18 -9 -21 -16 -16 -38 7 -28
7 -28 -14 -9 -20 17 -22 17 -28 2 -4 -10 -2 -22 5 -29 18 -18 13 -43 -8 -43
-16 0 -17 3 -9 14 9 10 8 16 -3 23 -20 13 -29 11 -29 -6 0 -8 -4 -15 -10 -15
-5 0 -10 -9 -10 -21 0 -11 -4 -17 -10 -14 -6 4 -10 -5 -10 -19 0 -14 -4 -26
-10 -26 -5 0 -10 5 -10 10 0 6 -7 10 -15 10 -18 0 -19 23 -4 52 10 18 8 24
-12 40 -14 10 -33 16 -46 13 -15 -4 -25 1 -33 15 -18 33 -27 23 -35 -35 -7
-58 0 -99 16 -90 8 6 14 -30 10 -62 -1 -6 3 -14 9 -18 5 -3 10 -15 10 -26 0
-14 -4 -18 -12 -12 -7 4 -17 8 -23 8 -5 0 -29 4 -51 8 -40 8 -41 9 -39 45 2
20 6 45 10 56 6 13 4 17 -5 14 -7 -2 -14 -14 -15 -26 -2 -25 -15 -43 -16 -21
0 8 -2 45 -3 83 -2 56 -6 70 -20 72 -9 1 -14 -2 -11 -6 3 -5 1 -11 -5 -15 -5
-3 -10 3 -10 14 0 12 -7 21 -15 21 -8 0 -15 5 -15 11 0 5 4 8 9 5 11 -7 23 22
15 35 -3 5 -10 7 -15 4 -5 -4 -9 -1 -9 5 0 7 7 9 16 6 9 -3 18 -6 20 -6 2 0 4
-12 4 -27 0 -14 3 -24 6 -20 13 12 -7 97 -22 97 -8 0 -19 10 -24 23 -5 12 -10
19 -11 15 -3 -13 -8 -71 -10 -115 -2 -25 -8 -44 -16 -48 -10 -3 -12 -12 -7
-27 4 -13 8 -58 8 -101 l1 -78 -30 3 c-30 3 -30 4 -39 81 -8 70 -5 99 9 86 2
-3 8 -34 13 -69 8 -53 10 -58 11 -25 0 22 5 54 10 70 9 32 -2 75 -19 75 -5 0
-10 -9 -10 -20 0 -29 -17 -25 -29 8 -9 22 -10 11 -6 -53 3 -44 8 -100 12 -125
6 -43 5 -44 -11 -27 -10 10 -20 36 -23 58 -7 49 -43 77 -43 33 0 -26 -1 -26
-42 -20 -23 4 -50 14 -59 22 -10 9 -19 11 -23 6 -3 -6 -15 -8 -26 -5 -16 4
-24 -3 -39 -38 -11 -24 -20 -38 -20 -31 -2 23 -19 12 -24 -17 -11 -52 1 -71
43 -71 l39 0 6 54 c6 47 10 54 24 46 9 -4 28 -13 43 -18 24 -10 26 -15 22 -56
l-4 -44 70 -4 c38 -2 70 -2 70 0 0 1 -10 7 -22 12 -17 7 -10 8 27 4 28 -3 58
-8 68 -11 10 -2 20 2 23 11 8 21 22 20 20 -1 -1 -19 22 -23 222 -39 81 -6 92
-5 93 10 1 9 3 21 4 26 1 6 3 19 4 30 1 21 31 29 31 8 0 -6 6 -3 14 8 14 18
15 18 21 2 10 -27 23 -22 27 9 3 25 8 29 53 35 80 11 92 16 89 35 -4 33 -16
63 -25 63 -15 0 -10 37 6 50 10 8 13 21 8 38 -4 16 -1 29 9 36 8 6 17 19 21
28 3 10 13 18 22 18 9 0 18 12 22 30 4 23 11 30 29 30 20 0 24 5 24 31 0 31 0
31 45 26 25 -2 48 -7 52 -11 4 -4 8 -57 9 -119 1 -96 -2 -117 -17 -136 -10
-12 -24 -21 -31 -20 -7 1 -21 -1 -31 -6 -10 -4 -29 -3 -41 3 -24 11 -57 0 -37
-12 19 -12 13 -38 -8 -31 -13 4 -20 0 -24 -17 -8 -29 -5 -31 27 -18 35 13 56
13 56 -1 0 -6 8 -18 17 -27 16 -16 16 -16 9 3 -4 11 -8 22 -8 25 -2 21 5 27
27 22 14 -2 22 -8 19 -13 -4 -8 4 -11 26 -11 3 0 16 3 29 7 13 4 21 3 18 -2
-3 -5 -2 -27 3 -48 5 -22 8 -41 6 -42 -2 -2 -16 1 -31 7 -36 14 -42 7 -15 -17
11 -11 18 -26 15 -34 -3 -8 1 -23 8 -33 12 -16 35 -19 225 -24 l212 -5 0 457
c0 251 -4 456 -8 456 -4 0 -13 -5 -20 -12 -9 -9 -19 -7 -45 7 -31 16 -36 17
-63 2 -16 -8 -37 -18 -46 -21 -10 -3 -18 -14 -18 -25 0 -11 -7 -24 -16 -29
-25 -14 -9 -96 23 -117 19 -13 27 -14 39 -4 8 7 13 17 11 23 -4 11 -8 12 -47
15 -11 0 -20 7 -20 15 0 15 95 34 107 22 4 -3 -7 -7 -23 -7 -16 -1 -22 -3 -13
-6 12 -3 18 -20 22 -61 3 -31 4 -58 1 -61 -2 -3 -22 0 -44 6 -29 7 -40 7 -40
-1 0 -6 -12 1 -25 17 -13 15 -30 27 -37 27 -8 0 -25 8 -38 17 -14 10 -37 16
-52 14 -16 -1 -28 2 -28 7 0 5 -22 7 -50 4 -42 -4 -50 -2 -50 12 0 40 19 56
65 56 l45 0 0 38 c0 20 -9 48 -19 61 -17 22 -20 23 -34 9 -12 -11 -33 -15 -86
-13 -38 2 -74 6 -80 10 -6 3 -19 2 -28 -4 -16 -8 -14 -10 9 -16 15 -4 32 -4
37 0 6 3 11 2 11 -3 0 -14 -74 -26 -78 -13 -2 6 -13 11 -24 11 -14 0 -18 -5
-14 -15 4 -12 -3 -15 -34 -13 -31 1 -40 5 -40 19 0 10 -4 21 -10 24 -5 3 -10
-3 -10 -14 0 -27 -8 -26 -31 0 l-18 21 -29 -20 -29 -21 -12 49 c-15 57 -24 67
-71 72 -41 4 -48 16 -49 83 0 57 18 90 52 91 71 2 79 4 74 18 -5 12 5 14 49
13 31 -2 58 1 60 5 3 4 16 8 30 8 13 0 24 4 24 9 0 11 -52 21 -94 20 l-31 -2
35 -7 35 -7 -37 -2 c-21 0 -38 3 -38 9 0 5 -16 12 -35 16 -19 3 -38 10 -41 15
-3 5 -20 7 -37 4 -46 -9 -77 25 -73 80 2 21 8 41 13 42 6 2 2 27 -8 57 -24 71
-43 236 -29 250 5 5 10 18 10 28 0 15 5 17 25 12 14 -3 31 -1 39 5 8 7 18 11
22 10 25 -4 34 3 32 29 -1 15 -5 32 -10 38 -5 7 -2 14 8 18 15 6 15 8 1 24 -9
9 -20 30 -26 45 -10 27 -14 28 -50 22 -34 -6 -41 -3 -60 21 -20 26 -24 25 -22
-6 1 -22 -26 -53 -39 -45 -8 5 -8 11 1 21 9 11 7 15 -6 20 -12 5 -23 0 -34
-14 -15 -20 -18 -21 -51 -6 -19 9 -44 20 -55 24 -27 11 -146 34 -167 33 -10
-1 -20 3 -24 8 -4 6 -11 6 -19 -1 -17 -14 -47 0 -69 31 -12 18 -15 19 -18 4z
m-513 -295 c4 -6 11 -8 16 -5 5 4 26 -10 47 -30 20 -20 49 -43 65 -53 21 -13
27 -24 28 -52 0 -31 1 -33 10 -12 10 27 17 25 90 -38 133 -113 167 -171 122
-205 -18 -14 2 -89 22 -82 17 7 -28 -74 -55 -98 -11 -10 -20 -27 -20 -38 0
-17 -5 -18 -37 -12 -21 4 -42 12 -46 18 -6 9 -10 9 -14 0 -2 -7 -20 -13 -38
-13 -66 0 -44 -28 25 -31 19 -1 15 -3 -14 -10 -22 -5 -57 -5 -85 0 -25 5 -38
9 -28 10 9 0 17 5 17 10 0 12 -25 21 -56 21 -14 0 -22 4 -19 10 4 6 -7 10 -27
10 -45 0 -67 15 -50 32 9 9 47 13 120 14 146 2 142 1 135 20 -5 12 -15 15 -44
11 -30 -4 -42 0 -59 18 -16 17 -29 21 -59 18 -28 -3 -40 0 -44 11 -4 10 -18
15 -42 14 -20 -1 -41 4 -47 10 -6 6 -23 9 -38 6 -22 -5 -30 1 -55 36 -31 45
-35 78 -20 173 5 34 4 56 -5 73 -12 21 -11 26 5 38 11 8 24 12 30 10 6 -3 25
2 41 11 37 19 42 19 47 -2 3 -11 5 -7 6 10 0 15 6 27 12 27 5 0 9 8 8 18 -3
36 1 43 21 37 15 -5 18 -3 14 9 -7 18 11 22 21 6z m764 -11 c7 -22 36 -31 104
-33 15 -1 27 -5 27 -9 0 -8 60 0 70 10 9 9 -26 22 -45 17 -18 -4 -18 -4 -3 6
10 6 26 10 35 8 23 -4 51 -48 51 -79 1 -13 2 -44 3 -69 1 -25 -1 -52 -5 -60
-3 -8 -4 -24 -3 -35 3 -31 -37 -31 -70 -1 -16 15 -34 24 -41 21 -7 -3 -11 -1
-8 3 2 4 1 14 -4 22 -7 11 -31 15 -93 15 -56 0 -89 5 -100 14 -10 7 -17 11
-17 7 0 -4 -13 0 -30 9 -27 14 -29 14 -23 -1 5 -13 2 -15 -16 -9 -13 4 -32 16
-42 26 -24 24 -30 24 -52 -1 -21 -25 -43 -26 -56 -2 -9 16 -11 16 -25 -3 -14
-20 -15 -20 -48 -1 -68 40 -111 108 -56 90 17 -5 19 -3 13 16 -7 21 -5 22 27
15 18 -4 37 -11 42 -16 6 -5 15 -4 23 3 10 8 18 6 33 -7 11 -10 23 -15 26 -12
4 3 15 2 26 -4 11 -6 27 -7 36 -3 9 4 20 8 25 9 4 2 10 4 15 5 10 4 32 7 65 9
17 0 27 7 27 16 0 20 16 19 24 -1 5 -12 10 -14 20 -5 7 6 16 7 21 3 4 -4 5 5
1 21 -8 32 11 37 23 6z m-1129 -182 c0 -5 -12 -21 -27 -35 l-28 -26 31 -8 c28
-7 33 -13 37 -51 3 -23 7 -60 10 -82 7 -50 -6 -67 -40 -54 -22 8 -24 7 -18 -8
4 -10 10 -28 13 -41 2 -13 10 -21 17 -18 13 5 35 -12 35 -26 0 -4 -6 -5 -14
-2 -21 8 -32 -17 -13 -31 23 -16 21 -42 -3 -55 -14 -8 -19 -20 -19 -48 1 -20
-2 -50 -6 -65 -9 -34 20 -74 40 -57 16 13 94 -3 106 -22 13 -19 11 -28 -6 -28
-8 0 -15 -4 -15 -10 0 -15 -28 -12 -37 3 -4 8 -18 16 -30 19 -19 5 -20 3 -13
-16 4 -11 13 -20 18 -19 6 1 16 -5 23 -15 7 -9 9 -14 5 -10 -13 11 -36 -11
-29 -28 3 -9 -2 -14 -17 -14 -13 0 -20 -5 -18 -12 3 -7 11 -13 19 -13 24 0 59
-38 59 -63 0 -20 -3 -22 -14 -13 -30 25 -56 -8 -56 -74 0 -42 18 -19 23 30 3
30 4 24 6 -25 2 -36 6 -91 10 -122 5 -45 4 -58 -6 -58 -7 0 -13 -4 -13 -10 0
-26 -20 -5 -30 31 -22 80 -57 109 -47 40 6 -45 -17 -91 -36 -72 -13 13 -51 15
-43 2 3 -5 -1 -12 -10 -15 -8 -3 -12 -10 -9 -16 4 -6 -12 -10 -42 -9 l-48 1
40 12 40 12 -32 8 c-31 7 -33 11 -33 49 -1 23 -7 80 -14 127 -7 47 -11 87 -9
90 3 3 11 -4 19 -14 19 -27 26 -16 14 23 -7 24 -6 31 3 28 6 -2 14 -14 18 -28
7 -22 7 -22 8 6 1 18 9 35 20 42 22 14 102 20 118 10 7 -4 15 -2 19 5 12 19
15 68 4 68 -6 0 -10 -5 -10 -12 0 -6 -8 -4 -19 6 -17 16 -19 16 -25 0 -4 -10
-1 -21 6 -25 16 -10 10 -15 -29 -22 l-31 -6 1 45 c0 25 -5 50 -11 56 -9 9 -12
9 -12 0 0 -7 -5 -12 -11 -12 -8 0 -8 5 1 15 9 10 9 19 2 28 -12 15 -1 81 14
84 7 1 14 -11 18 -27 4 -23 10 -28 23 -24 14 5 15 4 4 -4 -18 -13 -1 -66 24
-71 15 -2 17 2 12 28 -4 19 -2 31 4 31 6 0 7 6 2 13 -4 6 -6 20 -5 30 2 9 -4
20 -12 23 -9 3 -13 11 -10 16 4 6 1 9 -7 6 -8 -3 -20 1 -27 9 -12 11 -11 17 2
38 9 14 21 25 26 25 6 0 10 5 10 10 0 6 -9 10 -20 10 -21 0 -67 39 -62 54 1 4
-3 14 -9 22 -9 11 -6 14 17 15 55 3 59 4 72 12 10 7 10 12 1 23 -13 16 -39 19
-39 4 0 -5 -7 -10 -15 -10 -8 0 -15 2 -15 4 0 2 -3 11 -6 20 -4 11 -1 16 10
16 9 0 16 6 16 13 0 20 -35 48 -52 42 -8 -3 -31 2 -53 10 -23 10 -51 14 -70
11 -18 -4 -45 -1 -61 5 -16 7 -46 13 -68 14 -27 1 -43 8 -57 26 -22 29 -25 72
-4 89 15 13 205 18 224 6 6 -4 20 -2 32 4 14 8 24 9 31 2 7 -7 19 -7 34 -2 14
6 26 6 29 0 8 -13 85 -13 85 0 0 5 -8 14 -17 19 -16 10 -16 11 5 17 13 4 21
12 18 20 -3 9 4 12 25 12 16 -1 29 -5 29 -11z m990 -108 c5 -9 26 -20 47 -23
21 -4 52 -9 68 -12 23 -4 26 -3 15 5 -13 9 -12 11 4 11 12 0 16 5 12 15 -9 25
28 18 52 -10 30 -34 28 -37 -15 -29 -31 5 -36 4 -25 -7 6 -7 12 -19 12 -27 0
-12 -3 -12 -15 -2 -13 10 -15 9 -15 -10 0 -21 -3 -22 -47 -15 -27 4 -52 11
-57 15 -5 5 -23 6 -39 3 -25 -5 -29 -3 -24 10 4 10 2 17 -2 17 -5 0 -11 -7
-15 -15 -15 -40 -66 13 -66 69 0 23 3 25 51 24 36 -1 53 -6 59 -19z m386 -22
c8 -8 12 -94 5 -106 -5 -7 -23 -11 -46 -9 -34 3 -42 8 -68 52 -18 31 -26 57
-23 71 5 21 7 21 67 9 33 -7 63 -14 65 -17z m-194 -222 c29 -8 64 -17 78 -20
21 -5 22 -4 5 4 -20 10 -20 10 0 10 11 1 28 -8 38 -19 9 -11 26 -20 37 -20 20
0 28 16 10 22 -6 2 -6 9 0 18 5 8 12 11 16 8 20 -21 33 -198 13 -198 -6 0 -19
5 -31 11 -28 15 -64 3 -72 -23 -6 -23 -6 -23 -22 -3 -11 14 -18 16 -21 8 -6
-17 -31 -16 -49 1 -12 13 -11 15 6 21 25 8 28 48 3 43 -11 -2 -17 -12 -16 -23
1 -11 0 -14 -3 -7 -6 14 -67 42 -91 42 -8 0 -21 7 -29 15 -9 8 -21 15 -29 15
-15 0 -28 -41 -20 -63 3 -7 -1 -20 -10 -27 -8 -7 -15 -21 -15 -31 0 -11 -3
-19 -7 -20 -72 -7 -100 -12 -114 -20 -27 -14 -47 -11 -45 9 1 12 -8 18 -31 20
-21 2 -33 9 -33 18 0 8 -4 14 -9 14 -5 0 -16 2 -24 6 -10 3 -16 -5 -21 -28 -3
-18 -9 -46 -12 -61 -5 -21 -3 -27 7 -25 8 2 14 -3 13 -9 -1 -7 -2 -29 -2 -48
l-2 -35 -65 0 c-49 0 -67 4 -71 15 -4 9 -19 15 -35 15 -16 0 -29 4 -29 9 0 21
105 131 125 131 6 0 15 8 22 19 6 10 35 30 65 46 29 15 67 37 83 50 17 12 46
30 67 39 20 10 44 26 54 37 9 10 25 19 34 19 9 0 21 5 27 11 8 8 14 5 22 -10
10 -17 9 -21 -4 -21 -9 0 -13 -4 -10 -10 10 -17 32 -11 38 10 4 14 14 20 34
20 16 0 38 7 49 15 23 18 14 18 76 0z m-1801 -382 c1 -27 1 -52 0 -56 -1 -8
11 -58 32 -132 l11 -40 7 55 6 55 1 -62 2 -62 -37 -10 c-21 -6 -42 -11 -48
-11 -16 0 -14 88 1 94 8 3 11 12 8 21 -3 8 -10 13 -14 10 -9 -6 -32 19 -29 31
1 5 -1 27 -5 49 -20 112 -22 105 24 105 l40 0 1 -47z m-140 -88 c9 -60 22
-128 28 -149 12 -46 11 -48 -23 -50 -14 0 -26 -4 -26 -8 0 -5 -7 -8 -15 -8
-11 0 -15 11 -15 41 0 24 4 38 10 34 6 -3 10 0 10 8 0 8 -7 18 -15 21 -24 9
-42 63 -50 143 -8 78 -4 83 55 80 23 -2 25 -7 41 -112z m1271 -204 c11 -73 14
-79 25 -58 10 18 12 19 13 5 0 -20 20 -25 21 -5 1 23 18 -33 21 -67 1 -19 5
-33 9 -30 13 7 25 -21 38 -85 11 -56 10 -66 -3 -80 -11 -11 -16 -12 -16 -3 0
8 -5 10 -12 5 -13 -7 -90 -12 -83 -5 2 3 -3 11 -11 19 -8 9 -18 28 -21 44 -4
23 -10 28 -24 24 -13 -4 -19 -1 -19 9 0 10 -6 13 -17 9 -12 -4 -9 3 10 22 15
15 28 33 28 39 7 61 2 169 -8 199 -10 30 -10 41 -1 51 21 22 36 -6 50 -93z
m1766 13 c13 -15 17 -35 15 -99 -2 -85 -7 -127 -17 -144 -4 -6 -31 -10 -61
-10 -53 1 -55 2 -55 28 0 38 -20 102 -29 96 -9 -5 -17 24 -27 95 -5 32 -3 37
23 47 42 18 130 10 151 -13z m-3006 -50 c-2 -10 -9 -22 -14 -25 -18 -11 9 -20
102 -31 71 -9 93 -15 101 -30 16 -29 -5 -30 -177 -11 -150 17 -159 20 -162 41
-3 22 4 25 63 24 15 -1 16 1 4 4 -11 3 -15 12 -12 25 3 12 11 18 19 15 8 -3
24 -1 36 4 31 12 44 7 40 -16z m341 -83 c196 -21 450 -51 512 -61 33 -5 92
-12 130 -16 39 -4 80 -10 92 -15 20 -7 24 -4 31 24 8 33 41 45 50 20 2 -7 -3
-13 -12 -13 -21 0 -20 -24 2 -46 16 -17 16 -18 0 -11 -14 5 -18 1 -19 -21 0
-26 -1 -26 -11 -5 -8 17 -17 21 -37 17 -14 -3 -206 16 -425 41 -220 25 -407
45 -418 45 -16 0 -18 8 -16 63 1 38 3 48 5 26 l4 -36 112 -12z m-313 -31 c170
-17 170 -18 170 -45 0 -14 -4 -25 -10 -25 -26 0 -323 41 -331 46 -5 3 -9 14
-9 26 0 18 4 20 38 15 20 -3 84 -11 142 -17z m390 -45 c443 -49 589 -66 618
-70 34 -6 44 -30 15 -39 -36 -11 -206 2 -501 40 -246 31 -305 35 -312 25 -5
-9 -9 1 -12 28 -4 41 -3 41 27 36 16 -3 91 -12 165 -20z m10 -100 c347 -45
517 -64 538 -59 12 4 22 2 22 -4 0 -5 20 -13 45 -16 25 -4 45 -11 45 -16 0 -5
-12 -7 -27 -5 -16 3 -197 26 -403 51 -206 25 -384 47 -394 48 -11 2 -22 8 -24
15 -3 9 7 11 39 7 24 -3 96 -13 159 -21z"/>
<path d="M7770 1822 c0 -4 -16 -6 -35 -4 -35 4 -48 -11 -19 -22 12 -5 14 -14
9 -37 -7 -29 -5 -31 13 -27 13 4 23 0 26 -8 3 -9 -2 -14 -14 -14 -10 0 -22 -5
-26 -11 -4 -8 3 -9 25 -4 20 4 31 3 31 -4 0 -6 -6 -11 -14 -11 -10 0 -14 -9
-12 -27 2 -15 -3 -33 -10 -41 -19 -18 -18 -46 1 -38 9 3 15 0 15 -9 0 -8 -6
-12 -14 -9 -10 4 -14 0 -12 -12 3 -19 26 -33 26 -15 0 6 10 11 23 11 13 0 36
13 51 29 l29 30 -30 38 c-41 53 -76 113 -66 113 4 0 1 5 -7 10 -13 9 -12 13 8
29 23 20 29 41 12 41 -5 0 -10 -4 -10 -8z"/>
<path d="M11895 1650 c-3 -5 -3 -10 2 -10 4 -1 -4 -7 -18 -15 -20 -11 -25 -20
-22 -39 4 -19 14 -27 50 -36 33 -8 61 -26 97 -61 33 -32 56 -47 66 -43 8 3 24
7 36 8 30 4 73 38 74 58 0 11 -5 15 -15 12 -8 -4 -15 -11 -15 -17 0 -7 -4 -7
-12 1 -16 16 -28 15 -28 -3 0 -8 -4 -15 -10 -15 -5 0 -10 8 -10 18 -1 15 -2
15 -12 -2 -10 -17 -12 -16 -24 13 -10 23 -19 31 -38 31 -16 0 -27 7 -31 20 -4
11 -10 18 -15 15 -5 -3 -7 -12 -3 -20 6 -18 -1 -19 -27 -5 -29 16 -43 46 -30
69 10 21 -3 40 -15 21z"/>
<path d="M15691 1500 c-19 -5 -40 -6 -47 -3 -8 3 -18 -5 -23 -20 -8 -20 -15
-24 -33 -20 -38 10 -10 -11 35 -25 86 -27 105 -30 159 -17 44 10 58 10 82 -2
26 -13 30 -13 47 6 10 11 19 25 19 31 0 14 -46 31 -66 23 -8 -3 -25 -1 -37 4
-26 12 -92 33 -98 32 -2 -1 -19 -5 -38 -9z"/>
<path d="M15356 1442 c-18 -30 1 -182 36 -282 18 -51 27 -65 43 -65 28 0 31
51 9 118 -10 29 -19 63 -20 75 -2 13 -11 55 -21 93 -16 62 -33 84 -47 61z"/>
<path d="M14330 43 c0 -7 46 -14 118 -17 64 -4 184 -11 265 -16 143 -10 725
-14 716 -6 -2 2 -71 6 -154 9 -82 4 -202 9 -265 11 -556 27 -680 30 -680 19z"/>
</g>
</svg>
